<?xml version="1.0" encoding="iso-8859-1"?>
<!-- Generator: Adobe Illustrator 16.0.0, SVG Export Plug-In . SVG Version: 6.00 Build 0)  -->
<!DOCTYPE svg PUBLIC "-//W3C//DTD SVG 1.1//EN" "http://www.w3.org/Graphics/SVG/1.1/DTD/svg11.dtd">
<svg version="1.1" id="Capa_1" xmlns="http://www.w3.org/2000/svg" xmlns:xlink="http://www.w3.org/1999/xlink" x="0px" y="0px"
	 width="460px" height="460px" viewBox="0 0 460 460" style="enable-background:new 0 0 460 460;" xml:space="preserve">
<g style="fill: #999;">
	<g>
		<g>
			<path d="M453.172,247.979l-37.869-37.868c-4.18-4.18-9.553-6.435-15.018-6.777l-12.865-12.862
				c19.111-30.383,15.453-71.089-10.975-97.518c-30.68-30.677-80.59-30.677-111.271,0c-30.676,30.677-30.676,80.593,0.003,111.27
				c26.429,26.43,67.136,30.086,97.519,10.976l12.859,12.862c0.346,5.468,2.6,10.84,6.777,15.019l37.869,37.869
				c9.104,9.106,23.863,9.104,32.969,0S462.277,257.084,453.172,247.979z M359.963,187.738c-21.588,21.587-56.715,21.587-78.301,0
				c-21.586-21.59-21.586-56.713-0.002-78.301c21.588-21.588,56.709-21.588,78.303,0.001
				C381.549,131.025,381.549,166.149,359.963,187.738z"/>
			<path d="M322.043,115.2c-19.277,0-34.957,15.683-34.957,34.958c0,1.78,0.135,3.526,0.396,5.235l-9.129,5.323
				c2.003,7.136,5.791,13.868,11.395,19.471c0.258,0.257,0.521,0.497,0.783,0.746l8.182-4.772
				c6.188,5.563,14.369,8.954,23.332,8.954c19.273,0,34.955-15.682,34.955-34.957S341.316,115.2,322.043,115.2z M322.043,161.52
				c-6.266,0-11.361-5.097-11.361-11.36c0-6.263,5.098-11.36,11.361-11.36c6.26,0,11.359,5.097,11.359,11.36
				C333.402,156.422,328.303,161.52,322.043,161.52z"/>
			<path d="M215.58,227.212c0-0.838-0.041-1.667-0.098-2.489l35.702-20.829c-4.983-6.314-8.993-13.147-12.028-20.303l-33.322,19.441
				c-6.365-6.635-15.309-10.777-25.207-10.777c-12.352,0-23.221,6.443-29.438,16.142l-81.428-31.87
				c0.096-1.058,0.15-2.125,0.15-3.207c0-19.276-15.678-34.958-34.955-34.958C15.682,138.36,0,154.042,0,173.318
				c0,19.274,15.682,34.957,34.955,34.957c9.68,0,18.447-3.955,24.785-10.331l86.225,33.746
				c2.205,17.168,16.902,30.479,34.66,30.479C199.898,262.169,215.58,246.487,215.58,227.212z M34.955,184.679
				c-6.262,0-11.359-5.098-11.359-11.36c0-6.265,5.098-11.361,11.359-11.361c6.264,0,11.359,5.098,11.359,11.361
				S41.219,184.679,34.955,184.679z M180.625,238.572c-6.266,0-11.361-5.096-11.361-11.36s5.096-11.36,11.361-11.36
				c6.264,0,11.359,5.097,11.359,11.36C191.984,233.477,186.889,238.572,180.625,238.572z"/>
			<path d="M264.723,217.725l-36.305,21.183c-2.404,22.491-20.385,40.391-42.91,42.673v108.474h160.518V234.447
				c-7.973,2.279-16.271,3.458-24.686,3.458C300.432,237.905,280.635,230.797,264.723,217.725z"/>
			<path d="M134.691,247.912l-72.555-28.397c-7.945,5.478-17.338,8.425-27.182,8.425c-8.729,0-16.914-2.352-23.98-6.437v168.55
				h160.518V280.946C154.162,277.578,139.902,264.826,134.691,247.912z"/>
		</g>
	</g>
</g>
<g>
</g>
<g>
</g>
<g>
</g>
<g>
</g>
<g>
</g>
<g>
</g>
<g>
</g>
<g>
</g>
<g>
</g>
<g>
</g>
<g>
</g>
<g>
</g>
<g>
</g>
<g>
</g>
<g>
</g>
</svg>
