<svg xmlns="http://www.w3.org/2000/svg" xmlns:xlink="http://www.w3.org/1999/xlink" width="859.67" height="552.17"><g transform="translate(-183.33333333333348 -213)"><path d="M926.38 400.17H879.5c-3.2 0-5.84 2.64-5.84 5.88v114.12h58.5V406.05c0-3.24-2.62-5.88-5.78-5.88zm-2.92 108.24h-41.02v-5.87h41.02v5.88zm0-11.63h-41.02v-5.88h41.02v5.87zm0-73.2h-41.02v-5.88h41.02v5.87z" fill="#2babee"/><path d="M410.13 483.2l2.62.05 2.5.16 2.44.27 2.34.34 2.3.45 2.23.53 2.2.6 2.18.72 2.16.8 2.16.9 2.15 1.02 2.17 1.13 2.18 1.26 2.22 1.42 2.27 1.57 2.32 1.76 2.4 2 2.53 2.26 2.63 2.6 2.82 3 3.04 3.52 3.34 4.24 3.82 5.26 4.57 6.9 6.24 10.33 28.7 51.12 4.57 6.9 3.82 5.25 3.35 4.24 3.05 3.5 2.82 3.02 2.65 2.6 2.5 2.25 2.42 2 2.33 1.76 2.26 1.58 2.22 1.42 2.18 1.26 2.16 1.13 2.14 1.02 2.15.9 2.15.8 2.18.7 2.2.63 2.24.52 2.3.44 2.35.36 2.42.25 2.52.17 2.6.06" stroke="#2a3843" stroke-width="4" fill="none"/><path d="M410.38 481.22l-.25 2v-2.04zM568.27 630.13l-14.73 2.8 1.17-9.2z" fill="#2a3843"/><path d="M568.27 627.92v4.24l-17.06 3.24 1.87-14.65zm-12.4 2.53l5.98-1.14-5.5-2.6z" fill="#2a3843"/><path d="M729.63 631.8l2.22-.04 2.13-.13 2.07-.22 2-.3 1.98-.36 1.92-.45 1.9-.54 1.88-.6 1.86-.7 1.85-.8 1.86-.87 1.9-1 1.9-1.08 1.92-1.23 1.97-1.38 2-1.54 2.1-1.73 2.2-1.97 2.28-2.24 2.43-2.6 2.62-3.02 2.85-3.6 3.17-4.37 3.67-5.53 4.53-7.5 6.7-12.24 22.93-44.23 4.52-7.5 3.67-5.52 3.17-4.37 2.85-3.6 2.6-3.02 2.44-2.6 2.3-2.24 2.18-1.97 2.1-1.73 2.02-1.54 1.97-1.37 1.93-1.23 1.9-1.1 1.88-.98 1.86-.9 1.86-.77 1.86-.7 1.88-.6 1.9-.53 1.92-.46 1.96-.37 2.02-.3 2.06-.2 2.14-.15 2.22-.04" stroke="#0eb29c" stroke-width="4" fill="none"/><path d="M729.93 633.78l-.3.05v-2.04zM873.66 487.78l-13.4 6.7-1.4-9.16z" fill="#0eb29c"/><path d="M873.66 485.75V490l-14.98 7.5-2.2-14.6zm-11.85 5.72l5.46-2.73-6-1z" fill="#0eb29c"/><path d="M743.07 566.33c0-2.76 2.24-5 5-5h230c2.76 0 5 2.24 5 5v50c0 2.76-2.24 5-5 5h-230c-2.76 0-5-2.24-5-5z" fill="none"/><use xlink:href="#a" transform="matrix(1,0,0,1,743.0666666666666,561.3333333333333) translate(52.608000000000004 35.22)"/><use xlink:href="#b" transform="matrix(1,0,0,1,743.0666666666666,561.3333333333333) translate(106.32 35.22)"/><use xlink:href="#c" transform="matrix(1,0,0,1,743.0666666666666,561.3333333333333) translate(149.574 35.22)"/><path d="M273.2 565.8c0-2.76 2.24-5 5-5h230c2.76 0 5 2.24 5 5v50c0 2.76-2.24 5-5 5h-230c-2.76 0-5-2.24-5-5z" fill="none"/><use xlink:href="#d" transform="matrix(1,0,0,1,273.20000000000005,560.8) translate(16.283999999999992 35.22)"/><use xlink:href="#e" transform="matrix(1,0,0,1,273.20000000000005,560.8) translate(87.456 35.22)"/><use xlink:href="#f" transform="matrix(1,0,0,1,273.20000000000005,560.8) translate(108.138 35.22)"/><use xlink:href="#g" transform="matrix(1,0,0,1,273.20000000000005,560.8) translate(183.01800000000003 35.22)"/><path d="M783 518.17c0-2.76 2.24-5 5-5h230c2.76 0 5 2.24 5 5v50c0 2.76-2.24 5-5 5H788c-2.76 0-5-2.24-5-5z" fill="none"/><use xlink:href="#h" transform="matrix(1,0,0,1,783,513.1666666666664) translate(48.747 35.22)"/><use xlink:href="#i" transform="matrix(1,0,0,1,783,513.1666666666664) translate(123.62700000000001 35.22)"/><path d="M410.13 494.25V411.1c0-4.1-3.67-10.93-8.3-10.93H257.85c-4.64 0-9.08 6.84-9.08 10.92v83.15c-16.2 17.28-15.44 17.28-15.44 17.28 0 4.92 4.44 8.64 10.23 8.64H416.1c5.8 0 10.24-4.08 10.24-8.64l-16.2-17.28zm-66.98 18.72h-30.1c-1.55 0-3.1-.72-3.1-1.44l3.48-5.64c0-.73 1.16-1.2 2.7-1.2h23.94c1.15 0 2.3.47 2.3 1.2l3.87 5.63c0 1.08-1.54 1.44-3.1 1.44zm59.84-19.2H255.9V411.8c0-1.9 1.93-4.55 4.05-4.55h139.35c2.12 0 3.67 2.64 3.67 4.56v81.97z" fill="#2babee"/><path d="M203.33 348.17c0-2.76 2.24-5 5-5h243.34c2.76 0 5 2.24 5 5v50c0 2.76-2.24 5-5 5H208.33c-2.76 0-5-2.24-5-5z" fill="none"/><use xlink:href="#j" transform="matrix(1,0,0,1,203.33333333333348,343.1666666666664) translate(4.725999999999999 26.22)"/><use xlink:href="#k" transform="matrix(1,0,0,1,203.33333333333348,343.1666666666664) translate(87.652 26.22)"/><use xlink:href="#l" transform="matrix(1,0,0,1,203.33333333333348,343.1666666666664) translate(105.112 26.22)"/><use xlink:href="#m" transform="matrix(1,0,0,1,203.33333333333348,343.1666666666664) translate(144.208 26.22)"/><use xlink:href="#n" transform="matrix(1,0,0,1,203.33333333333348,343.1666666666664) translate(164.89 26.22)"/><use xlink:href="#o" transform="matrix(1,0,0,1,203.33333333333348,343.1666666666664) translate(179.164 26.22)"/><use xlink:href="#p" transform="matrix(1,0,0,1,203.33333333333348,343.1666666666664) translate(27.576999999999998 44.22)"/><use xlink:href="#q" transform="matrix(1,0,0,1,203.33333333333348,343.1666666666664) translate(111.133 44.22)"/><use xlink:href="#r" transform="matrix(1,0,0,1,203.33333333333348,343.1666666666664) translate(185.869 44.22)"/><path d="M210 518.17c0-2.76 2.24-5 5-5h230c2.76 0 5 2.24 5 5v50c0 2.76-2.24 5-5 5H215c-2.76 0-5-2.24-5-5z" fill="none"/><use xlink:href="#s" transform="matrix(1,0,0,1,210,513.1666666666664) translate(19.02900000000001 35.22)"/><use xlink:href="#t" transform="matrix(1,0,0,1,210,513.1666666666664) translate(113.763 35.22)"/><use xlink:href="#u" transform="matrix(1,0,0,1,210,513.1666666666664) translate(154.40699999999998 35.22)"/><path d="M729.63 666.25V583.1c0-4.1-3.67-10.93-8.3-10.93H577.35c-4.64 0-9.08 6.84-9.08 10.92v83.15c-16.2 17.28-15.44 17.28-15.44 17.28 0 4.92 4.44 8.64 10.23 8.64H735.6c5.8 0 10.24-4.08 10.24-8.64l-16.2-17.28zm-66.98 18.72h-30.1c-1.55 0-3.1-.72-3.1-1.44l3.48-5.64c0-.73 1.16-1.2 2.7-1.2h23.94c1.15 0 2.3.47 2.3 1.2l3.87 5.63c0 1.08-1.54 1.44-3.1 1.44zm59.84-19.2H575.4V583.8c0-1.9 1.93-4.55 4.05-4.55h139.35c2.12 0 3.67 2.64 3.67 4.56v81.97z" fill="#2babee"/><path d="M529.5 518.57c0-2.76 2.24-5 5-5h230c2.76 0 5 2.24 5 5v50c0 2.76-2.24 5-5 5h-230c-2.76 0-5-2.24-5-5z" fill="none"/><use xlink:href="#v" transform="matrix(1,0,0,1,529.5,513.5666666666665) translate(8.012999999999991 26.22)"/><use xlink:href="#w" transform="matrix(1,0,0,1,529.5,513.5666666666665) translate(90.939 26.22)"/><use xlink:href="#x" transform="matrix(1,0,0,1,529.5,513.5666666666665) translate(146.30700000000002 26.22)"/><use xlink:href="#y" transform="matrix(1,0,0,1,529.5,513.5666666666665) translate(196.68900000000002 26.22)"/><use xlink:href="#z" transform="matrix(1,0,0,1,529.5,513.5666666666665) translate(81.678 44.22)"/><use xlink:href="#A" transform="matrix(1,0,0,1,529.5,513.5666666666665) translate(121.79999999999998 44.22)"/><path d="M529.5 690.17c0-2.76 2.24-5 5-5h230c2.76 0 5 2.24 5 5v50c0 2.76-2.24 5-5 5h-230c-2.76 0-5-2.24-5-5z" fill="none"/><use xlink:href="#s" transform="matrix(1,0,0,1,529.5,685.1666666666664) translate(19.02900000000001 35.22)"/><use xlink:href="#t" transform="matrix(1,0,0,1,529.5,685.1666666666664) translate(113.763 35.22)"/><use xlink:href="#u" transform="matrix(1,0,0,1,529.5,685.1666666666664) translate(154.40699999999998 35.22)"/><path d="M573.67 583.33c0-2.76 2.24-5 5-5h138c2.76 0 5 2.24 5 5v78c0 2.76-2.24 5-5 5h-138c-2.76 0-5-2.24-5-5z" fill="none"/><use xlink:href="#B" transform="matrix(1,0,0,1,573.6666666666666,578.3333333333334) translate(38.873 31.22)"/><use xlink:href="#C" transform="matrix(1,0,0,1,573.6666666666666,578.3333333333334) translate(34.28300000000001 49.22)"/><use xlink:href="#f" transform="matrix(1,0,0,1,573.6666666666666,578.3333333333334) translate(16.211 67.22)"/><use xlink:href="#g" transform="matrix(1,0,0,1,573.6666666666666,578.3333333333334) translate(91.09100000000001 67.22)"/><path d="M410.14 444.8h463.52" stroke="#000" stroke-width="4" fill="none"/><path d="M424.4 449.44l-14.26-4.64 14.26-4.64z"/><path d="M426.4 452.2l-16.27-5.3v-4.2l16.27-5.3zm-9.8-7.4l5.8 1.88v-3.76z"/><path d="M675.66 233H628.8c-3.22 0-5.86 2.64-5.86 5.88V353h58.52V238.88c0-3.24-2.64-5.88-5.8-5.88zm-2.92 108.24h-41.02v-5.88h41.02v5.88zm0-11.64h-41.02v-5.88h41.02v5.88zm0-73.2h-41.02v-5.88h41.02v5.88z" fill="#2babee"/><path d="M531.2 351c0-2.76 2.24-5 5-5h230c2.76 0 5 2.24 5 5v50c0 2.76-2.24 5-5 5h-230c-2.76 0-5-2.24-5-5z" fill="none"/><g><use xlink:href="#D" transform="matrix(1,0,0,1,531.2,346) translate(73.551 35.22)"/><use xlink:href="#E" transform="matrix(1,0,0,1,531.2,346) translate(114.15899999999999 35.22)"/></g><path d="M691.2 268.5c0-2.76 2.24-5 5-5h303.33c2.76 0 5 2.24 5 5v50c0 2.76-2.24 5-5 5H696.2c-2.76 0-5-2.24-5-5z" fill="none"/><g><use xlink:href="#F" transform="matrix(1,0,0,1,691.2,263.5) translate(0 26.22)"/><use xlink:href="#G" transform="matrix(1,0,0,1,691.2,263.5) translate(27.9 26.22)"/><use xlink:href="#H" transform="matrix(1,0,0,1,691.2,263.5) translate(78.282 26.22)"/><use xlink:href="#I" transform="matrix(1,0,0,1,691.2,263.5) translate(118.20599999999999 26.22)"/><use xlink:href="#J" transform="matrix(1,0,0,1,691.2,263.5) translate(158.32799999999997 26.22)"/><use xlink:href="#K" transform="matrix(1,0,0,1,691.2,263.5) translate(175.78799999999998 26.22)"/><use xlink:href="#L" transform="matrix(1,0,0,1,691.2,263.5) translate(231.69599999999997 26.22)"/><use xlink:href="#M" transform="matrix(1,0,0,1,691.2,263.5) translate(0 44.22)"/><use xlink:href="#N" transform="matrix(1,0,0,1,691.2,263.5) translate(96.264 44.22)"/><use xlink:href="#O" transform="matrix(1,0,0,1,691.2,263.5) translate(164.286 44.22)"/><use xlink:href="#P" transform="matrix(1,0,0,1,691.2,263.5) translate(204.732 44.22)"/></g><path d="M507.87 564.33c0 7.92-6.42 14.34-14.34 14.34-7.9 0-14.33-6.42-14.33-14.34 0-7.9 6.42-14.33 14.33-14.33 7.92 0 14.34 6.42 14.34 14.33z" stroke="#000" stroke-width="2" fill="#fff"/><path d="M480.62 557c0-2.76 2.24-5 5-5h14c2.76 0 5 2.24 5 5v15.33c0 2.76-2.24 5-5 5h-14c-2.76 0-5-2.24-5-5z" fill="none"/><g><use xlink:href="#Q" transform="matrix(1,0,0,1,480.61666666662774,551.9999999999611) translate(8.58 18.22)"/></g><path d="M749.53 608.33h-1.04v-1.84c0-3.88-2.58-5.87-5.57-5.87h-.5c-3.04 0-5.56 1.93-5.56 5.86v1.83h-1.03c-.44 0-1.04.56-1.04 1v9.83c0 .43.6 1 1.04 1h13.67c.45 0 1.05-.57 1.05-1v-9.84c-.05-.43-.64-1-1.02-1zm-6.1 5.8v4.1h-1.54v-4.1c-.6-.26-1.05-.83-1.05-1.5 0-.95.83-1.73 1.8-1.73 1 0 1.8.78 1.8 1.72 0 .63-.43 1.2-1.03 1.52zm3.15-5.8h-7.8v-1.84c0-2.47 1.36-4.15 3.66-4.15h.5c2.34 0 3.64 1.68 3.64 4.14v1.83z" fill="#0eb29c"/><path d="M903.4 474.8c0-2.76 2.24-5 5-5h85.74c2.76 0 5 2.24 5 5v50c0 2.76-2.24 5-5 5H908.4c-2.76 0-5-2.24-5-5z" stroke="#fff" stroke-width="4" fill="#0eb29c"/><path d="M908.18 496.27c0-2.76 2.24-5 5-5h77.9c2.76 0 5 2.24 5 5v18.66c0 2.76-2.24 5-5 5h-77.9c-2.76 0-5-2.24-5-5z" fill="none"/><g><use xlink:href="#R" transform="matrix(1,0,0,1,908.1802490672093,491.26666666671287) translate(0 17.72222222222222)"/></g><path d="M907.77 512.93c0-2.76 2.24-5 5-5h83.53c2.76 0 5 2.24 5 5v12.67c0 2.76-2.24 5-5 5h-83.53c-2.76 0-5-2.24-5-5z" fill="none"/><g><use xlink:href="#S" transform="matrix(1,0,0,1,907.7747032029846,507.93333333337995) translate(0 15.366666666666667)"/><use xlink:href="#T" transform="matrix(1,0,0,1,907.7747032029846,507.93333333337995) translate(32.080000000000005 15.366666666666667)"/></g><path d="M992.8 481.93h-1.04v-1.84c0-3.88-2.56-5.87-5.56-5.87h-.48c-3.06 0-5.58 1.94-5.58 5.86v1.83h-1.02c-.44 0-1.04.56-1.04 1v9.83c0 .43.6 1 1.04 1h13.67c.43 0 1.03-.57 1.03-1v-9.84c-.05-.43-.65-1-1.03-1zm-6.1 5.82v4.08h-1.54v-4.08c-.6-.28-1.04-.84-1.04-1.53 0-.94.84-1.72 1.8-1.72 1 0 1.8.78 1.8 1.72 0 .63-.43 1.2-1.03 1.53zm3.16-5.82h-7.8v-1.84c0-2.47 1.36-4.15 3.66-4.15h.48c2.35 0 3.66 1.68 3.66 4.14v1.83z" fill="#fff"/><path d="M813.73 563.28c0 7.92-6.4 14.34-14.33 14.34-7.92 0-14.33-6.42-14.33-14.34 0-7.9 6.4-14.33 14.33-14.33 7.92 0 14.33 6.42 14.33 14.33z" stroke="#000" stroke-width="2" fill="#fff"/><path d="M787.1 555.95c0-2.76 2.25-5 5-5h14c2.77 0 5 2.24 5 5v15.33c0 2.76-2.23 5-5 5h-14c-2.75 0-5-2.24-5-5z" fill="none"/><g><use xlink:href="#U" transform="matrix(1,0,0,1,787.1083333333335,550.9500000000007) translate(6.6450000000000005 18.22)"/></g><path d="M530.8 391.8c0-2.76 2.24-5 5-5h230c2.76 0 5 2.24 5 5v50c0 2.76-2.24 5-5 5h-230c-2.76 0-5-2.24-5-5z" fill="none"/><g><use xlink:href="#V" transform="matrix(1,0,0,1,530.8,386.80000000000007) translate(44.211 35.22)"/><use xlink:href="#W" transform="matrix(1,0,0,1,530.8,386.80000000000007) translate(119.09100000000001 35.22)"/></g><path d="M662.15 444.17c0 7.9-6.42 14.33-14.33 14.33-7.92 0-14.34-6.42-14.34-14.33 0-7.92 6.42-14.34 14.34-14.34 7.9 0 14.33 6.42 14.33 14.34z" stroke="#000" stroke-width="2" fill="#fff"/><path d="M635.9 436.83c0-2.76 2.24-5 5-5h14c2.76 0 5 2.24 5 5v15.34c0 2.76-2.24 5-5 5h-14c-2.76 0-5-2.24-5-5z" fill="none"/><g><use xlink:href="#X" transform="matrix(1,0,0,1,635.9,431.83333333333417) translate(6.8340000000000005 18.22)"/></g><defs><path d="M386 12C194 12 41-128 41-333s153-345 345-345c140 0 223 70 273 150l-100 51c-32-55-96-97-173-97-127 0-225 101-225 241S259-92 386-92c77 0 141-41 173-97l100 51C608-58 526 12 386 12" id="Y"/><path d="M68 0v-483h105v71c36-46 94-82 157-82v104c-63-14-128 20-157 61V0H68" id="Z"/><path d="M38-242c0-140 102-253 245-253 153 0 246 120 238 288H148c8 73 63 133 154 133 47 0 103-19 137-53l48 69c-48 46-119 70-196 70C146 12 38-89 38-242zm245-167c-90 0-131 69-136 128h272c-2-57-41-128-136-128" id="aa"/><path d="M408 0v-66c-37 48-93 78-155 78C129 12 38-82 38-241c0-156 90-254 215-254 60 0 116 28 155 79v-251h105V0H408zm0-145v-192c-24-36-75-65-125-65-83 0-136 67-136 161 0 93 53 160 136 160 50 0 101-28 125-64" id="ab"/><path d="M120-557c-35 0-65-29-65-65s30-65 65-65c36 0 65 29 65 65s-29 65-65 65zM68 0v-483h105V0H68" id="ac"/><path d="M213 12C132 12 89-32 89-112v-279H9v-92h80v-132h105v132h98v92h-98v253c-9 59 64 71 93 40l25 79c-19 18-50 31-99 31" id="ad"/><g id="a"><use transform="matrix(0.018,0,0,0.018,0,0)" xlink:href="#Y"/><use transform="matrix(0.018,0,0,0.018,12.276,0)" xlink:href="#Z"/><use transform="matrix(0.018,0,0,0.018,18.522,0)" xlink:href="#aa"/><use transform="matrix(0.018,0,0,0.018,28.548,0)" xlink:href="#ab"/><use transform="matrix(0.018,0,0,0.018,39.006,0)" xlink:href="#ac"/><use transform="matrix(0.018,0,0,0.018,43.34400000000001,0)" xlink:href="#ad"/></g><path d="M363 0v-52C272 53 39 33 39-148c0-184 234-194 324-95v-72c0-56-46-90-113-90-54 0-101 20-143 61l-43-73c56-53 126-78 203-78 107 0 201 45 201 175V0H363zm0-110v-73c-45-73-218-69-218 37 0 105 174 109 218 36" id="ae"/><g id="b"><use transform="matrix(0.018,0,0,0.018,0,0)" xlink:href="#Y"/><use transform="matrix(0.018,0,0,0.018,12.276,0)" xlink:href="#ae"/><use transform="matrix(0.018,0,0,0.018,21.924,0)" xlink:href="#Z"/><use transform="matrix(0.018,0,0,0.018,28.169999999999998,0)" xlink:href="#ab"/></g><path d="M71 0v-667h248c208 0 349 138 349 334S527 0 319 0H71zm117-103h131c145 0 229-104 229-230 0-129-80-231-229-231H188v461" id="af"/><g id="c"><use transform="matrix(0.018,0,0,0.018,0,0)" xlink:href="#af"/><use transform="matrix(0.018,0,0,0.018,12.78,0)" xlink:href="#ae"/><use transform="matrix(0.018,0,0,0.018,22.427999999999997,0)" xlink:href="#ad"/><use transform="matrix(0.018,0,0,0.018,28.169999999999998,0)" xlink:href="#ae"/></g><path d="M452 0L304-249H188V0H71v-667h293c132 0 218 86 218 209 0 119-78 183-158 196L587 0H452zm10-458c0-64-48-106-114-106H188v212h160c66 0 114-42 114-106" id="ag"/><path d="M38-242c0-146 103-253 250-253 94 0 151 40 185 86l-69 64c-27-38-64-57-111-57-88 0-146 66-146 160S205-81 293-81c47 0 84-20 111-57l69 64c-34 46-91 86-185 86C141 12 38-95 38-242" id="ah"/><g id="d"><use transform="matrix(0.018,0,0,0.018,0,0)" xlink:href="#ag"/><use transform="matrix(0.018,0,0,0.018,10.764,0)" xlink:href="#aa"/><use transform="matrix(0.018,0,0,0.018,20.79,0)" xlink:href="#ab"/><use transform="matrix(0.018,0,0,0.018,31.247999999999998,0)" xlink:href="#ac"/><use transform="matrix(0.018,0,0,0.018,35.586,0)" xlink:href="#Z"/><use transform="matrix(0.018,0,0,0.018,41.831999999999994,0)" xlink:href="#aa"/><use transform="matrix(0.018,0,0,0.018,51.858000000000004,0)" xlink:href="#ah"/><use transform="matrix(0.018,0,0,0.018,60.804,0)" xlink:href="#ad"/></g><path d="M286 12C133 12 38-103 38-242c0-138 95-253 248-253 155 0 249 115 249 253 0 139-94 254-249 254zm0-93c90 0 140-75 140-161 0-85-50-160-140-160-89 0-139 75-139 160 0 86 50 161 139 161" id="ai"/><g id="e"><use transform="matrix(0.018,0,0,0.018,0,0)" xlink:href="#ad"/><use transform="matrix(0.018,0,0,0.018,5.742,0)" xlink:href="#ai"/></g><path d="M71 0v-667h293c140 0 218 96 218 209s-79 209-218 209H188V0H71zm391-458c0-64-48-106-114-106H188v212h160c66 0 114-42 114-106" id="aj"/><path d="M63 95c45 16 90 10 109-34l24-55L-2-483h112l141 362 141-362h113L272 87C230 187 154 208 47 189" id="ak"/><path d="M660 0v-315c0-52-23-87-79-87-47 0-91 33-112 64V0H364v-315c0-52-23-87-80-87-46 0-89 33-111 65V0H68v-483h105v66c20-30 84-78 157-78 72 0 116 36 132 89 28-44 92-89 164-89 89 0 139 48 139 146V0H660" id="al"/><path d="M394 0v-302c0-75-38-100-97-100-54 0-100 32-124 65V0H68v-483h105v66c32-38 94-78 170-78 104 0 156 56 156 155V0H394" id="am"/><g id="f"><use transform="matrix(0.018,0,0,0.018,0,0)" xlink:href="#aj"/><use transform="matrix(0.018,0,0,0.018,10.584,0)" xlink:href="#ae"/><use transform="matrix(0.018,0,0,0.018,20.232,0)" xlink:href="#ak"/><use transform="matrix(0.018,0,0,0.018,29.285999999999998,0)" xlink:href="#al"/><use transform="matrix(0.018,0,0,0.018,44.279999999999994,0)" xlink:href="#aa"/><use transform="matrix(0.018,0,0,0.018,54.306,0)" xlink:href="#am"/><use transform="matrix(0.018,0,0,0.018,64.512,0)" xlink:href="#ad"/></g><path d="M62 124l49-76c77 90 291 100 296-69v-58C370-31 315 1 252 1 129 1 38-88 38-247c0-156 90-248 214-248 61 0 116 28 155 79v-67h105v458c0 174-129 221-248 221-82 0-143-18-202-72zm345-281v-180c-23-36-75-65-124-65-83 0-136 62-136 155S200-92 283-92c49 0 101-29 124-65" id="an"/><g id="g"><use transform="matrix(0.018,0,0,0.018,0,0)" xlink:href="#aj"/><use transform="matrix(0.018,0,0,0.018,10.584,0)" xlink:href="#ae"/><use transform="matrix(0.018,0,0,0.018,20.232,0)" xlink:href="#an"/><use transform="matrix(0.018,0,0,0.018,30.671999999999997,0)" xlink:href="#aa"/></g><path fill="#999" d="M71 0v-667h293c140 0 218 96 218 209s-79 209-218 209H188V0H71zm391-458c0-64-48-106-114-106H188v212h160c66 0 114-42 114-106" id="ao"/><path fill="#999" d="M363 0v-52C272 53 39 33 39-148c0-184 234-194 324-95v-72c0-56-46-90-113-90-54 0-101 20-143 61l-43-73c56-53 126-78 203-78 107 0 201 45 201 175V0H363zm0-110v-73c-45-73-218-69-218 37 0 105 174 109 218 36" id="ap"/><path fill="#999" d="M63 95c45 16 90 10 109-34l24-55L-2-483h112l141 362 141-362h113L272 87C230 187 154 208 47 189" id="aq"/><path fill="#999" d="M660 0v-315c0-52-23-87-79-87-47 0-91 33-112 64V0H364v-315c0-52-23-87-80-87-46 0-89 33-111 65V0H68v-483h105v66c20-30 84-78 157-78 72 0 116 36 132 89 28-44 92-89 164-89 89 0 139 48 139 146V0H660" id="ar"/><path fill="#999" d="M38-242c0-140 102-253 245-253 153 0 246 120 238 288H148c8 73 63 133 154 133 47 0 103-19 137-53l48 69c-48 46-119 70-196 70C146 12 38-89 38-242zm245-167c-90 0-131 69-136 128h272c-2-57-41-128-136-128" id="as"/><path fill="#999" d="M394 0v-302c0-75-38-100-97-100-54 0-100 32-124 65V0H68v-483h105v66c32-38 94-78 170-78 104 0 156 56 156 155V0H394" id="at"/><path fill="#999" d="M213 12C132 12 89-32 89-112v-279H9v-92h80v-132h105v132h98v92h-98v253c-9 59 64 71 93 40l25 79c-19 18-50 31-99 31" id="au"/><g id="h"><use transform="matrix(0.018,0,0,0.018,0,0)" xlink:href="#ao"/><use transform="matrix(0.018,0,0,0.018,10.584,0)" xlink:href="#ap"/><use transform="matrix(0.018,0,0,0.018,20.232,0)" xlink:href="#aq"/><use transform="matrix(0.018,0,0,0.018,29.285999999999998,0)" xlink:href="#ar"/><use transform="matrix(0.018,0,0,0.018,44.279999999999994,0)" xlink:href="#as"/><use transform="matrix(0.018,0,0,0.018,54.306,0)" xlink:href="#at"/><use transform="matrix(0.018,0,0,0.018,64.512,0)" xlink:href="#au"/></g><path fill="#999" d="M68 0v-483h105v71c36-46 94-82 157-82v104c-63-14-128 20-157 61V0H68" id="av"/><path fill="#999" d="M286 12C133 12 38-103 38-242c0-138 95-253 248-253 155 0 249 115 249 253 0 139-94 254-249 254zm0-93c90 0 140-75 140-161 0-85-50-160-140-160-89 0-139 75-139 160 0 86 50 161 139 161" id="aw"/><path fill="#999" d="M195 0L-2-483h112l141 362 141-362h113L308 0H195" id="ax"/><path fill="#999" d="M120-557c-35 0-65-29-65-65s30-65 65-65c36 0 65 29 65 65s-29 65-65 65zM68 0v-483h105V0H68" id="ay"/><path fill="#999" d="M408 0v-66c-37 48-93 78-155 78C129 12 38-82 38-241c0-156 90-254 215-254 60 0 116 28 155 79v-251h105V0H408zm0-145v-192c-24-36-75-65-125-65-83 0-136 67-136 161 0 93 53 160 136 160 50 0 101-28 125-64" id="az"/><g id="i"><use transform="matrix(0.018,0,0,0.018,0,0)" xlink:href="#ao"/><use transform="matrix(0.018,0,0,0.018,10.943999999999999,0)" xlink:href="#av"/><use transform="matrix(0.018,0,0,0.018,17.189999999999998,0)" xlink:href="#aw"/><use transform="matrix(0.018,0,0,0.018,27.503999999999998,0)" xlink:href="#ax"/><use transform="matrix(0.018,0,0,0.018,36.55799999999999,0)" xlink:href="#ay"/><use transform="matrix(0.018,0,0,0.018,40.895999999999994,0)" xlink:href="#az"/><use transform="matrix(0.018,0,0,0.018,51.354,0)" xlink:href="#as"/><use transform="matrix(0.018,0,0,0.018,61.379999999999995,0)" xlink:href="#av"/></g><path d="M394 0v-64c-35 39-95 76-171 76C119 12 68-42 68-141v-342h105v304c-7 144 181 106 221 35v-339h105V0H394" id="aA"/><path d="M26-63l48-76c34 35 101 68 164 68s95-23 95-59c0-42-51-57-110-70-83-18-182-40-182-148 0-79 68-147 190-147 82 0 144 29 188 68l-44 74c-29-33-83-58-143-58-55 0-90 20-90 54 0 37 48 50 105 63 84 18 187 42 187 156 0 85-71 150-201 150-82 0-157-26-207-75" id="aB"/><g id="j"><use transform="matrix(0.018,0,0,0.018,0,0)" xlink:href="#Y"/><use transform="matrix(0.018,0,0,0.018,12.276,0)" xlink:href="#aA"/><use transform="matrix(0.018,0,0,0.018,22.482,0)" xlink:href="#aB"/><use transform="matrix(0.018,0,0,0.018,30.977999999999998,0)" xlink:href="#ad"/><use transform="matrix(0.018,0,0,0.018,36.72,0)" xlink:href="#ai"/><use transform="matrix(0.018,0,0,0.018,47.034,0)" xlink:href="#al"/><use transform="matrix(0.018,0,0,0.018,62.028,0)" xlink:href="#aa"/><use transform="matrix(0.018,0,0,0.018,72.054,0)" xlink:href="#Z"/></g><g id="k"><use transform="matrix(0.018,0,0,0.018,0,0)" xlink:href="#ac"/><use transform="matrix(0.018,0,0,0.018,4.338,0)" xlink:href="#aB"/></g><g id="l"><use transform="matrix(0.018,0,0,0.018,0,0)" xlink:href="#aB"/><use transform="matrix(0.018,0,0,0.018,8.495999999999999,0)" xlink:href="#aa"/><use transform="matrix(0.018,0,0,0.018,18.522,0)" xlink:href="#am"/><use transform="matrix(0.018,0,0,0.018,28.727999999999998,0)" xlink:href="#ad"/></g><g id="m"><use transform="matrix(0.018,0,0,0.018,0,0)" xlink:href="#ad"/><use transform="matrix(0.018,0,0,0.018,5.742,0)" xlink:href="#ai"/></g><use transform="matrix(0.018,0,0,0.018,0,0)" xlink:href="#ae" id="n"/><path d="M173 184H68v-667h105v66c36-48 92-78 155-78 125 0 214 94 214 253S453 12 328 12c-61 0-116-27-155-79v251zm260-426c0-93-53-160-136-160-49 0-101 29-124 65v191c23 35 75 65 124 65 83 0 136-67 136-161" id="aC"/><g id="o"><use transform="matrix(0.018,0,0,0.018,0,0)" xlink:href="#aC"/><use transform="matrix(0.018,0,0,0.018,10.44,0)" xlink:href="#ae"/><use transform="matrix(0.018,0,0,0.018,20.088,0)" xlink:href="#ak"/><use transform="matrix(0.018,0,0,0.018,29.142,0)" xlink:href="#al"/><use transform="matrix(0.018,0,0,0.018,44.135999999999996,0)" xlink:href="#aa"/><use transform="matrix(0.018,0,0,0.018,54.162,0)" xlink:href="#am"/><use transform="matrix(0.018,0,0,0.018,64.368,0)" xlink:href="#ad"/></g><path d="M195 0L-2-483h112l141 362 141-362h113L308 0H195" id="aD"/><path d="M83-391S48-601 48-618c0-32 26-59 59-59 32 0 59 27 59 59 0 17-35 227-35 227H83" id="aE"/><g id="p"><use transform="matrix(0.018,0,0,0.018,0,0)" xlink:href="#aC"/><use transform="matrix(0.018,0,0,0.018,10.44,0)" xlink:href="#Z"/><use transform="matrix(0.018,0,0,0.018,16.686,0)" xlink:href="#ai"/><use transform="matrix(0.018,0,0,0.018,26.999999999999996,0)" xlink:href="#aD"/><use transform="matrix(0.018,0,0,0.018,36.054,0)" xlink:href="#ac"/><use transform="matrix(0.018,0,0,0.018,40.392,0)" xlink:href="#ab"/><use transform="matrix(0.018,0,0,0.018,50.85,0)" xlink:href="#aa"/><use transform="matrix(0.018,0,0,0.018,60.876000000000005,0)" xlink:href="#Z"/><use transform="matrix(0.018,0,0,0.018,67.122,0)" xlink:href="#aE"/><use transform="matrix(0.018,0,0,0.018,70.434,0)" xlink:href="#aB"/></g><g id="q"><use transform="matrix(0.018,0,0,0.018,0,0)" xlink:href="#aC"/><use transform="matrix(0.018,0,0,0.018,10.44,0)" xlink:href="#ae"/><use transform="matrix(0.018,0,0,0.018,20.088,0)" xlink:href="#ak"/><use transform="matrix(0.018,0,0,0.018,29.142,0)" xlink:href="#al"/><use transform="matrix(0.018,0,0,0.018,44.135999999999996,0)" xlink:href="#aa"/><use transform="matrix(0.018,0,0,0.018,54.162,0)" xlink:href="#am"/><use transform="matrix(0.018,0,0,0.018,64.368,0)" xlink:href="#ad"/></g><g id="r"><use transform="matrix(0.018,0,0,0.018,0,0)" xlink:href="#aC"/><use transform="matrix(0.018,0,0,0.018,10.44,0)" xlink:href="#ae"/><use transform="matrix(0.018,0,0,0.018,20.088,0)" xlink:href="#an"/><use transform="matrix(0.018,0,0,0.018,30.528,0)" xlink:href="#aa"/></g><path fill="#999" d="M386 12C194 12 41-128 41-333s153-345 345-345c140 0 223 70 273 150l-100 51c-32-55-96-97-173-97-127 0-225 101-225 241S259-92 386-92c77 0 141-41 173-97l100 51C608-58 526 12 386 12" id="aF"/><path fill="#999" d="M394 0v-64c-35 39-95 76-171 76C119 12 68-42 68-141v-342h105v304c-7 144 181 106 221 35v-339h105V0H394" id="aG"/><path fill="#999" d="M26-63l48-76c34 35 101 68 164 68s95-23 95-59c0-42-51-57-110-70-83-18-182-40-182-148 0-79 68-147 190-147 82 0 144 29 188 68l-44 74c-29-33-83-58-143-58-55 0-90 20-90 54 0 37 48 50 105 63 84 18 187 42 187 156 0 85-71 150-201 150-82 0-157-26-207-75" id="aH"/><path fill="#999" d="M83-391S48-601 48-618c0-32 26-59 59-59 32 0 59 27 59 59 0 17-35 227-35 227H83" id="aI"/><g id="s"><use transform="matrix(0.018,0,0,0.018,0,0)" xlink:href="#aF"/><use transform="matrix(0.018,0,0,0.018,12.276,0)" xlink:href="#aG"/><use transform="matrix(0.018,0,0,0.018,22.482,0)" xlink:href="#aH"/><use transform="matrix(0.018,0,0,0.018,30.977999999999998,0)" xlink:href="#au"/><use transform="matrix(0.018,0,0,0.018,36.72,0)" xlink:href="#aw"/><use transform="matrix(0.018,0,0,0.018,47.034,0)" xlink:href="#ar"/><use transform="matrix(0.018,0,0,0.018,62.028,0)" xlink:href="#as"/><use transform="matrix(0.018,0,0,0.018,72.054,0)" xlink:href="#av"/><use transform="matrix(0.018,0,0,0.018,78.3,0)" xlink:href="#aI"/><use transform="matrix(0.018,0,0,0.018,81.612,0)" xlink:href="#aH"/></g><path fill="#999" d="M581 0L451-492 322 0H197L6-667h131l130 514 138-514h93l138 514 129-514h131L706 0H581" id="aJ"/><path fill="#999" d="M68 0v-667h105v251c38-51 94-79 155-79 124 0 214 98 214 254 0 159-91 253-214 253-63 0-118-30-155-78V0H68zm105-145c23 36 75 64 124 64 84 0 137-66 137-160s-53-161-137-161c-49 0-101 30-124 66v191" id="aK"/><g id="t"><use transform="matrix(0.018,0,0,0.018,0,0)" xlink:href="#aJ"/><use transform="matrix(0.018,0,0,0.018,15.533999999999997,0)" xlink:href="#as"/><use transform="matrix(0.018,0,0,0.018,25.559999999999995,0)" xlink:href="#aK"/></g><path fill="#999" d="M71 0v-667h328c122 0 190 76 190 170 0 84-54 140-116 153 71 11 129 82 129 164C602-77 533 0 408 0H71zm117-391h187c60 0 94-36 94-86s-34-87-94-87H188v173zm0 288h192c64 0 102-35 102-93 0-50-35-92-102-92H188v185" id="aL"/><path fill="#999" d="M489 0L377-354 265 0H155L5-483h109l102 351 115-351h92l115 351 102-351h109L599 0H489" id="aM"/><g id="u"><use transform="matrix(0.018,0,0,0.018,0,0)" xlink:href="#aL"/><use transform="matrix(0.018,0,0,0.018,11.664,0)" xlink:href="#av"/><use transform="matrix(0.018,0,0,0.018,17.91,0)" xlink:href="#aw"/><use transform="matrix(0.018,0,0,0.018,28.224,0)" xlink:href="#aM"/><use transform="matrix(0.018,0,0,0.018,41.796,0)" xlink:href="#aH"/><use transform="matrix(0.018,0,0,0.018,50.292,0)" xlink:href="#as"/><use transform="matrix(0.018,0,0,0.018,60.318,0)" xlink:href="#av"/></g><g id="v"><use transform="matrix(0.018,0,0,0.018,0,0)" xlink:href="#Y"/><use transform="matrix(0.018,0,0,0.018,12.276,0)" xlink:href="#aA"/><use transform="matrix(0.018,0,0,0.018,22.482,0)" xlink:href="#aB"/><use transform="matrix(0.018,0,0,0.018,30.977999999999998,0)" xlink:href="#ad"/><use transform="matrix(0.018,0,0,0.018,36.72,0)" xlink:href="#ai"/><use transform="matrix(0.018,0,0,0.018,47.034,0)" xlink:href="#al"/><use transform="matrix(0.018,0,0,0.018,62.028,0)" xlink:href="#aa"/><use transform="matrix(0.018,0,0,0.018,72.054,0)" xlink:href="#Z"/></g><g id="w"><use transform="matrix(0.018,0,0,0.018,0,0)" xlink:href="#aa"/><use transform="matrix(0.018,0,0,0.018,10.026,0)" xlink:href="#am"/><use transform="matrix(0.018,0,0,0.018,20.232,0)" xlink:href="#ad"/><use transform="matrix(0.018,0,0,0.018,25.974000000000004,0)" xlink:href="#aa"/><use transform="matrix(0.018,0,0,0.018,36,0)" xlink:href="#Z"/><use transform="matrix(0.018,0,0,0.018,42.246,0)" xlink:href="#aB"/></g><g id="x"><use transform="matrix(0.018,0,0,0.018,0,0)" xlink:href="#ah"/><use transform="matrix(0.018,0,0,0.018,8.946,0)" xlink:href="#Z"/><use transform="matrix(0.018,0,0,0.018,15.192,0)" xlink:href="#aa"/><use transform="matrix(0.018,0,0,0.018,25.217999999999996,0)" xlink:href="#ab"/><use transform="matrix(0.018,0,0,0.018,35.676,0)" xlink:href="#ac"/><use transform="matrix(0.018,0,0,0.018,40.014,0)" xlink:href="#ad"/></g><g id="y"><use transform="matrix(0.018,0,0,0.018,0,0)" xlink:href="#ah"/><use transform="matrix(0.018,0,0,0.018,8.946,0)" xlink:href="#ae"/><use transform="matrix(0.018,0,0,0.018,18.594,0)" xlink:href="#Z"/><use transform="matrix(0.018,0,0,0.018,24.84,0)" xlink:href="#ab"/></g><g id="z"><use transform="matrix(0.018,0,0,0.018,0,0)" xlink:href="#ab"/><use transform="matrix(0.018,0,0,0.018,10.457999999999998,0)" xlink:href="#ae"/><use transform="matrix(0.018,0,0,0.018,20.105999999999998,0)" xlink:href="#ad"/><use transform="matrix(0.018,0,0,0.018,25.848,0)" xlink:href="#ae"/></g><path d="M395 0v-304c0-75-39-98-98-98-53 0-99 32-124 65V0H68v-667h105v250c32-38 95-78 171-78 104 0 156 54 156 153V0H395" id="aN"/><g id="A"><use transform="matrix(0.018,0,0,0.018,0,0)" xlink:href="#aN"/><use transform="matrix(0.018,0,0,0.018,10.223999999999998,0)" xlink:href="#aa"/><use transform="matrix(0.018,0,0,0.018,20.25,0)" xlink:href="#Z"/><use transform="matrix(0.018,0,0,0.018,26.496,0)" xlink:href="#aa"/></g><g id="B"><use transform="matrix(0.018,0,0,0.018,0,0)" xlink:href="#aj"/><use transform="matrix(0.018,0,0,0.018,10.584,0)" xlink:href="#ae"/><use transform="matrix(0.018,0,0,0.018,20.232,0)" xlink:href="#ak"/><use transform="matrix(0.018,0,0,0.018,29.285999999999998,0)" xlink:href="#al"/><use transform="matrix(0.018,0,0,0.018,44.279999999999994,0)" xlink:href="#aa"/><use transform="matrix(0.018,0,0,0.018,54.306,0)" xlink:href="#am"/><use transform="matrix(0.018,0,0,0.018,64.512,0)" xlink:href="#ad"/></g><g id="C"><use transform="matrix(0.018,0,0,0.018,0,0)" xlink:href="#aj"/><use transform="matrix(0.018,0,0,0.018,10.943999999999999,0)" xlink:href="#Z"/><use transform="matrix(0.018,0,0,0.018,17.189999999999998,0)" xlink:href="#ai"/><use transform="matrix(0.018,0,0,0.018,27.503999999999998,0)" xlink:href="#aD"/><use transform="matrix(0.018,0,0,0.018,36.55799999999999,0)" xlink:href="#ac"/><use transform="matrix(0.018,0,0,0.018,40.895999999999994,0)" xlink:href="#ab"/><use transform="matrix(0.018,0,0,0.018,51.354,0)" xlink:href="#aa"/><use transform="matrix(0.018,0,0,0.018,61.379999999999995,0)" xlink:href="#Z"/><use transform="matrix(0.018,0,0,0.018,67.62599999999999,0)" xlink:href="#aE"/><use transform="matrix(0.018,0,0,0.018,70.93799999999999,0)" xlink:href="#aB"/></g><path fill="#999" d="M260 0v-277L1-667h134l184 286 182-286h134L377-277V0H260" id="aO"/><g id="D"><use transform="matrix(0.018,0,0,0.018,0,0)" xlink:href="#aO"/><use transform="matrix(0.018,0,0,0.018,9.216,0)" xlink:href="#aw"/><use transform="matrix(0.018,0,0,0.018,19.53,0)" xlink:href="#aG"/><use transform="matrix(0.018,0,0,0.018,29.736,0)" xlink:href="#av"/></g><path fill="#999" d="M28-94l65-90c46 49 118 92 211 92 96 0 134-47 134-91 0-60-71-78-152-99-109-27-237-59-237-200 0-110 97-195 243-195 104 0 188 33 250 93l-67 87c-52-52-123-76-193-76-69 0-113 33-113 83 0 52 68 69 147 89 110 28 241 62 241 207 0 111-78 206-258 206C176 12 87-31 28-94" id="aP"/><g id="E"><use transform="matrix(0.018,0,0,0.018,0,0)" xlink:href="#aP"/><use transform="matrix(0.018,0,0,0.018,10.691999999999998,0)" xlink:href="#as"/><use transform="matrix(0.018,0,0,0.018,20.718,0)" xlink:href="#av"/><use transform="matrix(0.018,0,0,0.018,26.963999999999995,0)" xlink:href="#ax"/><use transform="matrix(0.018,0,0,0.018,36.017999999999994,0)" xlink:href="#as"/><use transform="matrix(0.018,0,0,0.018,46.044,0)" xlink:href="#av"/></g><path fill="#999" d="M536 0L188-486V0H71v-667h120l341 473v-473h117V0H536" id="aQ"/><g id="F"><use transform="matrix(0.018,0,0,0.018,0,0)" xlink:href="#aQ"/><use transform="matrix(0.018,0,0,0.018,12.959999999999999,0)" xlink:href="#aw"/></g><path fill="#999" d="M38-242c0-146 103-253 250-253 94 0 151 40 185 86l-69 64c-27-38-64-57-111-57-88 0-146 66-146 160S205-81 293-81c47 0 84-20 111-57l69 64c-34 46-91 86-185 86C141 12 38-95 38-242" id="aR"/><g id="G"><use transform="matrix(0.018,0,0,0.018,0,0)" xlink:href="#aR"/><use transform="matrix(0.018,0,0,0.018,8.946,0)" xlink:href="#av"/><use transform="matrix(0.018,0,0,0.018,15.192,0)" xlink:href="#as"/><use transform="matrix(0.018,0,0,0.018,25.217999999999996,0)" xlink:href="#az"/><use transform="matrix(0.018,0,0,0.018,35.676,0)" xlink:href="#ay"/><use transform="matrix(0.018,0,0,0.018,40.014,0)" xlink:href="#au"/></g><g id="H"><use transform="matrix(0.018,0,0,0.018,0,0)" xlink:href="#aR"/><use transform="matrix(0.018,0,0,0.018,8.946,0)" xlink:href="#ap"/><use transform="matrix(0.018,0,0,0.018,18.594,0)" xlink:href="#av"/><use transform="matrix(0.018,0,0,0.018,24.84,0)" xlink:href="#az"/></g><g id="I"><use transform="matrix(0.018,0,0,0.018,0,0)" xlink:href="#az"/><use transform="matrix(0.018,0,0,0.018,10.457999999999998,0)" xlink:href="#ap"/><use transform="matrix(0.018,0,0,0.018,20.105999999999998,0)" xlink:href="#au"/><use transform="matrix(0.018,0,0,0.018,25.848,0)" xlink:href="#ap"/></g><g id="J"><use transform="matrix(0.018,0,0,0.018,0,0)" xlink:href="#ay"/><use transform="matrix(0.018,0,0,0.018,4.338,0)" xlink:href="#aH"/></g><g id="K"><use transform="matrix(0.018,0,0,0.018,0,0)" xlink:href="#aH"/><use transform="matrix(0.018,0,0,0.018,8.495999999999999,0)" xlink:href="#au"/><use transform="matrix(0.018,0,0,0.018,14.238,0)" xlink:href="#aw"/><use transform="matrix(0.018,0,0,0.018,24.552,0)" xlink:href="#av"/><use transform="matrix(0.018,0,0,0.018,30.798,0)" xlink:href="#as"/><use transform="matrix(0.018,0,0,0.018,40.824,0)" xlink:href="#az"/></g><g id="L"><use transform="matrix(0.018,0,0,0.018,0,0)" xlink:href="#aw"/><use transform="matrix(0.018,0,0,0.018,10.314,0)" xlink:href="#av"/></g><g id="M"><use transform="matrix(0.018,0,0,0.018,0,0)" xlink:href="#au"/><use transform="matrix(0.018,0,0,0.018,5.742,0)" xlink:href="#av"/><use transform="matrix(0.018,0,0,0.018,11.988,0)" xlink:href="#ap"/><use transform="matrix(0.018,0,0,0.018,21.636,0)" xlink:href="#at"/><use transform="matrix(0.018,0,0,0.018,31.842,0)" xlink:href="#aH"/><use transform="matrix(0.018,0,0,0.018,40.337999999999994,0)" xlink:href="#ar"/><use transform="matrix(0.018,0,0,0.018,55.331999999999994,0)" xlink:href="#ay"/><use transform="matrix(0.018,0,0,0.018,59.669999999999995,0)" xlink:href="#au"/><use transform="matrix(0.018,0,0,0.018,65.41199999999999,0)" xlink:href="#au"/><use transform="matrix(0.018,0,0,0.018,71.154,0)" xlink:href="#as"/><use transform="matrix(0.018,0,0,0.018,81.17999999999999,0)" xlink:href="#az"/></g><path fill="#999" d="M395 0v-304c0-75-39-98-98-98-53 0-99 32-124 65V0H68v-667h105v250c32-38 95-78 171-78 104 0 156 54 156 153V0H395" id="aS"/><path fill="#999" d="M62 124l49-76c77 90 291 100 296-69v-58C370-31 315 1 252 1 129 1 38-88 38-247c0-156 90-248 214-248 61 0 116 28 155 79v-67h105v458c0 174-129 221-248 221-82 0-143-18-202-72zm345-281v-180c-23-36-75-65-124-65-83 0-136 62-136 155S200-92 283-92c49 0 101-29 124-65" id="aT"/><g id="N"><use transform="matrix(0.018,0,0,0.018,0,0)" xlink:href="#au"/><use transform="matrix(0.018,0,0,0.018,5.742,0)" xlink:href="#aS"/><use transform="matrix(0.018,0,0,0.018,15.965999999999998,0)" xlink:href="#av"/><use transform="matrix(0.018,0,0,0.018,22.211999999999993,0)" xlink:href="#aw"/><use transform="matrix(0.018,0,0,0.018,32.525999999999996,0)" xlink:href="#aG"/><use transform="matrix(0.018,0,0,0.018,42.732,0)" xlink:href="#aT"/><use transform="matrix(0.018,0,0,0.018,53.172,0)" xlink:href="#aS"/></g><g id="O"><use transform="matrix(0.018,0,0,0.018,0,0)" xlink:href="#aq"/><use transform="matrix(0.018,0,0,0.018,9.053999999999998,0)" xlink:href="#aw"/><use transform="matrix(0.018,0,0,0.018,19.368,0)" xlink:href="#aG"/><use transform="matrix(0.018,0,0,0.018,29.573999999999998,0)" xlink:href="#av"/></g><g id="P"><use transform="matrix(0.018,0,0,0.018,0,0)" xlink:href="#aH"/><use transform="matrix(0.018,0,0,0.018,8.495999999999999,0)" xlink:href="#as"/><use transform="matrix(0.018,0,0,0.018,18.522,0)" xlink:href="#av"/><use transform="matrix(0.018,0,0,0.018,24.767999999999997,0)" xlink:href="#ax"/><use transform="matrix(0.018,0,0,0.018,33.821999999999996,0)" xlink:href="#as"/><use transform="matrix(0.018,0,0,0.018,43.848,0)" xlink:href="#av"/></g><path d="M192 0v-515L83-402l-68-71 192-194h102V0H192" id="aU"/><use transform="matrix(0.018,0,0,0.018,0,0)" xlink:href="#aU" id="Q"/><path fill="#fff" d="M517 0L330-261 143 0H3l250-342L18-667h140l172 245 171-245h141L408-343 657 0H517" id="aV"/><g id="R"><use transform="matrix(0.011111111111111112,0,0,0.011111111111111112,0,0)" xlink:href="#aV"/><use transform="matrix(0.011111111111111112,0,0,0.011111111111111112,7.344444444444445,0)" xlink:href="#aV"/><use transform="matrix(0.011111111111111112,0,0,0.011111111111111112,14.68888888888889,0)" xlink:href="#aV"/><use transform="matrix(0.011111111111111112,0,0,0.011111111111111112,22.033333333333335,0)" xlink:href="#aV"/><use transform="matrix(0.011111111111111112,0,0,0.011111111111111112,29.37777777777778,0)" xlink:href="#aV"/><use transform="matrix(0.011111111111111112,0,0,0.011111111111111112,36.72222222222223,0)" xlink:href="#aV"/><use transform="matrix(0.011111111111111112,0,0,0.011111111111111112,44.06666666666668,0)" xlink:href="#aV"/><use transform="matrix(0.011111111111111112,0,0,0.011111111111111112,51.411111111111126,0)" xlink:href="#aV"/><use transform="matrix(0.011111111111111112,0,0,0.011111111111111112,58.75555555555558,0)" xlink:href="#aV"/></g><path fill="#fff" d="M373 0L248-178 122 0H5l177-248L15-483h118l115 164 114-164h118L313-248 491 0H373" id="aW"/><g id="S"><use transform="matrix(0.013333333333333334,0,0,0.013333333333333334,0,0)" xlink:href="#aV"/><use transform="matrix(0.013333333333333334,0,0,0.013333333333333334,8.813333333333334,0)" xlink:href="#aW"/><use transform="matrix(0.013333333333333334,0,0,0.013333333333333334,15.426666666666671,0)" xlink:href="#aW"/><use transform="matrix(0.013333333333333334,0,0,0.013333333333333334,22.040000000000003,0)" xlink:href="#aW"/></g><g id="T"><use transform="matrix(0.013333333333333334,0,0,0.013333333333333334,0,0)" xlink:href="#aV"/><use transform="matrix(0.013333333333333334,0,0,0.013333333333333334,8.813333333333334,0)" xlink:href="#aW"/><use transform="matrix(0.013333333333333334,0,0,0.013333333333333334,15.426666666666671,0)" xlink:href="#aW"/><use transform="matrix(0.013333333333333334,0,0,0.013333333333333334,22.040000000000003,0)" xlink:href="#aW"/><use transform="matrix(0.013333333333333334,0,0,0.013333333333333334,28.653333333333336,0)" xlink:href="#aW"/><use transform="matrix(0.013333333333333334,0,0,0.013333333333333334,35.26666666666667,0)" xlink:href="#aW"/></g><path d="M50 0v-92c259-196 360-283 360-379 0-70-60-102-121-102-78 0-138 32-180 80l-68-77c59-71 153-107 246-107 129 0 242 73 242 206 0 123-113 233-292 368h296V0H50" id="aX"/><use transform="matrix(0.018,0,0,0.018,0,0)" xlink:href="#aX" id="U"/><g id="V"><use transform="matrix(0.018,0,0,0.018,0,0)" xlink:href="#aj"/><use transform="matrix(0.018,0,0,0.018,10.584,0)" xlink:href="#ae"/><use transform="matrix(0.018,0,0,0.018,20.232,0)" xlink:href="#ak"/><use transform="matrix(0.018,0,0,0.018,29.285999999999998,0)" xlink:href="#al"/><use transform="matrix(0.018,0,0,0.018,44.279999999999994,0)" xlink:href="#aa"/><use transform="matrix(0.018,0,0,0.018,54.306,0)" xlink:href="#am"/><use transform="matrix(0.018,0,0,0.018,64.512,0)" xlink:href="#ad"/></g><path d="M543 0l-49-128H178L129 0H1l262-667h146L671 0H543zM336-568L211-231h250" id="aY"/><g id="W"><use transform="matrix(0.018,0,0,0.018,0,0)" xlink:href="#aY"/><use transform="matrix(0.018,0,0,0.018,12.113999999999999,0)" xlink:href="#ah"/><use transform="matrix(0.018,0,0,0.018,21.06,0)" xlink:href="#ah"/><use transform="matrix(0.018,0,0,0.018,30.006,0)" xlink:href="#aa"/><use transform="matrix(0.018,0,0,0.018,40.032,0)" xlink:href="#aC"/><use transform="matrix(0.018,0,0,0.018,50.471999999999994,0)" xlink:href="#ad"/><use transform="matrix(0.018,0,0,0.018,56.213999999999984,0)" xlink:href="#aa"/><use transform="matrix(0.018,0,0,0.018,66.24,0)" xlink:href="#ab"/></g><path d="M24-96l63-77c43 50 114 81 185 81 88 0 139-40 139-102 0-66-53-94-148-94-28 0-67 0-77 1v-105c94 7 214-1 214-87 0-62-60-94-135-94-68 0-124 26-172 74l-60-73c51-60 132-105 243-105 144 0 241 68 241 180 0 89-76 141-145 153 65 6 155 59 155 162 0 113-97 194-251 194C157 12 69-36 24-96" id="aZ"/><use transform="matrix(0.018,0,0,0.018,0,0)" xlink:href="#aZ" id="X"/></defs></g></svg>