<svg xmlns="http://www.w3.org/2000/svg" xmlns:xlink="http://www.w3.org/1999/xlink" width="853" height="506.33"><g transform="translate(-190 -258.83333333333337)"><path d="M926.38 400.17H879.5c-3.2 0-5.84 2.64-5.84 5.88v114.12h58.5V406.05c0-3.24-2.62-5.88-5.78-5.88zm-2.92 108.24h-41.02v-5.87h41.02v5.88zm0-11.63h-41.02v-5.88h41.02v5.87zm0-73.2h-41.02v-5.88h41.02v5.87z" fill="#2babee"/><path d="M410.13 459.8l2.26.05 2.18.14 2.12.2 2.07.32 2.03.4 2 .45 1.96.55 1.94.64 1.94.72 1.94.8 1.95.93 1.96 1.03 1.97 1.15 2.02 1.28 2.06 1.44 2.12 1.6 2.2 1.83 2.3 2.06 2.4 2.34 2.53 2.7 2.72 3.15 2.93 3.7 3.24 4.46 3.65 5.52 4.3 7.13 5.53 10.1 9.86 20.04 19.58 40.9 5.52 10.1 4.3 7.12 3.67 5.5 3.25 4.47 2.93 3.7 2.72 3.16 2.53 2.7 2.4 2.34 2.3 2.06 2.2 1.82 2.1 1.6 2.08 1.45 2.03 1.28 2 1.15 1.95 1.03 1.94.9 1.94.83 1.94.72 1.95.63 1.96.56 2 .47 2.03.38 2.07.32 2.12.22 2.2.14 2.25.05" stroke="#2a3843" stroke-width="4" fill="none"/><path d="M410.42 457.83l-.3 2v-2.05zM568.27 630.13l-14.78 2.5 1.33-9.16z" fill="#2a3843"/><path d="M568.27 627.9v4.26l-17.16 2.92 2.15-14.62zm-12.4 2.3l6-1-5.46-2.7z" fill="#2a3843"/><path d="M729.63 631.8l1.87-.03 1.8-.12 1.77-.18 1.72-.26 1.7-.3 1.65-.4 1.66-.46 1.65-.53 1.63-.6 1.65-.7 1.65-.77 1.66-.87 1.7-.98 1.72-1.1 1.76-1.22 1.82-1.38 1.88-1.56 1.95-1.76 2.05-2 2.17-2.32 2.3-2.67 2.48-3.13 2.7-3.74 3-4.53 3.45-5.68 4.1-7.48 5.35-10.83 11.57-26.4 14.76-34.02 5.37-10.83 4.1-7.47 3.42-5.68 3-4.53 2.7-3.73 2.5-3.14 2.3-2.67 2.16-2.3 2.05-2.02 1.97-1.75 1.88-1.56 1.82-1.4 1.76-1.2 1.72-1.1 1.7-.98 1.66-.88 1.66-.77 1.64-.7 1.64-.6 1.64-.54 1.65-.46 1.67-.4 1.7-.3 1.72-.27 1.76-.18 1.8-.1 1.88-.05" stroke="#2a3843" stroke-width="4" fill="none"/><path d="M729.98 633.78l-.35.06v-2.05zM873.66 460.17l-13.23 7.07-1.63-9.13z" fill="#2a3843"/><path d="M873.66 458.15v4.28l-14.7 7.87-2.6-14.55zm-11.74 6.03l5.37-2.88-6.05-.83z" fill="#2a3843"/><path d="M720.67 566.33c0-2.76 2.24-5 5-5h230c2.76 0 5 2.24 5 5v50c0 2.76-2.24 5-5 5h-230c-2.76 0-5-2.24-5-5z" fill="none"/><use xlink:href="#a" transform="matrix(1,0,0,1,720.6666666666665,561.3333333333334) translate(79.248 35.22)"/><path d="M325.33 566.83c0-2.76 2.24-5 5-5h230c2.76 0 5 2.24 5 5v50c0 2.76-2.24 5-5 5h-230c-2.76 0-5-2.24-5-5z" fill="none"/><use xlink:href="#b" transform="matrix(1,0,0,1,325.33333333333326,561.8333333333329) translate(67.85400000000001 35.22)"/><path d="M783 518.17c0-2.76 2.24-5 5-5h230c2.76 0 5 2.24 5 5v50c0 2.76-2.24 5-5 5H788c-2.76 0-5-2.24-5-5z" fill="none"/><use xlink:href="#c" transform="matrix(1,0,0,1,783,513.1666666666664) translate(48.747 35.22)"/><use xlink:href="#d" transform="matrix(1,0,0,1,783,513.1666666666664) translate(123.62700000000001 35.22)"/><path d="M674.96 278.83H628.1c-3.22 0-5.86 2.64-5.86 5.88v114.13h58.52V284.7c0-3.23-2.64-5.87-5.8-5.87zm-2.92 108.24h-41.02v-5.88h41.02v5.87zm0-11.64h-41.02v-5.88h41.02v5.88zm0-73.2h-41.02v-5.88h41.02v5.88z" fill="#2babee"/><path d="M530.5 396.83c0-2.76 2.24-5 5-5h230c2.76 0 5 2.24 5 5v50c0 2.76-2.24 5-5 5h-230c-2.76 0-5-2.24-5-5z" fill="none"/><use xlink:href="#e" transform="matrix(1,0,0,1,530.5,391.83333333333337) translate(73.551 35.22)"/><use xlink:href="#f" transform="matrix(1,0,0,1,530.5,391.83333333333337) translate(114.15899999999999 35.22)"/><path d="M410.13 494.25V411.1c0-4.1-3.67-10.93-8.3-10.93H257.85c-4.64 0-9.08 6.84-9.08 10.92v83.15c-16.2 17.28-15.44 17.28-15.44 17.28 0 4.92 4.44 8.64 10.23 8.64H416.1c5.8 0 10.24-4.08 10.24-8.64l-16.2-17.28zm-66.98 18.72h-30.1c-1.55 0-3.1-.72-3.1-1.44l3.48-5.64c0-.73 1.16-1.2 2.7-1.2h23.94c1.15 0 2.3.47 2.3 1.2l3.87 5.63c0 1.08-1.54 1.44-3.1 1.44zm59.84-19.2H255.9V411.8c0-1.9 1.93-4.55 4.05-4.55h139.35c2.12 0 3.67 2.64 3.67 4.56v81.97z" fill="#2babee"/><path d="M210 340.17c0-2.76 2.24-5 5-5h230c2.76 0 5 2.24 5 5v50c0 2.76-2.24 5-5 5H215c-2.76 0-5-2.24-5-5z" fill="none"/><use xlink:href="#g" transform="matrix(1,0,0,1,210,335.1666666666664) translate(35.09400000000001 17.22)"/><use xlink:href="#h" transform="matrix(1,0,0,1,210,335.1666666666664) translate(118.02000000000001 17.22)"/><use xlink:href="#i" transform="matrix(1,0,0,1,210,335.1666666666664) translate(135.48000000000002 17.22)"/><use xlink:href="#j" transform="matrix(1,0,0,1,210,335.1666666666664) translate(174.57600000000002 17.22)"/><use xlink:href="#k" transform="matrix(1,0,0,1,210,335.1666666666664) translate(195.25799999999998 17.22)"/><use xlink:href="#l" transform="matrix(1,0,0,1,210,335.1666666666664) translate(5.799000000000007 35.22)"/><use xlink:href="#m" transform="matrix(1,0,0,1,210,335.1666666666664) translate(80.53500000000001 35.22)"/><use xlink:href="#n" transform="matrix(1,0,0,1,210,335.1666666666664) translate(164.091 35.22)"/><use xlink:href="#o" transform="matrix(1,0,0,1,210,335.1666666666664) translate(70.71600000000001 53.22)"/><use xlink:href="#p" transform="matrix(1,0,0,1,210,335.1666666666664) translate(95.86200000000001 53.22)"/><path d="M210 518.17c0-2.76 2.24-5 5-5h230c2.76 0 5 2.24 5 5v50c0 2.76-2.24 5-5 5H215c-2.76 0-5-2.24-5-5z" fill="none"/><g><use xlink:href="#q" transform="matrix(1,0,0,1,210,513.1666666666664) translate(19.02900000000001 35.22)"/><use xlink:href="#r" transform="matrix(1,0,0,1,210,513.1666666666664) translate(113.763 35.22)"/><use xlink:href="#s" transform="matrix(1,0,0,1,210,513.1666666666664) translate(154.40699999999998 35.22)"/></g><path d="M729.63 666.25V583.1c0-4.1-3.67-10.93-8.3-10.93H577.35c-4.64 0-9.08 6.84-9.08 10.92v83.15c-16.2 17.28-15.44 17.28-15.44 17.28 0 4.92 4.44 8.64 10.23 8.64H735.6c5.8 0 10.24-4.08 10.24-8.64l-16.2-17.28zm-66.98 18.72h-30.1c-1.55 0-3.1-.72-3.1-1.44l3.48-5.64c0-.73 1.16-1.2 2.7-1.2h23.94c1.15 0 2.3.47 2.3 1.2l3.87 5.63c0 1.08-1.54 1.44-3.1 1.44zm59.84-19.2H575.4V583.8c0-1.9 1.93-4.55 4.05-4.55h139.35c2.12 0 3.67 2.64 3.67 4.56v81.97z" fill="#2babee"/><path d="M529.5 512.17c0-2.76 2.24-5 5-5h230c2.76 0 5 2.24 5 5v50c0 2.76-2.24 5-5 5h-230c-2.76 0-5-2.24-5-5z" fill="none"/><g><use xlink:href="#g" transform="matrix(1,0,0,1,529.5,507.1666666666664) translate(8.012999999999991 26.22)"/><use xlink:href="#t" transform="matrix(1,0,0,1,529.5,507.1666666666664) translate(90.939 26.22)"/><use xlink:href="#u" transform="matrix(1,0,0,1,529.5,507.1666666666664) translate(146.30700000000002 26.22)"/><use xlink:href="#v" transform="matrix(1,0,0,1,529.5,507.1666666666664) translate(196.68900000000002 26.22)"/><use xlink:href="#w" transform="matrix(1,0,0,1,529.5,507.1666666666664) translate(81.678 44.22)"/><use xlink:href="#x" transform="matrix(1,0,0,1,529.5,507.1666666666664) translate(121.79999999999998 44.22)"/></g><path d="M529.5 690.17c0-2.76 2.24-5 5-5h230c2.76 0 5 2.24 5 5v50c0 2.76-2.24 5-5 5h-230c-2.76 0-5-2.24-5-5z" fill="none"/><g><use xlink:href="#q" transform="matrix(1,0,0,1,529.5,685.1666666666664) translate(19.02900000000001 35.22)"/><use xlink:href="#r" transform="matrix(1,0,0,1,529.5,685.1666666666664) translate(113.763 35.22)"/><use xlink:href="#s" transform="matrix(1,0,0,1,529.5,685.1666666666664) translate(154.40699999999998 35.22)"/></g><path d="M573.67 583.33c0-2.76 2.24-5 5-5h138c2.76 0 5 2.24 5 5v78c0 2.76-2.24 5-5 5h-138c-2.76 0-5-2.24-5-5z" fill="none"/><g><use xlink:href="#y" transform="matrix(1,0,0,1,573.6666666666666,578.3333333333334) translate(38.873 31.22)"/><use xlink:href="#z" transform="matrix(1,0,0,1,573.6666666666666,578.3333333333334) translate(34.28300000000001 49.22)"/><use xlink:href="#A" transform="matrix(1,0,0,1,573.6666666666666,578.3333333333334) translate(16.211 67.22)"/><use xlink:href="#B" transform="matrix(1,0,0,1,573.6666666666666,578.3333333333334) translate(91.09100000000001 67.22)"/></g><path d="M690.5 314.33c0-2.76 2.24-5 5-5h303.33c2.76 0 5 2.24 5 5v50c0 2.76-2.24 5-5 5H695.5c-2.76 0-5-2.24-5-5z" fill="none"/><g><use xlink:href="#C" transform="matrix(1,0,0,1,690.5,309.33333333333337) translate(0 26.22)"/><use xlink:href="#D" transform="matrix(1,0,0,1,690.5,309.33333333333337) translate(27.9 26.22)"/><use xlink:href="#E" transform="matrix(1,0,0,1,690.5,309.33333333333337) translate(78.282 26.22)"/><use xlink:href="#F" transform="matrix(1,0,0,1,690.5,309.33333333333337) translate(118.20599999999999 26.22)"/><use xlink:href="#G" transform="matrix(1,0,0,1,690.5,309.33333333333337) translate(158.32799999999997 26.22)"/><use xlink:href="#H" transform="matrix(1,0,0,1,690.5,309.33333333333337) translate(175.78799999999998 26.22)"/><use xlink:href="#I" transform="matrix(1,0,0,1,690.5,309.33333333333337) translate(231.69599999999997 26.22)"/><use xlink:href="#J" transform="matrix(1,0,0,1,690.5,309.33333333333337) translate(0 44.22)"/><use xlink:href="#K" transform="matrix(1,0,0,1,690.5,309.33333333333337) translate(96.264 44.22)"/><use xlink:href="#L" transform="matrix(1,0,0,1,690.5,309.33333333333337) translate(164.286 44.22)"/><use xlink:href="#M" transform="matrix(1,0,0,1,690.5,309.33333333333337) translate(204.732 44.22)"/></g><defs><path d="M71 0v-667h457v103H188v173h333v103H188v185h340V0H71" id="N"/><path d="M394 0v-302c0-75-38-100-97-100-54 0-100 32-124 65V0H68v-483h105v66c32-38 94-78 170-78 104 0 156 56 156 155V0H394" id="O"/><path d="M38-242c0-146 103-253 250-253 94 0 151 40 185 86l-69 64c-27-38-64-57-111-57-88 0-146 66-146 160S205-81 293-81c47 0 84-20 111-57l69 64c-34 46-91 86-185 86C141 12 38-95 38-242" id="P"/><path d="M68 0v-483h105v71c36-46 94-82 157-82v104c-63-14-128 20-157 61V0H68" id="Q"/><path d="M63 95c45 16 90 10 109-34l24-55L-2-483h112l141 362 141-362h113L272 87C230 187 154 208 47 189" id="R"/><path d="M173 184H68v-667h105v66c36-48 92-78 155-78 125 0 214 94 214 253S453 12 328 12c-61 0-116-27-155-79v251zm260-426c0-93-53-160-136-160-49 0-101 29-124 65v191c23 35 75 65 124 65 83 0 136-67 136-161" id="S"/><path d="M213 12C132 12 89-32 89-112v-279H9v-92h80v-132h105v132h98v92h-98v253c-9 59 64 71 93 40l25 79c-19 18-50 31-99 31" id="T"/><path d="M38-242c0-140 102-253 245-253 153 0 246 120 238 288H148c8 73 63 133 154 133 47 0 103-19 137-53l48 69c-48 46-119 70-196 70C146 12 38-89 38-242zm245-167c-90 0-131 69-136 128h272c-2-57-41-128-136-128" id="U"/><path d="M408 0v-66c-37 48-93 78-155 78C129 12 38-82 38-241c0-156 90-254 215-254 60 0 116 28 155 79v-251h105V0H408zm0-145v-192c-24-36-75-65-125-65-83 0-136 67-136 161 0 93 53 160 136 160 50 0 101-28 125-64" id="V"/><g id="a"><use transform="matrix(0.018,0,0,0.018,0,0)" xlink:href="#N"/><use transform="matrix(0.018,0,0,0.018,10.386,0)" xlink:href="#O"/><use transform="matrix(0.018,0,0,0.018,20.592,0)" xlink:href="#P"/><use transform="matrix(0.018,0,0,0.018,29.537999999999997,0)" xlink:href="#Q"/><use transform="matrix(0.018,0,0,0.018,35.784,0)" xlink:href="#R"/><use transform="matrix(0.018,0,0,0.018,44.837999999999994,0)" xlink:href="#S"/><use transform="matrix(0.018,0,0,0.018,55.277999999999984,0)" xlink:href="#T"/><use transform="matrix(0.018,0,0,0.018,61.01999999999999,0)" xlink:href="#U"/><use transform="matrix(0.018,0,0,0.018,71.04599999999999,0)" xlink:href="#V"/></g><path d="M71-263v-404h118v400c0 106 59 175 171 175 111 0 170-69 170-175v-400h118v403c0 166-95 276-288 276C166 12 71-99 71-263" id="W"/><g id="b"><use transform="matrix(0.018,0,0,0.018,0,0)" xlink:href="#W"/><use transform="matrix(0.018,0,0,0.018,12.941999999999998,0)" xlink:href="#O"/><use transform="matrix(0.018,0,0,0.018,23.147999999999993,0)" xlink:href="#U"/><use transform="matrix(0.018,0,0,0.018,33.17399999999999,0)" xlink:href="#O"/><use transform="matrix(0.018,0,0,0.018,43.379999999999995,0)" xlink:href="#P"/><use transform="matrix(0.018,0,0,0.018,52.32599999999999,0)" xlink:href="#Q"/><use transform="matrix(0.018,0,0,0.018,58.571999999999996,0)" xlink:href="#R"/><use transform="matrix(0.018,0,0,0.018,67.62599999999999,0)" xlink:href="#S"/><use transform="matrix(0.018,0,0,0.018,78.06599999999999,0)" xlink:href="#T"/><use transform="matrix(0.018,0,0,0.018,83.80799999999999,0)" xlink:href="#U"/><use transform="matrix(0.018,0,0,0.018,93.83399999999999,0)" xlink:href="#V"/></g><path fill="#999" d="M71 0v-667h293c140 0 218 96 218 209s-79 209-218 209H188V0H71zm391-458c0-64-48-106-114-106H188v212h160c66 0 114-42 114-106" id="X"/><path fill="#999" d="M363 0v-52C272 53 39 33 39-148c0-184 234-194 324-95v-72c0-56-46-90-113-90-54 0-101 20-143 61l-43-73c56-53 126-78 203-78 107 0 201 45 201 175V0H363zm0-110v-73c-45-73-218-69-218 37 0 105 174 109 218 36" id="Y"/><path fill="#999" d="M63 95c45 16 90 10 109-34l24-55L-2-483h112l141 362 141-362h113L272 87C230 187 154 208 47 189" id="Z"/><path fill="#999" d="M660 0v-315c0-52-23-87-79-87-47 0-91 33-112 64V0H364v-315c0-52-23-87-80-87-46 0-89 33-111 65V0H68v-483h105v66c20-30 84-78 157-78 72 0 116 36 132 89 28-44 92-89 164-89 89 0 139 48 139 146V0H660" id="aa"/><path fill="#999" d="M38-242c0-140 102-253 245-253 153 0 246 120 238 288H148c8 73 63 133 154 133 47 0 103-19 137-53l48 69c-48 46-119 70-196 70C146 12 38-89 38-242zm245-167c-90 0-131 69-136 128h272c-2-57-41-128-136-128" id="ab"/><path fill="#999" d="M394 0v-302c0-75-38-100-97-100-54 0-100 32-124 65V0H68v-483h105v66c32-38 94-78 170-78 104 0 156 56 156 155V0H394" id="ac"/><path fill="#999" d="M213 12C132 12 89-32 89-112v-279H9v-92h80v-132h105v132h98v92h-98v253c-9 59 64 71 93 40l25 79c-19 18-50 31-99 31" id="ad"/><g id="c"><use transform="matrix(0.018,0,0,0.018,0,0)" xlink:href="#X"/><use transform="matrix(0.018,0,0,0.018,10.584,0)" xlink:href="#Y"/><use transform="matrix(0.018,0,0,0.018,20.232,0)" xlink:href="#Z"/><use transform="matrix(0.018,0,0,0.018,29.285999999999998,0)" xlink:href="#aa"/><use transform="matrix(0.018,0,0,0.018,44.279999999999994,0)" xlink:href="#ab"/><use transform="matrix(0.018,0,0,0.018,54.306,0)" xlink:href="#ac"/><use transform="matrix(0.018,0,0,0.018,64.512,0)" xlink:href="#ad"/></g><path fill="#999" d="M68 0v-483h105v71c36-46 94-82 157-82v104c-63-14-128 20-157 61V0H68" id="ae"/><path fill="#999" d="M286 12C133 12 38-103 38-242c0-138 95-253 248-253 155 0 249 115 249 253 0 139-94 254-249 254zm0-93c90 0 140-75 140-161 0-85-50-160-140-160-89 0-139 75-139 160 0 86 50 161 139 161" id="af"/><path fill="#999" d="M195 0L-2-483h112l141 362 141-362h113L308 0H195" id="ag"/><path fill="#999" d="M120-557c-35 0-65-29-65-65s30-65 65-65c36 0 65 29 65 65s-29 65-65 65zM68 0v-483h105V0H68" id="ah"/><path fill="#999" d="M408 0v-66c-37 48-93 78-155 78C129 12 38-82 38-241c0-156 90-254 215-254 60 0 116 28 155 79v-251h105V0H408zm0-145v-192c-24-36-75-65-125-65-83 0-136 67-136 161 0 93 53 160 136 160 50 0 101-28 125-64" id="ai"/><g id="d"><use transform="matrix(0.018,0,0,0.018,0,0)" xlink:href="#X"/><use transform="matrix(0.018,0,0,0.018,10.943999999999999,0)" xlink:href="#ae"/><use transform="matrix(0.018,0,0,0.018,17.189999999999998,0)" xlink:href="#af"/><use transform="matrix(0.018,0,0,0.018,27.503999999999998,0)" xlink:href="#ag"/><use transform="matrix(0.018,0,0,0.018,36.55799999999999,0)" xlink:href="#ah"/><use transform="matrix(0.018,0,0,0.018,40.895999999999994,0)" xlink:href="#ai"/><use transform="matrix(0.018,0,0,0.018,51.354,0)" xlink:href="#ab"/><use transform="matrix(0.018,0,0,0.018,61.379999999999995,0)" xlink:href="#ae"/></g><path fill="#999" d="M260 0v-277L1-667h134l184 286 182-286h134L377-277V0H260" id="aj"/><path fill="#999" d="M394 0v-64c-35 39-95 76-171 76C119 12 68-42 68-141v-342h105v304c-7 144 181 106 221 35v-339h105V0H394" id="ak"/><g id="e"><use transform="matrix(0.018,0,0,0.018,0,0)" xlink:href="#aj"/><use transform="matrix(0.018,0,0,0.018,9.216,0)" xlink:href="#af"/><use transform="matrix(0.018,0,0,0.018,19.53,0)" xlink:href="#ak"/><use transform="matrix(0.018,0,0,0.018,29.736,0)" xlink:href="#ae"/></g><path fill="#999" d="M28-94l65-90c46 49 118 92 211 92 96 0 134-47 134-91 0-60-71-78-152-99-109-27-237-59-237-200 0-110 97-195 243-195 104 0 188 33 250 93l-67 87c-52-52-123-76-193-76-69 0-113 33-113 83 0 52 68 69 147 89 110 28 241 62 241 207 0 111-78 206-258 206C176 12 87-31 28-94" id="al"/><g id="f"><use transform="matrix(0.018,0,0,0.018,0,0)" xlink:href="#al"/><use transform="matrix(0.018,0,0,0.018,10.691999999999998,0)" xlink:href="#ab"/><use transform="matrix(0.018,0,0,0.018,20.718,0)" xlink:href="#ae"/><use transform="matrix(0.018,0,0,0.018,26.963999999999995,0)" xlink:href="#ag"/><use transform="matrix(0.018,0,0,0.018,36.017999999999994,0)" xlink:href="#ab"/><use transform="matrix(0.018,0,0,0.018,46.044,0)" xlink:href="#ae"/></g><path d="M386 12C194 12 41-128 41-333s153-345 345-345c140 0 223 70 273 150l-100 51c-32-55-96-97-173-97-127 0-225 101-225 241S259-92 386-92c77 0 141-41 173-97l100 51C608-58 526 12 386 12" id="am"/><path d="M394 0v-64c-35 39-95 76-171 76C119 12 68-42 68-141v-342h105v304c-7 144 181 106 221 35v-339h105V0H394" id="an"/><path d="M26-63l48-76c34 35 101 68 164 68s95-23 95-59c0-42-51-57-110-70-83-18-182-40-182-148 0-79 68-147 190-147 82 0 144 29 188 68l-44 74c-29-33-83-58-143-58-55 0-90 20-90 54 0 37 48 50 105 63 84 18 187 42 187 156 0 85-71 150-201 150-82 0-157-26-207-75" id="ao"/><path d="M286 12C133 12 38-103 38-242c0-138 95-253 248-253 155 0 249 115 249 253 0 139-94 254-249 254zm0-93c90 0 140-75 140-161 0-85-50-160-140-160-89 0-139 75-139 160 0 86 50 161 139 161" id="ap"/><path d="M660 0v-315c0-52-23-87-79-87-47 0-91 33-112 64V0H364v-315c0-52-23-87-80-87-46 0-89 33-111 65V0H68v-483h105v66c20-30 84-78 157-78 72 0 116 36 132 89 28-44 92-89 164-89 89 0 139 48 139 146V0H660" id="aq"/><g id="g"><use transform="matrix(0.018,0,0,0.018,0,0)" xlink:href="#am"/><use transform="matrix(0.018,0,0,0.018,12.276,0)" xlink:href="#an"/><use transform="matrix(0.018,0,0,0.018,22.482,0)" xlink:href="#ao"/><use transform="matrix(0.018,0,0,0.018,30.977999999999998,0)" xlink:href="#T"/><use transform="matrix(0.018,0,0,0.018,36.72,0)" xlink:href="#ap"/><use transform="matrix(0.018,0,0,0.018,47.034,0)" xlink:href="#aq"/><use transform="matrix(0.018,0,0,0.018,62.028,0)" xlink:href="#U"/><use transform="matrix(0.018,0,0,0.018,72.054,0)" xlink:href="#Q"/></g><path d="M120-557c-35 0-65-29-65-65s30-65 65-65c36 0 65 29 65 65s-29 65-65 65zM68 0v-483h105V0H68" id="ar"/><g id="h"><use transform="matrix(0.018,0,0,0.018,0,0)" xlink:href="#ar"/><use transform="matrix(0.018,0,0,0.018,4.338,0)" xlink:href="#ao"/></g><g id="i"><use transform="matrix(0.018,0,0,0.018,0,0)" xlink:href="#ao"/><use transform="matrix(0.018,0,0,0.018,8.495999999999999,0)" xlink:href="#U"/><use transform="matrix(0.018,0,0,0.018,18.522,0)" xlink:href="#O"/><use transform="matrix(0.018,0,0,0.018,28.727999999999998,0)" xlink:href="#T"/></g><g id="j"><use transform="matrix(0.018,0,0,0.018,0,0)" xlink:href="#T"/><use transform="matrix(0.018,0,0,0.018,5.742,0)" xlink:href="#ap"/></g><path d="M363 0v-52C272 53 39 33 39-148c0-184 234-194 324-95v-72c0-56-46-90-113-90-54 0-101 20-143 61l-43-73c56-53 126-78 203-78 107 0 201 45 201 175V0H363zm0-110v-73c-45-73-218-69-218 37 0 105 174 109 218 36" id="as"/><use transform="matrix(0.018,0,0,0.018,0,0)" xlink:href="#as" id="k"/><g id="l"><use transform="matrix(0.018,0,0,0.018,0,0)" xlink:href="#S"/><use transform="matrix(0.018,0,0,0.018,10.44,0)" xlink:href="#as"/><use transform="matrix(0.018,0,0,0.018,20.088,0)" xlink:href="#R"/><use transform="matrix(0.018,0,0,0.018,29.142,0)" xlink:href="#aq"/><use transform="matrix(0.018,0,0,0.018,44.135999999999996,0)" xlink:href="#U"/><use transform="matrix(0.018,0,0,0.018,54.162,0)" xlink:href="#O"/><use transform="matrix(0.018,0,0,0.018,64.368,0)" xlink:href="#T"/></g><path d="M195 0L-2-483h112l141 362 141-362h113L308 0H195" id="at"/><path d="M83-391S48-601 48-618c0-32 26-59 59-59 32 0 59 27 59 59 0 17-35 227-35 227H83" id="au"/><g id="m"><use transform="matrix(0.018,0,0,0.018,0,0)" xlink:href="#S"/><use transform="matrix(0.018,0,0,0.018,10.44,0)" xlink:href="#Q"/><use transform="matrix(0.018,0,0,0.018,16.686,0)" xlink:href="#ap"/><use transform="matrix(0.018,0,0,0.018,26.999999999999996,0)" xlink:href="#at"/><use transform="matrix(0.018,0,0,0.018,36.054,0)" xlink:href="#ar"/><use transform="matrix(0.018,0,0,0.018,40.392,0)" xlink:href="#V"/><use transform="matrix(0.018,0,0,0.018,50.85,0)" xlink:href="#U"/><use transform="matrix(0.018,0,0,0.018,60.876000000000005,0)" xlink:href="#Q"/><use transform="matrix(0.018,0,0,0.018,67.122,0)" xlink:href="#au"/><use transform="matrix(0.018,0,0,0.018,70.434,0)" xlink:href="#ao"/></g><g id="n"><use transform="matrix(0.018,0,0,0.018,0,0)" xlink:href="#S"/><use transform="matrix(0.018,0,0,0.018,10.44,0)" xlink:href="#as"/><use transform="matrix(0.018,0,0,0.018,20.088,0)" xlink:href="#R"/><use transform="matrix(0.018,0,0,0.018,29.142,0)" xlink:href="#aq"/><use transform="matrix(0.018,0,0,0.018,44.135999999999996,0)" xlink:href="#U"/><use transform="matrix(0.018,0,0,0.018,54.162,0)" xlink:href="#O"/><use transform="matrix(0.018,0,0,0.018,64.368,0)" xlink:href="#T"/></g><g id="o"><use transform="matrix(0.018,0,0,0.018,0,0)" xlink:href="#ap"/><use transform="matrix(0.018,0,0,0.018,10.314,0)" xlink:href="#O"/></g><path d="M395 0v-304c0-75-39-98-98-98-53 0-99 32-124 65V0H68v-667h105v250c32-38 95-78 171-78 104 0 156 54 156 153V0H395" id="av"/><path d="M388 0L240-199l-67 69V0H68v-667h105v417l213-233h130L315-264 520 0H388" id="aw"/><g id="p"><use transform="matrix(0.018,0,0,0.018,0,0)" xlink:href="#P"/><use transform="matrix(0.018,0,0,0.018,8.946,0)" xlink:href="#av"/><use transform="matrix(0.018,0,0,0.018,19.169999999999998,0)" xlink:href="#U"/><use transform="matrix(0.018,0,0,0.018,29.195999999999998,0)" xlink:href="#P"/><use transform="matrix(0.018,0,0,0.018,38.141999999999996,0)" xlink:href="#aw"/><use transform="matrix(0.018,0,0,0.018,47.16,0)" xlink:href="#ap"/><use transform="matrix(0.018,0,0,0.018,57.474,0)" xlink:href="#an"/><use transform="matrix(0.018,0,0,0.018,67.67999999999999,0)" xlink:href="#T"/></g><path fill="#999" d="M386 12C194 12 41-128 41-333s153-345 345-345c140 0 223 70 273 150l-100 51c-32-55-96-97-173-97-127 0-225 101-225 241S259-92 386-92c77 0 141-41 173-97l100 51C608-58 526 12 386 12" id="ax"/><path fill="#999" d="M26-63l48-76c34 35 101 68 164 68s95-23 95-59c0-42-51-57-110-70-83-18-182-40-182-148 0-79 68-147 190-147 82 0 144 29 188 68l-44 74c-29-33-83-58-143-58-55 0-90 20-90 54 0 37 48 50 105 63 84 18 187 42 187 156 0 85-71 150-201 150-82 0-157-26-207-75" id="ay"/><path fill="#999" d="M83-391S48-601 48-618c0-32 26-59 59-59 32 0 59 27 59 59 0 17-35 227-35 227H83" id="az"/><g id="q"><use transform="matrix(0.018,0,0,0.018,0,0)" xlink:href="#ax"/><use transform="matrix(0.018,0,0,0.018,12.276,0)" xlink:href="#ak"/><use transform="matrix(0.018,0,0,0.018,22.482,0)" xlink:href="#ay"/><use transform="matrix(0.018,0,0,0.018,30.977999999999998,0)" xlink:href="#ad"/><use transform="matrix(0.018,0,0,0.018,36.72,0)" xlink:href="#af"/><use transform="matrix(0.018,0,0,0.018,47.034,0)" xlink:href="#aa"/><use transform="matrix(0.018,0,0,0.018,62.028,0)" xlink:href="#ab"/><use transform="matrix(0.018,0,0,0.018,72.054,0)" xlink:href="#ae"/><use transform="matrix(0.018,0,0,0.018,78.3,0)" xlink:href="#az"/><use transform="matrix(0.018,0,0,0.018,81.612,0)" xlink:href="#ay"/></g><path fill="#999" d="M581 0L451-492 322 0H197L6-667h131l130 514 138-514h93l138 514 129-514h131L706 0H581" id="aA"/><path fill="#999" d="M68 0v-667h105v251c38-51 94-79 155-79 124 0 214 98 214 254 0 159-91 253-214 253-63 0-118-30-155-78V0H68zm105-145c23 36 75 64 124 64 84 0 137-66 137-160s-53-161-137-161c-49 0-101 30-124 66v191" id="aB"/><g id="r"><use transform="matrix(0.018,0,0,0.018,0,0)" xlink:href="#aA"/><use transform="matrix(0.018,0,0,0.018,15.533999999999997,0)" xlink:href="#ab"/><use transform="matrix(0.018,0,0,0.018,25.559999999999995,0)" xlink:href="#aB"/></g><path fill="#999" d="M71 0v-667h328c122 0 190 76 190 170 0 84-54 140-116 153 71 11 129 82 129 164C602-77 533 0 408 0H71zm117-391h187c60 0 94-36 94-86s-34-87-94-87H188v173zm0 288h192c64 0 102-35 102-93 0-50-35-92-102-92H188v185" id="aC"/><path fill="#999" d="M489 0L377-354 265 0H155L5-483h109l102 351 115-351h92l115 351 102-351h109L599 0H489" id="aD"/><g id="s"><use transform="matrix(0.018,0,0,0.018,0,0)" xlink:href="#aC"/><use transform="matrix(0.018,0,0,0.018,11.664,0)" xlink:href="#ae"/><use transform="matrix(0.018,0,0,0.018,17.91,0)" xlink:href="#af"/><use transform="matrix(0.018,0,0,0.018,28.224,0)" xlink:href="#aD"/><use transform="matrix(0.018,0,0,0.018,41.796,0)" xlink:href="#ay"/><use transform="matrix(0.018,0,0,0.018,50.292,0)" xlink:href="#ab"/><use transform="matrix(0.018,0,0,0.018,60.318,0)" xlink:href="#ae"/></g><g id="t"><use transform="matrix(0.018,0,0,0.018,0,0)" xlink:href="#U"/><use transform="matrix(0.018,0,0,0.018,10.026,0)" xlink:href="#O"/><use transform="matrix(0.018,0,0,0.018,20.232,0)" xlink:href="#T"/><use transform="matrix(0.018,0,0,0.018,25.974000000000004,0)" xlink:href="#U"/><use transform="matrix(0.018,0,0,0.018,36,0)" xlink:href="#Q"/><use transform="matrix(0.018,0,0,0.018,42.246,0)" xlink:href="#ao"/></g><g id="u"><use transform="matrix(0.018,0,0,0.018,0,0)" xlink:href="#P"/><use transform="matrix(0.018,0,0,0.018,8.946,0)" xlink:href="#Q"/><use transform="matrix(0.018,0,0,0.018,15.192,0)" xlink:href="#U"/><use transform="matrix(0.018,0,0,0.018,25.217999999999996,0)" xlink:href="#V"/><use transform="matrix(0.018,0,0,0.018,35.676,0)" xlink:href="#ar"/><use transform="matrix(0.018,0,0,0.018,40.014,0)" xlink:href="#T"/></g><g id="v"><use transform="matrix(0.018,0,0,0.018,0,0)" xlink:href="#P"/><use transform="matrix(0.018,0,0,0.018,8.946,0)" xlink:href="#as"/><use transform="matrix(0.018,0,0,0.018,18.594,0)" xlink:href="#Q"/><use transform="matrix(0.018,0,0,0.018,24.84,0)" xlink:href="#V"/></g><g id="w"><use transform="matrix(0.018,0,0,0.018,0,0)" xlink:href="#V"/><use transform="matrix(0.018,0,0,0.018,10.457999999999998,0)" xlink:href="#as"/><use transform="matrix(0.018,0,0,0.018,20.105999999999998,0)" xlink:href="#T"/><use transform="matrix(0.018,0,0,0.018,25.848,0)" xlink:href="#as"/></g><g id="x"><use transform="matrix(0.018,0,0,0.018,0,0)" xlink:href="#av"/><use transform="matrix(0.018,0,0,0.018,10.223999999999998,0)" xlink:href="#U"/><use transform="matrix(0.018,0,0,0.018,20.25,0)" xlink:href="#Q"/><use transform="matrix(0.018,0,0,0.018,26.496,0)" xlink:href="#U"/></g><path d="M71 0v-667h293c140 0 218 96 218 209s-79 209-218 209H188V0H71zm391-458c0-64-48-106-114-106H188v212h160c66 0 114-42 114-106" id="aE"/><g id="y"><use transform="matrix(0.018,0,0,0.018,0,0)" xlink:href="#aE"/><use transform="matrix(0.018,0,0,0.018,10.584,0)" xlink:href="#as"/><use transform="matrix(0.018,0,0,0.018,20.232,0)" xlink:href="#R"/><use transform="matrix(0.018,0,0,0.018,29.285999999999998,0)" xlink:href="#aq"/><use transform="matrix(0.018,0,0,0.018,44.279999999999994,0)" xlink:href="#U"/><use transform="matrix(0.018,0,0,0.018,54.306,0)" xlink:href="#O"/><use transform="matrix(0.018,0,0,0.018,64.512,0)" xlink:href="#T"/></g><g id="z"><use transform="matrix(0.018,0,0,0.018,0,0)" xlink:href="#aE"/><use transform="matrix(0.018,0,0,0.018,10.943999999999999,0)" xlink:href="#Q"/><use transform="matrix(0.018,0,0,0.018,17.189999999999998,0)" xlink:href="#ap"/><use transform="matrix(0.018,0,0,0.018,27.503999999999998,0)" xlink:href="#at"/><use transform="matrix(0.018,0,0,0.018,36.55799999999999,0)" xlink:href="#ar"/><use transform="matrix(0.018,0,0,0.018,40.895999999999994,0)" xlink:href="#V"/><use transform="matrix(0.018,0,0,0.018,51.354,0)" xlink:href="#U"/><use transform="matrix(0.018,0,0,0.018,61.379999999999995,0)" xlink:href="#Q"/><use transform="matrix(0.018,0,0,0.018,67.62599999999999,0)" xlink:href="#au"/><use transform="matrix(0.018,0,0,0.018,70.93799999999999,0)" xlink:href="#ao"/></g><g id="A"><use transform="matrix(0.018,0,0,0.018,0,0)" xlink:href="#aE"/><use transform="matrix(0.018,0,0,0.018,10.584,0)" xlink:href="#as"/><use transform="matrix(0.018,0,0,0.018,20.232,0)" xlink:href="#R"/><use transform="matrix(0.018,0,0,0.018,29.285999999999998,0)" xlink:href="#aq"/><use transform="matrix(0.018,0,0,0.018,44.279999999999994,0)" xlink:href="#U"/><use transform="matrix(0.018,0,0,0.018,54.306,0)" xlink:href="#O"/><use transform="matrix(0.018,0,0,0.018,64.512,0)" xlink:href="#T"/></g><path d="M62 124l49-76c77 90 291 100 296-69v-58C370-31 315 1 252 1 129 1 38-88 38-247c0-156 90-248 214-248 61 0 116 28 155 79v-67h105v458c0 174-129 221-248 221-82 0-143-18-202-72zm345-281v-180c-23-36-75-65-124-65-83 0-136 62-136 155S200-92 283-92c49 0 101-29 124-65" id="aF"/><g id="B"><use transform="matrix(0.018,0,0,0.018,0,0)" xlink:href="#aE"/><use transform="matrix(0.018,0,0,0.018,10.584,0)" xlink:href="#as"/><use transform="matrix(0.018,0,0,0.018,20.232,0)" xlink:href="#aF"/><use transform="matrix(0.018,0,0,0.018,30.671999999999997,0)" xlink:href="#U"/></g><path fill="#999" d="M536 0L188-486V0H71v-667h120l341 473v-473h117V0H536" id="aG"/><g id="C"><use transform="matrix(0.018,0,0,0.018,0,0)" xlink:href="#aG"/><use transform="matrix(0.018,0,0,0.018,12.959999999999999,0)" xlink:href="#af"/></g><path fill="#999" d="M38-242c0-146 103-253 250-253 94 0 151 40 185 86l-69 64c-27-38-64-57-111-57-88 0-146 66-146 160S205-81 293-81c47 0 84-20 111-57l69 64c-34 46-91 86-185 86C141 12 38-95 38-242" id="aH"/><g id="D"><use transform="matrix(0.018,0,0,0.018,0,0)" xlink:href="#aH"/><use transform="matrix(0.018,0,0,0.018,8.946,0)" xlink:href="#ae"/><use transform="matrix(0.018,0,0,0.018,15.192,0)" xlink:href="#ab"/><use transform="matrix(0.018,0,0,0.018,25.217999999999996,0)" xlink:href="#ai"/><use transform="matrix(0.018,0,0,0.018,35.676,0)" xlink:href="#ah"/><use transform="matrix(0.018,0,0,0.018,40.014,0)" xlink:href="#ad"/></g><g id="E"><use transform="matrix(0.018,0,0,0.018,0,0)" xlink:href="#aH"/><use transform="matrix(0.018,0,0,0.018,8.946,0)" xlink:href="#Y"/><use transform="matrix(0.018,0,0,0.018,18.594,0)" xlink:href="#ae"/><use transform="matrix(0.018,0,0,0.018,24.84,0)" xlink:href="#ai"/></g><g id="F"><use transform="matrix(0.018,0,0,0.018,0,0)" xlink:href="#ai"/><use transform="matrix(0.018,0,0,0.018,10.457999999999998,0)" xlink:href="#Y"/><use transform="matrix(0.018,0,0,0.018,20.105999999999998,0)" xlink:href="#ad"/><use transform="matrix(0.018,0,0,0.018,25.848,0)" xlink:href="#Y"/></g><g id="G"><use transform="matrix(0.018,0,0,0.018,0,0)" xlink:href="#ah"/><use transform="matrix(0.018,0,0,0.018,4.338,0)" xlink:href="#ay"/></g><g id="H"><use transform="matrix(0.018,0,0,0.018,0,0)" xlink:href="#ay"/><use transform="matrix(0.018,0,0,0.018,8.495999999999999,0)" xlink:href="#ad"/><use transform="matrix(0.018,0,0,0.018,14.238,0)" xlink:href="#af"/><use transform="matrix(0.018,0,0,0.018,24.552,0)" xlink:href="#ae"/><use transform="matrix(0.018,0,0,0.018,30.798,0)" xlink:href="#ab"/><use transform="matrix(0.018,0,0,0.018,40.824,0)" xlink:href="#ai"/></g><g id="I"><use transform="matrix(0.018,0,0,0.018,0,0)" xlink:href="#af"/><use transform="matrix(0.018,0,0,0.018,10.314,0)" xlink:href="#ae"/></g><g id="J"><use transform="matrix(0.018,0,0,0.018,0,0)" xlink:href="#ad"/><use transform="matrix(0.018,0,0,0.018,5.742,0)" xlink:href="#ae"/><use transform="matrix(0.018,0,0,0.018,11.988,0)" xlink:href="#Y"/><use transform="matrix(0.018,0,0,0.018,21.636,0)" xlink:href="#ac"/><use transform="matrix(0.018,0,0,0.018,31.842,0)" xlink:href="#ay"/><use transform="matrix(0.018,0,0,0.018,40.337999999999994,0)" xlink:href="#aa"/><use transform="matrix(0.018,0,0,0.018,55.331999999999994,0)" xlink:href="#ah"/><use transform="matrix(0.018,0,0,0.018,59.669999999999995,0)" xlink:href="#ad"/><use transform="matrix(0.018,0,0,0.018,65.41199999999999,0)" xlink:href="#ad"/><use transform="matrix(0.018,0,0,0.018,71.154,0)" xlink:href="#ab"/><use transform="matrix(0.018,0,0,0.018,81.17999999999999,0)" xlink:href="#ai"/></g><path fill="#999" d="M395 0v-304c0-75-39-98-98-98-53 0-99 32-124 65V0H68v-667h105v250c32-38 95-78 171-78 104 0 156 54 156 153V0H395" id="aI"/><path fill="#999" d="M62 124l49-76c77 90 291 100 296-69v-58C370-31 315 1 252 1 129 1 38-88 38-247c0-156 90-248 214-248 61 0 116 28 155 79v-67h105v458c0 174-129 221-248 221-82 0-143-18-202-72zm345-281v-180c-23-36-75-65-124-65-83 0-136 62-136 155S200-92 283-92c49 0 101-29 124-65" id="aJ"/><g id="K"><use transform="matrix(0.018,0,0,0.018,0,0)" xlink:href="#ad"/><use transform="matrix(0.018,0,0,0.018,5.742,0)" xlink:href="#aI"/><use transform="matrix(0.018,0,0,0.018,15.965999999999998,0)" xlink:href="#ae"/><use transform="matrix(0.018,0,0,0.018,22.211999999999993,0)" xlink:href="#af"/><use transform="matrix(0.018,0,0,0.018,32.525999999999996,0)" xlink:href="#ak"/><use transform="matrix(0.018,0,0,0.018,42.732,0)" xlink:href="#aJ"/><use transform="matrix(0.018,0,0,0.018,53.172,0)" xlink:href="#aI"/></g><g id="L"><use transform="matrix(0.018,0,0,0.018,0,0)" xlink:href="#Z"/><use transform="matrix(0.018,0,0,0.018,9.053999999999998,0)" xlink:href="#af"/><use transform="matrix(0.018,0,0,0.018,19.368,0)" xlink:href="#ak"/><use transform="matrix(0.018,0,0,0.018,29.573999999999998,0)" xlink:href="#ae"/></g><g id="M"><use transform="matrix(0.018,0,0,0.018,0,0)" xlink:href="#ay"/><use transform="matrix(0.018,0,0,0.018,8.495999999999999,0)" xlink:href="#ab"/><use transform="matrix(0.018,0,0,0.018,18.522,0)" xlink:href="#ae"/><use transform="matrix(0.018,0,0,0.018,24.767999999999997,0)" xlink:href="#ag"/><use transform="matrix(0.018,0,0,0.018,33.821999999999996,0)" xlink:href="#ab"/><use transform="matrix(0.018,0,0,0.018,43.848,0)" xlink:href="#ae"/></g></defs></g></svg>