<svg xmlns="http://www.w3.org/2000/svg" xmlns:xlink="http://www.w3.org/1999/xlink" width="853" height="486.33"><g transform="translate(-202 -266.66666666666674)"><path d="M422.13 654.08v-83.16c0-4.08-3.67-10.92-8.3-10.92H269.85c-4.64 0-9.08 6.84-9.08 10.92v83.16c-16.2 17.28-15.44 17.28-15.44 17.28 0 4.92 4.44 8.64 10.23 8.64H428.1c5.8 0 10.24-4.08 10.24-8.64l-16.2-17.28zm-66.98 18.72h-30.1c-1.55 0-3.1-.72-3.1-1.44l3.48-5.64c0-.72 1.16-1.2 2.7-1.2h23.94c1.15 0 2.3.48 2.3 1.2l3.87 5.64c0 1.08-1.54 1.44-3.1 1.44zM415 653.6H267.9v-81.96c0-1.92 1.93-4.56 4.05-4.56h139.35c2.12 0 3.67 2.64 3.67 4.56v81.96zM661.1 380.83c-17.97 0-32.72-4.32-32.72-9.84 0-5.53 14.48-9.85 32.7-9.85 17.88 0 32.36 4.32 32.36 9.84 0 5.5-14.2 9.83-32.35 9.83zm-45.73 56.76v18c0 8.27 16.67 17.5 38.57 19.07h14.48c21.9-1.56 38.58-8.88 38.58-17.64V372.9c0-9.35-20.7-18.23-46-18.23s-45.63 8.28-45.63 17.88V437.6zM685.46 560H638.6c-3.22 0-5.86 2.64-5.86 5.88V680h58.52V565.88c0-3.24-2.64-5.88-5.8-5.88zm-2.92 108.24h-41.02v-5.88h41.02v5.88zm0-11.64h-41.02v-5.88h41.02v5.88zm0-73.2h-41.02v-5.88h41.02v5.88zM938.38 560H891.5c-3.2 0-5.84 2.64-5.84 5.88V680h58.5V565.88c0-3.24-2.62-5.88-5.78-5.88zm-2.92 108.24h-41.02v-5.88h41.02v5.88zm0-11.64h-41.02v-5.88h41.02v5.88zm0-73.2h-41.02v-5.88h41.02v5.88z" fill="#2babee"/><path d="M422.13 619.64h210.6" stroke="#2a3843" stroke-width="4" fill="none"/><path d="M422.13 621.64v-4zM632.74 619.64l-14.26 4.64V615z" fill="#2a3843"/><path d="M632.74 617.54v4.2l-16.26 5.3v-14.8zm-12.26 3.98l5.8-1.88-5.8-1.88z" fill="#2a3843"/><path d="M691.26 620h194.4" stroke="#2a3843" stroke-width="4" fill="none"/><path d="M691.26 622v-4zM885.66 620l-14.27 4.64v-9.28z" fill="#2a3843"/><path d="M885.66 617.9v4.2l-16.27 5.3v-14.8zm-12.27 3.98l5.8-1.88-5.8-1.88z" fill="#2a3843"/><path d="M662 560l-.42-85.33" stroke="#2a3843" stroke-width="4" fill="none"/><path d="M662 560l-4.7-14.24 9.27-.05z" fill="#2a3843"/><path d="M664.1 560h-4.2l-5.37-16.23 14.78-.07zm-4.04-12.26l1.9 5.8 1.86-5.82zM666.3 488.9l-9.28.05 4.56-14.28z" fill="#2a3843"/><path d="M669.05 490.9l-14.78.07 5.2-16.3h4.22zm-9.3-3.96l3.78-.02-1.92-5.78z" fill="#2a3843"/><path d="M542 291.67c0-2.76 2.24-5 5-5h230c2.76 0 5 2.24 5 5v50c0 2.76-2.24 5-5 5H547c-2.76 0-5-2.24-5-5z" fill="none"/><use xlink:href="#a" transform="matrix(1,0,0,1,542,286.66666666666674) translate(4.746000000000009 26.22)"/><use xlink:href="#b" transform="matrix(1,0,0,1,542,286.66666666666674) translate(58.458000000000006 26.22)"/><use xlink:href="#c" transform="matrix(1,0,0,1,542,286.66666666666674) translate(98.382 26.22)"/><use xlink:href="#d" transform="matrix(1,0,0,1,542,286.66666666666674) translate(138.504 26.22)"/><use xlink:href="#e" transform="matrix(1,0,0,1,542,286.66666666666674) translate(194.41199999999998 26.22)"/><use xlink:href="#f" transform="matrix(1,0,0,1,542,286.66666666666674) translate(69.22200000000001 44.22)"/><path d="M666 616c0-2.76 2.24-5 5-5h230c2.76 0 5 2.24 5 5v50c0 2.76-2.24 5-5 5H671c-2.76 0-5-2.24-5-5z" fill="none"/><use xlink:href="#g" transform="matrix(1,0,0,1,666,611) translate(79.248 35.22)"/><path d="M406.67 616c0-2.76 2.24-5 5-5h230c2.76 0 5 2.24 5 5v50c0 2.76-2.24 5-5 5h-230c-2.76 0-5-2.24-5-5z" fill="none"/><use xlink:href="#h" transform="matrix(1,0,0,1,406.66666666666674,611) translate(67.85400000000001 35.22)"/><path d="M222 500c0-2.76 2.24-5 5-5h230c2.76 0 5 2.24 5 5v50c0 2.76-2.24 5-5 5H227c-2.76 0-5-2.24-5-5z" fill="none"/><use xlink:href="#i" transform="matrix(1,0,0,1,222,495) translate(8.012999999999991 26.22)"/><use xlink:href="#j" transform="matrix(1,0,0,1,222,495) translate(90.939 26.22)"/><use xlink:href="#k" transform="matrix(1,0,0,1,222,495) translate(146.30700000000002 26.22)"/><use xlink:href="#l" transform="matrix(1,0,0,1,222,495) translate(196.68900000000002 26.22)"/><use xlink:href="#c" transform="matrix(1,0,0,1,222,495) translate(81.678 44.22)"/><use xlink:href="#m" transform="matrix(1,0,0,1,222,495) translate(121.79999999999998 44.22)"/><path d="M541.6 677.67c0-2.76 2.24-5 5-5h230c2.76 0 5 2.24 5 5v50c0 2.76-2.24 5-5 5h-230c-2.76 0-5-2.24-5-5z" fill="none"/><g><use xlink:href="#n" transform="matrix(1,0,0,1,541.5999999999999,672.6666666666666) translate(73.551 35.22)"/><use xlink:href="#o" transform="matrix(1,0,0,1,541.5999999999999,672.6666666666666) translate(114.15899999999999 35.22)"/></g><path d="M795 678c0-2.76 2.24-5 5-5h230c2.76 0 5 2.24 5 5v50c0 2.76-2.24 5-5 5H800c-2.76 0-5-2.24-5-5z" fill="none"/><g><use xlink:href="#p" transform="matrix(1,0,0,1,795,673) translate(48.747 35.22)"/><use xlink:href="#q" transform="matrix(1,0,0,1,795,673) translate(123.62700000000001 35.22)"/></g><path d="M652 390c0-2.76 2.24-5 5-5h303.33c2.76 0 5 2.24 5 5v50c0 2.76-2.24 5-5 5H657c-2.76 0-5-2.24-5-5z" fill="none"/><g><use xlink:href="#r" transform="matrix(1,0,0,1,652,385) translate(65.47900000000001 35.22)"/><use xlink:href="#s" transform="matrix(1,0,0,1,652,385) translate(174.397 35.22)"/></g><path d="M222 678c0-2.76 2.24-5 5-5h230c2.76 0 5 2.24 5 5v50c0 2.76-2.24 5-5 5H227c-2.76 0-5-2.24-5-5z" fill="none"/><g><use xlink:href="#t" transform="matrix(1,0,0,1,222,673) translate(19.02900000000001 35.22)"/><use xlink:href="#u" transform="matrix(1,0,0,1,222,673) translate(113.763 35.22)"/><use xlink:href="#v" transform="matrix(1,0,0,1,222,673) translate(154.40699999999998 35.22)"/></g><defs><path d="M386 12C194 12 41-128 41-333s153-345 345-345c140 0 223 70 273 150l-100 51c-32-55-96-97-173-97-127 0-225 101-225 241S259-92 386-92c77 0 141-41 173-97l100 51C608-58 526 12 386 12" id="w"/><path d="M68 0v-483h105v71c36-46 94-82 157-82v104c-63-14-128 20-157 61V0H68" id="x"/><path d="M38-242c0-140 102-253 245-253 153 0 246 120 238 288H148c8 73 63 133 154 133 47 0 103-19 137-53l48 69c-48 46-119 70-196 70C146 12 38-89 38-242zm245-167c-90 0-131 69-136 128h272c-2-57-41-128-136-128" id="y"/><path d="M408 0v-66c-37 48-93 78-155 78C129 12 38-82 38-241c0-156 90-254 215-254 60 0 116 28 155 79v-251h105V0H408zm0-145v-192c-24-36-75-65-125-65-83 0-136 67-136 161 0 93 53 160 136 160 50 0 101-28 125-64" id="z"/><path d="M120-557c-35 0-65-29-65-65s30-65 65-65c36 0 65 29 65 65s-29 65-65 65zM68 0v-483h105V0H68" id="A"/><path d="M213 12C132 12 89-32 89-112v-279H9v-92h80v-132h105v132h98v92h-98v253c-9 59 64 71 93 40l25 79c-19 18-50 31-99 31" id="B"/><g id="a"><use transform="matrix(0.018,0,0,0.018,0,0)" xlink:href="#w"/><use transform="matrix(0.018,0,0,0.018,12.276,0)" xlink:href="#x"/><use transform="matrix(0.018,0,0,0.018,18.522,0)" xlink:href="#y"/><use transform="matrix(0.018,0,0,0.018,28.548,0)" xlink:href="#z"/><use transform="matrix(0.018,0,0,0.018,39.006,0)" xlink:href="#A"/><use transform="matrix(0.018,0,0,0.018,43.34400000000001,0)" xlink:href="#B"/></g><path d="M38-242c0-146 103-253 250-253 94 0 151 40 185 86l-69 64c-27-38-64-57-111-57-88 0-146 66-146 160S205-81 293-81c47 0 84-20 111-57l69 64c-34 46-91 86-185 86C141 12 38-95 38-242" id="C"/><path d="M363 0v-52C272 53 39 33 39-148c0-184 234-194 324-95v-72c0-56-46-90-113-90-54 0-101 20-143 61l-43-73c56-53 126-78 203-78 107 0 201 45 201 175V0H363zm0-110v-73c-45-73-218-69-218 37 0 105 174 109 218 36" id="D"/><g id="b"><use transform="matrix(0.018,0,0,0.018,0,0)" xlink:href="#C"/><use transform="matrix(0.018,0,0,0.018,8.946,0)" xlink:href="#D"/><use transform="matrix(0.018,0,0,0.018,18.594,0)" xlink:href="#x"/><use transform="matrix(0.018,0,0,0.018,24.84,0)" xlink:href="#z"/></g><g id="c"><use transform="matrix(0.018,0,0,0.018,0,0)" xlink:href="#z"/><use transform="matrix(0.018,0,0,0.018,10.457999999999998,0)" xlink:href="#D"/><use transform="matrix(0.018,0,0,0.018,20.105999999999998,0)" xlink:href="#B"/><use transform="matrix(0.018,0,0,0.018,25.848,0)" xlink:href="#D"/></g><path d="M26-63l48-76c34 35 101 68 164 68s95-23 95-59c0-42-51-57-110-70-83-18-182-40-182-148 0-79 68-147 190-147 82 0 144 29 188 68l-44 74c-29-33-83-58-143-58-55 0-90 20-90 54 0 37 48 50 105 63 84 18 187 42 187 156 0 85-71 150-201 150-82 0-157-26-207-75" id="E"/><path d="M286 12C133 12 38-103 38-242c0-138 95-253 248-253 155 0 249 115 249 253 0 139-94 254-249 254zm0-93c90 0 140-75 140-161 0-85-50-160-140-160-89 0-139 75-139 160 0 86 50 161 139 161" id="F"/><g id="d"><use transform="matrix(0.018,0,0,0.018,0,0)" xlink:href="#E"/><use transform="matrix(0.018,0,0,0.018,8.495999999999999,0)" xlink:href="#B"/><use transform="matrix(0.018,0,0,0.018,14.238,0)" xlink:href="#F"/><use transform="matrix(0.018,0,0,0.018,24.552,0)" xlink:href="#x"/><use transform="matrix(0.018,0,0,0.018,30.798,0)" xlink:href="#y"/><use transform="matrix(0.018,0,0,0.018,40.824,0)" xlink:href="#z"/></g><path d="M395 0v-304c0-75-39-98-98-98-53 0-99 32-124 65V0H68v-667h105v250c32-38 95-78 171-78 104 0 156 54 156 153V0H395" id="G"/><path d="M104 133L57 94c32-19 65-60 72-94-41 12-77-17-77-60 0-38 31-69 68-69 41 0 78 33 78 91 0 69-39 132-94 171" id="H"/><g id="e"><use transform="matrix(0.018,0,0,0.018,0,0)" xlink:href="#G"/><use transform="matrix(0.018,0,0,0.018,10.223999999999998,0)" xlink:href="#y"/><use transform="matrix(0.018,0,0,0.018,20.25,0)" xlink:href="#x"/><use transform="matrix(0.018,0,0,0.018,26.496,0)" xlink:href="#y"/><use transform="matrix(0.018,0,0,0.018,36.432,0)" xlink:href="#H"/></g><path d="M394 0v-64c-35 39-95 76-171 76C119 12 68-42 68-141v-342h105v304c-7 144 181 106 221 35v-339h105V0H394" id="I"/><path d="M394 0v-302c0-75-38-100-97-100-54 0-100 32-124 65V0H68v-483h105v66c32-38 94-78 170-78 104 0 156 56 156 155V0H394" id="J"/><path d="M63 95c45 16 90 10 109-34l24-55L-2-483h112l141 362 141-362h113L272 87C230 187 154 208 47 189" id="K"/><path d="M173 184H68v-667h105v66c36-48 92-78 155-78 125 0 214 94 214 253S453 12 328 12c-61 0-116-27-155-79v251zm260-426c0-93-53-160-136-160-49 0-101 29-124 65v191c23 35 75 65 124 65 83 0 136-67 136-161" id="L"/><g id="f"><use transform="matrix(0.018,0,0,0.018,0,0)" xlink:href="#I"/><use transform="matrix(0.018,0,0,0.018,10.206,0)" xlink:href="#J"/><use transform="matrix(0.018,0,0,0.018,20.412,0)" xlink:href="#y"/><use transform="matrix(0.018,0,0,0.018,30.438,0)" xlink:href="#J"/><use transform="matrix(0.018,0,0,0.018,40.644,0)" xlink:href="#C"/><use transform="matrix(0.018,0,0,0.018,49.589999999999996,0)" xlink:href="#x"/><use transform="matrix(0.018,0,0,0.018,55.836,0)" xlink:href="#K"/><use transform="matrix(0.018,0,0,0.018,64.89,0)" xlink:href="#L"/><use transform="matrix(0.018,0,0,0.018,75.33,0)" xlink:href="#B"/><use transform="matrix(0.018,0,0,0.018,81.07200000000002,0)" xlink:href="#y"/><use transform="matrix(0.018,0,0,0.018,91.098,0)" xlink:href="#z"/></g><path d="M71 0v-667h457v103H188v173h333v103H188v185h340V0H71" id="M"/><g id="g"><use transform="matrix(0.018,0,0,0.018,0,0)" xlink:href="#M"/><use transform="matrix(0.018,0,0,0.018,10.386,0)" xlink:href="#J"/><use transform="matrix(0.018,0,0,0.018,20.592,0)" xlink:href="#C"/><use transform="matrix(0.018,0,0,0.018,29.537999999999997,0)" xlink:href="#x"/><use transform="matrix(0.018,0,0,0.018,35.784,0)" xlink:href="#K"/><use transform="matrix(0.018,0,0,0.018,44.837999999999994,0)" xlink:href="#L"/><use transform="matrix(0.018,0,0,0.018,55.277999999999984,0)" xlink:href="#B"/><use transform="matrix(0.018,0,0,0.018,61.01999999999999,0)" xlink:href="#y"/><use transform="matrix(0.018,0,0,0.018,71.04599999999999,0)" xlink:href="#z"/></g><path d="M71-263v-404h118v400c0 106 59 175 171 175 111 0 170-69 170-175v-400h118v403c0 166-95 276-288 276C166 12 71-99 71-263" id="N"/><g id="h"><use transform="matrix(0.018,0,0,0.018,0,0)" xlink:href="#N"/><use transform="matrix(0.018,0,0,0.018,12.941999999999998,0)" xlink:href="#J"/><use transform="matrix(0.018,0,0,0.018,23.147999999999993,0)" xlink:href="#y"/><use transform="matrix(0.018,0,0,0.018,33.17399999999999,0)" xlink:href="#J"/><use transform="matrix(0.018,0,0,0.018,43.379999999999995,0)" xlink:href="#C"/><use transform="matrix(0.018,0,0,0.018,52.32599999999999,0)" xlink:href="#x"/><use transform="matrix(0.018,0,0,0.018,58.571999999999996,0)" xlink:href="#K"/><use transform="matrix(0.018,0,0,0.018,67.62599999999999,0)" xlink:href="#L"/><use transform="matrix(0.018,0,0,0.018,78.06599999999999,0)" xlink:href="#B"/><use transform="matrix(0.018,0,0,0.018,83.80799999999999,0)" xlink:href="#y"/><use transform="matrix(0.018,0,0,0.018,93.83399999999999,0)" xlink:href="#z"/></g><path d="M660 0v-315c0-52-23-87-79-87-47 0-91 33-112 64V0H364v-315c0-52-23-87-80-87-46 0-89 33-111 65V0H68v-483h105v66c20-30 84-78 157-78 72 0 116 36 132 89 28-44 92-89 164-89 89 0 139 48 139 146V0H660" id="O"/><g id="i"><use transform="matrix(0.018,0,0,0.018,0,0)" xlink:href="#w"/><use transform="matrix(0.018,0,0,0.018,12.276,0)" xlink:href="#I"/><use transform="matrix(0.018,0,0,0.018,22.482,0)" xlink:href="#E"/><use transform="matrix(0.018,0,0,0.018,30.977999999999998,0)" xlink:href="#B"/><use transform="matrix(0.018,0,0,0.018,36.72,0)" xlink:href="#F"/><use transform="matrix(0.018,0,0,0.018,47.034,0)" xlink:href="#O"/><use transform="matrix(0.018,0,0,0.018,62.028,0)" xlink:href="#y"/><use transform="matrix(0.018,0,0,0.018,72.054,0)" xlink:href="#x"/></g><g id="j"><use transform="matrix(0.018,0,0,0.018,0,0)" xlink:href="#y"/><use transform="matrix(0.018,0,0,0.018,10.026,0)" xlink:href="#J"/><use transform="matrix(0.018,0,0,0.018,20.232,0)" xlink:href="#B"/><use transform="matrix(0.018,0,0,0.018,25.974000000000004,0)" xlink:href="#y"/><use transform="matrix(0.018,0,0,0.018,36,0)" xlink:href="#x"/><use transform="matrix(0.018,0,0,0.018,42.246,0)" xlink:href="#E"/></g><g id="k"><use transform="matrix(0.018,0,0,0.018,0,0)" xlink:href="#C"/><use transform="matrix(0.018,0,0,0.018,8.946,0)" xlink:href="#x"/><use transform="matrix(0.018,0,0,0.018,15.192,0)" xlink:href="#y"/><use transform="matrix(0.018,0,0,0.018,25.217999999999996,0)" xlink:href="#z"/><use transform="matrix(0.018,0,0,0.018,35.676,0)" xlink:href="#A"/><use transform="matrix(0.018,0,0,0.018,40.014,0)" xlink:href="#B"/></g><g id="l"><use transform="matrix(0.018,0,0,0.018,0,0)" xlink:href="#C"/><use transform="matrix(0.018,0,0,0.018,8.946,0)" xlink:href="#D"/><use transform="matrix(0.018,0,0,0.018,18.594,0)" xlink:href="#x"/><use transform="matrix(0.018,0,0,0.018,24.84,0)" xlink:href="#z"/></g><g id="m"><use transform="matrix(0.018,0,0,0.018,0,0)" xlink:href="#G"/><use transform="matrix(0.018,0,0,0.018,10.223999999999998,0)" xlink:href="#y"/><use transform="matrix(0.018,0,0,0.018,20.25,0)" xlink:href="#x"/><use transform="matrix(0.018,0,0,0.018,26.496,0)" xlink:href="#y"/></g><path fill="#999" d="M260 0v-277L1-667h134l184 286 182-286h134L377-277V0H260" id="P"/><path fill="#999" d="M286 12C133 12 38-103 38-242c0-138 95-253 248-253 155 0 249 115 249 253 0 139-94 254-249 254zm0-93c90 0 140-75 140-161 0-85-50-160-140-160-89 0-139 75-139 160 0 86 50 161 139 161" id="Q"/><path fill="#999" d="M394 0v-64c-35 39-95 76-171 76C119 12 68-42 68-141v-342h105v304c-7 144 181 106 221 35v-339h105V0H394" id="R"/><path fill="#999" d="M68 0v-483h105v71c36-46 94-82 157-82v104c-63-14-128 20-157 61V0H68" id="S"/><g id="n"><use transform="matrix(0.018,0,0,0.018,0,0)" xlink:href="#P"/><use transform="matrix(0.018,0,0,0.018,9.216,0)" xlink:href="#Q"/><use transform="matrix(0.018,0,0,0.018,19.53,0)" xlink:href="#R"/><use transform="matrix(0.018,0,0,0.018,29.736,0)" xlink:href="#S"/></g><path fill="#999" d="M28-94l65-90c46 49 118 92 211 92 96 0 134-47 134-91 0-60-71-78-152-99-109-27-237-59-237-200 0-110 97-195 243-195 104 0 188 33 250 93l-67 87c-52-52-123-76-193-76-69 0-113 33-113 83 0 52 68 69 147 89 110 28 241 62 241 207 0 111-78 206-258 206C176 12 87-31 28-94" id="T"/><path fill="#999" d="M38-242c0-140 102-253 245-253 153 0 246 120 238 288H148c8 73 63 133 154 133 47 0 103-19 137-53l48 69c-48 46-119 70-196 70C146 12 38-89 38-242zm245-167c-90 0-131 69-136 128h272c-2-57-41-128-136-128" id="U"/><path fill="#999" d="M195 0L-2-483h112l141 362 141-362h113L308 0H195" id="V"/><g id="o"><use transform="matrix(0.018,0,0,0.018,0,0)" xlink:href="#T"/><use transform="matrix(0.018,0,0,0.018,10.691999999999998,0)" xlink:href="#U"/><use transform="matrix(0.018,0,0,0.018,20.718,0)" xlink:href="#S"/><use transform="matrix(0.018,0,0,0.018,26.963999999999995,0)" xlink:href="#V"/><use transform="matrix(0.018,0,0,0.018,36.017999999999994,0)" xlink:href="#U"/><use transform="matrix(0.018,0,0,0.018,46.044,0)" xlink:href="#S"/></g><path fill="#999" d="M71 0v-667h293c140 0 218 96 218 209s-79 209-218 209H188V0H71zm391-458c0-64-48-106-114-106H188v212h160c66 0 114-42 114-106" id="W"/><path fill="#999" d="M363 0v-52C272 53 39 33 39-148c0-184 234-194 324-95v-72c0-56-46-90-113-90-54 0-101 20-143 61l-43-73c56-53 126-78 203-78 107 0 201 45 201 175V0H363zm0-110v-73c-45-73-218-69-218 37 0 105 174 109 218 36" id="X"/><path fill="#999" d="M63 95c45 16 90 10 109-34l24-55L-2-483h112l141 362 141-362h113L272 87C230 187 154 208 47 189" id="Y"/><path fill="#999" d="M660 0v-315c0-52-23-87-79-87-47 0-91 33-112 64V0H364v-315c0-52-23-87-80-87-46 0-89 33-111 65V0H68v-483h105v66c20-30 84-78 157-78 72 0 116 36 132 89 28-44 92-89 164-89 89 0 139 48 139 146V0H660" id="Z"/><path fill="#999" d="M394 0v-302c0-75-38-100-97-100-54 0-100 32-124 65V0H68v-483h105v66c32-38 94-78 170-78 104 0 156 56 156 155V0H394" id="aa"/><path fill="#999" d="M213 12C132 12 89-32 89-112v-279H9v-92h80v-132h105v132h98v92h-98v253c-9 59 64 71 93 40l25 79c-19 18-50 31-99 31" id="ab"/><g id="p"><use transform="matrix(0.018,0,0,0.018,0,0)" xlink:href="#W"/><use transform="matrix(0.018,0,0,0.018,10.584,0)" xlink:href="#X"/><use transform="matrix(0.018,0,0,0.018,20.232,0)" xlink:href="#Y"/><use transform="matrix(0.018,0,0,0.018,29.285999999999998,0)" xlink:href="#Z"/><use transform="matrix(0.018,0,0,0.018,44.279999999999994,0)" xlink:href="#U"/><use transform="matrix(0.018,0,0,0.018,54.306,0)" xlink:href="#aa"/><use transform="matrix(0.018,0,0,0.018,64.512,0)" xlink:href="#ab"/></g><path fill="#999" d="M120-557c-35 0-65-29-65-65s30-65 65-65c36 0 65 29 65 65s-29 65-65 65zM68 0v-483h105V0H68" id="ac"/><path fill="#999" d="M408 0v-66c-37 48-93 78-155 78C129 12 38-82 38-241c0-156 90-254 215-254 60 0 116 28 155 79v-251h105V0H408zm0-145v-192c-24-36-75-65-125-65-83 0-136 67-136 161 0 93 53 160 136 160 50 0 101-28 125-64" id="ad"/><g id="q"><use transform="matrix(0.018,0,0,0.018,0,0)" xlink:href="#W"/><use transform="matrix(0.018,0,0,0.018,10.943999999999999,0)" xlink:href="#S"/><use transform="matrix(0.018,0,0,0.018,17.189999999999998,0)" xlink:href="#Q"/><use transform="matrix(0.018,0,0,0.018,27.503999999999998,0)" xlink:href="#V"/><use transform="matrix(0.018,0,0,0.018,36.55799999999999,0)" xlink:href="#ac"/><use transform="matrix(0.018,0,0,0.018,40.895999999999994,0)" xlink:href="#ad"/><use transform="matrix(0.018,0,0,0.018,51.354,0)" xlink:href="#U"/><use transform="matrix(0.018,0,0,0.018,61.379999999999995,0)" xlink:href="#S"/></g><path fill="#999" d="M71-263v-404h118v400c0 106 59 175 171 175 111 0 170-69 170-175v-400h118v403c0 166-95 276-288 276C166 12 71-99 71-263" id="ae"/><path fill="#999" d="M38-242c0-146 103-253 250-253 94 0 151 40 185 86l-69 64c-27-38-64-57-111-57-88 0-146 66-146 160S205-81 293-81c47 0 84-20 111-57l69 64c-34 46-91 86-185 86C141 12 38-95 38-242" id="af"/><path fill="#999" d="M173 184H68v-667h105v66c36-48 92-78 155-78 125 0 214 94 214 253S453 12 328 12c-61 0-116-27-155-79v251zm260-426c0-93-53-160-136-160-49 0-101 29-124 65v191c23 35 75 65 124 65 83 0 136-67 136-161" id="ag"/><g id="r"><use transform="matrix(0.018,0,0,0.018,0,0)" xlink:href="#ae"/><use transform="matrix(0.018,0,0,0.018,12.941999999999998,0)" xlink:href="#aa"/><use transform="matrix(0.018,0,0,0.018,23.147999999999993,0)" xlink:href="#U"/><use transform="matrix(0.018,0,0,0.018,33.17399999999999,0)" xlink:href="#aa"/><use transform="matrix(0.018,0,0,0.018,43.379999999999995,0)" xlink:href="#af"/><use transform="matrix(0.018,0,0,0.018,52.32599999999999,0)" xlink:href="#S"/><use transform="matrix(0.018,0,0,0.018,58.571999999999996,0)" xlink:href="#Y"/><use transform="matrix(0.018,0,0,0.018,67.62599999999999,0)" xlink:href="#ag"/><use transform="matrix(0.018,0,0,0.018,78.06599999999999,0)" xlink:href="#ab"/><use transform="matrix(0.018,0,0,0.018,83.80799999999999,0)" xlink:href="#U"/><use transform="matrix(0.018,0,0,0.018,93.83399999999999,0)" xlink:href="#ad"/></g><path fill="#999" d="M68 0v-667h105v251c38-51 94-79 155-79 124 0 214 98 214 254 0 159-91 253-214 253-63 0-118-30-155-78V0H68zm105-145c23 36 75 64 124 64 84 0 137-66 137-160s-53-161-137-161c-49 0-101 30-124 66v191" id="ah"/><path fill="#999" d="M26-63l48-76c34 35 101 68 164 68s95-23 95-59c0-42-51-57-110-70-83-18-182-40-182-148 0-79 68-147 190-147 82 0 144 29 188 68l-44 74c-29-33-83-58-143-58-55 0-90 20-90 54 0 37 48 50 105 63 84 18 187 42 187 156 0 85-71 150-201 150-82 0-157-26-207-75" id="ai"/><g id="s"><use transform="matrix(0.018,0,0,0.018,0,0)" xlink:href="#ad"/><use transform="matrix(0.018,0,0,0.018,10.457999999999998,0)" xlink:href="#X"/><use transform="matrix(0.018,0,0,0.018,20.105999999999998,0)" xlink:href="#ab"/><use transform="matrix(0.018,0,0,0.018,25.848,0)" xlink:href="#X"/><use transform="matrix(0.018,0,0,0.018,35.495999999999995,0)" xlink:href="#ah"/><use transform="matrix(0.018,0,0,0.018,45.95399999999999,0)" xlink:href="#X"/><use transform="matrix(0.018,0,0,0.018,55.60199999999999,0)" xlink:href="#ai"/><use transform="matrix(0.018,0,0,0.018,64.09799999999998,0)" xlink:href="#U"/></g><path fill="#999" d="M386 12C194 12 41-128 41-333s153-345 345-345c140 0 223 70 273 150l-100 51c-32-55-96-97-173-97-127 0-225 101-225 241S259-92 386-92c77 0 141-41 173-97l100 51C608-58 526 12 386 12" id="aj"/><path fill="#999" d="M83-391S48-601 48-618c0-32 26-59 59-59 32 0 59 27 59 59 0 17-35 227-35 227H83" id="ak"/><g id="t"><use transform="matrix(0.018,0,0,0.018,0,0)" xlink:href="#aj"/><use transform="matrix(0.018,0,0,0.018,12.276,0)" xlink:href="#R"/><use transform="matrix(0.018,0,0,0.018,22.482,0)" xlink:href="#ai"/><use transform="matrix(0.018,0,0,0.018,30.977999999999998,0)" xlink:href="#ab"/><use transform="matrix(0.018,0,0,0.018,36.72,0)" xlink:href="#Q"/><use transform="matrix(0.018,0,0,0.018,47.034,0)" xlink:href="#Z"/><use transform="matrix(0.018,0,0,0.018,62.028,0)" xlink:href="#U"/><use transform="matrix(0.018,0,0,0.018,72.054,0)" xlink:href="#S"/><use transform="matrix(0.018,0,0,0.018,78.3,0)" xlink:href="#ak"/><use transform="matrix(0.018,0,0,0.018,81.612,0)" xlink:href="#ai"/></g><path fill="#999" d="M581 0L451-492 322 0H197L6-667h131l130 514 138-514h93l138 514 129-514h131L706 0H581" id="al"/><g id="u"><use transform="matrix(0.018,0,0,0.018,0,0)" xlink:href="#al"/><use transform="matrix(0.018,0,0,0.018,15.533999999999997,0)" xlink:href="#U"/><use transform="matrix(0.018,0,0,0.018,25.559999999999995,0)" xlink:href="#ah"/></g><path fill="#999" d="M71 0v-667h328c122 0 190 76 190 170 0 84-54 140-116 153 71 11 129 82 129 164C602-77 533 0 408 0H71zm117-391h187c60 0 94-36 94-86s-34-87-94-87H188v173zm0 288h192c64 0 102-35 102-93 0-50-35-92-102-92H188v185" id="am"/><path fill="#999" d="M489 0L377-354 265 0H155L5-483h109l102 351 115-351h92l115 351 102-351h109L599 0H489" id="an"/><g id="v"><use transform="matrix(0.018,0,0,0.018,0,0)" xlink:href="#am"/><use transform="matrix(0.018,0,0,0.018,11.664,0)" xlink:href="#S"/><use transform="matrix(0.018,0,0,0.018,17.91,0)" xlink:href="#Q"/><use transform="matrix(0.018,0,0,0.018,28.224,0)" xlink:href="#an"/><use transform="matrix(0.018,0,0,0.018,41.796,0)" xlink:href="#ai"/><use transform="matrix(0.018,0,0,0.018,50.292,0)" xlink:href="#U"/><use transform="matrix(0.018,0,0,0.018,60.318,0)" xlink:href="#S"/></g></defs></g></svg>