<?xml version="1.0" encoding="UTF-8" standalone="no"?>
<svg width="51px" height="57px" viewBox="0 0 51 57" version="1.1" xmlns="http://www.w3.org/2000/svg" xmlns:xlink="http://www.w3.org/1999/xlink" xmlns:sketch="http://www.bohemiancoding.com/sketch/ns">
    <!-- Generator: Sketch 3.4.2 (15855) - http://www.bohemiancoding.com/sketch -->
    <title>Untitled</title>
    <desc>Created with Sketch.</desc>
    <defs>
        <path id="path-1" d="M0.897333311,7.36799982 L7.97693313,7.36799982 L7.97693313,0.289333326 L0.897333311,0.289333326 L0.897333311,7.36799982 L0.897333311,7.36799982 Z"></path>
        <path id="path-3" d="M0.897333311,7.22933315 L7.97693313,7.22933315 L7.97693313,0.14933333 L0.897333311,0.14933333 L0.897333311,7.22933315 L0.897333311,7.22933315 Z"></path>
        <path id="path-5" d="M0.897333311,7.09066649 L7.97693313,7.09066649 L7.97693313,0.0107999997 L0.897333311,0.0107999997 L0.897333311,7.09066649 L0.897333311,7.09066649 Z"></path>
        <path id="path-7" d="M0.897333311,7.28466646 L7.97693313,7.28466646 L7.97693313,0.20506664 L0.897333311,0.20506664 L0.897333311,7.28466646 L0.897333311,7.28466646 Z"></path>
    </defs>
    <g id="Page-1" stroke="none" stroke-width="1" fill="none" fill-rule="evenodd" sketch:type="MSPage">
        <g id="resolve-digital-logo" sketch:type="MSLayerGroup">
            <g id="Page-1">
                <g id="RD-logo-Master">
                    <g id="g10" transform="translate(25.500000, 28.666670) scale(1, -1) translate(-25.500000, -28.666670) translate(0.000000, 0.666670)">
                        <g id="g12">
                            <g id="g14-Clipped">
                                <g id="g14">
                                    <g id="g72" fill="#29ABE2" sketch:type="MSShapeGroup">
                                        <g id="g86" transform="translate(0.333332, 0.666664)">
                                            <g id="g84-Clipped" transform="translate(0.000000, 0.000000)">
                                                <g transform="translate(0.000000, 0.000000)" id="g84">
                                                    <g transform="translate(0.000000, 0.000000)">
                                                        <g id="g82" transform="translate(0.000000, 0.666667)">
                                                            <g id="Group" transform="translate(0.776400, 0.911733)">
                                                                <path d="M13.333333,33.3333325 C13.333333,36.7573324 10.6839997,39.5346657 7.32933315,39.8013323 C10.6839997,40.0693323 13.333333,42.8466656 13.333333,46.2706655 C13.333333,49.8719988 10.4133331,52.7906653 6.81199983,52.7906653 C3.21199992,52.7906653 0.291999993,49.8719988 0.291999993,46.2706655 C0.291999993,42.8466656 2.93999993,40.0693323 6.29599984,39.8013323 C2.93999993,39.5346657 0.291999993,36.7573324 0.291999993,33.3333325 C0.291999993,29.9093326 2.93999993,27.1319993 6.29599984,26.8639993 C2.93999993,26.5973327 0.291999993,23.8199994 0.291999993,20.3959995 C0.291999993,16.9359996 2.99466659,14.1346663 6.39999984,13.917333 C2.99466659,13.6999997 0.291999993,10.8973331 0.291999993,7.43866648 C0.291999993,3.83733324 3.21199992,0.91733331 6.81199983,0.91733331 C10.4133331,0.91733331 13.333333,3.83733324 13.333333,7.43866648 C13.333333,10.8973331 10.6306664,13.6999997 7.22533315,13.917333 C10.6306664,14.1346663 13.333333,16.9359996 13.333333,20.3959995 C13.333333,23.8199994 10.6839997,26.5973327 7.32933315,26.8639993 C10.6839997,27.1319993 13.333333,29.9093326 13.333333,33.3333325" id="path80"></path>
                                                            </g>
                                                        </g>
                                                    </g>
                                                </g>
                                            </g>
                                        </g>
                                    </g>
                                    <g id="g88" transform="translate(20.000000, 5.000000)" fill="#29ABE2" sketch:type="MSShapeGroup">
                                        <g id="g114" transform="translate(-0.000002, 0.333331)">
                                            <g id="g112-Clipped" transform="translate(0.000000, 0.000000)">
                                                <g transform="translate(0.000000, 0.000000)" id="g112">
                                                    <g>
                                                        <g id="g98" transform="translate(0.218533, 36.172132)">
                                                            <path d="M0,5.3333332 C0,2.6586666 2.16933328,0.489333321 4.84399988,0.489333321 C7.51866648,0.489333321 9.68799976,2.6586666 9.68799976,5.3333332 C9.68799976,8.0079998 7.51866648,10.1773331 4.84399988,10.1773331 C2.16933328,10.1773331 0,8.0079998 0,5.3333332" id="path96"></path>
                                                        </g>
                                                        <g id="g102" transform="translate(0.218533, 24.248533)">
                                                            <path d="M0,5.3333332 C0,2.6586666 2.16933328,0.489333321 4.84399988,0.489333321 C7.51866648,0.489333321 9.68799976,2.6586666 9.68799976,5.3333332 C9.68799976,8.0079998 7.51866648,10.1773331 4.84399988,10.1773331 C2.16933328,10.1773331 0,8.0079998 0,5.3333332" id="path100"></path>
                                                        </g>
                                                        <g id="g106" transform="translate(0.218533, 12.325066)">
                                                            <path d="M0,5.3333332 C0,2.6586666 2.16933328,0.489333321 4.84399988,0.489333321 C7.51866648,0.489333321 9.68799976,2.6586666 9.68799976,5.3333332 C9.68799976,8.0079998 7.51866648,10.1773331 4.84399988,10.1773331 C2.16933328,10.1773331 0,8.0079998 0,5.3333332" id="path104"></path>
                                                        </g>
                                                        <g id="g110" transform="translate(0.218533, 0.401467)">
                                                            <path d="M0,5.3333332 C0,2.6586666 2.16933328,0.489333321 4.84399988,0.489333321 C7.51866648,0.489333321 9.68799976,2.6586666 9.68799976,5.3333332 C9.68799976,8.0079998 7.51866648,10.1773331 4.84399988,10.1773331 C2.16933328,10.1773331 0,8.0079998 0,5.3333332" id="path108"></path>
                                                        </g>
                                                    </g>
                                                </g>
                                            </g>
                                        </g>
                                    </g>
                                    <g id="g116" transform="translate(33.000000, 41.000000)">
                                        <g id="g130" transform="translate(0.666664, 0.333330)">
                                            <g id="g128-Clipped">
                                                <g>
                                                    <mask id="mask-2" sketch:name="path-5" fill="white">
                                                        <use xlink:href="#path-1"></use>
                                                    </mask>
                                                    <g id="path-5"></g>
                                                    <g id="g128" mask="url(#mask-2)">
                                                        <g transform="translate(0.000000, -1.000000)" id="g126">
                                                            <g transform="translate(0.000000, 0.666667)">
                                                                <g id="Group" transform="translate(0.897333, 0.162000)" fill="#29ABE2" sketch:type="MSShapeGroup">
                                                                    <path d="M0,3.9999999 C0,2.04533328 1.58533329,0.459999989 3.53999991,0.459999989 C5.49466653,0.459999989 7.07999982,2.04533328 7.07999982,3.9999999 C7.07999982,5.95466652 5.49466653,7.53999981 3.53999991,7.53999981 C1.58533329,7.53999981 0,5.95466652 0,3.9999999" id="path124"></path>
                                                                </g>
                                                            </g>
                                                        </g>
                                                    </g>
                                                </g>
                                            </g>
                                        </g>
                                    </g>
                                    <g id="g132" transform="translate(33.000000, 30.000000)">
                                        <g id="g146" transform="translate(0.666664, 0.666663)">
                                            <g id="g144-Clipped">
                                                <g>
                                                    <mask id="mask-4" sketch:name="path-7" fill="white">
                                                        <use xlink:href="#path-3"></use>
                                                    </mask>
                                                    <g id="path-7"></g>
                                                    <g id="g144" mask="url(#mask-4)">
                                                        <g transform="translate(0.000000, -1.000000)" id="g142">
                                                            <g transform="translate(0.000000, 0.666667)">
                                                                <g id="Group" transform="translate(0.897333, 0.022933)" fill="#29ABE2" sketch:type="MSShapeGroup">
                                                                    <path d="M0,3.9999999 C0,2.04533328 1.58533329,0.459999989 3.53999991,0.459999989 C5.49466653,0.459999989 7.07999982,2.04533328 7.07999982,3.9999999 C7.07999982,5.95466652 5.49466653,7.53999981 3.53999991,7.53999981 C1.58533329,7.53999981 0,5.95466652 0,3.9999999" id="path140"></path>
                                                                </g>
                                                            </g>
                                                        </g>
                                                    </g>
                                                </g>
                                            </g>
                                        </g>
                                    </g>
                                    <g id="g148" transform="translate(33.000000, 20.000000)">
                                        <g id="g162" transform="translate(0.666664, -0.000003)">
                                            <g id="g160-Clipped">
                                                <g>
                                                    <mask id="mask-6" sketch:name="path-9" fill="white">
                                                        <use xlink:href="#path-5"></use>
                                                    </mask>
                                                    <g id="path-9"></g>
                                                    <g id="g160" mask="url(#mask-6)">
                                                        <g transform="translate(0.000000, -2.000000)" id="g158">
                                                            <g transform="translate(0.000000, 0.666667)">
                                                                <g id="Group" transform="translate(0.897333, 0.884000)" fill="#29ABE2" sketch:type="MSShapeGroup">
                                                                    <path d="M0,3.9999999 C0,2.04533328 1.58533329,0.459999989 3.53999991,0.459999989 C5.49466653,0.459999989 7.07999982,2.04533328 7.07999982,3.9999999 C7.07999982,5.95466652 5.49466653,7.53999981 3.53999991,7.53999981 C1.58533329,7.53999981 0,5.95466652 0,3.9999999" id="path156"></path>
                                                                </g>
                                                            </g>
                                                        </g>
                                                    </g>
                                                </g>
                                            </g>
                                        </g>
                                    </g>
                                    <g id="g164" transform="translate(33.000000, 9.000000)">
                                        <g id="g178" transform="translate(0.666664, -0.000003)">
                                            <g id="g176-Clipped">
                                                <g>
                                                    <mask id="mask-8" sketch:name="path-11" fill="white">
                                                        <use xlink:href="#path-7"></use>
                                                    </mask>
                                                    <g id="path-11"></g>
                                                    <g id="g176" mask="url(#mask-8)">
                                                        <g transform="translate(0.000000, -1.000000)" id="g174">
                                                            <g transform="translate(0.897333, 0.744933)">
                                                                <path d="M0,3.9999999 C0,2.04533328 1.58533329,0.459999989 3.53999991,0.459999989 C5.49466653,0.459999989 7.07999982,2.04533328 7.07999982,3.9999999 C7.07999982,5.95466652 5.49466653,7.53999981 3.53999991,7.53999981 C1.58533329,7.53999981 0,5.95466652 0,3.9999999" id="path172" fill="#29ABE2" sketch:type="MSShapeGroup"></path>
                                                            </g>
                                                        </g>
                                                    </g>
                                                </g>
                                            </g>
                                        </g>
                                    </g>
                                    <g id="g180" transform="translate(44.795330, 41.044263)" fill="#29ABE2" sketch:type="MSShapeGroup">
                                        <path d="M0,2.9999999 C0,1.45599994 1.25066664,0.2053333 2.7946666,0.2053333 C4.33733322,0.2053333 5.58933319,1.45599994 5.58933319,2.9999999 C5.58933319,4.54399986 4.33733322,5.7946665 2.7946666,5.7946665 C1.25066664,5.7946665 0,4.54399986 0,2.9999999" id="path182"></path>
                                    </g>
                                    <g id="g184" transform="translate(44.795330, 30.983730)" fill="#29ABE2" sketch:type="MSShapeGroup">
                                        <path d="M0,2.9999999 C0,1.45599994 1.25066664,0.2053333 2.7946666,0.2053333 C4.33733322,0.2053333 5.58933319,1.45599994 5.58933319,2.9999999 C5.58933319,4.54399986 4.33733322,5.7946665 2.7946666,5.7946665 C1.25066664,5.7946665 0,4.54399986 0,2.9999999" id="path186"></path>
                                    </g>
                                    <g id="g188" transform="translate(44.795330, 20.923197)" fill="#29ABE2" sketch:type="MSShapeGroup">
                                        <path d="M0,2.9999999 C0,1.45599994 1.25066664,0.2053333 2.7946666,0.2053333 C4.33733322,0.2053333 5.58933319,1.45599994 5.58933319,2.9999999 C5.58933319,4.54399986 4.33733322,5.7946665 2.7946666,5.7946665 C1.25066664,5.7946665 0,4.54399986 0,2.9999999" id="path190"></path>
                                    </g>
                                    <g id="g192" transform="translate(44.810797, 10.862664)" fill="#29ABE2" sketch:type="MSShapeGroup">
                                        <path d="M0,2.9999999 C0,1.45599994 1.25066664,0.2053333 2.7946666,0.2053333 C4.33733322,0.2053333 5.58933319,1.45599994 5.58933319,2.9999999 C5.58933319,4.54399986 4.33733322,5.7946665 2.7946666,5.7946665 C1.25066664,5.7946665 0,4.54399986 0,2.9999999" id="path194"></path>
                                    </g>
                                </g>
                            </g>
                        </g>
                    </g>
                </g>
            </g>
        </g>
    </g>
</svg>