<?xml version="1.0" encoding="UTF-8" standalone="no"?>
<svg width="503px" height="58px" viewBox="0 0 503 58" version="1.1" xmlns="http://www.w3.org/2000/svg" xmlns:xlink="http://www.w3.org/1999/xlink" xmlns:sketch="http://www.bohemiancoding.com/sketch/ns">
    <!-- Generator: Sketch 3.4.2 (15855) - http://www.bohemiancoding.com/sketch -->
    <title>Untitled</title>
    <desc>Created with Sketch.</desc>
    <defs>
        <path id="path-1" d="M1.06839997,52.369332 L14.109733,52.369332 L14.109733,0.495733321 L1.06839997,0.495733321 L1.06839997,52.369332 Z"></path>
        <path id="path-3" d="M1.2185333,46.3493322 L10.9063997,46.3493322 L10.9063997,0.890933311 L1.2185333,0.890933311 L1.2185333,46.3493322 Z"></path>
        <path id="path-5" d="M0.897333311,7.36799982 L7.97693313,7.36799982 L7.97693313,0.289333326 L0.897333311,0.289333326 L0.897333311,7.36799982 Z"></path>
        <path id="path-7" d="M0.897333311,7.22933315 L7.97693313,7.22933315 L7.97693313,0.14933333 L0.897333311,0.14933333 L0.897333311,7.22933315 Z"></path>
        <path id="path-9" d="M0.897333311,7.09066649 L7.97693313,7.09066649 L7.97693313,0.0107999997 L0.897333311,0.0107999997 L0.897333311,7.09066649 Z"></path>
        <path id="path-11" d="M0.897333311,8.28466646 L7.97693313,8.28466646 L7.97693313,1.20506664 L0.897333311,1.20506664 L0.897333311,8.28466646 Z"></path>
    </defs>
    <g id="Page-1" stroke="none" stroke-width="1" fill="none" fill-rule="evenodd" sketch:type="MSPage">
        <g id="RD-logo-Master" sketch:type="MSLayerGroup" transform="translate(0.000000, 1.000000)">
            <g id="g10" transform="translate(251.500000, 27.666670) scale(1, -1) translate(-251.500000, -27.666670) translate(0.000000, 0.666670)">
                <g id="g12">
                    <g id="g14-Clipped">
                        <g id="g14">
                            <g id="g20" transform="translate(68.358130, 7.980530)" fill="#2A3843" sketch:type="MSShapeGroup">
                                <path d="M21.3333328,19.9999995 C22.5626661,21.0573328 23.1759994,22.7559994 23.1759994,25.0933327 C23.1759994,27.430666 22.5439994,29.0359993 21.2826661,29.9066659 C20.0199995,30.7773326 17.7666662,31.2119992 14.525333,31.2119992 L6.84533316,31.2119992 L6.84533316,18.4133329 L14.3706663,18.4133329 C17.7839996,18.4133329 20.1039995,18.9426662 21.3333328,19.9999995 M29.3706659,25.0693327 C29.3706659,19.1639995 26.7933327,15.4439996 21.6399995,13.909333 L31.0093326,0.905333311 L23.3293328,0.905333311 L14.7799996,12.9359997 L6.84533316,12.9359997 L6.84533316,0.905333311 L0.805333313,0.905333311 L0.805333313,36.6906657 L14.1146663,36.6906657 C19.5759995,36.6906657 23.4826661,35.7679991 25.838666,33.9253325 C28.1933326,32.0826659 29.3706659,29.1306659 29.3706659,25.0693327" id="path22"></path>
                            </g>
                            <g id="g24" transform="translate(104.648396, 8.670530)" fill="#2A3843" sketch:type="MSShapeGroup">
                                <path d="M25.3333327,35.9999991 L25.3333327,30.3173326 L6.23733318,30.3173326 L6.23733318,20.8466661 L23.3866661,20.8466661 L23.3866661,15.4719996 L6.23733318,15.4719996 L6.23733318,5.89733319 L25.946666,5.89733319 L25.946666,0.214666661 L0.195999995,0.214666661 L0.195999995,35.9999991 L25.3333327,35.9999991 Z" id="path26"></path>
                            </g>
                            <g id="g28" transform="translate(132.898395, 7.960930)" fill="#2A3843" sketch:type="MSShapeGroup">
                                <path d="M14.6666663,31.9999992 C12.909333,31.9999992 11.4679997,31.6399992 10.3413331,30.9239992 C9.21466644,30.2066659 8.65199978,29.1239993 8.65199978,27.6733326 C8.65199978,26.222666 9.21466644,25.1133327 10.3413331,24.3466661 C11.4679997,23.5786661 13.8639997,22.7506661 17.5333329,21.8626661 C21.2013328,20.9746661 23.9679994,19.7293328 25.8279994,18.1266662 C27.6879993,16.5213329 28.6173326,14.157333 28.6173326,11.0346664 C28.6173326,7.91333314 27.4399993,5.37866653 25.0839994,3.43333325 C22.7306661,1.48666663 19.6399995,0.514666654 15.8186663,0.514666654 C10.2213331,0.514666654 5.25466654,2.44266661 0.92133331,6.29999984 L4.70933322,10.8573331 C8.32666646,7.71599981 12.0826664,6.14533318 15.9719996,6.14533318 C17.9173329,6.14533318 19.4626662,6.56399984 20.6053328,7.40133315 C21.7493328,8.23733313 22.3199994,9.34666643 22.3199994,10.7279997 C22.3199994,12.1106664 21.7826661,13.185333 20.7079995,13.953333 C19.6333328,14.721333 17.7813329,15.4199996 15.153333,16.0519996 C12.525333,16.6839996 10.5279997,17.2626662 9.16399977,17.7933329 C7.79866647,18.3213329 6.58533317,19.0133329 5.52799986,19.8653328 C3.41333325,21.4706661 2.35599994,23.9266661 2.35599994,27.238666 C2.35599994,30.5479992 3.55866658,33.0999992 5.96399985,34.8919991 C8.36933312,36.6839991 11.3479997,37.5799991 14.897333,37.5799991 C17.1839996,37.5799991 19.4546662,37.2026657 21.7053328,36.4533324 C23.9586661,35.7013324 25.9039994,34.6439991 27.542666,33.2786658 L24.3173327,28.7226659 C23.2586661,29.6786659 21.8253328,30.4639992 20.0173328,31.0786659 C18.2066662,31.6933325 16.4239996,31.9999992 14.6666663,31.9999992" id="path30"></path>
                            </g>
                            <g id="g32" transform="translate(164.923194, 8.222664)" fill="#2A3843" sketch:type="MSShapeGroup">
                                <path d="M27.9999993,27.9999993 C25.5599994,30.5266659 22.5653328,31.7893325 19.0159995,31.7893325 C15.4666663,31.7893325 12.4719997,30.5266659 10.0306664,27.9999993 C7.59066648,25.4733327 6.37066651,22.4119994 6.37066651,18.8106662 C6.37066651,15.209333 7.59066648,12.1466664 10.0306664,9.62266643 C12.4719997,7.09466649 15.4666663,5.83333319 19.0159995,5.83333319 C22.5653328,5.83333319 25.5599994,7.09466649 27.9999993,9.62266643 C30.4399992,12.1466664 31.6613325,15.209333 31.6613325,18.8106662 C31.6613325,22.4119994 30.4399992,25.4733327 27.9999993,27.9999993 M32.4279992,5.60266653 C28.8106659,2.07066661 24.3399994,0.305333326 19.0159995,0.305333326 C13.6919997,0.305333326 9.21999977,2.07066661 5.60266653,5.60266653 C1.98399995,9.13599977 0.175999996,13.537333 0.175999996,18.8106662 C0.175999996,24.0839994 1.98399995,28.486666 5.60266653,32.0199992 C9.21999977,35.5519991 13.6919997,37.3173324 19.0159995,37.3173324 C24.3399994,37.3173324 28.8106659,35.5519991 32.4279992,32.0199992 C36.0453324,28.486666 37.8559991,24.0839994 37.8559991,18.8106662 C37.8559991,13.537333 36.0453324,9.13599977 32.4279992,5.60266653" id="path34"></path>
                            </g>
                            <g id="g36" transform="translate(208.819060, 8.885464)" fill="#2A3843" sketch:type="MSShapeGroup">
                                <path d="M0,0 L0,35.7853324 L6.03999985,35.7853324 L6.03999985,5.73466652 L22.3706661,5.73466652 L22.3706661,0 L0,0 Z" id="path38"></path>
                            </g>
                            <g id="g40" transform="translate(228.134126, 8.885464)" fill="#2A3843" sketch:type="MSShapeGroup">
                                <path d="M21.3333328,0 L14.5759996,0 L0.190666662,35.7853324 L6.94799983,35.7853324 L17.9546662,9.06133311 L28.9613326,35.7853324 L35.7186658,35.7853324 L21.3333328,0 Z" id="path42"></path>
                            </g>
                            <g id="g44" transform="translate(267.188791, 8.670530)" fill="#2A3843" sketch:type="MSShapeGroup">
                                <path d="M25.3333327,35.9999991 L25.3333327,30.3173326 L6.23733318,30.3173326 L6.23733318,20.8466661 L23.3866661,20.8466661 L23.3866661,15.4719996 L6.23733318,15.4719996 L6.23733318,5.89733319 L25.946666,5.89733319 L25.946666,0.214666661 L0.195999995,0.214666661 L0.195999995,35.9999991 L25.3333327,35.9999991 Z" id="path46"></path>
                            </g>
                            <g id="g48" transform="translate(311.212257, 8.136664)" fill="#2A3843" sketch:type="MSShapeGroup">
                                <path d="M26.666666,18.6666662 C26.666666,26.858666 21.9733328,30.9533326 12.5879997,30.9533326 L6.5466665,30.9533326 L6.5466665,6.43066651 L13.253333,6.43066651 C17.5866662,6.43066651 20.9079995,7.46399981 23.2106661,9.52799976 C25.514666,11.5919997 26.666666,14.6386663 26.666666,18.6666662 M27.5879993,31.8493325 C31.0346659,28.7266659 32.7586658,24.3826661 32.7586658,18.8199995 C32.7586658,13.2559997 31.0853326,8.85466645 27.742666,5.61199986 C24.3959994,2.36933327 19.2773329,0.749333315 12.3826664,0.749333315 L0.506666654,0.749333315 L0.506666654,36.5333324 L12.793333,36.5333324 C19.2079995,36.5333324 24.1399994,34.9719991 27.5879993,31.8493325" id="path50"></path>
                            </g>
                            <path d="M350.165323,44.6706628 L356.205323,44.6706628 L356.205323,8.88533036 L350.165323,8.88533036 L350.165323,44.6706628 Z" id="path52" fill="#2A3843" sketch:type="MSShapeGroup"></path>
                            <g id="g54" transform="translate(361.328122, 7.625064)" fill="#2A3843" sketch:type="MSShapeGroup">
                                <path d="M27.9999993,18.6666662 L34.0413325,18.6666662 L34.0413325,6.43066651 C30.6626659,2.7106666 25.8319994,0.850666645 19.5533328,0.850666645 C14.2626663,0.850666645 9.83466642,2.5906666 6.26799984,6.07333318 C2.70133327,9.55333309 0.91733331,13.957333 0.91733331,19.2813329 C0.91733331,24.6053327 2.73599993,29.0413326 6.37066651,32.5906659 C10.0053331,36.1399991 14.3999996,37.9159991 19.5533328,37.9159991 C24.7053327,37.9159991 28.9893326,36.4133324 32.4039992,33.4106658 L29.1786659,28.8039993 C27.778666,29.9973326 26.3693327,30.8253326 24.954666,31.2866659 C23.5373327,31.7466659 21.8906661,31.9759992 20.0146662,31.9759992 C16.3959996,31.9759992 13.3599997,30.8066659 10.9013331,28.470666 C8.44399979,26.1319993 7.21599982,23.0599994 7.21599982,19.2546662 C7.21599982,15.4493329 8.41066646,12.3946664 10.7999997,10.0906664 C13.1879997,7.78799981 16.0813329,6.63599983 19.4759995,6.63599983 C22.8719994,6.63599983 25.7133327,7.36933315 27.9999993,8.83733311 L27.9999993,18.6666662 Z" id="path56"></path>
                            </g>
                            <path d="M401.717321,44.6706628 L407.757321,44.6706628 L407.757321,8.88533036 L401.717321,8.88533036 L401.717321,44.6706628 Z" id="path58" fill="#2A3843" sketch:type="MSShapeGroup"></path>
                            <g id="g60" transform="translate(412.285188, 8.473997)" fill="#2A3843" sketch:type="MSShapeGroup">
                                <path d="M17.3333329,30.6666659 L17.3333329,0.41199999 L11.2919997,0.41199999 L11.2919997,30.6666659 L0.438666656,30.6666659 L0.438666656,36.1959991 L28.186666,36.1959991 L28.186666,30.6666659 L17.3333329,30.6666659 Z" id="path62"></path>
                            </g>
                            <g id="g64" transform="translate(436.483054, 7.938797)" fill="#2A3843" sketch:type="MSShapeGroup">
                                <path d="M26.666666,14.6666663 L20.1653328,29.4106659 L13.6626663,14.6666663 L26.666666,14.6666663 Z M11.2053331,9.08533311 L7.62266648,0.946666643 L1.17199997,0.946666643 L16.9399996,36.7319991 L23.3906661,36.7319991 L39.1573324,0.946666643 L32.7066658,0.946666643 L29.1239993,9.08533311 L11.2053331,9.08533311 Z" id="path66"></path>
                            </g>
                            <g id="g68" transform="translate(479.019453, 8.885464)" fill="#2A3843" sketch:type="MSShapeGroup">
                                <path d="M0,0 L0,35.7853324 L6.03999985,35.7853324 L6.03999985,5.73466652 L22.3706661,5.73466652 L22.3706661,0 L0,0 Z" id="path70"></path>
                            </g>
                            <g id="g72">
                                <g id="g86" transform="translate(0.333332, 0.666664)">
                                    <g id="g84-Clipped">
                                        <mask id="mask-2" sketch:name="path76" fill="white">
                                            <use xlink:href="#path-1"></use>
                                        </mask>
                                        <g id="path76"></g>
                                        <g id="g84" mask="url(#mask-2)">
                                            <g transform="translate(0.000000, -1.333333)" id="g82">
                                                <g transform="translate(0.776400, 0.911733)">
                                                    <path d="M13.333333,33.3333325 C13.333333,36.7573324 10.6839997,39.5346657 7.32933315,39.8013323 C10.6839997,40.0693323 13.333333,42.8466656 13.333333,46.2706655 C13.333333,49.8719988 10.4133331,52.7906653 6.81199983,52.7906653 C3.21199992,52.7906653 0.291999993,49.8719988 0.291999993,46.2706655 C0.291999993,42.8466656 2.93999993,40.0693323 6.29599984,39.8013323 C2.93999993,39.5346657 0.291999993,36.7573324 0.291999993,33.3333325 C0.291999993,29.9093326 2.93999993,27.1319993 6.29599984,26.8639993 C2.93999993,26.5973327 0.291999993,23.8199994 0.291999993,20.3959995 C0.291999993,16.9359996 2.99466659,14.1346663 6.39999984,13.917333 C2.99466659,13.6999997 0.291999993,10.8973331 0.291999993,7.43866648 C0.291999993,3.83733324 3.21199992,0.91733331 6.81199983,0.91733331 C10.4133331,0.91733331 13.333333,3.83733324 13.333333,7.43866648 C13.333333,10.8973331 10.6306664,13.6999997 7.22533315,13.917333 C10.6306664,14.1346663 13.333333,16.9359996 13.333333,20.3959995 C13.333333,23.8199994 10.6839997,26.5973327 7.32933315,26.8639993 C10.6839997,27.1319993 13.333333,29.9093326 13.333333,33.3333325" id="path80" fill="#29ABE2" sketch:type="MSShapeGroup"></path>
                                                </g>
                                            </g>
                                        </g>
                                    </g>
                                </g>
                            </g>
                            <g id="g88" transform="translate(19.000000, 3.000000)">
                                <g id="g114" transform="translate(-0.000002, 0.333331)">
                                    <g id="g112-Clipped">
                                        <mask id="mask-4" sketch:name="path92" fill="white">
                                            <use xlink:href="#path-3"></use>
                                        </mask>
                                        <g id="path92"></g>
                                        <g id="g112" mask="url(#mask-4)" fill="#29ABE2" sketch:type="MSShapeGroup">
                                            <g id="g98" transform="translate(1.218533, 36.172132)">
                                                <path d="M0,5.3333332 C0,2.6586666 2.16933328,0.489333321 4.84399988,0.489333321 C7.51866648,0.489333321 9.68799976,2.6586666 9.68799976,5.3333332 C9.68799976,8.0079998 7.51866648,10.1773331 4.84399988,10.1773331 C2.16933328,10.1773331 0,8.0079998 0,5.3333332" id="path96"></path>
                                            </g>
                                            <g id="g102" transform="translate(1.218533, 24.248533)">
                                                <path d="M0,5.3333332 C0,2.6586666 2.16933328,0.489333321 4.84399988,0.489333321 C7.51866648,0.489333321 9.68799976,2.6586666 9.68799976,5.3333332 C9.68799976,8.0079998 7.51866648,10.1773331 4.84399988,10.1773331 C2.16933328,10.1773331 0,8.0079998 0,5.3333332" id="path100"></path>
                                            </g>
                                            <g id="g106" transform="translate(1.218533, 12.325066)">
                                                <path d="M0,5.3333332 C0,2.6586666 2.16933328,0.489333321 4.84399988,0.489333321 C7.51866648,0.489333321 9.68799976,2.6586666 9.68799976,5.3333332 C9.68799976,8.0079998 7.51866648,10.1773331 4.84399988,10.1773331 C2.16933328,10.1773331 0,8.0079998 0,5.3333332" id="path104"></path>
                                            </g>
                                            <g id="g110" transform="translate(1.218533, 0.401467)">
                                                <path d="M0,5.3333332 C0,2.6586666 2.16933328,0.489333321 4.84399988,0.489333321 C7.51866648,0.489333321 9.68799976,2.6586666 9.68799976,5.3333332 C9.68799976,8.0079998 7.51866648,10.1773331 4.84399988,10.1773331 C2.16933328,10.1773331 0,8.0079998 0,5.3333332" id="path108"></path>
                                            </g>
                                        </g>
                                    </g>
                                </g>
                            </g>
                            <g id="g116" transform="translate(33.000000, 39.000000)">
                                <g id="g130" transform="translate(0.666664, 0.333330)">
                                    <g id="g128-Clipped">
                                        <mask id="mask-6" sketch:name="path120" fill="white">
                                            <use xlink:href="#path-5"></use>
                                        </mask>
                                        <g id="path120"></g>
                                        <g id="g128" mask="url(#mask-6)">
                                            <g transform="translate(0.000000, -1.333333)" id="g126">
                                                <g transform="translate(0.897333, 1.162000)">
                                                    <path d="M0,3.9999999 C0,2.04533328 1.58533329,0.459999989 3.53999991,0.459999989 C5.49466653,0.459999989 7.07999982,2.04533328 7.07999982,3.9999999 C7.07999982,5.95466652 5.49466653,7.53999981 3.53999991,7.53999981 C1.58533329,7.53999981 0,5.95466652 0,3.9999999" id="path124" fill="#29ABE2" sketch:type="MSShapeGroup"></path>
                                                </g>
                                            </g>
                                        </g>
                                    </g>
                                </g>
                            </g>
                            <g id="g132" transform="translate(33.000000, 28.000000)">
                                <g id="g146" transform="translate(0.666664, 0.666663)">
                                    <g id="g144-Clipped">
                                        <mask id="mask-8" sketch:name="path136" fill="white">
                                            <use xlink:href="#path-7"></use>
                                        </mask>
                                        <g id="path136"></g>
                                        <g id="g144" mask="url(#mask-8)">
                                            <g transform="translate(0.000000, -1.333333)" id="g142">
                                                <g transform="translate(0.897333, 1.022933)">
                                                    <path d="M0,3.9999999 C0,2.04533328 1.58533329,0.459999989 3.53999991,0.459999989 C5.49466653,0.459999989 7.07999982,2.04533328 7.07999982,3.9999999 C7.07999982,5.95466652 5.49466653,7.53999981 3.53999991,7.53999981 C1.58533329,7.53999981 0,5.95466652 0,3.9999999" id="path140" fill="#29ABE2" sketch:type="MSShapeGroup"></path>
                                                </g>
                                            </g>
                                        </g>
                                    </g>
                                </g>
                            </g>
                            <g id="g148" transform="translate(33.000000, 18.000000)">
                                <g id="g162" transform="translate(0.666664, -0.000003)">
                                    <g id="g160-Clipped">
                                        <mask id="mask-10" sketch:name="path152" fill="white">
                                            <use xlink:href="#path-9"></use>
                                        </mask>
                                        <g id="path152"></g>
                                        <g id="g160" mask="url(#mask-10)">
                                            <g transform="translate(0.000000, -1.333333)" id="g158">
                                                <g transform="translate(0.897333, 0.884000)">
                                                    <path d="M0,3.9999999 C0,2.04533328 1.58533329,0.459999989 3.53999991,0.459999989 C5.49466653,0.459999989 7.07999982,2.04533328 7.07999982,3.9999999 C7.07999982,5.95466652 5.49466653,7.53999981 3.53999991,7.53999981 C1.58533329,7.53999981 0,5.95466652 0,3.9999999" id="path156" fill="#29ABE2" sketch:type="MSShapeGroup"></path>
                                                </g>
                                            </g>
                                        </g>
                                    </g>
                                </g>
                            </g>
                            <g id="g164" transform="translate(33.000000, 6.000000)">
                                <g id="g178" transform="translate(0.666664, -0.000003)">
                                    <g id="g176-Clipped">
                                        <mask id="mask-12" sketch:name="path168" fill="white">
                                            <use xlink:href="#path-11"></use>
                                        </mask>
                                        <g id="path168"></g>
                                        <g id="g176" mask="url(#mask-12)" fill="#29ABE2" sketch:type="MSShapeGroup">
                                            <g id="g174" transform="translate(0.897333, 0.744933)">
                                                <path d="M0,3.9999999 C0,2.04533328 1.58533329,0.459999989 3.53999991,0.459999989 C5.49466653,0.459999989 7.07999982,2.04533328 7.07999982,3.9999999 C7.07999982,5.95466652 5.49466653,7.53999981 3.53999991,7.53999981 C1.58533329,7.53999981 0,5.95466652 0,3.9999999" id="path172"></path>
                                            </g>
                                        </g>
                                    </g>
                                </g>
                            </g>
                            <g id="g180" transform="translate(44.795330, 38.044263)" fill="#29ABE2" sketch:type="MSShapeGroup">
                                <path d="M0,3.9999999 C0,2.45599994 1.25066664,1.2053333 2.7946666,1.2053333 C4.33733322,1.2053333 5.58933319,2.45599994 5.58933319,3.9999999 C5.58933319,5.54399986 4.33733322,6.7946665 2.7946666,6.7946665 C1.25066664,6.7946665 0,5.54399986 0,3.9999999" id="path182"></path>
                            </g>
                            <g id="g184" transform="translate(44.795330, 27.983730)" fill="#29ABE2" sketch:type="MSShapeGroup">
                                <path d="M0,3.9999999 C0,2.45599994 1.25066664,1.2053333 2.7946666,1.2053333 C4.33733322,1.2053333 5.58933319,2.45599994 5.58933319,3.9999999 C5.58933319,5.54399986 4.33733322,6.7946665 2.7946666,6.7946665 C1.25066664,6.7946665 0,5.54399986 0,3.9999999" id="path186"></path>
                            </g>
                            <g id="g188" transform="translate(44.795330, 17.923197)" fill="#29ABE2" sketch:type="MSShapeGroup">
                                <path d="M0,3.9999999 C0,2.45599994 1.25066664,1.2053333 2.7946666,1.2053333 C4.33733322,1.2053333 5.58933319,2.45599994 5.58933319,3.9999999 C5.58933319,5.54399986 4.33733322,6.7946665 2.7946666,6.7946665 C1.25066664,6.7946665 0,5.54399986 0,3.9999999" id="path190"></path>
                            </g>
                            <g id="g192" transform="translate(44.810797, 7.862664)" fill="#29ABE2" sketch:type="MSShapeGroup">
                                <path d="M0,3.9999999 C0,2.45599994 1.25066664,1.2053333 2.7946666,1.2053333 C4.33733322,1.2053333 5.58933319,2.45599994 5.58933319,3.9999999 C5.58933319,5.54399986 4.33733322,6.7946665 2.7946666,6.7946665 C1.25066664,6.7946665 0,5.54399986 0,3.9999999" id="path194"></path>
                            </g>
                        </g>
                    </g>
                </g>
            </g>
        </g>
    </g>
</svg>