<?xml version="1.0" encoding="UTF-8" standalone="no"?>
<svg width="553px" height="455px" viewBox="0 0 553 455" version="1.1" xmlns="http://www.w3.org/2000/svg" xmlns:xlink="http://www.w3.org/1999/xlink">
    <!-- Generator: Sketch 3.6 (26304) - http://www.bohemiancoding.com/sketch -->
    <title>Slice 1</title>
    <desc>Created with Sketch.</desc>
    <defs></defs>
    <g id="Page-1" stroke="none" stroke-width="1" fill="none" fill-rule="evenodd">
        <g id="seo-cutting-through-bullshit">
            <g id="Group">
                <path d="M391.5,412 C409.8,407.4 429.7,400.3 438.3,383.3 C447.1,365.7 440.8,343.4 448,325 C454.6,308.1 471,298 485.7,287.8 C500.4,277.6 515.5,264 516.6,245.8 C518.2,220.8 492.9,200.9 491.5,175.8 C490.5,159.2 500.2,144.2 504.9,128.3 C511.8,105 504.4,74.6 482,65.9 C474.6,63 466.3,62.8 459.5,58.5 C444.6,49.1 445.1,26.2 433.4,12.8 C422.6,0.4 404.3,-0.9 388.2,0.6 C378.6,1.5 368.9,3.1 360.4,7.6 C344.3,16 318.1,39.1 302.2,47.9 C262.7,69.7 224.1,23.9 186.6,49.1 C163.8,64.5 160.2,105.8 137.3,121.2 C116.9,135 84.6,123.5 68.4,142.2 C59.6,152.4 57.4,167 57.9,180.7 C58.4,194.4 61,208 60.4,221.7 C59.3,246.3 43.1,267.6 42.7,291.3 C42.3,313.6 53.5,336.2 75.3,343.7 C82.4,346.1 90.2,346.9 96.7,350.7 C109.7,358.5 113.3,375.6 116.7,390.6 C120.1,405.6 127.1,422.7 141.7,426.1 C148.4,427.7 155.4,425.8 162,424 C170.3,421.7 178.7,419.5 187,417.2 C192.1,415.8 197.4,414.4 202.6,415.4 C221.5,418.9 225.9,448.9 244.6,453.9 C250.2,455.4 256,454.2 261.7,453 C289.2,447.2 300.7,428.4 324,412.8 C332.7,407 337.4,407 347.3,407.1 C359.3,407.4 380,414.9 391.5,412 L391.5,412 Z" id="Shape" fill="#F47C46"></path>
                <path d="M127.9,251.9 L123.5,248.9 C113.4,250.6 102.2,252.8 92.6,255.8 C86.4,257.8 81.7,260.6 75.3,262.4 C66.5,264.8 39.8,267.9 30.9,269.7 C18.2,272.3 28.1,270.4 15.6,274.1 C13.3,274.8 6.1,279.9 4.3,283.4 C2.9,286 1.5,287.1 1.2,290 C0.5,296.6 1.8,300.9 6.9,305.1 C9.4,307.1 15.5,309.7 18.6,310.1 C25.2,311.1 25,311 31.3,308.9 C46.7,303.7 58.6,288.4 75.1,286.3 C85.1,285 97.7,291.7 107.6,293.7 C112,294.6 116.8,294.9 120.5,292.4 C125.4,289 127.8,287.3 127.9,281.4 C127.9,278.1 126.7,274.3 126.8,270.3 C126.9,263.8 128.2,257.1 127.9,251.9 L127.9,251.9 Z" id="Shape" fill="#34A8DF"></path>
                <path d="M32.4,287.4 C37.7,286.5 43.1,287.1 47.3,283.2 C43.5,281.2 35.8,283.2 32.4,287.4 L32.4,287.4 Z" id="Shape"></path>
                <path d="M123.9,284.9 C120.7,283.4 117.4,283 114,284.2 C111.8,285 109.4,285.8 107.1,285.9 C104.9,286 102.3,286.7 101.2,288.5 C100.9,289.1 100.4,289.6 99.6,290.7 L107.4,290.7 C106.8,291.2 106.5,291.6 106,292 C110.7,294.1 120.7,292.4 123,289.4 C123,289.1 122.9,288.9 122.9,288.6 C120.1,288.9 117.2,289.3 114.4,289.6 L113.2,289.6 C113.3,289.2 113.4,288.5 113.7,288.4 C114.7,287.9 115.7,287.4 116.7,287.4 C119.5,287.3 122.3,287.4 125.8,287.4 C124.8,286.1 124.5,285.2 123.9,284.9 L123.9,284.9 Z" id="Shape"></path>
                <path d="M20.9,274.7 C22.3,273.7 23.8,272.7 25.7,273.4 C30,275.1 35.3,272.9 38.8,269.2 C31.9,269.5 19.5,272.6 13.9,275.6 C11.6,276.8 9.2,278.1 7.7,281.2 C9.9,280.8 11.8,280.9 13.2,280.1 C16,278.6 18.3,276.5 20.9,274.7 L20.9,274.7 Z" id="Shape"></path>
                <path d="M112.8,252.3 C109.5,253.1 106.1,253.9 102.8,254.6 C99.1,255.4 95.4,256 91.8,256.8 C90.9,257 90.2,257.7 88.9,258.4 C97.6,261.2 105.7,257.4 112.8,252.3 L112.8,252.3 Z" id="Shape"></path>
                <path d="M61.9,268.1 C64.1,267.6 66.1,266.3 68.2,265.3 C68.1,265.1 68,264.9 68,264.7 C62.6,265.6 57.2,266.4 51.5,267.3 C54.6,269.3 55.8,269.5 61.9,268.1 L61.9,268.1 Z" id="Shape"></path>
                <path d="M78.3,272.8 C78.4,273.1 78.4,273.3 78.6,273.5 C78.8,273.7 79.1,273.9 79.3,274 C84.6,275.3 89.8,276.5 95,273.6 C97,272.5 99.1,271.8 101.3,270.9 C93.3,269 85.6,269.1 78.3,272.8 L78.3,272.8 Z M91.5,273.1 C89.3,273.1 87,272.9 84.5,272.8 C84.5,272.4 84.6,271.8 84.7,271.1 C87.4,271.2 90,271.4 93.2,271.6 C92.4,272.4 91.9,273.1 91.5,273.1 L91.5,273.1 Z" id="Shape"></path>
                <path d="M120.9,272.3 C118.9,273.1 116.7,273.5 114.6,274.1 C113.5,274.4 112.4,274.8 111.3,275.2 C108.7,276.2 106.3,277.5 103.6,278.3 C102.6,278.6 100.9,279.5 99.8,277.7 C102,277.2 104,276.8 105.9,276.3 C107.8,275.8 109.3,275.1 110.4,273.2 C111,272.2 113.4,272.3 115,272 C116.3,271.8 117.7,271.8 119,271.5 C121,271 123,270.2 125.3,269.5 C125.7,267.6 124.8,266.4 122.6,266.2 C120.5,266 118.4,266 116.3,266.1 C114.2,266.1 112,266.3 109.9,266.4 L109.9,265.4 C115,265 120,262.8 125.2,264.9 C125.4,261.5 125.6,258.4 125.8,255.1 C124.4,255.3 123.4,255.4 122.3,255.6 C122.2,255.4 122.1,255.3 122,255.1 C123.4,254.2 124.7,253.4 126.1,252.5 C126,252.3 125.9,252 125.8,251.8 C125.3,251.8 124.8,251.8 124.2,251.9 C122.2,252.2 120.1,252.5 118.1,252.9 C116.9,253.1 115.7,253.5 114.6,254 C109.9,256.1 105.3,258.5 100.5,260.4 C98.5,261.2 96,261 93.7,261 C91.8,261 89.7,261.2 88.2,260.4 C86.7,259.6 85.8,260.1 84.6,260.5 C81,261.8 77.3,263 73.9,264.9 C70.5,266.8 66.6,268 62.8,269.3 C58.8,270.7 54.9,271.6 50.8,269.3 C46.5,266.8 42.5,268.3 38.9,271.3 C35.4,274.2 31.1,276.2 26.8,275.3 C23.7,274.7 22.1,275.6 20,277.2 C16.3,279.9 12.6,283.3 7.3,282 C6.9,281.9 6.3,282.4 5.9,282.7 C4.7,284.2 3.6,285.8 2.1,287.7 C3.2,287.3 3.9,287 4.6,286.9 C9.4,285.8 14.2,284.7 18,281.3 C18.6,280.8 19.4,280.6 20.2,280.4 C20.5,280.3 21,280.7 21.3,280.8 C15.5,285.3 9,287.6 2.3,288.5 C0.8,290.9 2.4,291.6 4.3,292.1 C3.3,292.4 2.7,292.6 1.9,292.9 C1.9,293.9 2,294.8 2.1,296.1 C3.9,295.6 5.4,295.1 7,294.8 C8.7,294.5 10.4,294.4 12,294.2 C13.8,293.9 13.8,293.9 14.5,295.1 C12.6,295.5 10.6,295.9 8.6,296.4 C6.6,296.8 4.6,297.3 2.5,297.8 C3.4,299.4 4,300.5 4.5,301.5 C6.1,301.3 7.5,301 9,300.8 C9,301 9.1,301.1 9.1,301.3 C7.9,301.9 6.7,302.4 5.5,303 C5.5,303.2 5.6,303.5 5.6,303.7 C6.6,304.1 7.6,304.8 8.5,304.7 C10.4,304.5 12.2,303.9 14,303.5 C14.6,303.4 15.3,303.6 15.9,303.7 L15.9,304.4 C13.7,304.8 11.4,305.3 8.5,305.9 C11.6,307.5 13.8,309.5 17.1,308.4 C18.2,308.1 19.6,307.7 20.5,308.1 C24.5,309.7 28.2,309 31.9,307.5 C34.5,306.5 37,305.2 39.5,304 C39.4,303.8 39.3,303.6 39.2,303.3 C38.4,303.6 37.7,303.9 36.9,304.1 C35.4,304.6 33.9,305.4 32.3,305.4 C28.7,305.6 25,305.4 21.4,305.3 C21,305.3 20.7,304.9 20.3,304.7 L20.3,304.1 C22.1,303.9 24,303.3 25.7,303.5 C29.7,304 33.6,304.7 37.3,302.2 C38,301.7 39.1,301.9 40,301.8 C41.2,301.7 42.4,301.8 43.4,301.3 C45,300.5 46.5,299.4 48,298.3 C48.4,298 49.2,297.6 49.1,297.3 C49,294.4 51.8,294.1 53.1,293.9 C56.1,293.5 57.5,291.3 59.4,289.5 C57.5,289.9 55.5,290.3 53.6,290.7 C53.7,290 53.9,289.7 54.2,289.6 C57.9,288.8 61.7,287.9 65.5,287.1 C67.2,286.7 68.9,286.4 70.6,286.1 C73,285.6 75.5,284.5 77.9,284.7 C82.5,285.1 87.1,286 91.7,287 C93.9,287.5 95.9,288.5 98,289.3 C98.7,287.2 103.4,283.7 105.6,283.8 C105.7,283.8 105.9,283.8 106,283.9 C108,285.2 109.8,284.1 111.6,283.3 C114.3,282.1 117,281.6 119.9,282.4 C121.9,282.9 123.9,283.3 125.8,283.8 C125.9,280.6 125.2,279.5 121.8,279.1 C119.3,278.8 116.8,278.6 114.3,278.7 C111.9,278.7 109.6,279.3 107.7,281.2 C106.9,282 105.5,282.4 104.4,282.5 C103,282.7 101.6,282.5 100.2,282.5 C94.1,282.4 88.1,282.1 82,282.1 C76.3,282.2 70.7,282.7 65,282.8 C62.2,282.8 60,283.7 57.8,285.3 C56.7,286.1 55.7,286.9 54.6,287.6 C53.2,288.5 50.5,288.8 50,288.4 C53.1,286.5 56.1,284.2 59.4,282.6 C61.6,281.6 64.3,281.4 66.9,281.3 C70.3,281.1 73.8,281.5 77.2,281.3 C79.2,281.2 81.1,280.1 83.1,280.1 C86.7,279.9 90.2,280.2 93.8,280.3 C95.2,280.4 96.7,280.6 98.1,280.7 C99.9,280.9 101.7,281.2 103.5,281.1 C104.5,281.1 105.4,280.3 106.3,279.9 C108.5,279 110.6,277.3 112.9,277.2 C117.1,277 121.4,277.6 125.7,277.8 C125.7,277.3 125.8,276.3 125.7,275.3 C125.9,271.8 124.2,270.9 120.9,272.3 L120.9,272.3 Z M99,262.6 C104.8,263.9 109.2,261 113.5,257.8 C115.9,256 120.9,256.8 122.6,259.5 C121.6,259.4 120.9,259.4 120.2,259.2 C117.7,258.5 115.4,258.5 113.1,260.2 C110,262.5 106.6,264.4 102.5,264.6 C101.3,264.6 100,264.5 98.8,264.3 C98.5,264.2 98.3,263.6 98,263.2 C98.3,263 98.7,262.6 99,262.6 L99,262.6 Z M11.3,292.7 C10.6,292.8 9.9,292.6 9,292 C9.5,291.7 10,291.2 10.6,291.2 C14.3,290.8 17.8,289.8 20.8,287.6 C21.6,287 21.9,285.6 22.8,285.1 C26.2,283 29.1,280 33.3,279.2 C33.8,279.1 34.3,279.1 34.8,279.1 C34.9,279.4 35.1,279.7 35.2,280 C28.7,282 24.7,287.2 19.3,291.1 C23.1,291.9 26.5,293.3 30,293.3 C33.4,293.3 36.9,291.9 40.9,291 C40.4,292 40.3,292.6 40.1,292.6 C37.1,293.3 34,294.1 31,294.5 C29.2,294.7 27.2,294.3 25.4,293.9 C20.8,292.9 16.1,291.9 11.3,292.7 L11.3,292.7 Z M41.4,297.8 C38.7,299 35.8,300 32.9,300.6 C27.9,301.6 22.9,301.5 18,299 C16.5,298.2 14.2,298.8 12.2,298.8 L10.5,298.8 C10.7,298.5 10.8,298.3 10.9,298.3 C14.1,298 17.3,297.1 20.5,298.8 C22.1,299.7 24.2,300.1 26,300 C32.1,299.9 38,298.6 43.1,294.9 C44.4,294 45.9,293.5 47.3,292.8 C47.5,293.1 47.6,293.4 47.8,293.6 C45.7,295 43.7,296.7 41.4,297.8 L41.4,297.8 Z M50.9,282.7 C46.5,286.1 41.6,287.9 36.1,288.3 C34.7,288.4 33.2,288.9 31.8,289 C31.1,289.1 30.4,288.6 29.7,288.4 C30,287.8 30.2,287 30.6,286.6 C34.3,283.4 38.7,281.9 43.4,281 C43.7,280.9 44,280.9 44.3,280.9 C46.9,281.2 49.5,281.5 52.2,281.8 C51.9,282 51.4,282.3 50.9,282.7 L50.9,282.7 Z M49,275.3 C44.9,275.4 41.2,276.2 37.9,278.7 C37.7,278.5 37.6,278.3 37.4,278 C38.2,277.3 39,276.6 39.9,276 C43.3,274.1 47,273.8 50.7,273.8 C57.4,274 63.7,272.8 69.6,269.3 C73,267.3 76.5,265.6 80,263.9 C83.5,262.2 87.3,261.8 91.2,262.6 C91.7,262.7 92.1,263.4 92.6,263.8 C92,264 91.4,264.3 90.8,264.3 C87.9,264.6 85,264.5 82.2,265 C80.2,265.4 78.4,266.4 76.4,267.2 C76.1,267.3 75.5,267.4 75.4,267.6 C74.5,271 71.1,269.9 69,271.2 C66.9,272.6 64.2,273.6 61.7,274 C57.6,274.9 53.3,275.2 49,275.3 L49,275.3 Z M97.2,273.8 C94.6,274.8 92.1,276.4 89.5,276.6 C86.2,276.9 82.9,275.9 79.6,275.7 C77.4,275.6 75.1,275.9 72.9,276.2 C69,276.7 65.2,277.4 61.3,278 C61.2,277.7 61.2,277.3 61.1,277 C61.7,276.8 62.3,276.6 62.9,276.5 C66.9,275.9 71,275.9 74.6,273.8 C76.1,272.9 77.5,272 79.1,271.1 C85.7,267.5 92.8,267.8 99.9,268.9 C102.7,269.3 105.4,269.6 108.1,268.1 C108.5,267.9 109.2,268.3 109.8,268.4 C109.5,268.9 109.2,269.5 108.7,269.7 C104.9,271 101.1,272.3 97.2,273.8 L97.2,273.8 Z" id="Shape"></path>
                <path d="M375.1,324.2 C375.9,323.7 376.2,323 376,322.4 C375.8,321.8 375,321.2 374.3,321.3 C373.2,321.4 372,321.6 370.9,321.8 C370.4,321.9 370.4,322.2 370.4,322.5 C370.6,323.5 370.8,324.5 371.1,325.6 C371.7,325.5 372.3,325.4 372.8,325.2 C373.6,324.9 374.4,324.6 375.1,324.2 L375.1,324.2 Z" id="Shape" fill="#FFFFFF"></path>
                <path d="M476.9,275.1 C477.4,275 477.9,274.9 478.4,274.7 C479,274.5 479.7,274.3 480.3,273.9 C481,273.5 481.2,272.9 481.1,272.3 C481,271.8 480.3,271.3 479.7,271.4 C478.7,271.5 477.8,271.7 476.8,271.8 C476.4,271.9 476.3,272.1 476.4,272.4 C476.5,273.3 476.7,274.2 476.9,275.1 L476.9,275.1 Z" id="Shape" fill="#FFFFFF"></path>
                <path d="M373.7,325.7 C372.9,325.9 372.1,326.2 371.2,326.4 C371.3,327.5 371.4,328.7 371.6,329.8 C371.6,330 371.9,330.2 372.1,330.1 C373,329.9 374,329.6 374.9,329.2 C375.3,329 375.7,328.6 376,328.2 C376.2,328 376.3,327.6 376.2,327.3 C376.1,326.7 374.3,325.5 373.7,325.7 L373.7,325.7 Z" id="Shape" fill="#FFFFFF"></path>
                <path d="M252.2,310.8 C254.9,311.8 257.6,312.9 260.5,313.5 C261.9,313.8 263.6,313.4 265,312.9 C265.8,312.6 266.7,311.7 267.1,310.8 C268,308.6 265.5,302.1 263.6,301.4 C261.2,300.5 258.8,299.7 256.3,298.8 C254.7,302.2 253.1,305.6 251.7,309 C251.4,309.4 251.8,310.6 252.2,310.8 L252.2,310.8 Z" id="Shape" fill="#FFFFFF"></path>
                <path d="M431.6,290.6 C433.2,290.8 434.5,290.1 434.9,289.1 C435.3,288.1 434.8,286.4 433.7,285.7 C432,284.6 430.2,283.7 428.5,282.7 C427.7,282.3 427.3,282.6 427.1,283.2 L424.6,288.2 C425.5,288.6 426.5,289.2 427.4,289.5 C428.8,289.9 430.2,290.4 431.6,290.6 L431.6,290.6 Z" id="Shape" fill="#FFFFFF"></path>
                <path d="M449,294.1 C448.9,294.1 448.9,294 448.8,294 C447.4,295.5 446.1,297 444.6,298.6 C445.4,299 446.1,299.4 447,299.8 C447.7,297.8 448.3,295.9 449,294.1 L449,294.1 Z" id="Shape" fill="#FFFFFF"></path>
                <path d="M383.9,319.6 C383.8,320.7 383.7,321.9 383.7,323.1 C384.2,323 384.6,322.9 385.2,322.8 C384.8,321.7 384.4,320.6 384.1,319.6 L383.9,319.6 L383.9,319.6 Z" id="Shape" fill="#FFFFFF"></path>
                <path d="M348.7,286.6 C347.1,287 345.5,287.5 343.8,288 C344,290.3 344.3,292.5 344.6,294.7 C344.6,295 345.2,295.5 345.5,295.4 C347.3,294.9 349.2,294.5 350.9,293.7 C351.8,293.3 352.5,292.5 353.2,291.7 C353.6,291.2 353.7,290.5 353.7,289.9 C353.5,288.5 350,286.2 348.7,286.6 L348.7,286.6 Z" id="Shape" fill="#FFFFFF"></path>
                <path d="M269.7,299.8 C272.5,300 274.5,298.4 275,296.4 C275.5,294.5 274.5,291.3 272.6,290.2 C269.6,288.4 266.5,286.9 263.4,285.3 C262.1,284.6 261.4,285.4 261.1,286.4 C259.9,289.6 258.8,292.8 257.6,296.2 C259.2,296.9 260.9,297.7 262.6,298.3 C264.9,298.9 267.3,299.6 269.7,299.8 L269.7,299.8 Z" id="Shape" fill="#FFFFFF"></path>
                <path d="M343.7,286.2 C344.8,285.9 346,285.8 347.1,285.4 C348.6,284.9 350.2,284.4 351.5,283.6 C353.1,282.7 353.7,281.2 353.3,280 C353,278.9 351.4,277.7 350,277.9 C347.8,278.1 345.6,278.5 343.4,278.8 C342.4,278.9 342.3,279.5 342.5,280.2 C342.8,282.1 343.2,284.1 343.7,286.2 L343.7,286.2 Z" id="Shape" fill="#FFFFFF"></path>
                <path d="M369.2,274.6 C369.1,274.6 369,274.6 368.9,274.7 C368.7,277 368.6,279.2 368.4,281.6 C369.4,281.4 370.2,281.2 371.4,281 C370.6,278.7 369.9,276.7 369.2,274.6 L369.2,274.6 Z" id="Shape" fill="#FFFFFF"></path>
                <path d="M299.5,303.7 C299.4,303.6 299.2,303.6 299.1,303.5 C297,306.5 294.9,309.6 292.7,312.8 C294.1,313.4 295.3,314 297,314.7 C297.9,310.9 298.7,307.3 299.5,303.7 L299.5,303.7 Z" id="Shape" fill="#FFFFFF"></path>
                <path d="M425.5,297.4 C426.3,297.6 427.3,297.5 428.2,297.3 C428.7,297.2 429.3,296.7 429.5,296.3 C430.1,295.2 429,291.6 427.9,291.2 C426.5,290.6 425.2,290.1 423.7,289.5 C422.6,291.2 421.5,292.9 420.5,294.6 C420.4,294.8 420.5,295.5 420.8,295.6 C422.3,296.2 423.9,296.9 425.5,297.4 L425.5,297.4 Z" id="Shape" fill="#FFFFFF"></path>
                <path d="M480.2,149.5 C479.5,147.8 479.1,145.4 477.7,144.6 C473,141.8 466.2,141 461.4,144.9 C460.4,145.7 459.4,146.6 458.5,147.5 C455.6,150.5 452.7,153.5 452.7,157.9 C454.5,157.5 456.4,157.2 458.3,156.7 C465.2,154.7 472.2,152.7 479.1,150.7 C479.5,150.5 480.3,149.7 480.2,149.5 L480.2,149.5 Z" id="Shape" fill="#FFFFFF"></path>
                <path d="M303.9,213.6 C304.3,217.6 305.5,221.2 307.8,224.6 C309.2,226.7 310.6,228.9 310.7,231.7 C310.7,234.2 311.4,236.8 312.4,239.1 C314.9,244.6 317.7,250 320.4,255.4 C320.6,255.8 321.4,256.2 321.8,256.1 C326.4,255.3 331.1,254.6 335.6,253.3 C339.8,252.1 343.8,250.1 347.8,248.6 C350.2,247.7 352.6,247.2 354.8,245.6 C356.8,244.2 359.7,244 362.2,243.2 C363.9,242.7 365.8,242.5 367.4,241.7 C376.7,237.5 386,233.2 395.2,228.9 C403.3,225.2 410.3,219.8 417.6,214.8 C423.2,210.9 428.7,206.8 434.1,202.6 C438.7,199 443.7,196 447.8,191.7 C452.2,187.2 456.9,183 461.6,178.7 C466.9,173.9 471.3,168.4 475.4,162.5 C476.8,160.5 478.6,158.7 480.1,156.7 C481.7,154.6 483.2,152.5 484.7,150.4 C484.6,150.2 484.5,150.1 484.4,149.9 C483.7,150.1 483.1,150.3 482.4,150.5 C478.4,151.8 474.5,153.3 470.4,154.4 C463,156.3 455.6,157.9 448.2,159.7 C443,161 437.8,162.4 432.7,163.9 C426.9,165.6 421.1,167.3 415.3,169.1 C409.7,170.9 404.1,172.8 398.4,174.5 C395.6,175.4 392.8,176 390,176.9 C384.8,178.5 379.8,180.4 374.6,181.9 C369.3,183.4 363.8,184.6 358.5,186 C356.3,186.6 354.1,187.4 351.9,188.2 C347,189.8 342.1,191.5 337.1,193.1 C332.1,194.7 327.1,196.5 322,197.9 C316,199.6 310,201.2 303.9,202.7 C301.7,203.2 301.8,204.1 302.3,205.8 C303.2,208.6 303.7,211.1 303.9,213.6 L303.9,213.6 Z M436.1,188.7 C449.3,181.2 458.9,169.7 469.4,159.2 C469.4,159.2 469.6,159.3 470,159.6 C460.3,171.3 450.1,182.3 436.2,189.7 C436.1,189 436,188.8 436.1,188.7 L436.1,188.7 Z M428.4,192.1 C428.5,192.7 428.9,193.3 428.8,193.8 C428,196.5 427.1,199.2 426.1,201.9 C426,202.3 425.3,202.5 424.8,202.7 C424.6,202.3 424.1,201.8 424.1,201.6 C425.2,198.4 426.4,195.3 427.6,192.2 C427.9,192.1 428.2,192.1 428.4,192.1 L428.4,192.1 Z M426.2,187.1 C426.2,187.8 426.5,188.7 426.3,189.3 C424,195.6 421.5,201.8 419.3,208.1 C418.8,209.5 418.2,209.6 416.9,208.8 C419.7,201.4 422.5,194.2 425.2,187 C425.5,187 425.9,187 426.2,187.1 L426.2,187.1 Z M419.9,193.4 C419.5,195 419.4,196.1 418.9,197.1 C416.4,201.8 413.8,206.5 411.2,211.1 C410.9,211.7 410.2,212.1 409.6,212.6 C409.4,212.4 409.3,212.1 409.1,211.9 C410.6,208.6 412.2,205.3 413.4,201.9 C414.7,198.6 416.2,195.6 419.9,193.4 L419.9,193.4 Z M352.1,202.7 C349.8,208.1 347.7,213.4 345.5,218.6 C345.3,218.5 345.1,218.4 344.8,218.3 C345.9,215.5 347.3,212.9 348.2,210 C350.4,203.1 350.4,202.8 352.1,202.7 L352.1,202.7 Z M347.4,195.3 C347.7,195.4 348,195.6 348.3,195.7 C342.5,209.6 336.6,223.4 330.8,237.3 C330.5,237.2 330.3,237.1 330,237 C335.8,223.1 341.6,209.2 347.4,195.3 L347.4,195.3 Z M331.5,216 C332.4,213.9 333.2,211.7 334.1,209.6 C334.3,209.1 334.9,208.8 335.3,208.4 C335.5,208.9 335.9,209.5 335.7,209.8 C333.4,214.5 331,219.1 328.7,223.7 C328.5,223.6 328.2,223.5 328,223.4 C329.2,220.9 330.4,218.5 331.5,216 L331.5,216 Z M318.2,245.5 C321.6,244.7 325,244.2 328.3,243.1 C335.7,240.6 343,237.8 350.3,235 C358.3,231.9 366.1,228.6 374.1,225.7 C381.8,222.9 389,219.1 396.4,215.7 C400.1,214 403.4,211.5 406.9,209.4 C407.7,208.9 408.7,208.6 409.6,208.2 C409.7,208.4 409.8,208.5 409.9,208.7 C409.5,209.2 409.2,209.8 408.7,210.1 C403.2,213.4 398,217.2 391.9,219.6 C385.1,222.2 378.6,225.4 371.9,228.3 C367.4,230.2 362.8,231.9 358.3,233.6 C353.5,235.5 348.6,237.3 343.8,239.1 C338.6,241 333.5,242.9 328.2,244.6 C325.4,245.5 322.6,246 319.7,246.6 C319.2,246.7 318.5,246.3 318,246.1 C318.1,245.9 318.1,245.7 318.2,245.5 L318.2,245.5 Z" id="Shape" fill="#FFFFFF"></path>
                <path d="M178.4,270.7 C175.5,261.1 172.7,251.6 169.7,241.8 C156.3,245.2 143,248.6 129.6,252 C129.7,252.3 129.8,252.5 129.8,252.7 C129.1,254.7 131.2,257.1 129.1,259 C128.9,259.1 128.9,259.8 129,259.8 C131.2,260.8 128.8,261.9 129.3,263.3 C130.5,264 130.6,264.2 129.7,265.6 L127.9,268.6 C128,268.7 128.2,268.7 128.3,268.8 C128.8,268.2 129.2,267.6 129.7,267.1 C129.9,267.2 130.2,267.3 130.4,267.5 C129.7,269 129,270.5 128.3,272.1 C129.2,272 130,271.9 131.1,271.7 C130.3,273.1 129.8,274.1 129.5,274.6 C145.7,273.7 162.1,273.7 178.4,270.7 L178.4,270.7 Z M165.3,265.1 C165.1,265 165,264.9 164.8,264.8 C165.7,262.8 165.5,260.3 167.2,258.7 C167.5,258.9 167.9,259.1 168.2,259.3 C167.2,261.2 166.2,263.1 165.3,265.1 L165.3,265.1 Z M167.4,247.3 C164.5,254.8 160.5,261.7 156.1,268.5 C159.6,261.3 163.1,254.2 166.6,247 C166.9,247.1 167.1,247.2 167.4,247.3 L167.4,247.3 Z M157.9,253.6 L159.4,253.6 C157.5,257.3 155.7,260.6 154,264 C153.8,263.9 153.7,263.8 153.5,263.8 C154.9,260.4 156.4,257.1 157.9,253.6 L157.9,253.6 Z" id="Shape" fill="#FFFFFF"></path>
                <path d="M461.8,180.7 C456.7,185.3 451.9,190.2 446.9,194.9 C444.9,196.8 443.2,198.6 443,201.6 C442.8,205.5 441.7,209.3 441.5,213.1 C441.1,218.7 440.5,224.4 441,230 C441.7,238.6 448.1,244 456.8,244.1 C458.6,244.1 461,243.7 462.1,242.6 C465.3,239.2 468.9,235.8 470.8,231.6 C475.4,221.8 477.2,211.2 478.5,200.6 C479.4,193.9 479.7,187 480.5,180.3 C481,175.9 482.3,171.5 482.7,167.1 C483.1,163.8 482.8,160.4 482.8,156.9 C482.3,157.1 482.1,157.1 482,157.2 C475.6,165.2 469.5,173.6 461.8,180.7 L461.8,180.7 Z" id="Shape" fill="#FFFFFF"></path>
                <path d="M176.5,272.4 C166.7,273.2 156.8,274.2 147,274.9 C142.3,275.3 137.6,275.4 132.9,275.4 C131.2,275.4 130.2,277.2 130.5,277.5 C131.7,279 130.2,280.1 130.4,281.7 C147.3,281.8 164.2,282.8 181.5,280.2 C180.7,277.8 179.9,275.3 178.9,273 C178.7,272.5 177.3,272.3 176.5,272.4 L176.5,272.4 Z" id="Shape" fill="#FFFFFF"></path>
                <path d="M127.9,251.9 L173.7,239.8 L184.5,282 L128.7,283.7 L127.9,251.9 Z" id="Shape" fill="#B1E2F6"></path>
                <path d="M262.1,143.3 C258.2,144.1 254.8,145.9 253.1,149.3 C250.6,154.2 248.7,159.4 249.2,165.1 C249.4,167.7 249.4,170.5 250.1,172.9 C250.9,175.6 252,178.4 253.8,180.5 C256.9,184 261.3,186 265.8,187.1 C271.3,188.4 276.9,189 282.5,189.8 C287.1,190.5 291.7,191 296.8,191.6 C296.4,189.4 296.2,187.1 295.7,185 C293.6,176.9 291.3,168.9 289.2,160.9 C287.9,156.1 286.8,151.4 285.5,146.6 C284.6,143.1 283.9,142.7 280.1,142.4 C274,141.8 268,142.1 262.1,143.3 L262.1,143.3 Z" id="Shape" fill="#FFFFFF"></path>
                <path d="M507.2,231 C507.6,230.6 508,230.2 508.4,229.7 C508.9,229.1 509.4,228.4 509.7,227.7 C510.1,226.9 509.9,226.1 509.4,225.7 C508.9,225.3 507.9,225.3 507.4,225.8 C506.5,226.5 505.7,227.3 504.9,228.1 C504.5,228.4 504.7,228.7 504.9,228.9 C505.7,229.5 506.4,230.2 507.2,231 L507.2,231 Z" id="Shape" fill="#FFFFFF"></path>
                <path d="M479,275.2 C478.3,275.4 477.6,275.6 476.9,275.8 C477,276.8 477.1,277.7 477.2,278.7 C477.2,278.8 477.5,279 477.6,279 C478.4,278.8 479.2,278.6 479.9,278.3 C480.3,278.1 480.6,277.8 480.9,277.5 C481.1,277.3 481.1,277 481.1,276.7 C481.1,276.1 479.6,275.1 479,275.2 L479,275.2 Z" id="Shape" fill="#FFFFFF"></path>
                <path d="M487.8,270.1 L487.7,270.1 C487.6,271.1 487.6,272 487.5,273.1 C487.9,273 488.3,272.9 488.8,272.8 C488.4,271.8 488.1,270.9 487.8,270.1 L487.8,270.1 Z" id="Shape" fill="#FFFFFF"></path>
                <path d="M517.4,220.8 C516.4,220.1 515.5,219.4 514.7,218.8 L514.6,218.9 L516.4,221.9 C516.6,221.6 516.9,221.3 517.4,220.8 L517.4,220.8 Z" id="Shape" fill="#FFFFFF"></path>
                <path d="M507.8,231.7 C508.5,232.6 509.3,233.4 510,234.3 C510.1,234.4 510.5,234.4 510.6,234.3 C511.2,233.6 511.9,232.8 512.4,232 C512.7,231.6 512.7,231 512.8,230.5 C512.8,230.2 512.7,229.8 512.5,229.6 C512,229.1 509.9,229.1 509.4,229.6 C508.9,230.3 508.4,231 507.8,231.7 L507.8,231.7 Z" id="Shape" fill="#FFFFFF"></path>
                <path d="M217.8,219.3 C217,217.9 216.2,216.5 215.4,215.2 C215.3,215.2 215.3,215.3 215.2,215.3 C215.3,217 215.5,218.7 215.6,220.4 C216.4,220.1 217,219.8 217.8,219.3 L217.8,219.3 Z" id="Shape" fill="#FFFFFF"></path>
                <path d="M203.2,226.1 C204.3,225 204.5,223.8 204.1,223 C203.7,222.3 202.4,221.8 201.3,222.3 C199.7,223 198.1,223.9 196.4,224.6 C195.7,224.9 195.7,225.4 195.9,225.8 C196.4,227.2 197,228.5 197.5,229.9 C198.3,229.4 199.2,229 200,228.5 C201.2,227.8 202.3,227 203.2,226.1 L203.2,226.1 Z" id="Shape" fill="#FFFFFF"></path>
                <path d="M227.3,269 C227.8,269.1 228.2,269.2 228.8,269.4 C229,268.2 229.1,267.1 229.2,266 L229.1,266 L227.3,269 L227.3,269 Z" id="Shape" fill="#FFFFFF"></path>
                <path d="M239.6,115.6 C236,117.7 232.6,120.2 229.2,122.7 C226.9,124.4 224.9,126.5 222.6,128.1 C215.4,132.9 209,138.6 204.1,145.5 C198.1,154.2 193.1,163.5 188.2,172.9 C185.8,177.4 183.9,182.4 182.7,187.4 C181.1,193.8 180.1,200.5 179.3,207.1 C178.7,212 178.5,216.9 178.3,221.8 C178.2,224.1 179.1,226.5 179,228.8 C178.9,237.4 181,245.7 183.5,253.8 C185.6,260.6 188.1,267.3 190.1,274.1 C193.2,284.6 198.3,294.1 204.3,303.1 C209.9,311.5 215.9,319.9 224.1,326.2 C227.3,328.7 230.2,331.7 233.5,334.1 C235.6,335.7 238.1,336.9 240.5,338 C243.5,339.4 244.3,340.2 243.6,342.2 C243.3,343.1 242.4,343.9 241.7,344.7 C239.5,347.3 237.5,350.2 234.9,352.5 C231,356 227,359.2 222.7,362.2 C218.5,365.1 214.1,367.5 208.8,368.3 C206.5,368.6 204.4,369.9 201.6,370.9 C203.8,371.4 205.3,371.8 206.9,372.2 C208.9,372.6 210.9,373.1 212.9,373.3 C214.9,373.4 216.9,373 218.9,373 C222.6,372.9 226.3,373.1 230,372.9 C233.1,372.7 236.3,372.3 239.4,371.8 C247.1,370.5 254.3,367.5 261.3,364.1 C267.4,361.1 272.9,357.1 276.9,351.3 C277.9,349.8 279.1,349.8 280.5,350 C285.7,350.8 290.9,351.9 296.1,352.6 C300.5,353.2 305,353.3 309.4,353.5 C316.9,353.9 324.5,354.6 332,354.7 C339.5,354.8 347,354.6 354.5,354.3 C360.2,354.1 365.9,353.6 371.5,353.1 C374.8,352.8 378.2,352.3 381.5,352 C384.3,351.7 387.2,351.8 390,351.4 C398.9,350.1 407.2,347 415.5,343.8 C421.7,341.4 428.2,339.8 434.3,337.4 C442.7,334.2 451,330.7 459.1,326.9 C465.9,323.7 472.5,320.2 478.9,316.3 C484.2,313.1 489,309.1 494,305.5 C494.9,304.8 495.8,304 496.8,303.3 C503,299.3 509.3,295.2 514.3,289.8 C519.8,283.8 526.2,278.4 529.1,270.3 C531.2,264.5 534,258.9 535.7,253 C537.6,246.4 538.9,239.6 539.7,232.8 C541,221.9 541,210.9 539.1,200 C538,193.7 536.2,187.4 534.2,181.3 C532.2,175.2 530,169.1 527,163.4 C522.9,155.8 518.1,148.5 513.1,141.4 C510.3,137.3 506.8,133.7 503.4,130.1 C499.6,126 495.9,121.5 491.4,118.3 C485.7,114.2 479.4,110.7 473,107.6 C465.5,103.9 457.6,100.9 449.8,97.7 C448.3,97.1 446.7,96.6 445.2,96.3 C439.3,95.1 433.5,93.9 427.6,92.8 C422.4,91.8 417.2,90.8 412,90.1 C406,89.3 400,88.8 394.1,88.3 C385.6,87.5 377,86.8 368.5,86.2 C367.2,86.1 365.8,86.5 364.5,86.5 C357.4,86.3 350.4,86.1 343,85.8 C342,91.5 341.1,96.9 340.2,102.3 C339.5,106.4 338.9,110.5 338.2,114.6 C337.6,118 337,121.4 336.6,124.8 C336.5,125.3 337,126.1 337.4,126.5 C338.8,127.5 340.5,128.2 341.9,129.3 C348.8,134.5 351.2,142.2 352.8,150.2 C353,151.4 352.8,153.2 352,153.8 C351.1,154.6 349.2,154.9 348.1,154.5 C346.3,153.9 344.9,154.1 343.3,155 C341.1,156.3 340.1,155.7 339.9,153.2 C339.6,149.7 338.1,146.7 335.5,143.9 C334.8,146.5 334.4,148.8 333.6,150.9 C331.9,155 331,159.1 331.8,163.6 C332.2,165.9 332,168.6 330.3,170.9 C329.1,172.4 328.3,174.7 328.4,176.6 C328.5,179.9 329.5,183.1 330.1,186.5 C332.3,188.1 335.7,188.9 337.4,192.1 C343.9,189.9 350.4,187.6 357.2,185.3 C357.2,182.1 357.1,178.9 357.2,175.7 C357.3,171.7 357.6,167.8 357.8,163.8 C357.9,162.8 357.9,161.7 358,160.7 C358.7,154.1 359.5,147.5 360.1,141 C360.6,135.7 360.8,130.3 361.3,125 C361.4,124.4 362.3,123.6 362.9,123.4 C363.7,123.1 364.7,123.3 365.5,123.5 C370.6,124.2 375.7,125.3 380.8,125.5 C390.4,125.9 400.1,125.6 409.7,125.8 C413.3,125.8 416.8,126.2 420.7,126.4 C419.9,131.4 419.2,136 418.4,141 C404,141.6 389.2,140.8 374.5,139.8 C373.8,150.3 373.2,160.6 372.5,171.4 C379.9,171.6 387,171.9 394,172.1 C396.3,172.2 398.7,172.9 400.8,172.4 C406.7,171 412.6,169.1 418.5,167.3 C424.4,165.6 430.4,163.8 436,162.1 C437,158.5 438.2,155 439,151.4 C440.9,142.6 445.9,136.4 453.8,132.3 C455.5,131.4 457.3,130.7 459.2,130.5 C462.2,130.1 465.3,129.9 468.4,129.9 C475.2,129.8 481.3,131.7 486.8,136 C491.1,139.4 494,143.4 495.4,148.6 C496.8,153.7 497.1,159.1 496.8,164.4 C496.4,172.1 495.8,179.9 495,187.6 C494.2,195.4 493.4,203.2 491.7,210.9 C490.1,217.9 487.6,224.8 485.1,231.5 C481.2,242.1 474.3,250 463.7,254.4 C462.1,255.1 460.6,256.2 458.9,256.6 C453.1,257.9 447.3,258 441.5,256.6 C438.7,255.9 436.7,254.2 435.2,251.9 C430.8,245.3 429,237.8 429.1,229.9 C429.2,222.8 430,215.6 430.5,208.4 C422.4,213.9 414.1,219.1 406.2,224.9 C398.3,230.7 389,233.8 380.4,238.6 C384.7,239.3 388.7,240.1 392.8,240.7 C395.2,241 397.7,241 400.1,241.2 C405.6,241.7 411.2,242.3 416.7,242.9 C417.2,243 418.1,243.7 418,244.1 C417.7,247.3 417.4,250.5 416.6,253.6 C415.7,257.2 415.5,257.2 411.7,256.8 L410.6,256.8 C405.9,256.5 401.1,256.3 396.4,255.9 C389.3,255.3 382.3,254.4 375.2,253.8 C369.8,253.4 364.3,253.4 358.9,253.2 C356.9,253.1 354.7,253.2 355.6,250 C355.7,249.6 355.4,249 355.2,248.5 C350.2,250.2 345.3,252.1 340.3,253.6 C334,255.5 327.7,257.1 321.3,258.9 C320.3,259.2 319.7,259 319.4,257.7 C319,256 318.3,254.3 317.7,252.4 C312,258.8 305.7,263.6 297.3,265.3 C290.5,266.7 283.9,267.1 277.2,265.4 C271.9,264.1 267,262 262.5,258.8 C257.8,255.6 253.9,251.6 250.9,246.9 C248.2,242.6 246.6,237.6 244.6,232.9 C244,231.5 244.5,230.6 245.9,230.3 C249.1,229.5 252.3,228.7 255.5,228 C257.1,227.6 258.1,228.3 258.8,229.8 C260.4,233.2 262.4,236.4 265.2,239.1 C270.4,244 275.7,248.6 282.7,250.7 C284.5,251.3 286.5,252 288.2,251.6 C294.4,250.4 300.5,249 305.1,244.2 C307.6,241.6 308.4,238.7 309,235.4 C309.6,232.1 309.5,229 307.3,226.2 C304,221.9 302.6,217 302.6,211.6 C302.6,210.2 302.1,208.7 301.7,207.3 C301.5,206.8 300.9,206.3 300.3,206.2 C298.5,205.9 296.7,205.7 294.9,205.4 C285.5,204.1 276.1,203 266.8,201.2 C261.2,200.1 255.6,198.3 250.2,196.3 C247.6,195.3 245.1,193.6 243.2,191.6 C237.3,185.6 235,178.2 234.8,169.8 C234.4,158.8 236.9,149 244,140.4 C249.8,133.4 257.5,130.3 266.2,129.2 C270.7,128.7 275.2,128.2 280,127.7 C277.3,119.1 274.5,110.5 271.7,101.5 C265.6,103.7 259.7,105.6 254.1,108 C248.7,110.4 244.1,113 239.6,115.6 L239.6,115.6 Z M516.3,214.7 C516.4,214.6 516.8,214.7 517,214.8 C517.8,215.7 518.6,216.6 519.4,217.4 C519.5,217.5 519.9,217.6 520,217.5 C520.7,217 521.4,216.4 522.2,215.7 C521,214.6 519.9,213.5 518.8,212.4 C519,211.8 519.2,211.7 519.6,212.1 C521.2,213.7 522.8,215.3 524.3,217 C524.8,217.5 525.6,217.9 525.4,219.1 C525.1,218.9 524.9,218.8 524.8,218.6 C524.1,217.8 523.4,217 522.7,216.2 C521.9,216.9 521.1,217.5 520.3,218.2 C521.1,219 521.9,219.7 522.6,220.4 C523,220.7 523.1,221 522.9,221.7 C522,220.9 521.2,220.1 520.4,219.3 C519.1,218 517.9,216.7 516.6,215.4 C516.3,215.3 516,215.1 516.3,214.7 L516.3,214.7 Z M513.5,217.9 C513.6,217.8 513.9,217.7 514,217.8 C514.9,218.3 515.7,218.9 516.6,219.4 C517.4,219.9 518.1,220.5 518.9,221 C519.6,221.5 520.3,222 520.9,222.6 C521.1,222.8 521.1,223.2 521.2,223.5 L521,223.7 L520.1,223.1 C519.5,222.6 518.9,222 518.2,221.5 C518.1,221.4 517.7,221.5 517.6,221.7 C517.3,222 517.1,222.4 516.7,222.8 C517.1,223.9 518.3,224.6 518.3,226 C518.2,226.1 518.1,226.1 518.1,226.2 C518,226.1 517.9,225.9 517.8,225.8 C516.6,223.8 515.4,221.7 514.2,219.7 C514,219.4 513.7,219 513.6,218.7 C513.4,218.3 513.4,218 513.5,217.9 L513.5,217.9 Z M509.4,222.9 C509.5,222.9 509.7,222.9 509.8,223 C511.5,224.8 513.1,226.5 514.7,228.3 C515,228.6 515.1,228.6 515.4,228.3 C516,227.7 516.6,227.2 517.2,226.6 C517.3,226.6 517.4,226.7 517.5,226.7 C517.4,227 517.3,227.4 517.1,227.6 C516.6,228.2 515.9,228.7 515.4,229.3 C515.1,229.7 514.9,229.6 514.6,229.2 C513,227.3 511.3,225.4 509.6,223.6 C509.5,223.5 509.4,223.4 509.4,223.3 L509.4,222.9 L509.4,222.9 Z M504.7,227.4 C505.6,226.5 506.5,225.7 507.5,225 C508.2,224.4 509,224.5 509.7,225 C510.3,225.5 510.6,226.1 510.5,227 C510.4,227.6 510.3,228.1 510.2,228.5 C511,228.6 511.8,228.7 512.4,228.9 C513.3,229.2 513.4,230.1 513.2,231.1 C512.9,232.4 512.1,233.4 511.3,234.3 C511.1,234.6 510.9,234.8 510.7,235.1 C510.4,235.6 510.1,235.4 509.8,235.1 C508.9,234 508.1,232.9 507.2,231.9 C506.4,231 505.5,230.1 504.6,229.3 C503.6,228.6 503.6,228.6 504.7,227.4 L504.7,227.4 Z M490.9,268 C491,268 491.3,268.2 491.3,268.4 C491.5,269.4 491.6,270.4 491.7,271.4 C491.7,271.5 491.9,271.8 492.1,271.8 C492.9,271.8 493.6,271.7 494.5,271.6 C494.2,270.2 494,269 493.7,267.7 C494.1,267.4 494.3,267.4 494.4,267.9 C494.7,269.8 495.1,271.6 495.4,273.5 C495.5,274.1 495.9,274.7 495.2,275.5 C495.1,275.2 495,275 495,274.9 L494.7,272.2 C493.8,272.3 493,272.3 492.1,272.4 C492.3,273.3 492.5,274.2 492.7,275 C492.8,275.4 492.8,275.7 492.3,276 C492.1,275 491.9,274.1 491.7,273.1 C491.4,271.6 491.2,270.1 490.9,268.6 C490.7,268.4 490.5,268.1 490.9,268 L490.9,268 Z M487.1,270.3 L487.1,269.3 C487.1,269.2 487.3,269 487.4,268.9 C487.5,268.9 487.7,269 487.8,269 C488.2,269.8 488.5,270.6 488.9,271.4 C489.2,272.1 489.5,272.9 489.7,273.6 C489.9,274.3 490.2,275 490.4,275.7 C490.5,275.9 490.3,276.2 490.2,276.5 L490,276.5 C489.9,276.2 489.7,275.9 489.7,275.6 C489.5,274.9 489.4,274.3 489.2,273.6 C489.2,273.5 488.9,273.4 488.7,273.4 C488.3,273.5 488,273.6 487.6,273.7 C487.4,274.6 487.8,275.7 487.2,276.7 L487,276.7 L487,276.2 C486.9,274.3 487,272.3 487.1,270.3 L487.1,270.3 Z M482,270.8 C482,270.7 482.2,270.6 482.2,270.4 L482.5,270.7 C482.8,272.7 483.2,274.7 483.4,276.7 C483.5,277.1 483.6,277.1 483.9,277 L486,276.7 C486,276.8 486.1,276.8 486.1,276.9 C485.9,277.1 485.6,277.3 485.4,277.4 C484.7,277.6 484,277.7 483.4,277.8 C483,277.9 482.9,277.7 482.9,277.4 C482.6,275.3 482.4,273.2 482.1,271.1 C482,271 482,270.9 482,270.8 L482,270.8 Z M476.8,271.4 C477.8,271.2 478.9,271.1 479.9,271 C480.7,270.9 481.2,271.4 481.4,272 C481.6,272.6 481.5,273.3 481,273.8 C480.7,274.2 480.3,274.5 480.1,274.7 C480.6,275.2 481.1,275.6 481.5,276.1 C481.9,276.7 481.7,277.4 481,278 C480.2,278.8 479.2,279.1 478.1,279.4 C477.8,279.5 477.5,279.5 477.3,279.7 C476.8,279.9 476.7,279.6 476.7,279.3 C476.6,278.2 476.5,277 476.4,275.9 C476.3,274.9 476.1,273.9 475.8,272.9 C475.5,271.7 475.5,271.7 476.8,271.4 L476.8,271.4 Z M455.6,295.6 C455.9,295.1 456,294.4 456.8,294.8 C457,294.9 457.1,295.7 456.9,296 C455.9,297.8 454.7,299.6 453.7,301.4 C453.5,301.7 453.6,302.3 453.8,302.4 C455.1,303.3 456.5,304.1 458,305.1 C459.3,302.5 460.5,300.1 461.8,297.6 C462.9,297.6 463.1,297.8 462.7,298.7 C460.8,302.2 459,305.8 457,309.2 C456.4,310.3 456.1,311.8 454,312.3 C454.2,311.7 454.3,311.3 454.5,311 C455.4,309.4 456.4,307.8 457.4,306.2 C455.8,305.2 454.4,304.2 452.8,303.1 C451.9,304.9 451.1,306.5 450.3,308.2 C450,309 449.5,309.4 448.3,309.4 C449.2,307.5 450.1,305.7 451,303.9 C452.5,301.2 454.1,298.4 455.6,295.6 L455.6,295.6 Z M447.6,293.6 C448.1,293.1 448.5,292.5 449,292 C449.2,291.8 449.7,291.7 450,291.8 C450.2,291.8 450.5,292.3 450.4,292.5 C450,294.3 449.5,296 449,297.7 C448.5,299.3 448,300.9 447.5,302.4 C447,303.8 446.5,305.3 445.9,306.6 C445.7,307 445,307.2 444.5,307.6 C444.4,307.5 444.2,307.4 444.1,307.3 C444.3,306.7 444.4,306 444.7,305.4 C445.3,304.1 445.9,302.8 446.4,301.4 C446.5,301.2 446.1,300.6 445.8,300.5 C445.1,300.1 444.4,299.9 443.5,299.6 C441.9,300.8 441.3,303.2 438.9,304 C438.8,303.9 438.6,303.8 438.5,303.7 C438.7,303.4 438.8,303.1 439.1,302.9 C442,299.8 444.8,296.7 447.6,293.6 L447.6,293.6 Z M438.2,288.2 C438.3,288 438.4,287.8 438.5,287.7 C438.7,287.6 439.1,287.5 439.3,287.4 C439.3,287.7 439.5,288 439.4,288.2 L433.1,299.3 C432.7,300 432.9,300.1 433.5,300.4 C434.8,301.1 436.1,301.9 437.4,302.6 C437.4,302.8 437.3,302.9 437.3,303.1 C436.7,303.1 436.1,303.1 435.6,302.9 C434.3,302.3 433.1,301.5 431.8,300.9 C431,300.5 431.1,300.1 431.5,299.5 C433.6,295.8 435.9,292 438.2,288.2 L438.2,288.2 Z M418.8,294.8 C420.1,292.8 421.6,290.8 422.8,288.8 C423.9,286.9 424.9,285 425.8,283.1 C426.8,280.8 426.8,280.7 429.3,282 C431.2,283 433.1,284.2 434.8,285.4 C436.1,286.3 436.5,287.7 436,289.1 C435.5,290.4 434.6,291.3 433,291.6 C432,291.8 431,291.8 430.2,291.9 C430.4,293.3 430.7,294.6 430.6,295.9 C430.5,297.5 429.2,298.3 427.4,298.4 C425,298.6 423,297.8 421,296.9 C420.5,296.7 419.9,296.4 419.3,296.3 C418.3,295.9 418.4,295.4 418.8,294.8 L418.8,294.8 Z M376.1,329.1 C375.1,330.1 373.9,330.4 372.7,330.7 C372.4,330.8 372,330.9 371.7,331 C371.1,331.2 371,330.9 371,330.5 C370.9,329.1 370.8,327.8 370.6,326.4 C370.4,325.2 370.2,324 369.9,322.8 C369.5,321.4 369.5,321.4 371.1,321.1 C372.3,320.9 373.5,320.7 374.8,320.7 C375.7,320.6 376.4,321.1 376.6,321.9 C376.8,322.6 376.7,323.4 376.2,324 L375.1,325.1 C375.7,325.7 376.3,326.1 376.7,326.7 C377.1,327.6 376.8,328.4 376.1,329.1 L376.1,329.1 Z M381.2,328.3 C380.4,328.5 379.6,328.6 378.8,328.8 C378.3,328.9 378.2,328.7 378.2,328.3 C377.9,325.8 377.6,323.3 377.2,320.9 C377.2,320.8 377.1,320.7 377.2,320.6 C377.3,320.5 377.4,320.3 377.5,320.2 C377.6,320.3 377.8,320.4 377.8,320.5 C378.2,322.9 378.6,325.2 378.9,327.6 C379,328 379.1,328 379.5,328 C380.3,327.9 381.2,327.7 382,327.6 C382,327.7 382.1,327.8 382.1,327.8 C381.8,328 381.5,328.2 381.2,328.3 L381.2,328.3 Z M387.8,317.2 C387.9,317.2 388.3,317.5 388.3,317.7 C388.5,318.9 388.6,320 388.8,321.2 C388.8,321.4 389.1,321.6 389.2,321.6 C390.1,321.6 391,321.4 392,321.3 C391.7,319.7 391.4,318.2 391,316.6 C391.5,316.2 391.7,316.2 391.8,316.8 C392.2,319 392.7,321.2 393,323.5 C393.1,324.2 393.5,325 392.7,325.9 C392.6,325.6 392.5,325.4 392.5,325.1 C392.4,324.1 392.2,323 392.1,322 C391,322.1 390.1,322.2 389,322.3 C389.2,323.4 389.5,324.4 389.7,325.4 C389.8,325.9 389.8,326.2 389.2,326.6 C388.9,325.4 388.7,324.3 388.5,323.2 C388.2,321.4 387.9,319.6 387.5,317.9 C387.5,317.6 387.3,317.3 387.8,317.2 L387.8,317.2 Z M386.9,327.1 L386.6,327.1 C386.5,326.8 386.3,326.4 386.2,326.1 L385.6,323.7 C385.6,323.6 385.2,323.5 385,323.5 C384.6,323.6 384.2,323.7 383.7,323.9 C383.4,325 384,326.3 383.2,327.4 L382.9,327.4 L382.9,326.8 C383,324.4 383.2,322.1 383.3,319.7 C383.3,319.3 383.3,318.9 383.4,318.5 C383.4,318.3 383.6,318.1 383.8,318 C383.9,317.9 384.2,318.1 384.2,318.2 C384.6,319.1 385.1,320.1 385.4,321 C385.8,321.9 386.1,322.7 386.4,323.6 C386.7,324.4 387,325.2 387.2,326 C387.2,326.5 387,326.8 386.9,327.1 L386.9,327.1 Z M376.5,269.9 C376.8,269.8 377.4,270.5 377.5,270.9 C377.9,273.2 378.1,275.5 378.4,277.8 C378.5,278.1 378.9,278.6 379.2,278.6 C381,278.5 382.7,278.3 384.7,278.1 C384.1,275 383.5,272 382.8,268.9 C383.7,268.1 384.1,268.2 384.3,269.3 C385.1,273.7 386,278 386.6,282.4 C386.8,283.8 387.7,285.3 386.1,287.2 C385.9,286.5 385.7,286.1 385.7,285.7 C385.4,283.7 385.2,281.6 384.9,279.5 C382.8,279.7 380.9,279.8 378.8,280 C379.3,282.1 379.7,284.2 380.2,286.1 C380.4,287 380.4,287.7 379.3,288.5 C378.8,286.2 378.3,284 377.9,281.8 C377.2,278.3 376.7,274.8 376.1,271.3 C375.9,270.8 375.5,270.1 376.5,269.9 L376.5,269.9 Z M367.6,275.2 C367.6,274.4 367.6,273.6 367.7,272.8 C367.8,272.5 368.1,272 368.4,271.9 C368.6,271.8 369.2,272 369.3,272.3 C370.2,274.1 371,276 371.7,277.8 C372.4,279.5 373,281.2 373.6,283 C374.2,284.6 374.7,286.2 375.1,287.8 C375.2,288.3 374.8,289 374.6,289.6 C374.4,289.6 374.2,289.6 374.1,289.7 C373.8,289 373.5,288.4 373.3,287.6 C372.9,286.1 372.5,284.5 372.1,283 C372,282.7 371.3,282.5 370.9,282.6 C370.1,282.7 369.3,283.1 368.3,283.4 C367.7,285.6 368.9,288.1 367.3,290.4 L366.7,290.4 C366.7,290 366.6,289.7 366.6,289.3 C367,284.4 367.3,279.8 367.6,275.2 L367.6,275.2 Z M355.6,276.3 C355.7,276 356,275.8 356.1,275.5 C356.3,275.7 356.7,275.9 356.7,276.1 C357.4,280.8 358.2,285.4 358.8,290.1 C358.9,291 359.2,291 359.9,290.8 C361.5,290.5 363.2,290.3 364.8,290 C364.9,290.2 365,290.3 365.1,290.5 C364.6,290.9 364,291.4 363.5,291.5 C361.9,291.9 360.3,292.1 358.8,292.4 C357.9,292.6 357.6,292.2 357.5,291.4 C356.9,286.5 356.3,281.6 355.7,276.8 C355.7,276.7 355.5,276.5 355.6,276.3 L355.6,276.3 Z M343.5,277.6 C345.9,277.2 348.3,276.9 350.7,276.8 C352.5,276.7 353.8,277.6 354.3,279.2 C354.8,280.6 354.6,282.1 353.4,283.4 C352.7,284.2 351.8,284.9 351.2,285.6 C352.3,286.7 353.5,287.6 354.3,288.8 C355.3,290.3 354.7,291.9 353.2,293.3 C351.3,295.2 348.9,295.8 346.5,296.4 C345.9,296.6 345.2,296.7 344.6,297 C343.5,297.5 343.2,296.8 343.2,296.1 C343,293.4 342.9,290.7 342.5,288.1 C342.2,285.7 341.7,283.4 341.1,281 C340.5,278.3 340.4,278.2 343.5,277.6 L343.5,277.6 Z M310.9,305.6 C311.3,304.7 311.3,303.3 312.8,304 C313.2,304.2 313.5,305.6 313.2,306.3 C311.7,309.9 310.1,313.4 308.6,316.9 C308.4,317.4 308.6,318.6 308.9,318.8 C311.2,320.3 313.6,321.7 316.3,323.3 C318.1,318.3 319.9,313.5 321.6,308.6 C323.4,308.4 323.9,308.8 323.2,310.6 C320.5,317.5 318,324.5 315,331.3 C314.1,333.4 313.9,336.4 310.3,337.5 C310.6,336.4 310.7,335.6 311,335 C312.4,331.9 313.8,328.8 315.2,325.6 C312.4,323.9 309.9,322.3 307.1,320.5 C305.9,324 304.7,327.2 303.7,330.5 C303.2,332 302.6,332.9 300.5,333 C301.8,329.2 303,325.7 304.3,322.2 C306.5,316.6 308.7,311.1 310.9,305.6 L310.9,305.6 Z M284.3,321.9 C288.6,315.6 292.8,309.3 297.1,303 C297.8,301.9 298.4,300.7 299.3,299.7 C299.6,299.3 300.4,299 301,299.1 C301.3,299.2 301.9,300 301.8,300.4 C301.3,303.8 300.8,307.1 300.2,310.5 C299.6,313.6 299,316.6 298.3,319.6 C297.7,322.4 297.1,325.1 296.2,327.8 C295.9,328.6 294.8,329.1 294,329.8 C293.8,329.7 293.5,329.5 293.3,329.4 C293.5,328.2 293.7,326.9 294,325.7 C294.7,323.1 295.7,320.6 296.3,318 C296.4,317.6 295.7,316.6 295.2,316.4 C294,315.8 292.8,315.5 291.3,315 C288.7,317.6 288.1,322.2 284.2,323.9 C284,323.7 283.7,323.5 283.5,323.3 C283.7,323 284,322.4 284.3,321.9 L284.3,321.9 Z M281,293.4 C281.4,293.1 281.9,293 282.4,292.8 C282.5,293.3 282.8,293.9 282.6,294.3 C279.6,301.6 276.6,308.9 273.5,316.1 C272.9,317.4 273.3,317.7 274.3,318.2 C276.6,319.3 278.8,320.6 281.1,321.7 C281.1,322 281.1,322.3 281,322.6 C280,322.6 278.9,322.9 278.1,322.5 C275.8,321.6 273.6,320.3 271.4,319.3 C270,318.7 270.1,318 270.7,316.7 C274.1,309.3 277.4,301.8 280.7,294.3 C280.7,294 280.7,293.6 281,293.4 L281,293.4 Z M248.8,309.7 C250.7,305.7 252.9,301.8 254.7,297.7 C256.3,294 257.7,290.2 258.9,286.4 C260.3,281.9 260.2,281.7 264.6,283.8 C268,285.4 271.2,287.3 274.4,289.4 C276.8,290.9 277.6,293.5 276.9,296.2 C276.3,298.7 274.8,300.6 272.2,301.3 C270.6,301.8 268.9,302 267.6,302.3 C268.1,304.9 268.9,307.3 268.9,309.8 C268.9,312.9 266.8,314.5 263.8,315.1 C259.8,315.9 256.3,314.6 252.8,313.2 C251.9,312.8 250.9,312.5 249.9,312.3 C248,312 248.3,310.9 248.8,309.7 L248.8,309.7 Z M214.6,213.4 C214.7,213.3 215.2,213.3 215.3,213.4 C216.1,214.5 217,215.6 217.7,216.8 C218.4,217.9 219.1,219 219.7,220.1 C220.3,221.1 220.9,222.1 221.4,223.2 C221.5,223.5 221.3,224.1 221.2,224.6 C221.1,224.7 220.9,224.7 220.8,224.8 C220.5,224.4 220.2,224 220,223.5 C219.5,222.5 219.1,221.4 218.5,220.4 C218.4,220.2 217.9,220.3 217.6,220.4 C217,220.7 216.4,221.1 215.7,221.6 C215.5,223.3 216.6,224.9 215.8,226.9 C215.7,226.9 215.5,227 215.4,227 C215.3,226.7 215.2,226.5 215.2,226.2 C214.9,222.7 214.6,219.3 214.3,215.8 C214.2,215.2 214.1,214.6 214.1,214 C214.1,214 214.3,213.6 214.6,213.4 L214.6,213.4 Z M205.6,232.7 C204.4,234.5 202.7,235.6 201,236.6 C200.5,236.9 200.1,237.2 199.6,237.5 C198.8,238.1 198.6,237.7 198.4,237.2 C197.9,235.3 197.5,233.4 197,231.5 C196.5,229.8 195.9,228.2 195.2,226.7 C194.4,224.9 194.3,224.9 196.5,223.7 C198.2,222.8 200,222 201.8,221.3 C203.1,220.8 204.2,221.2 204.8,222.2 C205.3,223.1 205.3,224.3 204.6,225.5 C204.1,226.3 203.6,227 203.2,227.6 C204.1,228.1 205.2,228.5 205.9,229.2 C206.9,230.1 206.6,231.4 205.6,232.7 L205.6,232.7 Z M208.6,230.5 L205.6,220.3 C205.6,220.1 205.4,220 205.5,219.8 C205.6,219.6 205.7,219.3 205.8,219.1 C206,219.2 206.3,219.2 206.3,219.4 C207.4,222.6 208.5,225.8 209.5,229.1 C209.7,229.7 209.9,229.6 210.4,229.4 L214,227.6 L214.3,227.9 C213.9,228.3 213.6,228.8 213.2,229.1 C212.1,229.8 210.9,230.3 209.7,230.9 C209,231.3 208.8,231.1 208.6,230.5 L208.6,230.5 Z M217.8,270.9 C216.5,271.3 215.3,271.1 214.1,270.8 C213.8,270.7 213.4,270.7 213.1,270.6 C212.5,270.6 212.5,270.2 212.7,269.9 C213.2,268.6 213.8,267.4 214.2,266.1 C214.6,264.9 214.9,263.8 215.2,262.6 C215.5,261.2 215.5,261.2 217,261.6 C218.2,261.9 219.3,262.4 220.5,262.8 C221.4,263.2 221.7,263.9 221.6,264.7 C221.5,265.5 221.1,266.1 220.2,266.4 C219.7,266.6 219.1,266.7 218.7,266.9 C219,267.6 219.3,268.3 219.4,269.1 C219.4,270 218.8,270.6 217.8,270.9 L217.8,270.9 Z M222.8,272.5 C222,272.3 221.2,272 220.4,271.8 C219.9,271.7 219.9,271.5 220.1,271.1 C221,268.7 221.8,266.4 222.6,264 C222.6,263.9 222.6,263.8 222.7,263.7 C222.8,263.6 223,263.5 223.1,263.5 C223.1,263.6 223.3,263.8 223.2,263.9 C222.5,266.2 221.8,268.5 221,270.8 C220.9,271.2 221,271.3 221.3,271.4 C222.1,271.6 222.9,271.9 223.7,272.2 L223.7,272.5 C223.4,272.4 223.1,272.6 222.8,272.5 L222.8,272.5 Z M229.7,268 C229.6,268.9 229.5,269.9 229.4,270.8 C229.3,271.6 229.2,272.5 229,273.3 C228.9,273.6 228.6,273.8 228.4,274 C228.3,274 228.2,273.9 228.1,273.9 C228.1,273.5 228.1,273.2 228.2,272.8 C228.4,272 228.6,271.2 228.7,270.4 C228.7,270.3 228.5,270 228.3,270 C227.9,269.9 227.5,269.8 226.9,269.8 C226.1,270.7 226.1,272.1 224.9,272.8 C224.8,272.8 224.7,272.7 224.6,272.7 C224.7,272.5 224.7,272.3 224.8,272.2 C226,270.1 227.2,268.1 228.3,266.1 C228.5,265.7 228.7,265.4 228.9,265 C229,264.9 229.3,264.7 229.4,264.8 C229.5,264.8 229.7,265 229.7,265.2 C229.8,266 229.8,267 229.7,268 L229.7,268 Z M229.6,220.2 C229.4,219.8 229.2,219.5 229.1,219.2 C228.7,217.8 228.3,216.4 227.8,214.9 C226.3,215.5 224.9,216.1 223.3,216.8 C223.9,218.2 224.4,219.6 225,220.9 C225.3,221.5 225.3,222 224.6,222.9 C224,221.3 223.3,219.9 222.8,218.4 C221.9,216 221.1,213.6 220.2,211.2 C220.1,210.8 219.7,210.4 220.4,210 C220.6,209.9 221.1,210.2 221.2,210.5 L222.7,215.3 C222.8,215.5 223.2,215.8 223.4,215.7 C224.7,215.2 226,214.6 227.5,214 C226.7,211.9 225.9,209.8 225.1,207.8 C225.7,207 226,207 226.3,207.7 C227.4,210.7 228.5,213.6 229.5,216.7 C229.7,217.6 230.5,218.4 229.6,220.2 L229.6,220.2 Z M235.5,271.1 C235.9,269.5 236.3,268 236.7,266.5 C237.3,266.4 237.5,266.5 237.3,267 C236.7,269.2 236.1,271.4 235.4,273.5 C235.2,274.2 235.2,275.1 234.1,275.5 C234.2,275.2 234.2,274.9 234.2,274.7 C234.5,273.7 234.9,272.7 235.3,271.7 C234.3,271.3 233.4,270.9 232.4,270.5 C232.1,271.6 231.9,272.6 231.6,273.6 C231.5,274.1 231.3,274.4 230.6,274.5 C230.9,273.3 231.2,272.2 231.5,271.1 C232,269.4 232.5,267.6 233,265.9 C233.1,265.6 233.1,265.2 233.6,265.3 C233.7,265.3 233.9,265.8 233.8,266 C233.5,267.1 233,268.2 232.7,269.4 C232.6,269.6 232.7,269.9 232.9,270 C233.7,270.4 234.6,270.7 235.5,271.1 L235.5,271.1 Z" id="Shape" fill="#FFFFFF"></path>
                <path d="M201.4,229 C200.3,229.7 199.1,230.5 197.9,231.2 C198.3,232.8 198.7,234.3 199.2,235.9 C199.3,236.1 199.8,236.3 200,236.2 C201.3,235.4 202.7,234.6 203.9,233.6 C204.5,233.1 205,232.3 205.4,231.6 C205.6,231.2 205.7,230.6 205.5,230.2 C205.2,229.2 202.3,228.4 201.4,229 L201.4,229 Z" id="Shape" fill="#FFFFFF"></path>
                <path d="M217.2,266.8 C216.4,266.6 215.5,266.5 214.7,266.3 C214.3,267.4 213.9,268.4 213.5,269.5 C213.5,269.6 213.6,270 213.8,270 C214.7,270.2 215.7,270.4 216.7,270.5 C217.2,270.5 217.7,270.3 218.2,270.1 C218.5,270 218.7,269.7 218.8,269.4 C218.9,268.8 217.9,266.9 217.2,266.8 L217.2,266.8 Z" id="Shape" fill="#FFFFFF"></path>
                <path d="M219.2,266.1 C220.1,266 220.7,265.5 220.8,264.9 C220.9,264.3 220.4,263.4 219.8,263.2 C218.7,262.8 217.6,262.5 216.6,262.1 C216.1,261.9 215.9,262.2 215.9,262.5 C215.6,263.5 215.4,264.5 215.1,265.6 C215.7,265.7 216.2,265.9 216.8,266 C217.5,266 218.4,266.1 219.2,266.1 L219.2,266.1 Z" id="Shape" fill="#FFFFFF"></path>
                <path d="M298.8,203.3 L322.7,197.2 L387.3,177.1 L447.2,159.2 L472,153.6 L488.6,147.9 L467.9,173.7 L446.9,194.9 L401.8,226.7 L370.5,241.9 L337.8,253.5 L320.4,257.8 L311.4,242.5 L309.7,229.4 L304.7,220.8 L302.6,206.1 L298.8,203.3 Z" id="Shape" fill="#B1E2F6"></path>
                <path d="M552.1,217.7 C552,212.4 551.6,207.1 551.7,201.8 C551.9,192.7 549.4,184.3 546.6,175.8 C543.9,167.7 539.5,160.5 535,153.4 C531,147.1 526.5,141.1 521.9,135.3 C518.7,131.3 515.3,127.4 511.5,124 C506.8,119.8 501.7,115.9 496.6,112.2 C491.3,108.4 486,104.6 480.4,101.5 C472.1,96.9 463.5,92.9 454.9,88.7 C451.1,86.8 447.2,84.9 443.2,83.7 C436.6,81.7 429.9,80.1 423.2,78.7 C417.4,77.5 411.4,76.7 405.5,75.9 C403.2,75.6 400.9,75.9 398.5,75.8 C393.6,75.5 388.7,75 383.9,74.7 C379.1,74.4 374.3,73.9 369.6,74.3 C362.4,74.9 355.2,76.1 347.9,75.9 C345.1,75.8 344.7,76.2 344.1,79 C344,79.5 344,80 343.7,80.5 C341.3,85.9 339.8,91.5 339.1,97.4 C338,106.1 336.4,114.7 335,123.4 C334.8,124.4 334.2,125.3 333.7,126.5 C333.5,127.6 333.2,128.9 332.9,130.3 C332.7,131.2 332.3,132 332.4,132.9 C332.5,136.3 332.7,139.6 333,143 C333.3,145.7 333.1,148.2 332,150.7 C330.2,154.9 328.6,159.3 329.7,164.1 C330.4,166.9 329.9,169.2 327.9,171.5 C326.3,173.3 325.8,176 326.9,178.8 C327.5,180.1 327.4,181.8 327.4,183.3 C327.3,186.7 327,190.1 326.6,193.5 C326.5,194.3 325.9,195.5 325.3,195.7 C322.1,196.9 318.8,197.8 315.5,198.7 C311.9,199.7 308.3,200.7 304.6,201.6 C303.7,201.8 302.1,202.1 301.7,201.6 C299.5,198.8 297.5,196 297.9,192.1 C298.1,189.7 298,187.2 297.4,184.9 C295.8,178.9 293.6,173.1 292,167.1 C290.3,160.8 289,154.4 287.6,148.1 C287,145.6 286.7,143.1 285.9,140.8 C284.9,137.8 283.3,134.9 282.3,131.9 C278.7,121 275.2,110.1 271.7,99.1 C271.3,97.8 271,96.5 270.8,95.2 C270.7,94.5 270.2,93.7 270.3,93 C269.5,93 269.4,92.8 268.8,93 C260.9,96.1 252.9,99.1 245.1,102.4 C241.3,104 237.8,106.2 234.4,108.4 C229.8,111.3 225.1,114.2 220.7,117.5 C217,120.3 213.8,123.9 210.1,126.8 C204,131.5 199.8,137.7 195,143.5 C191.5,147.7 188.5,152.4 185.6,157 C183.4,160.4 181.3,164 179.6,167.7 C177.5,172.1 175.9,176.7 174,181.1 C173.2,182.9 172.1,184.7 171.7,186.6 C171,189.5 170.6,192.5 170.2,195.4 C169.6,200.9 168.6,206.3 168.6,211.8 C168.5,220.8 169.1,229.9 169.4,238.9 C169.4,240 169.4,240.6 168,240.8 C164.9,241.4 161.8,242.3 158.7,243.2 C150.6,245.4 142.5,247.5 134.4,249.7 C131.3,250.6 128.2,251.9 125.4,249.1 C125.1,248.8 124.6,248.8 124.2,248.8 C120.7,249.3 117.1,249.8 113.7,250.4 C107.4,251.6 101.1,253 94.8,254.4 C92.8,254.9 90.7,255.5 88.8,256.3 C85.9,257.5 83.3,259.4 80.3,260.2 C73.2,262 65.9,263.4 58.7,264.7 C51.5,266 44.2,267.3 36.9,268.2 C31.7,268.8 26.6,269.7 21.7,271.4 C16.1,273.3 10.4,275 6.5,279.9 C3.8,283.4 0.8,286.8 0.6,291.5 C0.6,292.4 0.9,293.4 1,294.4 C1.3,297.6 2,300.8 4.2,303.3 C10.7,310.6 18.8,312.3 28.2,310.3 C39,307.9 47.1,300.9 56.1,295.4 C59,293.6 61.9,291.6 65,290.2 C73.6,286.2 82.4,286.3 91.3,289 C94.5,290 97.4,291.7 100.5,292.9 C105.4,294.8 110.5,295.5 115.8,294.9 C122.6,294.1 127.2,291 128.9,284.1 L135.1,284.1 C138.8,284.1 142.4,284 146.1,284.1 C149.4,284.2 152.7,284.8 156,284.6 C163.5,284.3 171,283.7 178.5,283.3 C183.4,283 183.3,283 185.5,287.5 C188,292.6 190.4,297.6 193.1,302.6 C195.2,306.4 197.6,310.1 199.9,313.8 L202.2,316.6 C204.3,319.5 206.4,322.5 208.7,325.3 C210.2,327.2 212.1,328.8 213.7,330.5 C214.9,331.8 215.9,333.5 217.3,334.6 C220.6,337.3 224.1,339.8 228,342.7 C225.3,345.7 223.1,348.8 220.2,351.1 C212.8,357 204.6,361.2 195.2,363.3 C192.1,364 190,365.2 185.7,365.8 C183.8,366.1 181.5,365.6 179.3,365.5 C178.6,365.5 177.9,365.4 177.3,365.6 C177.1,365.7 176.9,366.6 177,366.9 C177.7,368.2 178.4,369.7 179.5,370.4 C183.5,372.9 187.5,375.5 191.8,377.1 C196.8,379 202.3,379.8 207.5,381 C216.5,383.1 225.7,382.7 234.8,381.7 C238.9,381.3 242.9,380.5 247,379.8 C249.9,379.3 252.8,379 255.5,378.1 C259.9,376.6 264.1,374.7 268.3,373 C272.8,371.1 277.2,369.2 280.5,365.4 C282.5,363.2 285,361.9 288.4,363.3 C290.1,364 292.2,363.8 294.1,363.9 C300,364.1 306,364.1 312,364.3 C316.3,364.5 320.7,365.1 325,365.1 C331,365.1 337.1,364.7 343.1,364.3 C353.8,363.7 364.5,363.2 375.2,362.4 C382.1,361.9 389.1,361.2 395.9,360.1 C402.4,359.1 408.9,357.7 415.4,356.2 C421.2,354.8 427,353.1 432.7,351.3 C436.9,350 441.1,348.6 445,346.7 C450.7,343.9 456.3,340.7 461.9,337.7 C467.2,334.8 472.6,332 477.9,328.9 C483.3,325.7 488.6,322.4 493.9,318.9 C499.1,315.5 504.3,312 509.4,308.4 C512.7,306.1 516.3,304.1 519.1,300.9 C520.6,299.2 522.8,297.9 524.3,296.1 C528.3,291.3 532.2,286.5 535.8,281.5 C540.6,275 544.3,268 546.8,260.4 C551.1,246.4 552.5,232.1 552.1,217.7 L552.1,217.7 Z M470.6,154.8 C474.7,153.7 478.6,152.2 482.6,150.9 C483.2,150.7 483.9,150.5 484.6,150.3 C484.7,150.5 484.8,150.6 484.9,150.8 C483.4,152.9 481.9,155 480.3,157.1 C478.8,159.1 477,160.9 475.6,162.9 C471.5,168.8 467.1,174.2 461.8,179.1 C457.2,183.4 452.4,187.5 448,192.1 C443.9,196.4 438.9,199.4 434.3,203 C428.9,207.2 423.5,211.4 417.8,215.2 C410.5,220.2 403.4,225.5 395.4,229.3 C386.1,233.6 376.9,237.9 367.6,242.1 C366,242.8 364.1,243.1 362.4,243.6 C359.9,244.3 357,244.5 355,246 C352.8,247.6 350.4,248.1 348,249 C343.9,250.6 339.9,252.5 335.8,253.7 C331.3,255 326.6,255.6 322,256.5 C321.6,256.6 320.8,256.2 320.6,255.8 C317.9,250.4 315,245 312.6,239.5 C311.6,237.2 310.9,234.6 310.9,232.1 C310.8,229.2 309.5,227 308,225 C305.7,221.6 304.5,218 304.1,214 C303.9,211.5 303.4,209 302.7,206.5 C302.2,204.8 302.1,203.9 304.3,203.4 C310.4,202 316.4,200.4 322.4,198.6 C327.5,197.1 332.4,195.4 337.5,193.8 C342.4,192.2 347.3,190.5 352.3,188.9 C354.5,188.2 356.7,187.3 358.9,186.7 C364.3,185.3 369.7,184.1 375,182.6 C380.2,181.1 385.3,179.2 390.4,177.6 C393.2,176.7 396,176.1 398.8,175.2 C404.4,173.4 410,171.5 415.7,169.8 C421.5,168 427.3,166.2 433.1,164.6 C438.2,163.1 443.4,161.7 448.6,160.4 C455.8,158.3 463.2,156.7 470.6,154.8 L470.6,154.8 Z M452.6,157.9 C452.6,153.5 455.5,150.5 458.4,147.5 C459.3,146.6 460.3,145.7 461.3,144.9 C466.1,141 472.9,141.7 477.6,144.6 C478.9,145.4 479.4,147.8 480.1,149.5 C480.2,149.7 479.4,150.5 478.9,150.7 C472,152.7 465.1,154.8 458.1,156.7 C456.4,157.2 454.5,157.5 452.6,157.9 L452.6,157.9 Z M482.7,167 C482.2,171.4 481,175.8 480.5,180.2 C479.7,187 479.4,193.8 478.5,200.5 C477.1,211.1 475.3,221.8 470.8,231.5 C468.9,235.6 465.3,239.1 462.1,242.5 C461,243.7 458.6,244 456.8,244 C448.2,243.9 441.8,238.5 441,229.9 C440.5,224.3 441.1,218.6 441.5,213 C441.8,209.1 442.8,205.3 443,201.5 C443.2,198.4 444.9,196.7 446.9,194.8 C451.9,190.1 456.7,185.2 461.8,180.6 C469.5,173.6 475.6,165.2 482,157 C482.1,156.9 482.3,156.9 482.8,156.7 C482.8,160.4 483.1,163.7 482.7,167 L482.7,167 Z M299.9,206.3 C300.4,206.4 301.1,206.9 301.3,207.4 C301.7,208.8 302.2,210.2 302.2,211.7 C302.2,217.1 303.5,222 306.9,226.3 C309.1,229.1 309.1,232.1 308.6,235.5 C308,238.8 307.2,241.8 304.7,244.3 C300,249.1 293.9,250.6 287.8,251.7 C286.1,252 284.1,251.3 282.3,250.8 C275.4,248.7 270,244.1 264.8,239.2 C261.9,236.5 260,233.3 258.4,229.9 C257.7,228.4 256.7,227.7 255.1,228.1 C251.9,228.9 248.7,229.6 245.5,230.4 C244.1,230.8 243.6,231.6 244.2,233 C246.3,237.7 247.8,242.7 250.5,247 C253.4,251.7 257.4,255.6 262.1,258.9 C266.6,262.1 271.6,264.1 276.8,265.5 C283.5,267.2 290.1,266.8 296.9,265.4 C305.3,263.7 311.6,259 317.3,252.5 C317.9,254.4 318.6,256.1 319,257.8 C319.3,259 319.8,259.2 320.9,259 C327.2,257.2 333.6,255.6 339.9,253.7 C344.9,252.2 349.8,250.3 354.8,248.6 C354.9,249.1 355.3,249.7 355.2,250.1 C354.3,253.3 356.5,253.2 358.5,253.3 C363.9,253.5 369.4,253.5 374.8,253.9 C381.9,254.4 388.9,255.3 396,256 C400.7,256.4 405.5,256.6 410.2,256.9 L411.3,256.9 C415.1,257.3 415.3,257.3 416.2,253.7 C417,250.6 417.2,247.4 417.6,244.2 C417.6,243.9 416.8,243.1 416.3,243 C410.8,242.4 405.2,241.8 399.7,241.3 C397.3,241.1 394.8,241.1 392.4,240.8 C388.4,240.2 384.3,239.5 380,238.7 C388.6,233.9 397.9,230.8 405.8,225 C413.7,219.2 422,213.9 430.1,208.5 C429.6,215.7 428.8,222.8 428.7,230 C428.6,237.8 430.4,245.3 434.8,252 C436.3,254.3 438.3,256 441.1,256.7 C446.9,258.2 452.7,258 458.5,256.7 C460.2,256.3 461.7,255.2 463.3,254.5 C473.9,250.1 480.8,242.1 484.7,231.6 C487.2,224.8 489.7,218 491.3,211 C493,203.4 493.8,195.5 494.6,187.7 C495.4,180 496,172.2 496.4,164.5 C496.7,159.2 496.4,153.9 495,148.7 C493.6,143.6 490.6,139.5 486.4,136.1 C480.9,131.8 474.8,129.9 468,130 C464.9,130 461.9,130.2 458.8,130.6 C457,130.9 455.1,131.6 453.4,132.4 C445.5,136.4 440.5,142.7 438.6,151.5 C437.8,155.1 436.6,158.7 435.6,162.2 C429.9,163.9 424,165.6 418.1,167.4 C412.2,169.1 406.4,171 400.4,172.5 C398.3,173 395.9,172.3 393.6,172.2 C386.6,172 379.5,171.7 372.1,171.5 C372.8,160.7 373.5,150.4 374.1,139.9 C388.9,140.9 403.6,141.7 418,141.1 C418.8,136 419.5,131.5 420.3,126.5 C416.4,126.3 412.9,125.9 409.3,125.9 C399.7,125.8 390,126 380.4,125.6 C375.3,125.4 370.2,124.3 365.1,123.6 C364.2,123.5 363.3,123.3 362.5,123.5 C361.8,123.7 360.9,124.5 360.9,125.1 C360.4,130.4 360.2,135.8 359.7,141.1 C359.1,147.7 358.3,154.3 357.6,160.8 C357.5,161.8 357.5,162.9 357.4,163.9 C357.2,167.9 356.9,171.8 356.8,175.8 C356.7,179 356.8,182.2 356.8,185.4 C350,187.8 343.5,190 337,192.2 C335.3,188.9 332,188.2 329.7,186.6 C329.1,183.2 328.1,180 328,176.7 C327.9,174.8 328.8,172.5 329.9,171 C331.7,168.7 331.8,166 331.4,163.7 C330.6,159.1 331.5,155.1 333.2,151 C334.1,148.9 334.4,146.6 335.1,144 C337.6,146.8 339.1,149.8 339.5,153.3 C339.7,155.8 340.7,156.4 342.9,155.1 C344.5,154.2 345.8,153.9 347.7,154.6 C348.8,155 350.7,154.7 351.6,153.9 C352.4,153.3 352.6,151.4 352.4,150.3 C350.8,142.3 348.4,134.7 341.5,129.4 C340.1,128.3 338.5,127.6 337,126.6 C336.5,126.3 336.1,125.5 336.2,124.9 C336.7,121.5 337.3,118.1 337.8,114.7 C338.5,110.6 339.1,106.5 339.8,102.4 C340.7,97 341.6,91.6 342.6,85.9 C349.9,86.1 357,86.4 364.1,86.6 C365.4,86.6 366.8,86.2 368.1,86.3 C376.6,87 385.2,87.7 393.7,88.4 C399.7,88.9 405.7,89.4 411.6,90.2 C416.8,90.9 422,91.9 427.2,92.9 C433.1,94 438.9,95.2 444.8,96.4 C446.4,96.7 448,97.2 449.4,97.8 C457.2,101 465,104.1 472.6,107.7 C479,110.8 485.3,114.3 491,118.4 C495.5,121.7 499.2,126.1 503,130.2 C506.4,133.8 509.9,137.4 512.7,141.5 C517.6,148.6 522.4,155.9 526.6,163.5 C529.6,169.1 531.8,175.3 533.8,181.4 C535.8,187.5 537.6,193.8 538.7,200.1 C540.6,210.9 540.6,222 539.3,232.9 C538.5,239.7 537.2,246.5 535.3,253.1 C533.6,259 530.8,264.6 528.7,270.4 C525.8,278.4 519.4,283.9 513.9,289.9 C508.9,295.3 502.6,299.4 496.4,303.4 C495.4,304 494.6,304.9 493.6,305.6 C488.6,309.3 483.8,313.2 478.5,316.4 C472.1,320.3 465.5,323.8 458.7,327 C450.6,330.8 442.3,334.2 433.9,337.5 C427.7,339.9 421.2,341.5 415.1,343.9 C406.8,347.1 398.4,350.2 389.6,351.5 C386.8,351.9 383.9,351.9 381.1,352.1 C377.8,352.4 374.4,352.9 371.1,353.2 C365.4,353.7 359.7,354.2 354.1,354.4 C346.6,354.7 339.1,354.9 331.6,354.8 C324.1,354.7 316.5,354 309,353.6 C304.6,353.3 300.1,353.2 295.7,352.7 C290.5,352 285.3,351 280.1,350.1 C278.8,349.9 277.5,349.9 276.5,351.4 C272.6,357.2 267,361.2 260.9,364.2 C254,367.6 246.8,370.6 239,371.9 C235.9,372.4 232.8,372.9 229.6,373 C225.9,373.2 222.2,373 218.5,373.1 C216.5,373.1 214.5,373.6 212.5,373.4 C210.5,373.3 208.5,372.7 206.5,372.3 C204.9,372 203.4,371.6 201.2,371 C204,370 206.2,368.7 208.4,368.4 C213.6,367.6 218.1,365.2 222.3,362.3 C226.6,359.3 230.6,356.1 234.5,352.6 C237,350.3 239,347.4 241.3,344.8 C242,344 242.9,343.2 243.2,342.3 C243.8,340.3 243.1,339.5 240.1,338.1 C237.7,337 235.2,335.8 233.1,334.2 C229.8,331.7 227,328.8 223.7,326.3 C215.5,320 209.5,311.6 203.9,303.2 C197.9,294.3 192.8,284.7 189.7,274.2 C187.7,267.4 185.2,260.7 183.1,253.9 C180.6,245.8 178.5,237.5 178.6,228.9 C178.6,226.6 177.8,224.2 177.9,221.9 C178,217 178.2,212.1 178.9,207.2 C179.8,200.6 180.7,194 182.3,187.5 C183.6,182.5 185.4,177.5 187.8,173 C192.8,163.7 197.7,154.3 203.7,145.6 C208.5,138.7 215,133 222.2,128.2 C224.6,126.6 226.5,124.5 228.8,122.8 C232.2,120.3 235.6,117.8 239.2,115.7 C243.7,113.1 248.3,110.5 253.1,108.4 C258.7,106 264.6,104.1 270.7,101.9 C273.6,110.9 276.3,119.4 279,128.1 C274.2,128.6 269.7,129 265.2,129.6 C256.5,130.7 248.8,133.8 243,140.8 C235.9,149.3 233.4,159.2 233.8,170.2 C234.1,178.6 236.3,186 242.2,192 C244.1,194 246.6,195.8 249.2,196.7 C254.6,198.7 260.1,200.6 265.8,201.6 C275.1,203.3 284.6,204.4 293.9,205.8 C296.3,205.8 298.1,205.9 299.9,206.3 L299.9,206.3 Z M128.4,272.1 C129.1,270.5 129.8,269 130.5,267.5 C130.3,267.4 130,267.3 129.8,267.1 C129.3,267.7 128.9,268.3 128.4,268.8 C128.3,268.7 128.1,268.7 128,268.6 L129.8,265.6 C130.7,264.2 130.6,264 129.4,263.3 C128.9,261.9 131.3,260.8 129.1,259.8 C129,259.8 129.1,259.1 129.2,259 C131.3,257.1 129.2,254.8 129.9,252.7 C130,252.5 129.8,252.3 129.7,252 C143.1,248.6 156.3,245.2 169.8,241.8 C172.7,251.6 175.6,261 178.5,270.7 C162.2,273.7 145.9,273.6 129.7,274.6 C130,274.1 130.5,273.1 131.3,271.7 C130,271.8 129.3,272 128.4,272.1 L128.4,272.1 Z M130.3,281.7 C130.2,280.1 131.6,279 130.4,277.5 C130.1,277.1 131.1,275.4 132.8,275.4 C137.5,275.4 142.2,275.3 146.9,274.9 C156.8,274.2 166.6,273.2 176.4,272.4 C177.2,272.3 178.5,272.5 178.7,273 C179.7,275.4 180.4,277.8 181.3,280.2 C164.1,282.8 147.2,281.8 130.3,281.7 L130.3,281.7 Z M280.1,142.3 C283.9,142.6 284.5,143.1 285.5,146.5 C286.8,151.2 287.9,156 289.2,160.8 C291.3,168.8 293.6,176.9 295.7,184.9 C296.3,187.1 296.5,189.3 296.8,191.5 C291.7,190.9 287.1,190.4 282.5,189.7 C276.9,188.9 271.3,188.2 265.8,187 C261.3,186 256.9,183.9 253.8,180.4 C252,178.4 250.9,175.5 250.1,172.8 C249.4,170.3 249.4,167.6 249.2,165 C248.7,159.3 250.6,154.1 253.1,149.2 C254.9,145.8 258.2,144 262.1,143.2 C268,142.1 274,141.8 280.1,142.3 L280.1,142.3 Z M91.8,256.8 C95.5,256 99.2,255.4 102.8,254.6 C106.1,253.9 109.5,253.1 112.8,252.3 C105.7,257.4 97.6,261.2 88.9,258.4 C90.2,257.6 90.9,257 91.8,256.8 L91.8,256.8 Z M67.9,264.8 C68,265 68.1,265.2 68.1,265.4 C66,266.3 64,267.7 61.8,268.2 C55.7,269.5 54.5,269.3 51.3,267.5 C57.1,266.5 62.5,265.6 67.9,264.8 L67.9,264.8 Z M14,275.6 C19.6,272.6 32,269.5 38.9,269.2 C35.4,272.9 30.1,275.1 25.8,273.4 C23.8,272.6 22.4,273.6 21,274.7 C18.5,276.6 16.1,278.7 13.4,280.2 C12,281 10.1,280.9 7.9,281.3 C9.3,278.1 11.7,276.8 14,275.6 L14,275.6 Z M116.6,287.3 C115.6,287.4 114.5,287.9 113.6,288.3 C113.3,288.4 113.3,289.1 113.1,289.5 L114.3,289.5 C117.1,289.2 120,288.8 122.8,288.5 C122.8,288.8 122.9,289 122.9,289.3 C120.6,292.4 110.5,294 105.9,291.9 C106.3,291.5 106.7,291.2 107.3,290.6 L99.5,290.6 C100.3,289.5 100.8,289 101.1,288.4 C102.2,286.5 104.9,285.8 107,285.8 C109.3,285.7 111.6,284.9 113.9,284.1 C117.4,282.8 120.7,283.2 123.8,284.8 C124.4,285.1 124.8,286.1 125.6,287.2 C122.2,287.2 119.4,287.1 116.6,287.3 L116.6,287.3 Z M126.2,277.8 C121.9,277.5 117.6,276.9 113.4,277.2 C111.2,277.3 109,278.9 106.8,279.9 C105.9,280.3 104.9,281 104,281.1 C102.2,281.2 100.4,280.9 98.6,280.7 C97.2,280.6 95.7,280.3 94.3,280.3 C90.7,280.2 87.2,279.9 83.6,280.1 C81.6,280.2 79.7,281.2 77.7,281.3 C74.3,281.5 70.8,281.1 67.4,281.3 C64.9,281.4 62.2,281.6 59.9,282.6 C56.5,284.1 53.5,286.5 50.5,288.4 C51,288.8 53.7,288.5 55.1,287.6 C56.2,286.9 57.3,286.1 58.3,285.3 C60.5,283.8 62.7,282.9 65.5,282.8 C71.2,282.7 76.8,282.1 82.5,282.1 C88.6,282 94.6,282.3 100.7,282.5 C102.1,282.5 103.5,282.7 104.9,282.5 C106.1,282.3 107.5,282 108.2,281.2 C110.1,279.2 112.3,278.7 114.8,278.7 C117.3,278.7 119.8,278.8 122.3,279.1 C125.7,279.5 126.4,280.6 126.3,283.8 C124.4,283.3 122.4,282.9 120.4,282.4 C117.5,281.6 114.8,282.1 112.1,283.3 C110.3,284.1 108.6,285.2 106.5,283.9 C106.4,283.8 106.2,283.8 106.1,283.8 C103.9,283.8 99.2,287.3 98.5,289.3 C96.4,288.5 94.4,287.5 92.2,287 C87.6,286 83,285.1 78.4,284.7 C76,284.5 73.6,285.6 71.1,286.1 C69.4,286.4 67.7,286.7 66,287.1 C62.2,287.9 58.5,288.7 54.7,289.6 C54.4,289.7 54.2,289.9 54.1,290.7 C56,290.3 58,289.9 59.9,289.5 C58,291.3 56.6,293.5 53.6,293.9 C52.3,294.1 49.4,294.4 49.6,297.3 C49.6,297.6 48.9,298 48.5,298.3 C47,299.3 45.5,300.5 43.9,301.3 C42.9,301.8 41.6,301.6 40.5,301.8 C39.6,301.9 38.4,301.7 37.8,302.2 C34.1,304.7 30.2,304 26.2,303.5 C24.4,303.3 22.6,303.9 20.8,304.1 L20.8,304.7 C21.2,304.9 21.5,305.2 21.9,305.3 C25.5,305.4 29.2,305.6 32.8,305.4 C34.3,305.3 35.9,304.6 37.4,304.1 C38.2,303.9 38.9,303.6 39.7,303.3 C39.8,303.5 39.9,303.7 40,304 C37.5,305.2 35,306.4 32.4,307.5 C28.7,309 24.9,309.7 21,308.1 C20,307.7 18.6,308.1 17.6,308.4 C14.3,309.4 12.1,307.5 9,305.9 C11.9,305.3 14.2,304.9 16.4,304.4 L16.4,303.7 C15.7,303.6 15.1,303.4 14.5,303.5 C12.6,303.9 10.8,304.5 9,304.7 C8.1,304.8 7.1,304.1 6.1,303.7 C6.1,303.5 6,303.2 6,303 C7.2,302.4 8.4,301.9 9.6,301.3 C9.6,301.1 9.5,301 9.5,300.8 C8.1,301 6.6,301.2 5,301.5 C4.5,300.6 3.9,299.4 3,297.8 C5.1,297.3 7.1,296.9 9.1,296.4 C11.1,296 13.1,295.5 15,295.1 C14.4,294 14.4,294 12.5,294.2 C10.8,294.4 9.1,294.5 7.5,294.8 C5.9,295.1 4.4,295.6 2.6,296.1 C2.5,294.9 2.5,293.9 2.4,292.9 C3.2,292.6 3.9,292.4 4.8,292.1 C2.9,291.5 1.3,290.9 2.8,288.5 C9.6,287.6 16,285.2 21.8,280.8 C21.4,280.7 21,280.3 20.7,280.4 C19.9,280.6 19.1,280.8 18.5,281.3 C14.7,284.7 9.9,285.8 5.1,286.9 C4.4,287.1 3.7,287.3 2.6,287.7 C4.1,285.7 5.2,284.1 6.4,282.7 C6.7,282.3 7.4,281.9 7.8,282 C13.2,283.4 16.8,280 20.5,277.2 C22.7,275.6 24.2,274.7 27.3,275.3 C31.6,276.2 35.9,274.2 39.4,271.3 C43,268.4 46.9,266.9 51.3,269.3 C55.4,271.6 59.4,270.8 63.3,269.3 C67,268 70.9,266.8 74.4,264.9 C77.9,263 81.5,261.8 85.1,260.5 C86.3,260.1 87.1,259.6 88.7,260.4 C90.2,261.2 92.3,261 94.2,261 C96.5,261 98.9,261.2 101,260.4 C105.8,258.6 110.4,256.1 115.1,254 C116.2,253.5 117.4,253.1 118.6,252.9 C120.6,252.5 122.7,252.2 124.7,251.9 C125.2,251.8 125.7,251.8 126.3,251.8 C126.4,252 126.5,252.3 126.6,252.5 C125.2,253.4 123.9,254.2 122.5,255.1 C122.6,255.3 122.7,255.4 122.8,255.6 C123.9,255.5 124.9,255.3 126.3,255.1 C126.1,258.4 125.9,261.5 125.7,264.9 C120.4,262.8 115.5,265 110.4,265.4 L110.4,266.4 C112.5,266.3 114.7,266.1 116.8,266.1 C118.9,266.1 121,266.1 123.1,266.2 C125.3,266.4 126.2,267.6 125.8,269.5 C123.5,270.3 121.5,271 119.5,271.5 C118.2,271.8 116.8,271.8 115.5,272 C113.9,272.3 111.4,272.2 110.9,273.2 C109.8,275.2 108.3,275.9 106.4,276.3 C104.4,276.8 102.5,277.2 100.3,277.7 C101.4,279.5 103.1,278.6 104.1,278.3 C106.7,277.5 109.2,276.2 111.8,275.2 C112.9,274.8 114,274.4 115.1,274.1 C117.2,273.5 119.4,273.1 121.4,272.3 C124.7,271 126.4,271.8 126.7,275.3 C126.3,276.2 126.2,277.2 126.2,277.8 L126.2,277.8 Z" id="Shape" fill="#000000"></path>
                <path d="M249.8,312.3 C250.8,312.5 251.8,312.9 252.7,313.2 C256.2,314.6 259.7,315.9 263.7,315.1 C266.7,314.5 268.8,312.9 268.8,309.8 C268.8,307.3 268,304.9 267.5,302.3 C268.9,302 270.5,301.8 272.1,301.3 C274.6,300.6 276.2,298.6 276.8,296.2 C277.4,293.5 276.7,291 274.3,289.4 C271.2,287.4 267.9,285.4 264.5,283.8 C260.1,281.7 260.2,281.9 258.8,286.4 C257.6,290.2 256.2,294 254.6,297.7 C252.8,301.8 250.7,305.7 248.7,309.7 C248.3,310.9 248,312 249.8,312.3 L249.8,312.3 Z M261.1,286.3 C261.5,285.3 262.1,284.5 263.4,285.2 C266.4,286.9 269.6,288.4 272.6,290.1 C274.5,291.2 275.5,294.4 275,296.3 C274.4,298.3 272.4,299.9 269.7,299.7 C267.3,299.5 264.9,298.8 262.6,298.1 C260.9,297.6 259.2,296.7 257.6,296 C258.8,292.7 259.9,289.5 261.1,286.3 L261.1,286.3 Z M251.6,308.9 C253.1,305.5 254.7,302.2 256.2,298.7 C258.7,299.6 261.2,300.4 263.5,301.3 C265.4,302 267.9,308.5 267,310.7 C266.6,311.6 265.8,312.5 264.9,312.8 C263.5,313.3 261.8,313.7 260.4,313.4 C257.6,312.8 254.8,311.7 252.1,310.7 C251.8,310.6 251.4,309.4 251.6,308.9 L251.6,308.9 Z" id="Shape" fill="#000000"></path>
                <path d="M303.8,330.4 C304.8,327.1 306,323.9 307.2,320.4 C310.1,322.2 312.6,323.8 315.3,325.5 C313.9,328.7 312.4,331.8 311.1,334.9 C310.8,335.6 310.7,336.3 310.4,337.4 C314,336.2 314.1,333.3 315.1,331.2 C318.1,324.4 320.6,317.4 323.3,310.5 C324,308.7 323.6,308.3 321.7,308.5 C319.9,313.4 318.2,318.2 316.4,323.2 C313.7,321.6 311.3,320.2 309,318.7 C308.6,318.4 308.4,317.3 308.7,316.8 C310.2,313.2 311.9,309.7 313.3,306.2 C313.6,305.6 313.3,304.1 312.9,303.9 C311.4,303.2 311.4,304.6 311,305.5 C308.9,311 306.6,316.5 304.5,322.1 C303.2,325.6 302,329.1 300.7,332.9 C302.6,332.9 303.3,331.9 303.8,330.4 L303.8,330.4 Z" id="Shape" fill="#000000"></path>
                <path d="M291.3,315.2 C292.8,315.7 294.1,316 295.2,316.6 C295.7,316.9 296.4,317.8 296.3,318.2 C295.6,320.8 294.7,323.3 294,325.9 C293.7,327.1 293.5,328.3 293.3,329.6 C293.5,329.7 293.8,329.9 294,330 C294.7,329.3 295.9,328.8 296.2,328 C297.1,325.3 297.7,322.5 298.3,319.8 C299,316.8 299.6,313.7 300.2,310.7 C300.8,307.4 301.3,304 301.8,300.6 C301.9,300.2 301.3,299.3 301,299.3 C300.5,299.2 299.7,299.5 299.3,299.9 C298.5,300.9 297.9,302.1 297.1,303.2 C292.8,309.5 288.6,315.8 284.3,322.1 C284,322.6 283.7,323.2 283.5,323.7 C283.7,323.9 284,324.1 284.2,324.3 C288,322.3 288.7,317.7 291.3,315.2 L291.3,315.2 Z M299.1,303.6 C299.2,303.7 299.4,303.7 299.5,303.8 C298.7,307.4 297.9,311 297,314.9 C295.4,314.2 294.2,313.6 292.7,313 C294.9,309.6 297,306.6 299.1,303.6 L299.1,303.6 Z" id="Shape" fill="#000000"></path>
                <path d="M271.2,319.4 C273.5,320.4 275.6,321.7 277.9,322.6 C278.7,322.9 279.9,322.7 280.8,322.7 C280.8,322.4 280.8,322.1 280.9,321.8 C278.6,320.6 276.4,319.4 274.1,318.3 C273.1,317.8 272.7,317.5 273.3,316.2 C276.5,309 279.4,301.7 282.4,294.4 C282.6,294 282.3,293.4 282.2,292.9 C281.7,293.1 281.2,293.2 280.8,293.5 C280.5,293.7 280.5,294.1 280.3,294.5 C277,302 273.7,309.5 270.3,316.9 C269.9,318 269.9,318.7 271.2,319.4 L271.2,319.4 Z" id="Shape" fill="#000000"></path>
                <path d="M328.2,244.7 C333.4,243 338.6,241.1 343.8,239.2 C348.7,237.4 353.5,235.6 358.3,233.7 C362.8,232 367.4,230.3 371.9,228.4 C378.6,225.6 385.1,222.4 391.9,219.7 C398,217.3 403.2,213.5 408.7,210.2 C409.2,209.9 409.5,209.2 409.9,208.8 C409.8,208.6 409.7,208.5 409.6,208.3 C408.7,208.7 407.8,209 406.9,209.5 C403.4,211.6 400.1,214.1 396.4,215.8 C389,219.2 381.8,223.1 374.1,225.8 C366.1,228.7 358.2,232.1 350.3,235.1 C343,237.9 335.7,240.7 328.3,243.2 C325,244.3 321.6,244.8 318.2,245.6 C318.1,245.8 318.1,246 318,246.2 C318.6,246.4 319.2,246.8 319.7,246.7 C322.6,246 325.5,245.6 328.2,244.7 L328.2,244.7 Z" id="Shape" fill="#000000"></path>
                <path d="M470,159.6 C469.6,159.4 469.4,159.2 469.4,159.2 C458.9,169.7 449.3,181.2 436.1,188.7 C436,188.7 436.1,189 436.2,189.7 C450,182.3 460.2,171.3 470,159.6 L470,159.6 Z" id="Shape" fill="#000000"></path>
                <path d="M419.3,208.1 C421.6,201.8 424,195.6 426.3,189.3 C426.5,188.7 426.2,187.8 426.2,187.1 C425.9,187.1 425.5,187 425.2,187 C422.5,194.2 419.7,201.4 416.9,208.8 C418.2,209.5 418.8,209.5 419.3,208.1 L419.3,208.1 Z" id="Shape" fill="#000000"></path>
                <path d="M409.6,212.5 C410.1,212 410.8,211.6 411.2,211 C413.8,206.4 416.4,201.7 418.9,197 C419.4,196.1 419.5,194.9 419.9,193.3 C416.2,195.5 414.7,198.5 413.4,201.8 C412.1,205.2 410.5,208.5 409.1,211.8 C409.2,212.1 409.4,212.3 409.6,212.5 L409.6,212.5 Z" id="Shape" fill="#000000"></path>
                <path d="M330.8,237.3 C336.6,223.4 342.5,209.6 348.3,195.7 C348,195.6 347.7,195.4 347.4,195.3 C341.6,209.2 335.8,223.1 330,237 C330.3,237.1 330.5,237.2 330.8,237.3 L330.8,237.3 Z" id="Shape" fill="#000000"></path>
                <path d="M424.8,202.6 C425.2,202.3 425.9,202.2 426.1,201.8 C427.1,199.1 428,196.5 428.8,193.7 C428.9,193.2 428.6,192.6 428.4,192 L427.6,192 C426.4,195.1 425.2,198.2 424.1,201.4 C424.1,201.8 424.6,202.3 424.8,202.6 L424.8,202.6 Z" id="Shape" fill="#000000"></path>
                <path d="M335.7,209.8 C335.9,209.5 335.4,208.9 335.3,208.4 C334.9,208.8 334.3,209.1 334.1,209.6 C333.2,211.7 332.4,213.9 331.5,216 C330.4,218.5 329.1,220.9 327.9,223.4 C328.1,223.5 328.4,223.6 328.6,223.7 C331,219.1 333.4,214.5 335.7,209.8 L335.7,209.8 Z" id="Shape" fill="#000000"></path>
                <path d="M344.8,218.4 C345,218.5 345.2,218.6 345.5,218.7 C347.7,213.5 349.9,208.2 352.1,202.8 C350.4,202.9 350.4,203.2 348.2,210.2 C347.3,212.9 346,215.6 344.8,218.4 L344.8,218.4 Z" id="Shape" fill="#000000"></path>
                <path d="M109.8,268.3 C109.2,268.2 108.5,267.8 108.1,268 C105.5,269.6 102.7,269.2 99.9,268.8 C92.8,267.8 85.7,267.4 79.1,271 C77.6,271.8 76.1,272.8 74.6,273.7 C71,275.8 66.9,275.8 62.9,276.4 C62.3,276.5 61.7,276.8 61.1,276.9 C61.2,277.2 61.2,277.6 61.3,277.9 C65.2,277.3 69,276.6 72.9,276.1 C75.1,275.8 77.4,275.5 79.6,275.6 C82.9,275.8 86.3,276.8 89.5,276.5 C92.1,276.3 94.6,274.6 97.2,273.7 C101,272.3 104.9,271 108.7,269.5 C109.2,269.4 109.4,268.7 109.8,268.3 L109.8,268.3 Z M95,273.5 C89.8,276.4 84.5,275.2 79.3,273.9 C79,273.8 78.8,273.6 78.6,273.4 C78.5,273.3 78.4,273 78.3,272.7 C85.7,269 93.3,268.9 101.3,270.7 C99.1,271.7 96.9,272.4 95,273.5 L95,273.5 Z" id="Shape" fill="#000000"></path>
                <path d="M69.2,271.4 C71.2,270 74.7,271.1 75.6,267.8 C75.7,267.6 76.2,267.5 76.6,267.4 C78.5,266.7 80.4,265.6 82.4,265.2 C85.2,264.7 88.2,264.7 91,264.5 C91.6,264.4 92.2,264.2 92.8,264 C92.3,263.6 91.9,262.9 91.4,262.8 C87.6,262 83.8,262.5 80.2,264.1 C76.7,265.8 73.1,267.5 69.8,269.5 C63.9,273 57.6,274.1 50.9,274 C47.1,273.9 43.4,274.2 40.1,276.2 C39.2,276.7 38.4,277.5 37.6,278.2 C37.8,278.4 37.9,278.6 38.1,278.9 C41.4,276.4 45.2,275.6 49.2,275.5 C53.5,275.4 57.8,275.1 62.1,274.4 C64.4,273.8 67,272.8 69.2,271.4 L69.2,271.4 Z" id="Shape" fill="#000000"></path>
                <path d="M25.4,293.9 C27.2,294.3 29.2,294.7 31,294.5 C34.1,294.1 37.1,293.3 40.1,292.6 C40.3,292.5 40.4,292 40.9,291 C36.9,291.9 33.4,293.3 30,293.3 C26.5,293.3 23,291.9 19.3,291.1 C24.6,287.2 28.7,282 35.2,280 C35.1,279.7 34.9,279.4 34.8,279.1 C34.3,279.1 33.8,279.1 33.3,279.2 C29.1,280 26.2,283 22.8,285.1 C21.9,285.6 21.6,287 20.8,287.6 C17.8,289.8 14.3,290.8 10.6,291.2 C10,291.3 9.5,291.7 9,292 C9.9,292.6 10.6,292.8 11.3,292.7 C16.1,291.9 20.8,292.9 25.4,293.9 L25.4,293.9 Z" id="Shape" fill="#000000"></path>
                <path d="M43.4,281 C38.7,281.9 34.3,283.4 30.6,286.6 C30.1,287 30,287.8 29.7,288.4 C30.4,288.6 31.1,289 31.8,289 C33.2,288.9 34.7,288.4 36.1,288.3 C41.6,287.9 46.6,286.1 50.9,282.7 C51.4,282.3 51.9,282.1 52.2,281.9 C49.5,281.6 46.9,281.3 44.3,281 C44,280.9 43.7,280.9 43.4,281 L43.4,281 Z M32.4,287.4 C35.8,283.2 43.5,281.2 47.3,283.2 C43.1,287.2 37.7,286.5 32.4,287.4 L32.4,287.4 Z" id="Shape" fill="#000000"></path>
                <path d="M43.2,294.9 C38.1,298.6 32.2,299.9 26.1,300 C24.3,300 22.2,299.6 20.6,298.8 C17.4,297 14.2,298 11,298.3 C10.9,298.3 10.8,298.6 10.6,298.8 L12.3,298.8 C14.2,298.8 16.5,298.2 18.1,299 C22.9,301.5 27.9,301.6 33,300.6 C35.9,300 38.8,299.1 41.5,297.8 C43.8,296.7 45.9,295 48,293.6 C47.8,293.3 47.7,293 47.5,292.8 C46,293.4 44.5,294 43.2,294.9 L43.2,294.9 Z" id="Shape" fill="#000000"></path>
                <path d="M98.8,264.2 C100,264.4 101.3,264.6 102.5,264.5 C106.6,264.4 110,262.5 113.1,260.1 C115.3,258.4 117.7,258.4 120.2,259.1 C120.9,259.3 121.6,259.3 122.6,259.4 C120.9,256.7 116,256 113.5,257.7 C109.2,260.8 104.8,263.7 99,262.5 C98.7,262.4 98.3,262.9 98,263 C98.2,263.5 98.4,264.2 98.8,264.2 L98.8,264.2 Z" id="Shape" fill="#000000"></path>
                <path d="M167.4,247.3 C167.1,247.2 166.9,247.1 166.6,247 C163.1,254.2 159.6,261.3 156.1,268.5 C160.4,261.7 164.5,254.8 167.4,247.3 L167.4,247.3 Z" id="Shape" fill="#000000"></path>
                <path d="M159.4,253.6 L157.9,253.6 C156.3,257.2 154.9,260.5 153.5,263.7 C153.7,263.8 153.8,263.9 154,263.9 C155.8,260.6 157.5,257.2 159.4,253.6 L159.4,253.6 Z" id="Shape" fill="#000000"></path>
                <path d="M164.7,264.8 C164.9,264.9 165,265 165.2,265.1 C166.2,263.2 167.1,261.2 168.1,259.3 C167.8,259.1 167.4,258.9 167.1,258.7 C165.4,260.3 165.6,262.8 164.7,264.8 L164.7,264.8 Z" id="Shape" fill="#000000"></path>
                <path d="M84.5,272.8 C87,272.9 89.2,273.1 91.5,273.1 C91.9,273.1 92.4,272.4 93.3,271.6 C90,271.4 87.4,271.3 84.8,271.1 C84.7,271.8 84.6,272.4 84.5,272.8 L84.5,272.8 Z" id="Shape" fill="#000000"></path>
                <path d="M203.2,227.7 C203.6,227.1 204.2,226.3 204.6,225.6 C205.3,224.4 205.3,223.2 204.8,222.3 C204.2,221.3 203.2,220.9 201.8,221.4 C200,222.1 198.2,222.9 196.5,223.8 C194.2,225 194.3,225 195.2,226.8 C195.9,228.3 196.5,229.9 197,231.6 C197.6,233.4 197.9,235.4 198.4,237.3 C198.5,237.8 198.8,238.2 199.6,237.6 C200,237.3 200.5,237 201,236.7 C202.7,235.7 204.4,234.6 205.6,232.8 C206.5,231.4 206.8,230.1 205.9,229.3 C205.2,228.6 204.1,228.2 203.2,227.7 L203.2,227.7 Z M196,225.9 C195.8,225.5 195.8,225 196.5,224.7 C198.1,223.9 199.7,223.1 201.4,222.4 C202.4,222 203.8,222.4 204.2,223.1 C204.6,223.9 204.3,225.1 203.3,226.2 C202.4,227.1 201.3,227.9 200.2,228.6 C199.4,229.2 198.5,229.6 197.7,230 C197.1,228.5 196.5,227.2 196,225.9 L196,225.9 Z M205.4,231.6 C205,232.3 204.5,233.1 203.9,233.6 C202.7,234.6 201.3,235.4 200,236.2 C199.8,236.3 199.3,236.1 199.2,235.9 C198.7,234.4 198.3,232.8 197.9,231.2 C199.1,230.4 200.2,229.7 201.4,229 C202.3,228.4 205.2,229.2 205.5,230.2 C205.7,230.6 205.6,231.2 205.4,231.6 L205.4,231.6 Z" id="Shape" fill="#000000"></path>
                <path d="M226.2,207.6 C225.9,206.8 225.6,206.9 225,207.7 C225.8,209.8 226.6,211.8 227.4,213.9 C225.9,214.5 224.6,215.1 223.3,215.6 C223.1,215.7 222.7,215.4 222.6,215.2 L221.1,210.4 C221,210.1 220.5,209.8 220.3,209.9 C219.6,210.3 220,210.7 220.1,211.1 C221,213.5 221.8,215.9 222.7,218.3 C223.3,219.8 223.9,221.2 224.5,222.8 C225.2,221.9 225.2,221.4 224.9,220.8 C224.3,219.5 223.8,218.1 223.2,216.7 C224.8,216 226.2,215.5 227.7,214.8 C228.1,216.3 228.5,217.7 229,219.1 C229.1,219.4 229.3,219.7 229.5,220.1 C230.5,218.3 229.6,217.5 229.4,216.5 C228.5,213.5 227.3,210.6 226.2,207.6 L226.2,207.6 Z" id="Shape" fill="#000000"></path>
                <path d="M215.2,226.4 C215.2,226.7 215.3,226.9 215.4,227.2 C215.5,227.2 215.7,227.1 215.8,227.1 C216.7,225.1 215.5,223.5 215.7,221.8 C216.4,221.3 217,220.9 217.6,220.6 C217.9,220.5 218.4,220.4 218.5,220.6 C219,221.6 219.5,222.7 220,223.7 C220.2,224.2 220.6,224.6 220.8,225 C220.9,224.9 221.1,224.9 221.2,224.8 C221.3,224.3 221.5,223.7 221.4,223.4 C220.9,222.3 220.3,221.3 219.7,220.3 C219,219.2 218.4,218.1 217.7,217 C216.9,215.8 216.1,214.7 215.3,213.6 C215.2,213.5 214.7,213.4 214.6,213.6 C214.4,213.8 214.2,214.2 214.2,214.4 C214.2,215 214.3,215.6 214.4,216.2 C214.6,219.5 214.9,222.9 215.2,226.4 L215.2,226.4 Z M215.4,215.2 C216.2,216.5 216.9,217.8 217.8,219.3 C217,219.7 216.4,220.1 215.6,220.5 C215.5,218.7 215.3,217 215.2,215.4 L215.4,215.2 L215.4,215.2 Z" id="Shape" fill="#000000"></path>
                <path d="M214.2,227.9 L213.9,227.6 C212.7,228.2 211.5,228.7 210.3,229.4 C209.8,229.7 209.6,229.7 209.4,229.1 C208.4,225.8 207.3,222.6 206.2,219.4 C206.1,219.2 205.9,219.2 205.7,219.1 C205.6,219.3 205.4,219.6 205.4,219.8 C205.4,220 205.5,220.1 205.5,220.3 L208.5,230.5 C208.7,231.1 208.9,231.3 209.6,230.9 C210.7,230.3 211.9,229.7 213.1,229.1 C213.5,228.8 213.8,228.3 214.2,227.9 L214.2,227.9 Z" id="Shape" fill="#000000"></path>
                <path d="M218.6,266.9 C219,266.8 219.6,266.6 220.1,266.4 C220.9,266.1 221.4,265.4 221.5,264.7 C221.6,263.9 221.3,263.2 220.4,262.8 C219.3,262.3 218.1,261.9 216.9,261.6 C215.4,261.2 215.4,261.2 215.1,262.6 C214.8,263.8 214.5,265 214.1,266.1 C213.7,267.4 213.1,268.6 212.6,269.9 C212.5,270.3 212.4,270.6 213,270.6 C213.3,270.6 213.7,270.7 214,270.8 C215.2,271.1 216.4,271.3 217.7,270.9 C218.7,270.6 219.3,270 219.2,269.1 C219.2,268.4 218.8,267.7 218.6,266.9 L218.6,266.9 Z M215.8,262.4 C215.9,262.1 216.1,261.8 216.5,262 C217.6,262.4 218.7,262.7 219.7,263.1 C220.4,263.4 220.8,264.3 220.7,264.8 C220.6,265.4 220,266 219.1,266 C218.3,266.1 217.5,265.9 216.7,265.8 C216.1,265.7 215.5,265.5 215,265.4 C215.3,264.4 215.5,263.4 215.8,262.4 L215.8,262.4 Z M218.7,269.5 C218.6,269.8 218.4,270.1 218.1,270.2 C217.6,270.4 217.1,270.6 216.6,270.6 C215.6,270.5 214.7,270.3 213.7,270.1 C213.6,270.1 213.4,269.7 213.4,269.6 C213.8,268.5 214.2,267.5 214.6,266.4 C215.5,266.6 216.3,266.7 217.1,266.9 C217.9,266.9 218.9,268.8 218.7,269.5 L218.7,269.5 Z" id="Shape" fill="#000000"></path>
                <path d="M232.7,269.5 C233.1,268.4 233.5,267.3 233.8,266.1 C233.9,265.9 233.7,265.5 233.6,265.4 C233.1,265.3 233.1,265.7 233,266 C232.5,267.7 232,269.5 231.5,271.2 C231.2,272.3 230.9,273.4 230.6,274.6 C231.3,274.5 231.5,274.2 231.6,273.7 C231.8,272.7 232.1,271.7 232.4,270.6 C233.4,271 234.3,271.4 235.3,271.8 C234.9,272.8 234.6,273.8 234.2,274.8 C234.1,275 234.1,275.2 234.1,275.6 C235.2,275.1 235.2,274.2 235.4,273.6 C236.1,271.5 236.7,269.3 237.3,267.1 C237.5,266.5 237.3,266.4 236.7,266.6 C236.3,268.1 235.9,269.6 235.5,271.2 C234.5,270.8 233.7,270.5 232.9,270.2 C232.8,270 232.7,269.7 232.7,269.5 L232.7,269.5 Z" id="Shape" fill="#000000"></path>
                <path d="M229.5,264.6 C229.3,264.6 229.1,264.7 229,264.8 C228.8,265.1 228.6,265.5 228.4,265.9 C227.2,268 226,270 224.9,272 C224.8,272.2 224.8,272.3 224.7,272.5 C224.8,272.5 224.9,272.6 225,272.6 C226.2,271.9 226.3,270.5 227,269.6 C227.5,269.7 227.9,269.7 228.4,269.8 C228.6,269.9 228.9,270.1 228.8,270.2 C228.7,271 228.5,271.8 228.3,272.6 C228.2,273 228.2,273.3 228.2,273.7 C228.3,273.7 228.4,273.8 228.5,273.8 C228.7,273.6 229.1,273.4 229.1,273.1 C229.3,272.3 229.4,271.4 229.5,270.6 C229.6,269.7 229.7,268.7 229.8,267.8 C229.9,266.8 229.9,265.8 229.9,264.7 C229.8,264.8 229.6,264.6 229.5,264.6 L229.5,264.6 Z M228.8,269.4 C228.2,269.3 227.8,269.1 227.3,269 L229.1,266 L229.2,266 C229.1,267.1 229,268.2 228.8,269.4 L228.8,269.4 Z" id="Shape" fill="#000000"></path>
                <path d="M221.4,271.3 C221,271.2 220.9,271.1 221.1,270.7 C221.9,268.4 222.6,266.1 223.3,263.8 C223.3,263.7 223.2,263.5 223.2,263.4 C223.1,263.5 222.9,263.5 222.8,263.6 C222.7,263.7 222.7,263.8 222.7,263.9 C221.9,266.3 221.1,268.6 220.2,271 C220.1,271.4 220.1,271.6 220.5,271.7 C221.3,271.9 222.1,272.2 222.9,272.4 C223.2,272.5 223.6,272.3 223.9,272.3 L223.9,272 C223,271.9 222.2,271.6 221.4,271.3 L221.4,271.3 Z" id="Shape" fill="#000000"></path>
                <path d="M375,325.2 C375.3,324.9 375.8,324.5 376.1,324.1 C376.7,323.4 376.8,322.7 376.5,322 C376.2,321.2 375.6,320.7 374.7,320.8 C373.5,320.9 372.3,321 371,321.2 C369.4,321.5 369.5,321.5 369.8,322.9 C370.1,324.1 370.4,325.3 370.5,326.5 C370.7,327.8 370.7,329.2 370.9,330.6 C370.9,331 371.1,331.3 371.6,331.1 C371.9,331 372.2,330.9 372.6,330.8 C373.8,330.5 375,330.2 376,329.2 C376.7,328.5 377.1,327.7 376.5,326.9 C376.2,326.2 375.5,325.8 375,325.2 L375,325.2 Z M370.5,322.5 C370.4,322.2 370.5,321.9 371,321.8 C372.1,321.6 373.3,321.4 374.4,321.3 C375.1,321.2 375.9,321.8 376.1,322.4 C376.3,323 376,323.8 375.2,324.2 C374.5,324.6 373.7,324.9 372.9,325.1 C372.3,325.3 371.7,325.4 371.2,325.5 C370.9,324.5 370.7,323.5 370.5,322.5 L370.5,322.5 Z M376,328.3 C375.7,328.7 375.3,329.1 374.9,329.3 C374,329.7 373.1,329.9 372.1,330.2 C372,330.2 371.7,330 371.6,329.9 C371.4,328.8 371.3,327.7 371.2,326.5 C372.1,326.2 372.9,326 373.7,325.8 C374.4,325.6 376.1,326.8 376.2,327.5 C376.3,327.7 376.2,328.1 376,328.3 L376,328.3 Z" id="Shape" fill="#000000"></path>
                <path d="M388.5,323.3 C388.7,324.4 389,325.5 389.2,326.7 C389.8,326.3 389.8,325.9 389.7,325.5 C389.4,324.5 389.2,323.5 389,322.4 C390.1,322.3 391.1,322.2 392.1,322.1 C392.2,323.2 392.4,324.2 392.5,325.2 C392.5,325.4 392.6,325.6 392.7,326 C393.5,325 393,324.3 393,323.6 C392.7,321.4 392.2,319.1 391.8,316.9 C391.7,316.3 391.5,316.3 391,316.7 C391.3,318.2 391.6,319.8 392,321.4 C391,321.5 390.1,321.6 389.2,321.7 C389,321.7 388.8,321.5 388.8,321.3 C388.6,320.1 388.5,319 388.3,317.8 C388.3,317.6 388,317.3 387.8,317.3 C387.3,317.4 387.5,317.8 387.6,318.1 C387.9,319.7 388.2,321.5 388.5,323.3 L388.5,323.3 Z" id="Shape" fill="#000000"></path>
                <path d="M385.4,321.2 C385,320.3 384.6,319.3 384.2,318.4 C384.1,318.3 383.9,318.2 383.8,318.2 C383.6,318.3 383.5,318.5 383.4,318.7 C383.3,319.1 383.4,319.5 383.3,319.9 C383.2,322.3 383,324.6 382.9,327 L382.9,327.6 L383.2,327.6 C384,326.4 383.4,325.2 383.7,324.1 C384.2,323.9 384.6,323.8 385,323.7 C385.2,323.7 385.5,323.8 385.6,323.9 L386.2,326.3 C386.3,326.7 386.5,327 386.6,327.3 L386.9,327.3 C387,327 387.2,326.6 387.2,326.4 C387,325.6 386.7,324.8 386.4,324 C386.1,322.9 385.8,322 385.4,321.2 L385.4,321.2 Z M383.7,323.1 C383.8,321.9 383.9,320.7 383.9,319.6 L384,319.6 C384.4,320.6 384.7,321.7 385.1,322.8 C384.6,322.9 384.2,323 383.7,323.1 L383.7,323.1 Z" id="Shape" fill="#000000"></path>
                <path d="M379.4,327.9 C379,328 378.9,328 378.8,327.5 C378.5,325.1 378.1,322.7 377.7,320.4 C377.7,320.3 377.5,320.2 377.4,320.1 C377.3,320.2 377.2,320.4 377.1,320.5 L377.1,320.8 C377.4,323.3 377.8,325.8 378.1,328.2 C378.2,328.6 378.3,328.8 378.7,328.7 C379.5,328.5 380.3,328.4 381.1,328.2 C381.4,328.1 381.7,327.8 381.9,327.7 C381.9,327.6 381.8,327.5 381.8,327.5 C381.1,327.6 380.3,327.8 379.4,327.9 L379.4,327.9 Z" id="Shape" fill="#000000"></path>
                <path d="M342.6,288 C342.9,290.6 343,293.3 343.3,296 C343.4,296.8 343.6,297.4 344.7,296.9 C345.3,296.6 346,296.5 346.6,296.3 C349,295.7 351.3,295.1 353.3,293.2 C354.8,291.8 355.4,290.2 354.4,288.7 C353.6,287.5 352.4,286.6 351.3,285.5 C352,284.9 352.8,284.1 353.5,283.3 C354.7,282 354.9,280.5 354.4,279.1 C353.9,277.5 352.6,276.6 350.8,276.7 C348.4,276.9 346,277.1 343.6,277.5 C340.5,278.1 340.6,278.2 341.3,280.9 C341.8,283.3 342.3,285.7 342.6,288 L342.6,288 Z M353.7,289.9 C353.8,290.4 353.6,291.2 353.2,291.7 C352.6,292.5 351.8,293.3 350.9,293.7 C349.1,294.4 347.3,294.9 345.5,295.4 C345.2,295.5 344.6,295 344.6,294.7 C344.3,292.5 344.1,290.3 343.8,288 C345.5,287.5 347.1,287 348.7,286.6 C350,286.2 353.5,288.5 353.7,289.9 L353.7,289.9 Z M343.3,278.7 C345.5,278.4 347.7,278 349.9,277.8 C351.3,277.7 352.9,278.8 353.2,279.9 C353.6,281.1 353,282.6 351.4,283.5 C350,284.3 348.5,284.8 347,285.3 C345.9,285.7 344.7,285.9 343.6,286.1 C343.1,284 342.7,282 342.3,280 C342.3,279.5 342.4,278.9 343.3,278.7 L343.3,278.7 Z" id="Shape" fill="#000000"></path>
                <path d="M377.8,281.8 C378.2,284 378.7,286.2 379.2,288.5 C380.3,287.7 380.4,287 380.1,286.1 C379.6,284.1 379.2,282.1 378.7,280 C380.9,279.8 382.8,279.7 384.8,279.5 C385.1,281.6 385.3,283.6 385.6,285.7 C385.7,286.1 385.8,286.5 386,287.2 C387.6,285.3 386.7,283.8 386.5,282.4 C385.9,278 385,273.6 384.2,269.3 C384,268.2 383.6,268.1 382.7,268.9 C383.3,271.9 383.9,274.9 384.6,278.1 C382.6,278.3 380.8,278.5 379.1,278.6 C378.8,278.6 378.3,278.1 378.3,277.8 C377.9,275.5 377.7,273.2 377.4,270.9 C377.3,270.5 376.7,269.9 376.4,269.9 C375.4,270.1 375.8,270.8 375.9,271.4 C376.6,274.9 377.2,278.4 377.8,281.8 L377.8,281.8 Z" id="Shape" fill="#000000"></path>
                <path d="M367.4,290.2 C368.9,287.9 367.8,285.4 368.4,283.2 C369.4,282.9 370.2,282.6 371,282.4 C371.4,282.3 372.1,282.5 372.2,282.8 C372.7,284.3 373,285.9 373.4,287.4 C373.6,288.1 373.9,288.8 374.2,289.5 C374.4,289.5 374.6,289.5 374.7,289.4 C374.9,288.8 375.3,288.1 375.2,287.6 C374.8,286 374.2,284.4 373.7,282.8 C373.1,281.1 372.5,279.3 371.8,277.6 C371,275.7 370.2,273.9 369.4,272.1 C369.3,271.9 368.7,271.6 368.5,271.7 C368.2,271.8 367.8,272.3 367.8,272.6 C367.7,273.4 367.7,274.2 367.7,275 C367.4,279.6 367.1,284.3 366.8,288.9 C366.8,289.3 366.8,289.6 366.9,290 C367,290.2 367.2,290.2 367.4,290.2 L367.4,290.2 Z M368.9,274.7 C369,274.7 369.1,274.7 369.2,274.6 C369.9,276.7 370.6,278.7 371.4,280.9 C370.3,281.1 369.4,281.3 368.4,281.5 C368.6,279.2 368.7,276.9 368.9,274.7 L368.9,274.7 Z" id="Shape" fill="#000000"></path>
                <path d="M357.5,291.6 C357.6,292.4 357.8,292.8 358.8,292.6 C360.4,292.3 362,292.1 363.5,291.7 C364.1,291.6 364.6,291 365.1,290.7 C365,290.5 364.9,290.4 364.8,290.2 C363.2,290.4 361.5,290.7 359.9,291 C359.2,291.1 358.9,291.1 358.8,290.3 C358.2,285.6 357.4,280.9 356.7,276.3 C356.7,276 356.3,275.9 356.1,275.7 C355.9,276 355.7,276.2 355.6,276.5 C355.5,276.7 355.6,276.9 355.7,277.1 C356.3,281.8 356.9,286.7 357.5,291.6 L357.5,291.6 Z" id="Shape" fill="#000000"></path>
                <path d="M504.7,229.5 C505.6,230.3 506.5,231.2 507.3,232.1 C508.2,233.1 509,234.2 509.9,235.3 C510.2,235.6 510.4,235.8 510.8,235.3 C511,235 511.2,234.8 511.4,234.5 C512.2,233.6 513,232.6 513.3,231.3 C513.5,230.3 513.3,229.5 512.5,229.1 C511.8,228.8 511,228.8 510.3,228.7 L510.6,227.2 C510.7,226.3 510.4,225.6 509.8,225.2 C509.1,224.7 508.3,224.7 507.6,225.2 C506.6,226 505.7,226.7 504.8,227.6 C503.6,228.6 503.6,228.6 504.7,229.5 L504.7,229.5 Z M512.5,229.7 C512.7,229.9 512.8,230.3 512.8,230.6 C512.8,231.1 512.7,231.7 512.4,232.1 C511.9,232.9 511.2,233.6 510.6,234.4 C510.5,234.5 510.1,234.5 510,234.4 C509.2,233.6 508.5,232.7 507.8,231.8 C508.4,231.1 508.9,230.4 509.4,229.8 C509.9,229.2 512,229.2 512.5,229.7 L512.5,229.7 Z M504.9,227.9 C505.7,227.1 506.6,226.3 507.4,225.6 C507.9,225.1 509,225.2 509.4,225.5 C509.9,225.9 510.1,226.7 509.7,227.5 C509.4,228.2 508.8,228.9 508.4,229.5 C508,230 507.6,230.4 507.2,230.8 C506.4,230 505.7,229.3 504.9,228.6 C504.7,228.6 504.6,228.3 504.9,227.9 L504.9,227.9 Z" id="Shape" fill="#000000"></path>
                <path d="M516.5,215.5 C517.8,216.8 519,218.1 520.3,219.4 C521.1,220.2 521.9,221 522.8,221.8 C523,221.1 522.9,220.8 522.5,220.5 C521.7,219.8 521,219.1 520.2,218.3 C521.1,217.6 521.8,217 522.6,216.3 C523.3,217.1 524,217.9 524.7,218.7 C524.8,218.9 525,219 525.3,219.2 C525.4,218 524.6,217.6 524.2,217.1 C522.7,215.4 521.1,213.8 519.5,212.2 C519.1,211.8 518.9,211.9 518.7,212.5 C519.8,213.6 520.9,214.7 522.1,215.8 C521.3,216.5 520.6,217.1 519.9,217.6 C519.8,217.7 519.4,217.6 519.3,217.5 C518.5,216.6 517.7,215.7 516.9,214.9 C516.8,214.7 516.3,214.7 516.2,214.8 C516,215.1 516.3,215.3 516.5,215.5 L516.5,215.5 Z" id="Shape" fill="#000000"></path>
                <path d="M514.1,219.5 C515.3,221.5 516.5,223.6 517.7,225.6 C517.8,225.8 517.9,225.9 518,226 C518.1,225.9 518.2,225.9 518.2,225.8 C518.2,224.4 517,223.7 516.6,222.6 C516.9,222.2 517.2,221.8 517.5,221.5 C517.6,221.4 518,221.2 518.1,221.3 C518.7,221.8 519.3,222.4 520,222.9 L520.9,223.5 L521.1,223.3 C521,223 521,222.6 520.8,222.4 C520.2,221.8 519.5,221.3 518.8,220.8 C518,220.2 517.3,219.7 516.5,219.2 C515.6,218.6 514.8,218.1 513.9,217.6 C513.8,217.5 513.5,217.6 513.4,217.7 C513.3,217.9 513.3,218.1 513.4,218.3 C513.6,218.8 513.9,219.1 514.1,219.5 L514.1,219.5 Z M514.6,218.8 C515.5,219.5 516.4,220.1 517.3,220.8 L516.2,221.9 C515.7,220.9 515.1,219.9 514.6,218.8 C514.5,218.9 514.6,218.8 514.6,218.8 L514.6,218.8 Z" id="Shape" fill="#000000"></path>
                <path d="M509.6,223.7 C511.3,225.6 512.9,227.4 514.6,229.3 C514.9,229.6 515.1,229.7 515.4,229.4 C516,228.8 516.6,228.3 517.1,227.7 C517.3,227.5 517.4,227.1 517.5,226.8 C517.4,226.8 517.3,226.7 517.2,226.7 C516.6,227.3 516,227.8 515.4,228.4 C515.1,228.7 515,228.7 514.7,228.4 C513.1,226.6 511.4,224.9 509.8,223.1 C509.7,223 509.5,223 509.4,223 L509.4,223.5 L509.6,223.7 L509.6,223.7 Z" id="Shape" fill="#000000"></path>
                <path d="M419.3,296.2 C419.9,296.4 420.4,296.6 421,296.8 C423,297.7 425,298.6 427.4,298.3 C429.2,298.1 430.5,297.4 430.6,295.8 C430.7,294.5 430.3,293.2 430.2,291.8 C431,291.7 432,291.7 433,291.5 C434.5,291.2 435.5,290.3 436,289 C436.5,287.6 436.2,286.2 434.8,285.3 C433,284.1 431.2,282.9 429.3,281.9 C426.8,280.6 426.8,280.7 425.8,283 C424.9,285 423.9,286.9 422.8,288.7 C421.6,290.8 420.1,292.7 418.8,294.7 C418.4,295.4 418.3,295.9 419.3,296.2 L419.3,296.2 Z M427.1,283.1 C427.4,282.6 427.8,282.2 428.5,282.6 C430.2,283.6 432,284.6 433.7,285.6 C434.8,286.3 435.3,288 434.9,289 C434.5,290.1 433.2,290.8 431.6,290.5 C430.2,290.3 428.8,289.8 427.5,289.3 C426.5,288.9 425.6,288.4 424.7,288 C425.5,286.3 426.2,284.7 427.1,283.1 L427.1,283.1 Z M420.5,294.5 C421.5,292.8 422.6,291.1 423.7,289.4 C425.2,290 426.5,290.5 427.9,291.1 C429,291.6 430.2,295.1 429.5,296.2 C429.3,296.6 428.7,297.1 428.2,297.2 C427.3,297.4 426.3,297.5 425.5,297.3 C423.9,296.8 422.3,296.1 420.7,295.5 C420.6,295.4 420.4,294.8 420.5,294.5 L420.5,294.5 Z" id="Shape" fill="#000000"></path>
                <path d="M450.3,308.4 C451,306.7 451.9,305.1 452.8,303.3 C454.4,304.4 455.8,305.3 457.4,306.4 C456.4,308 455.4,309.6 454.5,311.2 C454.3,311.5 454.2,311.9 454,312.5 C456.2,312.1 456.4,310.5 457,309.4 C459.1,306 460.8,302.4 462.7,298.9 C463.2,298 462.9,297.7 461.8,297.8 C460.5,300.3 459.3,302.7 458,305.3 C456.5,304.3 455.1,303.5 453.8,302.6 C453.6,302.4 453.5,301.8 453.7,301.6 C454.7,299.8 455.9,298 456.9,296.2 C457.1,295.9 457,295.1 456.8,295 C456,294.6 455.9,295.3 455.6,295.8 C454.1,298.6 452.5,301.4 451.1,304.2 C450.2,306 449.3,307.8 448.4,309.7 C449.6,309.6 450,309.1 450.3,308.4 L450.3,308.4 Z" id="Shape" fill="#000000"></path>
                <path d="M438.7,303.8 C438.8,303.9 439,304 439.1,304.1 C441.4,303.3 442,300.9 443.7,299.7 C444.5,300 445.3,300.2 446,300.6 C446.3,300.8 446.7,301.3 446.6,301.5 C446.1,302.8 445.4,304.1 444.9,305.5 C444.6,306.1 444.5,306.8 444.3,307.4 C444.4,307.5 444.6,307.6 444.7,307.7 C445.2,307.4 445.9,307.2 446.1,306.7 C446.7,305.3 447.2,303.9 447.7,302.5 C448.2,300.9 448.8,299.4 449.2,297.8 C449.7,296.1 450.2,294.3 450.6,292.6 C450.7,292.4 450.4,291.9 450.2,291.9 C449.9,291.8 449.4,291.9 449.2,292.1 C448.7,292.6 448.3,293.2 447.8,293.7 C445,296.8 442.2,299.9 439.4,303 C439,303.2 438.8,303.5 438.7,303.8 L438.7,303.8 Z M448.8,294 C448.9,294 448.9,294.1 449,294.1 C448.4,295.9 447.7,297.8 447,299.8 C446.1,299.3 445.4,299 444.6,298.6 C446,297 447.4,295.5 448.8,294 L448.8,294 Z" id="Shape" fill="#000000"></path>
                <path d="M431.6,301 C432.9,301.7 434.1,302.4 435.4,303 C435.9,303.2 436.6,303.1 437.1,303.2 C437.1,303 437.2,302.9 437.2,302.7 C435.9,302 434.6,301.2 433.3,300.5 C432.7,300.2 432.5,300 432.9,299.4 C435.1,295.7 437.2,292 439.2,288.3 C439.3,288.1 439.2,287.8 439.1,287.5 C438.8,287.6 438.5,287.6 438.3,287.8 C438.1,287.9 438.1,288.1 438,288.3 C435.7,292.1 433.4,295.9 431.1,299.6 C430.9,300.2 430.9,300.6 431.6,301 L431.6,301 Z" id="Shape" fill="#000000"></path>
                <path d="M476.4,275.9 C476.6,277 476.6,278.2 476.7,279.3 C476.7,279.6 476.8,279.9 477.3,279.7 C477.6,279.6 477.8,279.5 478.1,279.4 C479.1,279.1 480.1,278.9 481,278 C481.6,277.4 481.9,276.7 481.5,276.1 C481.1,275.6 480.6,275.2 480.1,274.7 L481,273.8 C481.5,273.2 481.6,272.6 481.4,272 C481.2,271.3 480.6,270.9 479.9,271 C478.9,271.1 477.8,271.2 476.8,271.4 C475.5,271.7 475.5,271.7 475.8,272.8 C476.1,273.8 476.3,274.9 476.4,275.9 L476.4,275.9 Z M481.2,276.7 C481.2,276.9 481.2,277.3 481,277.5 C480.7,277.8 480.4,278.2 480,278.3 C479.2,278.6 478.5,278.8 477.7,279 C477.6,279 477.3,278.8 477.3,278.7 C477.2,277.8 477.1,276.8 477,275.8 C477.7,275.6 478.4,275.4 479.1,275.2 C479.6,275.1 481.1,276.1 481.2,276.7 L481.2,276.7 Z M476.7,271.9 C477.7,271.8 478.6,271.6 479.6,271.5 C480.2,271.4 480.9,271.9 481,272.4 C481.2,272.9 480.9,273.6 480.2,274 C479.6,274.3 478.9,274.6 478.3,274.8 C477.8,275 477.3,275 476.8,275.2 C476.6,274.3 476.4,273.4 476.2,272.6 C476.3,272.2 476.3,271.9 476.7,271.9 L476.7,271.9 Z" id="Shape" fill="#000000"></path>
                <path d="M491.6,273.1 C491.8,274 492,275 492.2,276 C492.7,275.6 492.7,275.3 492.6,275 C492.4,274.1 492.2,273.3 492,272.4 C492.9,272.3 493.7,272.3 494.6,272.2 L494.9,274.9 C494.9,275.1 495,275.3 495.1,275.5 C495.8,274.7 495.4,274 495.3,273.5 C495,271.6 494.6,269.7 494.3,267.9 C494.2,267.4 494,267.4 493.6,267.7 C493.9,269 494.1,270.3 494.4,271.6 C493.5,271.7 492.8,271.8 492,271.8 C491.9,271.8 491.7,271.6 491.6,271.4 C491.4,270.4 491.3,269.4 491.2,268.4 C491.2,268.2 490.9,268 490.8,268 C490.4,268.1 490.5,268.4 490.6,268.6 C491,270.1 491.3,271.7 491.6,273.1 L491.6,273.1 Z" id="Shape" fill="#000000"></path>
                <path d="M487.1,276.8 C487.8,275.8 487.3,274.7 487.5,273.8 C487.9,273.7 488.3,273.5 488.6,273.5 C488.8,273.5 489.1,273.6 489.1,273.7 C489.3,274.4 489.5,275 489.6,275.7 L489.9,276.6 L490.1,276.6 C490.2,276.3 490.4,276 490.3,275.8 C490.1,275.1 489.9,274.4 489.6,273.7 C489.3,273 489.1,272.2 488.8,271.5 C488.5,270.7 488.1,269.9 487.7,269.1 C487.7,269 487.4,268.9 487.3,269 C487.2,269.1 487,269.3 487,269.4 C486.9,269.7 487,270.1 487,270.4 L486.7,276.4 L486.7,276.9 C486.9,276.8 487,276.8 487.1,276.8 L487.1,276.8 Z M487.7,270.1 L487.8,270.1 C488.1,271 488.4,271.9 488.8,272.8 C488.3,272.9 488,273 487.5,273.1 C487.6,272 487.6,271.1 487.7,270.1 L487.7,270.1 Z" id="Shape" fill="#000000"></path>
                <path d="M482.8,277.4 C482.8,277.8 482.9,277.9 483.3,277.8 C484,277.7 484.7,277.6 485.3,277.4 C485.5,277.3 485.8,277.1 486,276.9 C486,276.8 485.9,276.8 485.9,276.7 L483.8,277 C483.5,277.1 483.4,277.1 483.3,276.7 L482.4,270.7 C482.4,270.6 482.2,270.5 482.1,270.4 C482,270.5 481.9,270.6 481.9,270.8 L481.9,271.1 C482.3,273.2 482.6,275.3 482.8,277.4 L482.8,277.4 Z" id="Shape" fill="#000000"></path>
            </g>
        </g>
    </g>
</svg>