<?xml version="1.0" encoding="UTF-8" standalone="no"?>
<svg xmlns="http://www.w3.org/2000/svg" height="332px" width="610px" version="1.1" xmlns:xlink="http://www.w3.org/1999/xlink" viewBox="0 0 610 332"><!-- Generator: Sketch 3.6.1 (26313) - http://www.bohemiancoding.com/sketch -->
 <title>Slice 1</title>
 <desc>Created with Sketch.</desc>
 <g id="Page-1" fill-rule="evenodd" fill="none">
  <g id="pay-for_illustration_16">
   <g id="Group">
    <path id="Shape" fill="#F47C46" d="m298.1 4.6l120.1-0.3 92.2-1.8 0.7 91.5-3.1 148.8 0.3 68.1-19 2.6-169.5-5.6-17.5 0.1 5-5.2 26.4-27 147.5-1.7-0.8-9.4 1.2-37.9-0.2-122.6 1.2-40.3-0.7-25.5-27.9 0.9-65-3-22.6-0.9-35.3 1.4-1.9 2.4v19.3l1.9 32.2 1.8 38.1 2.8 100.1-1.4 49.5-29.4 29.5-3.7-0.1-1.9-257.6-1.2-45.6z"/>
    <g id="Shape" fill="#000">
     <path d="m316.8 40.8l0.3 0.3-0.3-0.3z"/>
     <path d="m329 17.6c0 0.1 0.1 0.1 0.1 0.2 0-0.1 0-0.2-0.1-0.2 0.1-0.1 0.1 0 0 0z"/>
     <path d="m310 270c-0.2-6.9-0.1-13.7-0.2-20.6-0.1-8.5-0.3-16.9-0.4-25.4-0.1-5.5 0-11-0.4-16.5-0.4-7.3-0.3-14.7 0-22 0.3-5 0.5-10 0.6-15.1 0.1-4.1 0-8.3 0-12.5 0-3.4-0.1-6.8-0.1-10.2 0-5.2-0.2-10.4-0.1-15.5 0.1-4 0.5-8 0.5-11.9 0-8.6-0.2-17.2-0.3-25.8-0.1-3.4-0.2-6.8-0.2-10.2-0.1-6.1-0.1-12.1-0.2-18.2 0-3.3-0.3-6.5-0.2-9.8 0.1-4.8 0.4-9.5 0.4-14.3 0-6 0-12-0.2-18 0-2-0.3-4.1-0.4-6.2-1.8 0-1.5 1-1.5 1.7v14.9c0 3 0.2 6.1 0.1 9.1-0.1 4.9-0.4 9.7-0.4 14.6-0.1 4.3 0.1 8.6 0.2 12.9 0.1 4 0.3 8 0.3 11.9 0.1 4.5-0.2 8.9 0 13.4 0.4 8.1 0.6 16.1 0.3 24.2-0.3 6-0.3 12-0.3 18 0 10.5 0.2 21.1 0.2 31.6 0 3-0.2 5.9-0.3 8.9-0.2 7.7-0.4 15.3-0.5 23 0 2.9 0.3 5.9 0.4 8.8 0.2 10.9 0.4 21.9 0.6 32.8 0.1 4.6 0 9.3-0.1 13.9 0 3.3-0.3 6.7-0.1 10 0.3 5.3 1.2 10.6 0.7 16 0 0.5 0.1 1.1 0.1 1.6 1.9 0.3 2.5-0.1 2.4-1.3-0.3-4.6-0.8-9.2-0.9-13.8z"/>
     <path d="m315.3 39.6c0.5 0.4 0.9 0.7 1.4 1.1-0.3-0.5-0.6-1-0.9-1.5-0.2 0.1-0.3 0.2-0.5 0.4z"/>
     <path d="m316.8 40.8c0-0.1-0.1-0.1-0.1-0.2 0 0.1 0.1 0.1 0.1 0.2z"/>
     <path d="m504.5 15.7c0-0.4-0.5-1.1-0.9-1.2-0.7-0.2-1.2 0.4-1.2 1.1 0 2.1-0.1 4.1 0 6.2 0.1 2.8 0.5 5.6 0.4 8.4-0.4 9.2-0.9 18.3-1.3 27.5-0.2 4.1-0.2 8.1-0.2 12.2 0 3.3 0.3 6.7 0.3 10 0 7.4-0.1 14.9-0.2 22.3 0 3.7-0.1 7.3-0.1 11-0.1 7-0.4 14-0.2 21.1 0.2 7.2 0.1 14.4-0.5 21.5-0.3 3.3-0.6 6.7-0.6 10 0 3.1 0.3 6.2 0.4 9.3 0.1 4.6 0.1 9.3 0.1 13.9-0.1 8.1-0.3 16.3-0.4 24.4 0 2.3 0.3 4.6 0.2 6.9-0.1 6.2-0.5 12.5-0.5 18.7 0 6.1 0.2 12.1 0.5 18.2 0.2 6 0.7 12 1 17.9h-0.2v2.4 5.5c0 0.7 0.2 1.3 1.1 1.2 0.8-0.1 1.1-0.6 1-1.3v-0.2c-0.2-6.2-0.5-12.4-0.6-18.7-0.2-8.7-0.4-17.4-0.5-26.1-0.1-10 0.1-19.9 0.2-29.9 0-5.2 0.3-10.4 0.3-15.6 0-6.6-0.2-13.3-0.2-19.9-0.1-5.8-0.3-11.7 0.3-17.5 0.5-4.1 0.7-8.3 0.7-12.4 0.1-10.2 0-20.4 0-30.7 0-5 0.1-9.9 0.2-14.9 0-2.4 0.1-4.8 0.2-7.2 0.1-5.2 0.4-10.4 0.1-15.6-0.5-6.8-0.3-13.5 0.2-20.3 0.4-5.6 0.9-11.1 1-16.7 0.1-5.1-0.3-10.2-0.4-15.3-0.4-1.8-0.2-4-0.2-6.2z"/>
     <path d="m493.4 301.3h-8.1c-2 0-4-0.1-6 0.1-7.6 1-15.3 0.7-23 0.6-9.7-0.2-19.5-0.8-29.2-1.1-8.7-0.3-17.4-0.5-26.1-0.5-9.7 0-19.5 0.4-29.2 0.4-7.2 0-14.4 0-21.6-0.3-9.4-0.3-18.8-0.8-28.3-1.2-0.7 0-1.4-0.2-2.1-0.1-0.4 0.1-0.7 0.5-1.1 0.7 0.3 0.4 0.5 1 0.9 1.2s0.9 0.1 1.4 0.1c1.1 0.1 2.2 0.1 3.3 0.2 4.4 0.2 8.8 0.5 13.2 0.6 4.7 0.2 9.4 0.2 14.1 0.4 5.1 0.1 10.2 0.4 15.3 0.4 7.3 0 14.5-0.4 21.8-0.5 5-0.1 9.9 0 14.9 0 7.3 0 14.7 0 22 0.2 3.9 0.1 7.8 0.3 11.7 0.5 5.8 0.2 11.6 0.5 17.5 0.7 4.9 0.2 9.9 0.4 14.8 0.3 4.3-0.1 8.6-0.5 13.6-0.8 2.2 0 5 0 7.9-0.1 1.1 0 2.2 0 3.3-0.2 0.4-0.1 0.7-0.6 1-1-0.4-0.3-0.8-0.6-1.2-0.8-0.1 0.1-0.5 0.2-0.8 0.2z"/>
     <path d="m321.7 12.9c1.6 0.2 3.2 0.3 4.8 0.3 5.3 0.1 10.5 0 15.8 0.1 4.1 0.1 8.1 0.4 12.2 0.3 6.2-0.1 12.4-0.4 18.6-0.6 4.5-0.2 8.9-0.3 13.4-0.5 5.4-0.3 10.8-0.9 16.2-1.1 6.2-0.2 12.5 0 18.7 0 8.1 0.1 16.1 0.2 24.2 0.2 7.7 0.1 15.3 0.2 23 0.3 3.1 0 6.2 0.1 9.3 0.2 3 0.1 5.9 0.3 8.8 0.5 1 0.1 1.7 0 1.8-1.5-0.4-0.2-0.7-0.4-0.9-0.4-2.5-0.2-4.9-0.4-7.4-0.4l-20.4-0.3c-11.4-0.2-22.8-0.3-34.3-0.5-2.8 0-5.6 0-8.4-0.2-9.4-0.5-18.7 0.3-28 0.7-4.1 0.2-8.3 0.6-12.4 0.8s-8.3 0.4-12.4 0.5-8.1 0.3-12.2 0.3c-6.1-0.1-12.3-0.4-18.4-0.6-4.1-0.1-8.3-0.2-12.4-0.3-0.5 0-1 0.3-1.5 0.4 1 1.6 1 1.7 1.9 1.8z"/>
     <path d="m329 17.5v0 0c0.1 0.1 0.1 0 0 0z"/>
     <path d="m327.5 15.4c-0.1 0.1-0.3 0.2-0.4 0.4 0.6 0.6 1.3 1.2 1.9 1.7 0-1.1-0.9-1.5-1.5-2.1z"/>
     <path d="m404.2 115c0.2-0.4 0.8-0.9 0.7-1.3-0.5-3 0.3-5.5 2.7-7.4 0.1-0.1 0.2-0.2 0.3-0.4 1.2-1.4 2.8-1.8 4.6-1.8-2.1 1.1-4.6 1.8-4.7 4.9 1.2 0.3 2.2-0.1 3.2 0.3 0.5 0.2 1.7-0.9 2.5-1.4 0.2 0.9 0.2 1.8 0.7 2.4 1 1.4 3 1 3.9-0.6 0.4-0.7 0.3-1.9 1.5-1.9 1.5 0 1.7-1.1 2-2 1.5-0.5 3.4 0.3 4.2-1.9-0.5-0.1-0.9-0.3-1.3-0.2-2.1 0.5-4.1 0.2-6.1-0.6-1.6-0.7-3.3-1.3-5-1.4-7-0.3-11.3 5.7-10.3 12.4 0.1 0.3 0.8 0.6 1.1 0.9zm13-6.4c0 0.1 0.1 0.2 0.1 0.4-0.4 0.2-0.7 0.3-1.1 0.5-0.1-0.2-0.2-0.5-0.1-0.5 0.3-0.2 0.7-0.3 1.1-0.4z"/>
     <path d="m386.1 108.5c2.3-0.6 4-1 5.8-1.5 0 0.1 0 0.2 0.1 0.3-1.2 0.7-2.4 1.3-3.6 2l0.3 0.6c1.1-0.3 2.1-0.7 3.2-1 0.8 3.3 1.7 3.6 5.4 2.3 0.1 1 0.2 2 0.4 3 1.3 0.3 1.8-0.4 1.7-1.4-0.1-1.5-0.3-3-0.7-4.5-1.1-3.4-3.5-5.6-7.1-6.2-1.4-0.2-2.8-0.3-4.3-0.4-0.2 0-0.3 0.3-0.6 0.5 1 2 3.5 1.3 4.8 2.7-2 0.7-4.1 1.1-5.4 3.6zm9.6 0.3c-0.2 1.4-0.7 1.6-1.8 1.2 0.5-0.4 0.9-0.7 1.8-1.2z"/>
     <path d="m408.9 131.3c-1.7 0.7-3.5 1.3-5.3 1-1.6-0.2-3.1-0.7-4.7-0.7-1.4 0-2.8 0.5-4.2 0.8-0.6 0.2-1 0.7-0.6 1.2 0.2 0.3 0.9 0.4 1.4 0.3 1.1-0.1 2.2-0.6 3.2-0.5 1.5 0.1 3 0.4 4.5 0.7 0.4 0.1 0.8 0.3 1.2 0.5v0.5c-1 0.2-1.9 0.4-2.9 0.6-0.5 0.1-1.1-0.1-1.7 0-0.3 0.1-0.6 0.5-0.7 0.8-0.1 0.2 0.3 0.6 0.5 0.7 1.8 0.5 3.6 0.6 5.4-0.2 0.5-0.3 0.9-1.1 1.2-1.7 0.1-0.2-0.4-0.6-0.6-0.9 5.4-1.1 5.9-1.4 5.7-3.8-0.8 0.2-1.6 0.4-2.4 0.7z"/>
     <path d="m395.4 124.7c0.4-1.1 1.5-2 0.1-2.7-1.4 0.1-2.3 1.1-2.1 2.3 0.1 0.8 1.1 1.6 1.8 2.3 0.3 0.3 0.9 0.4 1.3 0.4 2.8 0 5.6 0.1 8.4 0 1.8 0 2.9-1.3 3.5-2.8 0.3-0.6 0-1.5-0.3-2.2-0.1-0.3-0.9-0.4-1.4-0.4-0.2 0-0.5 0.8-0.4 1.1 0.5 1.2-0.2 1.7-1.2 1.8-1.3 0.2-2.6 0.3-4 0.4-0.7 0-1.4 0-2.1-0.1-1.1 0-2.2 0-3.6-0.1z"/>
     <path d="m377.9 188.6v0 0z"/>
     <path d="m378 186.4c0.6-2 1.3-3.9 1.8-5.9 0.1-0.4-0.1-0.9-0.1-1.3-1.9 4.4-4.3 14.8-3.6 18.7 0.3-2.1 0.4-3.7 0.7-5.4 0.3-1.3 0-2.8 1.1-3.9 0-0.8-0.1-1.5 0.1-2.2z"/>
     <path d="m394.5 196c-0.1-2.5 1.2-4.7 1.1-7.2-0.2 0-0.4-0.1-0.6-0.1-0.3 2.4-0.7 4.8-1 7.2 0.2 0.1 0.3 0.1 0.5 0.1z"/>
     <path d="m389.3 186c-0.8 2.3-1.2 4.7-0.4 7.1 0.1-2.4 0.2-4.7 0.4-7.1z"/>
     <path d="m408.2 188.6c-1.3 1.6-1.2 3.5-0.9 5.2 0.3-1.7 0.6-3.4 0.9-5.2z"/>
     <path d="m405.7 188c-0.8 1-1.5 2-1.6 3.7 0.8-1.3 1.4-2.3 2-3.4-0.1-0.1-0.2-0.2-0.4-0.3z"/>
     <path d="m457.8 192.5c1 0.2 1.7 0.3 2.4 0.4 0-0.1 0.1-0.2 0.1-0.4-0.5-0.4-0.9-0.8-1.5-1.2-0.3 0.4-0.6 0.7-1 1.2z"/>
     <path d="m463.9 194.3c0.2-0.8 0.3-1.3 0.4-1.9-1 0.5-1.5 1-0.4 1.9z"/>
     <path d="m454 200c-0.4-0.3-0.7-0.6-1.1-0.9 0 1.1 0 1.1 1.1 0.9z"/>
     <path d="m455.3 197.9c-0.2 0-0.5 0.2-0.8 0.4l0.4 0.6c0.3-0.2 0.6-0.4 0.8-0.5-0.1-0.2-0.2-0.5-0.4-0.5z"/>
     <path d="m467.8 192.1c0.2 0.1 0.4 0.3 0.6 0.3s0.4-0.2 0.9-0.4c-0.6-0.2-0.9-0.4-1-0.3-0.3 0-0.4 0.3-0.5 0.4z"/>
     <path d="m352.1 238.6c0.3-1.3 0.6-2.1 0.9-3.4-2 1-1.2 2-0.9 3.4z"/>
     <path d="m476.6 253.6c-1.3 1-2.5 2.1-3.8 3.1 1.3 0.5 2.6-0.5 3.8-3.1z"/>
     <path d="m474.9 252.9c-0.3 0.4-0.5 0.8-0.9 1.4 0.6-0.5 0.9-0.8 1.3-1.1-0.1 0-0.3-0.2-0.4-0.3z"/>
     <path d="m431.6 196.3c1.1 0.2 1.1-0.5 1.4-1.6-1 0.5-1.5 0.8-1.4 1.6z"/>
     <path d="m431.6 196.4s-0.1-0.1 0 0c-0.1 0-0.1 0.1-0.2 0.2 0.1-0.1 0.1-0.2 0.2-0.2v0c0-0.1-0.1-0.1 0 0z"/>
     <path d="m430.6 198.1c0.3-0.5 0.5-1 0.8-1.5-0.4 0.4-0.8 0.8-1.2 1.3 0.1 0 0.3 0.1 0.4 0.2z"/>
     <path d="m413 260.1c0.1 0.6 0.2 1.1 0.3 1.7h2.7c-0.2-0.6-0.5-1.1-0.7-1.7h-2.3z"/>
     <path d="m405.1 260.9c1.7 0.1 3.5 0.2 5.2 0.3-1.7-0.9-3.4-1.2-5.2-0.3z"/>
     <path d="m466.5 182.6c0.2-0.1 0.4-0.2 0.4-0.3 0.6-2.2 0.4-4.4-0.2-6.6-0.1-0.4-1-0.6-1.8-1.1-0.1 2.4-0.3 4.4-0.3 6.4 0 1.1 0.2 2.2 0.3 3.3 0.2-2.5 0.5-5 0.7-7.5 1.1 1.8 0.6 3.8 0.9 5.8z"/>
     <path d="m346.3 214l-0.6-0.3c-0.3 0.9-0.6 1.7-1 2.6 0.1 0 0.2 0.1 0.3 0.1 0.4-0.8 0.8-1.6 1.3-2.4z"/>
     <path d="m456.2 155.5c-0.2-0.4-0.4-0.7-0.5-1.1-0.1 0-0.2 0.1-0.3 0.1 0.2 0.4 0.4 0.7 0.5 1.1 0.1 0 0.2-0.1 0.3-0.1z"/>
     <path d="m451.1 256.7c0.8 0.4 1.5 0.8 2.2 1.1-0.1-0.4-0.2-0.7-0.3-1.2-0.5 0.1-1.2 0.1-1.9 0.1z"/>
     <path d="m188.9 230.8c-3.2-1.2-6.3-1.8-9.6-1.5-0.1 0-0.3-0.2-0.3-0.3l3.3-26.7c6.6-0.3 12.8 0.9 18.9 1.6 1-2.1 0.9-2.1-0.1-3.3-4.8-5.6-9.6-11.2-14.4-16.9-2.5-2.9-4.8-5.8-7.3-8.8 1.1-3.9 2.2-7.6 3.3-11.3 1.1-3.8 2.2-7.6 3.3-11.6 2.2 0.1 3.4 1.4 4.6 2.5 3.4 3.3 6.7 6.7 10 10.1 2.6 2.7 4.5 2.9 7.6 0.9 1.4-0.9 2.7-1.9 4.1-2.7 2-1.1 3.8-2.7 6.3-3.1 0.3 0.6 0.6 1 0.8 1.4 2.3 4.8 8.9 5.6 12.2 1.3 1.5-2 2-4.9-1.2-6.4-0.6-0.3-1.2-0.6-1.7-0.8 0.8-1.5 1.4-2.8 2.1-4 0.6-1.2 0.2-2.1-0.8-2.9-2.1-1.6-4.7-1.3-6.9 0.9-0.9 0.9-1.7 1.9-2.9 3.3-0.5-3.8 0.8-7.8-3.6-9.9-1.1 2.7-2.4 5.4-2.3 8 0 2.4 1.4 4.8 2.2 7.4-2.7 1.6-5.8 3.5-8.9 5.2-2.4 1.3-3.5 1.2-5.3-0.5-3.3-3.2-6.6-6.4-9.9-9.7-0.5-0.5-0.8-1.1-1.3-1.9 11-2.8 19.6-7.8 21.1-19.8 2.5 0.2 4.9 0.8 7.1 0.5 1.8-0.2 3.3-0.4 5 0.3 3.2 1.1 5.8-0.3 7.3-3.4 1-2 1-4.1 1.1-6.3 0.1-2-0.5-3.7-1.9-5-1-0.9-2-1.7-3.1-2.5-1.2-0.8-2.2-1.6-2.9-3-1.1-2.3-3.1-3.6-5.6-4-1.6-0.3-3.3-0.1-4.9 0-1.1 0.1-2.2 0.5-3.1-0.7 3-3.2 3.9-7 3.8-11.1 0-2.6-1.5-4.1-3.6-5.3-1.9-1-3.3 0.1-4.8 1.1-1.9 1.2-3 3-3.8 5.1-0.4 1-0.8 2-1.3 3.1-0.9-1-1.6-2.3-2.5-2.6-1-0.3-2.2 0.4-3.5 0.7-0.2-0.5-0.6-1.1-0.7-1.6-0.7-3.3-2.8-5.7-4.9-8.1-0.6-0.7-1.7-1.3-2.6-1.3-3.7-0.1-7.7 4-7.9 7.7-0.1 1.9-0.3 3.9-0.4 5.8-4.7-2-4.7-2-9.6 0.7-0.5 0.3-1.2 0.6-1.7 0.5-2.8-0.4-5.3 0.7-7.6 2.1-1.4 0.8-2.5 1-4 0.6-3.9-1.1-6.7 0.1-8.4 3.7-0.8 1.7-1.8 2.9-3.3 3.9-2.4 1.7-4.4 3.8-5.5 6.5-1 2.5-0.8 4.6 1.2 5.8 1.6 1 3.6 1.3 5.4 2 1 0.4 2.2 0.5 3 1.1 3.8 2.7 7.3 2.4 10.9-0.7 0.6-0.5 1.6-0.9 2.4-1 2.2-0.2 4.5-0.3 6.9-0.4 0.6 2.9 0.9 6.1 1.9 9.2 1 3.2 2.1 6.5 4.7 8.9 2.3 2.2 5 4.1 7.5 6.2-7.6 4.1-16 4.7-24 6.7-1.2 0.3-1.9-0.4-2.5-1.4-1-1.6-1.9-3.2-3-4.6-3-3.9-6.1-7.8-8.2-12.3-0.3-0.6-0.6-1.4-1.2-1.8-0.4-0.4-1.2-0.4-1.8-0.6 0 0.6-0.3 1.4 0 1.9 1.1 2.1 2.4 4.1 3.6 6.1 3.2 5.4 7.9 9.8 9.8 15.9 4.9-1 9.5-1.8 14.1-2.9 4.5-1.1 8.9-2.6 13.6-4-0.1 0.8-0.1 1.4-0.3 2-1.2 4.1-2.7 8-3.4 12.2-0.7 3.7-2 6.7-5 9-3.1 2.4-5.9 5.1-8.9 7.6-1.7 1.5-3.6 2.7-5.3 4.2-3.5 3-7 6.1-10.4 9.1-0.6 0.5-0.9 1.2-1.6 2.1 6 0.8 11.6 1.6 17.3 2.4-0.1 1.5-0.1 2.9-0.3 4.3l-2.4 17.7c-0.2 1.2-0.5 2.5-2.4 2.9-0.8-1.1-1.7-2.3-2.6-3.5s-1.6-3-2.8-3.5c-2.8-1.3-5.7-2.4-8.7-2.9-3.1-0.6-5.5 2.3-5.3 5.6 0.3 5.5 5.8 9.2 10 9 3.5-0.1 7-0.3 10.7-0.5 0.7-1.1 1.6-2.5 2.3-4 0.3-0.6 0.5-1.4 0.6-2.1 0.9-5.9 1.7-11.8 2.6-17.7 0.3-1.7 0.6-3.4 0.9-4.8 4.1-0.2 7.8-0.4 11.8-0.6-0.4 11.4-1.8 22.3-4.3 33.1 7.2 0 14 0.1 20.8 0 0.5 0 0.9-0.8 1.4-1.2-0.5-0.4-1-1-1.5-1.2-2.7-0.3-5.3-0.3-7.5-1.2zm39.7-80.9c0.4 3.8-2.2 5.7-7 5.2 1.4-4.2 3.7-6 7-5.2zm-4.2 7.7c1.2 0 2.5-0.2 3.7-0.1 2.3 0.3 3 2.3 1.7 4.3-1.5 2.2-7.6 2-8.3-1.1-0.2-1.2-0.6-2.3-0.9-3.3 1.3 0.1 2.6 0.2 3.8 0.2zm-7.1-11.6c1.2 2.6 1.3 4.7 0.4 7.9-2.2-1.9-2.3-4.3-0.4-7.9zm-71-21.2c-0.1 0-0.2 0.1-0.3 0.1-2.4-0.3-4.8-1.1-5.6-3.6s1.2-4.2 2.5-5.9c0.5-0.6 1.2-1 2-1.7 0.8 1.9 1.9 3.5 2.1 5.3 0.3 1.8-0.4 3.7-0.7 5.8zm64.8-5.1c-0.1-0.2-0.2-0.3-0.3-0.5 0.4-0.2 0.8-0.5 1.2-0.7 0.1 0.1 0.2 0.3 0.3 0.4-0.4 0.2-0.8 0.5-1.2 0.8zm1.2 7.9c3.1 1.2 5.5 0.6 7.7-1.5 0.3 1.4 0.5 2.4 0.7 3.7-3.7 1.3-5.9 0.8-8.4-2.2zm12.9-3.2c-0.7 1.4-1.3 2.5-2 3.7-1-3-0.8-3.5 2-3.7zm2.9 6c-1.2 0.7-1.8 0.6-3.9-0.7 0.8-1.5 1.6-3 2.4-4.4 1.5 0.2 2.6 0.4 4.1 0.6 0.2 1.9-0.9 3.4-2.6 4.5zm2.6-7.4c-2.1 0.6-2.1 0.6-2.9-1.7 0.2-0.2 0.4-0.3 0.5-0.5 0.8 0.7 1.5 1.4 2.4 2.2zm-1.2-4.2c-3 0.8-3.2-1.8-5.1-3.1 2.5 0.4 3.7 1.7 5.1 3.1zm-5.2-1.4c0.2 1.1 0.6 1.9 0.4 2.5-0.5 1.1-2.1 1.3-4.3 0.7 1.1-0.9 2.2-1.8 3.9-3.2zm-2.3 0c-0.7 0.2-1.4 0.4-2.5 0.7 0.5-1.8 1.2-2 2.2-1.5 0.1 0.2 0.2 0.5 0.3 0.8zm-0.6-5c-1.2 0.8-2.5 1.6-3.9 2.4-0.2-1.3-0.4-2.5-0.7-3.6 2.3-1.3 3.1-1.1 4.6 1.2zm-6.6 9.4c1.1 1.2 2.3 2.3 3.5 3.5-0.7 1-1.9 1.7-3.4 0.8-0.8-0.5-1.7-1.2-1.9-2-0.4-1.3 0.7-1.9 1.8-2.3zm-1.5-10.8c-0.3 1.6-0.5 2.8-0.7 3.9-0.2 0.1-0.5 0.3-0.7 0.4-0.6-0.9-1.3-1.9-2.2-3.3 1.3-0.4 2.3-0.7 3.6-1zm-7.8-14.9c0.4-0.8 1.1-1.5 1.8-2.1 2.3-1.8 4.3-1.2 5.2 1.5 1.2 3.7-0.8 8.8-4.1 10.7-1.1 0.6-2.1 1.2-3.2 1.8-1.5 0.7-2.9 0.9-4.4-0.9 1.4-3.5 3-7.3 4.7-11zm-7.1 3.7c0.2 1.7 0.6 3.1 0.5 4.5 0 0.6-0.8 1.5-1.3 1.7-1 0.2-1.3-0.8-1.3-1.6 0.1-1.6-0.5-3.4 2.1-4.6zm-16.8-6.1c0.4-1.2 1.3-2.4 2.4-3 3.2-1.8 3.8-1.4 5.6 1.2 2.7 3.9 3.9 8.2 3.4 13-3.2-0.1-6.3 0.7-9.3-0.8-1.4-0.7-2.3-1.6-2.6-3.1-0.5-2.5-0.3-5 0.5-7.3zm6.3 15.4c-0.8 0.8-1.1 1.5-1.6 1.6-1 0.2-1.6-0.6-1.4-1.5 0.1-0.5 0.8-1.2 1.2-1.2 0.4-0.1 1 0.6 1.8 1.1zm-9.1-4.7c0.3 0.8 0.5 1.5 0.8 2.3-0.7 0.5-1.3 1.1-2 1.4-0.4 0.2-1.3 0.2-1.6-0.1s-0.4-1.1-0.3-1.6c0.5-1.2 1.4-2.1 3.1-2zm0.6 5c-0.4 1.1-0.6 1.8-0.9 2.9-0.7-1.3-1-2.2 0.9-2.9zm-3.1-7.7c-1.8 1.2-3.2 2.2-4.9 3.3l-1.7-1.7c1.9-1.9 3.7-3 6.6-1.6zm-6.2 6.4c0.5 0.3 1.1 1.2 1 1.6-0.2 1.2-0.7 2.5-1.3 3.6-0.8 1.3-1.9 2.4-3.1 3.8-1.2-2-1.5-4.1-1.6-6.3-0.1-2.5 3.4-3.7 5-2.7zm-3.7-4.1c-1.2 1.9-2.2 3.5-3.1 5-1.3-0.9-2.5-1.7-3.7-2.6 2-1.9 4-2.5 6.8-2.4zm-8.3 3.7c3.5 2 3.8 2.6 2.5 5.4-1.3 0.1-2.6 0.1-4 0.2-0.3-2.1-0.1-4 1.5-5.6zm2.8 7.8c-1.7 1.6-1.7 1.6-3.3-0.6 1.2 0.2 2.1 0.4 3.3 0.6zm-4.5-8.9c-0.4 0.9-0.9 1.7-1.3 2.7-0.3 0.8-0.6 1.7-0.8 2.4-1.8-0.6-3.6-1.3-5.4-1.9 0.2-3.5 3.5-5.1 7.5-3.2zm-8.5 5.7c2.9-0.6 6 1.1 6.4 3.7 0.1 0.5-0.5 1.1-0.9 1.9-0.9-1.2-1.5-2.1-2.2-3.1-0.9 0.5-1.7 0.9-2.6 1.3-1.4-1.1-1-2.5-0.7-3.8zm0.9 7.6h2.3c0.8 2-0.5 2.7-1.7 3.7-1.2-1.1-0.7-2.3-0.6-3.7zm1.7 6c1.2-2.2 2.1-4 3.2-6 1.3 0.3 1.1 2 2 2.8 1 0.9 2 1.7 3 2.6-3.4 3.1-5.6 3.2-8.2 0.6zm9.9-2.9c-3.1-1.2-3.1-1.2-4.1-4.4 1.7 0.1 3.3 0.1 5.5 0.2-0.5 1.6-0.9 2.9-1.4 4.2zm1.6 0.9l1.5-6.9c1.7 1.8 3.5 3.7 5.3 5.5-2.1 1.7-2.8 1.8-6.8 1.4zm8.2-5.1c-1.3-1.4-0.8-2.3 1-3.4-0.5 1.5-0.8 2.4-1 3.4zm1.2 11c-0.3-2-0.5-4-0.7-6.3 3.3-0.4 4.8-2.2 5.8-4.6 0.8-2 1.7-3.8 3.1-5.5 1.1-1.3 1.5-3.2 2.3-5.2 0.4 0.6 0.8 1 1 1.5 0.3 0.6 0.5 1.4 0.9 1.9 1.3 1.8 2.8 1.8 4.3 0.1 0.3-0.4 0.6-0.8 0.9-1.3 1 0.4 1.9 0.9 2.8 1.2 2.4 0.6 3.2 0 3.6-2.8 1 0.4 2 0.7 3 1-0.2 1.5-0.4 2.6-0.5 3.7 0 0.5 0.3 1 0.5 1.8-4.8-0.9-7 2.2-8.2 5.8-0.9 2.7 0.5 5.4 2.8 7.3 2.9 2.5 5.7 1.5 8.2 0 0.6-1.6 1-3 1.7-4.4 1.4-2.8 1-4.7-1.5-6.8-0.7-0.6-1.4-1.2-2.2-1.8 0.7-0.4 1.3-0.8 1.8-1.1 1.2 0.8 2.3 1.6 3.6 2.3 3.6 2.1 5.8 4.8 5 9.2-0.3 1.7-0.1 3.5-0.1 5.2-0.4 8.6-5.9 13.1-13.1 16.2-4.3 1.8-8.7 2.3-13.1 0-6.9-3.8-10.6-9.8-11.9-17.4zm-19.8 90.5c-1.8 0.7-2.5-0.6-3.4-1.3 1.1 0.4 2.1 0.8 3.4 1.3zm-4.1 2.1c1.7 1.1 3.2 2 4.6 2.9-2.1 0.8-3.1 0.3-4.6-2.9zm27-22.6c-7.2-0.1-14.2-0.7-21.3-2.5 6.6-7.9 15.6-12.9 23.1-19.7 1.6-0.1 2.6 0.8 3.7 2 5.5 6.8 11.2 13.4 16.7 20.1 0.2 0.3 0.5 0.6 1.1 1.4-2.8-0.2-5.1-0.5-7.4-0.6-5.3-0.2-10.6-0.6-15.9-0.7zm9.8 32.8v-0.8c0.6 0 1.3 0.1 1.9 0.1v0.4c-0.6 0.2-1.3 0.3-1.9 0.3z"/>
     <path d="m144.2 191.4c1.6-1.2 3.2-2.3 5-3.7-2.6-1.5-3.9 1.4-6.2 0.7 1.3-2.1 2.5-4.1 3.7-6-0.9-0.9-1.6-0.6-2.2 0.1s-1.1 1.5-1.6 2.2c-0.4 0.6-0.8 1.1-1.6 2.1 0-3 1.6-4.7 2.9-6.4-1.1-1.5-1.9-0.9-2.5 0.1-1.1 1.7-2 3.6-3 5.5-4.9-2.6-10.4-1.2-15.2-2.6-0.1-2.2 0.3-4.2-0.4-5.7-0.9-2-0.5-3.1 1-4.5 3.8-3.4 5.4-7.9 5.6-13 0.1-3.2-0.7-6.1-3.1-8.4-0.9-0.9-1.5-1.9-2.1-2.6 0.3-1.1 1-2.1 0.8-2.8-1.2-3.4-2.5-6.7-4-10-0.8-1.6-1.9-1.6-3 0-0.7 1-1.3 2.1-1.8 3.2-1 1.9-1.8 3.9-2.7 5.6-3.2 0.2-6.2 0.3-9.2 0.4-0.4-1.8-0.7-3.2-1-4.7-0.3-1.4-0.4-3.2-2-3.5-2-0.3-2 1.8-2.3 3.1-0.8 2.9-1.2 6-2.2 8.9-0.9 2.7-1.4 5.3-1 8.1 0.1 0.6-0.2 1.2-0.2 1.6-4.5 0.5-9 0.7-13.3 1.6-4 0.8-8 1.9-11.8 3.4-5.2 2-10.1 4.4-15.2 6.6-2.6 1.1-3 0.9-4.7-1.2-2.2-3-4-6.3-4.5-10-0.3-2 0-4.3 0.7-6.3 1-3 3.5-4.7 6.7-3.4 3.1 1.2 6.5 1.7 10 1.2 6.3-0.9 10.1-5.7 9-12-0.4-2.5-1.3-4.9-2.1-7.4-0.8-2.6-1-5.1 0.5-7.4 2.3-3.5 5.4-5.8 9.8-6.2 3.5-0.3 5.1 0.8 6.2 4.1 0.2 0.5 0.4 1 0.5 1.4 2 6 9.5 5.4 11.8 1.4 1.4-2.3 2.6-4.6 3.7-7.1 1.3-3.1 3.4-5.4 6.3-7 2.9-1.5 5.2-0.9 6.8 1.8 0.7 1.1 1.1 2.5 1.9 3.5 0.9 1.1 1.9 2.5 3.1 2.8 5.5 1.6 10.9-0.4 11.5-7 0.4-4.8-1.4-9.4-5.5-12.5-4.1-3-8.7-4.1-13.7-2.8-4.9 1.3-9 3.5-10.5 8.9-0.2 0.7-0.6 1.3-1 1.9-1.8 2.5-3.4 5.1-5.5 7.4-1.5 1.7-2.9 1.7-4.6 0.3-1.4-1.2-2.5-2.7-3.5-4.2-3-4.5-6.8-5.7-11.8-3.8-3.7 1.3-7.4 3.3-9.9 6.6-4.5 5.7-7.2 11.9-3.6 19.3 1.8 3.8 1.1 6.2-2.3 9.5-1.4-0.5-3-1-4.5-1.5-1.9-0.6-3.7-1.4-5.6-1.6-7-0.6-13.4 2.4-13.2 10.8 0 1 0.2 2 0.4 3 1.3 7.2 3.6 13.9 7.6 20 1.2 1.9 1.5 3.9 0.6 6.3-1.9 5.4-1.3 7.8 2.9 11.5 0.5 0.4 0.9 0.8 1.6 1.3-0.3 1-0.6 1.9-0.9 2.9-0.5 2.2-1.4 4.4-1.4 6.6-0.1 5.5 0.1 11.1 0.2 16.6 0 0.9 0.3 1.8 0.7 2.7 1.1 2.8 3.3 3.8 5.9 2.5 3.1-1.6 5.7-3.9 6.6-7.4 1.5-6.2 2.7-12.5 0.3-18.8 0-0.1 0.1-0.3 0.3-0.7 1.1 0.2 2.3 0.4 3.4 0.6 0.1 0.4 0.2 0.6 0.2 0.7 0.2 6.1 2.1 11.7 4.1 17.3 0.9 2.5 2.7 4.1 5.4 4.4 1.5 0.2 2.6-0.3 3.1-1.9 0.5-1.8 1.2-3.5 1.6-5.3 0.9-3.6 0.9-7.1-0.8-10.5-0.4-0.8-0.5-1.6-0.7-2.4 4.8 0.2 9.2 0.4 13.8 0.6 0.1 1.9 0.1 3.8 0.3 5.6 0.4 4.4 0.8 8.8 1.5 13.1 0.3 2.2 2.1 3.6 4.2 4 2.3 0.5 3.9-0.5 5.2-2.4 2.6-3.9 2.4-8.2 2.1-12.5-0.2-2.9-0.7-5.9-1.1-8.9 4.5-1.5 9-2.7 12.6-6 1.1 0.8 1.9 1.7 3 2.3 1.9 1 3.8 2.3 5.9 2.5 3.8 0.5 7.8 0.6 11.7 0.4 4.7-0.2 6.1-1.9 6.3-6.9zm-25.1-52.6c0.3 0 0.5 0 0.8 0.1 0.8 1.8 1.8 3.6 2.4 5.6 0.8 2.2-0.4 3.4-2.6 2.7-1.2-0.3-2.3-0.8-3.6-1.3 0.2-2.8 1.8-4.8 3-7.1zm-18.2 2.4h0.7c0.3 1.7 0.6 3.3 0.9 5.3-1.1 0.6-1.9 0.9-2.9 1.4-0.8-2.8 0.7-4.6 1.3-6.7zm2.8 7.3c2.3-0.8 4.3-0.9 6.6-0.4 1.1 0.2 2.2 0.1 3.4 0 1.9-0.1 3.7 0.2 5.2 1.4 0.3 0.2 0.7 0.6 1 0.6 3.6 0 4.7 2.9 6.3 5.2s2 5 1 7.7c-0.9 2.5-1.7 5.1-3.2 7.2-2.1 3.2-5.3 4.7-8.9 4.5-7.7 1.1-14.8-5.2-16-12.6-0.1-0.7-0.3-1.4-0.6-2-2.2-5.1 0-9.8 5.2-11.6zm-58.7 20.1c-3.3-5.5-5-11.7-6-18-0.5-2.9 1.1-7.2 5.5-8.6 3.4-1.1 6.7-0.7 9.9 0.6 1.7 0.7 3.5 1.2 5.2 1.9 1.4 0.6 2.2 0.2 3.1-1.1 1.7-2.4 3.5-4.7 3-7.8-0.2-1.8-0.6-3.8-1.6-5.2-1.4-2.2-0.9-4.3-0.6-6.5 0.5-3.6 1.8-6.9 4.6-9.2 2.6-2.1 5.4-4.1 8.4-5.6 3.8-1.9 7.3-0.5 9.9 3.1 1.6 2.2 3.4 4.4 4.8 6.2 5.1 0.6 7.7-2.1 9.7-5.5 1.6-2.7 3-5.6 4.4-8.5 1.3-2.6 3.3-3.9 6-4.9 3.6-1.2 6.9-1.4 10.5-0.3 5.3 1.6 9.3 7.4 8.6 12.8-0.3 2.4-2.2 4.7-4.4 5-3.8 0.4-4.6 0.6-6.6-2.5-0.7-1.1-1.3-2.4-2-3.5-2.1-3.1-5.6-4.1-8.9-2.2-3.8 2.2-6.8 5.1-7.9 9.7-0.5 2-1.9 3.9-3.3 5.5-2.2 2.4-6.2 1.8-7.9-1.1-0.6-1-1.1-2-1.4-3.1-0.6-2-2.1-3.1-4-3.5-3.6-0.7-7.1-0.4-10.3 1.9-6.6 4.8-6.7 10.7-4.5 16.2 1 2.5 1.9 5 1.2 7.8-0.8 3.4-3.4 6.1-7 6.5-3.1 0.4-6.2 0.3-9.2-0.7-0.7-0.2-1.4-0.4-2.1-0.6-2.3-0.7-4.1 0-5.5 1.8-2.7 3.4-3.5 7.4-2.4 11.6 1.2 4.4 3 8.5 6.4 11.9-0.7 0.6-1.3 1.1-2.1 1.8-1-1.9-2.3-3.9-3.5-5.9zm16.1 40c-0.2 1.8-0.8 3.6-1 5.4-0.5 3.5-2.8 5.6-5.4 7.5-1.6 1.1-2.9 0.7-3.7-1.1-0.5-1.1-1-2.3-1-3.5-0.1-5.5-0.2-11.1 0-16.6 0.1-2.2 1.1-4.3 1.8-6.7 2.5 0.8 4.4 1.2 6.1 2 0.7 0.3 1.4 1.2 1.7 2 1.6 3.4 2 7.2 1.5 11zm16 7.3c-0.7 1.8-2.1 2.2-3.6 0.9-0.6-0.5-1.2-1.2-1.5-1.9-2.1-5-3.8-10.2-4.1-15.7 0-0.3 0.1-0.6 0.3-1.3 2.4 0.4 4.6 0.7 6.8 1.3 0.6 0.1 1.2 0.8 1.5 1.3 2.4 5 2.6 10.2 0.6 15.4zm-8.7-20.6c0.6-1.3 1-2.2 1.5-3.2 2.4 0.7 4 1.7 5 4.7-2.5-0.5-4.3-1-6.5-1.5zm34 23.5c-1.1 2.7-3.8 2.9-5.5 0.6-0.4-0.6-0.9-1.2-1-1.9-1.1-5.3-2.2-10.7-1.5-16.2 0-0.4 0.2-0.8 0.3-1.2 2.5-0.3 5-0.5 7.5-0.8 0.2 0.5 0.5 0.8 0.6 1.2 0.4 4.3 0.8 8.6 0.9 12.9 0 1.9-0.6 3.7-1.3 5.4zm-7.7-21.4c0.4-1.5 0.8-2.9 1.2-4.2 4.5 0.5 4.5 0.5 5.3 3.9-2.1 0.1-4.1 0.2-6.5 0.3zm9.2-0.7c-0.3-0.7-0.7-1.4-1-2.1-0.7-1.7-1.8-2.9-3.8-3-0.7 0-1.4-0.6-2.3-1-2.3 0.6-2.9 2.9-3.4 4.9-0.5 1.9-1.4 2.4-3.2 2.3-4.2-0.3-8.4-0.4-12.8-0.6-0.8-4-3.4-6-6.7-7.4-0.5-0.2-0.9-0.5-1.4-0.5-1.4-0.2-2.7 1-2.1 2.1 0.8 1.5-0.1 2.3-0.3 3.5-3-0.2-5.5-0.8-7.8-2.6-1.4-1-3-1.7-4.5-2.6-0.3-0.1-0.7-0.3-0.9-0.2-1.7 0.9-2.9 0.1-4-1.1-1.4-1.5-2.3-3.1-2.2-5.2 0.1-2.3 0.9-4.4 2.6-6.1 0.9-0.9 2-1.8 3-2.7 0.8 0.3 1.5 0.5 2.5 0.8-0.1-2.4 1.5-3 3.1-3.7 4.6-2 9.1-4.3 13.7-6.2 7-2.8 14.4-3.9 22-3.9 2.2 0 2.6 0.5 3.3 2.9 1.1 3.4 2.6 6.4 5.4 8.8 3.4 2.8 7.3 4.1 11.7 3.8 1.7-0.1 3.5-0.4 5.3-0.7 0.3 0.7 0.7 1.3 1 2 1.3 3.3-0.2 6.3-3.8 6.3-1.8 0-3.6 0.4-5.4 0.7-0.1 3.1 2.5 4 3.4 6-2.4 2.3-6.9 4.5-11.4 5.5zm10.6-9.9c1.6-0.2 2.8-0.4 4.5-0.6-0.7 1.3-1.1 2.2-1.8 3.6-1-1.1-1.6-1.8-2.7-3zm27.1 7.2c-0.5 0.8-1.4 1.6-2.3 1.8-5 1.1-10 1.1-14.9-0.5-2-0.7-3.7-2.4-5.7-3.7 0.7-1.3 1.3-2.2 1.9-3.2 1.8-3.2 2-3.3 5.5-2.6 1.6 0.3 3.2 0.8 4.8 1.1 0.7 0.1 1.5 0.4 2.1 0.2 3-0.9 5.2 0.7 7.4 2.2 1.3 0.9 1.9 3.4 1.2 4.7z"/>
     <path d="m219.6 175.4c-1.7 0-3.1 0-4.2-1.8-0.5 0.7-0.8 1.1-1 1.5-1.4 5.2-4.5 9.3-8.3 13.1-0.5 0.4-0.6 1.2-1.1 2.1 6.6 2.1 12.7 5.1 20.1 4.9 0.8-6 2.6-11.4 5.3-16.5 0.3-0.6 0.1-1.3 0.2-2.1-3.7-1.4-7.4-1.1-11-1.2zm7.9 4.1c-1.2 3.7-2.4 7.4-3.6 11.1-0.7 2.1-0.8 2.4-3 2.1-4.1-0.5-7.9-2-11.8-4.1 1-1.6 2-3 2.9-4.4 0.9-1.5 2-2.9 2.6-4.5s1.8-2.4 3.2-2.4c3.3-0.2 6.5 0 9.8 0.8 0 0.6 0.1 1-0.1 1.4z"/>
     <path d="m92.6 234.6c-0.2-0.3-1.1-0.4-1.4-0.2-0.4 0.3-0.8 0.9-0.8 1.4-0.1 1.3 0.4 2.7-0.6 4.3-0.9-2.3-1.6-4.2-2.4-6.1-0.3-0.7-0.8-1.6-1.3-1.7-1.3-0.3-1.2 1.1-1.5 1.9-0.2 0.8-0.4 1.6-0.7 2.4-0.8 2.1-1.8 4.2-3.7 6-2.1-3.1-0.9-6.7-2.3-10-2.5 1.1-3.2 3.2-4.2 5s-2.3 3.5-2.9 5.4-2.6 3.3-2.2 5.7c0.8-0.5 1.4-1.1 1.7-1.9 1.5-2.7 2.9-5.5 4.3-8.2 0.5-0.8 1.1-1.6 1.8-2.6 0.8 3.3 1.4 6 2 8.6 1.5 0.7 2.5 0.4 3.3-0.7 0.6-0.9 1.2-1.9 1.7-2.9 0.7-1.4 1.4-2.8 2.2-4.2 2.3 2.3 1.8 6.1 5.4 7.5 0.6-2.1 1.1-4 1.9-6.8 2.3 2.4 4.2 4.4 6.4 6.7 0-0.6 0-1-0.1-1.2-1.1-3.6-4.3-5.6-6.6-8.4z"/>
     <path d="m132.8 214.3c-1.4-1.9-2.6-4-3.9-5.9-0.3-0.5-0.9-0.7-1.6-1.2-0.8 3 0.5 5.9-1.6 8.5-0.6-1.4-1.1-2.6-1.7-3.6-0.5-1-0.6-2.5-2.3-2.3-0.8 3.8 0 7.7-1.2 11.9-1.4-2-2.5-3.6-3.6-5.2-1.9 1.4-0.3 2.7-0.5 3.9-0.2 1.4-0.4 2.9-0.2 4.3 0.1 1.2-1.4 2.4 0.5 4 0.3-2.7 0.5-5.1 0.7-7.5 2.5 0.9 1.4 4.8 4.7 4.8 0.4-3.9 0.2-7.7 0.8-11.7 1.9 1.8 1 4.7 3.4 5.7 2.2-1.9 1.3-4.6 2.5-6.8 0.7 0.7 1.4 1.4 2 2.1s1 1.5 1.6 2.2c1.2 1.4 2.4 1.2 3.1-0.4-1.1-1-2-1.8-2.7-2.8z"/>
     <path d="m46.2 226.1c-0.3-0.4-1.1-0.3-2-0.5-0.1 2.9 1.1 5.4-0.4 8.3-1.2-2-2.3-3.6-3.2-5.2-1.3-2.3-2.4-4.8-3.6-7.1-0.5-1-1.1-1.4-2.4-0.5 0.2 4.6 0.4 9.4 0.7 14.6 2.2-1.5 1-3.3 1.2-4.8 0.2-1.6 0.2-3.3 0.2-5 0.8 0.4 1.1 0.9 1.3 1.4 1.3 2.5 2.7 5.1 4 7.6 0.5 0.9 0.9 2 2.2 1.8 1.4-0.2 1.6-1.4 1.8-2.6 0.2-0.9 0.3-1.7 0.6-3.2 1.2 1.8 2.2 3.2 3.2 4.6 0.8 1.1 1.4 2.2 2.3 3.3 0.6 0.8 1.5 1.1 2.3 0.1 0-0.2 0.1-0.5 0-0.6-2.8-3.9-5.4-8.1-8.2-12.2z"/>
     <path d="m205.6 221.6c-0.5-3.4-0.2-6.5-1.8-9.8-1.5 2.6-2.8 4.8-4.3 7.3-1-2.7 0.8-5.2-0.6-7.6-0.6 0.4-1.2 0.5-1.4 0.9-1.9 3.4-3.7 6.8-5.5 10.3-0.1 0.2 0.5 0.6 1 1.3 1.5-3 2.2-6.1 4.3-8.6 0.1 2.4 0.2 4.5 0.3 6.6 1.9 0.4 2.5-0.8 3.2-2s0.9-2.7 2.2-3.7c0.8 3 0.4 6 1.9 9 1.1-1.2 2-2.1 3-3.3 1.9 4.5 1.9 4.5 4.1 4.9-1.9-2.9-1.5-6.2-3.3-9.2-1 1.3-1.9 2.4-3.1 3.9z"/>
     <path d="m227.7 222.2c0.2-0.3 0.3-0.5 0.4-0.8 2.1-4.1 0.9-6.6-3.6-7.6-1.6-0.3-3.2-0.5-4.5-0.7-1.6 1.5-3 2.5-4.1 3.9-1.6 2-1.7 4.3-0.2 5.9 4.5 4.5 8.6 5 12-0.7zm-10.2-3.7c0.9-1.9 2.2-2.7 4.1-2.6 1 0 2-0.1 3 0.1 2.2 0.3 3.2 1.8 2.2 3.7-0.8 1.5-1.9 3-3.3 3.9-1.8 1.2-3.5-0.2-4.9-1.4-1.3-0.9-1.8-2.1-1.1-3.7z"/>
     <path d="m231.9 224.5c0.5 3.2 1 6.5 0 9.8-0.1 0.4 0.1 0.9 0.3 1.6 3-1.8 0.8-4.9 2.2-7 0.7 1.4 1.4 2.7 2.3 4.3 2.5-2.3 1.4-5.2 2.5-7.9 1.1 1.8 2 3.2 2.9 4.7 1.7-1.8 1.8-3.3 0.6-4.6-0.9-0.9-1.8-1.9-2.8-2.8-0.5-0.4-1.2-0.6-1.8-0.9-0.3 0.7-0.7 1.4-0.8 2.1-0.2 1.4 0.4 2.9-0.8 4.4-1.1-2.4-2.2-4.5-3.3-6.9-1.6 1-1.5 2-1.3 3.2z"/>
     <path d="m191.8 140c0.6-0.2 1.1-0.5 1.7-0.7 2.5-0.7 4.8-2.4 7.6-2.2 0.9 0 1.9 0.2 2.8 0.1 0.5-0.1 1.2-0.5 1.3-1 0.2-0.5 0-1.4-0.4-1.6-1.2-0.7-2.5-1.4-3.9-1.8-0.6-0.2-1.4 0.6-2.1 0.8-0.8 0.2-1.6 0.4-2.4 0.5-3.5 0.6-6.3-1.4-9.5-2.3-2.7-0.8-4.7-2.4-5.3-5.6-2.3 0.6-3.2 1.7-2.7 3.4 0.5 1.8 1 3.6 1.7 5.3 2.4 5.4 5.7 6.8 11.2 5.1z"/>
     <path d="m182.9 121.8c1.6 0.3 2.3-0.9 2.8-2.2-0.7-1.1-1.4-2.5-3-1.9-0.7 0.3-1.4 1.5-1.5 2.3 0.1 0.6 1 1.7 1.7 1.8z"/>
     <path d="m107.8 161.5c-2.6 1.1-3.5 2.7-3.3 5.5 0.2 2.4 1.9 3.8 4.2 3.1 1.3-0.4 2.6-1.2 3.7-1.8 1.2 0.4 2.3 1.2 3.6 1.3 2.6 0.2 4.6-1.7 5.1-4.4 0.4-1.8-1.1-4.2-3.4-4.8-3-0.7-6.2-2.1-9 0.8-0.2 0.3-0.6 0.2-0.9 0.3zm9.7 1.4c0.7 0.4 1.5 1.8 1.3 2.4-0.3 0.9-1.4 1.7-2.4 2-0.5 0.2-1.6-0.7-2-1.4-0.6-0.9-0.7-2.1-1.2-3.9 1.8 0.4 3.2 0.4 4.3 0.9zm-6.7 3.2c-0.4 1.5-1.7 1.8-2.9 1.6-0.5-0.1-1.3-1-1.4-1.7-0.3-1.2 0.5-2.2 1.6-2.6 0.8-0.3 1.8-0.2 3-0.4-0.1 1.2-0.1 2.2-0.3 3.1z"/>
     <path d="m104.9 157.7c1.3 0.5 3.3-0.2 3.9-1.6 0.3-0.7 0.5-1.5 0.6-2.1-0.2-0.8-0.3-1.3-0.5-1.8-0.7-2.1-2-2.6-3.5-1-0.8 0.8-1.5 2-1.8 3.1-0.5 1.5 0.2 2.9 1.3 3.4z"/>
     <path d="m118.2 156c0.6-0.4 0.9-1.2 1.3-1.9-2.2-0.8-2.6-0.8-3.1 0.2-0.3 0.5-0.1 1.3-0.1 1.9 0.7 0 1.5 0.1 1.9-0.2z"/>
     <path d="m258.2 299.3c-2.7-3.9-5.5-7.8-8.2-11.7-2.6-3.9-5.1-7.8-7.8-11.7-0.9-1.4-1.4-3.2-3.9-3.2-2.8 0-5.6-0.8-8.4-1.4-1.9-0.4-3.7-1-5.5-1.4-1.6-0.4-3.2-0.8-4.9-1.1-1.9-0.4-3.8-1-5.7-0.6-0.5 0.1-1.3 0.2-1.6-0.1-1-1-2.1-2.1-2.7-3.4-1.1-2.3-3.2-8-4.5-11.1 4-0.3 7.9-0.6 11.9-0.8 12-0.5 24-2 36.1-0.6 1.8 0.2 2.4-0.4 2.2-2.4-0.1-1.5-0.5-3-0.6-4.6-0.4-3.9-0.7-7.8-1.1-11.7-0.8-6.9-1.7-13.9-2.5-20.8-0.5-4.3-1-8.6-1.6-12.8-1-6.8-2.2-13.6-3.1-20.4-0.6-4.7-0.9-9.4-1.3-14.1-0.4-4.8-0.7-9.6-1.1-14.4-0.3-3.3-0.9-6.5-1.2-9.8-0.6-5.7-1-11.5-1.6-17.2-0.8-7.8-1.7-15.5-2.5-23.3-0.1-0.6 0.2-1.3 0.5-2.4 2.7 2.1 5.2 3.9 7.6 5.8 2.5-1.7 0.1-3.8 0.5-5.7 0.5 0.1 0.9 0.2 1.3 0.3 2 0.3 2.5-0.3 2.1-2.1-0.2-0.8-0.5-1.6-0.7-2.2 1-0.4 2.6-0.6 2.8-1.3 0.4-1.1 1-1 1.8-1.1 0.5-0.1 0.9-0.6 1.5-1.1-0.8-0.6-1.3-1-1.9-1.4-2.3-1.6-4.7-3-6.8-4.7-3-2.4-5.9-5.1-8.9-7.6-0.8-0.7-1.6-1.2-1.5-2.5 0.1-1.1-0.6-1.9-1.6-1.7-1.4 0.2-2.3-0.6-3.3-1.4-5.5-4.5-11-9-16.4-13.5-1.7-1.4-3.3-2.7-5.3-4.4-0.5 1.2-0.9 2.2-1.4 3.3-0.2 0-0.7-0.1-1.2 0s-0.9 0.2-1.6 0.4c0.3 1.2 0.6 2.2 1 3.5-1.4-0.4-2.5-0.7-4.2-1.1 0.3 1.7 0.5 3 0.8 4.2-1.2 0.4-2.6-1.7-3.5 0.6 0.5 0.8 1.4 1.6 1.6 2.5 0.4 2.2 2 3.1 3.7 4.2 1.4 0.8 2.9 1.7 3.6 3.4-9.6 2.5-155.4 13.7-159.9 12.7 1.8-2.3 3.6-4.4 5.4-6.7-1.6-1-1.7-1.1-2.3-0.6-1.2 1.2-2.5 1.1-3.9 0.5-0.3-0.1-0.7 0.1-1.4 0.2 1.5-2.3-0.8-1.7-1.4-2.7 0.5-0.8 0.9-1.7 1.6-3-1 0-1.7-0.1-2.3 0s-1.4 0.7-1.6 0.5c-1.7-1.3-2.6 0-3.7 0.9-2.2 1.8-4.6 3.4-6.6 5.4-1.9 2-3.6 4.2-5.2 6.5-1.2 1.7-2.6 2.5-4.6 2.5-3 0-5.9 0.3-9 0.4-0.6 2.6-0.5 5.1-0.1 7.5 0.6 3.5-0.5 6.3-2.9 8.9-3.6 3.8-7 7.8-10.4 11.8-0.3 0.4-0.6 1.2-0.4 1.6 0.1 0.3 1 0.4 1.5 0.5 0.4 0.1 0.9 0 1.4-0.1-0.2 0.9-0.4 1.7-0.6 2.6 0.9 0.2 1.7 0.4 2.4 0.6-0.3 1.2-0.6 2.3-0.9 3.7 2.2 0.1 3.6 0.8 4.1 2.9 0.2 0.9 1.3 1.1 2.1 0.5 0.9-0.7 1.7-1.5 2.5-2.3 1.1-1.2 2-2.5 3-3.7 0.2 0.1 0.5 0.1 0.7 0.2 0.1 1.3 0.1 2.6 0.2 3.9 0.5 5.7 1 11.5 1.6 17.2 0.7 6.6 1.6 13.3 2.1 19.9 0.8 10.4 1.4 20.7 1.9 31.1 0.7 13.5 1.3 26.9 1.7 40.4 0.3 8.2 0.2 16.4 0.3 24.6 0 1.3 0.1 2.7 0.2 4 0.2 2 1.2 2.9 3.1 2.2 4.9-1.8 10.1-1.8 15.2-2.4 10.1-1.2 20.3-1.9 30.4-2.7l24.6-2.1c5.2-0.4 10.4-0.9 15.7-1.3 9.2-0.8 18.4-1.5 27.7-2.3 9.6-0.9 19.2-1.9 28.9-2.8 3.1-0.3 6.2-0.5 9.2-0.7 3.2-0.2 6.4 0 9.5-0.3 4.2-0.3 8.4-0.7 12.6-1.1 2.3 1.7 3.5 4.3 4.1 7.2 0.3 1.5 0.3 3.1 0.8 4.5 0.9 2.6 3 3.9 5.6 4.7 0.7 0.2 1.9 0.4 1.7 1.8-0.3 2.5-0.2 5.1-0.6 7.6s-1 5.1-2 7.5c-0.6 1.3-0.4 2 0.2 3 1 1.7 2.1 3.4 3.2 5 1.2 1.8 2.5 3.6 3.6 5.5 1.6 2.7 3.1 5.5 4.7 8.2 2.4 4 5.8 7.3 7.8 11.6 1.3 2.8 3.1 5.3 4.6 8 0.4 0.7 0.4 1.5 0.8 2.3 0.2 0.5 0.6 1.1 1.4 0.7 0.7-0.3 1.4-0.7 2-1 2.8-1.6 5.6-3 8.2-4.8 5.7-3.8 11.3-7.7 16.9-11.5 1.5-1 2-2.5 1.2-3.6-2.4-3.5-4.9-7.3-7.5-11zm-7.8-208c-4.1 0.3-4.1 0.3-2.5 4 0.1 0.3 0.1 0.6 0.1 0.8-1.4 0.1-2.8 0.1-4.2 0.2 0.2 1.1 0.3 2 0.6 3.5-2.2-1.7-3.9-3-5.5-4.3-0.5-0.4-0.8-1.2-0.9-1.8-0.2-0.8-0.2-1.6-0.2-2.4-0.2-3.8-0.4-7.5-0.6-12 4.8 3.9 10.1 6.6 13.2 12zm-15.7-13.1c0.1 0.3 0.1 0.6 0.1 0.9 0.2 4.3 0.4 8.6 0.6 13.4-6.9-5.4-13.5-10.4-20.4-15.7 5.7-1.4 11-1.5 16.3-1.5 1.9-0.1 3.1 1.1 3.4 2.9zm-31.6-11.2c1.3 0.1 2.1 0.1 3.3 0.1-0.4-1.5-0.7-2.7-1-4.1 1.3 0 2.6 0.1 4.4 0.1-0.4-1.4-0.7-2.4-1.1-3.5 1.4-1.1 3.3 1.9 4.5-1 5.3 4.5 10.4 8.8 15.4 13.1 0.2 0.2 0.3 0.5 0.5 0.9-4.9 0.7-9.6 1.3-14.4 2-1.7 0.2-2.9-0.2-4.1-1.4-2.3-2.1-4.8-4-7.5-6.2zm-164.2 12.6c1.4 2 2.5 0 4-0.4-1.5 2-0.2 3.7 0.1 5.7 0.9-0.2 1.7-0.4 2.6-0.7 0 0.5-0.1 1.2 0.1 1.6s0.9 0.7 1.7 1.2c-1.2 0.7-2 1.6-3 1.7-5 0.8-10.1 1.4-15.2 2 0.9-2.4 4.2-7 9.7-11.1zm-24.5 46c-1.2 1.2-2.2 2.4-3.2 3.6-2.2 0.1-1.2-4-4.2-2.6 1-4.1 1-4.1-0.6-5-0.2-1.5-0.5-2.8-0.8-4.7 2.5-2.7 5.5-6 8.8-9.7 0.6 4.9 1.1 9.1 1.7 13.4 0.1 1.9-0.3 3.5-1.7 5zm2.2-31.7c1.9-0.2 3.8-0.5 5.7-0.7 0.3 0 0.5 0.1 1.2 0.3-2.2 2.5-4.2 4.9-6.2 7.3-1.1-2.4-1.2-3.6-0.7-6.9zm0.2 11.2c0-0.6 0.4-1.4 0.8-1.9 2.6-3.1 5.2-6.1 7.9-9 0.6-0.7 1.7-1.2 2.6-1.4 4.3-0.6 8.6-1 12.8-1.4 0.5 0 0.9 0 1.5 0.1-1.7 3.7-19.9 25.2-23.9 28.3-0.9-5-1.7-9.8-1.7-14.7zm164.1 148c-1.7 0.1-3.5 0.2-5.2 0.3-6 0.6-12.1 1.3-18.1 1.8-4.1 0.4-8.2 0.5-12.3 1-7.1 0.7-14.1 1.6-21.1 2.3-4.7 0.4-9.4 0.6-14.1 0.9-8.5 0.6-17 1.2-25.5 1.9-4.2 0.3-8.4 0.9-12.6 1.3-5.7 0.5-11.5 1-17.2 1.5l-24.3 2.4c-1 0.1-2 0.4-3.4 0.6-0.1-1.9-0.2-3.8-0.3-5.6-0.3-14.3-0.5-28.6-1-42.9-0.2-7.3-1-14.6-1.4-21.9-0.6-10.4-1-20.8-1.7-31.2-0.5-6.7-1.4-13.3-2-19.9-0.6-7.1-1.1-14.2-1.8-21.2-0.2-1.9 0.8-2.9 1.8-4 4.4-5.1 9-10.2 13.3-15.4 3.4-4 6.6-8.1 9.9-12.2 1.3-1.6 2.8-2.5 4.9-2.6 8.2-0.5 16.4-1.2 24.6-1.8 9.3-0.6 18.7-0.9 28-1.8 14.1-1.2 28.3-2.6 42.4-3.3 5.8-0.3 11.6-1.4 17.5-2 4.3-0.4 8.6-0.5 12.9-0.8 2.7-0.2 5.3-0.5 8-0.7 5.1-0.5 10.2-0.8 15.4-1.4 4.2-0.4 8.4-0.9 12.6-1.5 1.2-0.2 2.1 0.1 3.1 0.8 5.5 4.3 11.1 8.5 16.6 12.8 1.8 1.4 3.4 2.9 5 4.5 0.5 0.5 0.8 1.4 0.8 2.2l2.7 26.1c0.2 2.1 0.3 4.3 0.5 6.5 1.1 9.4 2.3 18.8 3.3 28.2 0.5 5.3 0.3 10.7 0.9 16 0.8 7.7 2.1 15.3 3.2 22.9 0.7 4.7 1.5 9.3 2.1 14 0.6 4.5 0.8 9 1.3 13.5 0.7 6.6 1.5 13.3 2.2 19.9 0.2 1.7 0.2 3.4 0.3 5.4h-3.6c-6.8 0-13.5-0.5-20.3 0.5-3.9 0.6-8 0.1-12 0.4-5.8 0.4-11.7 1-17.5 1.4-6 0.5-12 0.7-17.9 1.1zm40.1 21.6c1.1 0.5 2.3 2.3 2.1 3-0.3 0.8-0.7 1.5-1.6 1.6-1 0.1-1.8-0.4-2.3-1.2-0.2-0.3-0.2-0.6-0.3-1.1 1.5 0.1 2.4-0.6 2.1-2.3zm16.9 54.7c-1.6-2.7-3.2-5.3-4.8-8-1.9-3.3-3.7-6.7-6.2-9.6-1.3-1.5-2.3-3.4-3.4-5.2-2.5-4.1-4.9-8.2-7.4-12.3-1-1.7-2.1-3.4-3-5.1-0.3-0.5-0.4-1.3-0.2-1.8 1.7-5.2 2.5-10.5 2.4-15.9v-0.7c1.5 0.1 2.8 1.4 2.8 2.8 0 0.3-0.3 0.5-0.5 0.8-1.3 1.5-1.3 3.9 0 5.4 1.3 1.4 3.8 1.7 5.3 0.6 2.3-1.6 2.9-3.5 1.6-5.4-0.6-0.9-1.6-1.7-2.6-2-1-0.2-1.4-0.6-1.4-1.8 0.3 0.1 0.7 0.1 1 0.2 3.6 0.9 7.2 1.7 10.9 2.6 2 0.5 4 1.2 6 1.3 1.7 0.1 2.1 1.3 2.8 2.3 1.4 2.3 2.8 4.6 4.3 6.9 1.3 1.9 2.9 3.7 4 5.7 1.5 2.7 3.6 5 5.4 7.4 1.9 2.5 3.5 5.3 5.3 8 0.9 1.4 1.9 2.6 2.8 4 0.5 0.7 0.9 1.5 1.3 2.3-8.8 6-17.1 12.5-26.4 17.5z"/>
     <path d="m242.2 306.3c1.3-1.6 3.4-2.4 3.2-4.8-0.1-0.9 0.3-2-1.1-2.2s-1.6 0.8-2 1.8c-0.4 0.8-1.2 1.4-1.9 2.2-1.2-2.1-2.1-3.7-3-5.3-1-1.6-2-3.2-2.9-4.8 0.1-0.2 0.3-0.4 0.4-0.7 1.2 0.2 2.4 0.4 3.7 0.5 0.6 0 1.8-0.1 1.8-0.3 0.1-0.8 0.1-1.7-0.3-2.3-0.4-0.5-1.3-0.8-2-0.8-1.8 0-3.5 0.3-5.5 0.5-0.8-1.1-1.7-2.4-2.7-3.7-0.9-1.2-2.1-1.1-2.4 0.2-0.1 0.5 0.2 1.3 0.5 1.8 1.3 2 2.9 3.6 2 6.6-1.1 3.4-1.2 7.4 2.4 10 1.5 1.1 3.5 1.3 5.3 2 0.6 0.2 1.4 0.2 1.7 0.6 1 1.5 1.8 3.1 2.8 4.6 0.6 0.9 1.1 2.2 2.5 1.5 1.2-0.6 1.7-1.7 0.7-3-1.3-1.5-2.3-3-3.2-4.4zm-9.6-9.7c1.5 2.2 3 4.3 4.4 6.5-4.1-0.9-5.2-2.8-4.4-6.5z"/>
     <path d="m607.4 77.4c-3.3-0.6-4.5-0.7-7.8-1.2-4.1-0.6-8.2-1.2-12.3-1.8-2.7-0.4-5.3-0.8-8-0.9-6-0.3-11.9-0.3-17.9-0.6-1.8-0.1-3.4 0-4.4 1.8-0.1 0.1-0.2 0.2-0.3 0.2-2.7 2.3-5.5 4.6-8.1 7-2.2 2-4.6 2.8-7.7 2.3-4.1-0.7-6.9-3.1-9.4-6.3-1.9-2.4-3.8-4.9-5.8-7.2-3.5-3.9-8.7-5.4-13.7-4-0.1-6.3-0.2-12.6-0.3-19 0-4.7-0.1-9.4 0.1-14.1 0.1-5.7 0.5-11.5 0.7-17.2v-4.1c0-3.3 0-6.7-0.2-10-0.1-1.5-1-2.1-2.5-2-1 0.1-1.9 0.1-2.9 0.2-13.8 0.1-27.6 0.2-41.4 0.4-13 0.2-26 0.6-39.1 0.9-11 0.2-22 0.5-33 0.6-8.1 0.1-16.1-0.2-24.2-0.3-7.5-0.1-15-0.1-22.5-0.1-3.6 0-7.2-0.1-10.8-0.1-4 0-8-0.2-12-0.1-8.2 0.2-16.4 0.6-24.7 1-0.6 0-1.2 0.2-2 0.3-0.1 3-0.3 5.9-0.2 8.7 0.1 2.5 0.7 5.1 0.7 7.6 0.2 9.4 0.4 18.8 0.5 28.2 0.1 7 0.3 14 0.4 21 0 5.7-0.1 11.3-0.2 17-0.1 4.3-0.3 8.6-0.5 12.9-0.2 3.7-0.4 7.5-0.5 11.2-0.1 4.1-0.5 8.3 0 12.4 0.6 4.7 1.4 9.3 1.5 14 0.1 6 0.2 12.1 0.2 18.1 0 6.7-0.1 13.4-0.1 20.1 0 3.7 0.2 7.5 0.2 11.2 0 2.9-0.2 5.9-0.2 8.8 0 2.2 0.1 4.4 0.1 6.6v11.9c0 2.5 0.1 5 0 7.4-0.1 3.9-0.6 7.8-0.5 11.7 0.1 6.9 0.4 13.9 0.6 20.8 0.1 3.3 0.3 6.5 0.2 9.8 0 6.5-0.2 13.1-0.3 19.6v9.8c0 4 0 8-0.2 12-0.1 2.1 0.3 3.7 2.1 4.8 0.8-0.2 1.6-0.4 2.3-0.4 2.1-0.1 4.2-0.1 6.2 0 5.2 0.2 10.4 0.5 15.5 0.7 4.7 0.2 9.4 0.2 14.1 0.4 6.9 0.3 13.9 0.8 20.8 0.9 10.4 0.2 20.8 0.1 31.2 0.3 9.9 0.2 19.8 0.6 29.7 1 7 0.3 14 0.8 21.1 1.1 8.8 0.4 17.6 0.5 26.3 0.8 5.9 0.2 11.8 0.8 17.7 1 3.6 0.1 7.2-0.3 10.7-0.4 3-0.1 5.9-0.1 8.9-0.3 1.1-0.1 2.3-0.3 3.1-1 0.5-0.4 0.3-1.7 0.3-2.6 0.2-3.8 0.4-7.6 0.4-11.5-0.1-14.1-0.3-28.1-0.5-42.2-0.1-7-0.3-13.9-0.3-20.9 0-7.7 0-15.3 0.1-23 0.1-6.3 0.3-12.6 0.5-18.9 0.1-2.3 0.3-4.6 0.5-6.9 0.3-3.9 0.7-7.8 1-11.7 0.2-3.3 0.2-6.5 0.3-9.8 0.1-6 0.2-12 0.2-18 0-7.4-0.1-14.9 0.7-22.3 0.4-3.6 0.4-7.3 0.3-11 0-5.3-0.3-10.5-0.3-15.8 0-5.1 0.2-10.2 0.2-15.3 0-4-0.1-8-0.2-12v-2.9c1.1-0.2 2.2-0.5 3.4-0.5 1.4 0 3-0.1 4.2 0.5 1.8 0.9 3.4 2.2 4.8 3.6 2.6 2.8 5.1 5.8 7.4 8.9 2.4 3.1 5.4 4.9 9.2 5.1 2.9 0.2 5.2 1.6 7 3.7 1.9 2.2 3.3 4.7 4.2 7.4 0.6 1.6 1.5 3.1 1.8 4.8 0.3 1.8 0.9 2.6 2.8 2.8 3.8 0.3 7.5 0.8 11.2 1.2 2.2 0.2 4.4 0.4 6.6 0.7 2.8 0.3 5.7 0.7 8.5 1 4.3 0.5 8.6 0.9 12.9 1.4 2.3 0.3 4.6 0.6 7 1 1.1 0.2 2-0.1 2.3-1.4 0.1-0.4 0.3-0.8 0.4-1.2l1.2-10.2c0.7-5.3 1.5-10.6 2.1-15.9 0.1-1.1 0 0 0.4-1.7 0.8-1.1-0.2-1.5-1.8-1.8zm-301-71.6l30.9-0.9c8.5-0.2 16.9-0.7 25.4-0.7 8.1 0 16.1 0.7 24.2 1 3.5 0.1 7 0 10.5 0 5.3 0 10.7 0.1 16 0 6.3-0.1 12.6-0.4 18.9-0.6 4.5-0.1 9.1-0.2 13.6-0.2h15.1c8.1 0.1 16.3 0.3 24.4 0.4 5.4 0.1 10.7 0 16.1 0 0.7 0 1.4 0.1 2.5 0.1-0.7 0.7-1.1 1.2-1.6 1.4-5.5 3.2-9.9 7.4-13.2 12.9-2.2 3.7-4.6 7.3-5.9 11.5-0.4 1.2-1.2 1.8-1.9 2.6-0.1 0.2-0.6 0-1.2 0 2.2-4.7 4.8-8.8 7.3-13.1 2.5-4.2 5.6-7.9 9.1-11.5-0.4 0.2-0.9 0.4-1.2 0.7-3.9 3.1-6.7 7-9.3 11.2-2.3 3.7-4.5 7.5-6.8 11.2-0.6 1-1.1 2-2.8 1.4 3.3-6.1 6.5-12.2 9.8-18.3-1.5 1.2-2.4 3-3.3 4.6-2.4 3.9-4.8 7.8-6.9 11.7-1.1 2-2.5 2.8-4.8 2.4 2.8-5.8 5.7-11.5 9.2-16.9-1.9 1.4-3.1 3.3-4.2 5.2-1.5 2.6-3 5.3-4.5 7.9-0.5 0.8-1.1 1.6-1.5 2.5-0.7 1.5-1.8 1.9-3.6 1.4 2.7-5 5.3-9.9 8-14.9l-0.2-0.2c-0.3 0.3-0.7 0.7-0.9 1-2.3 3.8-4.6 7.7-6.9 11.5-0.4 0.7-1 1.2-1.5 1.8-0.9 1.1-1.9 1.2-3.4 0.8 3-5.1 6-10.1 9-15.1-0.1-0.1-0.2-0.1-0.3-0.2-1.1 1.5-2.2 3-3.3 4.6-1.9 2.9-3.9 5.8-5.7 8.8-1.2 2-2.8 2.6-5.2 2 2.4-3.5 5.1-6.5 6.3-10.6-0.3 0.3-0.6 0.6-0.9 1-2.2 2.8-4.4 5.7-6.5 8.6-0.9 1.3-2 1.6-3.8 1.1 1.7-2.9 3.4-5.7 5.1-8.5-0.1-0.1-0.2-0.1-0.3-0.2-0.3 0.3-0.7 0.5-0.9 0.8-1.7 2.4-3.3 4.7-4.9 7.1-0.7 1-1.4 1.4-2.9 0.9 0.8-1.4 1.6-2.8 2.6-4.5-1.4 0.3-1.9 1.2-2.2 1.9-1.2 2.1-2.8 2.8-5.1 2.5-4.8-0.6-9.7-1.1-14.5-1.4-6.1-0.3-12.3-0.2-18.4-0.2-2.4 0-4.8-0.1-7.2-0.1-4.1-0.1-8.1-0.3-12.2-0.4-4.5-0.1-8.9 0.1-13.4-0.1-3.9-0.2-7.8-0.8-11.7-1.1-1.1-0.1-1.8-0.6-2.5-1.6-1-1.5-2.1-2.9-3.9-3.5 0.9 1.5 2.2 2.8 2.8 4.6-1.4 0.4-2.2-0.1-2.9-0.9-1-1.2-2.2-2.3-3.4-3.4-0.3-0.3-0.8-0.3-1.4-0.2 1.2 1.4 2.5 2.8 3.7 4.2-2.5 0.8-2.9 0.7-4.4-1.1s-3.1-3.6-4.7-5.5c-0.3-0.4-0.8-0.7-1.4-0.8 1.8 2.4 3.6 4.9 5.4 7.5-1.5 0.6-2.2 0.3-3-0.8-1.8-2.4-3.7-4.6-5.6-6.8-0.3-0.3-0.7-0.5-1.3-0.5 1.9 2.6 3.9 5.3 5.9 8-2.4 0.7-2.4 0.7-3.6-1-2.2-2.9-4.5-5.8-6.8-8.7-0.5-0.6-1.1-1.2-1.9-1.6 2.7 3.7 5.4 7.3 7.6 11.3-1.4 0.8-2 0.2-2.7-0.7-2.6-3.4-5.4-6.7-8.1-10-0.2 0.1-0.3 0.2-0.5 0.3 0.3 0.5 0.6 1.1 0.9 1.6 1.7 2.3 3.5 4.5 5.2 6.8 0.5 0.7 0.9 1.5 1.3 2.3-1.5 0.8-2.3 0.3-3-0.8-2-3.1-4-6.1-6.1-9.2-0.6-0.9-1.4-1.7-2.2-2.5 0.5 1.1 1 2.3 1.6 3.4 1.5 2.6 3.2 5.2 4.8 7.7 0.3 0.5 0.5 1.1 0.8 1.7-1.2 0.8-1.7 0.3-2.3-0.7-2.5-4.5-6.1-8.1-9.5-11.8 2.5 4.5 6.2 8.2 8.6 13-0.9 0.1-1.5 0.3-2.3 0.4-2.8-6-6.9-11.1-11.5-15.7 3.6 4.8 7.3 9.5 9.7 15-0.9 0.7-1.5 0.5-2-0.2-0.6-0.8-1-1.6-1.6-2.4-2.7-4.3-5.4-8.5-9.2-11.9-3.7-3.3-7.7-6.2-11.6-9.2-0.3-0.2-0.6-0.4-1.3-1 1.7 0.1 2.5 0 3.4-0.1zm179.5 71.3h0.5l-0.3 11.1c-0.2 0-0.4 0.1-0.6 0.1 0.1-3.8 0.3-7.5 0.4-11.2zm-3.1 196.2c0 1.1-0.1 2.2-0.7 3.1h-0.6c-0.1-0.8-0.4-1.5-0.4-2.3-0.1-4.5-0.2-9.1-0.2-13.6s0.3-8.9 0.5-13.4c0.1-2.2 0-4.3 0.1-6.5 0.1-2.1 0.3-4.3 0.4-6.4 0.1-1.4 0-2.8 0-4.2 0.1-2.4 0.2-4.8 0.2-7.2 0.1-7.3 0.2-14.7 0.4-22 0.1-6.1 0.3-12.1 0.6-18.2 0-0.6 0.3-1.2 0.7-1.7-0.1 3.1-0.2 6.1-0.2 9.2 0.1 4.5 0.5 8.9 0.6 13.4 0.1 3.4 0 6.8-0.1 10.3-0.2 7.4-0.5 14.8-0.7 22.3-0.2 8.3-0.5 16.6-0.6 24.9v12.3zm-152.9-7c-0.3-1.4-0.2-2.7 0.7-3.7-0.4-0.8-0.9-1.5-1-2.2-0.1-3.6-0.4-7.2 0.1-10.7 0.3-2.2-0.2-4.5 0.8-6.7 0.6-1.4 0.1-3.4 0.1-5.1 0.1-6.6 0.3-13.3 0.4-19.9 0.1-4.5 0-8.9 0-13.4v-20.4c0.1-7.7 0.2-15.3 0.3-23 0-1 0.3-2 0.7-2.9 0.2 3.5 0.6 7 0.7 10.5 0.2 6.6 0.1 13.1 0.3 19.7 0.1 4 0.6 8 0.7 11.9 0.2 5.1 0.3 10.2 0.4 15.3 0.1 2.2 0.2 4.3 0.2 6.5 0 5.1-0.2 10.2-0.1 15.3 0.2 7.9-0.4 15.8-1.1 23.7-0.4 4.8-0.4 9.7-0.5 14.6-0.1 1.9-0.1 1.9-2.3 2.5 0-2.7-0.3-5.4 0-8.1 0.1-1.5-0.1-2.7-0.4-3.9zm-1.8-207.8h-0.5c-0.6-7.2-1.2-14.4-1.8-21.7 1 0 1.7 0.1 2.5 0.1-0.1 2.4-0.2 4.8-0.3 7.3-0.1 2.4 0 4.8-0.1 7.2 0 2.4 0.7 4.7 0.2 7.1zm-0.5 2.5c0-0.2 0.1-0.4 0.4-1.2 0.2 2.1 0.4 3.6 0.6 5.2 0.4 5.4 0.9 10.8 1.1 16.2 0.2 4.5 0.2 8.9 0.4 13.4 0.2 6.2 0.4 12.4 0.7 18.7 0.2 3.1 0.8 6.2 0.8 9.3 0.1 4.9 0 9.9-0.1 14.8 0 0.8-0.1 1.6-0.2 2.4-0.1 0-0.3 0-0.4 0.1 0-3.7 0-7.4-0.2-11-0.5-9.7-1.1-19.4-1.8-29.2-0.3-4.8-1.3-9.7-1.4-14.5-0.2-8.1 0-16.2 0.1-24.2zm137.2-24c-7.3 0.3-14.5 0.7-21.8 0.7-5.1 0-10.2-0.6-15.3-0.9-5.2-0.3-10.4-0.5-15.5-0.7-7.1-0.2-14.2-0.2-21.3-0.5-7.6-0.3-15.1-0.9-22.7-1.2-3.4-0.1-6.8 0.4-10.3 0.4-7.3 0.2-14.5 0.3-21.8 0.4-2.2 0-4.4 0.1-6.8 0.1 0-0.7-0.1-1.2-0.1-1.8 2.4-0.1 4.7-0.3 7-0.3 6.9-0.1 13.9-0.2 20.8-0.1 5 0.1 10 0.5 15.1 0.6 3.4 0.1 6.9-0.1 10.3 0 7.7 0.1 15.5 0.4 23.2 0.5 6.5 0.1 12.9 0.1 19.4 0.4 6.1 0.3 12.2 0.9 18.4 1.3 4.3 0.2 8.6 0.1 12.9 0.3 3.7 0.2 7.4-0.6 11.1-0.3 0.3 0 0.5 0.1 0.8 0.1v0.4c-1.1 0.3-2.3 0.5-3.4 0.6zm8.5 0.2c-5 1.2-10 1.5-15.1 1 5.1-0.3 10.1-0.6 15.1-1zm-139.3 238.6h-0.3v-4.1h0.3v4.1zm-0.2 3.7c2.2 0.6 4-1 6-1.2 1-0.1 1.9-0.6 3 0 0.4 0.2 1.1 0 1.6-0.1 4-0.9 8-1.1 12.1-0.6 0.8 0.1 1.6 0.1 2.4 0 5.2-0.2 10.3-0.6 15.5-1 6-0.5 12.1-0.3 18.2-0.3 6.1-0.1 12.3 0 18.4-0.1 3.7 0 7.5-0.2 11.2-0.1 5 0.1 10 0.6 15 0.7 4 0.1 8-0.2 12-0.1 6.3 0.1 12.6 0.4 18.9 0.6 2.5 0.1 5.1 0.2 7.6 0.4 1.1 0.1 2.5-0.3 3.3 1.2-0.4 0.2-0.6 0.4-0.8 0.4-5.5 0.1-11 0.3-16.5 0.3-8.1 0-16.1 0-24.2-0.2-4.9-0.1-9.9-0.7-14.8-1-1.1-0.1-2.2 0-3.3 0.1-4.7 0.2-9.4 0.4-14.1 0.5-6.2 0.2-12.4 0.5-18.7 0.6-4.9 0.1-9.7-0.1-14.6-0.3-5.2-0.2-10.3-0.8-15.5-1-2.6-0.1-5.2 0.4-7.8 0.8-4.5 0.7-9 1.3-13.6 1.3-0.8 0-1.7 0-2.7-0.3 0.4-0.1 1-0.7 1.4-0.6zm3.5-47.6c0 1.8 0 3.7 0.1 5.5-0.5-1.8-1-3.6-0.1-5.5zm0.6 28c0.1 0.1 0.3 0.1 0.4 0.2-0.2 0.5-0.3 0.9-0.5 1.4-0.2 0-0.4-0.1-0.5-0.1 0.3-0.5 0.4-1 0.6-1.5zm0.9 4.9c0.2-1.2 0.4-2.1 0.6-3.4 0.4 1.8 0.5 1.8-0.6 3.4zm4-54.4c1.5-2.6 4.4-2.5 6.1-4.3 0.2-1.3 0.4-2.7 0.6-4 0.1 0.9 0.1 1.9 0.2 2.8h0.3c0.2-1.9 0.3-3.7 0.5-5.6 0.3-0.4 0.6-0.9 0.9-1.3-0.2 2.5-0.1 5-0.7 7.4-0.3 1.5 0.1 2.5 0.6 3.9 0.2-0.6 0.3-0.9 0.4-1.4 0.5 0.8 1 1.5 1.4 2.1 0.8-0.8 0.8-0.8 1.9 0.5h-1.6c-0.3 0.2-0.5 0.6-0.8 0.7-3.3 1.2-5.9 3-6.9 6.6-0.2 0.8-0.5 1.8-1.8 1.5-0.2 0-0.7 0.7-0.8 1.2-0.4 1.5-0.7 3-1 4.5h-0.6c0-0.5-0.2-1.1 0-1.6 0.7-2.5 1.6-4.9 2.3-7.4 0.4-1.2 0.5-2.4 0.9-3.6 0.2-0.6 0.6-1.2 1-2-0.9-0.1-1.8 0-2.9 0zm8.6-12.7v-2.1c-0.5 1.2-1.2 2.3-1 3.7-0.2 0.4-0.4 0.7-0.5 1.1-0.1 0.3-0.2 0.5-0.3 0.8 0.3-1.6 0.5-3.3 0.8-4.9 0.1-0.4 0.6-0.8 0.9-1.1 0.3 0.2 0.9 0.5 0.8 0.7-0.1 0.5-0.4 1.1-0.7 1.8zm22.2-50.8c0.4 1.3 0.6 2.6 0.3 4-1.2 4.8-2.4 9.6-3.5 14.4-0.1 0.5-0.3 0.9-0.3 1.4-0.3 2-1.4 3.2-3.2 4.1-1.8 1-3.4 2.5-5.3 4-2.5-1.4-5.2-2.9-6.9-5.9-1.3-2.3-1.1-3.9 0.7-5.8 1.5-1.5 2.9-3.2 4.5-4.7 3-2.8 2.7-5.8-0.8-8.4-0.9-0.7-2-1-3.2-1.6 0.5-1.8 1.1-3.6 1.7-5.8 1 1.3 1.7 2.3 2.5 3.3 1.6-1.5 1.5-3.2 1.7-4.7 0.3-2 0.9-3.8 2.4-5.5 1.3 0.4 2.5 0.9 3.8 1.4 0.6-0.6 1.1-1.2 1.8-2 0.4 0.8 0.7 1.5 1 2.3 0.9 3.3 1.9 6.4 2.8 9.5zm-1.7-20.9c0 1.9 0 3.3 0.1 4.6h-0.6c-1.2-1.3-0.5-2.7 0.5-4.6zm3.1-2.6c0.2 1.2 0.4 2.2 0.6 3.4 0.2-0.6 0.3-1 0.5-1.4 1.4 1.8 1.4 2.4 0.1 4.1-0.1-0.2-0.3-0.3-0.4-0.6-0.3 0.9-0.7 1.9-0.9 2.8-0.2 0.8-0.1 1.7-0.1 2.6-0.2 0-0.4-0.1-0.7-0.1 0-2.9-0.1-5.7-0.1-8.6h-0.3c-0.1 1.8-0.2 3.6-0.3 5.8-1.1-1.9-1.1-3.6-0.2-8.6 0.2 0.5 0.4 0.9 0.5 1.3 0.4-0.1 0.7-0.3 1.3-0.7zm0-6.6c0.2 0 0.4-0.1 0.6-0.1 0.3 0.9 0.8 1.7 1 2.6 0.5 1.6 0.3 1.9-1.8 3-0.3-2-0.7-3.7 0.2-5.5zm4-4.7c0.9 1 1.9 2 2.9 3-0.3 0.4-0.7 0.8-1.1 1.3-0.8-0.6-1.5-1.1-2.2-1.6l-0.3 0.3c0.3 0.5 0.6 1 0.9 1.5 0.8 1.2 0.8 1.2-0.6 2.3-2-3.5-1.9-4.5 0.4-6.8zm-0.7-3.5c1.1 2-0.3 2.6-0.8 3.5-0.4-1.3 0.4-2.1 0.8-3.5zm4.1 5.1c-2.6-1.5-2.8-2.2-1.5-5.3 0.5 1.7 0.9 3.2 1.5 5.3zm-0.9-13.1c0.1 0 0.3-0.1 0.4-0.1 0.1 0.5 0.2 0.9 0.3 1.4-0.2 0-0.4 0.1-0.6 0.1 0-0.5 0-1-0.1-1.4zm7.2-11.2c1.4-2.6 4-4.1 6.9-4.9 2.1-0.6 4.3-1 6.9-1.5 0.3-0.6 0.8-1.5 1.3-2.5 0.2 0 0.3 0.1 0.5 0.1-0.1 0.8-0.2 1.6-0.4 2.6 2.7 0.2 5.3 0.5 8 0.5 3.1 0.1 6.2 0.5 9.1 1.5 2.4 0.8 4.4 2.2 6 4.3 0.9 1.2 1.9 2.4 2.8 3.6 2.2 2.7 2.4 7.2 0.1 9.9-2.2 2.7-2.3 5.7-1.2 8.7 0.5 1.4 0.4 2.2-0.9 3-0.6 0.4-1.1 0.9-1.5 1.5-0.7 1-0.9 2.1 0.1 3 0.3 0.3 0.7 0.7 0.9 1.1 0.7 1.3 0.5 2.2-0.7 3.1-0.5 0.3-1 0.6-1.4 1-1.1 1-1.1 2.4-0.1 3.4 1.9 1.9 1.9 1.9 0 3.8-0.4 0.4-0.8 0.8-1.2 1.1-0.1-0.1-0.2-0.1-0.2-0.2 0.4-1.2 0.9-2.4 1.3-3.7-0.2-0.1-0.3-0.1-0.5-0.2-0.9 1.4-1.6 3-2.7 4.3-1.2 1.3-2.7 2.2-4.2 3.3-0.4-0.6-0.6-1.1-1-1.6-1.8 0.4-3 1.5-4.2 2.7-1.9 1.9-3.9 3.6-6.4 4.5-3.9 1.3-7.5 0.8-10.6-2.1-1.7-1.6-3.7-3-5.5-4.5-2-1.7-3.3-3.8-3.5-6.5-0.3-4.4-0.9-8.7-1.3-13.1 0-0.3-0.2-0.7-0.1-0.9 1-2.2-0.1-4.2-0.3-6.3-0.6-6.9 0.9-13.2 4-19zm-2.1-0.4c0.5 1.6-1.1 2.1-1.6 3.6-0.3-2.2-0.3-2.4 1.6-3.6zm0.1-2.5c0.8-1 1.3-1.6 1.9-2.2 0.4 1.4 0.4 1.4-1.9 2.2zm6.7-3.9c0.5-0.2 0.9-0.4 1.4-0.6 0.1 0.1 0.1 0.3 0.2 0.4-0.5 0.2-0.9 0.4-1.4 0.6-0.1-0.1-0.2-0.2-0.2-0.4zm3.2-0.6c0.8-0.2 1.5-0.4 2.3-0.6 0 0.2 0.1 0.3 0.1 0.5-0.7 0.2-1.5 0.4-2.2 0.6-0.1-0.2-0.2-0.4-0.2-0.5zm2.4-2.2c0.9-1 2-1.8 3.4-1.3-1.1 0.5-2.2 0.9-3.4 1.3zm8.8 0.3c1.5-0.9 2.1-0.9 4.4 0.2-1.3 0-2.7-0.1-4.4-0.2zm5.2 2.4c-1.3-0.1-2.5-0.2-3.7-0.2 1.3-0.4 2.6-0.9 3.7 0.2zm-4.9-5.4c-1.1 0.7-2.1 1.5-3.3 2.1 1.4-2.7 4.1-3.5 6.8-4.4-1.1 0.8-2.3 1.5-3.5 2.3zm13 5.6c-2.3-0.9-4.6-1.8-7-2.7 2-0.3 5.3 1 7 2.7zm-6.3-5.4c0.8 0.3 1.7 0.6 2.8 1-1.5 0.3-1.5 0.2-2.8-1zm41.8 18.9c0.8 0 1.4 0 2 0.8 0.5 0.6 1.7 0.5 2.8 0.8l0.2 0.2c1.3 3 1.7 3.2 4.9 2.6 2.4-0.4 4.7-1.5 7.2-1.3 0.7 0 1.4-0.6 2.1-0.9 1.4-0.7 2.7-1.6 4.6-1.4-0.1 3.3-0.2 6.6-0.3 9.8-0.1 3.9 0 7.8-0.1 11.7 0 2.2-0.9 3.2-3 3.9-0.9 0.3-1.8 0.6-2.7 0.9-1.6 0.4-3.1 1.3-4.8 0.5-0.4-0.2-1.1 0.1-1.8 0.2 0.1-1 0.2-1.9 0.2-2.9-1-0.1-2-0.1-3-0.2 0.3-1.8 1.9-3.3 0.7-5.4h-2.1c1.3-2 2.4-3.7 3.6-5.4 1-1.4 2-2.7 3-4 0.6-0.8 0.8-1.6-0.2-2.2-4.6 1.3-7.9 4.5-10.8 8-2.8-0.6-4.1-0.1-5.2 2.4-0.7 1.4-1.1 3-1.6 4.5-0.2 0.5-0.3 1.1-0.5 1.6-0.5 1.3-1.1 2.6-1.8 4.1l-1.2-0.6c-0.2 0.4-0.3 0.8-0.5 1.2-0.8 0.3-1.7-0.2-1.8-1-0.2-1.3-0.3-2.7-0.5-4-0.3-2.5-0.6-5.1-0.8-7.6-0.1-0.8-0.2-1.5 0.8-2 0.4-0.2 0.5-1.2 0.5-1.9 0.3-4.7 0.8-9.4 2.3-13.9 0.2-0.8 0.5-1.6 0.9-2.2 2.3-3.1 3.6-6.7 4.4-10.5 0.2-0.8 0.5-1.6 1-2.3 0.2 3.2 1.7 6.4 0.1 9.7-0.1-0.4-0.3-0.7-0.5-1.2-0.1 2.1-0.2 4.1-0.2 6.1 0.2 1.6 0.4 1.8 2.1 1.9zm22.2 105.7c-0.4 1.9-0.8 3.8-1.3 5.9-0.1-0.8-0.2-1.3-0.3-1.8-1-0.1-1.3 0.5-1.5 1.2-1.2 3.7-2.5 7.3-4.1 10.9 0.3-2 0.6-4 0.8-6 0.2-2.7 0.5-5.4 2.4-7.6 0.3-0.3 0.4-0.9 0.5-1.3 0.4-1.9 0.7-3.8 1-5.8 1.1 0.1 1.3 0.7 1.2 1.4-0.2 1.4 0.2 2.3 1.3 3.1zm-0.1 35.4c-0.3 0.3-0.6 0.6-1 0.9-0.6-1-0.6-1 0.7-5.8 0.3 0.9 0.6 1.3 0.6 1.7 0 1-0.1 2.1-0.3 3.2zm-0.1 14.2c0.1 1.4 0.6 2.8-0.8 4-1.2 1-2 2.4-3.1 3.6-3.2 3.4-7.7 4-12 4.9-2.9 0.7-5.8 1-8.8 1.1-4.1 0.2-8.1 0.3-12.2 0.3-2.5 0-5.1-0.5-7.6-0.7-0.2-1.1-1-1.6-1.5-0.9-0.9 1.2-1.9 0.8-3 0.8s-2.2-0.1-3.3-0.4c0.5-0.1 1-0.2 1.9-0.3-0.9-0.1-1.5-0.2-2.1-0.3v-0.3c5.8-0.3 11.6-0.6 17.4-1 0-0.1 0-0.2 0.1-0.4-1-0.3-2-0.7-3-1 0-0.1 0.1-0.3 0.1-0.4 2.7 0 5.5-0.1 8.2-0.1-1.2-0.9-2.5-0.7-3.8-0.7s-2.7 0-4-0.2c3.4-0.1 6.9-1.5 10.3 0.3 0.8 0.4 1.8 0.3 2.8 0.5-0.2 0-0.4 0-0.6 0.1-0.9 0.4-1.7 1-2.6 1.3-1 0.2-2.1 0-3.1 0.1-0.3 0-0.6 0.2-1.1 0.4 0.4 0.5 0.7 1.1 1 1.1 1 0.1 2.3 0.4 3-0.1 2.8-2 5.7-1.2 8.6-0.5 0.7 0.2 1.3 0.4 2.2 0.7-0.1-0.5-0.2-0.8-0.3-1.2 2.3-0.5 4.6-1 6.9-1.5-3.4-0.7-6.8 0.1-10.2-0.4 2.3-1 4.3-2.6 7.1-2.3v1.3c1.4-0.5 2.6-1 3.9-1.5-2.2-2.1-4.5 0.3-7.3-0.5 2.5 0 1.9-2.4 3.3-3.2 1.5 0.1 2.9 0.3 4.5 0.4-0.1-1.1-0.1-2-0.2-3.4 0.7 0.8 1.1 1.7 1.5 1.7 0.7 0 1.5-0.5 2.2-0.8 0.3-0.2 0.6-0.5 0.9-0.8-0.4-0.2-0.8-0.4-1.6-0.9 1.7-1.2 3.1-2.2 4.5-3.2l0.4 0.4-1.5 1.5c-0.5 0.6-1 1.3-1.5 2 1.5-1 2.9-2 4.5-3.2 0.8 1.4-0.4 2.3-1.1 3.3 0.4 0.2 1 0.3 1 0.4zm-1.1 24.3h-2.1c1.2-1.5 1.2-1.5 2.1 0zm-2.4-14.3c-1.5 1.5-3 2.9-5.5 2.6 1.7-1 3.5-2 5.2-3 0 0.1 0.1 0.2 0.3 0.4zm-6.3 7.1c-0.5 2.6-0.5 2.6-2.6 3.1 0.6-0.8 1-1.3 1.4-1.8 0.4-0.4 0.8-0.9 1.2-1.3zm-3.9-1.5c-1 0.1-2.1 0.2-3.1 0.4v-0.1c1-0.3 2-0.6 3-0.8 0 0.1 0.1 0.3 0.1 0.5zm-12.4-0.1c-0.7 0.2-1.4 0.5-2.2 0.7-0.1-0.2-0.1-0.4-0.2-0.7 0.7-0.1 1.5-0.3 2.2-0.4 0.1 0.2 0.2 0.3 0.2 0.4zm-15 7.3c-0.6 0.1-1.2 0.1-1.9 0.2 0.9-0.8 0.9-0.8 1.9-0.2zm-4.7-1.4c-0.6 0.2-1.1 0.5-1.7 0.7-0.1-0.1-0.1-0.2-0.2-0.3 0.5-0.3 1-0.6 1.5-0.8l0.4 0.4zm-16.7-11.1c-0.1 0-0.1 0 0 0-0.1 0-0.1 0 0 0-0.6 0.4-1.1 0.8-1.9 1.4 3 1.6 6-0.4 8.8 0.2 0 0.2 0.1 0.4 0.1 0.6-0.4 0.2-0.7 0.6-1.1 0.6-1.2 0.1-2.4 0.1-3.6 0.1-4.4 0.1-8.9 0.1-13.3 0.3-1.2 0.1-2.4 0.7-3.6 0 0.2-1.6 0.2-1.6 2.7-1.7-0.9-0.6-3.4-1.3-4.5-0.8-2.1 1-4.4 0.2-6.5 0.6-0.6 0.1-1.3 0-2.1-0.2 0.2-0.1 0.5-0.2 0.8-0.3-0.5-0.2-0.9-0.4-1.5-0.6 0.6-0.2 0.9-0.2 1.3-0.3-0.7-0.7-2 0.3-2.8-1.1 5.8-0.7 11.4-1.6 17-1.6 5.7 0 11.3 0.5 17.3 0.7-1.9 1.3-3.8-0.1-5.2 0.6 1.8 0.5 3.8 1 5.9 1.6 0.1-0.1 0.2-0.2 0.2-0.3-0.4-0.2-0.7-0.4-1.3-0.7 0.6-0.3 1-0.4 1.4-0.6 4.9 0.1 9.9-0.3 15 0.7-5.7 2.4-11.5 1.5-17.3 1.9-1.1 0.1-2.3-0.5-3.4-0.8-0.9-0.6-1.7-0.9-2.4-0.3-0.1 0 0 0 0 0zm4.6 7.5c0.1 0.2 0.2 0.3 0.3 0.5-1.1 0.5-2.1 1.1-3.2 1.6-0.1-0.1-0.2-0.3-0.2-0.4 1-0.6 2.1-1.1 3.1-1.7zm-5.5-1.7c1.6-1.2 1.6-1.2 3-0.2-1.1 0.1-1.9 0.1-3 0.2zm-1.4 2.3c-1.1 0.6-2.2 1.2-3.3 1.7-0.1-0.2-0.2-0.3-0.3-0.5 1.1-0.6 2.3-1.1 3.4-1.7 0.1 0.2 0.1 0.3 0.2 0.5zm-8.2-2.3c0.6 3.3 0.6 4-1 6.3v-3.8c-0.4 1.1-0.8 2.2-1.2 3.6-0.7-1.9 0-5.1 1.5-7.4-0.1 1.3-0.3 2.6-0.4 3.9 0.4-0.7 0.7-1.6 1.1-2.6zm-7 6c-0.7-1.7 0.4-2.6 0.9-3.8 0.2 1.6 0 2.2-0.9 3.8zm-0.6-10.2c-1.1 0.5-1.8 0.9-2.7 1.3-0.6-0.3-1.3-0.6-2.1-1 0-0.1 0-0.2 0.1-0.3 1.4 0.1 2.8 0.1 4.7 0zm-5.6 11.9l-1.2 0.3c0-0.1 0-0.3-0.1-0.4 0.5 0 0.9 0 1.3 0.1zm-4.8-26.3c-0.9 0.8-2 1.4-2.6 2.3-1.5 2.1-2.8 4.4-4.2 6.6-0.8 1.2-0.9 2.3-0.4 3.6 0.3 0.7 0.2 1.5 0.4 2.5-1.5-0.2-3.1-0.2-3.7-1.7-0.3-0.7-0.4-1.1-1.1-1.5-0.5-0.3-0.9-0.9-1-1.4-0.5-1.6 0.2-3 1.1-4.2 1.5-2.1 3.1-4.1 4.6-6.1 0.6-0.9 1-1.9 1.6-2.9-1.1-0.6-1.8-0.3-2.3 0.4s-1 1.5-1.5 2.2c-1 1.3-2.1 2.6-3 3.9-0.9 1.4-1.8 2.8-2.6 4.2-1.8-1.9-1.9-3.7-0.2-6 0.8-1.1 1.8-2 2.7-3.1 1.1-1.3 2.3-2.7 3.2-4.1 0.8-1.3 1.7-2.1 3.2-2.1 2.1-0.1 4.3-0.2 6.4-0.2 0.6 0 1.3 0.5 1.8 0.9 0.9 0.8 1.6 1.8 2.4 2.7 2.7 2.8 5.8 5.2 9.5 6.7 0.7 0.3 1.3 0.6 1.9 1-2.4 2-9.5 1.5-12.3-0.7-2.7 2-3.2 5.4-5.2 7.9 0.1 1.2 0.5 2.1 1.4 3 0.7 0.7 1 1.9 1.6 2.9-3.5 0.9-6.4-1.1-6.7-4.3-0.2-2.2 0.6-3.9 1.8-5.5 1.1-1.4 2.1-2.8 3.3-4.1 0.4-0.9 0.8-1.6-0.1-2.9zm-35.7-6.9c-1.3-0.3-2.9-0.5-2.9-2.5 0.5 0.1 1.1 0.2 2 0.4-1.4-2.1-0.8-3.7 0.2-5.2 0-0.1 0.1-0.1 0.1-0.2 0.6-1 2.7-0.7 2.1-2.8-0.3-1.1 0.3-2.5 0.5-3.7 0.3-1.5 0.4-3.1 1.1-4.4 0.5-0.9 0-1.2-0.3-1.9-1.1 0.9-2.2 1.8-2.4 3.4-0.1 0.7-0.6 1.3-0.9 1.9-0.9 2.2-1.7 4.4-2.6 6.8-0.1-0.5-0.4-1-0.3-1.4 0.5-1.8 1-3.7 1.7-5.5 1.4-4 4.1-7.2 7.3-9.9 1.4-1.2 3.1-2.2 5.6-1.4-1 1.8-2 3.5-2.9 5.2-1.4 2.5-2.8 5-4 7.5-0.4 0.8-0.3 1.8-0.4 2.8-0.1 1.1-0.1 2.2-0.2 3.3 0.7-0.1 1.5-0.3 2.5-0.5-0.6-1.9-0.4-3.5 1.8-4.9-0.8-0.1-1.1-0.1-1.8-0.1 0.8-0.7 1.4-1.2 2.3-1.9-0.5-0.1-0.8-0.2-1.5-0.4 1.2-0.9 2.2-1.7 3.6-2.8-1 0.2-1.5 0.3-2.2 0.5 0.7-1.6 2.4-1.9 3.3-3.1-0.3-0.1-0.5-0.3-0.9-0.5 0.5-0.5 1-0.9 1.5-1.3-0.9-1.4 0.6-2.3 0.5-3.6 2.2 1.4 2 2.3 1.1 3.9-0.4 0.7-0.7 1.4-1.2 2.1-2.3 3.3-2.5 7.3-3.7 11-0.2 0.8 0.3 1.8 0.7 2.8 0.7-1.8 2.7-2.8 2.2-5.3-0.2-1.2 0.7-2.9 2-3.9 0.7-0.5 1.3-1.1 1.7-2-0.6 0.1-1.3 0.3-1.9 0.4 0-0.1-0.1-0.1-0.1-0.2 1.5-0.9 2.9-1.8 4.4-2.6-0.1-0.2-0.1-0.3-0.2-0.5-0.8 0.1-1.6 0.2-2.9 0.4 1.7-1.1 2.9-2.1 4.3-2.8 0.8-0.4 1.7-0.1 2.1 0.9 0.3 0.7 0.6 1.4 0.9 2.3-1.1 1.4-3.2 2.4-4 4.6-0.8 2.5-1.9 4.9-2.6 7.4-0.6 2.4 0.1 4.6 2.3 6.1-0.2 1.2-1.1 1.9-2.2 2.2-1.2 0.4-2.5 0.7-3.7 0.7-4 0.1-8-0.3-12-1.3zm10.4 25.5c-0.7 0.4-1.4 0.8-2 1.1-0.1-0.1-0.2-0.3-0.2-0.4 0.7-0.4 1.4-0.8 2-1.1 0.1 0.1 0.2 0.2 0.2 0.4zm-11.1 5.3c0-0.2-1.5-1.2 0-0.9 0.4 0.1 1-0.2 1.5-0.3 0.1 0.2 0.1 0.3 0.2 0.5-0.6 0.2-1.2 0.5-1.7 0.7zm-0.8-9.4c0-1.5 1.5-2 2.7-2.8 0.1 0.1 0.3 0.2 0.4 0.3-1.1 0.9-2.2 1.8-3.1 2.5zm-0.2-47.5c-0.4-0.9-0.4-1 0.9-1.6-0.3 0.6-0.6 1.1-0.9 1.6zm-0.1 0.1c-0.3 0.5-0.6 1-0.9 1.5 0-0.7 0.2-1.3 0.9-1.5zm0.3 3.5c0.1-0.1 0.5 0.1 0.8 0.2-0.1 0.8 0.1 1.6-0.3 2.2-0.9 1.8-2.1 3.5-3.1 5.3-0.4-2.5 0.8-6.3 2.6-7.7zm2.1-3.6c0.5-3 0.8-3.3 2.9-3.3 1 0 2 0.2 3 0.4-2 1.1-4.4 0.4-5.9 2.9zm2.9 0.2c-0.5 0.6-1.1 1.2-1.8 1.9-0.1-1.5 0.5-2 1.8-1.9zm-2.8 1.4c-0.1 1-0.1 1.9-0.2 3-0.6-0.3-0.9-0.5-1.2-0.7 0-1 0-2 1.4-2.3zm-4.1 20c0.2 0.6 0.3 1.3 0.5 1.9-1.4 0-0.9-1-0.5-1.9zm3.7-5.1c-0.8 1.1-1.5 2.1-2.3 3.2-0.3-1.7-0.1-2.1 2.3-3.2zm-1.7-0.9c0.4-0.4 0.8-0.9 1.2-1.3l0.2 0.2c-0.4 0.5-0.7 0.9-1.1 1.4l-0.3-0.3zm15-47.2c0.4-0.7 0.7-1.4 1.1-2 0.2 0.1 0.3 0.2 0.5 0.2-0.3 0.7-0.6 1.4-0.9 2.1-0.2-0.1-0.4-0.2-0.7-0.3zm0.2 14c0 0.4-0.1 0.9-0.1 1.3h-0.1v-1.4c0.1 0.1 0.2 0.1 0.2 0.1zm0.9-17.3c-0.2-0.1-0.3-0.2-0.5-0.4l1.3-1.3c-0.3 0.6-0.5 1.2-0.8 1.7zm0.9-1.8c-0.1 0-0.1 0 0 0-0.3-0.1-0.6-0.3-0.8-0.2-0.6 0.4-1.1 0.9-1.8 1.3 0-2.3 1.6-3.5 3-5.1 0.1 1.4 1.2 2.8-0.4 4zm-3.9-3.6c-0.1-1.4-0.1-1.4 1.6-2.1-0.5 0.7-1.1 1.4-1.6 2.1zm2.8-1c-0.5 0.9-0.5 0.9-1.5 1 0.5-0.9 0.5-0.9 1.5-1zm1.7 19.7c0.5 6.1 1 12.3 1.4 18.2-1.5-2.4-2.1-8.4-1.4-18.2zm3-12.8c0.8-2.2 2.2-4.2 3.5-6.6 1.7 1 3.2 1.8 4.7 2.6 1 0.5 1.9 1.2 2.9 1.6 2.1 0.9 4.3 1.7 6.5 2.4 5.7 2 11.6 3 17.6 2.7 2.5-0.1 5 0 7.5 0 0 0.4 0.1 0.6 0 0.7-2.8 2.5-4 5.9-5.5 9.1-0.9 1.9-1.8 3.7-2.8 5.5-0.2 0.3-0.5 0.5-1.2 1.1-0.1-1.3-0.3-2.3-0.1-3.1 0.3-1.4 0.1-2.6-1-4.1-0.1 2.6-0.2 4.8-0.3 7.1 0 1-0.1 1.9-1.6 2.1-1-2.5-0.1-5.1-0.2-7.6-0.1-2.7 0.7-5.1 1.4-7.6-0.3 0.3-0.7 0.5-0.8 0.9-0.4 1.2-0.8 2.4-1 3.7-0.5 3.8-0.8 7.6-0.6 11.4 0.1 2.4-0.6 4.8-1.2 7.3-0.7-3.6-1.2-7.2-1.3-10.9-0.1-3.8 0.6-7.3 1.7-11-1.1 0.2-1.2 1-1.3 1.6-0.5 1.8-0.6 3.6-1.6 5.2-0.5 0.8-0.2 2-0.1 3.1 0.1 1.9-0.3 4.2-1.2 6.2-0.9-2.5-1.1-3.5-0.8-6.3 0.1-0.6-0.1-1-0.4-1.5-0.5-0.9-0.7-2.1-0.6-3.2 0.2-1.9 0.7-3.7 1-5.6v-1c-1.3 1.3-1.3 2.7-1.5 4.1-0.4 3.3 0.1 6.5 0.6 9.7 0 0.1 0.1 0.2 0.1 0.2 0.2 5.5 2.7 10.4 3.9 15.6 0.2 0.6 0.3 1.3 0.3 2-1.8-1.5-2.2-3.7-2.8-5.7-0.5-1.6-0.3-3.6-0.9-5.1-1.8-4.5-1.8-9.3-3-14-0.5 2.6 0.3 5.2 0.4 7.8s0.1 5.2 0.1 8.2c-0.6-2.2-1.4-4.2-1.5-6.1 0-2.9-1.2-5.6-0.9-8.4 0-0.4-0.3-0.8-0.6-1.3 0 1.9 0.9 3.9-1.8 5.3-0.3-2.4-0.5-4.6-0.8-6.8-1.1 3.2 0.5 6.4-0.1 10-1.1-2.2-0.9-4.3-1-6.2-0.2-2.1-0.4-4.3-0.3-6.4 0.1-2 0.7-4 0.9-6.1-0.2 0.3-0.6 0.7-0.7 1-1.4 3.7-1 7.5-0.6 11.4 0.4 4 1.2 8 0.6 12.1-0.8-4.1-2.3-8.1-1.8-11.9-0.4-1.4-0.7-2.4-1-3.4-0.2-0.7-0.6-1.4-0.7-2.1-0.2-0.9-0.4-1.9-0.2-2.8 0.5-2 1.2-4 1.8-5.9 0.1-0.3 0.2-0.7 0.2-1-0.2-0.1-0.3-0.1-0.5-0.2l-1.2 2.7c-1.1 3.1-1.3 6.4-1.3 9.7 0 0.8 0.1 1.7-1.5 1.2 0-1.6 0-3.2-0.1-4.9 0-0.7 0.1-1.4-0.7-1.8 0 3.2 0 6.3 0.1 9.5 0.1 4.1 0.1 8.3 0.4 12.4 0.2 2.2 0.8 4.4 1.2 6.6 0.1 0.6 0.2 1.1-0.1 1.9-0.5-1.1-1.2-2.2-1.6-3.4-1.3-4.2-1.8-8.5-2-12.9 0-0.9-0.5-1.8-0.7-2.7-0.2-0.7-0.3-1.4-0.4-2.1-0.1-2.9-0.2-5.7-0.2-8.6 0-1.4 0.4-2.7 0.7-4.6-0.6 0.5-0.9 0.6-1 0.8-0.2 0.9-0.5 1.9-0.5 2.8 0 5.3-0.5 10.6 0 16 0.4 3.9 0.5 7.8 2 11.9-1.5-0.6-1.9-1.5-2.2-2.4-1.9-6-3.1-12.1-2.4-18.4 0-0.4 0.1-0.8 0.1-1.2-0.4-5.7 1.2-10.9 3.8-15.9 0.2-0.4 0.3-0.8 0.5-1.6-1.7 1.4-4.9 8.7-5.1 12.4-0.2 4.4 0 8.8 0.1 13.2-0.2 0-0.3 0.1-0.5 0.1-0.2-0.7-0.5-1.5-0.6-2.2-0.1-2.2-0.2-4.4-0.2-6.7 0-0.4 0-0.8-0.1-1.2-0.1-1-0.4-2-0.2-3 0.9-2.1 1.3-4.8 2.3-7.4zm-1.7-6.2c0.1-0.5 0.2-1.1 0.2-1.6 0.2 0 0.3 0.1 0.5 0.1-0.1 0.5-0.2 1.1-0.3 1.6-0.2 0-0.3-0.1-0.4-0.1zm5.9-18.1v3.3h0.4c0.1-0.6 0.2-1.3 0.3-1.9 0.2 0 0.3-0.1 0.5-0.1 0.3 0.5 0.5 1 0.8 1.5-0.6 0.9-0.6 1.9 0 2.8-1.7 1.9-2 3.8-0.7 5.7-1.3 1.7-2.7 3.5-4.4 5.7-0.2-6.2 2.1-11.5 3.1-17zm-1-19.9c1.4 1.9 1.7 3.6 0.6 5.5-0.3-1.7-0.4-3.5-0.6-5.5zm7.4-8.9c1.5 2.6 1.4 3.6-0.6 5.3-1.2-1.2-1.2-1.2-1-2.6 0.3 0.2 0.5 0.3 0.8 0.5 0.2 0.1 0.5 0.2 0.9 0.4 0-1.4-1.8-2.5-0.1-3.6zm7.6 16.4c-0.1 0-0.2 0.1-0.4 0.1-0.2-0.2-0.6-0.3-0.7-0.6l-2.1-7.2 0.6-0.3c0.9 2.8 1.7 5.4 2.6 8zm-2.4-9.2c0.1-0.3 0.1-0.6 0.2-0.8 0.5 0.2 1 0.3 1.5 0.5-0.1 0.2-0.2 0.5-0.2 0.7-0.6-0.2-1-0.3-1.5-0.4zm5.6 22.1c-0.5 0.4-0.8 0.8-1.2 1.1-0.1-0.1-0.3-0.1-0.4-0.2 0.1-0.8 0.2-1.6 0.4-2.6 0.4 0.7 0.7 1.1 1.2 1.7zm-0.9-4.9h0.5c0 0.4 0 0.8 0.1 1.2h-0.4c-0.1-0.4-0.1-0.8-0.2-1.2zm0.6 6.3c2.5-2.3 5-4.5 7.6-6.6 1.1-0.9 1.9-2.2 3.6-2 0.2 0 0.4-0.6 0.7-0.8 0.6-0.5 1.2-0.9 2.2-1.7 0.3 1.7 0.6 2.9 0.7 4.2 0.2 3.1 0.4 3.3 3.3 1.7 0.6-3.5-0.2-6.9-2-10.2 6.2-1.3 11.7-3.4 16.1-8 0.7 0.3 1.2 0.6 1.7 0.9 2 1.3 2 2.3 0.3 3.9-1.3 1.2-1.3 2.5 0 3.7 0.8 0.7 1.5 1.5 2.4 2.4-0.8 0.9-1.4 1.5-2 2.1-1.7 1.8-1.7 2.4 0.2 4 0.2 0.2 0.3 0.4 0.4 0.5 0 1.8-1.9 1.5-2.8 2.8 0.4 0.5 0.8 1 1.3 1.5 1.5 1.5 1.5 1.8-0.3 3.3-0.2 0.1-0.2 0.4-0.4 0.7 1.4 0.5 2.2-0.2 3-1 0.5-0.5 0.9-1 1.8-0.9 0.5 0 1.1-0.5 1.6-0.8 0.7-0.5 1.4-1.1 2.2-1.8 0.5 1.4 0.3 2.6-0.4 3.7-0.5 0.7-1.1 1.5-1.3 2.3-0.3 0.9-0.4 1.9-0.1 2.8 0.3 1.2 1.1 2.2 1.7 3.4 1.3-0.7 0.2-1.7 0.5-2.5 0.3-0.9 0.5-1.8 0.7-2.6 0 1.4 0.1 2.9 0.1 4.4 0 1.3-0.6 2.1-1.8 2.5s-2.3 0.7-2.9 2.1c-0.3 0.7-1.4 1-2.1 1.4-2 1.1-4 2.4-6.1 3.2-2.4 0.9-4.9 2-7.4 1.9-5.6-0.1-11.3-0.6-16.8-2.3-0.6-0.2-1.2-0.4-2.1-0.8 0.6-0.9 1.1-1.6 1.7-2.3 0.5-0.6 0.7-1.2 0.1-1.6-0.4-0.2-1.3-0.1-1.6 0.2-0.8 0.9-1.3 2-2.2 3.2-2.8-0.7-5.5-2-8.7-3.1 2.8-1.9 3.1-4.1 1.9-6.5-0.4-0.9 0-1.5 0.5-2.2 1.7-1.8 3.1-3.5 4.7-5.1zm4-11.2c-0.2 2.6-0.2 2.6-2.2 2.9 0.8-1 1.5-1.9 2.2-2.9zm-2 0.8c0.1-0.5 0.2-1.1 0.4-1.6 0.2 0 0.3 0.1 0.5 0.1-0.1 0.5-0.3 1.1-0.4 1.6-0.2 0-0.4-0.1-0.5-0.1zm1.5 6.1c0.1-1 0.1-2 0.2-3.2 0.7 1.3 1.5 2.3-0.2 3.2zm2.2-6c0.1-0.6 0.2-1.2 0.4-1.8 0.2 0 0.4 0.1 0.6 0.1-0.2 0.6-0.3 1.2-0.5 1.8-0.2 0-0.4-0.1-0.5-0.1zm3.8-3.2c1 0.7 1.2 1.2 0.1 1.9 0-0.7 0-1.2-0.1-1.9zm23.8-10.7c0.4-0.5 0.7-0.8 1.2-1.5v2.1c-0.4-0.2-0.7-0.4-1.2-0.6zm16.3 15c0.2-0.3 0.3-0.7 0.7-1.1 0.2 2.1 0.3 4.3 0.5 6.4h0.3c0.1-0.2 0.2-0.4 0.2-0.6 0.1-0.2 0.1-0.5 0.1-0.5 1 2.5 2.1 5.2 3.4 8.2-1 0.6-2.1 1.3-3.4 2.1-0.9-2.3-2.4-4-2.6-6.3 0-0.5-0.2-1-0.3-1.4-1-2.4-0.5-4.6 1.1-6.8zm-0.7-18.9h0.6c0.1 0.9 0.1 1.7 0.2 2.6-0.2 0-0.5 0-0.7 0.1 0-1 0-1.9-0.1-2.7zm2.6 9.9c0.9 2.2 1.6 4.4 2.7 6.6 1.5 3 3.2 5.9 4.8 8.8 0.6 1.1 1.4 0.9 2.4 0.3 0.3 0.8 0.5 1.4 0.7 2-1.8 0.8-3.6 1.6-5.5 2.4-0.8-0.4-1.3-1.2-1.6-2.2-1.4-5-2.8-9.9-4-14.9-0.3-1 0-2 0.5-3zm0.4-5.6c0.8 2.1 1.5 4.2 2.4 6.5-2.7-2.2-3.4-4.1-2.4-6.5zm2.6 10.2c0.1 0 0.3-0.1 0.4-0.1l0.6 1.8c-0.2 0.1-0.3 0.1-0.5 0.2 0-0.7-0.2-1.3-0.5-1.9zm10 1.8c0.8 0.8 1.9 0.8 2.9 0.4s2.1-0.8 3.1-1.1c0.4-0.1 0.8-0.2 1.2-0.1 1.9 0.8 3.9 1.8 5.7 2.6-1.7 1.9-3.4 3.8-5 5.7-0.1 0.2-0.1 0.5-0.1 0.8-0.3 0.5-0.7 1-1.1 1.6-1 0.2-1.9-0.1-2.7-0.9-2.7-2.7-8-11.8-9.1-15.8 2.3-1.5 4.9-2.1 6.9-1.6-0.6 2-1.1 3.9-1.7 5.9-0.3 0.9-0.9 1.7-0.1 2.5zm15 0.4c-0.1-0.1 0-0.3-0.1-0.4 2 0 2 0 3.6 2.2-1.2 1.1-2.3 2.1-3.5 3.1-2.3 1.9-3.8 4-3.3 7.2 0 0.3-0.1 0.5-0.5 0.9-0.2-0.4-0.5-0.9-0.6-1.3-0.2-0.7-0.1-1.4-0.3-2.1-0.5-1.5-0.1-2.7 1-3.7s2.2-1.9 3.3-2.7c1.7-1.3 1.7-1.3 0.4-3.2zm3 28c-2.4-0.1-3.9-2-5.9-2.9s-4-2-5.9-3.3c2.3-0.6 4.6-0.9 7 0.8h-2c0 0.3-0.1 0.5 0 0.5 1.5 1 2.9 1.9 4.4 2.8l2.4 2.1zm-1.2-4c0.2-0.1 0.3-0.3 0.5-0.4 1 1.4 2 2.9 3.1 4.3-2.4-0.4-2.4-2.6-3.6-3.9zm-0.4 6.9c-1.6 0.5-1.9 0.2-1.2-1.2 0.3 0.4 0.6 0.7 1.2 1.2zm-8.2 5.8v-0.2 0.2c-0.6 0.5-1.2 1.2-1.8 1.3-2.4 0.3-4.3 1.6-6.4 2.4-0.8 0.3-1.6 0.7-2.8 1.3 1.1-5.2 2.2-9.9 3.2-14.7 0.5 4.1-0.7 8.2-0.9 12.3 0.2 0 0.3 0 0.5 0.1 0.6-4.2 1.3-8.4 1.9-12.7 0.2 0 0.4 0 0.5 0.1 0.5 3.9-0.1 7.8-1.1 11.9 1.2-1.5 1.2-2.1 1.7-6.3 0.3-2.1 0-4.3 0.7-6.2 0.2 0 0.4 0.1 0.6 0.1 0 3.4 0.1 6.8 0.1 10.2 0 0 0.1 0 0.1 0.1 0.1-0.8 0.2-1.6 0.3-2.5s0.1-1.8 0.1-2.6c0.1-1 0.1-1.9 0.2-2.9 0.1-0.8 0.2-1.6 0.4-2.4 0.2 0 0.4 0 0.6 0.1 0 2.6 0.1 5.2 0.1 7.8h0.5c0.1-2.4 0.2-4.9 0.3-7.2 1.7-0.9 2.9 0 4.2 0.3 0.5 2.3 1 4.6 1.5 7.2-1.5 0.8-3 1.6-4.5 2.3zm-20.1 7.4c-0.4 0.9-0.6 2-2.3 2 1-2 2-3.9 3-5.8 0.6-1.2 1.4-2.3 0.4-3.8-0.3-0.5 0.2-1.4 0.3-2.1 0.1-0.8 0.2-1.5 0.3-2.3-0.4 1.3-0.8 2.7-1.3 4-2.4 6.6-4.9 13.1-8.7 19-0.6 0.9-1.4 1.7-2.3 2.4 0.5-4 3-6.9 4.8-10.1-0.1-0.1-0.2-0.3-0.4-0.4-0.4 0.1-0.9 0.2-1.2 0.4-0.4 0.3-0.6 1.2-1.4 0.7 1.8-3.7 3.6-7.3 5.6-11.2-1.4 0.6-2 1.1-2.4 2.2-1 3.2-2.8 5.8-4.9 8.2-0.6 0.7-0.7 1.9-1.2 2.7-1.1 1.9-2.4 3.8-3.6 5.6s-2.6 3.7-3.8 5.5c-0.3 0.4-0.5 0.8-1 0.9 1.4-3.8 3.9-6.8 6.2-10.4-0.7 0.4-1.1 0.6-1.8 1 0.1-0.6 0.1-1 0.2-1.4-0.5 0.5-1.1 0.9-1.6 1.4 0.2-1.1 0.3-2.2 0.5-3.3 2.9-4.1 5.9-8.1 8.8-12.2 1.1-1.5 2.1-2.9 3.2-4.4 0 0.4-0.1 0.7-0.1 1.1 0.1 0 0.2 0.1 0.3 0.1l0.6-1.5c0.7-0.9 1.4-1.8 2.1-2.7 0.2 0.1 0.3 0.2 0.5 0.3-0.9 1.9-1.7 3.9-2.8 6.3 0.8-0.4 1.2-0.5 1.4-0.7 0.9-1.7 1.8-3.4 2.6-5.1 0.5-0.9 0.9-1.9 2.3-2.2-0.2 1.3-0.4 2.5-0.5 3.7 0.3-0.7 0.7-1.4 0.9-2.1 0.5-1.9 1.5-2.9 3.5-2.7 0.1 0.1 0.2 0.3 0.1 0.4-2.1 5.7-4.2 11.1-6.3 16.5zm1.6 3.2c-0.3 0.8-0.6 1.5-0.9 2.3-0.2-0.1-0.3-0.1-0.5-0.2 0.3-0.8 0.6-1.6 0.9-2.5 0.3 0.2 0.4 0.3 0.5 0.4zm-4.8 13.7c-0.1 0.4-0.2 0.7-0.3 1.1-0.2-0.1-0.4-0.2-0.5-0.3l0.6-0.9c-0.1 0 0.2 0.1 0.2 0.1zm-5.5 3.4c-0.2 0.5-0.5 1-0.7 1.5-0.1 0-0.2-0.1-0.3-0.1 0.2-0.5 0.4-1.1 0.7-1.6 0.1 0 0.2 0.1 0.3 0.2zm5 26.7c0.3 0 0.6 0.6 0.9 1 0.4 0.6 0.6 1.2 1.2 1.7 0.5-2.1 0.3-4.2-0.1-6.4-0.1 0.7-0.3 1.3-0.4 2-0.9-1.4-0.9-1.5-1-4.8-0.5-0.1-1.5-1-2.3-2-0.1 0.4-0.2 0.8-0.2 1.2-0.4-1-0.9-1.9-1.3-2.9 1.1-0.8 2.1-0.8 3.1 0.1 2.1 1.9 4.3 3.7 6.5 5.6l3 2.7c0.8 0.7 1.6 1 2.7 0.2-0.3-1.8-0.8-3.6-2.3-4.9 0.2 0.7 0.4 1.3 0.6 2-2.1-1.6-2.1-4.8-5.3-5.5l-0.4 0.4c-0.8-0.8-0.8-1.3 0-1.4 0.6-0.1 1.3 0 1.9 0.1 0.8 0.2 1.7 0.4 2.7 0.4-0.7-0.5-1.4-0.9-2.2-1.4 1.4-0.8 4.6-1.2 5.8-0.4 0.8 0.5 2.2 0.3 2.6 1.7 0.3-0.2 0.7-0.7 1.1-0.7 0.5 0 1.1 0.3 1.5 0.6 1.6 1.1 3.5 2 4.5 3.5 1.3 2 3.4 3.4 3.9 5.9 0.1 0.6 0.2 1.2 0.3 1.7 0 0.3-0.1 0.7 0 0.9 1.2 1.4 0.7 3 0.3 4.5-0.3 1.4-0.6 2.8-1 4.2-0.3 0.8-0.7 1.8-1.3 2.1-2.2 0.9-4.4 1.7-7.1 1.1 0.5-1 1-1.9 1.4-2.7l1.2-1.5c-0.1-0.1-0.3-0.2-0.4-0.3-0.3 0.5-0.7 1.1-1 1.6-0.6 0.5-1.1 1-1.7 1.5-0.1-0.1-0.2-0.1-0.3-0.2 1-1.5 2-3.1 3-4.6-0.1-0.1-0.2-0.2-0.3-0.2-0.9 1.1-1.8 2.2-2.6 3.3-0.2-0.1-0.3-0.2-0.5-0.2 0.3-1.1 0.5-2.2 0.8-3.3-0.2 0-0.5-0.1-0.9-0.2 0.2-0.9 0.4-1.8 0.5-2.6-0.8 0.2-1.6 0.4-2.6 0.7-0.1 0.4-0.3 0.9-0.2 1.4 0.4 2.3-0.5 4.2-1.4 6.2-0.5 1-1.2 1.6-2.5 1.3-1.6-0.3-3.3-0.4-4.7-0.5 0.6-1.9 1.1-3.5 1.6-5.2-0.2-0.1-0.3-0.1-0.5-0.2-0.2 0.6-0.5 1.2-0.6 1.9-0.1 1.2-0.8 1.2-1.6 0.9-0.8 0.7-0.7 2.1-2.2 2.3 0.1-0.6 0.1-1 0.3-1.4 0.1-0.4 0.3-0.8 0.2-1.4-0.5 0.9-1 1.8-1.6 2.8h-3.9c-0.8-1.8-0.9-4-3.2-4.4 0.1-0.3 0.1-0.5 0.1-0.5 2.9-1 2.8-2.9 1.1-5-0.6-0.8-1.4-1.4-2.1-2.1 0.1-0.1 0.7-0.3 0.7-0.5-0.1-0.8-0.1-1.7-0.6-2.3-1.5-2.1-3.2-4.1-4.8-6.1 0.1-0.1 0.1-0.3 0.2-0.3 3.5-0.9 3.5-0.9 5.7 2 1.1 1.5 1.9 3.1 3 4.6 0.6 0.7 1.1 2.1 2.7 2zm-1.9-7c1 0.6 0.9 1.5 0.5 2.5-0.2-0.9-0.4-1.7-0.5-2.5zm3.2 6.2h0.6v1.1c-0.1 0-0.2 0-0.3 0.1 0-0.4-0.1-0.8-0.3-1.2zm13.1-32.3c0.6-0.8 1.3-1.7 1.9-2.5-0.1 1.9-0.3 3.4-2.3 4.5-2.3 1.3-4 3.5-6.2 5.6 0.6-2.7 1.3-4.9 3.6-6.3 0.5-0.3 0.8-0.9 1.1-1.4 0.8-1.1 1.6-2.3 2.4-3.4 0.2 0.1 0.3 0.3 0.5 0.4l-1.2 3c0.1 0 0.2 0 0.2 0.1zm12.4-1.8h0.6c0.2 0.6 0.6 1.2 0.5 1.7-0.1 2.4-0.3 4.8-0.5 7.3-1.6-0.2-2 0.7-2.4 2-0.6 1.7-1.4 3.4-2.2 5.1-0.2-0.1-0.4-0.1-0.5-0.2 0.6-1.7 1.1-3.4 1.7-5.1 0.5-1.6 2.3-2.9 1.4-5.1-1.7 1-2.1 2.9-3.6 4.4 0.7-4.2 3.4-6.8 5-10.1zm-3.1-1.3c0.8-1.6 1.6-3.2 2.4-4.7 0.3 2.1-0.2 3.8-2 4.8-0.1 0.1-0.2 0-0.4-0.1zm3.4-1.1c0-0.1 0.1-0.1 0.1-0.2 0.2 0.2 0.4 0.3 0.6 0.5l-0.1 0.1c-0.2-0.1-0.4-0.2-0.6-0.4zm0.1 22c-0.6 0.4-1.3 0.8-2.5 1.5 0.5-2.3 0.8-4 1.2-5.8 1.4 0.9 1.5 1.3 1.3 4.3zm-5.1-20.7c-0.8 0.6-1.5 0.1-1.9-0.7-0.8 2.2-0.8 2.2-3.1 3.2 1.1-1.8 1.9-3.2 2.9-4.7 0.3 0.4 0.4 0.7 0.6 1 0.5-0.6 1.1-1.2 1.9-2.2 0.2 1.5 0.7 2.6-0.4 3.4zm-1 2.9c-0.2 2.5-0.3 2.8-2.1 2.8 0.7-0.9 1.3-1.7 2.1-2.8zm-4.2-3.4c-0.1-0.2-0.1-0.3-0.2-0.5 0.5-0.2 1-0.4 1.5-0.5 0.1 0.2 0.1 0.4 0.2 0.5-0.5 0.2-1 0.3-1.5 0.5zm1 12.2c0.9-1 1.9-2.1 2.8-3.1-1 2.9-1.6 6-4.6 7.8-0.3-2.2 0.8-3.4 1.8-4.7-0.7 0.2-1.5 0.3-2.2 0.5 0.8-1.1 0.8-1.1 2.2-0.5zm-3.1 6.9c-1.4 1.3-1.8 3.1-4 3.4 0.7-2 1.5-3.4 4-3.4zm-5.9 0.3c1.2-2.2 2.1-4.8 5.7-5-2.1 1.9-3.2 4.2-5.7 5zm8-1.3c0.5 2-1.4 2-2.3 2.8 0.5-1.1 1-2.2 2.3-2.8zm-7.9-3.6c-1 0.9-2 1.9-3.2 3 0.7-3.1 0.9-3.3 3.2-3zm-3.1 4c0.2 0.1 0.5 0.1 0.7 0.2 0.1 0.6 0.4 1.4 0.1 1.6-1 1-2 2.3-3.8 2.8 0.3-2.3 1.9-3.3 3-4.6zm7.3 36.9c-0.1 0.2-0.6 0-0.9 0-0.9 0-1.9 0.1-2.8 0-0.7 0-1.3-0.2-2.1-0.3 0.2-0.6 0.3-1 0.5-1.4h-2.9c5.2-1.9 10.3-0.8 15.5-0.3 0 0.2 0 0.4 0.1 0.5-1.1 0.2-2.2 0.6-3.4 0.6-1.4 0.2-2.8-0.4-4 0.9zm5.7 3.1v0.3c-1.8 0-3.6 0-5.4 0.1v-0.3c1.8-0.1 3.6-0.1 5.4-0.1zm-2.8-6.1h3.4v0.2h-3.4v-0.2zm-18.9 4c-1.4 0.9-2.9 0.8-4.7 0.1 0.5-0.2 0.8-0.3 1.1-0.4-0.1-0.1-0.3-0.2-0.4-0.2-1.1 0.2-2.1 0.5-3.2 0.6-0.8 0.1-1.6 0-2.3 0.2-1.5 0.2-3.1 0.6-4.6 0.8 0.1-1-0.7-1.1-1.4-1.2-0.9 0-1.7 0-2.6-0.2 0.4-0.1 0.8-0.1 1.1-0.4 1.2-0.8 2.4-0.8 3.7-0.3 0.4 0.2 0.9 0.3 1.3 0.2 2.8-0.8 5.6-1.1 8.5-0.8 0.5 0.1 1.1-0.1 2-0.3-0.6-0.2-0.9-0.4-1.2-0.5 1.5-0.8 2.1-0.7 3.2 0.3 0.5 0.5 1.3 0.7 2.2 1.2h-3.7c0 0.1 0 0.2-0.1 0.3 0.3 0.4 0.7 0.5 1.1 0.6zm-24.3-5.4c-1-0.1-2-0.1-3-0.5-3.2-1.1-6.5-2.3-9.6-3.7-1.5-0.7-2.8-1.9-4-3-2.2-2-4.3-4.3-6.6-6.3-1.6-1.5-3.5-2.7-5.4-4.1-0.2 0.5-0.3 1.1-0.6 1.2-0.4 0.2-0.9 0.2-1.4 0.1-2.9-0.2-5.5 0.5-8.1 1.6-0.8 0.4-1.6 0.9-2.6 1.5-1.3-0.7-1.7-2.2-1.9-3.7-0.8-4.7 0.5-9.9 4.4-12.3 1.1-0.7 2-1 3.3-0.6 3.6 1.2 7.2 1 10.9 0.5 2.7-0.3 5.4-0.6 8.1-0.6 2 0 4.1-0.8 6.1 0.4 0.2 0.1 0.6 0 0.7-0.1 0.9-1.5 2.2-0.7 3.4-0.5 1.4 0.3 2.8 0.7 4.2 0.9 1.5 0.2 2.6 0.8 2.9 2.4 0.9 0.1 2.2-0.3 2.3 1.2 1.2-0.3 1.9 0.3 2.4 1.3-2.1 1.2-2.6 0.5-4.8-0.4-1.1-0.4-2-1.3-3-1.9-0.8-0.5-1.6-0.8-2.6-1.3-0.3 1.1-0.5 1.8 0.4 2.4 3.8 2.8 7.7 5.6 11.4 8.6 3 2.4 6.4 3.5 10 4.4 1.3 0.3 2.8 0.5 3.7 2.2-0.6 0.1-0.9 0.2-1.3 0.2-3 0-6-0.4-8.9-1.5-3.7-1.5-7.4-3-10.7-5.2-0.3-0.2-0.8-0.2-1.7-0.3 3.2 4.4 7.1 7.2 11.6 9.1 2.9 1.2 5.8 2.2 8.7 3.2 1.1 0.4 1.8 1 1.9 2.1-0.9 0.9-2 1-3.1 0.5-3.1-1.4-6.2-2.8-9.4-4.2-3.5-1.6-7-3.1-10.5-4.6-0.2-0.1-0.4 0-0.9 0 0.8 1.8 1.6 3.1 3.7 3.4 1.2 0.2 2.3 1.1 3.4 1.6l7.2 3.3c0.9 0.4 1.7 1 2.8 1.7-2.2 0.9-4.1 0.7-6.1 0.4-3-0.4-5.5-1.5-7.8-3.3-1.3-1-2.8-1.9-4.2-2.7-0.3-0.2-0.9 0-1.5 0 1.5 3 4.3 4.2 6.2 6.6zm-4 2.3c-1.1 0.8-1.8 1.3-2.7 0h2.7zm-7.1 2.1c-1.2-0.4-2.4-0.8-3.9-1.3 1.9-0.7 3.4 0.5 5.3 0.8-0.7 0.2-1.1 0.4-1.4 0.5zm-0.1 0c-3.2 0.9-9.4 1.3-12.7 0.8 0-1.1 0.7-1.3 1.6-1.3 1.6 0 3.2-0.1 4.8 0 2.1 0.1 4.2 0.3 6.3 0.5zm1.4-2.7v-0.2h2.5v0.2h-2.5zm-23.4-52.3c0.7 4 1.5 7.9 2.4 11.9 0.5 2.2 1.4 4.4 2.2 6.7-3.9-2.4-7.3-18.7-5.3-24.7 0.2 0.2 0.3 0.4 0.4 0.5 0.2-0.7 0.4-1.5 0.6-2.2h0.3c0.1 1.1 0.2 2.1 0.3 3.7-0.6-0.8-0.9-1.2-1.2-1.6 0.1 1.9 0 3.8 0.3 5.7zm9.9 16.9c-0.2 0-0.3 0.1-0.5 0.1-1.8-4.3-3.6-8.6-3.3-13.5 1.2 4.5 2.5 9 3.8 13.4zm-1.6-19.8c-0.2 2.7-0.4 5-0.5 7.5-1.5-3.1-1.4-5.2 0.5-7.5zm-1.2 21.4c-1.5-1.4-1.5-3.3-2.1-5 1.3 1.4 2.5 2.8 2.1 5zm2.9-10.4c1.3 3.1 2.7 6.1 4 9.2-2.4-2.6-4.3-5.5-4-9.2zm2.8 10.1c-0.1 0.1-0.3 0.1-0.4 0.2l-0.6-1.5c0.1-0.1 0.2-0.1 0.4-0.2 0.1 0.5 0.4 1 0.6 1.5zm41.7-44.7c-4.7 2-9.1 4.4-13.4 7.2s-7 7.1-11.1 10.7c0.3-0.9 0.4-1.4 0.7-1.8 2.1-3.9 4.9-7.2 8.3-10.1 0.8-0.7 2.2-0.9 3.3-1.2 1-0.2 1.8-0.4 2.2-1.5 0.1-0.4 0.7-0.8 1.1-1.1 2.7-1.5 5.7-1.9 8.9-2.2zm-7 0.1c0.9-0.5 1.8-1.1 3.1-1.8-0.2 0.7-0.2 1.2-0.3 1.2-0.8 0.4-1.7 0.6-2.6 0.9-0.1-0.1-0.2-0.2-0.2-0.3zm2-21.9c1 0.4 1.3 1.1 1 2.3-1.2-0.6-1.2-1.3-1-2.3zm-0.6-3.3c-0.9-1.6-0.9-1.6 0.4-2.7 0.9 1.4 0.9 1.4-0.4 2.7zm1.4-6.6c-3.1-2.1-3.1-2.7 0.1-5.3 2.1 1.6 2.1 3.3-0.1 5.3zm-2.7 11.5c0.2 0.5 0.4 1 0.6 1.4-0.1 0.1-0.2 0.1-0.3 0.2-0.3-0.5-0.5-0.9-0.8-1.4 0.1 0 0.3-0.1 0.5-0.2zm-0.5-6.3c0.1 0.6 0.2 1.2 0.2 1.9-1.6-0.9-1.6-0.9-0.2-1.9zm0-13.4c2 0.7 2 0.7 1.1 2.2-0.5-0.9-0.8-1.5-1.1-2.2zm1.2-18.6c0.3-1 0.8-1.2 2.4-0.9-0.2 1.1-0.4 2.2-0.7 3.2-1.7-0.5-2.1-1.1-1.7-2.3zm0.8 4c-0.3 0.7-0.8 1.4-1.3 2-0.1-0.1-0.3-0.2-0.4-0.4 0.3-0.9 0.5-1.7 0.9-2.8 0.3 0.6 0.9 1 0.8 1.2zm3.7-9.1c-0.4-1.9-0.8-3.5-1.2-5.2 2.6 0.9 2.9 2.3 1.2 5.2zm-0.5-7.2c0.1-0.1 0.3-0.2 0.4-0.3 0.3 0.4 0.5 0.8 0.8 1.1-0.1 0.1-0.2 0.2-0.3 0.2-0.4-0.3-0.6-0.7-0.9-1zm6.8 65.9c-0.1-0.1-0.2-0.3-0.3-0.4 3.8-3.3 8.1-5.7 13.1-6.9-4.2 2.4-8.5 4.8-12.8 7.3zm9.4 1c-0.6 0.2-1.3 0.5-1.9 0.7-0.1-0.2-0.1-0.3-0.2-0.5 0.6-0.2 1.3-0.5 1.9-0.7 0.1 0.2 0.1 0.4 0.2 0.5zm-10.8 0.7c3.2-1.8 6-3.3 8.7-4.9-2.3 2.5-6 4.6-8.7 4.9zm7.7 0.9c-1.6 0.3-2.7 0.5-3.8 0.7 0-0.2-0.1-0.4-0.1-0.5 1.1-0.5 2-1.7 3.9-0.2zm-18.6 23.5c-1 2.5-3.6 3.4-5.6 5.1 0.1-0.4 0.2-0.8 0.5-1.1 1-1.5 2.1-3 3.2-4.5 0.5-0.7 0.8-1.5 1.9-1.4 0.4 0 1-1 1.2-1.6 0.5-2.1 1.7-3.5 3.3-4.9 1.1-0.9 1.5-2.5 2.2-3.9-1.2-0.2-1.9 0.4-2.5 1.4-0.5 1-1.3 1.8-2.3 2.5 0-0.2 0-0.5 0.1-0.6 1.1-1.6 2.2-3.1 3.3-4.7 0.6 0.2 1.2 0.5 1.8 0.7 1-1.3 1.9-2.7 2.9-4 0.4-0.6 0.8-1.4 2.1-1.2-1.4 2.1-2.6 3.9-3.9 5.8-0.9 1.4-1.8 2.8-2.7 4.2-1.5 2.3-3 4.6-4.5 6.9-0.2 0.4-0.3 0.8-0.4 1.2-0.2 0-0.5 0-0.6 0.1zm0.6 22.6c-0.2-1.7-0.2-1.7 1.3-2.9-0.4 0.9-0.7 1.8-1.3 2.9zm1.6 7.2c0 0.2-0.4 0.3-0.7 0.5-0.1-0.2-0.4-0.4-0.4-0.6s0.3-0.4 0.6-0.7c0.3 0.3 0.5 0.6 0.5 0.8zm2.6 11.5c-5.4-0.6-9.7-3.2-13.6-6.9 2-0.2 3.8-0.5 5.6-0.6 0.5 0 1.1 0.2 1.6 0.5 2.4 1.4 4.8 4 6.4 7zm-8.2-11.7c-0.2-0.1-0.4-0.3-0.5-0.4 0.4-0.8 0.9-1.5 1.3-2.3 0.2 0.1 0.3 0.2 0.5 0.2-0.5 0.9-0.9 1.7-1.3 2.5zm-1.3-18.6c-0.4 0.6-0.9 1.2-1.7 1.7 0-0.4-0.1-0.9 0.1-1.1 2.1-2.8 4.3-5.5 6.4-8.2-0.2 0.4-0.3 0.9-0.6 1.3l-4.2 6.3zm-1.7-18.3c1.8-2.5 3.8-4 7.1-5-1.2 1.2-2.5 2.3-3.6 3.5-2.5 2.8-4.9 5.6-7.3 8.5-3.1 3.7-5.2 8-7.6 12.1-1 1.7-1.5 3.5-2.2 5.3s-1.1 3.8-1.7 6h-4c1-2.4 1.8-4.7 2.9-6.7 2.2-4.1 4.7-8.1 7.1-12.2 1.5-2.5 3-5.1 4.7-7.5 0.8-1.2 1.4-2.9 3.4-2.8 0.4 0.2 0.9-0.7 1.2-1.2zm-0.7-4.6c0.4-0.3 0.8-0.7 1.2-1 0.1 0.1 0.1 0.2 0.2 0.3-0.4 0.3-0.8 0.7-1.2 1 0-0.1-0.1-0.2-0.2-0.3zm10.7-4.8c-0.3-0.4-0.5-0.7-0.9-1.3 1-0.4 2.2-1 3.5-1.5 0.1 0.1 0.2 0.3 0.2 0.4-0.6 0.3-1.2 0.6-1.7 1s-0.8 0.9-1.1 1.4zm-0.1 0c-0.8 0.4-1.6 0.8-2.8 1.5 1.5-1.6 1.5-1.6 2.8-1.5zm-2.6 10.4c0 1.3-0.4 1.8-1.4 1.8 0.4-0.5 0.8-1 1.4-1.8zm11.5-24.3c-1.2-1.7-0.2-3.2 0.4-4.7 0.4 1.1 0.9 2.2 1.4 3.5-0.6 0.4-1.2 0.7-1.8 1.2zm-0.1-20.2c-0.3-0.3-0.5-0.4-0.7-0.6-0.3 1.5 1.1 2.9-0.1 4.7-0.4-3.5-0.8-6.6-1.2-9.7 2.2 1.7 2.4 2.1 2 5.6zm-2.6-8.9c-0.2-1.5-0.5-2.8-0.5-4.1 0-1.2-1.1-2.2-0.6-3.7 1.5 2.6 3.1 4.8 1.1 7.8zm0.1 9.7c0 0.2 0 0.5-0.1 0.7s-0.2 0.4-0.7 1c0.2-0.9 0.2-1.3 0.3-1.8 0.2 0.1 0.4 0.1 0.5 0.1zm-1.3-13.4c-0.2 0.1-0.3 0.2-0.5 0.3-0.2-0.6-0.4-1.1-0.7-1.7 0.1-0.1 0.3-0.1 0.4-0.2 0.3 0.5 0.5 1.1 0.8 1.6zm-1-8.9c-0.2-0.1-0.5-0.3-0.7-0.4 0.3-0.7 0.6-1.5 0.9-2.4 0.4 0.4 1 0.7 0.9 0.8-0.3 0.7-0.7 1.4-1.1 2zm-1-4.6c0.7 1.3 0.4 2.1-0.4 3-1.1-1.2-0.4-2 0.4-3zm-1.1 9.7c-1.9-1.7-2.2-3.1-1.2-6 0.2 1.4 0.4 2.4 0.5 3.4 0.1 0.9 1.8 1.3 0.7 2.6zm-2.8-2.5c0.7 1.5 1.3 2.7 1.9 4.1-1.7-0.6-2.5-2.1-1.9-4.1zm3.1 23.5c0.2 0.1 0.3 0.2 0.5 0.3-0.2 0.6-0.4 1.1-0.6 1.9l-1.2-1.2c0.4-0.3 0.8-0.7 1.3-1zm-0.3-12.2c1.7 0.6 1.9 1.3 0.8 3.8-0.2-1.2-0.5-2.5-0.8-3.8zm1.8 15.3c0.2 0.7 0.3 1.4 0.5 2.1-0.2 0-0.3 0.1-0.5 0.1-0.1-0.7-0.3-1.4-0.4-2.1 0.1 0 0.2-0.1 0.4-0.1zm0.4 4.1c1.2 2.7-1.4 4.3-2 6.5-0.7-2.6 1.9-4.2 2-6.5zm0.8-3.5c0.5-0.7 1.4-1.4 1.4-2.1 0-0.6-0.9-1.2 0.3-2.1 0.7 2.4 1.5 4.6 0.5 7-0.1 0.3-0.2 0.6-0.2 0.9-0.2 2.6-0.3 5.2-0.5 7.8-0.1 0.9 0 1.9-1.2 2.5-0.4-1.8 0.3-3.8-1.3-5.1 1.7-2.8 1.9-3.9 1-8.9zm1.9 17.3c-1.1 1.9-2.8 2.9-5 3.4 0.8-1.8 1.7-2.4 5-3.4zm-24.1 22.7l0.3 0.3c-4.2 6.3-8.4 12.5-13 19.3-0.1-3.3 0.2-6.1 0.9-8.8 0.1-0.5 0.6-1 1.1-1.2 3.2-1.5 5.1-4.4 7.6-6.7 1.1-1 2.1-2 3.1-2.9zm26 59.8c-3.5 0-7 0.1-10.5 0.1v-0.7c3.4-0.2 7 0.2 10.5 0.6zm-0.1 0.9v-0.5c0.6-0.1 1.1-0.1 1.7-0.2 0 0.2 0 0.3 0.1 0.5-0.7 0.1-1.3 0.1-1.8 0.2zm-9.5-51.7c1.2-1.9 2.2-3.4 3.3-4.9-1.1 3.9-1.3 4.3-3.3 4.9zm3.3-2.4c0.3-0.6 0.7-1.2 1-1.7 0.1 0.1 0.3 0.2 0.4 0.2-0.3 0.6-0.7 1.2-1 1.8-0.2-0.1-0.3-0.2-0.4-0.3zm2.6-5.3v1.9h-0.6c0.2-0.7 0.4-1.3 0.6-1.9zm16.1-10.7c0.5-1.8 0.9-3.7 1.4-5.5-0.3 0.4-0.7 0.8-1.1 1.4 0.2-1.1 0.3-2.1 0.5-3h0.2c0.1 0.6 0.2 1.2 0.3 1.7 0.5-1.7 1.1-3.4 1.7-5.5 0.3 0.6 0.6 1 0.5 1.3-0.3 2.1-0.6 4.2-1.1 6.3-0.6 2.7-1.3 5.4-1.9 8.2-0.7 0.1-1.6 0.2-3 0.4 2-1.6 2.1-3.6 2.5-5.3zm8-19c1.2-0.9 2.5-1.6 4-1.3 3.6 0.7 3.6 0.7 5.5 2.9-1.8-0.6-3.3-1.3-4.7-1.6-1.6-0.3-3.2 0-4.8 0zm4.6 1.8h-1.7v-0.1c0.6 0 1.1-0.1 1.7-0.1-0.1 0-0.1 0.1 0 0.2zm-9.7-1.6c-0.1-0.2-0.1-0.3-0.2-0.5 2-1 3.9-2.8 6.5-1.6-2.1 0.8-4.2 1.4-6.3 2.1zm4.8 4.5h-2.5v-0.2h2.5v0.2zm-6.6-9c2.6-1.9 5.6-2.3 8.8-2.3-3 0.6-5.7 2.4-8.8 2.3zm15.9 13.5c1 0.1 1.6 0.3 1.5 1.2l-0.3 3h-0.5c-0.3-1.3-0.5-2.7-0.7-4.2zm3-2.2c-0.3-0.6-0.7-1.1-1-1.7 1.2-0.5 1.2-0.5 2.2 1.7h-1.2zm-0.5-4.7c-1.3-1.3-2.4-3-4-3.9-1.5-0.9-3.5-1.1-5.7-1.8 1.3-0.7 2.3-1.2 3.3-1.7 3.1 1.6 5 4.3 6.7 7.1l-0.3 0.3zm-6.7-11.3c-1.1-0.4-0.8-1.1-0.6-1.8 0.3 0.5 0.4 1.2 0.6 1.8zm-5.9 0.3c-1.2 0.3-2.4 0.5-3.9 0.9-1.7-4.9-3.7-9.5-4.5-14.5 2 5 6 8.7 8.4 13.6zm-19.5-17.9v-3.4c0.9 1.5 0.9 1.5 0 3.4zm-0.9-7.8c-1.8-2.3-1.7-3.1 0.3-6.1 0.9 2.5 0.8 4.2-0.3 6.1zm-1.9-13c-1.2-1-1.2-2.8 0.1-4.5 0.8 1.4-0.4 3.3 1.6 3.9-0.4 1-0.9 1.3-1.7 0.6zm-1.4-6.1c-0.1 0-0.2-0.1-0.3-0.1 0.2-1.6 0.4-3.2 0.6-4.9 0.5 0.6 0.9 1.2 1.5 1.9-0.6 1-1.2 2-1.8 3.1zm0.8-22.3c-0.7-0.8-1.4-1.6-2.1-2.4 0.1-0.1 0.2-0.2 0.4-0.3 0.8 0.6 1.9 1 1.7 2.7zm-1.9 7.1c-0.4-1.2-0.7-2.3-1.2-3.8 1.5 1.4 1.5 1.4 1.2 3.8zm-2.1 3.7c0-2.1-0.1-4.2-0.1-6.4 1.6 2.2 1.6 4.6 0.1 6.4zm-0.1-6.5c-0.3-0.8-0.6-1.5-1-2.5 1.2 0.6 1.3 0.7 1 2.5zm1.4 19.3c-1.9-0.4-2.2-1.6-2.6-2.6-0.2-0.5 0.2-1.2 0.4-1.8h0.6c0.5 1.3 1 2.7 1.6 4.4zm-3-5.1c-0.2-0.1-0.3-0.2-0.5-0.2 0.3-0.6 0.5-1.2 0.8-1.8 0.2 0.1 0.5 0.3 0.7 0.4-0.4 0.5-0.7 1.1-1 1.6zm-0.7 6.4c-1.2 0.6-1.8 1.5-1.7 3.3-1.7-1.9-1.3-2.7 1.8-4.5 0.7 0.4 0.5 0.9-0.1 1.2zm0.7 18.3c0.7 1 0.7 1 0.2 2.7-0.9-0.7-1.8-1.4-2.9-2.1 1.2-1.9 1.7-2 2.7-0.6zm-53.1 28.8v-2.7c1.3 1 1.3 1.5 0 2.7zm0.3 8.4c0.2 0.3 0.4 1.1 0.7 1.1 2.3 0.6 4.1 2.1 6.1 3.2 1.9 1.1 3.9 1.8 5.9 2.6 1.5 0.7 3.1 1.1 4.8 1.2 2.8 0.2 5.6 1 8.5 1.4 3 0.4 6 0.6 9 0.9 0.4 0 0.8 0 1.2 0.3-0.4 0-0.7 0.1-1.1 0.1-6.3 0.1-12.6 0.4-18.8-1.3-5.7-1.6-11.4-3.1-16.2-6.7-0.4-0.3-0.6-0.7-1-1 0.3-0.6 0.6-1.3 0.9-1.8zm1.5-27.9c0.7 1.1 1.3 2.1 0.4 3.2-2.1-0.9-2.1-1-0.4-3.2zm-0.5-6c1.5 0.7 1.6 1.1 0.7 3.1-0.3-1.2-0.5-2.1-0.7-3.1zm0.4 17.2c0.9-1.9 1.9-3.7 3.1-5.9-0.1 2-0.1 3.4-0.3 4.7 0 0.4-0.3 0.9-0.6 1.2-0.4 0.5-1 0.9-1.8 1.6-0.1-0.6-0.6-1.3-0.4-1.6zm3.5 6.2c-0.4-0.8-0.6-1.4-1-2.2 1.2 0.5 1.6 0.9 1 2.2zm-0.3-3.3c0-0.5 0.1-0.9 0.1-1.4h0.4c0 0.5 0.1 1 0.1 1.4h-0.6zm-1.4 10.6c1.1 1 1 1.8-0.6 2.5 0.3-1.1 0.4-1.8 0.6-2.5zm-1.1-3.3c-0.2-0.1-0.4-0.1-0.6-0.2 0.3-0.8 0.7-1.6 1-2.4 0.2 0.1 0.3 0.1 0.5 0.2-0.3 0.8-0.6 1.6-0.9 2.4zm2.5-19.7c-0.7-1.6-1.1-2.7-1.6-3.9 1.5 0.8 1.8 2.1 1.6 3.9zm3 6.6c-0.4-1.1-0.6-1.8-0.8-2.4 0.2-0.1 0.5-0.2 0.7-0.2 0.9 0.5 0.7 1.2 0.1 2.6zm0.1 2.3c0 0.5-0.1 1-0.2 1.8-1-0.8-0.8-1.3 0.2-1.8zm-0.2 13.4c1 1.8 1 2.2-0.8 3.5-0.8-2.1-0.8-2.1 0.8-3.5zm-1.3-0.2c-0.2-0.1-0.5-0.1-0.7-0.2l0.3-1.2c0.2 0.1 0.6 0.1 0.6 0.2 0 0.4-0.1 0.8-0.2 1.2zm6.2-9.1c-1-0.7-1.7-1.4-0.8-2.7 1.7 0.8 1.7 0.8 0.8 2.7zm-1.7-8.8c0.1-0.6 0.2-1.1 0.3-1.7 0.2 0 0.3 0.1 0.5 0.1-0.1 0.6-0.2 1.2-0.3 1.7-0.2 0-0.3 0-0.5-0.1zm-2.2-4c-0.1 0.6-0.1 1.3-0.2 1.9-0.2 0-0.4-0.1-0.6-0.1 0.1-0.6 0.2-1.2 0.4-1.8h0.4zm-0.9-1.2c0.7-2.7-1.4-4.2-2.8-6.3 2.2 1.8 3.5 3.7 3.5 5.1 0 0.4-0.4 0.8-0.7 1.2zm-5.3-8c-0.5-0.9-1-1.7-1.4-2.6 0.2-0.1 0.3-0.2 0.5-0.2 0.7 0.7 1.7 1.3 0.9 2.8zm-1.3 1.2c-0.6-0.9-1.2-1.8-1.9-2.9 1.9 0.8 2.1 1.1 1.9 2.9zm-1.5-0.6c0.4 0.7 0.7 1.4 1.1 2.1l-0.6 0.3c-0.4-0.7-0.8-1.3-1.2-2 0.2-0.1 0.4-0.3 0.7-0.4zm0.5 6.2c-1.4 3-1.4 3 1 5.1-1.8-0.2-2.2-0.5-2.5-2.1-0.2-1.2-0.5-2.4 1.5-3zm20 68.4h-0.2c-0.1-0.5-0.2-0.9-0.3-1.4 0.1 0 0.2-0.1 0.3-0.1 0 0.5 0.1 1 0.2 1.5zm-25.9 4.1c0.3 0.8 0.7 1.6 1.2 2.8-1.4-0.2-2.4-0.3-3.7-0.4 1-1 1.7-1.6 2.5-2.4zm0 26.8c0.1 0.2 0.1 0.4 0.2 0.6-0.9 0.3-1.7 0.7-2.6 1-0.1-0.1-0.1-0.3-0.2-0.4 0.9-0.4 1.7-0.8 2.6-1.2zm1.5 32.5h-2.2v-0.2c0.7-0.1 1.5-0.1 2.2-0.2v0.4zm102.6-81c0.3 2-2.5 10.1-4.6 12.7 0.2-1.3 0.5-2.1 0.5-2.9 0-0.7-0.2-1.5-0.3-2.3-1.7 0.5-0.6 1.8-1.3 2.8-0.3-2.5 0.3-4.7 0.5-7 0.4-0.4 0.8-0.7 1.3-1.2 0.2 0.3 0.4 0.5 0.4 0.6 1.1-0.9 2.3-1.8 3.5-2.7zm-3.2-1c1-1 2-2.1 3-3.1-0.3 1.7-1 3-3 3.1zm4.3 38.7c0.3-1.3 0.5-2.7 0.8-4 0.5 2.5 0.1 4.8-0.7 7.1-0.9-0.1-1.9 0.2-2.3-1-0.1-0.4-0.9-0.6-1.5-1 0.2-0.7 0.3-1.4 0.4-1.9-0.9 0.1-1.7 0.2-2.9 0.3 0.4-1.3 0.7-2.4 0.9-3.2-0.5-1-1-1.7-1.2-2.6-0.1-0.4 0.3-0.9 0.7-1.7 1 1.4 0.9 3.3 2.9 3.1-0.1 2.3 1.5 3.4 2.9 4.9zm-0.5-15.9c0.1-0.8 0.3-1.6 0.5-2.6 0.5 1.1 0.5 1.1-0.5 2.6zm0.9 7.8c0.1-1 0.2-1.9 0.2-2.9h0.4c-0.1 1-0.1 1.9-0.2 2.9-0.1 0.1-0.3 0-0.4 0zm-1.8 15.7c-0.3 0.6-0.5 1.2-0.8 1.9-0.1-0.1-0.3-0.1-0.4-0.2 0.3-0.6 0.5-1.2 0.8-1.8 0.2 0 0.3 0.1 0.4 0.1zm-6.1-39.9c-0.3-1.7-0.3-1.7 1.2-2.2-0.4 0.7-0.8 1.4-1.2 2.2zm-2.8-3.6c-3.6 1.9-7.4 3.3-11.1 5.1-3.3 1.6-6.1 3.6-7.6 7.2-1.7 3.9-3.5 7.7-4.3 11.9-0.4 2.2-1.3 4.3-2.1 6.7-1-0.5-1.8-0.9-2.3-1.2-1.6 0.9-3.2 1.8-5.1 2.9 0.1-3 0.9-5.4 2-8 0.7 1.6 0.9 2.6-0.2 3.7-0.5 0.5-1.2 1.2-0.3 2.3 1-2.1 2.6-3.8 1.6-6.4-0.6-1.6-0.1-3.3 1.4-4.5 0.3-0.3 0.7-0.8 0.7-1.1 0-2.1 1.1-3.2 3.2-3.5-0.1-0.8-0.2-1.4-0.3-2-0.2-1.4 0.1-2.5 1.2-3.6 1.4-1.4 2.5-3.1 3.2-5.1 1-2.8 2.8-5 5.7-6.4 0.3 0.2 0.8 0.4 1 0.5 1-0.5 1.9-0.9 2.9-1.3-0.3-0.2-0.6-0.3-0.9-0.5 0.4-1.3 1.5-1.7 2.6-2.1 1-0.3 1.9-0.5 2.8-1.4 1-1 2.8-1.7 4.6-0.9 0.5-1.9 1.6-2.4 4-1.9 0.5-1.6 1.6-2.6 3.1-3.6 1.8-1.1 2.9 0.5 4.6 0.8-0.7-1.2-2.4-1.6-1.2-3.3 1 1.2 2 2.3 3 3.4-2.6 5.5-6.9 9.5-12.2 12.3zm10.8-18.6c0.8 1.3 1.4 2.3 2 3.2-0.2 0.1-0.3 0.2-0.5 0.4-1-0.8-1.8-1.6-1.5-3.6zm0.4-5.2c-0.2-0.5-0.3-1.1-0.6-1.4-1.7-2-3.6-3.8-5.2-5.9-0.8-1-1.3-2.4-1.7-3.6-0.4-1.4-0.1-2.9 1.1-4 1-1 2.1-2 3.1-3 0.5-0.5 1.1-0.9 1.5-1.5 1.6-2 1.6-2.7 0-4.8-0.2-0.2-0.3-0.5-0.7-1.3 1.7 0.4 3 0.7 4.1 1 0.1 9.3 0.2 18.2 0.3 27.6-1.3-0.9-1.5-2-1.9-3.1zm1.9-27.2c-2.3 0.2-4.4 0.7-6.4 0.4-1.8-0.3-4-0.2-5.1-2.1-2.9 1-5.7 2-8.9 3 0.4-1.7 0.7-3.1 0.9-4.5 0.2-0.9 0.3-1.9 0.3-2.8-0.1-1.2-0.7-1.7-1.9-1.5-2.5 0.4-5 0.9-7.9 1.4-1.3-3.5-2.6-7-3.8-10.5 0.3-0.3 0.4-0.5 0.5-0.5 2.3 0.6 3.7-0.5 4.5-2.5 0.8-1.8 1.5-3.7 2.4-5.5 0.6-1.4 1.3-2.7 2.1-4.2 1.6 0.6 2.4-0.3 3.3-1.2 1.7-1.8 3.4-3.5 5.1-5.3 0.2 0.1 0.3 0.2 0.5 0.4l-1.2 2.1c-1.1 1.8-2.4 3.6-3.4 5.5-0.4 0.8-1.3 1.6-0.5 2.6s1.7 0.2 2.9 0c-0.8 2-1.7 4 0.4 5.8 0.4-0.2 0.9-0.4 1.7-0.8-0.2 1-0.3 1.9-0.5 2.8 0.7 0.9 1.5 0.8 2.2 0.1 0.8-0.8 1.6-0.9 2.8-0.5 2.2 0.8 4.4-0.1 6.5-0.8 1-0.3 2.1-0.6 3.5-1 0.9 6.9 0 13.3 0 19.6zm-6.6-20c1.2-0.4 2.3-0.8 3.5-1.2 0 0.1 0.1 0.3 0.1 0.4-1.1 0.4-2.3 0.9-3.4 1.3 0-0.1-0.1-0.3-0.2-0.5zm-25.6 11.5c0.9 3.1 1.4 6.3 1.8 9.5-1.1-2.6-2.1-5.3-3.2-7.9-0.1-0.3-0.3-0.6-0.3-0.9-0.1-3.3-1.8-6.2-2.7-9.3-0.1-0.3-0.1-0.6-0.1-1.3 0.6 0.3 1 0.5 1.3 0.7 1.1 3.1 2.3 6.1 3.2 9.2zm-4.6-33.9c-0.1-0.5-0.1-1-0.2-1.5h0.3v1.5c0-0.1-0.1-0.1-0.1 0zm-0.4 12.3c-1.3-1.6-1.4-2.6-0.3-4.5 0 1.5 1.1 2.9 0.3 4.5zm-0.3 2.1c-0.1 0.1-0.3 0.2-0.4 0.3-0.4-0.3-0.9-0.5-1.2-0.9-0.3-0.3-0.3-0.8-0.6-1-1.6-1.3-1.6-1.2-0.3-2.7 0.1-0.2 0.4-0.3 0.7-0.5 0.3 1 0.5 1.8 0.8 2.6 0.2 0.8 0.6 1.5 1 2.2zm-3.5-12.1c0.9-0.6 1.5-1.1 2.5-1.8v3.8c-1.2-0.1-1.8-0.8-2.5-2zm-1.5 0.2c-1.2-1.4-0.7-2.8 0.1-4.3 2.2 1.7 2.2 1.7-0.1 4.3zm-9.4-27.3c4.4 1.6 6.6 5.5 8.8 9.2-3.3-2.6-5.3-6.6-8.8-9.2zm0.1 3c-1.9-0.7-3.1-2-4.9-3.2 3.1-0.3 3.7 0.1 4.9 3.2zm0 3.2c-3.2-2-6.5-4-9.9-6 0.5-0.7 1.1-0.4 1.8-0.2 3.4 1.3 5.9 3.5 8.1 6.2zm2.3 5.7c-2.1 0.2-2.1 0.2-2.9-1.9 1 0.7 1.8 1.2 2.9 1.9zm-4.1 37.5h-0.6c0.1-0.4 0.2-0.9 0.2-1.3h0.3c0.1 0.5 0.1 0.9 0.1 1.3zm-41.2-2.8c0.1 1.7 0.3 3.4 0.4 5.2-1.7-1.9-1.8-3.1-0.4-5.2zm-1.3-3.4c-0.8 0.7-1.5 1.5-2.7 2.7 0-0.7-0.3-1.5 0-1.8 1.5-1.4 2.4-3 2.8-5 0.2 0.8 0.3 1.6 0.5 2.3 0.3 0.8 0 1.3-0.6 1.8zm-2.4-1c0-0.3 0-0.6 0.1-0.9s0.4-0.4 0.5-0.7l0.3 0.3c-0.3 0.4-0.5 0.9-0.8 1.3 0.1 0.1 0 0.1-0.1 0zm2.6-18.1c-0.2 0-0.3-0.1-0.5-0.1 0.1-0.5 0.2-0.9 0.4-1.4 0.2 0.1 0.3 0.1 0.5 0.2-0.1 0.4-0.3 0.8-0.4 1.3zm-0.5-3.4c0.1-0.8 0.1-1.5 0.2-2.3 0.2 0 0.4 0.1 0.6 0.1-0.2 0.8-0.5 1.5-0.8 2.2zm-0.8-3.1c-0.1-0.5-0.3-0.7-0.2-0.8 0.2-0.4 0.5-0.8 0.7-1.2 0 0 0.2-0.1 0.2 0 0.1 0 0.1 0.1 0.2 0.3-0.2 0.4-0.5 1-0.9 1.7zm0.7 3.4c-0.1 0.4-0.3 0.7-0.5 1.4-0.3-1.5-0.3-1.5 0.5-1.4zm0.1 14.8c-0.4-1.1-0.7-1.9-1.1-3 1.4 1.3 1.4 1.3 1.1 3zm-3.7-4.4c-0.7-1.8-0.7-1.8 1.3-2.7-0.4 0.9-0.8 1.7-1.3 2.7zm-0.7-4.1c0.2-0.7 0.3-1.2 0.5-2 1 1.1 1.1 1.7-0.5 2zm-1.3 24.4c0.4-1.1 0.3-2.3 0.4-3.4 2 1.1 2.3 2.1 0.8 3.8-0.8 1-1.7 1.8-2.5 2.7-0.1-0.1-0.3-0.2-0.4-0.3 0.5-0.9 1.3-1.8 1.7-2.8zm-4.2 4.4c0 1.7 0 3.2 0.1 4.7-1.6-3.1-1.6-3.5-0.1-4.7zm-10.2 52c-0.3 1.6-0.7 3.2-1 4.8-0.2-0.1-0.4-0.1-0.5-0.2 0.4-1.6 0.7-3.1 1.1-4.7 0.1 0 0.2 0.1 0.4 0.1zm-4.2-32.2c0.8 1.4 0.7 2.4-0.4 3.5-1.6 1.6-3.1 3.2-5.1 4.3-0.7 0.4-1.3 1-1.8 1.6-1.1 1.2-1.2 2.5-0.7 4 1.4 3.7 3.7 6.6 7.2 8.6 0.8 0.4 1.5 0.9 2.2 1.4-0.6 1.5-1.2 3-1.9 4.5-2.8-1.3-4.2-3.8-5.8-6-0.2-0.2-0.1-0.7-0.3-0.8-2.5-1.2-3.8-3.6-5.5-5.6-1.6-1.9-1.3-4.5 0.8-6 1.6-1.1 3.4-2.1 5.1-3.1 1.6-1 3.1-1.9 4.6-3 1.1-0.7 1.6-2 1.6-3.4zm1.2 45.3c0 0.3 0.3 0.5 0.8 0.7-0.2-1.8-0.4-3.6-0.5-5.4 0.2 0 0.3-0.1 0.5-0.1 0.2 0.3 0.4 0.6 0.5 0.8 0.1 1.7-0.4 3.5 0.4 5.2 0.2 0.3-0.5 1.1-1 1.9 0.8-0.3 1.3-0.4 1.8-0.6 0.5 2.1 1 4.2 1.5 6.2 0.4 1.6 1.1 3 2.8 3.3 0.5 1.5 0.9 2.8 1.5 4.5l-2.1-0.7c1.7 1.6 1.7 1.6 2.1 3.6-1.5-1.5-2.8-2.8-4.1-4 0.1-0.2 0.2-0.3 0.3-0.5 0.5 0.2 0.9 0.4 1.4 0.6-1.1-1.3-2-2.8-3.9-3.4-0.4-0.1-0.7-1-0.9-1.5-0.2-0.6-0.2-1.3-0.6-2 0 0.8-0.1 1.5-0.1 2.3-2.6-1.2-3.8-7.2-2-10.5h-1.9c0.5-1.1 0.9-2.1 1.4-3.4-0.7 0.3-1.5 0.6-1.5 0.8 0 1.9-2.1 2.4-2.5 4-0.1-2.6 0.6-4.9 1.9-6.9-0.9-0.2-1.7-0.5-2.7-0.7 2-2.5 3.8-2.8 6.4-1.3 0.1 2.5 0.2 4.8 0.5 7.1zm-13.1 61.7c0.5 1.7-0.5 1.8-1.2 2.2-0.1-0.1-0.2-0.2-0.3-0.4 0.4-0.5 0.9-1.1 1.5-1.8zm-2.2-18.6c0-0.1-0.1-0.2-0.1-0.4 0.5-0.2 1-0.3 1.5-0.5 0 0.2 0 0.4 0.1 0.6-0.6 0.1-1 0.2-1.5 0.3zm1.4-18.4c-0.1-0.1-0.3-0.1-0.4-0.2 0.3-1.1 0.6-2.1 0.9-3.2 0.2 0 0.3 0.1 0.5 0.1 0.2 1.3-0.1 2.4-1 3.3zm-2.2 11c-0.3 1.4-0.5 2.9-0.9 4.8-1-2-0.5-3.6-0.3-5.2 0.1 0.7 0.2 1.3 0.2 2h0.2l0.3-1.8c0.3 0.2 0.4 0.2 0.5 0.2zm-4.2 15.4c0-1.5 1-1.1 1.5-1.4l0.3 0.6c-0.5 0.2-1 0.4-1.8 0.8zm0.7 6.6c-0.1 0.7-0.2 1.4-0.3 2.6-0.8-1.3-0.3-1.9 0.3-2.6zm-0.5-24.8c0.2-1.4 0.3-2.7 0.5-4.1h0.4c-0.1 1.4-0.3 2.7-0.4 4.1-0.2 0.1-0.4 0-0.5 0zm1.3-17.8c-0.4 0.8-0.8 1.7-1.2 2.5-0.2-0.1-0.3-0.1-0.5-0.2 0.3-1.9 0.9-3.6 2.8-4.8-0.4 0.8-0.8 1.6-1.1 2.5zm136.9 26.4c0.1-1.1 0.2-1.8 0.3-2.5 0.6 0.7 0.8 1.4-0.3 2.5zm0.6-42.2c-0.1-1-0.1-2.1-0.2-3.1-0.1-0.7-0.2-1.4-0.5-2-0.7-1.2-0.3-2 0.5-3.2 0.1 0.7 0.2 1.1 0.3 1.7 0.3-0.5 0.6-0.8 1.1-1.4 0.6 3-0.5 5.4-1.2 8zm0.4 14.1c0.6-2.8 0.4-5.6 1.1-8.3 0.2 5.5-0.1 11-0.7 16.5-0.2-2.7-1-5.6-0.4-8.2zm-5.1-114.7c-0.3 0.2-0.8 0.1-1.2 0.2-2.5 0.4-5 0.7-7.5 1.1-1.5 0.2-1.8 0.1-2.3-1.3-0.1-0.2-0.2-0.5-0.2-0.7-0.9-2.5-0.9-2.5-3.6-2.4-0.9 0-1.7-0.1-2.8-0.2 0.2-1.3 0.3-2.6 0.6-3.7 1.4-4.7 0.6-9.5 0.6-14.3 0-0.5-0.1-1-0.4-1.4-0.4-0.4-1-0.9-1.4-0.9-0.5 0-1.1 0.6-1.3 1.1-0.9 2.7-1.6 5.5-2.4 8.3s-1.7 5.5-3.6 7.7c-0.6 0.7-0.9 1.7-1.2 2.6-0.9 3.3-1.7 6.6-2.5 9.7-0.5-4.1-2.4-8-3.9-12.1-1.2-3.1-2.9-5.9-4.6-8.6-1.1-1.7-2.3-3.3-3.7-4.7-1.4-1.6-3.4-2.3-5.5-2.8-2.3-0.5-4.7-1-7-1.6-3.3-0.9-6.7-0.2-10-0.4-0.3 0-0.6 0.1-1 0.1-6.8-0.8-12.4 2.3-17.9 5.7-1.1 0.7-1.9 1.7-2.8 2.6-3.9 3.9-7.6 8-9.8 13.2-0.4 0.9-0.6 1.8-0.8 2.7-0.3 1.2-0.5 2.5-0.9 3.7-1.2 3-1.9 6-2.5 9.2-0.7 3.6-1.9 7-2.9 10.6-1.7-0.7-2.2-1.9-2.5-3.2-0.2-0.9-0.2-1.9-0.3-2.9-0.1-2.2-0.4-2.6-2.7-2.8-0.6-0.1-1.3 0-2.2 0 0.5-0.9 1-1.5 1.2-2.2 0.2-1 0.5-2.3 0.1-2.9-0.5-0.6-1.8-0.7-2.8-0.7s-2 0.4-3.2 0.6c0.3-0.9 0.5-1.4 0.7-1.9 0.5-1.6-0.1-2.3-1.8-1.9-1.1 0.3-2.1 0.7-3.2 1.1-1 0.4-1.9 0.9-2.9 1.3-0.5-0.4-1-0.8-1.4-1.1 0.4-3.2 3.2-5.2 4.4-8.2-0.8-0.2-1.3-0.4-1.8-0.5 0-0.8 0.1-1.7 0.1-2.6-2.1 0.1-3.6 0.9-4.9 2-1.4 1.2-2.7 2.5-3.9 3.9-2.2 2.5-4.4 5-6.6 7.5-0.3 0.3-0.7 0.6-0.7 0.9 0 0.5 0.1 1.1 0.4 1.4 0.1 0.1 1 0 1.2-0.3 0.9-1 1.6-2.2 2.5-3.2 2.2-2.5 4.5-5 6.7-7.5 0.7 0.8 1.3 1.5 1.9 2.2-0.6 1.2-1.4 2.3-1.8 3.6-0.6 1.6-1 3.2-1.3 4.8-0.2 1.1 0.7 1.5 1.9 1 2.6-1.2 5.2-2.3 8.1-3.7-0.1 0.9-0.2 1.5-0.3 2.1-0.2 1.7 0.4 2.3 2 1.8 1-0.3 1.9-0.7 2.9-1 0.4-0.1 0.9-0.1 1.6-0.1-0.7 1.3-1.4 2.4-1.9 3.5-0.8 1.7-0.3 2.5 1.7 2.5 1.1 0 2.2-0.1 3.3-0.2 0.4 1.9 0.8 3.5 1.2 5.1 0.4 1.7 1.2 2.9 3.3 2.7-0.7 2.3-1.4 4.4-2.1 6.5-0.3 1-0.5 2 0.1 3 0.7 1.1 0 2-0.8 2.7-0.7 0.7-1.5 0.6-2.4 0.1-1.9-1-2.1-1-3.3 0.7-0.9 1.4-1.5 3.1-2.1 4.7-0.2 0.6-0.3 1.2-0.5 2-0.7-0.6-1.2-1.1-1.7-1.5-1.1 0-1.7 0.6-2 1.5-0.6 1.5-1.1 3-1.7 4.5-0.4 0.9-0.9 1.8-1.3 2.8-1.7-0.8-3.2-1.6-4.7-2.3-1.9-0.9-1.9-0.9-3.5 0.6-0.2 0.2-0.5 0.4-0.9 0.7-0.5-0.9-1-1.8-1.5-2.6-1.3-2-2.8-2.1-3.8-0.1-0.9 1.7-1.2 3.7-1.7 5.7-0.1 0.2 0.4 0.6 0.7 1 2.1-1.3 0.9-4.1 2.7-5.5 2 0.7 1.1 3.3 2.8 4.2 1.6-0.6 3.3-1.3 5.1-2 2.4 2.3 6.1 2.8 8.6 5.3-0.5 1.5-1.8 2-2.9 2.4-3 1-5.3 2.7-7.7 4.8-1.9 1.6-2.4 3.7-2.6 5.9-0.1 0.9 0.7 1.9 1.3 2.8 0.7 1 1.7 1.9 2.5 2.8 1.8 2 3.6 4.1 5.5 6 1.8 1.8 3.7 3.4 5.9 5.4 0 0.1 0 0.6 0.1 1 0.2 1.8-0.6 2.8-2.3 3.4-1.1 0.3-2.2 1-3.3 1.5-2.7 1.1-4.3 3.2-4.9 6.1-0.5 2.6-1 5.3-1.4 7.9-0.1 0.8-0.3 1.5-1.2 1.9-4.3 2-7.4 5.2-9.5 9.7-0.1-1.7-0.3-3.3-0.3-5-0.2-5-0.3-10-0.5-15.1-0.2-5-0.4-10.1-0.5-15.1-0.2-11.3-0.4-22.7-0.6-34-0.2-9.8-0.5-19.6-0.9-29.5-0.2-4-0.7-8-0.9-11.9-0.3-5.6-0.7-11.2-0.8-16.8-0.2-7.2-0.8-14.5-1.5-21.7-0.2-2.1-0.2-4.3-0.3-6.5-0.1-5.3-0.2-10.5-0.2-15.8 0-1.8 0.2-3.6 0.3-5.4 3-0.9 5.9-1.1 8.7-1.2s5.6-0.1 8.4-0.1c5 0.1 10-0.7 15-1 5.3-0.3 10.7 0.1 16 0.2 1.4 0 2.9 0.2 4.3 0.2 4.6 0.3 9.2 0.6 13.9 0.8 2 0.1 4 0 6 0.1 7.8 0.2 15.6 0.4 23.5 0.8s15.8 0.9 23.7 1.4c7.6 0.4 15.2 0.6 22.7 0.2 2.6-0.1 5.2-0.3 7.7-0.5 0.2 0.3 0.4 0.4 0.4 0.5 0.5 6.4 1.2 12.7 1.4 19.1 0.2 4.5-0.3 9.1-0.5 13.6-0.1 3.4-0.3 6.7-0.4 10.1-0.1 3.7-0.2 7.5-0.3 11.2-2.1 1.4-4.2 2.4-6.3 3.3zm1.2-61.5h1.7c0 0.1 0.1 0.2 0.1 0.2-0.6 0.2-1.2 0.3-1.8 0.5v-0.7zm3.4-0.1c0.6 0 1.2-0.1 2.2-0.2-0.8 1.1-1.5 1.1-2.2 0.8 0.1-0.2 0.1-0.4 0-0.6zm3.4 111.1c-0.1 10.3-0.2 20.5-0.2 30.8h-0.4v-30.7c0.2-0.1 0.4-0.1 0.6-0.1zm-0.4-5h0.2v2.5c-0.1 0-0.1 0-0.2 0.1v-2.6zm2.3 34.8c-0.1 0.9 0 1.7 0 2.6-0.2 0.1-0.4 0.1-0.6 0.2-0.2-0.7-0.5-1.4-0.5-2.2-0.1-6.6-0.1-13.3-0.1-19.9 0-4.1 0.3-8.1 0.3-12.2 0-4.9-0.2-9.7-0.4-14.6-0.1-1.8-0.2-3.7-0.2-5.5 0-0.8 0.2-1.6 0.2-2.4h0.7c0.1 0.6 0.2 1.3 0.2 1.9 0 4.2-0.2 8.5 0 12.7 0.1 4.6 0.7 9.2 0.8 13.8 0.2 8.5 0.7 17.1-0.4 25.6zm0.4-71.4c0 5.3 0 10.5-0.7 15.7 0 0.4-0.2 0.7-0.5 1.6-0.5-0.9-0.8-1.3-0.9-1.7-0.1-2-0.2-4-0.2-6 0-5.4-0.4-10.9 0-16.3 0.3-4.5 0.1-9 0.4-13.5 0.5-7.3 0.5-14.7 0.8-22 0.1-1.7 0.4-3.3 0.3-5-0.2-4.3-0.7-8.6-0.9-12.9-0.1-1.7 0.1-3.5 0.2-5.6 1.6 1.4 1.5 2.9 1.5 4.3 0.2 5.8 0.1 11.7 0.5 17.5 0.4 6.4-0.1 12.8-0.3 19.1 0 8.3-0.3 16.5-0.2 24.8zm-183.7-33.6c0-1 0.1-2 0.1-3.1h0.1v3.1h-0.2zm2 230.8c-0.1 0.1-0.2 0.2-0.6 0.4 0-1.9-0.2-3.7 0-5.5 0.6-6.1 0.7-12.2 0.3-18.4-0.3-3.8 0.2-7.7 0.1-11.5-0.1-7.7-0.4-15.5-0.5-23.2-0.2-6.7-0.3-13.4-0.4-20.1-0.1-4.2-0.1-8.3-0.1-12.5 0.1-6.4 0.2-12.8 0.4-19.2 0.2-7.7 0.8-15.3 0.8-23 0-6.5-0.6-12.9-0.9-19.4-0.1-2.8-0.1-5.6-0.1-8.4 0-6.4 0.2-12.8 0.1-19.2s-0.6-12.8-0.6-19.2c-0.1-4.6 0.3-9.3 0.4-13.9 0.1-3.4 0.1-6.7 0.2-10.1 0-2.1-0.1-4.2 0-6.2 0.3-7-0.2-13.9-0.7-20.8-0.3-3.8-0.6-7.6-0.7-11.5-0.1-2.9 0.4-5.7 0.3-8.6 0-6.3 0-12.6-1.1-18.9-0.4-2.1-0.8-4.4-0.3-6.7 10.1 5.9 18.6 13.3 24.6 23.2 0.5 0.8 1.5 1.7 0 2.9-0.7-0.9-1.4-1.8-2-2.8-2.4-3.9-5.2-7.4-8.7-10.4-0.3-0.2-0.6-0.5-0.9-0.7-1.2 0.8-1.1 1.4-0.1 2.2 2.1 1.9 4.2 3.7 6 5.8 2 2.3 3.7 4.8 5.3 7.3 0.5 0.7 0.3 1.8 0.1 2.7-3.5-4.4-7-8.7-10.6-13.1-0.1 0.1-0.3 0.2-0.4 0.3 3.4 4.7 7.1 9.2 10 14.3-0.1 0.1-0.3 0.2-0.4 0.3-1.7-1.8-3.3-3.7-5-5.5 1.5 4 5.3 6.7 6.4 11.5-2.7-3.2-4.9-6-7.2-8.8-0.1 0.1-0.3 0.2-0.4 0.3 0.6 0.9 1.1 1.9 1.8 2.7 1.2 1.6 2.5 3.1 3.7 4.7 1.4 1.9 2.4 4 2.8 6.5-0.7-1-1.3-2.1-2.1-3-1.7-2-3.4-4-5.1-6 0.8 1.4 1.6 2.7 2.5 4.1 1.6 2.6 3.3 5.3 4.9 7.9 0.2 0.4 0.2 0.8 0.1 1.4-1.8-2.2-3.6-4.3-5.4-6.5-0.2 0.1-0.3 0.2-0.5 0.3 1 1.4 2 2.9 3 4.3 0.9 1.4 1.9 2.7 2.7 4.2 0.4 0.7 0.3 1.6 0.1 2.6-1.9-2.3-3.9-4.6-5.8-7-0.1 0.1-0.3 0.2-0.4 0.3 1.4 2.1 2.8 4.2 4.3 6.2 1.9 2.5 3.1 5.2 2.6 8.6-1.6-1-1.6-3-3.1-4.3 0 0.7-0.1 1.2 0 1.6 0.9 1.7 1.9 3.3 2.8 5 0.3 0.6 0.6 1.3 0.6 1.9 0 4.3-0.2 8.6-0.1 12.9 0.1 3.3 0.6 6.7 0.9 10 0.5 5.6 0.9 11.1 1.7 16.7 0.6 4.4 0.5 8.7 0.6 13.1 0.2 5 0.4 10 0.6 15.1 0.2 4.1 0.5 8.1 0.6 12.2 0.1 3.8 0 7.7-0.1 11.5-0.1 3.4-0.1 6.7-0.2 10-0.1 1.9-0.2 3.8-0.2 5.7v23c0 6.1-0.1 12.3-0.2 18.4-0.1 6-0.4 12-0.5 18 0 1.3-0.6 2.1-1.4 2.9-1.1 1-2.2 2-3.5 3.1 2.1 0.6 2.9-1.4 4.5-1.7 0.4 1.3-0.7 1.8-1.5 2.4-2.3 2-4.6 3.9-6.9 5.9-0.4 0.3-0.6 0.8-1.2 1.6 2.4-0.4 3.3-2.1 4.7-3.2s2.8-2.3 4.3-3.5c1 2.4-0.2 3.4-1.7 4.5-2.7 2-5.3 4.1-7.9 6.2-0.2 0.2-0.4 0.5-0.4 1.1 0.4-0.1 1-0.1 1.3-0.3l4.5-3.6c1.3-1 2.7-2 4.1-3 0.4 1.9 0.4 2.2-1.2 3.1-3.9 2.3-7.4 5.1-10.8 7.9-0.2 0.2-0.4 0.4-0.9 1 0.8 0 1.4 0.1 1.8-0.1 0.8-0.4 1.5-0.9 2.1-1.5 2.7-2.4 5.5-4.6 8.8-6.2 0.4 1.7 0.5 1.7-0.5 2.5-1.5 1.3-3.2 2.4-4.7 3.7l-6.3 5.1c-0.5 0.4-0.9 1-1.8 2 0.9 0 1.5 0.2 1.8 0 0.6-0.4 1.1-0.9 1.6-1.4 3.1-2.5 6.3-4.9 9.4-7.4 0.2-0.1 0.4-0.1 0.8-0.3 0.1 0.8 0.2 1.4 0.3 2.1 0.2 1.1-0.2 1.8-1.2 2.6-3.4 2.4-6.6 5-9.9 7.5-0.6 0.5-1.2 1.1-1.5 1.8-0.2 0.3 0.2 0.9 0.3 1.4 0.4-0.2 1-0.2 1.2-0.5 1.7-3.1 4.7-4.7 7.3-6.8 1.1-0.9 2.3-1.7 3.4-2.5 0.2 0.3 0.4 0.4 0.4 0.5 0.6 3.7 1.3 3.2-2.4 5.3-4.5 2.6-8.3 6-12.3 9.1-0.2 0.1-0.3 0.4-0.5 0.8 0.6 0 1 0.2 1.3 0.1 1.1-0.7 2.2-1.4 3.1-2.2 3.3-2.9 6.9-5.4 11-7.6 0.3 0.9 0.5 1.6-0.4 2.3-1 0.7-1.8 1.8-2.8 2.5-4 2.7-7.6 5.8-10.9 9.3-0.6 0.7-1 1.5-1.6 2.3 1.1 0.6 1.5 0 2-0.5 2.3-2.2 4.5-4.5 7-6.6 2.1-1.7 4.4-3.1 6.6-4.7 1.1 3.3 0.9 3.6-1.6 5.2-3.5 2.3-7.1 4.6-10.5 7.1-1.8 1.3-3.4 2.9-4.9 4.6-3.1 4-5.7 7.3-8.3 10.4zm196.8 8.9c-4.6 0.1-9.1 0.3-13.7 0.2-4.2-0.1-8.4-0.4-12.7-0.6-6.2-0.2-12.4-0.8-18.6-0.5-9 0.4-18 0-27-0.5-4.5-0.2-9.1-0.3-13.6-0.4-7.9-0.2-15.8-0.5-23.7-0.6-8.5-0.1-16.9-0.1-25.4-0.3-5.2-0.1-10.4-0.7-15.6-0.7-9.5 0-19-1.9-28.5-1.1-5.3 0.4-10.5 0.1-15.8-0.2-0.3 0-0.6-0.1-0.9-0.1 0.1-0.7 0.5-1.7 1.3-2.9 0.2-0.3 0.3-0.5 0.5-0.8 4.6-6.7 16.6-17.9 21.7-19.6 0.7 0.9 0 1.4-0.6 1.9-3.1 2.7-6.2 5.5-9.2 8.3-1.4 1.3-2.5 2.9-3.7 4.4-0.3 0.3-0.3 0.8-0.2 1.4 0.4-0.3 0.8-0.6 1.1-1 3.2-4.3 7.3-7.6 11.4-10.9 1.7-1.4 3.9-2.2 5.8-3.3 0.6-0.4 1.2-1 1.9-1.2 0.6-0.2 1.4-0.1 2.3 0.1-5.4 3.9-10.7 7.8-14.8 13.5 0.6 0 0.9 0 1-0.1 3.5-4.3 7.9-7.6 12.5-10.7 0.5-0.4 1.1-0.6 1.6-1.1 2.6-2.4 5.8-2.1 9.5-2.7-3.1 2.1-5.9 3.7-8.4 5.6s-5.1 3.7-6 7.1c0.2-0.2 0.5-0.4 0.7-0.7 3.8-4 7.9-7.7 13.1-9.9 0.9-0.4 1.6-1.2 2.7-2 1.1 0 2.7 0 4.6-0.1-2.3 1.6-4.2 3.1-6.2 4.5-1.9 1.4-4 2.8-4.1 5.7 0.3-0.3 0.7-0.5 1-0.9 3.1-4.1 7.5-6.6 11.9-9.1 0.9-0.5 2.1-0.3 3.3-0.2-3.6 3.2-8 5.3-10.8 9.4 0.6 1 1.1 0.7 1.6 0.1 2.8-3.6 6.6-6 10.4-8.4 1.9-1.3 2.5-1.3 4.4-0.7-2.5 2.2-5.7 3.6-7.2 6.9 0.1 0.2 0.2 0.3 0.4 0.5 0.4-0.2 0.9-0.4 1.2-0.7 2.6-3.1 5.9-5.1 9.4-6.8 0.3-0.2 0.7-0.1 1.4 0.3l-2.4 2.1c-0.8 0.7-1.7 1.4-2.5 2.2-0.2 0.3-0.2 0.8-0.3 1.2 0.4-0.1 0.9 0 1.2-0.2 2-1.6 3.9-3.3 5.8-4.9 0.6-0.5 1.4-0.8 2.3-1-0.2 1.5-2.2 2.1-1.8 4.3 0.7-0.5 1.2-0.8 1.6-1.2 0.7-0.7 1.3-1.6 2.1-2.3 0.6-0.4 1.4-0.7 2.1-0.7 2.4-0.1 4.8 0 7.2-0.1 8.1-0.2 16.1-0.4 24.2-0.6 4-0.1 8-0.4 12-0.4 2.8 0 5.6 0.1 8.4 0.4 0.9 0.1 1.8 0.6 2.6 1.1 1.1 0.7 2.1 1.7 3.3 2.7 0-0.4 0.1-0.6 0.2-1.3 1.4 1.1 2.5 2.1 3.7 3.1-0.2-2.5-2.2-3.5-4-5.3 2.4 0.1 4.1 1 5.5 2.2 2.5 2.2 4.9 4.5 7.4 6.8 0.2 0.2 0.5 0.2 1.3 0.5-2.3-3.9-5.6-6.2-8.9-9.2 1.9 0.3 3.4-1 4.4 1 0.1 0.1 0.2 0.2 0.4 0.2 3.4 0.2 5 3.1 7.2 5.1 1.8 1.6 3.2 3.5 4.9 5.2 0.2 0.2 0.6 0.1 1 0-3.3-3.9-6.3-8-10.8-11.4 4-0.2 10 4.3 17.7 12.7 0.4-1.2-0.4-1.9-1-2.5-2.5-2.6-5.1-5-7.7-7.5-1-0.9-2.1-1.6-3.6-2.7h3.6c1.1 0.8 1.9 1.4 2.8 1.9 2.9 1.6 5.4 3.6 7.6 6.1s4.5 4.9 7.2 7.2c-0.1-0.4-0.1-1-0.3-1.3-4.2-4.7-7.8-9.9-13.5-13.6 1.8-0.2 3.1-1 4 0.9 0.1 0.3 0.6 0.5 1 0.7 3.7 2.1 6.8 5 9.4 8.3 1.1 1.4 2.5 2.7 3.8 3.9 0.3 0.2 0.6 0.4 1.1 0.6-0.6-2.4-9.1-11.2-14.1-14.8 1.8 0 3.3 0 5-0.1 0.4 1.7 2 2.6 3.2 3.8 1.7 1.7 3.5 3.5 5.2 5.3 2.1 2.3 4.2 4.6 6.2 6.9 0.2 0.2 0.4 0.4 0.8 0.6 0-1.5-2.1-4.4-6.3-8.7-2.5-2.6-5.2-5.2-7.9-7.9h3.4c0.7 0.9 1.3 1.9 2.1 2.5 4.7 3.4 8.4 7.8 12.1 12.2 0.6 0.7 1.2 1.3 2.1 1.7-0.8-2.4-2.6-4.1-4-5.9-1.5-2-3.3-3.7-5.1-5.4-1.7-1.7-3.6-3.3-5.6-5 1.5-0.3 2.5-0.1 3.5 0.9 3.5 3.5 7.2 6.8 10.6 10.3 1.6 1.6 2.9 3.6 4.3 5.4 0.6 0.7 1.1 1.5 1.8 2.4 0-1.8-1.6-4.5-6.1-9.8-2.5-2.9-5.3-5.4-8.2-8.4 2.3 0.1 3.6 1.5 4.9 2.6 8.2 6.8 14.4 15.1 17.5 25.8-2.2 0.1-3.9 0.3-5.6 0.3zm9.6-213.8c-0.1 1.7-0.2 3.3-0.2 5-0.2 12.5-0.3 25.1-0.5 37.6-0.2 9.5-0.6 19-0.9 28.5-0.2 6.7-0.3 13.4-0.4 20.1-0.2 8.4-0.4 16.8-0.5 25.1-0.1 5.4 0.1 10.9 0.1 16.3l0.3 29.7c0 2.7 0.3 5.4 0.2 8.2-0.3 9.7-0.8 19.5-1.2 29.2-0.1 2.4-0.4 4.7-0.6 7.5-1.4-1.3-1.6-2.9-2.3-4.1-0.8-1.4-1.4-2.9-2.3-4.2-0.8-1.3-1.8-2.5-2.7-3.7-1-1.2-2-2.5-3.2-3.6-1.1-1.1-2.2-2-3.3-3.1-1.2-1.1-2.2-2.3-3.4-3.3-1.1-1-2.4-1.8-3.7-2.8 0.3-0.6 0.6-1.2 0.9-1.9 2.8 1.8 5.1 3.8 7.1 6.2l9 10.5c0.2 0.2 0.5 0.3 0.8 0.5-0.6-2.9-9.6-12.9-18-20.1 0.1-0.7 0.1-1.4 0.2-2.2v-2.8c4.6 3 7.5 7.2 11.4 10.5-0.1-0.4-0.1-0.9-0.3-1.2-2.9-3.3-5.7-6.7-8.9-9.6-1.9-1.7-2.4-3.3-1.5-5.6 3.4 2.2 5.6 5.6 8.6 8.9-0.1-0.9-0.1-1.4-0.3-1.7-1.8-2.6-3.7-5.2-6.2-7.3-1.5-1.2-3.2-2.5-2.7-4.9 0.1-0.3 0.2-0.6 0.4-1 2.7 1.4 3.8 4.3 6.6 5.7-0.2-0.4-0.3-1-0.6-1.3-1.6-1.9-3.2-3.7-4.9-5.6-1.4-1.5-1.4-1.5-1-3.7 2.3 0.8 3 3.6 5.7 4.6-1.4-2.4-3-4-4.5-5.7-1.2-1.4-1.2-1.4-1-3.6 1.4 1.5 2.5 3.2 4.6 3.9 0.3-1.7-1.1-2.1-1.8-2.9-0.8-0.9-1.7-1.5-2.7-2.4v-2.6c0.9 0.5 1.6 0.9 2.7 1.5-0.4-2.2-2.5-3-2.8-5.1 1 0.5 1.7 1 2.6 1.4 0.4-1.4-0.5-1.9-1.1-2.4-1.3-1.1-1.7-2.3-1.6-4 0.3-4.9 0.6-9.9 0.7-14.8 0.1-3.7 0-7.4-0.1-11-0.2-6.3-0.6-12.6-0.6-18.9 0-4.6 0.3-9.2 0.7-13.9 0.6-7 1-14 0.5-21.1-0.1-1.4 0-2.9 0-4.3-0.1-3.1-0.4-6.2-0.5-9.3-0.1-4-0.3-7.9-0.2-11.9 0.2-7.6 0.5-15.1 0.9-22.7 0.3-7.4 0.8-14.8 1.1-22.2 0.2-3.9 0.3-7.8 0.1-11.7-0.1-2.2 0.5-4.2 0.9-6.3 0.2-1.1 1-2.1 1.5-3.1-0.1-0.2-0.3-0.3-0.4-0.5-0.7 0.5-1.4 1-2.4 1.7 1-3 3.1-5 4.5-7.8-2.8 0.3-2.9 2.8-4.5 3.9-0.6-0.9-0.3-1.6 0.4-2.3 1.8-2.1 3.5-4.2 5.2-6.3 0.5-0.6 0.9-1.3 1.3-1.9-1.1-0.8-1.5-0.3-2.1 0.4-1.6 2.1-3.2 4.1-5 6.3-0.6-2.2-0.6-2.4 0.7-4 1.4-1.7 2.9-3.4 4.4-5.1 0.2-0.3 0.4-0.6 0.7-1-1.5-0.8-2 0.4-2.6 1.1-1.1 1.3-2.2 2.7-3.4 4.3-0.6-1.7 0.3-2.3 1-3 2.5-3 5.1-6 7.6-9 0.2-0.2 0.3-0.5 0.4-0.8-1.1-0.6-1.5 0.2-2 0.8-1.9 2.2-3.7 4.4-5.6 6.6-0.3 0.4-0.8 0.7-1.3 1.2-0.9-1.3-0.2-2.3 0.5-3.1 3.3-3.8 6.7-7.5 10.1-11.2 0.3-0.4 0.7-0.8 1.2-1.4-1.3-0.2-1.9 0.3-2.5 0.9-2.9 3.1-5.9 6.3-8.8 9.4-0.2 0.2-0.4 0.5-0.9 0.9 0-0.6-0.2-1-0.1-1.2 1.9-3.5 4.7-6.4 7.5-9.2 1.3-1.3 2.5-2.7 3.7-4.1 0.3-0.3 0.4-0.8 0.7-1.2-1.2-0.7-1.5 0.2-2 0.8-3.4 3.7-6.8 7.4-10.3 11.1-0.5-1.9-0.2-3.5 1.1-5 3.1-3.6 6-7.3 9-10.9 0.6-0.7 1.4-1.3 2.4-2.2-1.6 0.1-2.3 0.9-3 1.7-2.7 3-5.4 6.1-8.1 9.1-0.3 0.4-0.6 0.7-1 1.1-0.9-1-0.3-1.7 0.3-2.3 1.5-1.8 3-3.7 4.6-5.5 2.3-2.6 4.6-5.1 6.9-7.6 0.3-0.4 0.5-0.8 0.6-1.4-2.1 0.9-3 2.8-4.5 4.3s-2.8 3.1-4.1 4.6c-1.4 1.6-2.8 3.2-4.4 5.1 0-1.8 1.1-2.9 1.9-4 2.1-2.9 4.1-5.9 6.3-8.7 2.4-3 4.7-6 7.4-8.8 1.7-1.8 3.8-3.3 5.8-4.9 0.3-0.2 0.7-0.3 1.2-0.4 0.1 1.5 0.3 2.8 0.3 4.2 0.1 4.5 0.3 8.9 0.3 13.4 0 6-0.2 12-0.5 18-0.2 5.4-0.8 10.9-0.7 16.3 0.2 8.6 1 17.2 1.3 25.8 0.3 4.9-0.1 9.7-0.2 14.5zm98.1-16.8c-0.3 1.8-0.5 3.7-0.8 5.5-0.5 3.4-1 6.8-1.4 10.2l-1.2 10.5c-0.1 1.1-1.3 1.1-2 1-5.1-0.6-10.2-1.4-15.3-2-2.1-0.2-4.2-0.1-6.3-0.3-2-0.2-4-0.6-6-0.8-4.9-0.5-9.8-1.2-14.7-1.4-2.9-0.1-3.7-1.6-4.5-3.9-1.1-3-2.6-5.9-3.8-8.5 1 0.2 2.3 0.5 3.7 0.5 1.6 0.1 2.8-1.4 3.1-3.2 0.2-1.2-0.7-2.7-2.1-3.2-0.7-0.3-1.5-0.7-2.2-0.8-1.7-0.2-2.7 0.4-4.1 2.1-1.6-0.9-1.7-1.8-0.4-2.9 2.5-2.1 5.4-3.9 7.4-6.3s4.2-2.6 6.9-2.5c4.8 0.3 9.6 0.4 14.5 0.7 3.6 0.2 7.1 0.6 10.7 1.1 4.6 0.6 9.1 1.2 13.7 1.8 1.3 0.2 2.6 0.5 3.9 0.7 0.8 0.4 1 1 0.9 1.7zm-54.4 6c1.1 0.1 2.5-0.6 3.1 0.9 0.2 0.5 0.2 1.5-0.1 1.7-0.7 0.4-1.6 0.4-2.7 0.6 0.6-1.4 1.1-2.4-0.3-3.2z"/>
     <path d="m597.7 85.5c0.1-0.6 0.2-1.3 0.2-1.9 0-0.4-0.2-0.8-0.4-1.2-0.4 0.3-1 0.6-1.2 1-0.3 0.7-0.4 1.5-0.5 2.3-2.3 0.3-3.3 1.8-3.7 3.8-0.3 1.5 0.9 2.3 1.9 3.2 0.1 0.1 0.2 0.1 0.3 0.2 0.2 0.3 0.4 0.6 0.4 0.9-0.1 1.7-0.3 3.5-0.5 5.2-2.4 0.1-1.2-2.4-2.4-3.3-1.3 0.9-1.6 4.1-0.4 4.7 1.3 0.6 1.9 1.4 2.1 2.8 0.1 0.6 0.9 0.8 1.2 0.2 0.6-1.1 1.8-1.5 2.6-2.3 2.3-2.1 2.6-4.7 1.8-7.6-0.3-1-0.7-1.7-1.8-2-0.7-0.2-1.1-0.5-0.7-1.4 0.3-0.7 0.3-1.6 0.4-2.4 0.1-0.1 0.3-0.1 0.4-0.2 0.4 0.7 0.7 1.4 1.2 2 0.3 0.4 1 0.5 1.4 0.8 0.1-0.5 0.4-1 0.3-1.4-0.1-1.7-1.2-2.7-2.6-3.4zm-2.7 4.8c-0.9-1.2-0.7-1.9 0.5-2.8-0.2 0.9-0.3 1.7-0.5 2.8zm1.4 8.9c0.1-2 0.1-4 0.2-6.2 1.5 2.2 1.3 4.9-0.2 6.2z"/>
     <path d="m579.4 85.2c0.1 0 0.2 0 0.3-0.1 0.2 0.5 0.3 1.1 0.5 1.5 0.2 0.3 0.5 0.5 0.8 0.8 0.2-0.3 0.5-0.6 0.5-0.9 0-1.1-0.2-2.2-1.2-2.7-0.9-0.5-1.1-1.3-1-2.2 0.1-0.6 0.1-1.2 0.1-1.8 0-0.4-0.3-0.8-0.4-1.2-0.3 0.3-0.8 0.6-0.9 1-0.3 1.1-0.4 2.1-0.5 3.2-1.4 0.4-3.5 2.5-3.4 3.8 0.1 1.6 0.4 3.2 2.5 3.6-0.5 2.3-0.9 4.5-1.4 6.7-0.4-0.3-0.5-0.6-0.7-0.8-0.2-0.3-0.6-0.6-0.9-0.6s-0.7 0.4-0.7 0.7c-0.1 0.9-0.2 1.8 0.7 2.3 0.8 0.5 1.1 1.2 0.8 2.1-0.3 0.8-0.1 1.5 0.7 2.1 1.6-0.7 0.7-2.4 1.3-3.4 2.9-0.7 5.1-3.6 4.8-6.6-0.2-1.6-0.4-3.1-2.1-3.9-0.2-0.1-0.3-0.7-0.3-1 0.1-1 0.3-1.8 0.5-2.6zm-1.6-0.7c-0.1 1.3-0.3 2.5-0.4 3.8-1.5-1.5-1.4-2.4 0.4-3.8zm1.4 9.7c-0.2 1.2-0.8 2.2-2.3 3 0.5-2.5 0.9-4.6 1.4-7 1.4 1.3 1.1 2.7 0.9 4z"/>
     <path d="m570.3 81.9c-0.1-1.2-0.2-2.3-0.2-3.3-0.1 0-0.3-0.1-0.4-0.1-0.3 0.3-0.8 0.7-0.7 1 0.1 1.6-0.4 2.7-1.9 3.4-0.3 0.1-0.6 0.4-0.8 0.7-1.6 2-1.9 5 1 6.6 0.4 0.2 0.5 1 0.5 1.5-0.1 1-0.4 2.1-0.7 3.1-0.1 0-0.2 0.1-0.3 0.1-0.3-0.5-0.5-1.1-0.9-1.6-0.3-0.3-0.7-0.6-1.1-0.6-0.2 0-0.7 0.6-0.7 0.8 0.1 0.7 0.1 1.7 0.6 2 1.7 1.2 2.7 2.5 1.6 4.6-0.1 0.3 0.2 0.9 0.5 1.2 0.2 0.2 1-0.1 1.1-0.3 0.3-0.6 0.4-1.3 0.5-1.9 0-0.9 0-1.8 1-2.2 1.5-0.6 2.1-2 2.3-3.4 0.3-1.8 0.7-3.8-1.6-4.9-0.2-0.1-0.4-0.5-0.4-0.8 0.2-1.4 0.4-2.7 0.6-4.1 0.1 0 0.2 0 0.3-0.1 0.2 0.5 0.3 1.1 0.5 1.6 0.2 0.4 0.5 0.7 0.8 1 0.3-0.4 0.8-0.9 0.8-1.3-0.5-1.2-0.6-2.9-2.4-3zm-2.5 6.3c-1.3-1.8-1.1-2.8 0.7-4.5-0.2 1.6-0.4 2.9-0.7 4.5zm1 6.7c0.1-1.4 0.2-2.7 0.4-4.2 1 1.5 0.8 3.2-0.4 4.2z"/>
     <path d="m588.4 89.8c0-0.8 0-1.7 0.1-2.5 0.4 0.7 0.7 1.2 1.2 2 0.8-2.1 0.8-3.4-0.2-4.2-0.7-0.6-0.7-1.2-0.7-2 0-0.7 0.1-1.3 0.1-2 0-0.4-0.4-0.7-0.6-1.1-0.3 0.3-0.9 0.6-1 1-0.3 1.1-0.3 2.2-0.5 3.3-1.8 0.4-2.7 1.8-2.9 3.4-0.4 2.3 0.1 3.1 2.2 4.3-0.3 1.6-0.6 3.3-1 4.9-0.1 0.3-0.6 0.5-0.9 0.6-0.9 0.2-1.2 0.7-0.7 1.4 0.2 0.3 0.5 0.5 0.5 0.5 0 1.3-0.1 2.4-0.1 3.4 0 0.1 0.5 0.3 0.6 0.2 1.1-0.4 1.1-1.5 1.4-2.5 0.1-0.4 0.5-0.8 0.8-1 0.8-0.6 1.8-1.1 2.5-1.8 1.8-2.1 1.5-5.6-0.5-7.5-0.2 0.1-0.3-0.2-0.3-0.4zm-1.6-3.1c-0.1 1-0.2 2-0.3 3.1-1-1.1-1-2 0.3-3.1zm-0.3 11.1c0.5-1.6 0.9-3.2 1.4-4.8 0.8 2.4 0.4 3.8-1.4 4.8z"/>
    </g>
    <g id="Shape" fill="#34A8DF" transform="translate(29 118)">
     <path d="m36.5 79.4c-1.1-0.2-2.3-0.4-3.4-0.6-0.2 0.4-0.4 0.6-0.3 0.7 0.9 2.3 1.3 4.7 1.3 7 1.1-0.5 2.1-1 3.2-1.4-0.3-1.7-0.5-3.3-0.5-5.1-0.1 0-0.2-0.2-0.3-0.6z"/>
     <path d="m10.1 25.8c2.4-3.4 6.8-4.6 11.5-4.2 1.9 0.2 3.8 1 5.6 1.6 1.6 0.5 3.1 1 4.5 1.5 3.5-3.3 4.2-5.7 2.3-9.5-2.5-5.1-2-9.6 0.1-13.8-2 1.4-3.8 3.2-5 5.4-7 0.2-13.9 2.7-19.3 7.1-2.4 1.9-4.6 4.9-3.6 7.8 0.6 1.7 2.4 2.8 3.9 4.1z"/>
     <path d="m173.2 44.8c1.8 1.7 2.8 1.9 5.3 0.5 3.2-1.7 6.2-3.6 8.9-5.2-0.8-2.6-2.2-5-2.2-7.4 0-2.7 1.2-5.3 2.3-8 4.4 2.2 3.1 6.2 3.6 9.9 1-1.2 1.8-2.1 2.5-2.9-1.9-4.5-3.3-9.1-2.5-13.9 0.2-1.3 0.6-2.7 1-4-0.6 0-1.3 0.1-1.9 0.2-2.3 0.3-4.6-0.3-7.1-0.5-1.5 11.9-10.1 17-21.1 19.8 0.6 0.8 0.9 1.4 1.3 1.9l9.9 9.6z"/>
     <path d="m63.3 82.2c-4.6-0.2-9.1-0.4-13.8-0.6 0.2 0.7 0.3 1.4 0.5 2 0.7 0.2 1.4 0.4 2.1 0.7 2.6 1.1 4.8 3.1 7.5 4.2 1.4 0.6 2.8 0.9 4.2 1-0.1-0.6-0.1-1.1-0.2-1.7-0.2-1.8-0.2-3.6-0.3-5.6z"/>
     <path d="m16.9 61.8c0.9-2.4 0.6-4.4-0.6-6.3-3.5-5.4-5.8-11.3-7.1-17.5-2.1 2.2-4.6 4.1-6.2 6.7-6.6 10.4 4.5 23.9 2 36-0.7 3.6-2.5 7.6-0.3 10.5 0.8 1 1.9 1.7 3.1 2.1 3.8 1.5 7.6 1.2 11.4 0-0.1-3.1-0.1-6.2 0-9.3 0.1-2.2 0.9-4.4 1.4-6.6 0.2-1 0.6-1.9 0.9-2.9-0.6-0.5-1.1-0.9-1.6-1.3-4.2-3.7-4.9-6.1-3-11.4z"/>
     <path d="m75.5 81.2c0.2 1.7 0.5 3.4 0.7 5.1 0.4-0.2 0.7-0.4 1.1-0.6 4.6-2.7 8.7-6.1 13.5-8.4-0.9-0.6-1.7-1.3-2.6-2-3.7 3.2-8.2 4.4-12.7 5.9z"/>
     <path d="m131.3 69.9c1.7-1.5 3.6-2.7 5.3-4.2 3-2.5 5.8-5.2 8.9-7.6 3-2.4 4.3-5.3 5-9 0.7-4.1 2.3-8.1 3.4-12.2 0.2-0.6 0.2-1.2 0.3-2-4.7 1.4-9.1 2.8-13.6 4-4.6 1.1-9.2 1.9-14.1 2.9-2-6.1-6.7-10.5-9.8-15.9-1.2-2-2.5-4-3.6-6.1-0.3-0.5 0-1.3 0-1.9 0.6 0.2 1.3 0.2 1.8 0.6s0.9 1.2 1.2 1.8c2.1 4.5 5.2 8.4 8.2 12.3 1.1 1.5 2.1 3.1 3 4.6 0.6 0.9 1.2 1.7 2.5 1.4 8-1.9 16.4-2.6 24-6.7-2.6-2.1-5.2-4-7.5-6.2-2.5-2.4-3.7-5.7-4.7-8.9-0.9-3.1-1.3-6.4-1.9-9.2-2.4 0.1-4.7 0.1-6.9 0.4-0.8 0.1-1.8 0.5-2.4 1-3.6 3.1-7.1 3.3-10.9 0.7-0.9-0.6-2-0.8-3-1.1-1.8-0.6-3.8-1-5.4-2s-2-2.6-1.6-4.6c-5.5 2.4-11.1 4.3-17.1 4.5-6.7 0.2-13.3-1.7-19.7-3.8-0.8 1.5-1.6 2.9-2.4 4.4-2.3 4-9.8 4.5-11.8-1.4-0.2-0.5-0.4-1-0.5-1.4-1.1-3.4-2.8-4.4-6.2-4.1-4.4 0.3-7.5 2.6-9.8 6.2-1.5 2.3-1.3 4.9-0.5 7.4 0.7 2.4 1.7 4.9 2.1 7.4 1.1 6.3-2.7 11.1-9 12-3.5 0.5-6.9 0-10-1.2-3.2-1.3-5.8 0.4-6.7 3.4-0.6 2-1 4.3-0.7 6.3 0.5 3.7 2.3 7 4.5 10 1.6 2.2 2.1 2.3 4.7 1.2 5.1-2.1 10.1-4.6 15.2-6.6 3.8-1.5 7.8-2.6 11.8-3.4 4.3-0.8 8.7-1.1 13.3-1.6 0.1-0.4 0.3-1.1 0.2-1.6-0.5-2.8 0-5.4 1-8.1 1-2.9 1.4-6 2.2-8.9 0.4-1.3 0.4-3.3 2.3-3.1 1.6 0.2 1.7 2.1 2 3.5 0.3 1.5 0.7 3 1 4.7 3.1-0.1 6-0.3 9.2-0.4 0.8-1.7 1.7-3.6 2.7-5.6 0.5-1.1 1.1-2.2 1.8-3.2 1.1-1.5 2.3-1.6 3 0 1.5 3.2 2.8 6.6 4 10 0.2 0.7-0.4 1.7-0.8 2.8 0.6 0.7 1.3 1.8 2.1 2.6 2.4 2.3 3.2 5.3 3.1 8.4-0.1 5-1.8 9.5-5.6 13-1.5 1.4-1.9 2.5-1 4.5 0.7 1.6 0.3 3.6 0.4 5.7 4.8 1.3 10.3-0.1 15.2 2.6 1.1-1.9 2-3.8 3-5.5 0.6-1 1.4-1.6 2.5-0.1-1.2 1.7-2.8 3.4-2.9 6.4 0.7-1 1.1-1.6 1.6-2.1 0.5-0.7 1-1.5 1.6-2.2s1.3-1 2.2-0.1c-1.2 1.9-2.4 3.9-3.7 6 2.3 0.6 3.6-2.2 6.2-0.7-1.9 1.4-3.4 2.5-5 3.7-0.2 4.6-1.4 6.4-5.6 6.8 0.4 0.5 0.8 0.9 1.2 1.3 6.5 7 15.1 11.4 24.4 13.6 0.3-2.4 0.7-4.8 1-7.3 0.2-1.4 0.2-2.8 0.3-4.3-5.7-0.8-11.3-1.6-17.3-2.4 0.7-0.9 1-1.6 1.6-2.1 3.7-3.2 7.2-6.3 10.7-9.3z"/>
     <path d="m200.2 46.6c-3.4 1.7-8 0.5-9.8-3.3-0.2-0.4-0.5-0.9-0.8-1.4-2.5 0.4-4.3 2-6.3 3.1-1.4 0.8-2.8 1.8-4.1 2.7-3.1 2-5 1.8-7.6-0.9-3.3-3.4-6.6-6.8-10-10.1-1.2-1.2-2.5-2.5-4.6-2.5-1.1 3.9-2.2 7.7-3.3 11.6-1.1 3.7-2.2 7.5-3.3 11.3 2.5 3 4.9 5.9 7.3 8.8 4.8 5.6 9.6 11.3 14.4 16.9 1 1.2 1 1.2 0.1 3.3-6.1-0.7-12.3-2-18.9-1.6-0.5 4.2-1 8.4-1.6 12.6 5.5-0.1 11.1-0.7 16.4-1.9h0.2c0.1-0.2 0.3-0.5 0.4-0.7 0.2-0.4 0.8-0.5 1.4-0.9 0.2 0.3 0.3 0.7 0.4 1 5.3-1.6 10.6-4.8 10.7-10.1 0-2-0.7-4.3 0.6-5.7 1-1.1 2.7-1.2 4.2-1.2 4.6 0 9.2 0 13.7-0.1 3.5-10 3.7-21 0.5-30.9zm1.3 14.1c-2.6 5.1-4.5 10.5-5.3 16.5-7.4 0.2-13.5-2.8-20.1-4.9 0.4-0.9 0.6-1.6 1.1-2.1 3.8-3.7 6.9-7.8 8.3-13.1 0.1-0.4 0.5-0.8 1-1.5 1.1 1.7 2.5 1.7 4.2 1.8 3.6 0.1 7.4-0.3 11.1 1.2-0.2 0.8 0 1.5-0.3 2.1z"/>
     <path d="m138.1 88.9c-0.3 2.2-0.7 4.4-1 6.7 4.2 0.9 8.4 1.3 12.8 1.3 0.5-4.4 0.8-8.9 1-13.4-4 0.2-7.8 0.4-11.8 0.6-0.4 1.5-0.8 3.1-1 4.8z"/>
    </g>
   </g>
  </g>
 </g>
</svg>
