<svg width="349pt" height="136pt" viewBox="0 0 349 136" xmlns="http://www.w3.org/2000/svg"><path fill="#74d800" d="M0 0h36.32C24.32 12.21 12.11 24.23 0 36.33V0z"/><path fill="#fff" d="M36.32 0h31.97C45.59 22.74 22.79 45.38.11 68.14c17.99.02 35.97-.01 53.95.01 8.35.06 16.35 5.32 19.88 12.88 4 8.09 2.42 18.49-3.82 25.02-4.3 4.76-10.72 7.48-17.13 7.33-17.67-.03-35.33.05-52.99-.04V36.33C12.11 24.23 24.32 12.21 36.32 0z"/><path fill="#282828" d="M68.29 0h32.2C85.63 15.3 70.22 30.07 55.35 45.36c13.62.46 26.83 7.51 34.8 18.55 8.07 10.77 10.78 25.23 7.36 38.22-4.45 18.13-21.12 32.28-39.71 33.87H0v-22.66c17.66.09 35.32.01 52.99.04 6.41.15 12.83-2.57 17.13-7.33 6.24-6.53 7.82-16.93 3.82-25.02-3.53-7.56-11.53-12.82-19.88-12.88-17.98-.02-35.96.01-53.95-.01C22.79 45.38 45.59 22.74 68.29 0z"/><path fill="#fff" d="M100.49 0h21.24c0 7.61-.02 15.23.01 22.84 12.72.14 25.45-.09 38.17.12 12.83.55 25.32 6.75 33.3 16.82 8.13 9.93 11.67 23.47 9.37 36.1-2.59 15.94-14.49 29.88-29.79 35-9.02 3.38-18.76 2.36-28.17 2.49-.04-15.05-.04-30.1 0-45.16-7.63-.14-15.26-.06-22.89-.03 0 22.61-.02 45.21.01 67.82H57.8c18.59-1.59 35.26-15.74 39.71-33.87 3.42-12.99.71-27.45-7.36-38.22-7.97-11.04-21.18-18.09-34.8-18.55C70.22 30.07 85.63 15.3 100.49 0z"/><path fill="#282828" d="M121.73 0h39.94c9.28 1.04 18.59 3.02 26.94 7.39 17.09 8.54 30.26 24.57 35.14 43.06 5.14 18.6 1.75 39.29-9 55.31-11.28 17.14-30.59 28.54-51.03 30.24h-41.98c-.03-22.61-.01-45.21-.01-67.82 7.63-.03 15.26-.11 22.89.03-.04 15.06-.04 30.11 0 45.16 9.41-.13 19.15.89 28.17-2.49 15.3-5.12 27.2-19.06 29.79-35 2.3-12.63-1.24-26.17-9.37-36.1-7.98-10.07-20.47-16.27-33.3-16.82-12.72-.21-25.45.02-38.17-.12-.03-7.61-.01-15.23-.01-22.84z"/><path fill="#fff" d="M161.67 0h87.14c.01 7.61-.02 15.21.01 22.82 17.73.13 35.46.02 53.19.06 6.78.06 13.54 3.1 17.77 8.46 4.89 5.87 6.39 14.35 3.84 21.55-2.85 8.72-11.48 15.12-20.65 15.28-18.03.03-36.06-.02-54.09.03 22.17 22.16 44.32 44.34 66.56 66.43.17.34.49 1.03.65 1.37h-31.12c-11.11-10.86-22.02-21.92-33.02-32.89-1.03-.87-1.79-2.13-3.11-2.56-.02 11.82-.16 23.64.07 35.45h-85.19c20.44-1.7 39.75-13.1 51.03-30.24 10.75-16.02 14.14-36.71 9-55.31-4.88-18.49-18.05-34.52-35.14-43.06-8.35-4.37-17.66-6.35-26.94-7.39z"/><path fill="#282828" d="M248.81 0h55.94c11.75 1.08 23.24 6.17 31.15 15.07 9.74 10.61 13.94 26.01 10.74 40.07-3.91 19.77-22.44 35.4-42.61 35.78 14.62 15.02 29.75 29.56 44.35 44.6.15-.01.46-.01.62-.01v.49h-32.91c-.16-.34-.48-1.03-.65-1.37-22.24-22.09-44.39-44.27-66.56-66.43 18.03-.05 36.06 0 54.09-.03 9.17-.16 17.8-6.56 20.65-15.28 2.55-7.2 1.05-15.68-3.84-21.55-4.23-5.36-10.99-8.4-17.77-8.46-17.73-.04-35.46.07-53.19-.06-.03-7.61 0-15.21-.01-22.82z"/><path fill="#fff" d="M304.75 0H349v135.51c-.16 0-.47 0-.62.01-14.6-15.04-29.73-29.58-44.35-44.6 20.17-.38 38.7-16.01 42.61-35.78 3.2-14.06-1-29.46-10.74-40.07-7.91-8.9-19.4-13.99-31.15-15.07z"/><path fill="#74d800" d="M248.84 100.55c1.32.43 2.08 1.69 3.11 2.56 11 10.97 21.91 22.03 33.02 32.89h-36.06c-.23-11.81-.09-23.63-.07-35.45z"/></svg>