<?xml version="1.0" encoding="UTF-8" ?>
<!DOCTYPE svg PUBLIC "-//W3C//DTD SVG 1.1//EN" "http://www.w3.org/Graphics/SVG/1.1/DTD/svg11.dtd">
<svg width="349pt" height="136pt" viewBox="0 0 349 136" version="1.1" xmlns="http://www.w3.org/2000/svg">
<path fill="#74d800" d=" M 0.00 0.00 L 36.32 0.00 C 24.32 12.21 12.11 24.23 0.00 36.33 L 0.00 0.00 Z" />
<path fill="#ffffff" d=" M 36.32 0.00 L 68.29 0.00 C 45.59 22.74 22.79 45.38 0.11 68.14 C 18.10 68.16 36.08 68.13 54.06 68.15 C 62.41 68.21 70.41 73.47 73.94 81.03 C 77.94 89.12 76.36 99.52 70.12 106.05 C 65.82 110.81 59.40 113.53 52.99 113.38 C 35.32 113.35 17.66 113.43 0.00 113.34 L 0.00 36.33 C 12.11 24.23 24.32 12.21 36.32 0.00 Z" />
<path fill="#282828" d=" M 68.29 0.00 L 100.49 0.00 C 85.63 15.30 70.22 30.07 55.35 45.36 C 68.97 45.82 82.18 52.87 90.15 63.91 C 98.22 74.68 100.93 89.14 97.51 102.13 C 93.06 120.26 76.39 134.41 57.80 136.00 L 0.00 136.00 L 0.00 113.34 C 17.66 113.43 35.32 113.35 52.99 113.38 C 59.40 113.53 65.82 110.81 70.12 106.05 C 76.36 99.52 77.94 89.12 73.94 81.03 C 70.41 73.47 62.41 68.21 54.06 68.15 C 36.08 68.13 18.10 68.16 0.11 68.14 C 22.79 45.38 45.59 22.74 68.29 0.00 Z" />
<path fill="#ffffff" d=" M 100.49 0.00 L 121.73 0.00 C 121.73 7.61 121.71 15.23 121.74 22.84 C 134.46 22.98 147.19 22.75 159.91 22.96 C 172.74 23.51 185.23 29.71 193.21 39.78 C 201.34 49.71 204.88 63.25 202.58 75.88 C 199.99 91.82 188.09 105.76 172.79 110.88 C 163.77 114.26 154.03 113.24 144.62 113.37 C 144.58 98.32 144.58 83.27 144.62 68.21 C 136.99 68.07 129.36 68.15 121.73 68.18 C 121.73 90.79 121.71 113.39 121.74 136.00 L 57.80 136.00 C 76.39 134.41 93.06 120.26 97.51 102.13 C 100.93 89.14 98.22 74.68 90.15 63.91 C 82.18 52.87 68.97 45.82 55.35 45.36 C 70.22 30.07 85.63 15.30 100.49 0.00 Z" />
<path fill="#282828" d=" M 121.73 0.00 L 161.67 0.00 C 170.95 1.04 180.26 3.02 188.61 7.39 C 205.70 15.93 218.87 31.96 223.75 50.45 C 228.89 69.05 225.50 89.74 214.75 105.76 C 203.47 122.90 184.16 134.30 163.72 136.00 L 121.74 136.00 C 121.71 113.39 121.73 90.79 121.73 68.18 C 129.36 68.15 136.99 68.07 144.62 68.21 C 144.58 83.27 144.58 98.32 144.62 113.37 C 154.03 113.24 163.77 114.26 172.79 110.88 C 188.09 105.76 199.99 91.82 202.58 75.88 C 204.88 63.25 201.34 49.71 193.21 39.78 C 185.23 29.71 172.74 23.51 159.91 22.96 C 147.19 22.75 134.46 22.98 121.74 22.84 C 121.71 15.23 121.73 7.61 121.73 0.00 Z" />
<path fill="#ffffff" d=" M 161.67 0.00 L 248.81 0.00 C 248.82 7.61 248.79 15.21 248.82 22.82 C 266.55 22.95 284.28 22.84 302.01 22.88 C 308.79 22.94 315.55 25.98 319.78 31.34 C 324.67 37.21 326.17 45.69 323.62 52.89 C 320.77 61.61 312.14 68.01 302.97 68.17 C 284.94 68.20 266.91 68.15 248.88 68.20 C 271.05 90.36 293.20 112.54 315.44 134.63 C 315.61 134.97 315.93 135.66 316.09 136.00 L 284.97 136.00 C 273.86 125.14 262.95 114.08 251.95 103.11 C 250.92 102.24 250.16 100.98 248.84 100.55 C 248.82 112.37 248.68 124.19 248.91 136.00 L 163.72 136.00 C 184.16 134.30 203.47 122.90 214.75 105.76 C 225.50 89.74 228.89 69.05 223.75 50.45 C 218.87 31.96 205.70 15.93 188.61 7.39 C 180.26 3.02 170.95 1.04 161.67 0.00 Z" />
<path fill="#282828" d=" M 248.81 0.00 L 304.75 0.00 C 316.50 1.08 327.99 6.17 335.90 15.07 C 345.64 25.68 349.84 41.08 346.64 55.14 C 342.73 74.91 324.20 90.54 304.03 90.92 C 318.65 105.94 333.78 120.48 348.38 135.52 C 348.53 135.51 348.84 135.51 349.00 135.51 L 349.00 136.00 L 316.09 136.00 C 315.93 135.66 315.61 134.97 315.44 134.63 C 293.20 112.54 271.05 90.36 248.88 68.20 C 266.91 68.15 284.94 68.20 302.97 68.17 C 312.14 68.01 320.77 61.61 323.62 52.89 C 326.17 45.69 324.67 37.21 319.78 31.34 C 315.55 25.98 308.79 22.94 302.01 22.88 C 284.28 22.84 266.55 22.95 248.82 22.82 C 248.79 15.21 248.82 7.61 248.81 0.00 Z" />
<path fill="#ffffff" d=" M 304.75 0.00 L 349.00 0.00 L 349.00 135.51 C 348.84 135.51 348.53 135.51 348.38 135.52 C 333.78 120.48 318.65 105.94 304.03 90.92 C 324.20 90.54 342.73 74.91 346.64 55.14 C 349.84 41.08 345.64 25.68 335.90 15.07 C 327.99 6.17 316.50 1.08 304.75 0.00 Z" />
<path fill="#74d800" d=" M 248.84 100.55 C 250.16 100.98 250.92 102.24 251.95 103.11 C 262.95 114.08 273.86 125.14 284.97 136.00 L 248.91 136.00 C 248.68 124.19 248.82 112.37 248.84 100.55 Z" />
</svg>
