<svg width="1521" height="586" viewBox="0 0 1521 586" xmlns="http://www.w3.org/2000/svg"><title>Group</title><g fill="none" fill-rule="evenodd"><path d="M655 250c0-2.76 2.24-5 5-5h230.83c2.76 0 5 2.24 5 5v90c0 2.76-2.24 5-5 5H660c-2.76 0-5-2.24-5-5v-90z" fill="#F14452"/><g fill="#FFF"><path d="M704.033 281.488c0-3.733 2.72-6.746 6.534-6.746 4.08 0 6.56 3.2 6.346 7.68h-9.946c.213 1.946 1.68 3.546 4.106 3.546 1.254 0 2.747-.506 3.654-1.413l1.28 1.84c-1.28 1.227-3.174 1.867-5.227 1.867-3.867 0-6.747-2.694-6.747-6.774zm6.534-4.453c-2.4 0-3.494 1.84-3.627 3.413h7.253c-.053-1.52-1.093-3.413-3.626-3.413zM728.167 288.262c-5.12 0-9.2-3.734-9.2-9.2 0-5.467 4.08-9.2 9.2-9.2 3.733 0 5.946 1.866 7.28 4l-2.667 1.36c-.853-1.467-2.56-2.587-4.613-2.587-3.387 0-6 2.693-6 6.427 0 3.733 2.613 6.426 6 6.426 2.053 0 3.76-1.093 4.613-2.586l2.667 1.36c-1.36 2.133-3.547 4-7.28 4M743.687 288.262c-4.08 0-6.614-3.067-6.614-6.774 0-3.68 2.534-6.746 6.614-6.746 4.133 0 6.64 3.066 6.64 6.746 0 3.707-2.507 6.774-6.64 6.774zm0-2.48c2.4 0 3.733-2 3.733-4.294 0-2.266-1.333-4.266-3.733-4.266-2.374 0-3.707 2-3.707 4.266 0 2.294 1.333 4.294 3.707 4.294zM768.94 287.942v-8.4c0-1.387-.613-2.32-2.107-2.32-1.253 0-2.426.88-2.986 1.706v9.014h-2.8v-8.4c0-1.387-.614-2.32-2.134-2.32-1.226 0-2.373.88-2.96 1.733v8.987h-2.8v-12.88h2.8v1.76c.534-.8 2.24-2.08 4.187-2.08 1.92 0 3.093.96 3.52 2.373.747-1.173 2.453-2.373 4.373-2.373 2.374 0 3.707 1.28 3.707 3.893v9.307h-2.8M791.153 287.942v-8.4c0-1.387-.613-2.32-2.106-2.32-1.254 0-2.427.88-2.987 1.706v9.014h-2.8v-8.4c0-1.387-.613-2.32-2.133-2.32-1.227 0-2.374.88-2.96 1.733v8.987h-2.8v-12.88h2.8v1.76c.533-.8 2.24-2.08 4.186-2.08 1.92 0 3.094.96 3.52 2.373.747-1.173 2.454-2.373 4.374-2.373 2.373 0 3.706 1.28 3.706 3.893v9.307h-2.8M796.78 281.488c0-3.733 2.72-6.746 6.533-6.746 4.08 0 6.56 3.2 6.347 7.68h-9.947c.214 1.946 1.68 3.546 4.107 3.546 1.253 0 2.747-.506 3.653-1.413l1.28 1.84c-1.28 1.227-3.173 1.867-5.226 1.867-3.867 0-6.747-2.694-6.747-6.774zm6.533-4.453c-2.4 0-3.493 1.84-3.626 3.413h7.253c-.053-1.52-1.093-3.413-3.627-3.413zM812.433 287.942v-12.88h2.8v1.893c.96-1.227 2.507-2.187 4.187-2.187v2.774c-1.68-.374-3.413.533-4.187 1.626v8.774h-2.8M820.887 281.488c0-3.893 2.746-6.746 6.666-6.746 2.507 0 4.027 1.066 4.934 2.293l-1.84 1.707c-.72-1.014-1.707-1.52-2.96-1.52-2.347 0-3.894 1.76-3.894 4.266 0 2.507 1.547 4.294 3.894 4.294 1.253 0 2.24-.534 2.96-1.52l1.84 1.706c-.907 1.227-2.427 2.294-4.934 2.294-3.92 0-6.666-2.854-6.666-6.774M834.14 281.488c0-3.733 2.72-6.746 6.533-6.746 4.08 0 6.56 3.2 6.347 7.68h-9.947c.214 1.946 1.68 3.546 4.107 3.546 1.253 0 2.747-.506 3.653-1.413l1.28 1.84c-1.28 1.227-3.173 1.867-5.226 1.867-3.867 0-6.747-2.694-6.747-6.774zm6.533-4.453c-2.4 0-3.493 1.84-3.626 3.413h7.253c-.053-1.52-1.093-3.413-3.627-3.413z"/></g><g fill="#FFF"><path d="M720.9 314.608v-17.786h7.813c3.734 0 5.814 2.56 5.814 5.573 0 3.013-2.107 5.573-5.814 5.573h-4.693v6.64h-3.12zm10.427-12.213c0-1.707-1.28-2.827-3.04-2.827h-4.267v5.654h4.267c1.76 0 3.04-1.12 3.04-2.827zM737.033 314.608v-17.786h2.8v17.786h-2.8M751.327 314.608v-1.386c-2.427 2.8-8.64 2.266-8.64-2.56 0-4.907 6.24-5.174 8.64-2.534v-1.92c0-1.493-1.227-2.4-3.014-2.4-1.44 0-2.693.534-3.813 1.627l-1.147-1.947c1.494-1.413 3.36-2.08 5.414-2.08 2.853 0 5.36 1.2 5.36 4.667v8.533h-2.8zm0-2.933v-1.947c-1.2-1.946-5.814-1.84-5.814.987 0 2.8 4.64 2.907 5.814.96zM761.62 314.928c-2.16 0-3.307-1.173-3.307-3.306v-7.44h-2.133v-2.454h2.133v-3.52h2.8v3.52h2.614v2.454h-2.614v6.746c-.24 1.574 1.707 1.894 2.48 1.067l.667 2.107c-.507.48-1.333.826-2.64.826M766.927 314.608v-10.426h-2.134v-2.454h2.134c-.454-4.24 2.906-6.186 6.32-4.666l-.614 2.053c-1.706-.827-3.253.24-2.906 2.613h2.613v2.454h-2.613v10.426h-2.8M780.287 314.928c-4.08 0-6.614-3.066-6.614-6.773 0-3.68 2.534-6.747 6.614-6.747 4.133 0 6.64 3.067 6.64 6.747 0 3.707-2.507 6.773-6.64 6.773zm0-2.48c2.4 0 3.733-2 3.733-4.293 0-2.267-1.333-4.267-3.733-4.267-2.374 0-3.707 2-3.707 4.267 0 2.293 1.333 4.293 3.707 4.293zM789.753 314.608v-12.88h2.8v1.894c.96-1.227 2.507-2.187 4.187-2.187v2.773c-1.68-.373-3.413.534-4.187 1.627v8.773h-2.8M814.793 314.608v-8.4c0-1.386-.613-2.32-2.106-2.32-1.254 0-2.427.88-2.987 1.707v9.013h-2.8v-8.4c0-1.386-.613-2.32-2.133-2.32-1.227 0-2.374.88-2.96 1.734v8.986h-2.8v-12.88h2.8v1.76c.533-.8 2.24-2.08 4.186-2.08 1.92 0 3.094.96 3.52 2.374.747-1.174 2.454-2.374 4.374-2.374 2.373 0 3.706 1.28 3.706 3.894v9.306h-2.8M820.1 312.928l1.28-2.026c.907.933 2.693 1.813 4.373 1.813 1.68 0 2.534-.613 2.534-1.573 0-1.12-1.36-1.52-2.934-1.867-2.213-.48-4.853-1.067-4.853-3.947 0-2.106 1.813-3.92 5.067-3.92 2.186 0 3.84.774 5.013 1.814l-1.173 1.973c-.774-.88-2.214-1.547-3.814-1.547-1.466 0-2.4.534-2.4 1.44 0 .987 1.28 1.334 2.8 1.68 2.24.48 4.987 1.12 4.987 4.16 0 2.267-1.893 4-5.36 4-2.187 0-4.187-.693-5.52-2"/></g><path d="M323.6 272.7c0-2.76 2.24-5 5-5h130.8c2.76 0 5 2.24 5 5v40.6c0 2.76-2.24 5-5 5H328.6c-2.76 0-5-2.24-5-5v-40.6z" fill="#2BABEE"/><g fill="#FFF"><path d="M347.584 296.166l1.17-1.62c.828.882 2.124 1.656 3.798 1.656 1.728 0 2.412-.846 2.412-1.638 0-1.08-1.278-1.404-2.736-1.782-1.962-.486-4.266-1.062-4.266-3.6 0-1.98 1.746-3.51 4.374-3.51 1.872 0 3.384.594 4.5 1.674l-1.206 1.566c-.936-.936-2.214-1.368-3.474-1.368-1.242 0-2.034.594-2.034 1.494 0 .936 1.224 1.242 2.646 1.602 1.98.504 4.338 1.116 4.338 3.726 0 1.998-1.404 3.708-4.644 3.708-2.214 0-3.816-.774-4.878-1.908M358.456 293.5c0-2.52 1.836-4.553 4.41-4.553 2.754 0 4.428 2.16 4.284 5.184l-6.714.002c.144 1.314 1.134 2.394 2.772 2.394.846 0 1.854-.342 2.466-.954l.864 1.242c-.864.828-2.142 1.26-3.528 1.26-2.61 0-4.554-1.818-4.554-4.572zm4.41-3.005c-1.62 0-2.358 1.242-2.448 2.304h4.896c-.036-1.027-.738-2.305-2.448-2.305zM369.022 297.858v-12.006h1.89v12.006h-1.89M373.81 297.858v-7.038h-1.44v-1.656h1.44c-.306-2.862 1.962-4.176 4.266-3.15l-.414 1.386c-1.152-.558-2.196.162-1.962 1.764h1.764v1.656H375.7v7.038h-1.89M378.22 294.312v-1.62h4.32v1.62h-4.32M392.71 297.858v-5.238h-6.246v5.238h-2.106v-12.006h2.106v4.914h6.246v-4.914h2.106v12.006h-2.106M401.242 298.073c-2.754 0-4.464-2.07-4.464-4.572 0-2.483 1.71-4.553 4.464-4.553 2.79 0 4.482 2.07 4.482 4.554 0 2.503-1.692 4.573-4.482 4.573zm0-1.674c1.62 0 2.52-1.35 2.52-2.898 0-1.53-.9-2.88-2.52-2.88-1.602 0-2.502 1.35-2.502 2.88 0 1.547.9 2.897 2.502 2.897zM406.876 296.724l.864-1.368c.612.63 1.818 1.224 2.952 1.224s1.71-.414 1.71-1.062c0-.756-.918-1.026-1.98-1.26-1.494-.324-3.276-.72-3.276-2.664 0-1.422 1.224-2.646 3.42-2.646 1.476 0 2.592.522 3.384 1.224l-.792 1.33c-.522-.593-1.494-1.043-2.574-1.043-.99 0-1.62.36-1.62.972 0 .665.864.9 1.89 1.133 1.512.324 3.366.756 3.366 2.808 0 1.53-1.278 2.7-3.618 2.7-1.476 0-2.826-.468-3.726-1.35M418.738 298.074c-1.458 0-2.232-.792-2.232-2.232v-5.022h-1.44v-1.656h1.44v-2.376h1.89v2.376h1.764v1.656h-1.764v4.554c-.162 1.06 1.152 1.277 1.674.72l.45 1.42c-.342.325-.9.56-1.782.56M421.33 293.5c0-2.52 1.836-4.553 4.41-4.553 2.754 0 4.428 2.16 4.284 5.184l-6.714.002c.144 1.314 1.134 2.394 2.772 2.394.846 0 1.854-.342 2.466-.954l.864 1.242c-.864.828-2.142 1.26-3.528 1.26-2.61 0-4.554-1.818-4.554-4.572zm4.41-3.005c-1.62 0-2.358 1.242-2.448 2.304h4.896c-.036-1.027-.738-2.305-2.448-2.305zM438.016 297.858v-1.188c-.666.864-1.674 1.404-2.79 1.404-2.232 0-3.87-1.692-3.87-4.554 0-2.808 1.62-4.572 3.87-4.572 1.08 0 2.088.504 2.79 1.422v-4.518h1.89v12.006h-1.89zm0-2.61v-3.456c-.432-.648-1.35-1.17-2.25-1.17-1.494 0-2.448 1.206-2.448 2.898 0 1.674.954 2.88 2.448 2.88.9 0 1.818-.504 2.25-1.152z"/></g><path d="M655 294.37l-190.6-1" stroke="#2A3843" stroke-width="4"/><path d="M655 296.37v-2 2zm-190.6-5v2-2z" fill="#2A3843"/><path d="M451 390c0-2.76 2.24-5 5-5h162.7c2.76 0 5 2.24 5 5v46.1c0 2.76-2.24 5-5 5H456c-2.76 0-5-2.24-5-5V390z" fill="#0EB29C"/><g fill="#FFF"><path d="M485.97 417.033l-2.34-8.856-2.32 8.856h-2.25l-3.44-12.006h2.36l2.34 9.252 2.483-9.253h1.674l2.484 9.252 2.323-9.253h2.358l-3.42 12.006h-2.25M496.195 417.248c-2.754 0-4.464-2.07-4.464-4.572 0-2.484 1.71-4.554 4.465-4.554 2.79 0 4.482 2.07 4.482 4.554 0 2.502-1.692 4.572-4.482 4.572zm0-1.674c1.62 0 2.52-1.35 2.52-2.898 0-1.53-.9-2.88-2.52-2.88-1.602 0-2.502 1.35-2.502 2.88 0 1.548.9 2.898 2.502 2.898zM506.51 417.248c-2.755 0-4.465-2.07-4.465-4.572 0-2.484 1.71-4.554 4.464-4.554 2.79 0 4.48 2.07 4.48 4.554 0 2.502-1.69 4.572-4.48 4.572zm0-1.674c1.62 0 2.52-1.35 2.52-2.898 0-1.53-.9-2.88-2.52-2.88-1.603 0-2.503 1.35-2.503 2.88 0 1.548.9 2.898 2.502 2.898zM518.623 417.25c-3.456 0-6.21-2.52-6.21-6.21s2.754-6.21 6.21-6.21c2.52 0 4.014 1.26 4.914 2.7l-1.8.917c-.576-.99-1.728-1.746-3.114-1.746-2.286 0-4.05 1.82-4.05 4.34 0 2.52 1.764 4.337 4.05 4.337 1.386 0 2.538-.738 3.114-1.746l1.8.92c-.918 1.44-2.394 2.7-4.914 2.7M529.1 417.248c-2.755 0-4.465-2.07-4.465-4.572 0-2.484 1.71-4.554 4.464-4.554 2.79 0 4.48 2.07 4.48 4.554 0 2.502-1.69 4.572-4.48 4.572zm0-1.674c1.62 0 2.52-1.35 2.52-2.898 0-1.53-.9-2.88-2.52-2.88-1.603 0-2.503 1.35-2.503 2.88 0 1.548.9 2.898 2.502 2.898zM546.145 417.033v-5.67c0-.936-.414-1.566-1.422-1.566-.846 0-1.638.594-2.016 1.152v6.083h-1.89v-5.67c0-.936-.414-1.566-1.44-1.566-.828 0-1.602.594-1.998 1.17v6.066h-1.89v-8.694h1.89v1.187c.36-.54 1.51-1.404 2.825-1.404 1.296 0 2.088.648 2.376 1.602.505-.793 1.657-1.603 2.953-1.603 1.602 0 2.502.864 2.502 2.628v6.282h-1.89M561.14 417.033v-5.67c0-.936-.415-1.566-1.423-1.566-.846 0-1.638.594-2.016 1.152v6.083h-1.89v-5.67c0-.936-.413-1.566-1.44-1.566-.827 0-1.6.594-1.997 1.17v6.066h-1.89v-8.694h1.89v1.187c.36-.54 1.512-1.404 2.826-1.404 1.295 0 2.087.648 2.375 1.602.504-.793 1.656-1.603 2.952-1.603 1.602 0 2.502.864 2.502 2.628v6.282h-1.89M564.937 412.676c0-2.52 1.836-4.554 4.41-4.554 2.754 0 4.428 2.16 4.284 5.184h-6.713c.144 1.315 1.134 2.395 2.772 2.395.845 0 1.853-.34 2.465-.953l.864 1.242c-.865.827-2.143 1.26-3.53 1.26-2.61 0-4.553-1.82-4.553-4.573zm4.41-3.006c-1.62 0-2.358 1.242-2.448 2.304h4.895c-.036-1.026-.738-2.304-2.448-2.304zM575.503 417.033v-8.694h1.89v1.277c.648-.828 1.692-1.476 2.826-1.476v1.873c-1.135-.252-2.305.36-2.827 1.098v5.923h-1.89M581.21 412.676c0-2.628 1.853-4.554 4.5-4.554 1.69 0 2.717.72 3.33 1.548l-1.243 1.152c-.486-.684-1.152-1.026-1.998-1.026-1.585 0-2.63 1.188-2.63 2.88s1.045 2.898 2.63 2.898c.845 0 1.51-.36 1.997-1.026l1.242 1.152c-.613.828-1.64 1.548-3.33 1.548-2.647 0-4.5-1.926-4.5-4.572M590.155 412.676c0-2.52 1.836-4.554 4.41-4.554 2.754 0 4.428 2.16 4.284 5.184h-6.715c.144 1.315 1.134 2.395 2.772 2.395.846 0 1.854-.34 2.466-.953l.864 1.242c-.864.827-2.142 1.26-3.528 1.26-2.61 0-4.555-1.82-4.555-4.573zm4.41-3.006c-1.62 0-2.358 1.242-2.448 2.304h4.896c-.036-1.026-.738-2.304-2.448-2.304z"/></g><path d="M424.2 318.3l79.66 66.7" stroke="#2A3843" stroke-width="4"/><path d="M422.93 319.83l-1.83-1.53h3.1l-1.27 1.53zM506.97 385h-3.1l1.27-1.53 1.83 1.53z" fill="#2A3843"/><path d="M465 180c0-2.76 2.24-5 5-5h152c2.76 0 5 2.24 5 5v46c0 2.76-2.24 5-5 5H470c-2.76 0-5-2.24-5-5v-46z" fill="#0EB29C"/><g fill="#FFF"><path d="M474.23 206.72v-12.006h4.464c3.744 0 6.282 2.484 6.282 6.012 0 3.528-2.538 5.994-6.282 5.994h-4.464zm2.106-1.854h2.358c2.61 0 4.122-1.872 4.122-4.14 0-2.322-1.44-4.158-4.122-4.158h-2.358v8.298zM486.956 206.72v-8.694h1.89v1.278c.648-.828 1.692-1.476 2.826-1.476v1.872c-1.134-.252-2.304.36-2.826 1.098v5.922h-1.89M499.07 206.72v-1.152a4.167 4.167 0 0 1-3.078 1.368c-1.872 0-2.79-.972-2.79-2.754v-6.156h1.89v5.472c-.126 2.592 3.258 1.908 3.978.63v-6.102h1.89v8.694h-1.89M505.298 210.032h-1.89v-12.006h1.89v1.188a3.47 3.47 0 0 1 2.79-1.404c2.25 0 3.852 1.692 3.852 4.554s-1.602 4.572-3.852 4.572c-1.098 0-2.088-.486-2.79-1.422v4.518zm4.68-7.668c0-1.674-.954-2.88-2.448-2.88-.882 0-1.818.522-2.232 1.17v3.438c.414.63 1.35 1.17 2.232 1.17 1.494 0 2.448-1.206 2.448-2.898zM519.158 206.72v-.936c-1.638 1.89-5.832 1.53-5.832-1.728 0-3.312 4.212-3.492 5.832-1.71v-1.296c0-1.008-.828-1.62-2.034-1.62-.972 0-1.818.36-2.574 1.098l-.774-1.314c1.008-.954 2.268-1.404 3.654-1.404 1.926 0 3.618.81 3.618 3.15v5.76h-1.89zm0-1.98v-1.314c-.81-1.314-3.924-1.242-3.924.666 0 1.89 3.132 1.962 3.924.648zM523.496 206.72v-12.006h1.89v12.006h-1.89"/></g><g fill="#FFF"><path d="M538.184 206.936c-3.456 0-6.21-2.52-6.21-6.21s2.754-6.21 6.21-6.21c2.52 0 4.014 1.26 4.914 2.7l-1.8.918c-.576-.99-1.728-1.746-3.114-1.746-2.286 0-4.05 1.818-4.05 4.338s1.764 4.338 4.05 4.338c1.386 0 2.538-.738 3.114-1.746l1.8.918c-.918 1.44-2.394 2.7-4.914 2.7M548.66 206.936c-2.754 0-4.464-2.07-4.464-4.572 0-2.484 1.71-4.554 4.464-4.554 2.79 0 4.482 2.07 4.482 4.554 0 2.502-1.692 4.572-4.482 4.572zm0-1.674c1.62 0 2.52-1.35 2.52-2.898 0-1.53-.9-2.88-2.52-2.88-1.602 0-2.502 1.35-2.502 2.88 0 1.548.9 2.898 2.502 2.898zM565.706 206.72v-5.67c0-.936-.414-1.566-1.422-1.566-.846 0-1.638.594-2.016 1.152v6.084h-1.89v-5.67c0-.936-.414-1.566-1.44-1.566-.828 0-1.602.594-1.998 1.17v6.066h-1.89v-8.694h1.89v1.188c.36-.54 1.512-1.404 2.826-1.404 1.296 0 2.088.648 2.376 1.602.504-.792 1.656-1.602 2.952-1.602 1.602 0 2.502.864 2.502 2.628v6.282h-1.89M580.7 206.72v-5.67c0-.936-.414-1.566-1.422-1.566-.846 0-1.638.594-2.016 1.152v6.084h-1.89v-5.67c0-.936-.414-1.566-1.44-1.566-.828 0-1.602.594-1.998 1.17v6.066h-1.89v-8.694h1.89v1.188c.36-.54 1.512-1.404 2.826-1.404 1.296 0 2.088.648 2.376 1.602.504-.792 1.656-1.602 2.952-1.602 1.602 0 2.502.864 2.502 2.628v6.282h-1.89M584.498 202.364c0-2.52 1.836-4.554 4.41-4.554 2.754 0 4.428 2.16 4.284 5.184h-6.714c.144 1.314 1.134 2.394 2.772 2.394.846 0 1.854-.342 2.466-.954l.864 1.242c-.864.828-2.142 1.26-3.528 1.26-2.61 0-4.554-1.818-4.554-4.572zm4.41-3.006c-1.62 0-2.358 1.242-2.448 2.304h4.896c-.036-1.026-.738-2.304-2.448-2.304zM595.064 206.72v-8.694h1.89v1.278c.648-.828 1.692-1.476 2.826-1.476v1.872c-1.134-.252-2.304.36-2.826 1.098v5.922h-1.89M600.77 202.364c0-2.628 1.854-4.554 4.5-4.554 1.692 0 2.718.72 3.33 1.548l-1.242 1.152c-.486-.684-1.152-1.026-1.998-1.026-1.584 0-2.628 1.188-2.628 2.88s1.044 2.898 2.628 2.898c.846 0 1.512-.36 1.998-1.026l1.242 1.152c-.612.828-1.638 1.548-3.33 1.548-2.646 0-4.5-1.926-4.5-4.572M609.716 202.364c0-2.52 1.836-4.554 4.41-4.554 2.754 0 4.428 2.16 4.284 5.184h-6.714c.144 1.314 1.134 2.394 2.772 2.394.846 0 1.854-.342 2.466-.954l.864 1.242c-.864.828-2.142 1.26-3.528 1.26-2.61 0-4.554-1.818-4.554-4.572zm4.41-3.006c-1.62 0-2.358 1.242-2.448 2.304h4.896c-.036-1.026-.738-2.304-2.448-2.304z"/></g><path d="M436.73 267.7L498.7 231" stroke="#2A3843" stroke-width="4"/><path d="M436.73 267.7h-3.5l-.1-.2 2.58-1.52 1.02 1.72zm65.57-36.5l-2.57 1.52-1.02-1.72h3.5l.09.2z" fill="#2A3843"/><path d="M180 464.9c0-2.76 2.24-5 5-5h117.6c2.76 0 5 2.24 5 5v36.2c0 2.76-2.24 5-5 5H185c-2.76 0-5-2.24-5-5v-36.2z" fill="#0EB29C"/><g fill="#FFF"><path d="M210.156 484.074v-7.272h2.124v7.2c0 1.908 1.062 3.15 3.078 3.15 1.998 0 3.06-1.242 3.06-3.15v-7.2h2.124v7.254c0 2.988-1.71 4.968-5.184 4.968-3.492 0-5.202-1.998-5.202-4.95M223.044 488.808v-12.006h1.89v4.518c.684-.918 1.692-1.422 2.79-1.422 2.232 0 3.852 1.763 3.852 4.57 0 2.863-1.638 4.555-3.852 4.555-1.134 0-2.124-.54-2.79-1.404v1.187h-1.89zm1.89-2.61c.414.648 1.35 1.152 2.232 1.152 1.512 0 2.466-1.19 2.466-2.88 0-1.693-.954-2.9-2.466-2.9-.882 0-1.818.54-2.232 1.19v3.437zM232.962 484.45c0-2.52 1.836-4.553 4.41-4.553 2.754 0 4.428 2.16 4.284 5.184l-6.714.002c.144 1.314 1.134 2.394 2.772 2.394.846 0 1.854-.342 2.466-.954l.864 1.242c-.864.828-2.142 1.26-3.528 1.26-2.61 0-4.554-1.818-4.554-4.572zm4.41-3.005c-1.62 0-2.358 1.242-2.448 2.304h4.896c-.036-1.027-.738-2.305-2.448-2.305zM243.528 488.808v-8.694h1.89v1.278c.648-.828 1.692-1.476 2.826-1.476v1.872c-1.134-.252-2.304.36-2.826 1.098v5.922h-1.89M249.234 484.45c0-2.627 1.854-4.553 4.5-4.553 1.692 0 2.718.72 3.33 1.548l-1.242 1.152c-.486-.684-1.152-1.026-1.998-1.026-1.584 0-2.628 1.19-2.628 2.88 0 1.693 1.044 2.9 2.628 2.9.846 0 1.512-.36 1.998-1.027l1.242 1.152c-.612.828-1.638 1.548-3.33 1.548-2.646 0-4.5-1.926-4.5-4.572M264.03 488.808v-.936c-1.638 1.89-5.832 1.53-5.832-1.728 0-3.312 4.212-3.492 5.832-1.71v-1.296c0-1.008-.828-1.62-2.034-1.62-.972 0-1.818.36-2.574 1.098l-.774-1.314c1.008-.954 2.268-1.404 3.654-1.404 1.926 0 3.618.81 3.618 3.15v5.76h-1.89zm0-1.98v-1.314c-.81-1.315-3.924-1.243-3.924.665 0 1.89 3.132 1.96 3.924.647zM268.368 488.808v-8.694h1.89v1.278c.648-.828 1.692-1.476 2.826-1.476v1.872c-1.134-.252-2.304.36-2.826 1.098v5.922h-1.89M277.224 489.024c-1.458 0-2.232-.792-2.232-2.232v-5.022h-1.44v-1.656h1.44v-2.376h1.89v2.376h1.764v1.656h-1.764v4.554c-.162 1.062 1.152 1.278 1.674.72l.45 1.422c-.342.324-.9.558-1.782.558"/></g><path d="M374 318.3L262.06 459.9" stroke="#2A3843" stroke-width="4"/><path d="M375.57 319.54L374 318.3h2.55l-.98 1.24zM262.06 459.9h-2.55l1-1.24 1.55 1.24z" fill="#2A3843"/><path d="M385.2 100c0-2.76 2.24-5 5-5H521c2.76 0 5 2.24 5 5v40.6c0 2.76-2.24 5-5 5H390.2c-2.76 0-5-2.24-5-5V100z" fill="#0EB29C"/><g fill="#FFF"><path d="M407.537 125.374c-2.754 0-4.464-2.07-4.464-4.572 0-2.485 1.71-4.555 4.464-4.555 2.79 0 4.482 2.07 4.482 4.555 0 2.5-1.693 4.57-4.483 4.57v.002zm0-1.674c1.62 0 2.52-1.35 2.52-2.9 0-1.528-.9-2.878-2.52-2.878-1.602 0-2.502 1.35-2.502 2.88 0 1.547.9 2.897 2.502 2.897zM413.17 124.023l.865-1.367c.612.63 1.818 1.223 2.952 1.223s1.71-.414 1.71-1.062c0-.756-.918-1.026-1.98-1.26-1.494-.325-3.276-.72-3.276-2.665 0-1.42 1.225-2.645 3.42-2.645 1.477 0 2.593.52 3.385 1.223l-.792 1.334c-.522-.595-1.494-1.045-2.574-1.045-.99 0-1.62.36-1.62.97 0 .667.863.9 1.89 1.135 1.51.325 3.365.757 3.365 2.81 0 1.53-1.278 2.7-3.618 2.7-1.476 0-2.826-.47-3.726-1.35M428.147 125.374c-3.456 0-6.21-2.52-6.21-6.21s2.754-6.21 6.21-6.21c2.52 0 4.014 1.26 4.914 2.7l-1.8.918c-.575-.99-1.727-1.746-3.113-1.746-2.286 0-4.05 1.818-4.05 4.338s1.764 4.338 4.05 4.338c1.386 0 2.538-.738 3.114-1.746l1.8.918c-.917 1.44-2.393 2.7-4.913 2.7M438.623 125.374c-2.754 0-4.464-2.07-4.464-4.572 0-2.485 1.71-4.555 4.463-4.555 2.79 0 4.482 2.07 4.482 4.555 0 2.5-1.692 4.57-4.482 4.57v.002zm0-1.674c1.62 0 2.52-1.35 2.52-2.9 0-1.528-.9-2.878-2.52-2.878-1.602 0-2.502 1.35-2.502 2.88 0 1.547.9 2.897 2.503 2.897zM455.67 125.157v-5.67c0-.935-.415-1.565-1.423-1.565-.846 0-1.638.593-2.016 1.15v6.085h-1.89v-5.67c0-.935-.413-1.565-1.44-1.565-.827 0-1.6.593-1.997 1.17v6.065h-1.89v-8.693h1.89v1.187c.36-.54 1.512-1.403 2.826-1.403 1.295 0 2.087.65 2.375 1.603.504-.792 1.656-1.602 2.952-1.602 1.602 0 2.502.863 2.502 2.627v6.283h-1.89M470.663 125.157v-5.67c0-.935-.414-1.565-1.422-1.565-.845 0-1.637.593-2.015 1.15v6.085h-1.89v-5.67c0-.935-.414-1.565-1.44-1.565-.828 0-1.602.593-1.998 1.17v6.065h-1.89v-8.693h1.89v1.187c.36-.54 1.512-1.403 2.826-1.403 1.296 0 2.088.65 2.376 1.603.503-.792 1.655-1.602 2.95-1.602 1.603 0 2.503.863 2.503 2.627v6.283h-1.89M474.46 120.802c0-2.52 1.837-4.555 4.41-4.555 2.755 0 4.43 2.16 4.285 5.185h-6.714c.145 1.313 1.135 2.393 2.773 2.393.846 0 1.854-.34 2.466-.953l.863 1.24c-.864.83-2.142 1.262-3.528 1.262-2.61 0-4.554-1.818-4.554-4.572zm4.41-3.007c-1.62 0-2.357 1.243-2.447 2.305h4.896c-.037-1.026-.74-2.304-2.45-2.304zM485.027 125.157v-8.693h1.89v1.277c.648-.826 1.692-1.474 2.826-1.474v1.87c-1.134-.25-2.304.362-2.826 1.1v5.92h-1.89M490.733 120.802c0-2.63 1.854-4.555 4.5-4.555 1.692 0 2.718.72 3.33 1.55l-1.242 1.15c-.485-.683-1.15-1.025-1.997-1.025-1.584 0-2.628 1.188-2.628 2.88 0 1.69 1.044 2.897 2.628 2.897.846 0 1.512-.36 1.998-1.027l1.243 1.153c-.612.828-1.638 1.548-3.33 1.548-2.646 0-4.5-1.926-4.5-4.572M499.68 120.802c0-2.52 1.835-4.555 4.41-4.555 2.753 0 4.427 2.16 4.283 5.185h-6.714c.143 1.313 1.133 2.393 2.77 2.393.847 0 1.855-.34 2.467-.953l.864 1.24c-.863.83-2.14 1.262-3.527 1.262-2.61 0-4.554-1.818-4.554-4.572zm4.41-3.007c-1.62 0-2.36 1.243-2.45 2.305h4.897c-.036-1.026-.738-2.304-2.448-2.304z"/></g><path d="M403.02 267.7l43.56-122.1" stroke="#2A3843" stroke-width="4"/><path d="M403.02 267.7h-2.12l.24-.67 1.88.67zm45.44-121.43l-1.88-.67h2.12l-.24.67z" fill="#2A3843"/><path d="M372.5 460c0-2.76 2.24-5 5-5h155c2.76 0 5 2.24 5 5v46c0 2.76-2.24 5-5 5h-155c-2.76 0-5-2.24-5-5v-46z" fill="#0EB29C"/><g fill="#FFF"><path d="M400.627 486.72l-2.34-8.856-2.322 8.856h-2.25l-3.438-12.006h2.358l2.34 9.252 2.484-9.252h1.673l2.484 9.252 2.322-9.252h2.357l-3.42 12.006h-2.25M407.7 486.72v-12.006h5.275c2.52 0 3.924 1.728 3.924 3.762s-1.423 3.762-3.925 3.762h-3.168v4.482H407.7zm7.04-8.244c0-1.152-.865-1.908-2.053-1.908h-2.88v3.816h2.88c1.188 0 2.052-.756 2.052-1.908z"/></g><g fill="#FFF"><path d="M422.677 482.364c0-2.52 1.836-4.554 4.41-4.554 2.754 0 4.428 2.16 4.284 5.184h-6.713c.144 1.314 1.134 2.394 2.772 2.394.845 0 1.853-.342 2.465-.954l.864 1.242c-.865.828-2.143 1.26-3.53 1.26-2.61 0-4.553-1.818-4.553-4.572zm4.41-3.006c-1.62 0-2.358 1.242-2.448 2.304h4.895c-.036-1.026-.738-2.304-2.448-2.304zM438.967 486.936c-3.456 0-6.21-2.52-6.21-6.21s2.754-6.21 6.21-6.21c2.52 0 4.014 1.26 4.914 2.7l-1.8.918c-.575-.99-1.727-1.746-3.113-1.746-2.286 0-4.05 1.818-4.05 4.338s1.764 4.338 4.05 4.338c1.386 0 2.538-.738 3.114-1.746l1.8.918c-.917 1.44-2.393 2.7-4.913 2.7M449.443 486.936c-2.754 0-4.464-2.07-4.464-4.572 0-2.484 1.71-4.554 4.463-4.554 2.79 0 4.482 2.07 4.482 4.554 0 2.502-1.692 4.572-4.482 4.572zm0-1.674c1.62 0 2.52-1.35 2.52-2.898 0-1.53-.9-2.88-2.52-2.88-1.602 0-2.502 1.35-2.502 2.88 0 1.548.9 2.898 2.503 2.898zM466.49 486.72v-5.67c0-.936-.415-1.566-1.423-1.566-.846 0-1.638.594-2.016 1.152v6.084h-1.89v-5.67c0-.936-.413-1.566-1.44-1.566-.827 0-1.6.594-1.997 1.17v6.066h-1.89v-8.694h1.89v1.188c.36-.54 1.512-1.404 2.826-1.404 1.295 0 2.087.648 2.375 1.602.504-.792 1.656-1.602 2.952-1.602 1.602 0 2.502.864 2.502 2.628v6.282h-1.89M481.483 486.72v-5.67c0-.936-.414-1.566-1.422-1.566-.845 0-1.637.594-2.015 1.152v6.084h-1.89v-5.67c0-.936-.414-1.566-1.44-1.566-.828 0-1.602.594-1.998 1.17v6.066h-1.89v-8.694h1.89v1.188c.36-.54 1.512-1.404 2.826-1.404 1.296 0 2.088.648 2.376 1.602.503-.792 1.655-1.602 2.95-1.602 1.603 0 2.503.864 2.503 2.628v6.282h-1.89M485.28 482.364c0-2.52 1.837-4.554 4.41-4.554 2.755 0 4.43 2.16 4.285 5.184h-6.714c.145 1.314 1.135 2.394 2.773 2.394.846 0 1.854-.342 2.466-.954l.863 1.242c-.864.828-2.142 1.26-3.528 1.26-2.61 0-4.554-1.818-4.554-4.572zm4.41-3.006c-1.62 0-2.357 1.242-2.447 2.304h4.896c-.037-1.026-.74-2.304-2.45-2.304zM495.847 486.72v-8.694h1.89v1.278c.648-.828 1.692-1.476 2.826-1.476v1.872c-1.134-.252-2.304.36-2.826 1.098v5.922h-1.89M501.553 482.364c0-2.628 1.854-4.554 4.5-4.554 1.692 0 2.718.72 3.33 1.548l-1.242 1.152c-.485-.684-1.15-1.026-1.997-1.026-1.584 0-2.628 1.188-2.628 2.88s1.044 2.898 2.628 2.898c.846 0 1.512-.36 1.998-1.026l1.243 1.152c-.612.828-1.638 1.548-3.33 1.548-2.646 0-4.5-1.926-4.5-4.572M510.5 482.364c0-2.52 1.835-4.554 4.41-4.554 2.753 0 4.427 2.16 4.283 5.184h-6.714c.143 1.314 1.133 2.394 2.77 2.394.847 0 1.855-.342 2.467-.954l.864 1.242c-.863.828-2.14 1.26-3.527 1.26-2.61 0-4.554-1.818-4.554-4.572zm4.41-3.006c-1.62 0-2.36 1.242-2.45 2.304h4.897c-.036-1.026-.738-2.304-2.448-2.304z"/></g><path d="M402.12 318.3l43.9 136.7" stroke="#2A3843" stroke-width="4"/><path d="M400.22 318.9l-.2-.6h2.1l-1.9.6zM448.1 455H446l1.9-.6.2.6z" fill="#2A3843"/><path d="M90 175c0-2.76 2.24-5 5-5h117.6c2.76 0 5 2.24 5 5v36.2c0 2.76-2.24 5-5 5H95c-2.76 0-5-2.24-5-5V175z" fill="#0EB29C"/><g fill="#FFF"><path d="M115.566 192.913c0-3.582 2.538-6.21 6.138-6.21s6.138 2.628 6.138 6.21-2.538 6.21-6.138 6.21-6.138-2.627-6.138-6.21zm10.116 0c0-2.484-1.566-4.338-3.978-4.338-2.43 0-3.978 1.855-3.978 4.34 0 2.465 1.548 4.337 3.978 4.337 2.412 0 3.978-1.873 3.978-4.34zM131.712 202.22h-1.89v-12.006h1.89v1.188a3.47 3.47 0 0 1 2.79-1.404c2.25 0 3.852 1.692 3.852 4.554s-1.602 4.572-3.852 4.572c-1.098 0-2.088-.486-2.79-1.422v4.518zm4.68-7.668c0-1.674-.954-2.88-2.448-2.88-.882 0-1.818.522-2.232 1.17v3.437c.414.63 1.35 1.17 2.232 1.17 1.494 0 2.448-1.207 2.448-2.9zM139.722 194.55c0-2.52 1.836-4.553 4.41-4.553 2.754 0 4.428 2.16 4.284 5.184h-6.714c.144 1.315 1.134 2.395 2.772 2.395.846 0 1.854-.34 2.466-.953l.864 1.24c-.864.83-2.142 1.26-3.528 1.26-2.61 0-4.554-1.817-4.554-4.57zm4.41-3.005c-1.62 0-2.358 1.243-2.448 2.305h4.896c-.036-1.026-.738-2.304-2.448-2.304zM156.156 198.907v-5.436c0-1.35-.684-1.8-1.746-1.8-.972 0-1.8.577-2.232 1.17v6.067h-1.89v-8.694h1.89v1.188a4.113 4.113 0 0 1 3.06-1.403c1.872 0 2.808 1.008 2.808 2.79v6.12h-1.89M166.218 199.123c-3.456 0-6.21-2.52-6.21-6.21s2.754-6.21 6.21-6.21c2.52 0 4.014 1.26 4.914 2.7l-1.8.918c-.576-.99-1.728-1.745-3.114-1.745-2.286 0-4.05 1.818-4.05 4.338s1.764 4.338 4.05 4.338c1.386 0 2.538-.737 3.114-1.745l1.8.918c-.918 1.44-2.394 2.7-4.914 2.7M178.08 198.907v-.936c-1.638 1.89-5.832 1.53-5.832-1.727 0-3.312 4.212-3.492 5.832-1.71v-1.296c0-1.008-.828-1.62-2.034-1.62-.972 0-1.818.36-2.574 1.098l-.774-1.314c1.008-.953 2.268-1.403 3.654-1.403 1.926 0 3.618.81 3.618 3.15v5.76h-1.89zm0-1.98v-1.313c-.81-1.314-3.924-1.242-3.924.666 0 1.89 3.132 1.962 3.924.648zM182.418 198.907v-8.694h1.89v1.28c.648-.83 1.692-1.477 2.826-1.477v1.872c-1.134-.252-2.304.36-2.826 1.098v5.922h-1.89M191.274 199.124c-1.458 0-2.232-.792-2.232-2.232v-5.022h-1.44v-1.656h1.44v-2.376h1.89v2.376h1.764v1.656h-1.764v4.554c-.162 1.062 1.152 1.278 1.674.72l.45 1.422c-.342.324-.9.558-1.782.558"/></g><path d="M333.17 267.7l-123.83-51.5" stroke="#2A3843" stroke-width="4"/><path d="M336.7 267l-.28.7h-3.25l.77-1.85 2.76 1.15zm-128.13-48.95l-2.77-1.16.3-.7h3.24l-.77 1.86z" fill="#2A3843"/><path d="M255 535c0-2.76 2.24-5 5-5h144c2.76 0 5 2.24 5 5v46c0 2.76-2.24 5-5 5H260c-2.76 0-5-2.24-5-5v-46z" fill="#0EB29C"/><g fill="#FFF"><path d="M262.57 560.028l1.17-1.62c.828.882 2.124 1.656 3.798 1.656 1.728 0 2.412-.846 2.412-1.638 0-1.08-1.278-1.404-2.736-1.782-1.962-.486-4.266-1.062-4.266-3.6 0-1.98 1.746-3.51 4.374-3.51 1.872 0 3.384.594 4.5 1.674l-1.206 1.566c-.936-.936-2.214-1.368-3.474-1.368-1.242 0-2.034.594-2.034 1.494 0 .936 1.224 1.242 2.646 1.602 1.98.504 4.338 1.116 4.338 3.726 0 1.998-1.404 3.708-4.644 3.708-2.214 0-3.816-.774-4.878-1.908M275.872 565.032h-1.89v-12.006h1.89v1.188a3.47 3.47 0 0 1 2.79-1.404c2.25 0 3.852 1.692 3.852 4.554s-1.602 4.572-3.852 4.572c-1.098 0-2.088-.486-2.79-1.422v4.518zm4.68-7.668c0-1.674-.954-2.88-2.448-2.88-.882 0-1.818.522-2.232 1.17v3.438c.414.63 1.35 1.17 2.232 1.17 1.494 0 2.448-1.206 2.448-2.898zM284.422 561.72v-8.694h1.89v1.278c.648-.828 1.692-1.476 2.826-1.476v1.872c-1.134-.252-2.304.36-2.826 1.098v5.922h-1.89M290.128 557.364c0-2.52 1.836-4.554 4.41-4.554 2.754 0 4.428 2.16 4.284 5.184h-6.714c.144 1.314 1.134 2.394 2.772 2.394.846 0 1.854-.342 2.466-.954l.864 1.242c-.864.828-2.142 1.26-3.528 1.26-2.61 0-4.554-1.818-4.554-4.572zm4.41-3.006c-1.62 0-2.358 1.242-2.448 2.304h4.896c-.036-1.026-.738-2.304-2.448-2.304zM300.154 557.364c0-2.52 1.836-4.554 4.41-4.554 2.754 0 4.428 2.16 4.284 5.184h-6.714c.144 1.314 1.134 2.394 2.772 2.394.846 0 1.854-.342 2.466-.954l.864 1.242c-.864.828-2.142 1.26-3.528 1.26-2.61 0-4.554-1.818-4.554-4.572zm4.41-3.006c-1.62 0-2.358 1.242-2.448 2.304h4.896c-.036-1.026-.738-2.304-2.448-2.304z"/></g><g fill="#FFF"><path d="M321.07 561.936c-3.456 0-6.21-2.52-6.21-6.21s2.754-6.21 6.21-6.21c2.52 0 4.014 1.26 4.914 2.7l-1.8.918c-.576-.99-1.728-1.746-3.114-1.746-2.286 0-4.05 1.818-4.05 4.338s1.764 4.338 4.05 4.338c1.386 0 2.538-.738 3.114-1.746l1.8.918c-.918 1.44-2.394 2.7-4.914 2.7M331.546 561.936c-2.754 0-4.464-2.07-4.464-4.572 0-2.484 1.71-4.554 4.464-4.554 2.79 0 4.482 2.07 4.482 4.554 0 2.502-1.692 4.572-4.482 4.572zm0-1.674c1.62 0 2.52-1.35 2.52-2.898 0-1.53-.9-2.88-2.52-2.88-1.602 0-2.502 1.35-2.502 2.88 0 1.548.9 2.898 2.502 2.898zM348.592 561.72v-5.67c0-.936-.414-1.566-1.422-1.566-.846 0-1.638.594-2.016 1.152v6.084h-1.89v-5.67c0-.936-.414-1.566-1.44-1.566-.828 0-1.602.594-1.998 1.17v6.066h-1.89v-8.694h1.89v1.188c.36-.54 1.512-1.404 2.826-1.404 1.296 0 2.088.648 2.376 1.602.504-.792 1.656-1.602 2.952-1.602 1.602 0 2.502.864 2.502 2.628v6.282h-1.89M363.586 561.72v-5.67c0-.936-.414-1.566-1.422-1.566-.846 0-1.638.594-2.016 1.152v6.084h-1.89v-5.67c0-.936-.414-1.566-1.44-1.566-.828 0-1.602.594-1.998 1.17v6.066h-1.89v-8.694h1.89v1.188c.36-.54 1.512-1.404 2.826-1.404 1.296 0 2.088.648 2.376 1.602.504-.792 1.656-1.602 2.952-1.602 1.602 0 2.502.864 2.502 2.628v6.282h-1.89M367.384 557.364c0-2.52 1.836-4.554 4.41-4.554 2.754 0 4.428 2.16 4.284 5.184h-6.714c.144 1.314 1.134 2.394 2.772 2.394.846 0 1.854-.342 2.466-.954l.864 1.242c-.864.828-2.142 1.26-3.528 1.26-2.61 0-4.554-1.818-4.554-4.572zm4.41-3.006c-1.62 0-2.358 1.242-2.448 2.304h4.896c-.036-1.026-.738-2.304-2.448-2.304zM377.95 561.72v-8.694h1.89v1.278c.648-.828 1.692-1.476 2.826-1.476v1.872c-1.134-.252-2.304.36-2.826 1.098v5.922h-1.89M383.656 557.364c0-2.628 1.854-4.554 4.5-4.554 1.692 0 2.718.72 3.33 1.548l-1.242 1.152c-.486-.684-1.152-1.026-1.998-1.026-1.584 0-2.628 1.188-2.628 2.88s1.044 2.898 2.628 2.898c.846 0 1.512-.36 1.998-1.026l1.242 1.152c-.612.828-1.638 1.548-3.33 1.548-2.646 0-4.5-1.926-4.5-4.572M392.602 557.364c0-2.52 1.836-4.554 4.41-4.554 2.754 0 4.428 2.16 4.284 5.184h-6.714c.144 1.314 1.134 2.394 2.772 2.394.846 0 1.854-.342 2.466-.954l.864 1.242c-.864.828-2.142 1.26-3.528 1.26-2.61 0-4.554-1.818-4.554-4.572zm4.41-3.006c-1.62 0-2.358 1.242-2.448 2.304h4.896c-.036-1.026-.738-2.304-2.448-2.304z"/></g><path d="M388.08 318.3L338.55 530" stroke="#2A3843" stroke-width="4"/><path d="M390.03 318.76l-1.95-.46h2.05l-.1.46zM338.55 530h-2.05l.1-.46 1.95.46z" fill="#2A3843"/><path d="M250 35c0-2.76 2.24-5 5-5h130.8c2.76 0 5 2.24 5 5v40.6c0 2.76-2.24 5-5 5H255c-2.76 0-5-2.24-5-5V35z" fill="#0EB29C"/><g fill="#FFF"><path d="M271.05 60.157l-6.264-8.747v8.747h-2.106V48.152h2.16l6.138 8.513v-8.514l2.106.002v12.005h-2.034M279.51 60.373c-2.754 0-4.464-2.07-4.464-4.57 0-2.485 1.71-4.555 4.464-4.555 2.79 0 4.482 2.07 4.482 4.554 0 2.502-1.692 4.572-4.482 4.572zm0-1.673c1.62 0 2.52-1.35 2.52-2.9 0-1.528-.9-2.878-2.52-2.878-1.602 0-2.502 1.35-2.502 2.88 0 1.548.9 2.898 2.502 2.898zM287.79 63.47h-1.89V51.464h1.89v1.188a3.47 3.47 0 0 1 2.79-1.404c2.25 0 3.852 1.692 3.852 4.554s-1.602 4.572-3.852 4.572c-1.098 0-2.088-.486-2.79-1.422v4.518zm4.68-7.668c0-1.674-.954-2.88-2.448-2.88-.882 0-1.818.522-2.232 1.17v3.438c.414.63 1.35 1.17 2.232 1.17 1.494 0 2.448-1.206 2.448-2.898zM295.8 55.802c0-2.628 1.854-4.554 4.5-4.554 1.692 0 2.718.72 3.33 1.548l-1.242 1.152c-.486-.684-1.152-1.026-1.998-1.026-1.584 0-2.628 1.188-2.628 2.88s1.044 2.898 2.628 2.898c.846 0 1.512-.36 1.998-1.027l1.242 1.153c-.612.828-1.638 1.548-3.33 1.548-2.646 0-4.5-1.926-4.5-4.572M309.21 60.373c-2.754 0-4.464-2.07-4.464-4.57 0-2.485 1.71-4.555 4.464-4.555 2.79 0 4.482 2.07 4.482 4.554 0 2.502-1.692 4.572-4.482 4.572zm0-1.673c1.62 0 2.52-1.35 2.52-2.9 0-1.528-.9-2.878-2.52-2.878-1.602 0-2.502 1.35-2.502 2.88 0 1.548.9 2.898 2.502 2.898zM326.256 60.157v-5.67c0-.936-.414-1.566-1.422-1.566-.846 0-1.638.595-2.016 1.153v6.084h-1.89v-5.67c0-.936-.414-1.566-1.44-1.566-.828 0-1.602.595-1.998 1.17v6.067h-1.89v-8.693h1.89v1.187c.36-.538 1.512-1.402 2.826-1.402 1.296 0 2.088.648 2.376 1.602.504-.793 1.656-1.603 2.952-1.603 1.602 0 2.502.865 2.502 2.63v6.28h-1.89M341.25 60.157v-5.67c0-.936-.414-1.566-1.422-1.566-.846 0-1.638.595-2.016 1.153v6.084h-1.89v-5.67c0-.936-.414-1.566-1.44-1.566-.828 0-1.602.595-1.998 1.17v6.067h-1.89v-8.693h1.89v1.187c.36-.538 1.512-1.402 2.826-1.402 1.296 0 2.088.648 2.376 1.602.504-.793 1.656-1.603 2.952-1.603 1.602 0 2.502.865 2.502 2.63v6.28h-1.89M345.048 55.802c0-2.52 1.836-4.554 4.41-4.554 2.754 0 4.428 2.16 4.284 5.184h-6.714c.144 1.313 1.134 2.393 2.772 2.393.846 0 1.854-.342 2.466-.954l.864 1.244c-.864.827-2.142 1.26-3.528 1.26-2.61 0-4.554-1.82-4.554-4.573zm4.41-3.006c-1.62 0-2.358 1.242-2.448 2.304h4.896c-.036-1.026-.738-2.304-2.448-2.304zM355.614 60.157v-8.693h1.89v1.277c.648-.827 1.692-1.475 2.826-1.475v1.872c-1.134-.252-2.304.36-2.826 1.098v5.922h-1.89M361.32 55.802c0-2.628 1.854-4.554 4.5-4.554 1.692 0 2.718.72 3.33 1.548l-1.242 1.152c-.486-.684-1.152-1.026-1.998-1.026-1.584 0-2.628 1.188-2.628 2.88s1.044 2.898 2.628 2.898c.846 0 1.512-.36 1.998-1.027l1.242 1.153c-.612.828-1.638 1.548-3.33 1.548-2.646 0-4.5-1.926-4.5-4.572M370.266 55.802c0-2.52 1.836-4.554 4.41-4.554 2.754 0 4.428 2.16 4.284 5.184h-6.714c.144 1.313 1.134 2.393 2.772 2.393.846 0 1.854-.342 2.466-.954l.864 1.244c-.864.827-2.142 1.26-3.528 1.26-2.61 0-4.554-1.82-4.554-4.573zm4.41-3.006c-1.62 0-2.358 1.242-2.448 2.304h4.896c-.036-1.026-.738-2.304-2.448-2.304z"/></g><path d="M386.17 267.7L328.23 80.6" stroke="#2A3843" stroke-width="4"/><path d="M388.26 267.7h-2.1l1.92-.6.18.6zM326.32 81.2l-.18-.6h2.1l-1.92.6z" fill="#2A3843"/><path d="M105 397c0-2.76 2.24-5 5-5h106c2.76 0 5 2.24 5 5v32c0 2.76-2.24 5-5 5H110c-2.76 0-5-2.24-5-5v-32z" fill="#0EB29C"/><g fill="#FFF"><path d="M134.088 417.653l1.17-1.62c.828.882 2.124 1.656 3.798 1.656 1.728 0 2.412-.847 2.412-1.64 0-1.08-1.278-1.403-2.736-1.78-1.962-.487-4.266-1.063-4.266-3.6 0-1.98 1.746-3.51 4.374-3.51 1.872 0 3.384.593 4.5 1.673l-1.206 1.566c-.936-.937-2.214-1.37-3.474-1.37-1.242 0-2.034.595-2.034 1.495 0 .936 1.224 1.242 2.646 1.602 1.98.504 4.338 1.116 4.338 3.726 0 1.998-1.404 3.708-4.644 3.708-2.214 0-3.816-.773-4.878-1.907M149.424 419.56c-2.754 0-4.464-2.07-4.464-4.57 0-2.485 1.71-4.555 4.464-4.555 2.79 0 4.482 2.07 4.482 4.554 0 2.5-1.692 4.57-4.482 4.57zm0-1.673c1.62 0 2.52-1.35 2.52-2.898 0-1.53-.9-2.88-2.52-2.88-1.602 0-2.502 1.35-2.502 2.88 0 1.547.9 2.897 2.502 2.897zM155.814 419.345V407.34h1.89v12.005h-1.89M161.088 409.32a1.18 1.18 0 0 1-1.17-1.17c0-.65.54-1.17 1.17-1.17.648 0 1.17.52 1.17 1.17 0 .647-.522 1.17-1.17 1.17zm-.936 10.025v-8.694h1.89v8.695h-1.89zM170.61 419.345v-1.188c-.666.864-1.674 1.404-2.79 1.404-2.232 0-3.87-1.69-3.87-4.553 0-2.808 1.62-4.572 3.87-4.572 1.08 0 2.088.504 2.79 1.422v-4.518h1.89v12.005h-1.89zm0-2.61v-3.456c-.432-.65-1.35-1.17-2.25-1.17-1.494 0-2.448 1.205-2.448 2.897 0 1.674.954 2.88 2.448 2.88.9 0 1.818-.504 2.25-1.152zM180.816 419.345v-1.152a4.167 4.167 0 0 1-3.078 1.368c-1.872 0-2.79-.97-2.79-2.753v-6.156h1.89v5.473c-.126 2.592 3.258 1.908 3.978.63v-6.102h1.89v8.695h-1.89M184.398 418.21l.864-1.367c.612.63 1.818 1.224 2.952 1.224s1.71-.414 1.71-1.062c0-.756-.918-1.026-1.98-1.26-1.494-.324-3.276-.72-3.276-2.664 0-1.42 1.224-2.645 3.42-2.645 1.476 0 2.592.522 3.384 1.224l-.792 1.33c-.522-.593-1.494-1.043-2.574-1.043-.99 0-1.62.36-1.62.972 0 .665.864.9 1.89 1.133 1.512.324 3.366.756 3.366 2.808 0 1.53-1.278 2.7-3.618 2.7-1.476 0-2.826-.467-3.726-1.35"/></g><path d="M345.3 318.3L203.42 392" stroke="#2A3843" stroke-width="4"/><path d="M348.88 318.7l-2.66 1.37-.92-1.77h3.38l.2.4zM203.43 392h-3.4l-.2-.4 2.67-1.37.93 1.77z" fill="#2A3843"/><path d="M160 110c0-2.76 2.24-5 5-5h106c2.76 0 5 2.24 5 5v32c0 2.76-2.24 5-5 5H165c-2.76 0-5-2.24-5-5v-32z" fill="#0EB29C"/><g fill="#FFF"><path d="M188.09 132.345v-1.71l6.137-8.442h-6.138v-1.854h8.873v1.71l-6.138 8.44h6.264v1.855h-9M198.583 127.99c0-2.52 1.836-4.555 4.41-4.555 2.754 0 4.428 2.16 4.284 5.184h-6.714c.144 1.313 1.134 2.393 2.772 2.393.846 0 1.854-.342 2.466-.954l.865 1.24c-.864.83-2.142 1.26-3.528 1.26-2.61 0-4.554-1.817-4.554-4.57zm4.41-3.007c-1.62 0-2.358 1.242-2.448 2.304h4.896c-.035-1.026-.737-2.304-2.447-2.304zM215.017 132.345v-5.436c0-1.35-.684-1.8-1.746-1.8-.97 0-1.8.575-2.23 1.17v6.065h-1.89v-8.694h1.89v1.19a4.113 4.113 0 0 1 3.06-1.405c1.87 0 2.807 1.008 2.807 2.79v6.12h-1.89M218.815 127.99c0-2.63 1.854-4.555 4.5-4.555 1.692 0 2.718.72 3.33 1.548l-1.242 1.152c-.486-.684-1.152-1.026-1.998-1.026-1.584 0-2.628 1.187-2.628 2.88 0 1.69 1.044 2.897 2.628 2.897.846 0 1.512-.36 1.998-1.026l1.242 1.153c-.612.828-1.638 1.548-3.33 1.548-2.646 0-4.5-1.925-4.5-4.57M233.61 132.345v-.936c-1.637 1.89-5.83 1.53-5.83-1.73 0-3.31 4.21-3.49 5.83-1.71v-1.295c0-1.008-.827-1.62-2.033-1.62-.972 0-1.818.36-2.574 1.098l-.774-1.314c1.007-.955 2.267-1.405 3.653-1.405 1.926 0 3.618.81 3.618 3.15v5.76h-1.89zm0-1.98v-1.314c-.81-1.313-3.923-1.24-3.923.667 0 1.89 3.132 1.962 3.924.648zM237.95 132.345v-8.694h1.89v1.28c.647-.83 1.69-1.477 2.825-1.477v1.872c-1.134-.252-2.304.36-2.826 1.098v5.922h-1.89M246.805 132.56c-1.458 0-2.232-.79-2.232-2.23v-5.023h-1.44v-1.656h1.44v-2.375h1.89v2.376h1.764v1.657h-1.764v4.554c-.162 1.063 1.152 1.28 1.674.72l.45 1.423c-.342.324-.9.558-1.782.558"/></g><path d="M367.34 267.7L240.14 147" stroke="#2A3843" stroke-width="4"/><path d="M370.24 267.7h-2.9l1.37-1.45 1.53 1.45zM238.76 148.45l-1.53-1.45h2.9l-1.37 1.45z" fill="#2A3843"/><path d="M0 244c0-2.76 2.24-5 5-5h160c2.76 0 5 2.24 5 5v46c0 2.76-2.24 5-5 5H5c-2.76 0-5-2.24-5-5v-46z" fill="#0EB29C"/><g fill="#FFF"><path d="M17.56 270.72v-9.09l-3.69 9.09h-.9l-3.673-9.09v9.09H7.19v-12.006h2.97l3.26 8.082 3.275-8.082h2.97v12.006H17.56M27.477 270.72v-.936c-1.638 1.89-5.832 1.53-5.832-1.728 0-3.312 4.212-3.492 5.832-1.71v-1.296c0-1.008-.828-1.62-2.034-1.62-.972 0-1.818.36-2.574 1.098l-.775-1.314c1.008-.954 2.268-1.404 3.654-1.404 1.925 0 3.617.81 3.617 3.15v5.76h-1.89zm0-1.98v-1.314c-.81-1.314-3.924-1.242-3.924.666 0 1.89 3.132 1.962 3.924.648zM31.707 272.952l.882-1.368c1.385 1.62 5.237 1.8 5.327-1.242v-1.044c-.666.864-1.656 1.44-2.79 1.44-2.214 0-3.852-1.602-3.852-4.464 0-2.808 1.62-4.464 3.852-4.464 1.098 0 2.088.504 2.79 1.422v-1.206h1.89v8.244c0 3.132-2.322 3.978-4.464 3.978-1.476 0-2.574-.324-3.636-1.296zm6.21-5.058v-3.24c-.414-.648-1.35-1.17-2.232-1.17-1.494 0-2.448 1.116-2.448 2.79s.954 2.79 2.448 2.79c.882 0 1.818-.522 2.232-1.17zM41.715 266.364c0-2.52 1.836-4.554 4.41-4.554 2.754 0 4.428 2.16 4.284 5.184h-6.715c.144 1.314 1.134 2.394 2.772 2.394.846 0 1.854-.342 2.466-.954l.864 1.242c-.864.828-2.142 1.26-3.528 1.26-2.61 0-4.555-1.818-4.555-4.572zm4.41-3.006c-1.62 0-2.358 1.242-2.448 2.304h4.896c-.036-1.026-.738-2.304-2.448-2.304zM58.15 270.72v-5.436c0-1.35-.685-1.8-1.747-1.8-.972 0-1.8.576-2.232 1.17v6.066h-1.89v-8.694h1.89v1.188a4.113 4.113 0 0 1 3.06-1.404c1.873 0 2.81 1.008 2.81 2.79v6.12h-1.89M65.097 270.936c-1.458 0-2.232-.792-2.232-2.232v-5.022h-1.44v-1.656h1.44v-2.376h1.89v2.376h1.764v1.656h-1.765v4.554c-.162 1.062 1.152 1.278 1.674.72l.45 1.422c-.343.324-.9.558-1.783.558M72.153 270.936c-2.754 0-4.464-2.07-4.464-4.572 0-2.484 1.71-4.554 4.463-4.554 2.79 0 4.482 2.07 4.482 4.554 0 2.502-1.692 4.572-4.482 4.572zm0-1.674c1.62 0 2.52-1.35 2.52-2.898 0-1.53-.9-2.88-2.52-2.88-1.602 0-2.502 1.35-2.502 2.88 0 1.548.9 2.898 2.503 2.898z"/></g><g fill="#FFF"><path d="M83.223 270.72v-12.006h8.226v1.854h-6.12v3.114h5.993v1.854H85.33v3.33h6.12v1.854h-8.227M99.423 270.72v-5.436c0-1.35-.684-1.8-1.746-1.8-.972 0-1.8.576-2.232 1.17v6.066h-1.89v-8.694h1.89v1.188a4.113 4.113 0 0 1 3.06-1.404c1.872 0 2.808 1.008 2.808 2.79v6.12h-1.89M106.37 270.936c-1.457 0-2.23-.792-2.23-2.232v-5.022h-1.44v-1.656h1.44v-2.376h1.89v2.376h1.763v1.656h-1.764v4.554c-.163 1.062 1.15 1.278 1.673.72l.45 1.422c-.342.324-.9.558-1.782.558M108.963 266.364c0-2.52 1.836-4.554 4.41-4.554 2.754 0 4.428 2.16 4.284 5.184h-6.714c.144 1.314 1.134 2.394 2.772 2.394.846 0 1.854-.342 2.466-.954l.865 1.242c-.864.828-2.142 1.26-3.528 1.26-2.61 0-4.554-1.818-4.554-4.572zm4.41-3.006c-1.62 0-2.358 1.242-2.448 2.304h4.896c-.035-1.026-.737-2.304-2.447-2.304zM119.53 270.72v-8.694h1.89v1.278c.647-.828 1.69-1.476 2.825-1.476v1.872c-1.134-.252-2.304.36-2.826 1.098v5.922h-1.89M127.665 274.032h-1.89v-12.006h1.89v1.188a3.47 3.47 0 0 1 2.79-1.404c2.25 0 3.852 1.692 3.852 4.554s-1.602 4.572-3.852 4.572c-1.098 0-2.088-.486-2.79-1.422v4.518zm4.68-7.668c0-1.674-.954-2.88-2.448-2.88-.882 0-1.818.522-2.232 1.17v3.438c.414.63 1.35 1.17 2.232 1.17 1.494 0 2.448-1.206 2.448-2.898zM136.215 270.72v-8.694h1.89v1.278c.648-.828 1.692-1.476 2.826-1.476v1.872c-1.133-.252-2.303.36-2.825 1.098v5.922h-1.89M143.397 260.694a1.18 1.18 0 0 1-1.17-1.17c0-.648.54-1.17 1.17-1.17.648 0 1.17.522 1.17 1.17 0 .648-.522 1.17-1.17 1.17zm-.936 10.026v-8.694h1.89v8.694h-1.89zM146.043 269.586l.864-1.368c.612.63 1.818 1.224 2.952 1.224 1.133 0 1.71-.414 1.71-1.062 0-.756-.92-1.026-1.98-1.26-1.495-.324-3.277-.72-3.277-2.664 0-1.422 1.224-2.646 3.42-2.646 1.476 0 2.592.522 3.384 1.224l-.792 1.332c-.522-.594-1.494-1.044-2.574-1.044-.99 0-1.62.36-1.62.972 0 .666.865.9 1.89 1.134 1.513.324 3.367.756 3.367 2.808 0 1.53-1.278 2.7-3.618 2.7-1.477 0-2.827-.468-3.727-1.35M154.755 266.364c0-2.52 1.836-4.554 4.41-4.554 2.754 0 4.428 2.16 4.284 5.184h-6.715c.144 1.314 1.134 2.394 2.772 2.394.846 0 1.854-.342 2.466-.954l.864 1.242c-.864.828-2.142 1.26-3.528 1.26-2.61 0-4.555-1.818-4.555-4.572zm4.41-3.006c-1.62 0-2.358 1.242-2.448 2.304h4.896c-.036-1.026-.738-2.304-2.448-2.304z"/></g><path d="M323.6 287.08L170 274.15" stroke="#2A3843" stroke-width="4"/><path d="M323.6 289.08h-.17l.17-2v2zm-153.43-16.92l-.17 2v-2h.17z" fill="#2A3843"/><path d="M1107 274c0-2.76 2.24-5 5-5h106c2.76 0 5 2.24 5 5v32c0 2.76-2.24 5-5 5h-106c-2.76 0-5-2.24-5-5v-32z" fill="#2BABEE"/><g fill="#FFF"><path d="M1145.61 296.345v-5.238h-6.246v5.238h-2.106V284.34h2.106v4.913h6.246v-4.914h2.106v12.005h-2.106M1154.142 296.56c-2.754 0-4.464-2.07-4.464-4.57 0-2.485 1.71-4.555 4.464-4.555 2.79 0 4.482 2.07 4.482 4.554 0 2.5-1.692 4.57-4.482 4.57zm0-1.673c1.62 0 2.52-1.35 2.52-2.898 0-1.53-.9-2.88-2.52-2.88-1.602 0-2.502 1.35-2.502 2.88 0 1.547.9 2.897 2.502 2.897zM1159.776 295.21l.864-1.367c.612.63 1.818 1.224 2.952 1.224s1.71-.414 1.71-1.062c0-.756-.918-1.026-1.98-1.26-1.494-.324-3.276-.72-3.276-2.664 0-1.42 1.224-2.645 3.42-2.645 1.476 0 2.592.522 3.384 1.224l-.792 1.33c-.522-.593-1.494-1.043-2.574-1.043-.99 0-1.62.36-1.62.972 0 .665.864.9 1.89 1.133 1.512.324 3.366.756 3.366 2.808 0 1.53-1.278 2.7-3.618 2.7-1.476 0-2.826-.467-3.726-1.35M1171.638 296.56c-1.458 0-2.232-.79-2.232-2.23v-5.023h-1.44v-1.656h1.44v-2.375h1.89v2.376h1.764v1.657h-1.764v4.554c-.162 1.063 1.152 1.28 1.674.72l.45 1.423c-.342.324-.9.558-1.782.558M1174.23 291.99c0-2.52 1.836-4.555 4.41-4.555 2.754 0 4.428 2.16 4.284 5.184h-6.714c.144 1.313 1.134 2.393 2.772 2.393.846 0 1.854-.342 2.466-.954l.864 1.24c-.864.83-2.142 1.26-3.528 1.26-2.61 0-4.554-1.817-4.554-4.57zm4.41-3.007c-1.62 0-2.358 1.242-2.448 2.304h4.896c-.036-1.026-.738-2.304-2.448-2.304zM1190.916 296.345v-1.188c-.666.864-1.674 1.404-2.79 1.404-2.232 0-3.87-1.69-3.87-4.553 0-2.808 1.62-4.572 3.87-4.572 1.08 0 2.088.504 2.79 1.422v-4.518h1.89v12.005h-1.89zm0-2.61v-3.456c-.432-.65-1.35-1.17-2.25-1.17-1.494 0-2.448 1.205-2.448 2.897 0 1.674.954 2.88 2.448 2.88.9 0 1.818-.504 2.25-1.152z"/></g><path d="M895.83 293.45l211.17-2.7" stroke="#2A3843" stroke-width="4"/><path d="M895.85 295.45h-.02v-2l.02 2zm211.15-4.71l-.03-2h.03v2z" fill="#2A3843"/><path d="M965 195c0-2.76 2.24-5 5-5h154c2.76 0 5 2.24 5 5v46c0 2.76-2.24 5-5 5H970c-2.76 0-5-2.24-5-5v-46z" fill="#0EB29C"/><g fill="#FFF"><path d="M1027.745 214.72l-2.34-8.856-2.322 8.856h-2.25l-3.438-12.006h2.358l2.34 9.252 2.484-9.252h1.674l2.485 9.252 2.322-9.252h2.358l-3.42 12.006h-2.25M1033.505 210.364c0-2.52 1.836-4.554 4.41-4.554 2.754 0 4.428 2.16 4.284 5.184h-6.715c.144 1.314 1.134 2.394 2.772 2.394.846 0 1.854-.342 2.466-.954l.864 1.242c-.864.828-2.142 1.26-3.528 1.26-2.61 0-4.555-1.818-4.555-4.572zm4.41-3.006c-1.62 0-2.358 1.242-2.448 2.304h4.896c-.036-1.026-.738-2.304-2.448-2.304zM1043.53 210.364c0-2.52 1.837-4.554 4.41-4.554 2.755 0 4.43 2.16 4.285 5.184h-6.714c.145 1.314 1.135 2.394 2.773 2.394.846 0 1.854-.342 2.466-.954l.863 1.242c-.864.828-2.142 1.26-3.528 1.26-2.61 0-4.554-1.818-4.554-4.572zm4.41-3.006c-1.62 0-2.357 1.242-2.447 2.304h4.896c-.037-1.026-.74-2.304-2.45-2.304zM1054.097 214.72v-12.006h1.89v4.518c.684-.918 1.692-1.422 2.79-1.422 2.232 0 3.852 1.764 3.852 4.572 0 2.862-1.64 4.554-3.853 4.554-1.134 0-2.124-.54-2.79-1.404v1.188h-1.89zm1.89-2.61c.414.648 1.35 1.152 2.232 1.152 1.51 0 2.465-1.188 2.465-2.88s-.954-2.898-2.466-2.898c-.883 0-1.82.54-2.233 1.188v3.438zM1064.555 214.72v-12.006h1.89v12.006h-1.89M1068.803 216.43c.81.288 1.62.18 1.962-.612l.432-.99-3.564-8.802h2.016l2.537 6.516 2.538-6.516h2.034l-4.195 10.26c-.756 1.8-2.124 2.178-4.05 1.836"/></g><g fill="#FFF"><path d="M998.765 228.364c0-2.52 1.836-4.554 4.41-4.554 2.754 0 4.428 2.16 4.284 5.184h-6.715c.144 1.314 1.134 2.394 2.772 2.394.846 0 1.854-.342 2.466-.954l.864 1.242c-.864.828-2.142 1.26-3.528 1.26-2.61 0-4.555-1.818-4.555-4.572zm4.41-3.006c-1.62 0-2.358 1.242-2.448 2.304h4.896c-.036-1.026-.738-2.304-2.448-2.304zM1015.055 232.936c-3.456 0-6.21-2.52-6.21-6.21s2.754-6.21 6.21-6.21c2.52 0 4.014 1.26 4.914 2.7l-1.8.918c-.577-.99-1.73-1.746-3.115-1.746-2.286 0-4.05 1.818-4.05 4.338s1.764 4.338 4.05 4.338c1.386 0 2.538-.738 3.114-1.746l1.8.918c-.92 1.44-2.395 2.7-4.915 2.7M1025.53 232.936c-2.753 0-4.463-2.07-4.463-4.572 0-2.484 1.71-4.554 4.464-4.554 2.79 0 4.483 2.07 4.483 4.554 0 2.502-1.692 4.572-4.482 4.572zm0-1.674c1.62 0 2.52-1.35 2.52-2.898 0-1.53-.9-2.88-2.52-2.88-1.6 0-2.5 1.35-2.5 2.88 0 1.548.9 2.898 2.5 2.898zM1042.577 232.72v-5.67c0-.936-.414-1.566-1.422-1.566-.846 0-1.638.594-2.016 1.152v6.084h-1.89v-5.67c0-.936-.415-1.566-1.44-1.566-.83 0-1.603.594-2 1.17v6.066h-1.89v-8.694h1.89v1.188c.36-.54 1.513-1.404 2.827-1.404 1.296 0 2.088.648 2.376 1.602.504-.792 1.656-1.602 2.952-1.602 1.602 0 2.502.864 2.502 2.628v6.282h-1.89M1057.57 232.72v-5.67c0-.936-.413-1.566-1.42-1.566-.847 0-1.64.594-2.017 1.152v6.084h-1.89v-5.67c0-.936-.414-1.566-1.44-1.566-.828 0-1.602.594-1.998 1.17v6.066h-1.89v-8.694h1.89v1.188c.36-.54 1.512-1.404 2.826-1.404 1.297 0 2.09.648 2.377 1.602.504-.792 1.656-1.602 2.952-1.602 1.6 0 2.5.864 2.5 2.628v6.282h-1.89M1061.37 228.364c0-2.52 1.835-4.554 4.41-4.554 2.753 0 4.427 2.16 4.283 5.184h-6.714c.143 1.314 1.133 2.394 2.77 2.394.847 0 1.855-.342 2.467-.954l.864 1.242c-.863.828-2.14 1.26-3.527 1.26-2.61 0-4.554-1.818-4.554-4.572zm4.41-3.006c-1.62 0-2.36 1.242-2.45 2.304h4.897c-.036-1.026-.738-2.304-2.448-2.304zM1071.935 232.72v-8.694h1.89v1.278c.648-.828 1.692-1.476 2.826-1.476v1.872c-1.133-.252-2.303.36-2.825 1.098v5.922h-1.89M1077.64 228.364c0-2.628 1.855-4.554 4.5-4.554 1.693 0 2.72.72 3.33 1.548l-1.24 1.152c-.487-.684-1.153-1.026-2-1.026-1.583 0-2.627 1.188-2.627 2.88s1.044 2.898 2.628 2.898c.847 0 1.513-.36 2-1.026l1.24 1.152c-.61.828-1.637 1.548-3.33 1.548-2.645 0-4.5-1.926-4.5-4.572M1086.587 228.364c0-2.52 1.836-4.554 4.41-4.554 2.754 0 4.428 2.16 4.284 5.184h-6.713c.144 1.314 1.134 2.394 2.772 2.394.845 0 1.853-.342 2.465-.954l.864 1.242c-.865.828-2.143 1.26-3.53 1.26-2.61 0-4.553-1.818-4.553-4.572zm4.41-3.006c-1.62 0-2.358 1.242-2.448 2.304h4.895c-.036-1.026-.738-2.304-2.448-2.304z"/></g><path d="M1130.58 269l-37.7-23" stroke="#2A3843" stroke-width="4"/><path d="M1134.2 268.86l-.1.14h-3.52l1.05-1.7 2.57 1.56zm-42.35-21.16l-2.56-1.56.07-.14h3.52l-1.03 1.7z" fill="#2A3843"/><path d="M703.6 412.7c0-2.76 2.24-5 5-5h130.8c2.76 0 5 2.24 5 5v40.6c0 2.76-2.24 5-5 5H708.6c-2.76 0-5-2.24-5-5v-40.6z" fill="#0EB29C"/><g fill="#FFF"><path d="M728.997 437.858v-12.006h5.274c2.52 0 3.925 1.728 3.925 3.762s-1.422 3.762-3.924 3.762h-3.167v4.482h-2.106zm7.038-8.244c0-1.152-.864-1.908-2.052-1.908h-2.88v3.816h2.88c1.188 0 2.052-.756 2.052-1.908zM739.887 437.858v-8.694h1.89v1.278c.648-.828 1.692-1.476 2.826-1.476v1.872c-1.134-.252-2.304.36-2.826 1.098v5.922h-1.89M745.593 433.5c0-2.52 1.836-4.553 4.41-4.553 2.754 0 4.428 2.16 4.284 5.184l-6.714.002c.144 1.314 1.134 2.394 2.772 2.394.846 0 1.854-.342 2.466-.954l.865 1.242c-.864.828-2.142 1.26-3.528 1.26-2.61 0-4.554-1.818-4.554-4.572zm4.41-3.005c-1.62 0-2.358 1.242-2.448 2.304h4.896c-.035-1.027-.737-2.305-2.447-2.305zM755.403 436.724l.864-1.368c.612.63 1.818 1.224 2.952 1.224 1.133 0 1.71-.414 1.71-1.062 0-.756-.92-1.026-1.98-1.26-1.495-.324-3.277-.72-3.277-2.664 0-1.422 1.224-2.646 3.42-2.646 1.476 0 2.592.522 3.384 1.224l-.792 1.33c-.522-.593-1.494-1.043-2.574-1.043-.99 0-1.62.36-1.62.972 0 .665.865.9 1.89 1.133 1.513.324 3.367.756 3.367 2.808 0 1.53-1.278 2.7-3.618 2.7-1.477 0-2.827-.468-3.727-1.35M767.265 438.074c-1.458 0-2.232-.792-2.232-2.232v-5.022h-1.44v-1.656h1.44v-2.376h1.89v2.376h1.764v1.656h-1.764v4.554c-.162 1.06 1.152 1.277 1.674.72l.45 1.42c-.342.325-.9.56-1.782.56M775.707 437.858v-.936c-1.638 1.89-5.832 1.53-5.832-1.728 0-3.312 4.212-3.492 5.832-1.71v-1.296c0-1.008-.828-1.62-2.034-1.62-.972 0-1.818.36-2.574 1.098l-.775-1.314c1.008-.954 2.268-1.404 3.654-1.404 1.925 0 3.617.81 3.617 3.15v5.76h-1.89zm0-1.98v-1.314c-.81-1.315-3.924-1.243-3.924.665 0 1.89 3.132 1.96 3.924.647zM779.325 436.166l1.17-1.62c.828.882 2.124 1.656 3.798 1.656 1.728 0 2.412-.846 2.412-1.638 0-1.08-1.278-1.404-2.736-1.782-1.963-.486-4.267-1.062-4.267-3.6 0-1.98 1.746-3.51 4.374-3.51 1.872 0 3.384.594 4.5 1.674l-1.206 1.566c-.935-.936-2.213-1.368-3.473-1.368-1.242 0-2.034.594-2.034 1.494 0 .936 1.224 1.242 2.646 1.602 1.98.504 4.337 1.116 4.337 3.726 0 1.998-1.404 3.708-4.644 3.708-2.214 0-3.816-.774-4.878-1.908M796.623 437.858v-5.472c0-1.35-.702-1.764-1.764-1.764-.955 0-1.783.576-2.233 1.17v6.066h-1.89v-12.006h1.89v4.5c.576-.684 1.71-1.404 3.078-1.404 1.872 0 2.808.972 2.808 2.754v6.156h-1.89M804.885 438.073c-2.754 0-4.464-2.07-4.464-4.572 0-2.483 1.71-4.553 4.465-4.553 2.79 0 4.482 2.07 4.482 4.554 0 2.503-1.692 4.573-4.482 4.573zm0-1.674c1.62 0 2.52-1.35 2.52-2.898 0-1.53-.9-2.88-2.52-2.88-1.602 0-2.502 1.35-2.502 2.88 0 1.547.9 2.897 2.502 2.897zM813.165 441.17h-1.89v-12.007h1.89v1.188a3.47 3.47 0 0 1 2.79-1.403c2.25 0 3.852 1.692 3.852 4.554 0 2.863-1.602 4.573-3.852 4.573-1.098 0-2.088-.486-2.79-1.422v4.52zm4.68-7.67c0-1.673-.954-2.88-2.448-2.88-.882 0-1.818.523-2.232 1.17v3.44c.414.63 1.35 1.17 2.232 1.17 1.494 0 2.448-1.206 2.448-2.898z"/></g><path d="M1109.67 310.24l-268.28 98.1" stroke="#2A3843" stroke-width="4"/><path d="M1112 311h1.14l.03.1-2.82 1.02-.68-1.88 2.33.76zm-270.6 97.35l-2-.65h-1.44l-.07-.2 2.8-1.03.71 1.88z" fill="#2A3843"/><path d="M1360 139.6c0-2.76 2.24-5 5-5h117.6c2.76 0 5 2.24 5 5v36.2c0 2.76-2.24 5-5 5H1365c-2.76 0-5-2.24-5-5v-36.2z" fill="#0EB29C"/><g fill="#FFF"><path d="M1380.05 163.507v-4.986l-4.663-7.02h2.412l3.31 5.15 3.277-5.15h2.412l-4.645 7.02v4.987h-2.106M1391.3 163.507v-.936c-1.64 1.89-5.833 1.53-5.833-1.727 0-3.312 4.212-3.492 5.832-1.71v-1.296c0-1.008-.83-1.62-2.035-1.62-.972 0-1.818.36-2.574 1.098l-.773-1.314c1.008-.953 2.268-1.403 3.654-1.403 1.927 0 3.62.81 3.62 3.15v5.76h-1.89zm0-1.98v-1.313c-.81-1.314-3.925-1.242-3.925.666 0 1.89 3.132 1.962 3.924.648zM1401.523 163.507v-5.472c0-1.35-.702-1.764-1.764-1.764-.955 0-1.783.577-2.233 1.17v6.067h-1.89V151.5h1.89v4.5c.576-.683 1.71-1.403 3.078-1.403 1.872 0 2.808.972 2.808 2.754v6.157h-1.89M1409.785 163.724c-2.754 0-4.464-2.07-4.464-4.572 0-2.484 1.71-4.554 4.465-4.554 2.79 0 4.482 2.07 4.482 4.553 0 2.503-1.692 4.573-4.482 4.573zm0-1.674c1.62 0 2.52-1.35 2.52-2.9 0-1.53-.9-2.88-2.52-2.88-1.602 0-2.502 1.35-2.502 2.88 0 1.55.9 2.9 2.502 2.9zM1420.1 163.724c-2.755 0-4.465-2.07-4.465-4.572 0-2.484 1.71-4.554 4.464-4.554 2.79 0 4.48 2.07 4.48 4.553 0 2.503-1.69 4.573-4.48 4.573zm0-1.674c1.62 0 2.52-1.35 2.52-2.9 0-1.53-.9-2.88-2.52-2.88-1.603 0-2.503 1.35-2.503 2.88 0 1.55.9 2.9 2.502 2.9z"/></g><g fill="#FFF"><path d="M1430.395 161.815l1.17-1.62c.828.882 2.124 1.656 3.798 1.656 1.728 0 2.412-.845 2.412-1.637 0-1.08-1.278-1.404-2.736-1.782-1.963-.485-4.267-1.06-4.267-3.6 0-1.98 1.746-3.51 4.374-3.51 1.872 0 3.384.595 4.5 1.675l-1.206 1.566c-.935-.935-2.213-1.367-3.473-1.367-1.242 0-2.034.594-2.034 1.494 0 .936 1.224 1.242 2.646 1.602 1.98.504 4.337 1.116 4.337 3.726 0 1.998-1.404 3.708-4.644 3.708-2.214 0-3.816-.774-4.878-1.908M1444.147 163.724c-1.458 0-2.232-.792-2.232-2.232v-5.022h-1.44v-1.656h1.44v-2.376h1.89v2.376h1.764v1.656h-1.765v4.554c-.162 1.062 1.152 1.278 1.674.72l.45 1.422c-.343.324-.9.558-1.783.558M1451.203 163.724c-2.754 0-4.464-2.07-4.464-4.572 0-2.484 1.71-4.554 4.463-4.554 2.79 0 4.482 2.07 4.482 4.553 0 2.503-1.692 4.573-4.482 4.573zm0-1.674c1.62 0 2.52-1.35 2.52-2.9 0-1.53-.9-2.88-2.52-2.88-1.602 0-2.502 1.35-2.502 2.88 0 1.55.9 2.9 2.503 2.9zM1457.593 163.507v-8.694h1.89v1.28c.648-.83 1.692-1.477 2.826-1.477v1.87c-1.135-.25-2.305.362-2.827 1.1v5.922h-1.89M1463.3 159.15c0-2.52 1.835-4.553 4.41-4.553 2.753 0 4.427 2.16 4.283 5.184h-6.714c.143 1.315 1.133 2.395 2.77 2.395.847 0 1.855-.342 2.467-.954l.864 1.243c-.863.828-2.14 1.26-3.527 1.26-2.61 0-4.554-1.818-4.554-4.572zm4.41-3.005c-1.62 0-2.36 1.242-2.45 2.304h4.897c-.036-1.026-.738-2.304-2.448-2.304z"/></g><path d="M1206.08 269l172.53-88.2" stroke="#2A3843" stroke-width="4"/><path d="M1206.08 269h-3.37l-.2-.42 2.67-1.36.9 1.78zm176.12-87.78l-2.68 1.36-.9-1.78h3.36l.22.42z" fill="#2A3843"/><path d="M995 385c0-2.76 2.24-5 5-5h117.6c2.76 0 5 2.24 5 5v36.2c0 2.76-2.24 5-5 5H1000c-2.76 0-5-2.24-5-5V385z" fill="#0EB29C"/><g fill="#FFF"><path d="M1029.116 408.908l-4.716-12.006h2.394l3.636 9.72 3.636-9.72h2.394l-4.716 12.006h-2.628M1040.564 409.123c-2.754 0-4.464-2.07-4.464-4.572 0-2.483 1.71-4.553 4.464-4.553 2.79 0 4.482 2.07 4.482 4.554 0 2.503-1.692 4.573-4.482 4.573zm0-1.674c1.62 0 2.52-1.35 2.52-2.898 0-1.53-.9-2.88-2.52-2.88-1.602 0-2.502 1.35-2.502 2.88 0 1.547.9 2.897 2.502 2.897zM1046.954 408.908v-12.006h1.89v12.006h-1.89M1057.16 408.908v-1.152a4.167 4.167 0 0 1-3.078 1.368c-1.872 0-2.79-.972-2.79-2.754v-6.156h1.89v5.472c-.126 2.592 3.258 1.908 3.978.63v-6.102h1.89v8.694h-1.89M1060.742 407.774l.864-1.368c.612.63 1.818 1.224 2.952 1.224s1.71-.414 1.71-1.062c0-.756-.918-1.026-1.98-1.26-1.494-.324-3.276-.72-3.276-2.664 0-1.422 1.224-2.646 3.42-2.646 1.476 0 2.592.522 3.384 1.224l-.792 1.332c-.522-.594-1.494-1.044-2.574-1.044-.99 0-1.62.36-1.62.972 0 .665.864.9 1.89 1.133 1.512.324 3.366.756 3.366 2.808 0 1.53-1.278 2.7-3.618 2.7-1.476 0-2.826-.468-3.726-1.35M1070.93 398.882a1.18 1.18 0 0 1-1.17-1.17c0-.648.54-1.17 1.17-1.17.648 0 1.17.522 1.17 1.17 0 .648-.522 1.17-1.17 1.17zm-.936 10.026v-8.694h1.89v8.694h-1.89zM1078.256 409.123c-2.754 0-4.464-2.07-4.464-4.572 0-2.483 1.71-4.553 4.464-4.553 2.79 0 4.482 2.07 4.482 4.554 0 2.503-1.692 4.573-4.482 4.573zm0-1.674c1.62 0 2.52-1.35 2.52-2.898 0-1.53-.9-2.88-2.52-2.88-1.602 0-2.502 1.35-2.502 2.88 0 1.547.9 2.897 2.502 2.897zM1090.514 408.908v-5.436c0-1.35-.684-1.8-1.746-1.8-.972 0-1.8.576-2.232 1.17v6.066h-1.89v-8.694h1.89v1.188a4.113 4.113 0 0 1 3.06-1.404c1.872 0 2.808 1.008 2.808 2.79v6.12h-1.89"/></g><path d="M1145.28 311l-64.8 69" stroke="#2A3843" stroke-width="4"/><path d="M1146.74 312.37l-1.46-1.37h2.74l-1.28 1.37zM1080.5 380h-2.75l1.28-1.37 1.47 1.37z" fill="#2A3843"/><path d="M1035 97.55c0-2.76 2.24-5 5-5h144c2.76 0 5 2.24 5 5v51c0 2.76-2.24 5-5 5h-144c-2.76 0-5-2.24-5-5v-51z" fill="#0EB29C"/><g fill="#FFF"><path d="M1087.885 118.207l-6.264-8.747v8.747h-2.105v-12.005h2.16l6.138 8.513V106.2h2.106v12.007h-2.035M1091.88 113.852c0-2.52 1.837-4.555 4.41-4.555 2.755 0 4.43 2.16 4.285 5.185h-6.714c.145 1.313 1.135 2.393 2.773 2.393.846 0 1.854-.34 2.466-.953l.863 1.242c-.864.828-2.142 1.26-3.528 1.26-2.61 0-4.554-1.818-4.554-4.572zm4.41-3.007c-1.62 0-2.357 1.243-2.447 2.305h4.896c-.037-1.027-.74-2.305-2.45-2.305zM1105.057 118.424c-1.458 0-2.232-.793-2.232-2.233v-5.02h-1.44v-1.657h1.44v-2.376h1.89v2.376h1.764v1.656h-1.765v4.553c-.162 1.063 1.152 1.28 1.674.72l.45 1.423c-.343.323-.9.557-1.783.557M1107.433 117.073l.864-1.367c.612.63 1.818 1.223 2.952 1.223 1.133 0 1.71-.415 1.71-1.063 0-.755-.92-1.025-1.98-1.26-1.495-.323-3.277-.72-3.277-2.663 0-1.423 1.224-2.647 3.42-2.647 1.476 0 2.592.523 3.384 1.225l-.792 1.33c-.522-.593-1.494-1.043-2.574-1.043-.99 0-1.62.36-1.62.97 0 .667.865.9 1.89 1.135 1.513.324 3.367.756 3.367 2.808 0 1.53-1.278 2.7-3.618 2.7-1.477 0-2.827-.467-3.727-1.35M1122.553 118.207v-1.15a4.167 4.167 0 0 1-3.078 1.366c-1.872 0-2.79-.972-2.79-2.754v-6.157h1.89v5.472c-.126 2.592 3.258 1.908 3.978.63v-6.102h1.89v8.694h-1.89M1127.827 108.18a1.18 1.18 0 0 1-1.17-1.17c0-.647.54-1.17 1.17-1.17.648 0 1.17.523 1.17 1.17 0 .65-.522 1.17-1.17 1.17zm-.936 10.027v-8.693h1.89v8.693h-1.89zM1133.84 118.424c-1.46 0-2.233-.793-2.233-2.233v-5.02h-1.44v-1.657h1.44v-2.376h1.89v2.376h1.764v1.656h-1.763v4.553c-.162 1.063 1.152 1.28 1.674.72l.45 1.423c-.34.323-.9.557-1.78.557M1136.43 113.852c0-2.52 1.837-4.555 4.41-4.555 2.755 0 4.43 2.16 4.285 5.185h-6.714c.145 1.313 1.135 2.393 2.773 2.393.846 0 1.854-.34 2.466-.953l.863 1.242c-.864.828-2.142 1.26-3.528 1.26-2.61 0-4.554-1.818-4.554-4.572zm4.41-3.007c-1.62 0-2.357 1.243-2.447 2.305h4.896c-.037-1.027-.74-2.305-2.45-2.305z"/></g><g fill="#FFF"><path d="M1065.844 136.207V124.2h8.226v1.855h-6.12v3.114h5.994v1.853h-5.994v3.33h6.12v1.854h-8.226M1075.636 131.85c0-2.627 1.854-4.553 4.5-4.553 1.692 0 2.718.72 3.33 1.548l-1.242 1.152c-.486-.684-1.152-1.026-1.998-1.026-1.584 0-2.628 1.19-2.628 2.88 0 1.693 1.044 2.9 2.628 2.9.846 0 1.512-.36 1.998-1.027l1.242 1.152c-.612.828-1.638 1.548-3.33 1.548-2.646 0-4.5-1.926-4.5-4.572M1089.046 136.423c-2.754 0-4.464-2.07-4.464-4.572 0-2.483 1.71-4.553 4.464-4.553 2.79 0 4.482 2.07 4.482 4.554 0 2.503-1.692 4.573-4.482 4.573zm0-1.674c1.62 0 2.52-1.35 2.52-2.9 0-1.53-.9-2.88-2.52-2.88-1.602 0-2.502 1.35-2.502 2.88 0 1.55.9 2.9 2.502 2.9zM1106.092 136.208v-5.67c0-.936-.414-1.566-1.422-1.566-.846 0-1.638.594-2.016 1.152v6.084h-1.89v-5.67c0-.936-.414-1.566-1.44-1.566-.828 0-1.602.594-1.998 1.17v6.066h-1.89v-8.694h1.89v1.188c.36-.54 1.512-1.404 2.826-1.404 1.296 0 2.088.648 2.376 1.602.504-.792 1.656-1.602 2.952-1.602 1.602 0 2.502.864 2.502 2.628v6.282h-1.89M1121.086 136.208v-5.67c0-.936-.414-1.566-1.422-1.566-.846 0-1.638.594-2.016 1.152v6.084h-1.89v-5.67c0-.936-.414-1.566-1.44-1.566-.828 0-1.602.594-1.998 1.17v6.066h-1.89v-8.694h1.89v1.188c.36-.54 1.512-1.404 2.826-1.404 1.296 0 2.088.648 2.376 1.602.504-.792 1.656-1.602 2.952-1.602 1.602 0 2.502.864 2.502 2.628v6.282h-1.89M1124.884 131.85c0-2.52 1.836-4.553 4.41-4.553 2.754 0 4.428 2.16 4.284 5.184h-6.714c.144 1.315 1.134 2.395 2.772 2.395.846 0 1.854-.342 2.466-.954l.864 1.243c-.864.828-2.142 1.26-3.528 1.26-2.61 0-4.554-1.818-4.554-4.572zm4.41-3.005c-1.62 0-2.358 1.242-2.448 2.304h4.896c-.036-1.027-.738-2.305-2.448-2.305zM1135.45 136.208v-8.694h1.89v1.278c.648-.828 1.692-1.476 2.826-1.476v1.872c-1.134-.252-2.304.36-2.826 1.098v5.922h-1.89M1141.156 131.85c0-2.627 1.854-4.553 4.5-4.553 1.692 0 2.718.72 3.33 1.548l-1.242 1.152c-.486-.684-1.152-1.026-1.998-1.026-1.584 0-2.628 1.19-2.628 2.88 0 1.693 1.044 2.9 2.628 2.9.846 0 1.512-.36 1.998-1.027l1.242 1.152c-.612.828-1.638 1.548-3.33 1.548-2.646 0-4.5-1.926-4.5-4.572M1150.102 131.85c0-2.52 1.836-4.553 4.41-4.553 2.754 0 4.428 2.16 4.284 5.184h-6.714c.144 1.315 1.134 2.395 2.772 2.395.846 0 1.854-.342 2.466-.954l.864 1.243c-.864.828-2.142 1.26-3.528 1.26-2.61 0-4.554-1.818-4.554-4.572zm4.41-3.005c-1.62 0-2.358 1.242-2.448 2.304h4.896c-.036-1.027-.738-2.305-2.448-2.305z"/></g><path d="M1158.33 269l-36.65-115.45" stroke="#2A3843" stroke-width="4"/><path d="M1160.43 269h-2.1l1.9-.6.2.6zm-40.65-114.84l-.2-.6h2.1l-1.9.6z" fill="#2A3843"/><path d="M1359.6 360c0-2.76 2.24-5 5-5h130.8c2.76 0 5 2.24 5 5v50c0 2.76-2.24 5-5 5h-130.8c-2.76 0-5-2.24-5-5v-50z" fill="#0EB29C"/><g fill="#FFF"><path d="M1378.202 378.778l1.17-1.62c.828.882 2.124 1.656 3.798 1.656 1.728 0 2.412-.846 2.412-1.638 0-1.08-1.278-1.404-2.736-1.782-1.962-.486-4.266-1.062-4.266-3.6 0-1.98 1.746-3.51 4.374-3.51 1.872 0 3.384.594 4.5 1.674l-1.206 1.566c-.936-.936-2.214-1.368-3.474-1.368-1.242 0-2.034.594-2.034 1.494 0 .936 1.224 1.242 2.646 1.602 1.98.504 4.338 1.116 4.338 3.726 0 1.998-1.404 3.708-4.644 3.708-2.214 0-3.816-.774-4.878-1.908M1397.606 383.782h-1.89v-4.518c-.702.936-1.692 1.422-2.79 1.422-2.25 0-3.852-1.71-3.852-4.572s1.602-4.554 3.852-4.554a3.47 3.47 0 0 1 2.79 1.404v-1.188h1.89v12.006zm-1.89-5.94v-3.438c-.414-.648-1.35-1.17-2.232-1.17-1.494 0-2.448 1.206-2.448 2.88 0 1.692.954 2.898 2.448 2.898.882 0 1.818-.54 2.232-1.17zM1405.922 380.47v-1.152a4.167 4.167 0 0 1-3.078 1.368c-1.872 0-2.79-.972-2.79-2.754v-6.156h1.89v5.472c-.126 2.592 3.258 1.908 3.978.63v-6.102h1.89v8.694h-1.89M1415.57 380.47v-.936c-1.638 1.89-5.832 1.53-5.832-1.728 0-3.312 4.212-3.492 5.832-1.71V374.8c0-1.008-.828-1.62-2.034-1.62-.972 0-1.818.36-2.574 1.098l-.774-1.314c1.008-.954 2.268-1.404 3.654-1.404 1.926 0 3.618.81 3.618 3.15v5.76h-1.89zm0-1.98v-1.314c-.81-1.314-3.924-1.242-3.924.666 0 1.89 3.132 1.962 3.924.648zM1419.908 380.47v-8.694h1.89v1.278c.648-.828 1.692-1.476 2.826-1.476v1.872c-1.134-.252-2.304.36-2.826 1.098v5.922h-1.89M1425.614 376.114c0-2.52 1.836-4.554 4.41-4.554 2.754 0 4.428 2.16 4.284 5.184h-6.714c.144 1.314 1.134 2.394 2.772 2.394.846 0 1.854-.342 2.466-.954l.864 1.242c-.864.828-2.142 1.26-3.528 1.26-2.61 0-4.554-1.818-4.554-4.572zm4.41-3.006c-1.62 0-2.358 1.242-2.448 2.304h4.896c-.036-1.026-.738-2.304-2.448-2.304zM1435.424 379.336l.864-1.368c.612.63 1.818 1.224 2.952 1.224s1.71-.414 1.71-1.062c0-.756-.918-1.026-1.98-1.26-1.494-.324-3.276-.72-3.276-2.664 0-1.422 1.224-2.646 3.42-2.646 1.476 0 2.592.522 3.384 1.224l-.792 1.332c-.522-.594-1.494-1.044-2.574-1.044-.99 0-1.62.36-1.62.972 0 .666.864.9 1.89 1.134 1.512.324 3.366.756 3.366 2.808 0 1.53-1.278 2.7-3.618 2.7-1.476 0-2.826-.468-3.726-1.35M1446.566 383.782h-1.89v-12.006h1.89v1.188a3.47 3.47 0 0 1 2.79-1.404c2.25 0 3.852 1.692 3.852 4.554s-1.602 4.572-3.852 4.572c-1.098 0-2.088-.486-2.79-1.422v4.518zm4.68-7.668c0-1.674-.954-2.88-2.448-2.88-.882 0-1.818.522-2.232 1.17v3.438c.414.63 1.35 1.17 2.232 1.17 1.494 0 2.448-1.206 2.448-2.898zM1460.426 380.47v-.936c-1.638 1.89-5.832 1.53-5.832-1.728 0-3.312 4.212-3.492 5.832-1.71V374.8c0-1.008-.828-1.62-2.034-1.62-.972 0-1.818.36-2.574 1.098l-.774-1.314c1.008-.954 2.268-1.404 3.654-1.404 1.926 0 3.618.81 3.618 3.15v5.76h-1.89zm0-1.98v-1.314c-.81-1.314-3.924-1.242-3.924.666 0 1.89 3.132 1.962 3.924.648zM1464.224 376.114c0-2.628 1.854-4.554 4.5-4.554 1.692 0 2.718.72 3.33 1.548l-1.242 1.152c-.486-.684-1.152-1.026-1.998-1.026-1.584 0-2.628 1.188-2.628 2.88s1.044 2.898 2.628 2.898c.846 0 1.512-.36 1.998-1.026l1.242 1.152c-.612.828-1.638 1.548-3.33 1.548-2.646 0-4.5-1.926-4.5-4.572M1473.17 376.114c0-2.52 1.836-4.554 4.41-4.554 2.754 0 4.428 2.16 4.284 5.184h-6.714c.144 1.314 1.134 2.394 2.772 2.394.846 0 1.854-.342 2.466-.954l.864 1.242c-.864.828-2.142 1.26-3.528 1.26-2.61 0-4.554-1.818-4.554-4.572zm4.41-3.006c-1.62 0-2.358 1.242-2.448 2.304h4.896c-.036-1.026-.738-2.304-2.448-2.304z"/></g><g fill="#FFF"><path d="M1393.142 398.686c-3.456 0-6.21-2.52-6.21-6.21s2.754-6.21 6.21-6.21c2.52 0 4.014 1.26 4.914 2.7l-1.8.918c-.576-.99-1.728-1.746-3.114-1.746-2.286 0-4.05 1.818-4.05 4.338s1.764 4.338 4.05 4.338c1.386 0 2.538-.738 3.114-1.746l1.8.918c-.918 1.44-2.394 2.7-4.914 2.7M1403.618 398.686c-2.754 0-4.464-2.07-4.464-4.572 0-2.484 1.71-4.554 4.464-4.554 2.79 0 4.482 2.07 4.482 4.554 0 2.502-1.692 4.572-4.482 4.572zm0-1.674c1.62 0 2.52-1.35 2.52-2.898 0-1.53-.9-2.88-2.52-2.88-1.602 0-2.502 1.35-2.502 2.88 0 1.548.9 2.898 2.502 2.898zM1420.664 398.47v-5.67c0-.936-.414-1.566-1.422-1.566-.846 0-1.638.594-2.016 1.152v6.084h-1.89v-5.67c0-.936-.414-1.566-1.44-1.566-.828 0-1.602.594-1.998 1.17v6.066h-1.89v-8.694h1.89v1.188c.36-.54 1.512-1.404 2.826-1.404 1.296 0 2.088.648 2.376 1.602.504-.792 1.656-1.602 2.952-1.602 1.602 0 2.502.864 2.502 2.628v6.282h-1.89M1435.658 398.47v-5.67c0-.936-.414-1.566-1.422-1.566-.846 0-1.638.594-2.016 1.152v6.084h-1.89v-5.67c0-.936-.414-1.566-1.44-1.566-.828 0-1.602.594-1.998 1.17v6.066h-1.89v-8.694h1.89v1.188c.36-.54 1.512-1.404 2.826-1.404 1.296 0 2.088.648 2.376 1.602.504-.792 1.656-1.602 2.952-1.602 1.602 0 2.502.864 2.502 2.628v6.282h-1.89M1439.456 394.114c0-2.52 1.836-4.554 4.41-4.554 2.754 0 4.428 2.16 4.284 5.184h-6.714c.144 1.314 1.134 2.394 2.772 2.394.846 0 1.854-.342 2.466-.954l.864 1.242c-.864.828-2.142 1.26-3.528 1.26-2.61 0-4.554-1.818-4.554-4.572zm4.41-3.006c-1.62 0-2.358 1.242-2.448 2.304h4.896c-.036-1.026-.738-2.304-2.448-2.304zM1450.022 398.47v-8.694h1.89v1.278c.648-.828 1.692-1.476 2.826-1.476v1.872c-1.134-.252-2.304.36-2.826 1.098v5.922h-1.89M1455.728 394.114c0-2.628 1.854-4.554 4.5-4.554 1.692 0 2.718.72 3.33 1.548l-1.242 1.152c-.486-.684-1.152-1.026-1.998-1.026-1.584 0-2.628 1.188-2.628 2.88s1.044 2.898 2.628 2.898c.846 0 1.512-.36 1.998-1.026l1.242 1.152c-.612.828-1.638 1.548-3.33 1.548-2.646 0-4.5-1.926-4.5-4.572M1464.674 394.114c0-2.52 1.836-4.554 4.41-4.554 2.754 0 4.428 2.16 4.284 5.184h-6.714c.144 1.314 1.134 2.394 2.772 2.394.846 0 1.854-.342 2.466-.954l.864 1.242c-.864.828-2.142 1.26-3.528 1.26-2.61 0-4.554-1.818-4.554-4.572zm4.41-3.006c-1.62 0-2.358 1.242-2.448 2.304h4.896c-.036-1.026-.738-2.304-2.448-2.304z"/></g><path d="M1220.66 309.95l139 49.84" stroke="#2A3843" stroke-width="4"/><path d="M1220 311.84l-2.35-.84h.35l1.58-.25 1.08-.8-.66 1.89zM1359.6 360v1.9l-.6-.23.67-1.88-.07.21z" fill="#2A3843"/><path d="M1150 5c0-2.76 2.24-5 5-5h145.1c2.76 0 5 2.24 5 5v46.1c0 2.76-2.24 5-5 5H1155c-2.76 0-5-2.24-5-5V5z" fill="#0EB29C"/><g fill="#FFF"><path d="M1174.98 32.032V20.027h4.465c3.744 0 6.282 2.483 6.282 6.01 0 3.53-2.538 5.996-6.282 5.996h-4.464zm2.107-1.853l2.358-.002c2.61 0 4.122-1.872 4.122-4.14 0-2.322-1.44-4.158-4.122-4.158h-2.358v8.298zM1187.167 27.676c0-2.52 1.836-4.554 4.41-4.554 2.754 0 4.428 2.16 4.284 5.184h-6.713c.144 1.314 1.134 2.394 2.772 2.394.845 0 1.853-.342 2.465-.954l.864 1.242c-.865.83-2.143 1.26-3.53 1.26-2.61 0-4.553-1.817-4.553-4.57v-.002zm4.41-3.006c-1.62 0-2.358 1.242-2.448 2.304h4.895c-.036-1.026-.738-2.304-2.448-2.304zM1208.39 32.032v-5.67c0-.936-.415-1.566-1.423-1.566-.846 0-1.638.594-2.016 1.152v6.084h-1.89v-5.67c0-.936-.413-1.566-1.44-1.566-.827 0-1.6.594-1.997 1.17v6.066h-1.89V23.34l1.89-.002v1.188c.36-.54 1.512-1.404 2.826-1.404 1.295 0 2.087.648 2.375 1.602.504-.792 1.656-1.602 2.952-1.602 1.602 0 2.502.864 2.502 2.628v6.282h-1.89M1218.037 32.032v-.935c-1.638 1.89-5.832 1.53-5.832-1.73 0-3.31 4.212-3.49 5.832-1.71v-1.295c0-1.008-.828-1.62-2.034-1.62-.972 0-1.818.36-2.574 1.098l-.775-1.314c1.008-.954 2.268-1.404 3.654-1.404 1.925 0 3.617.81 3.617 3.15v5.76h-1.89zm0-1.98v-1.314c-.81-1.314-3.924-1.242-3.924.666 0 1.89 3.132 1.962 3.924.648zM1228.243 32.032v-5.435c0-1.35-.684-1.8-1.746-1.8-.972 0-1.8.575-2.232 1.17v6.065h-1.89V23.34l1.89-.002v1.188a4.113 4.113 0 0 1 3.06-1.404c1.872 0 2.808 1.008 2.808 2.79v6.12h-1.89M1238.7 32.032v-1.187c-.665.863-1.673 1.403-2.79 1.403-2.23 0-3.87-1.692-3.87-4.554 0-2.808 1.62-4.572 3.87-4.572 1.08 0 2.09.504 2.79 1.422v-4.518h1.89v12.006h-1.89zm0-2.61v-3.456c-.43-.648-1.35-1.17-2.25-1.17-1.493 0-2.447 1.206-2.447 2.898 0 1.674.954 2.88 2.448 2.88.9 0 1.82-.504 2.25-1.152zM1250.617 32.032l-2.016-6.37-2.015 6.37h-1.98l-2.7-8.693 1.962-.002 1.836 6.318 2.07-6.318h1.656l2.07 6.318 1.835-6.318h1.962l-2.7 8.694h-1.98M1261.92 32.032v-.935c-1.637 1.89-5.83 1.53-5.83-1.73 0-3.31 4.21-3.49 5.83-1.71v-1.295c0-1.008-.827-1.62-2.033-1.62-.972 0-1.818.36-2.574 1.098l-.774-1.314c1.007-.954 2.267-1.404 3.653-1.404 1.926 0 3.618.81 3.618 3.15v5.76h-1.89zm0-1.98v-1.314c-.81-1.314-3.923-1.242-3.923.666 0 1.89 3.132 1.962 3.924.648zM1266.26 32.032V23.34l1.89-.002v1.278c.647-.828 1.69-1.476 2.825-1.476v1.872c-1.134-.252-2.304.36-2.826 1.098v5.922h-1.89M1271.965 27.676c0-2.52 1.836-4.554 4.41-4.554 2.754 0 4.428 2.16 4.284 5.184h-6.715c.144 1.314 1.134 2.394 2.772 2.394.846 0 1.854-.342 2.466-.954l.864 1.242c-.864.83-2.142 1.26-3.528 1.26-2.61 0-4.555-1.817-4.555-4.57v-.002zm4.41-3.006c-1.62 0-2.358 1.242-2.448 2.304h4.896c-.036-1.026-.738-2.304-2.448-2.304z"/></g><path d="M1170 269l50.85-212.9" stroke="#2A3843" stroke-width="4"/><path d="M1170 269h-2.04l.1-.46 1.94.46zm52.8-212.44l-1.95-.46h2.06l-.11.46z" fill="#2A3843"/><path d="M1070 450c0-2.76 2.24-5 5-5h144c2.76 0 5 2.24 5 5v51.6c0 2.76-2.24 5-5 5h-144c-2.76 0-5-2.24-5-5V450z" fill="#0EB29C"/><g fill="#FFF"><path d="M1091.15 482.47v-12.006h5.905c2.196 0 3.42 1.368 3.42 3.06 0 1.512-.972 2.52-2.088 2.754 1.278.198 2.322 1.476 2.322 2.952 0 1.854-1.243 3.24-3.493 3.24h-6.066zm2.107-7.038h3.366c1.08 0 1.692-.648 1.692-1.548s-.612-1.566-1.692-1.566h-3.366v3.114zm0 5.184h3.456c1.152 0 1.836-.63 1.836-1.674 0-.9-.63-1.656-1.837-1.656h-3.456v3.33zM1103.697 472.444a1.18 1.18 0 0 1-1.17-1.17c0-.648.54-1.17 1.17-1.17.648 0 1.17.522 1.17 1.17 0 .648-.522 1.17-1.17 1.17zm-.936 10.026v-8.694h1.89v8.694h-1.89zM1106.99 484.702l.883-1.368c1.386 1.62 5.238 1.8 5.328-1.242v-1.044c-.665.864-1.655 1.44-2.79 1.44-2.213 0-3.85-1.602-3.85-4.464 0-2.808 1.62-4.464 3.85-4.464 1.1 0 2.09.504 2.79 1.422v-1.206h1.89v8.244c0 3.132-2.32 3.978-4.463 3.978-1.476 0-2.574-.324-3.636-1.296zm6.21-5.058v-3.24c-.413-.648-1.35-1.17-2.23-1.17-1.495 0-2.45 1.116-2.45 2.79s.955 2.79 2.45 2.79c.88 0 1.817-.522 2.23-1.17zM1123.263 482.686c-3.456 0-6.21-2.52-6.21-6.21s2.754-6.21 6.21-6.21c2.52 0 4.014 1.26 4.914 2.7l-1.8.918c-.576-.99-1.728-1.746-3.114-1.746-2.286 0-4.05 1.818-4.05 4.338s1.764 4.338 4.05 4.338c1.386 0 2.538-.738 3.114-1.746l1.8.918c-.918 1.44-2.394 2.7-4.914 2.7M1133.74 482.686c-2.755 0-4.465-2.07-4.465-4.572 0-2.484 1.71-4.554 4.464-4.554 2.79 0 4.48 2.07 4.48 4.554 0 2.502-1.69 4.572-4.48 4.572zm0-1.674c1.62 0 2.52-1.35 2.52-2.898 0-1.53-.9-2.88-2.52-2.88-1.603 0-2.503 1.35-2.503 2.88 0 1.548.9 2.898 2.502 2.898zM1150.785 482.47v-5.67c0-.936-.414-1.566-1.422-1.566-.846 0-1.638.594-2.016 1.152v6.084h-1.89v-5.67c0-.936-.414-1.566-1.44-1.566-.828 0-1.602.594-1.998 1.17v6.066h-1.89v-8.694h1.89v1.188c.36-.54 1.51-1.404 2.825-1.404 1.296 0 2.088.648 2.376 1.602.505-.792 1.657-1.602 2.953-1.602 1.602 0 2.502.864 2.502 2.628v6.282h-1.89M1165.78 482.47v-5.67c0-.936-.415-1.566-1.423-1.566-.846 0-1.638.594-2.016 1.152v6.084h-1.89v-5.67c0-.936-.413-1.566-1.44-1.566-.827 0-1.6.594-1.997 1.17v6.066h-1.89v-8.694h1.89v1.188c.36-.54 1.512-1.404 2.826-1.404 1.295 0 2.087.648 2.375 1.602.504-.792 1.656-1.602 2.952-1.602 1.602 0 2.502.864 2.502 2.628v6.282h-1.89M1169.577 478.114c0-2.52 1.836-4.554 4.41-4.554 2.754 0 4.428 2.16 4.284 5.184h-6.713c.144 1.314 1.134 2.394 2.772 2.394.845 0 1.853-.342 2.465-.954l.864 1.242c-.865.828-2.143 1.26-3.53 1.26-2.61 0-4.553-1.818-4.553-4.572zm4.41-3.006c-1.62 0-2.358 1.242-2.448 2.304h4.895c-.036-1.026-.738-2.304-2.448-2.304zM1180.143 482.47v-8.694h1.89v1.278c.648-.828 1.692-1.476 2.826-1.476v1.872c-1.135-.252-2.305.36-2.827 1.098v5.922h-1.89M1185.85 478.114c0-2.628 1.853-4.554 4.5-4.554 1.69 0 2.717.72 3.33 1.548l-1.243 1.152c-.486-.684-1.152-1.026-1.998-1.026-1.585 0-2.63 1.188-2.63 2.88s1.045 2.898 2.63 2.898c.845 0 1.51-.36 1.997-1.026l1.242 1.152c-.613.828-1.64 1.548-3.33 1.548-2.647 0-4.5-1.926-4.5-4.572M1194.795 478.114c0-2.52 1.836-4.554 4.41-4.554 2.754 0 4.428 2.16 4.284 5.184h-6.715c.144 1.314 1.134 2.394 2.772 2.394.846 0 1.854-.342 2.466-.954l.864 1.242c-.864.828-2.142 1.26-3.528 1.26-2.61 0-4.555-1.818-4.555-4.572zm4.41-3.006c-1.62 0-2.358 1.242-2.448 2.304h4.896c-.036-1.026-.738-2.304-2.448-2.304z"/></g><path d="M1162.97 311l-13 134" stroke="#2A3843" stroke-width="4"/><path d="M1164.96 311.2l-2-.2h2v.2zM1149.98 445h-2v-.2l2 .2z" fill="#2A3843"/><path d="M1405 210c0-2.76 2.24-5 5-5h106c2.76 0 5 2.24 5 5v32c0 2.76-2.24 5-5 5h-106c-2.76 0-5-2.24-5-5v-32z" fill="#0EB29C"/><g fill="#FFF"><path d="M1433.206 230.653l1.17-1.62c.828.882 2.124 1.656 3.798 1.656 1.728 0 2.412-.847 2.412-1.64 0-1.08-1.278-1.403-2.736-1.78-1.962-.487-4.266-1.063-4.266-3.6 0-1.98 1.746-3.51 4.374-3.51 1.872 0 3.384.593 4.5 1.673l-1.206 1.566c-.936-.937-2.214-1.37-3.474-1.37-1.242 0-2.034.595-2.034 1.495 0 .936 1.224 1.242 2.646 1.602 1.98.504 4.338 1.116 4.338 3.726 0 1.998-1.404 3.708-4.644 3.708-2.214 0-3.816-.773-4.878-1.907M1450.504 232.345v-5.472c0-1.35-.702-1.764-1.764-1.764-.954 0-1.782.575-2.232 1.17v6.065h-1.89V220.34h1.89v4.5c.576-.685 1.71-1.405 3.078-1.405 1.872 0 2.808.972 2.808 2.754v6.155h-1.89M1458.766 232.56c-2.754 0-4.464-2.07-4.464-4.57 0-2.485 1.71-4.555 4.464-4.555 2.79 0 4.482 2.07 4.482 4.554 0 2.5-1.692 4.57-4.482 4.57zm0-1.673c1.62 0 2.52-1.35 2.52-2.898 0-1.53-.9-2.88-2.52-2.88-1.602 0-2.502 1.35-2.502 2.88 0 1.547.9 2.897 2.502 2.897zM1467.046 235.657h-1.89V223.65h1.89v1.19a3.47 3.47 0 0 1 2.79-1.405c2.25 0 3.852 1.692 3.852 4.554 0 2.86-1.602 4.57-3.852 4.57-1.098 0-2.088-.485-2.79-1.42v4.517zm4.68-7.668c0-1.675-.954-2.88-2.448-2.88-.882 0-1.818.52-2.232 1.17v3.437c.414.63 1.35 1.17 2.232 1.17 1.494 0 2.448-1.206 2.448-2.898zM1476.532 222.32a1.18 1.18 0 0 1-1.17-1.17c0-.65.54-1.17 1.17-1.17.648 0 1.17.52 1.17 1.17 0 .647-.522 1.17-1.17 1.17zm-.936 10.025v-8.694h1.89v8.695h-1.89zM1480.384 232.345v-7.038h-1.44v-1.656h1.44c-.306-2.86 1.962-4.175 4.266-3.15l-.414 1.387c-1.152-.558-2.196.162-1.962 1.764h1.764v1.657h-1.764v7.038h-1.89"/><path d="M1485.388 234.055c.81.288 1.62.18 1.962-.612l.432-.99-3.564-8.802h2.016l2.538 6.517 2.538-6.516h2.034l-4.194 10.26c-.756 1.8-2.124 2.18-4.05 1.837"/></g><path d="M1223 277.54l182-39.08" stroke="#2A3843" stroke-width="4"/><path d="M1223.42 279.5l-.42.1v-2.06l.42 1.96zM1405 238.46l-.42-1.96.42-.1v2.06z" fill="#2A3843"/><path d="M1205 525c0-2.76 2.24-5 5-5h166c2.76 0 5 2.24 5 5v46.1c0 2.76-2.24 5-5 5h-166c-2.76 0-5-2.24-5-5V525z" fill="#0EB29C"/><g fill="#FFF"><path d="M1231.292 547.677c0-2.52 1.836-4.554 4.41-4.554 2.754 0 4.428 2.16 4.284 5.184h-6.714c.144 1.314 1.134 2.394 2.772 2.394.846 0 1.854-.342 2.466-.954l.864 1.243c-.864.827-2.142 1.26-3.528 1.26-2.61 0-4.554-1.82-4.554-4.573zm4.41-3.006c-1.62 0-2.358 1.243-2.448 2.305h4.896c-.036-1.026-.738-2.304-2.448-2.304zM1247.618 552.033l-2.664-3.582-1.206 1.242v2.34h-1.89v-12.006h1.89v7.507l3.834-4.194h2.34l-3.618 3.94 3.69 4.753h-2.376M1261.982 552.033v-5.67c0-.936-.414-1.566-1.422-1.566-.846 0-1.638.594-2.016 1.152v6.083h-1.89v-5.67c0-.936-.414-1.566-1.44-1.566-.828 0-1.602.594-1.998 1.17v6.066h-1.89v-8.694h1.89v1.187c.36-.54 1.512-1.404 2.826-1.404 1.296 0 2.088.648 2.376 1.602.504-.792 1.656-1.602 2.952-1.602 1.602 0 2.502.864 2.502 2.628v6.283h-1.89M1266.374 552.033v-12.006h5.274c2.52 0 3.924 1.728 3.924 3.762 0 2.033-1.422 3.76-3.924 3.76h-3.168v4.482h-2.106zm7.038-8.244c0-1.153-.864-1.91-2.052-1.91h-2.88v3.816h2.88c1.188 0 2.052-.756 2.052-1.908zM1280.918 552.25c-2.754 0-4.464-2.07-4.464-4.573 0-2.484 1.71-4.554 4.464-4.554 2.79 0 4.482 2.07 4.482 4.554 0 2.502-1.692 4.572-4.482 4.572zm0-1.675c1.62 0 2.52-1.35 2.52-2.898 0-1.53-.9-2.88-2.52-2.88-1.602 0-2.502 1.35-2.502 2.88 0 1.548.9 2.898 2.502 2.898zM1294.886 552.033l-2.016-6.372-2.016 6.373h-1.98l-2.7-8.694h1.962l1.836 6.317 2.07-6.318h1.656l2.07 6.317 1.836-6.318h1.962l-2.7 8.693h-1.98M1300.34 547.677c0-2.52 1.836-4.554 4.41-4.554 2.754 0 4.428 2.16 4.284 5.184h-6.714c.144 1.314 1.134 2.394 2.772 2.394.846 0 1.854-.342 2.466-.954l.864 1.243c-.864.827-2.142 1.26-3.528 1.26-2.61 0-4.554-1.82-4.554-4.573zm4.41-3.006c-1.62 0-2.358 1.243-2.448 2.305h4.896c-.036-1.026-.738-2.304-2.448-2.304zM1310.906 552.033v-8.694h1.89v1.277c.648-.828 1.692-1.476 2.826-1.476v1.873c-1.134-.252-2.304.36-2.826 1.098v5.922h-1.89M1316.396 550.9l.864-1.37c.612.63 1.818 1.224 2.952 1.224s1.71-.414 1.71-1.062c0-.756-.918-1.026-1.98-1.26-1.494-.324-3.276-.72-3.276-2.664 0-1.422 1.224-2.646 3.42-2.646 1.476 0 2.592.523 3.384 1.225l-.792 1.332c-.522-.595-1.494-1.045-2.574-1.045-.99 0-1.62.36-1.62.972 0 .666.864.9 1.89 1.134 1.512.325 3.366.757 3.366 2.81 0 1.53-1.278 2.7-3.618 2.7-1.476 0-2.826-.47-3.726-1.35M1331.534 552.033v-5.472c0-1.35-.702-1.763-1.764-1.763-.954 0-1.782.576-2.232 1.17v6.066h-1.89v-12.006h1.89v4.5c.576-.684 1.71-1.404 3.078-1.404 1.872 0 2.808.972 2.808 2.754v6.156h-1.89M1339.796 552.25c-2.754 0-4.464-2.07-4.464-4.573 0-2.484 1.71-4.554 4.464-4.554 2.79 0 4.482 2.07 4.482 4.554 0 2.502-1.692 4.572-4.482 4.572zm0-1.675c1.62 0 2.52-1.35 2.52-2.898 0-1.53-.9-2.88-2.52-2.88-1.602 0-2.502 1.35-2.502 2.88 0 1.548.9 2.898 2.502 2.898zM1348.076 555.345h-1.89V543.34h1.89v1.187a3.47 3.47 0 0 1 2.79-1.404c2.25 0 3.852 1.692 3.852 4.554s-1.602 4.572-3.852 4.572c-1.098 0-2.088-.487-2.79-1.423v4.518zm4.68-7.668c0-1.674-.954-2.88-2.448-2.88-.882 0-1.818.522-2.232 1.17v3.438c.414.63 1.35 1.17 2.232 1.17 1.494 0 2.448-1.207 2.448-2.9z"/></g><path d="M1175.42 311l103.67 209" stroke="#2A3843" stroke-width="4"/><path d="M1173.62 311.9l-.44-.9h2.24l-1.8.9zm107.7 208.1h-2.23l1.78-.9.45.9z" fill="#2A3843"/><path d="M1270 72.35c0-2.76 2.24-5 5-5h144c2.76 0 5 2.24 5 5v46c0 2.76-2.24 5-5 5h-144c-2.76 0-5-2.24-5-5v-46z" fill="#0EB29C"/><g fill="#FFF"><path d="M1321.256 86.076c0-3.582 2.538-6.21 6.138-6.21s6.138 2.628 6.138 6.21-2.538 6.21-6.138 6.21-6.138-2.628-6.138-6.21zm10.116 0c0-2.484-1.566-4.338-3.978-4.338-2.43 0-3.978 1.854-3.978 4.338 0 2.466 1.548 4.338 3.978 4.338 2.412 0 3.978-1.872 3.978-4.338zM1335.512 92.07v-8.694h1.89v1.278c.648-.828 1.692-1.476 2.826-1.476v1.872c-1.134-.252-2.304.36-2.826 1.098v5.922h-1.89M1347.068 92.07v-.936c-1.638 1.89-5.832 1.53-5.832-1.728 0-3.312 4.212-3.492 5.832-1.71V86.4c0-1.008-.828-1.62-2.034-1.62-.972 0-1.818.36-2.574 1.098l-.774-1.314c1.008-.954 2.268-1.404 3.654-1.404 1.926 0 3.618.81 3.618 3.15v5.76h-1.89zm0-1.98v-1.314c-.81-1.314-3.924-1.242-3.924.666 0 1.89 3.132 1.962 3.924.648zM1350.866 87.714c0-2.628 1.854-4.554 4.5-4.554 1.692 0 2.718.72 3.33 1.548l-1.242 1.152c-.486-.684-1.152-1.026-1.998-1.026-1.584 0-2.628 1.188-2.628 2.88s1.044 2.898 2.628 2.898c.846 0 1.512-.36 1.998-1.026l1.242 1.152c-.612.828-1.638 1.548-3.33 1.548-2.646 0-4.5-1.926-4.5-4.572M1360.352 92.07V80.064h1.89V92.07h-1.89M1364.15 87.714c0-2.52 1.836-4.554 4.41-4.554 2.754 0 4.428 2.16 4.284 5.184h-6.714c.144 1.314 1.134 2.394 2.772 2.394.846 0 1.854-.342 2.466-.954l.864 1.242c-.864.828-2.142 1.26-3.528 1.26-2.61 0-4.554-1.818-4.554-4.572zm4.41-3.006c-1.62 0-2.358 1.242-2.448 2.304h4.896c-.036-1.026-.738-2.304-2.448-2.304z"/></g><g fill="#FFF"><path d="M1310.042 110.286c-3.456 0-6.21-2.52-6.21-6.21s2.754-6.21 6.21-6.21c2.52 0 4.014 1.26 4.914 2.7l-1.8.918c-.576-.99-1.728-1.746-3.114-1.746-2.286 0-4.05 1.818-4.05 4.338s1.764 4.338 4.05 4.338c1.386 0 2.538-.738 3.114-1.746l1.8.918c-.918 1.44-2.394 2.7-4.914 2.7M1320.518 110.286c-2.754 0-4.464-2.07-4.464-4.572 0-2.484 1.71-4.554 4.464-4.554 2.79 0 4.482 2.07 4.482 4.554 0 2.502-1.692 4.572-4.482 4.572zm0-1.674c1.62 0 2.52-1.35 2.52-2.898 0-1.53-.9-2.88-2.52-2.88-1.602 0-2.502 1.35-2.502 2.88 0 1.548.9 2.898 2.502 2.898zM1337.564 110.07v-5.67c0-.936-.414-1.566-1.422-1.566-.846 0-1.638.594-2.016 1.152v6.084h-1.89v-5.67c0-.936-.414-1.566-1.44-1.566-.828 0-1.602.594-1.998 1.17v6.066h-1.89v-8.694h1.89v1.188c.36-.54 1.512-1.404 2.826-1.404 1.296 0 2.088.648 2.376 1.602.504-.792 1.656-1.602 2.952-1.602 1.602 0 2.502.864 2.502 2.628v6.282h-1.89M1352.558 110.07v-5.67c0-.936-.414-1.566-1.422-1.566-.846 0-1.638.594-2.016 1.152v6.084h-1.89v-5.67c0-.936-.414-1.566-1.44-1.566-.828 0-1.602.594-1.998 1.17v6.066h-1.89v-8.694h1.89v1.188c.36-.54 1.512-1.404 2.826-1.404 1.296 0 2.088.648 2.376 1.602.504-.792 1.656-1.602 2.952-1.602 1.602 0 2.502.864 2.502 2.628v6.282h-1.89M1356.356 105.714c0-2.52 1.836-4.554 4.41-4.554 2.754 0 4.428 2.16 4.284 5.184h-6.714c.144 1.314 1.134 2.394 2.772 2.394.846 0 1.854-.342 2.466-.954l.864 1.242c-.864.828-2.142 1.26-3.528 1.26-2.61 0-4.554-1.818-4.554-4.572zm4.41-3.006c-1.62 0-2.358 1.242-2.448 2.304h4.896c-.036-1.026-.738-2.304-2.448-2.304zM1366.922 110.07v-8.694h1.89v1.278c.648-.828 1.692-1.476 2.826-1.476v1.872c-1.134-.252-2.304.36-2.826 1.098v5.922h-1.89M1372.628 105.714c0-2.628 1.854-4.554 4.5-4.554 1.692 0 2.718.72 3.33 1.548l-1.242 1.152c-.486-.684-1.152-1.026-1.998-1.026-1.584 0-2.628 1.188-2.628 2.88s1.044 2.898 2.628 2.898c.846 0 1.512-.36 1.998-1.026l1.242 1.152c-.612.828-1.638 1.548-3.33 1.548-2.646 0-4.5-1.926-4.5-4.572M1381.574 105.714c0-2.52 1.836-4.554 4.41-4.554 2.754 0 4.428 2.16 4.284 5.184h-6.714c.144 1.314 1.134 2.394 2.772 2.394.846 0 1.854-.342 2.466-.954l.864 1.242c-.864.828-2.142 1.26-3.528 1.26-2.61 0-4.554-1.818-4.554-4.572zm4.41-3.006c-1.62 0-2.358 1.242-2.448 2.304h4.896c-.036-1.026-.738-2.304-2.448-2.304z"/></g><path d="M1184.64 269l136.18-145.65" stroke="#2A3843" stroke-width="4"/><path d="M1184.64 269h-2.74l1.27-1.37 1.47 1.37zm137.64-144.28l-1.46-1.37h2.74l-1.28 1.37z" fill="#2A3843"/><path d="M1380 282.75c0-2.76 2.24-5 5-5h130.8c2.76 0 5 2.24 5 5v40.6c0 2.76-2.24 5-5 5H1385c-2.76 0-5-2.24-5-5v-40.6z" fill="#0EB29C"/><g fill="#FFF"><path d="M1402.77 307.908v-9.09l-3.69 9.09h-.9l-3.673-9.09v9.09h-2.106v-12.006h2.97l3.26 8.082 3.275-8.082h2.97v12.006h-2.106M1408.313 297.882a1.18 1.18 0 0 1-1.17-1.17c0-.648.54-1.17 1.17-1.17.648 0 1.17.522 1.17 1.17 0 .648-.522 1.17-1.17 1.17zm-.936 10.026v-8.694h1.89v8.694h-1.89zM1414 307.908l-3.545-8.694h2.016l2.54 6.516 2.537-6.516h2.034l-3.545 8.694H1414M1426.08 307.908v-.936c-1.64 1.89-5.833 1.53-5.833-1.728 0-3.312 4.212-3.492 5.832-1.71v-1.296c0-1.008-.83-1.62-2.035-1.62-.972 0-1.818.36-2.574 1.098l-.773-1.314c1.008-.954 2.268-1.404 3.654-1.404 1.927 0 3.62.81 3.62 3.15v5.76h-1.89zm0-1.98v-1.314c-.81-1.314-3.925-1.242-3.925.666 0 1.89 3.132 1.962 3.924.648z"/></g><g fill="#FFF"><path d="M1445.465 307.908v-9.09l-3.69 9.09h-.9l-3.672-9.09v9.09h-2.106v-12.006h2.97l3.258 8.082 3.276-8.082h2.97v12.006h-2.105M1449.533 303.55c0-2.52 1.836-4.553 4.41-4.553 2.754 0 4.428 2.16 4.284 5.184l-6.714.002c.144 1.314 1.134 2.394 2.772 2.394.846 0 1.854-.342 2.466-.954l.865 1.242c-.864.828-2.142 1.26-3.528 1.26-2.61 0-4.554-1.818-4.554-4.572zm4.41-3.005c-1.62 0-2.358 1.242-2.448 2.304h4.896c-.035-1.027-.737-2.305-2.447-2.305zM1460.1 307.908v-8.694h1.89v1.278c.647-.828 1.69-1.476 2.825-1.476v1.872c-1.134-.252-2.304.36-2.826 1.098v5.922h-1.89M1465.805 303.55c0-2.627 1.854-4.553 4.5-4.553 1.692 0 2.718.72 3.33 1.548l-1.242 1.152c-.486-.684-1.152-1.026-1.998-1.026-1.584 0-2.628 1.19-2.628 2.88 0 1.693 1.044 2.9 2.628 2.9.846 0 1.512-.36 1.998-1.026l1.242 1.152c-.612.827-1.638 1.547-3.33 1.547-2.646 0-4.5-1.926-4.5-4.572M1481.177 307.908v-5.472c0-1.35-.702-1.764-1.764-1.764-.954 0-1.782.576-2.232 1.17v6.066h-1.89v-12.006h1.89v4.5c.577-.684 1.71-1.404 3.08-1.404 1.87 0 2.807.972 2.807 2.754v6.156h-1.89M1490.825 307.908v-.936c-1.638 1.89-5.832 1.53-5.832-1.728 0-3.312 4.212-3.492 5.832-1.71v-1.296c0-1.008-.828-1.62-2.034-1.62-.97 0-1.817.36-2.573 1.098l-.774-1.314c1.008-.954 2.268-1.404 3.654-1.404 1.926 0 3.618.81 3.618 3.15v5.76h-1.89zm0-1.98v-1.314c-.81-1.314-3.924-1.242-3.924.666 0 1.89 3.133 1.962 3.925.648zM1501.03 307.908v-5.436c0-1.35-.683-1.8-1.745-1.8-.972 0-1.8.576-2.232 1.17v6.066h-1.89v-8.694h1.89v1.188a4.113 4.113 0 0 1 3.06-1.404c1.872 0 2.808 1.008 2.808 2.79v6.12h-1.89M1507.98 308.124c-1.46 0-2.233-.792-2.233-2.232v-5.022h-1.44v-1.656h1.44v-2.376h1.89v2.376h1.764v1.656h-1.763v4.554c-.162 1.062 1.152 1.278 1.674.72l.45 1.422c-.34.324-.9.558-1.78.558"/></g><path d="M1223 292.65l157 7.18" stroke="#2A3843" stroke-width="4"/><path d="M1223.1 290.65l-.1 2v-2h.1zm156.9 11.18h-.1l.1-2v2z" fill="#2A3843"/><path d="M1285 435c0-2.76 2.24-5 5-5h133c2.76 0 5 2.24 5 5v55.02c0 2.77-2.24 5-5 5h-133c-2.76 0-5-2.23-5-5V435z" fill="#0EB29C"/><g fill="#FFF"><path d="M1293.757 452.663c0-3.762 2.826-6.21 6.3-6.21 2.34 0 3.87 1.117 4.842 2.503l-1.73.972a3.823 3.823 0 0 0-3.113-1.602c-2.376 0-4.14 1.818-4.14 4.338s1.764 4.356 4.14 4.356c1.224 0 2.304-.576 2.844-1.08v-1.872h-3.58v-1.854h5.687v4.5c-1.188 1.314-2.862 2.178-4.95 2.178-3.474 0-6.3-2.466-6.3-6.228M1311.073 458.873c-2.754 0-4.464-2.07-4.464-4.572 0-2.483 1.71-4.553 4.463-4.553 2.79 0 4.482 2.07 4.482 4.554 0 2.503-1.692 4.573-4.482 4.573zm0-1.674c1.62 0 2.52-1.35 2.52-2.898 0-1.53-.9-2.88-2.52-2.88-1.602 0-2.502 1.35-2.502 2.88 0 1.547.9 2.897 2.503 2.897zM1317.517 458.658v-12.006h4.464c3.745 0 6.283 2.484 6.283 6.012 0 3.528-2.538 5.994-6.282 5.994h-4.463zm2.106-1.854h2.358c2.61 0 4.123-1.872 4.123-4.14 0-2.322-1.44-4.158-4.122-4.158h-2.357v8.298zM1335.553 458.658v-.936c-1.638 1.89-5.832 1.53-5.832-1.728 0-3.312 4.213-3.492 5.833-1.71v-1.296c0-1.008-.828-1.62-2.034-1.62-.973 0-1.82.36-2.575 1.098l-.774-1.314c1.01-.954 2.27-1.404 3.655-1.404 1.926 0 3.618.81 3.618 3.15v5.76h-1.89zm0-1.98v-1.314c-.81-1.314-3.924-1.242-3.924.666 0 1.89 3.13 1.962 3.923.648zM1346.01 458.658v-1.188c-.665.864-1.673 1.404-2.79 1.404-2.23 0-3.87-1.692-3.87-4.554 0-2.808 1.62-4.572 3.87-4.572 1.08 0 2.09.504 2.79 1.422v-4.518h1.89v12.006h-1.89zm0-2.61v-3.456c-.43-.648-1.35-1.17-2.25-1.17-1.493 0-2.447 1.205-2.447 2.897 0 1.674.954 2.88 2.448 2.88.9 0 1.82-.504 2.25-1.152zM1356.47 458.658v-1.188c-.667.864-1.675 1.404-2.79 1.404-2.233 0-3.87-1.692-3.87-4.554 0-2.808 1.62-4.572 3.87-4.572 1.08 0 2.087.504 2.79 1.422v-4.518h1.89v12.006h-1.89zm0-2.61v-3.456c-.433-.648-1.35-1.17-2.25-1.17-1.495 0-2.45 1.205-2.45 2.897 0 1.674.955 2.88 2.45 2.88.9 0 1.817-.504 2.25-1.152zM1360.717 460.368c.81.288 1.62.18 1.962-.612l.43-.99-3.563-8.803h2.016l2.538 6.516 2.54-6.517h2.033l-4.194 10.26c-.757 1.8-2.125 2.178-4.05 1.836"/></g><g fill="#FFF"><path d="M1386.277 452.663c0 1.728-.594 3.222-1.602 4.32l.99 1.116-1.458 1.223-1.044-1.17c-.864.468-1.89.72-3.024.72-3.6 0-6.14-2.628-6.14-6.21s2.54-6.21 6.14-6.21c3.6 0 6.137 2.63 6.137 6.21zm-10.116 0c0 3.096 2.72 5.22 5.69 3.978l-1.495-1.69 1.458-1.206 1.494 1.673c.522-.738.81-1.692.81-2.754 0-2.484-1.566-4.338-3.978-4.338-2.43 0-3.98 1.854-3.98 4.338zM1394.125 458.658v-1.152a4.167 4.167 0 0 1-3.078 1.368c-1.872 0-2.79-.972-2.79-2.754v-6.156h1.89v5.472c-.126 2.592 3.258 1.908 3.978.63v-6.102h1.89v8.694h-1.89M1399.4 448.632a1.18 1.18 0 0 1-1.17-1.17c0-.648.54-1.17 1.17-1.17.647 0 1.17.522 1.17 1.17 0 .648-.523 1.17-1.17 1.17zm-.937 10.026v-8.694h1.89v8.694h-1.89zM1402.26 454.3c0-2.627 1.855-4.553 4.5-4.553 1.693 0 2.72.72 3.33 1.548l-1.24 1.152c-.487-.684-1.153-1.026-2-1.026-1.583 0-2.627 1.19-2.627 2.88 0 1.693 1.044 2.9 2.628 2.9.847 0 1.513-.36 2-1.026l1.24 1.152c-.61.827-1.637 1.547-3.33 1.547-2.645 0-4.5-1.926-4.5-4.572M1417.507 458.658l-2.664-3.582-1.206 1.242v2.34h-1.89v-12.006h1.89v7.506l3.834-4.194h2.34l-3.617 3.942 3.69 4.752h-2.376"/></g><g fill="#FFF"><path d="M1299.193 474.966l1.17-1.62c.828.882 2.124 1.656 3.798 1.656 1.73 0 2.413-.846 2.413-1.638 0-1.08-1.278-1.404-2.736-1.782-1.962-.486-4.266-1.062-4.266-3.6 0-1.98 1.747-3.51 4.375-3.51 1.872 0 3.384.594 4.5 1.674l-1.206 1.566c-.937-.936-2.215-1.368-3.475-1.368-1.242 0-2.034.594-2.034 1.494 0 .936 1.225 1.242 2.647 1.602 1.98.504 4.338 1.116 4.338 3.726 0 1.998-1.404 3.708-4.644 3.708-2.213 0-3.815-.774-4.877-1.908M1316.49 476.658v-5.472c0-1.35-.7-1.764-1.763-1.764-.954 0-1.782.576-2.232 1.17v6.066h-1.89v-12.006h1.89v4.5c.576-.684 1.71-1.404 3.078-1.404 1.872 0 2.808.972 2.808 2.754v6.156h-1.89M1324.753 476.873c-2.754 0-4.464-2.07-4.464-4.572 0-2.483 1.71-4.553 4.463-4.553 2.79 0 4.482 2.07 4.482 4.554 0 2.503-1.692 4.573-4.482 4.573zm0-1.674c1.62 0 2.52-1.35 2.52-2.898 0-1.53-.9-2.88-2.52-2.88-1.602 0-2.502 1.35-2.502 2.88 0 1.547.9 2.897 2.503 2.897zM1333.033 479.97h-1.89v-12.007h1.89v1.188a3.47 3.47 0 0 1 2.79-1.403c2.25 0 3.852 1.692 3.852 4.554 0 2.863-1.602 4.573-3.852 4.573-1.098 0-2.088-.486-2.79-1.422v4.52zm4.68-7.67c0-1.673-.954-2.88-2.448-2.88-.882 0-1.818.523-2.232 1.17v3.44c.414.63 1.35 1.17 2.232 1.17 1.494 0 2.448-1.206 2.448-2.898zM1343.473 479.97h-1.89v-12.007h1.89v1.188a3.47 3.47 0 0 1 2.79-1.403c2.25 0 3.852 1.692 3.852 4.554 0 2.863-1.602 4.573-3.852 4.573-1.098 0-2.088-.486-2.79-1.422v4.52zm4.68-7.67c0-1.673-.954-2.88-2.448-2.88-.882 0-1.818.523-2.232 1.17v3.44c.414.63 1.35 1.17 2.232 1.17 1.494 0 2.448-1.206 2.448-2.898zM1352.96 466.632a1.18 1.18 0 0 1-1.17-1.17c0-.648.54-1.17 1.17-1.17.647 0 1.17.522 1.17 1.17 0 .648-.523 1.17-1.17 1.17zm-.937 10.026v-8.694h1.89v8.694h-1.89zM1362.23 476.658v-5.436c0-1.35-.685-1.8-1.747-1.8-.972 0-1.8.576-2.232 1.17v6.066h-1.89v-8.694h1.89v1.188a4.113 4.113 0 0 1 3.06-1.404c1.873 0 2.81 1.008 2.81 2.79v6.12h-1.89M1366.46 478.89l.88-1.368c1.387 1.62 5.24 1.8 5.33-1.242v-1.044c-.667.864-1.657 1.44-2.79 1.44-2.215 0-3.853-1.602-3.853-4.464 0-2.808 1.62-4.464 3.852-4.464 1.097 0 2.087.504 2.79 1.422v-1.206h1.89v8.244c0 3.132-2.323 3.978-4.465 3.978-1.476 0-2.574-.324-3.636-1.296zm6.21-5.058v-3.24c-.415-.648-1.35-1.17-2.233-1.17-1.494 0-2.448 1.115-2.448 2.79 0 1.674.953 2.79 2.447 2.79.882 0 1.818-.522 2.232-1.17z"/></g><g fill="#FFF"><path d="M1387.357 476.874c-3.456 0-6.21-2.52-6.21-6.21s2.754-6.21 6.21-6.21c2.52 0 4.014 1.26 4.914 2.7l-1.8.918c-.575-.99-1.727-1.746-3.113-1.746-2.286 0-4.05 1.818-4.05 4.338s1.764 4.338 4.05 4.338c1.386 0 2.538-.738 3.114-1.746l1.8.918c-.917 1.44-2.393 2.7-4.913 2.7M1399.22 476.658v-.936c-1.64 1.89-5.833 1.53-5.833-1.728 0-3.312 4.212-3.492 5.832-1.71v-1.296c0-1.008-.83-1.62-2.035-1.62-.972 0-1.818.36-2.574 1.098l-.773-1.314c1.008-.954 2.268-1.404 3.654-1.404 1.927 0 3.62.81 3.62 3.15v5.76h-1.89zm0-1.98v-1.314c-.81-1.314-3.925-1.242-3.925.666 0 1.89 3.132 1.962 3.924.648zM1403.557 476.658v-8.694h1.89v1.278c.648-.828 1.692-1.476 2.826-1.476v1.872c-1.134-.252-2.304.36-2.826 1.098v5.922h-1.89M1412.413 476.874c-1.458 0-2.232-.792-2.232-2.232v-5.022h-1.44v-1.656h1.44v-2.376h1.89v2.376h1.765v1.656h-1.764v4.554c-.16 1.062 1.153 1.278 1.675.72l.45 1.422c-.342.324-.9.558-1.782.558"/></g><path d="M1188.3 311l132.1 119" stroke="#2A3843" stroke-width="4"/><path d="M1186.97 312.5l-1.65-1.5h3l-1.35 1.5zM1323.4 430h-3l1.35-1.5 1.65 1.5z" fill="#2A3843"/><path d="M60 330c0-2.76 2.24-5 5-5h106c2.76 0 5 2.24 5 5v32c0 2.76-2.24 5-5 5H65c-2.76 0-5-2.24-5-5v-32z" fill="#0EB29C"/><g fill="#FFF"><path d="M93.948 352.345v-9.09l-3.69 9.09h-.9l-3.672-9.09v9.09H83.58V340.34h2.97l3.258 8.08 3.276-8.08h2.97v12.005h-2.106M103.866 352.345v-.936c-1.638 1.89-5.832 1.53-5.832-1.73 0-3.31 4.212-3.49 5.832-1.71v-1.295c0-1.008-.828-1.62-2.034-1.62-.972 0-1.818.36-2.574 1.098l-.774-1.314c1.008-.955 2.268-1.405 3.654-1.405 1.926 0 3.618.81 3.618 3.15v5.76h-1.89zm0-1.98v-1.314c-.81-1.313-3.924-1.24-3.924.667 0 1.89 3.132 1.962 3.924.648zM108.096 354.577l.882-1.368c1.386 1.62 5.238 1.8 5.328-1.243v-1.044c-.666.864-1.656 1.44-2.79 1.44-2.214 0-3.852-1.602-3.852-4.464 0-2.81 1.62-4.465 3.852-4.465 1.098 0 2.088.504 2.79 1.422v-1.206h1.89v8.245c0 3.132-2.322 3.978-4.464 3.978-1.476 0-2.574-.324-3.636-1.296zm6.21-5.058v-3.24c-.414-.65-1.35-1.17-2.232-1.17-1.494 0-2.448 1.115-2.448 2.79 0 1.673.954 2.79 2.448 2.79.882 0 1.818-.523 2.232-1.17zM118.104 347.99c0-2.52 1.836-4.555 4.41-4.555 2.754 0 4.428 2.16 4.284 5.184h-6.714c.144 1.313 1.134 2.393 2.772 2.393.846 0 1.854-.342 2.466-.954l.864 1.24c-.864.83-2.142 1.26-3.528 1.26-2.61 0-4.554-1.817-4.554-4.57zm4.41-3.007c-1.62 0-2.358 1.242-2.448 2.304h4.896c-.036-1.026-.738-2.304-2.448-2.304zM134.538 352.345v-5.436c0-1.35-.684-1.8-1.746-1.8-.972 0-1.8.575-2.232 1.17v6.065h-1.89v-8.694h1.89v1.19a4.113 4.113 0 0 1 3.06-1.405c1.872 0 2.808 1.008 2.808 2.79v6.12h-1.89M141.486 352.56c-1.458 0-2.232-.79-2.232-2.23v-5.023h-1.44v-1.656h1.44v-2.375h1.89v2.376h1.764v1.657h-1.764v4.554c-.162 1.063 1.152 1.28 1.674.72l.45 1.423c-.342.324-.9.558-1.782.558M148.542 352.56c-2.754 0-4.464-2.07-4.464-4.57 0-2.485 1.71-4.555 4.464-4.555 2.79 0 4.482 2.07 4.482 4.554 0 2.5-1.692 4.57-4.482 4.57zm0-1.673c1.62 0 2.52-1.35 2.52-2.898 0-1.53-.9-2.88-2.52-2.88-1.602 0-2.502 1.35-2.502 2.88 0 1.547.9 2.897 2.502 2.897z"/></g><path d="M323.6 306.52L176 334.86" stroke="#2A3843" stroke-width="4"/><path d="M323.6 306.52l-.38-1.97.38-.07v2.04zm-147.22 30.31l-.38.07v-2.04l.38 1.97z" fill="#2A3843"/><path d="M706.68 408.2l-245.36-90.4" stroke="#2A3843" stroke-width="4"/><path d="M710.2 407.36l-.13.34h-1.47l-1.58.25-.34.25.7-1.88 2.82 1.04zm-249.58-87.68l-2.8-1.04.1-.34h1.48l1.58-.25.34-.25-.7 1.88z" fill="#2A3843"/></g></svg>