<svg xmlns="http://www.w3.org/2000/svg" xmlns:xlink="http://www.w3.org/1999/xlink" width="521.11" height="720"><g transform="translate(-520 -280)"><path d="M820 440H625c-2.76 0-5 2.24-5 5v275" stroke="#2a3843" stroke-width="4" fill="none"/><path d="M823 438.3l-.47.62v2.16l.47.6v.32h-3v-4h3zM620 720l-4.64-14.27h9.28z" fill="#2a3843"/><path d="M621.46 721.97l-1.46-.2-1.46.2-5.93-18.24h14.8zm-3.34-14.24l1.88 5.8 1.88-5.8z" fill="#2a3843"/><use xlink:href="#a" transform="matrix(1,0,0,1,784.2009328599603,420.4444444444444) translate(0.005000000000000782 12.28888888888889)"/><path d="M900 500v60" stroke="#2a3843" stroke-width="4" fill="none"/><path d="M902 500h-4v-2.05l2 .3 2-.3zM900 560l-4.64-14.27h9.28z" fill="#2a3843"/><path d="M901.46 561.97l-1.46-.2-1.46.2-5.93-18.24h14.8zm-3.34-14.24l1.88 5.8 1.88-5.8z" fill="#2a3843"/><use xlink:href="#b" transform="matrix(1,0,0,1,908,511.0222222222223) translate(0.005000000000000782 12.28888888888889)"/><path d="M820 620H625c-2.76 0-5 2.24-5 5v95" stroke="#2a3843" stroke-width="4" fill="none"/><path d="M823 618.3l-.47.62v2.16l.47.6v.32h-3v-4h3zM620 720l-4.64-14.27h9.28z" fill="#2a3843"/><path d="M621.46 721.97l-1.46-.2-1.46.2-5.93-18.24h14.8zm-3.34-14.24l1.88 5.8 1.88-5.8z" fill="#2a3843"/><use xlink:href="#c" transform="matrix(1,0,0,1,697.9798279458729,600.4444444444445) translate(0 12.28888888888889)"/><use xlink:href="#d" transform="matrix(1,0,0,1,697.9798279458729,600.4444444444445) translate(37.78444444444444 12.28888888888889)"/><use xlink:href="#e" transform="matrix(1,0,0,1,697.9798279458729,600.4444444444445) translate(57.10444444444444 12.28888888888889)"/><path d="M556 900c-8.84 0-16 7.16-16 16v48c0 8.84 7.16 16 16 16h128c8.84 0 16-7.16 16-16v-48c0-8.84-7.16-16-16-16z" fill="#0eb29c"/><use xlink:href="#f" transform="matrix(1,0,0,1,548,908) translate(31.695555555555558 28.733333333333334)"/><use xlink:href="#g" transform="matrix(1,0,0,1,548,908) translate(62.13777777777778 28.733333333333334)"/><use xlink:href="#h" transform="matrix(1,0,0,1,548,908) translate(29.720000000000006 44.28888888888889)"/><path d="M836 740c-8.84 0-16 7.16-16 16v48c0 8.84 7.16 16 16 16h128c8.84 0 16-7.16 16-16v-48c0-8.84-7.16-16-16-16z" fill="#0eb29c"/><use xlink:href="#i" transform="matrix(1,0,0,1,828,748) translate(2.637777777777785 36.51111111111111)"/><use xlink:href="#j" transform="matrix(1,0,0,1,828,748) translate(56.80222222222222 36.51111111111111)"/><path d="M900 680v60" stroke="#2a3843" stroke-width="4" fill="none"/><path d="M902 680h-4v-2.05l2 .3 2-.3zM900 740l-4.64-14.27h9.28z" fill="#2a3843"/><path d="M902.1 740h-4.2l-5.3-16.27h14.8zm-3.98-12.27l1.88 5.8 1.88-5.8z" fill="#2a3843"/><use xlink:href="#k" transform="matrix(1,0,0,1,908,685.5351909308863) translate(0.005000000000002558 12.28888888888889)"/><use xlink:href="#l" transform="matrix(1,0,0,1,908,685.5351909308863) translate(47.10722222222222 12.28888888888889)"/><use xlink:href="#m" transform="matrix(1,0,0,1,908,685.5351909308863) translate(66.42722222222221 12.28888888888889)"/><path d="M915.75 315.75c0 8.7-7.05 15.75-15.75 15.75s-15.75-7.05-15.75-15.75S891.3 300 900 300s15.75 7.05 15.75 15.75z" fill="#2a3843"/><use xlink:href="#n" transform="matrix(1,0,0,1,889.252,305) translate(11 16.4)"/><path d="M900 331.5V380" stroke="#2a3843" stroke-width="4" fill="none"/><path d="M900 331.5h-2v-.27zm2 0h-2l2-.27zM900 380l-4.64-14.27h9.28z" fill="#2a3843"/><path d="M901.46 381.97l-1.46-.2-1.46.2-5.93-18.24h14.8zm-3.34-14.24l1.88 5.8 1.88-5.8z" fill="#2a3843"/><path d="M700 780h120" stroke="#2a3843" stroke-width="4" fill="none"/><path d="M700 782h-3v-.3l.47-.62v-2.16l-.47-.6V778h3zM820 780l-14.27 4.64v-9.28z" fill="#2a3843"/><path d="M820 777.9v4.2l-16.27 5.3v-14.8zm-12.27 3.98l5.8-1.88-5.8-1.88z" fill="#2a3843"/><use xlink:href="#o" transform="matrix(1,0,0,1,705.2216378104657,760.4444444444443) translate(0.005000000000002558 12.28888888888889)"/><use xlink:href="#p" transform="matrix(1,0,0,1,705.2216378104657,760.4444444444443) translate(47.10722222222222 12.28888888888889)"/><path d="M620 900v-60" stroke="#2a3843" stroke-width="4" fill="none"/><path d="M620 900l-4.64-14.27h9.28z" fill="#2a3843"/><path d="M622.1 900h-4.2l-5.3-16.27h14.8zm-3.98-12.27l1.88 5.8 1.88-5.8zM622 840h-4v-2.05l2 .3 2-.3z" fill="#2a3843"/><g><use xlink:href="#q" transform="matrix(1,0,0,1,628,849.2622222222221) translate(0.005000000000002558 12.28888888888889)"/><use xlink:href="#p" transform="matrix(1,0,0,1,628,849.2622222222221) translate(37.78944444444444 12.28888888888889)"/></g><path d="M896 383c2.2-1.66 5.8-1.66 8 0l72 54c2.2 1.66 2.2 4.34 0 6l-72 54c-2.2 1.66-5.8 1.66-8 0l-72-54c-2.2-1.66-2.2-4.34 0-6z" fill="#2babee"/><g><use xlink:href="#r" transform="matrix(1,0,0,1,825,385) translate(14.037777777777777 51.733333333333334)"/><use xlink:href="#s" transform="matrix(1,0,0,1,825,385) translate(68.29555555555555 51.733333333333334)"/><use xlink:href="#t" transform="matrix(1,0,0,1,825,385) translate(33.04666666666667 67.28888888888889)"/></g><path d="M896 563c2.2-1.66 5.8-1.66 8 0l72 54c2.2 1.66 2.2 4.34 0 6l-72 54c-2.2 1.66-5.8 1.66-8 0l-72-54c-2.2-1.66-2.2-4.34 0-6z" fill="#2babee"/><g><use xlink:href="#u" transform="matrix(1,0,0,1,825,565) translate(30.02111111111111 51.733333333333334)"/><use xlink:href="#v" transform="matrix(1,0,0,1,825,565) translate(83.03444444444443 51.733333333333334)"/><use xlink:href="#w" transform="matrix(1,0,0,1,825,565) translate(44.620000000000005 67.28888888888889)"/></g><path d="M616 723c2.2-1.66 5.8-1.66 8 0l72 54c2.2 1.66 2.2 4.34 0 6l-72 54c-2.2 1.66-5.8 1.66-8 0l-72-54c-2.2-1.66-2.2-4.34 0-6z" fill="#2babee"/><g><use xlink:href="#x" transform="matrix(1,0,0,1,545,725) translate(34.94444444444444 51.733333333333334)"/><use xlink:href="#y" transform="matrix(1,0,0,1,545,725) translate(95.95333333333332 51.733333333333334)"/><use xlink:href="#z" transform="matrix(1,0,0,1,545,725) translate(28.356666666666676 67.28888888888889)"/></g><defs><path fill="#333" d="M260 0v-277L1-667h134l184 286 182-286h134L377-277V0H260" id="A"/><path fill="#333" d="M38-242c0-140 102-253 245-253 153 0 246 120 238 288H148c8 73 63 133 154 133 47 0 103-19 137-53l48 69c-48 46-119 70-196 70C146 12 38-89 38-242zm245-167c-90 0-131 69-136 128h272c-2-57-41-128-136-128" id="B"/><path fill="#333" d="M26-63l48-76c34 35 101 68 164 68s95-23 95-59c0-42-51-57-110-70-83-18-182-40-182-148 0-79 68-147 190-147 82 0 144 29 188 68l-44 74c-29-33-83-58-143-58-55 0-90 20-90 54 0 37 48 50 105 63 84 18 187 42 187 156 0 85-71 150-201 150-82 0-157-26-207-75" id="C"/><g id="a"><use transform="matrix(0.015555555555555555,0,0,0.015555555555555555,0,0)" xlink:href="#A"/><use transform="matrix(0.015555555555555555,0,0,0.015555555555555555,7.964444444444444,0)" xlink:href="#B"/><use transform="matrix(0.015555555555555555,0,0,0.015555555555555555,16.628888888888888,0)" xlink:href="#C"/></g><path fill="#333" d="M536 0L188-486V0H71v-667h120l341 473v-473h117V0H536" id="D"/><path fill="#333" d="M286 12C133 12 38-103 38-242c0-138 95-253 248-253 155 0 249 115 249 253 0 139-94 254-249 254zm0-93c90 0 140-75 140-161 0-85-50-160-140-160-89 0-139 75-139 160 0 86 50 161 139 161" id="E"/><g id="b"><use transform="matrix(0.015555555555555555,0,0,0.015555555555555555,0,0)" xlink:href="#D"/><use transform="matrix(0.015555555555555555,0,0,0.015555555555555555,11.2,0)" xlink:href="#E"/></g><path fill="#2a3843" d="M41-333c0-199 141-345 341-345s341 146 341 345S582 12 382 12 41-134 41-333zm562 0c0-138-87-241-221-241-135 0-221 103-221 241 0 137 86 241 221 241 134 0 221-104 221-241" id="F"/><path fill="#2a3843" d="M195 0L-2-483h112l141 362 141-362h113L308 0H195" id="G"/><path fill="#2a3843" d="M38-242c0-140 102-253 245-253 153 0 246 120 238 288H148c8 73 63 133 154 133 47 0 103-19 137-53l48 69c-48 46-119 70-196 70C146 12 38-89 38-242zm245-167c-90 0-131 69-136 128h272c-2-57-41-128-136-128" id="H"/><path fill="#2a3843" d="M68 0v-483h105v71c36-46 94-82 157-82v104c-63-14-128 20-157 61V0H68" id="I"/><g id="c"><use transform="matrix(0.015555555555555555,0,0,0.015555555555555555,0,0)" xlink:href="#F"/><use transform="matrix(0.015555555555555555,0,0,0.015555555555555555,11.9,0)" xlink:href="#G"/><use transform="matrix(0.015555555555555555,0,0,0.015555555555555555,19.724444444444444,0)" xlink:href="#H"/><use transform="matrix(0.015555555555555555,0,0,0.015555555555555555,28.388888888888886,0)" xlink:href="#I"/></g><path fill="#2a3843" d="M564-194C564-92 498-4 348 10v90h-80V11C164 3 88-38 35-94l65-90c39 41 96 78 168 89v-193C165-314 56-352 56-482c0-102 83-183 212-194v-92h80v94c82 8 149 40 201 90l-67 87c-37-37-84-60-134-70v172c104 28 216 67 216 201zM176-490c0 39 39 59 92 74v-156c-57 6-92 37-92 82zM348-95c69-10 97-50 97-88 0-46-41-67-97-84v172" id="J"/><path fill="#2a3843" d="M192 0v-515L83-402l-68-71 192-194h102V0H192" id="K"/><g id="d"><use transform="matrix(0.015555555555555555,0,0,0.015555555555555555,0,0)" xlink:href="#J"/><use transform="matrix(0.015555555555555555,0,0,0.015555555555555555,9.411111111111111,0)" xlink:href="#K"/></g><path fill="#2a3843" d="M660 0v-315c0-52-23-87-79-87-47 0-91 33-112 64V0H364v-315c0-52-23-87-80-87-46 0-89 33-111 65V0H68v-483h105v66c20-30 84-78 157-78 72 0 116 36 132 89 28-44 92-89 164-89 89 0 139 48 139 146V0H660" id="L"/><path fill="#2a3843" d="M120-557c-35 0-65-29-65-65s30-65 65-65c36 0 65 29 65 65s-29 65-65 65zM68 0v-483h105V0H68" id="M"/><path fill="#2a3843" d="M68 0v-667h105V0H68" id="N"/><path fill="#2a3843" d="M286 12C133 12 38-103 38-242c0-138 95-253 248-253 155 0 249 115 249 253 0 139-94 254-249 254zm0-93c90 0 140-75 140-161 0-85-50-160-140-160-89 0-139 75-139 160 0 86 50 161 139 161" id="O"/><path fill="#2a3843" d="M394 0v-302c0-75-38-100-97-100-54 0-100 32-124 65V0H68v-483h105v66c32-38 94-78 170-78 104 0 156 56 156 155V0H394" id="P"/><g id="e"><use transform="matrix(0.015555555555555555,0,0,0.015555555555555555,0,0)" xlink:href="#L"/><use transform="matrix(0.015555555555555555,0,0,0.015555555555555555,12.957777777777778,0)" xlink:href="#M"/><use transform="matrix(0.015555555555555555,0,0,0.015555555555555555,16.706666666666667,0)" xlink:href="#N"/><use transform="matrix(0.015555555555555555,0,0,0.015555555555555555,20.455555555555556,0)" xlink:href="#N"/><use transform="matrix(0.015555555555555555,0,0,0.015555555555555555,24.204444444444444,0)" xlink:href="#M"/><use transform="matrix(0.015555555555555555,0,0,0.015555555555555555,27.953333333333333,0)" xlink:href="#O"/><use transform="matrix(0.015555555555555555,0,0,0.015555555555555555,36.86666666666667,0)" xlink:href="#P"/></g><path fill="#fff" d="M28-94l65-90c46 49 118 92 211 92 96 0 134-47 134-91 0-60-71-78-152-99-109-27-237-59-237-200 0-110 97-195 243-195 104 0 188 33 250 93l-67 87c-52-52-123-76-193-76-69 0-113 33-113 83 0 52 68 69 147 89 110 28 241 62 241 207 0 111-78 206-258 206C176 12 87-31 28-94" id="Q"/><path fill="#fff" d="M38-242c0-140 102-253 245-253 153 0 246 120 238 288H148c8 73 63 133 154 133 47 0 103-19 137-53l48 69c-48 46-119 70-196 70C146 12 38-89 38-242zm245-167c-90 0-131 69-136 128h272c-2-57-41-128-136-128" id="R"/><path fill="#fff" d="M68 0v-667h105V0H68" id="S"/><path fill="#fff" d="M93 0v-391H13v-92h80C76-642 202-715 330-658l-23 77c-64-31-122 9-109 98h98v92h-98V0H93" id="T"/><g id="f"><use transform="matrix(0.015555555555555555,0,0,0.015555555555555555,0,0)" xlink:href="#Q"/><use transform="matrix(0.015555555555555555,0,0,0.015555555555555555,9.24,0)" xlink:href="#R"/><use transform="matrix(0.015555555555555555,0,0,0.015555555555555555,17.904444444444444,0)" xlink:href="#S"/><use transform="matrix(0.015555555555555555,0,0,0.015555555555555555,21.653333333333332,0)" xlink:href="#T"/></g><path fill="#fff" d="M535 0v-291H188V0H71v-667h117v273h347v-273h117V0H535" id="U"/><path fill="#fff" d="M286 12C133 12 38-103 38-242c0-138 95-253 248-253 155 0 249 115 249 253 0 139-94 254-249 254zm0-93c90 0 140-75 140-161 0-85-50-160-140-160-89 0-139 75-139 160 0 86 50 161 139 161" id="V"/><path fill="#fff" d="M26-63l48-76c34 35 101 68 164 68s95-23 95-59c0-42-51-57-110-70-83-18-182-40-182-148 0-79 68-147 190-147 82 0 144 29 188 68l-44 74c-29-33-83-58-143-58-55 0-90 20-90 54 0 37 48 50 105 63 84 18 187 42 187 156 0 85-71 150-201 150-82 0-157-26-207-75" id="W"/><path fill="#fff" d="M213 12C132 12 89-32 89-112v-279H9v-92h80v-132h105v132h98v92h-98v253c-9 59 64 71 93 40l25 79c-19 18-50 31-99 31" id="X"/><path fill="#fff" d="M408 0v-66c-37 48-93 78-155 78C129 12 38-82 38-241c0-156 90-254 215-254 60 0 116 28 155 79v-251h105V0H408zm0-145v-192c-24-36-75-65-125-65-83 0-136 67-136 161 0 93 53 160 136 160 50 0 101-28 125-64" id="Y"/><g id="g"><use transform="matrix(0.015555555555555555,0,0,0.015555555555555555,0,0)" xlink:href="#U"/><use transform="matrix(0.015555555555555555,0,0,0.015555555555555555,11.246666666666666,0)" xlink:href="#V"/><use transform="matrix(0.015555555555555555,0,0,0.015555555555555555,20.159999999999997,0)" xlink:href="#W"/><use transform="matrix(0.015555555555555555,0,0,0.015555555555555555,27.50222222222222,0)" xlink:href="#X"/><use transform="matrix(0.015555555555555555,0,0,0.015555555555555555,32.46444444444444,0)" xlink:href="#R"/><use transform="matrix(0.015555555555555555,0,0,0.015555555555555555,41.12888888888888,0)" xlink:href="#Y"/></g><path fill="#fff" d="M386 12C194 12 41-128 41-333s153-345 345-345c140 0 223 70 273 150l-100 51c-32-55-96-97-173-97-127 0-225 101-225 241S259-92 386-92c77 0 141-41 173-97l100 51C608-58 526 12 386 12" id="Z"/><path fill="#fff" d="M660 0v-315c0-52-23-87-79-87-47 0-91 33-112 64V0H364v-315c0-52-23-87-80-87-46 0-89 33-111 65V0H68v-483h105v66c20-30 84-78 157-78 72 0 116 36 132 89 28-44 92-89 164-89 89 0 139 48 139 146V0H660" id="aa"/><path fill="#fff" d="M68 0v-483h105v71c36-46 94-82 157-82v104c-63-14-128 20-157 61V0H68" id="ab"/><path fill="#fff" d="M38-242c0-146 103-253 250-253 94 0 151 40 185 86l-69 64c-27-38-64-57-111-57-88 0-146 66-146 160S205-81 293-81c47 0 84-20 111-57l69 64c-34 46-91 86-185 86C141 12 38-95 38-242" id="ac"/><g id="h"><use transform="matrix(0.015555555555555555,0,0,0.015555555555555555,0,0)" xlink:href="#R"/><use transform="matrix(0.015555555555555555,0,0,0.015555555555555555,8.664444444444444,0)" xlink:href="#Z"/><use transform="matrix(0.015555555555555555,0,0,0.015555555555555555,19.273333333333333,0)" xlink:href="#V"/><use transform="matrix(0.015555555555555555,0,0,0.015555555555555555,28.186666666666667,0)" xlink:href="#aa"/><use transform="matrix(0.015555555555555555,0,0,0.015555555555555555,41.144444444444446,0)" xlink:href="#aa"/><use transform="matrix(0.015555555555555555,0,0,0.015555555555555555,54.102222222222224,0)" xlink:href="#R"/><use transform="matrix(0.015555555555555555,0,0,0.015555555555555555,62.766666666666666,0)" xlink:href="#ab"/><use transform="matrix(0.015555555555555555,0,0,0.015555555555555555,68.16444444444444,0)" xlink:href="#ac"/><use transform="matrix(0.015555555555555555,0,0,0.015555555555555555,75.89555555555555,0)" xlink:href="#R"/></g><g id="i"><use transform="matrix(0.015555555555555555,0,0,0.015555555555555555,0,0)" xlink:href="#U"/><use transform="matrix(0.015555555555555555,0,0,0.015555555555555555,11.246666666666666,0)" xlink:href="#V"/><use transform="matrix(0.015555555555555555,0,0,0.015555555555555555,20.159999999999997,0)" xlink:href="#W"/><use transform="matrix(0.015555555555555555,0,0,0.015555555555555555,27.50222222222222,0)" xlink:href="#X"/><use transform="matrix(0.015555555555555555,0,0,0.015555555555555555,32.46444444444444,0)" xlink:href="#R"/><use transform="matrix(0.015555555555555555,0,0,0.015555555555555555,41.12888888888888,0)" xlink:href="#Y"/></g><g id="j"><use transform="matrix(0.015555555555555555,0,0,0.015555555555555555,0,0)" xlink:href="#R"/><use transform="matrix(0.015555555555555555,0,0,0.015555555555555555,8.664444444444444,0)" xlink:href="#Z"/><use transform="matrix(0.015555555555555555,0,0,0.015555555555555555,19.273333333333333,0)" xlink:href="#V"/><use transform="matrix(0.015555555555555555,0,0,0.015555555555555555,28.186666666666667,0)" xlink:href="#aa"/><use transform="matrix(0.015555555555555555,0,0,0.015555555555555555,41.144444444444446,0)" xlink:href="#aa"/><use transform="matrix(0.015555555555555555,0,0,0.015555555555555555,54.102222222222224,0)" xlink:href="#R"/><use transform="matrix(0.015555555555555555,0,0,0.015555555555555555,62.766666666666666,0)" xlink:href="#ab"/><use transform="matrix(0.015555555555555555,0,0,0.015555555555555555,68.16444444444444,0)" xlink:href="#ac"/><use transform="matrix(0.015555555555555555,0,0,0.015555555555555555,75.89555555555555,0)" xlink:href="#R"/></g><path fill="#2a3843" d="M71-263v-404h118v400c0 106 59 175 171 175 111 0 170-69 170-175v-400h118v403c0 166-95 276-288 276C166 12 71-99 71-263" id="ad"/><path fill="#2a3843" d="M408 0v-66c-37 48-93 78-155 78C129 12 38-82 38-241c0-156 90-254 215-254 60 0 116 28 155 79v-251h105V0H408zm0-145v-192c-24-36-75-65-125-65-83 0-136 67-136 161 0 93 53 160 136 160 50 0 101-28 125-64" id="ae"/><g id="k"><use transform="matrix(0.015555555555555555,0,0,0.015555555555555555,0,0)" xlink:href="#ad"/><use transform="matrix(0.015555555555555555,0,0,0.015555555555555555,11.184444444444445,0)" xlink:href="#P"/><use transform="matrix(0.015555555555555555,0,0,0.015555555555555555,20.004444444444445,0)" xlink:href="#ae"/><use transform="matrix(0.015555555555555555,0,0,0.015555555555555555,29.04222222222222,0)" xlink:href="#H"/><use transform="matrix(0.015555555555555555,0,0,0.015555555555555555,37.70666666666666,0)" xlink:href="#I"/></g><g id="l"><use transform="matrix(0.015555555555555555,0,0,0.015555555555555555,0,0)" xlink:href="#J"/><use transform="matrix(0.015555555555555555,0,0,0.015555555555555555,9.411111111111111,0)" xlink:href="#K"/></g><g id="m"><use transform="matrix(0.015555555555555555,0,0,0.015555555555555555,0,0)" xlink:href="#L"/><use transform="matrix(0.015555555555555555,0,0,0.015555555555555555,12.957777777777778,0)" xlink:href="#M"/><use transform="matrix(0.015555555555555555,0,0,0.015555555555555555,16.706666666666667,0)" xlink:href="#N"/><use transform="matrix(0.015555555555555555,0,0,0.015555555555555555,20.455555555555556,0)" xlink:href="#N"/><use transform="matrix(0.015555555555555555,0,0,0.015555555555555555,24.204444444444444,0)" xlink:href="#M"/><use transform="matrix(0.015555555555555555,0,0,0.015555555555555555,27.953333333333333,0)" xlink:href="#O"/><use transform="matrix(0.015555555555555555,0,0,0.015555555555555555,36.86666666666667,0)" xlink:href="#P"/></g><path fill="#333" d="M71-263v-404h118v400c0 106 59 175 171 175 111 0 170-69 170-175v-400h118v403c0 166-95 276-288 276C166 12 71-99 71-263" id="af"/><path fill="#333" d="M394 0v-302c0-75-38-100-97-100-54 0-100 32-124 65V0H68v-483h105v66c32-38 94-78 170-78 104 0 156 56 156 155V0H394" id="ag"/><path fill="#333" d="M408 0v-66c-37 48-93 78-155 78C129 12 38-82 38-241c0-156 90-254 215-254 60 0 116 28 155 79v-251h105V0H408zm0-145v-192c-24-36-75-65-125-65-83 0-136 67-136 161 0 93 53 160 136 160 50 0 101-28 125-64" id="ah"/><path fill="#333" d="M68 0v-483h105v71c36-46 94-82 157-82v104c-63-14-128 20-157 61V0H68" id="ai"/><g id="o"><use transform="matrix(0.015555555555555555,0,0,0.015555555555555555,0,0)" xlink:href="#af"/><use transform="matrix(0.015555555555555555,0,0,0.015555555555555555,11.184444444444445,0)" xlink:href="#ag"/><use transform="matrix(0.015555555555555555,0,0,0.015555555555555555,20.004444444444445,0)" xlink:href="#ah"/><use transform="matrix(0.015555555555555555,0,0,0.015555555555555555,29.04222222222222,0)" xlink:href="#B"/><use transform="matrix(0.015555555555555555,0,0,0.015555555555555555,37.70666666666666,0)" xlink:href="#ai"/></g><path fill="#333" d="M564-194C564-92 498-4 348 10v90h-80V11C164 3 88-38 35-94l65-90c39 41 96 78 168 89v-193C165-314 56-352 56-482c0-102 83-183 212-194v-92h80v94c82 8 149 40 201 90l-67 87c-37-37-84-60-134-70v172c104 28 216 67 216 201zM176-490c0 39 39 59 92 74v-156c-57 6-92 37-92 82zM348-95c69-10 97-50 97-88 0-46-41-67-97-84v172" id="aj"/><path fill="#333" d="M56-91l67-80c45 51 105 79 180 79 84 0 137-52 137-117 0-72-52-119-134-119-57 0-104 18-146 58l-83-24v-373h437v103H194v193c32-32 87-58 151-58 112 0 213 79 213 215C558-75 453 12 304 12 189 12 110-27 56-91" id="ak"/><path fill="#333" d="M41-333c0-168 80-344 267-344s267 176 267 344S495 12 308 12 41-165 41-333zm415 0c0-127-39-240-148-240S160-460 160-333 199-92 308-92s148-114 148-241" id="al"/><path fill="#333" d="M388 0L240-199l-67 69V0H68v-667h105v417l213-233h130L315-264 520 0H388" id="am"/><g id="p"><use transform="matrix(0.015555555555555555,0,0,0.015555555555555555,0,0)" xlink:href="#aj"/><use transform="matrix(0.015555555555555555,0,0,0.015555555555555555,9.411111111111111,0)" xlink:href="#ak"/><use transform="matrix(0.015555555555555555,0,0,0.015555555555555555,18.744444444444447,0)" xlink:href="#al"/><use transform="matrix(0.015555555555555555,0,0,0.015555555555555555,28.326666666666668,0)" xlink:href="#am"/></g><path fill="#333" d="M41-333c0-199 141-345 341-345s341 146 341 345S582 12 382 12 41-134 41-333zm562 0c0-138-87-241-221-241-135 0-221 103-221 241 0 137 86 241 221 241 134 0 221-104 221-241" id="an"/><path fill="#333" d="M195 0L-2-483h112l141 362 141-362h113L308 0H195" id="ao"/><g id="q"><use transform="matrix(0.015555555555555555,0,0,0.015555555555555555,0,0)" xlink:href="#an"/><use transform="matrix(0.015555555555555555,0,0,0.015555555555555555,11.9,0)" xlink:href="#ao"/><use transform="matrix(0.015555555555555555,0,0,0.015555555555555555,19.724444444444444,0)" xlink:href="#B"/><use transform="matrix(0.015555555555555555,0,0,0.015555555555555555,28.388888888888886,0)" xlink:href="#ai"/></g><path fill="#fff" d="M71-263v-404h118v400c0 106 59 175 171 175 111 0 170-69 170-175v-400h118v403c0 166-95 276-288 276C166 12 71-99 71-263" id="ap"/><path fill="#fff" d="M394 0v-302c0-75-38-100-97-100-54 0-100 32-124 65V0H68v-483h105v66c32-38 94-78 170-78 104 0 156 56 156 155V0H394" id="aq"/><path fill="#fff" d="M120-557c-35 0-65-29-65-65s30-65 65-65c36 0 65 29 65 65s-29 65-65 65zM68 0v-483h105V0H68" id="ar"/><path fill="#fff" d="M512 184H407V-67c-39 52-94 79-155 79C127 12 38-83 38-242s89-253 214-253c63 0 119 30 155 78v-66h105v667zM407-146v-191c-23-36-75-65-124-65-83 0-136 67-136 160 0 94 53 161 136 161 49 0 101-30 124-65" id="as"/><path fill="#fff" d="M394 0v-64c-35 39-95 76-171 76C119 12 68-42 68-141v-342h105v304c-7 144 181 106 221 35v-339h105V0H394" id="at"/><g id="r"><use transform="matrix(0.015555555555555555,0,0,0.015555555555555555,0,0)" xlink:href="#ap"/><use transform="matrix(0.015555555555555555,0,0,0.015555555555555555,11.184444444444445,0)" xlink:href="#aq"/><use transform="matrix(0.015555555555555555,0,0,0.015555555555555555,20.004444444444445,0)" xlink:href="#ar"/><use transform="matrix(0.015555555555555555,0,0,0.015555555555555555,23.753333333333334,0)" xlink:href="#as"/><use transform="matrix(0.015555555555555555,0,0,0.015555555555555555,32.775555555555556,0)" xlink:href="#at"/><use transform="matrix(0.015555555555555555,0,0,0.015555555555555555,41.595555555555556,0)" xlink:href="#R"/></g><g id="s"><use transform="matrix(0.015555555555555555,0,0,0.015555555555555555,0,0)" xlink:href="#Z"/><use transform="matrix(0.015555555555555555,0,0,0.015555555555555555,10.608888888888888,0)" xlink:href="#at"/><use transform="matrix(0.015555555555555555,0,0,0.015555555555555555,19.42888888888889,0)" xlink:href="#W"/><use transform="matrix(0.015555555555555555,0,0,0.015555555555555555,26.77111111111111,0)" xlink:href="#X"/><use transform="matrix(0.015555555555555555,0,0,0.015555555555555555,31.733333333333334,0)" xlink:href="#V"/><use transform="matrix(0.015555555555555555,0,0,0.015555555555555555,40.64666666666667,0)" xlink:href="#aa"/><use transform="matrix(0.015555555555555555,0,0,0.015555555555555555,53.60444444444445,0)" xlink:href="#R"/><use transform="matrix(0.015555555555555555,0,0,0.015555555555555555,62.26888888888889,0)" xlink:href="#ab"/></g><path fill="#fff" d="M71 0v-667h457v103H188v173h333v103H188v185h340V0H71" id="au"/><path fill="#fff" d="M373 0L248-178 122 0H5l177-248L15-483h118l115 164 114-164h118L313-248 491 0H373" id="av"/><path fill="#fff" d="M173 184H68v-667h105v66c36-48 92-78 155-78 125 0 214 94 214 253S453 12 328 12c-61 0-116-27-155-79v251zm260-426c0-93-53-160-136-160-49 0-101 29-124 65v191c23 35 75 65 124 65 83 0 136-67 136-161" id="aw"/><path fill="#fff" d="M153-281c0-67 48-101 91-132 37-26 70-49 70-88s-30-72-95-72c-61 0-105 28-139 70l-67-75c51-62 128-99 218-99 126 0 203 67 203 157 0 83-55 124-106 158-52 35-102 84-51 137l-88 29c-24-23-36-52-36-85zm2 222c0-38 32-70 70-70s70 32 70 70-32 70-70 70-70-32-70-70" id="ax"/><g id="t"><use transform="matrix(0.015555555555555555,0,0,0.015555555555555555,0,0)" xlink:href="#au"/><use transform="matrix(0.015555555555555555,0,0,0.015555555555555555,8.975555555555555,0)" xlink:href="#av"/><use transform="matrix(0.015555555555555555,0,0,0.015555555555555555,16.691111111111113,0)" xlink:href="#aw"/><use transform="matrix(0.015555555555555555,0,0,0.015555555555555555,25.713333333333335,0)" xlink:href="#R"/><use transform="matrix(0.015555555555555555,0,0,0.015555555555555555,34.37777777777778,0)" xlink:href="#ab"/><use transform="matrix(0.015555555555555555,0,0,0.015555555555555555,39.775555555555556,0)" xlink:href="#ar"/><use transform="matrix(0.015555555555555555,0,0,0.015555555555555555,43.52444444444444,0)" xlink:href="#R"/><use transform="matrix(0.015555555555555555,0,0,0.015555555555555555,52.18888888888888,0)" xlink:href="#aq"/><use transform="matrix(0.015555555555555555,0,0,0.015555555555555555,61.00888888888888,0)" xlink:href="#ac"/><use transform="matrix(0.015555555555555555,0,0,0.015555555555555555,68.74,0)" xlink:href="#R"/><use transform="matrix(0.015555555555555555,0,0,0.015555555555555555,76.78222222222222,0)" xlink:href="#ax"/></g><path fill="#fff" d="M543 0l-49-128H178L129 0H1l262-667h146L671 0H543zM336-568L211-231h250" id="ay"/><path fill="#fff" d="M363 0v-52C272 53 39 33 39-148c0-184 234-194 324-95v-72c0-56-46-90-113-90-54 0-101 20-143 61l-43-73c56-53 126-78 203-78 107 0 201 45 201 175V0H363zm0-110v-73c-45-73-218-69-218 37 0 105 174 109 218 36" id="az"/><g id="u"><use transform="matrix(0.015555555555555555,0,0,0.015555555555555555,0,0)" xlink:href="#ay"/><use transform="matrix(0.015555555555555555,0,0,0.015555555555555555,10.46888888888889,0)" xlink:href="#aq"/><use transform="matrix(0.015555555555555555,0,0,0.015555555555555555,19.28888888888889,0)" xlink:href="#aq"/><use transform="matrix(0.015555555555555555,0,0,0.015555555555555555,28.10888888888889,0)" xlink:href="#at"/><use transform="matrix(0.015555555555555555,0,0,0.015555555555555555,36.92888888888889,0)" xlink:href="#az"/><use transform="matrix(0.015555555555555555,0,0,0.015555555555555555,45.266666666666666,0)" xlink:href="#S"/></g><g id="v"><use transform="matrix(0.015555555555555555,0,0,0.015555555555555555,0,0)" xlink:href="#Q"/><use transform="matrix(0.015555555555555555,0,0,0.015555555555555555,9.006666666666668,0)" xlink:href="#X"/><use transform="matrix(0.015555555555555555,0,0,0.015555555555555555,13.96888888888889,0)" xlink:href="#V"/><use transform="matrix(0.015555555555555555,0,0,0.015555555555555555,22.88222222222222,0)" xlink:href="#ab"/><use transform="matrix(0.015555555555555555,0,0,0.015555555555555555,28.28,0)" xlink:href="#R"/></g><path fill="#fff" d="M452 0L304-249H188V0H71v-667h293c132 0 218 86 218 209 0 119-78 183-158 196L587 0H452zm10-458c0-64-48-106-114-106H188v212h160c66 0 114-42 114-106" id="aA"/><path fill="#fff" d="M195 0L-2-483h112l141 362 141-362h113L308 0H195" id="aB"/><g id="w"><use transform="matrix(0.015555555555555555,0,0,0.015555555555555555,0,0)" xlink:href="#aA"/><use transform="matrix(0.015555555555555555,0,0,0.015555555555555555,9.302222222222222,0)" xlink:href="#R"/><use transform="matrix(0.015555555555555555,0,0,0.015555555555555555,17.966666666666665,0)" xlink:href="#aB"/><use transform="matrix(0.015555555555555555,0,0,0.015555555555555555,25.79111111111111,0)" xlink:href="#R"/><use transform="matrix(0.015555555555555555,0,0,0.015555555555555555,34.455555555555556,0)" xlink:href="#aq"/><use transform="matrix(0.015555555555555555,0,0,0.015555555555555555,43.275555555555556,0)" xlink:href="#at"/><use transform="matrix(0.015555555555555555,0,0,0.015555555555555555,52.095555555555556,0)" xlink:href="#R"/></g><path fill="#fff" d="M71 0v-667h457v103H188v173h333v103H188V0H71" id="aC"/><path fill="#fff" d="M62 124l49-76c77 90 291 100 296-69v-58C370-31 315 1 252 1 129 1 38-88 38-247c0-156 90-248 214-248 61 0 116 28 155 79v-67h105v458c0 174-129 221-248 221-82 0-143-18-202-72zm345-281v-180c-23-36-75-65-124-65-83 0-136 62-136 155S200-92 283-92c49 0 101-29 124-65" id="aD"/><g id="x"><use transform="matrix(0.015555555555555555,0,0,0.015555555555555555,0,0)" xlink:href="#aC"/><use transform="matrix(0.015555555555555555,0,0,0.015555555555555555,8.742222222222223,0)" xlink:href="#at"/><use transform="matrix(0.015555555555555555,0,0,0.015555555555555555,17.562222222222225,0)" xlink:href="#aq"/><use transform="matrix(0.015555555555555555,0,0,0.015555555555555555,26.382222222222225,0)" xlink:href="#Y"/><use transform="matrix(0.015555555555555555,0,0,0.015555555555555555,35.42,0)" xlink:href="#ar"/><use transform="matrix(0.015555555555555555,0,0,0.015555555555555555,39.16888888888889,0)" xlink:href="#aq"/><use transform="matrix(0.015555555555555555,0,0,0.015555555555555555,47.98888888888889,0)" xlink:href="#aD"/></g><g id="y"><use transform="matrix(0.015555555555555555,0,0,0.015555555555555555,0,0)" xlink:href="#T"/><use transform="matrix(0.015555555555555555,0,0,0.015555555555555555,4.791111111111111,0)" xlink:href="#V"/><use transform="matrix(0.015555555555555555,0,0,0.015555555555555555,13.704444444444444,0)" xlink:href="#ab"/></g><path fill="#fff" d="M71 0v-667h248c208 0 349 138 349 334S527 0 319 0H71zm117-103h131c145 0 229-104 229-230 0-129-80-231-229-231H188v461" id="aE"/><g id="z"><use transform="matrix(0.015555555555555555,0,0,0.015555555555555555,0,0)" xlink:href="#aE"/><use transform="matrix(0.015555555555555555,0,0,0.015555555555555555,11.044444444444444,0)" xlink:href="#R"/><use transform="matrix(0.015555555555555555,0,0,0.015555555555555555,19.708888888888886,0)" xlink:href="#aB"/><use transform="matrix(0.015555555555555555,0,0,0.015555555555555555,27.53333333333333,0)" xlink:href="#R"/><use transform="matrix(0.015555555555555555,0,0,0.015555555555555555,36.19777777777777,0)" xlink:href="#S"/><use transform="matrix(0.015555555555555555,0,0,0.015555555555555555,39.94666666666666,0)" xlink:href="#V"/><use transform="matrix(0.015555555555555555,0,0,0.015555555555555555,48.85999999999999,0)" xlink:href="#aw"/><use transform="matrix(0.015555555555555555,0,0,0.015555555555555555,57.88222222222221,0)" xlink:href="#aa"/><use transform="matrix(0.015555555555555555,0,0,0.015555555555555555,70.83999999999999,0)" xlink:href="#R"/><use transform="matrix(0.015555555555555555,0,0,0.015555555555555555,79.50444444444443,0)" xlink:href="#aq"/><use transform="matrix(0.015555555555555555,0,0,0.015555555555555555,88.32444444444442,0)" xlink:href="#X"/></g></defs></g></svg>