<svg xmlns="http://www.w3.org/2000/svg" xmlns:xlink="http://www.w3.org/1999/xlink" width="521.11" height="720"><g transform="translate(-520 -280)"><path d="M820 440H625c-2.76 0-5 2.24-5 5v275" stroke="#2a3843" stroke-width="4" fill="none"/><path d="M823 438.3l-.47.62v2.16l.47.6v.32h-3v-4h3zM620 720l-4.64-14.27h9.28z" fill="#2a3843"/><path d="M621.46 721.97l-1.46-.2-1.46.2-5.93-18.24h14.8zm-3.34-14.24l1.88 5.8 1.88-5.8z" fill="#2a3843"/><use xlink:href="#a" transform="translate(784.206 432.733)"/><path d="M900 500v60" stroke="#2a3843" stroke-width="4" fill="none"/><path d="M902 500h-4v-2.05l2 .3 2-.3zm-2 60l-4.64-14.27h9.28z" fill="#2a3843"/><path d="M901.46 561.97l-1.46-.2-1.46.2-5.93-18.24h14.8zm-3.34-14.24l1.88 5.8 1.88-5.8z" fill="#2a3843"/><use xlink:href="#b" transform="translate(908.005 523.31)"/><path d="M820 620H625c-2.76 0-5 2.24-5 5v95" stroke="#2a3843" stroke-width="4" fill="none"/><path d="M823 618.3l-.47.62v2.16l.47.6v.32h-3v-4h3zM620 720l-4.64-14.27h9.28z" fill="#2a3843"/><path d="M621.46 721.97l-1.46-.2-1.46.2-5.93-18.24h14.8zm-3.34-14.24l1.88 5.8 1.88-5.8z" fill="#2a3843"/><use xlink:href="#c" transform="translate(697.98 612.733)"/><use xlink:href="#d" transform="translate(735.764 612.733)"/><use xlink:href="#e" transform="translate(755.084 612.733)"/><path d="M556 900c-8.84 0-16 7.16-16 16v48c0 8.84 7.16 16 16 16h128c8.84 0 16-7.16 16-16v-48c0-8.84-7.16-16-16-16z" fill="#0eb29c"/><use xlink:href="#f" transform="translate(579.696 936.733)"/><use xlink:href="#g" transform="translate(610.138 936.733)"/><use xlink:href="#h" transform="translate(577.72 952.29)"/><path d="M836 740c-8.84 0-16 7.16-16 16v48c0 8.84 7.16 16 16 16h128c8.84 0 16-7.16 16-16v-48c0-8.84-7.16-16-16-16z" fill="#0eb29c"/><use xlink:href="#i" transform="translate(830.638 784.51)"/><use xlink:href="#j" transform="translate(884.802 784.51)"/><path d="M900 680v60" stroke="#2a3843" stroke-width="4" fill="none"/><path d="M902 680h-4v-2.05l2 .3 2-.3zm-2 60l-4.64-14.27h9.28z" fill="#2a3843"/><path d="M902.1 740h-4.2l-5.3-16.27h14.8zm-3.98-12.27l1.88 5.8 1.88-5.8z" fill="#2a3843"/><use xlink:href="#k" transform="translate(908.005 697.824)"/><use xlink:href="#l" transform="translate(955.107 697.824)"/><use xlink:href="#m" transform="translate(974.427 697.824)"/><path d="M915.75 315.75c0 8.7-7.05 15.75-15.75 15.75s-15.75-7.05-15.75-15.75S891.3 300 900 300s15.75 7.05 15.75 15.75z" fill="#2a3843"/><use xlink:href="#n" transform="translate(900.252 321.4)"/><path d="M900 331.5V380" stroke="#2a3843" stroke-width="4" fill="none"/><path d="M900 331.5h-2v-.27zm2 0h-2l2-.27zm-2 48.5l-4.64-14.27h9.28z" fill="#2a3843"/><path d="M901.46 381.97l-1.46-.2-1.46.2-5.93-18.24h14.8zm-3.34-14.24l1.88 5.8 1.88-5.8z" fill="#2a3843"/><path d="M700 780h120" stroke="#2a3843" stroke-width="4" fill="none"/><path d="M700 782h-3v-.3l.47-.62v-2.16l-.47-.6V778h3zm120-2l-14.27 4.64v-9.28z" fill="#2a3843"/><path d="M820 777.9v4.2l-16.27 5.3v-14.8zm-12.27 3.98l5.8-1.88-5.8-1.88z" fill="#2a3843"/><use xlink:href="#n" transform="translate(705.227 772.733)"/><use xlink:href="#o" transform="translate(752.33 772.733)"/><path d="M620 900v-60" stroke="#2a3843" stroke-width="4" fill="none"/><path d="M620 900l-4.64-14.27h9.28z" fill="#2a3843"/><path d="M622.1 900h-4.2l-5.3-16.27h14.8zm-3.98-12.27l1.88 5.8 1.88-5.8zM622 840h-4v-2.05l2 .3 2-.3z" fill="#2a3843"/><use xlink:href="#p" transform="translate(628.005 861.55)"/><use xlink:href="#o" transform="translate(665.79 861.55)"/><path d="M896 383c2.2-1.66 5.8-1.66 8 0l72 54c2.2 1.66 2.2 4.34 0 6l-72 54c-2.2 1.66-5.8 1.66-8 0l-72-54c-2.2-1.66-2.2-4.34 0-6z" fill="#2babee"/><use xlink:href="#q" transform="translate(839.038 436.733)"/><use xlink:href="#r" transform="translate(893.296 436.733)"/><use xlink:href="#s" transform="translate(858.047 452.29)"/><path d="M896 563c2.2-1.66 5.8-1.66 8 0l72 54c2.2 1.66 2.2 4.34 0 6l-72 54c-2.2 1.66-5.8 1.66-8 0l-72-54c-2.2-1.66-2.2-4.34 0-6z" fill="#2babee"/><use xlink:href="#t" transform="translate(855.02 616.733)"/><use xlink:href="#u" transform="translate(908.034 616.733)"/><use xlink:href="#v" transform="translate(869.62 632.29)"/><path d="M616 723c2.2-1.66 5.8-1.66 8 0l72 54c2.2 1.66 2.2 4.34 0 6l-72 54c-2.2 1.66-5.8 1.66-8 0l-72-54c-2.2-1.66-2.2-4.34 0-6z" fill="#2babee"/><g><use xlink:href="#w" transform="translate(579.944 776.733)"/><use xlink:href="#x" transform="translate(640.953 776.733)"/><use xlink:href="#y" transform="translate(573.357 792.29)"/></g><defs><path fill="#333" d="M260 0v-277L1-667h134l184 286 182-286h134L377-277V0H260" id="z"/><path fill="#333" d="M38-242c0-140 102-253 245-253 153 0 246 120 238 288H148c8 73 63 133 154 133 47 0 103-19 137-53l48 69c-48 46-119 70-196 70C146 12 38-89 38-242zm245-167c-90 0-131 69-136 128h272c-2-57-41-128-136-128" id="A"/><path fill="#333" d="M26-63l48-76c34 35 101 68 164 68s95-23 95-59c0-42-51-57-110-70-83-18-182-40-182-148 0-79 68-147 190-147 82 0 144 29 188 68l-44 74c-29-33-83-58-143-58-55 0-90 20-90 54 0 37 48 50 105 63 84 18 187 42 187 156 0 85-71 150-201 150-82 0-157-26-207-75" id="B"/><g id="a"><use transform="scale(.01556)" xlink:href="#z"/><use transform="matrix(.01556 0 0 .01556 7.964 0)" xlink:href="#A"/><use transform="matrix(.01556 0 0 .01556 16.63 0)" xlink:href="#B"/></g><path fill="#333" d="M536 0L188-486V0H71v-667h120l341 473v-473h117V0H536" id="C"/><path fill="#333" d="M286 12C133 12 38-103 38-242c0-138 95-253 248-253 155 0 249 115 249 253 0 139-94 254-249 254zm0-93c90 0 140-75 140-161 0-85-50-160-140-160-89 0-139 75-139 160 0 86 50 161 139 161" id="D"/><g id="b"><use transform="scale(.01556)" xlink:href="#C"/><use transform="matrix(.01556 0 0 .01556 11.2 0)" xlink:href="#D"/></g><path fill="#2a3843" d="M41-333c0-199 141-345 341-345s341 146 341 345S582 12 382 12 41-134 41-333zm562 0c0-138-87-241-221-241-135 0-221 103-221 241 0 137 86 241 221 241 134 0 221-104 221-241" id="E"/><path fill="#2a3843" d="M195 0L-2-483h112l141 362 141-362h113L308 0H195" id="F"/><path fill="#2a3843" d="M38-242c0-140 102-253 245-253 153 0 246 120 238 288H148c8 73 63 133 154 133 47 0 103-19 137-53l48 69c-48 46-119 70-196 70C146 12 38-89 38-242zm245-167c-90 0-131 69-136 128h272c-2-57-41-128-136-128" id="G"/><path fill="#2a3843" d="M68 0v-483h105v71c36-46 94-82 157-82v104c-63-14-128 20-157 61V0H68" id="H"/><g id="c"><use transform="scale(.01556)" xlink:href="#E"/><use transform="matrix(.01556 0 0 .01556 11.9 0)" xlink:href="#F"/><use transform="matrix(.01556 0 0 .01556 19.724 0)" xlink:href="#G"/><use transform="matrix(.01556 0 0 .01556 28.39 0)" xlink:href="#H"/></g><path fill="#2a3843" d="M564-194C564-92 498-4 348 10v90h-80V11C164 3 88-38 35-94l65-90c39 41 96 78 168 89v-193C165-314 56-352 56-482c0-102 83-183 212-194v-92h80v94c82 8 149 40 201 90l-67 87c-37-37-84-60-134-70v172c104 28 216 67 216 201zM176-490c0 39 39 59 92 74v-156c-57 6-92 37-92 82zM348-95c69-10 97-50 97-88 0-46-41-67-97-84v172" id="I"/><path fill="#2a3843" d="M192 0v-515L83-402l-68-71 192-194h102V0H192" id="J"/><g id="d"><use transform="scale(.01556)" xlink:href="#I"/><use transform="matrix(.01556 0 0 .01556 9.41 0)" xlink:href="#J"/></g><path fill="#2a3843" d="M660 0v-315c0-52-23-87-79-87-47 0-91 33-112 64V0H364v-315c0-52-23-87-80-87-46 0-89 33-111 65V0H68v-483h105v66c20-30 84-78 157-78 72 0 116 36 132 89 28-44 92-89 164-89 89 0 139 48 139 146V0H660" id="K"/><path fill="#2a3843" d="M120-557c-35 0-65-29-65-65s30-65 65-65c36 0 65 29 65 65s-29 65-65 65zM68 0v-483h105V0H68" id="L"/><path fill="#2a3843" d="M68 0v-667h105V0H68" id="M"/><path fill="#2a3843" d="M286 12C133 12 38-103 38-242c0-138 95-253 248-253 155 0 249 115 249 253 0 139-94 254-249 254zm0-93c90 0 140-75 140-161 0-85-50-160-140-160-89 0-139 75-139 160 0 86 50 161 139 161" id="N"/><path fill="#2a3843" d="M394 0v-302c0-75-38-100-97-100-54 0-100 32-124 65V0H68v-483h105v66c32-38 94-78 170-78 104 0 156 56 156 155V0H394" id="O"/><g id="e"><use transform="scale(.01556)" xlink:href="#K"/><use transform="matrix(.01556 0 0 .01556 12.958 0)" xlink:href="#L"/><use transform="matrix(.01556 0 0 .01556 16.707 0)" xlink:href="#M"/><use transform="matrix(.01556 0 0 .01556 20.456 0)" xlink:href="#M"/><use transform="matrix(.01556 0 0 .01556 24.204 0)" xlink:href="#L"/><use transform="matrix(.01556 0 0 .01556 27.953 0)" xlink:href="#N"/><use transform="matrix(.01556 0 0 .01556 36.867 0)" xlink:href="#O"/></g><path fill="#fff" d="M28-94l65-90c46 49 118 92 211 92 96 0 134-47 134-91 0-60-71-78-152-99-109-27-237-59-237-200 0-110 97-195 243-195 104 0 188 33 250 93l-67 87c-52-52-123-76-193-76-69 0-113 33-113 83 0 52 68 69 147 89 110 28 241 62 241 207 0 111-78 206-258 206C176 12 87-31 28-94" id="P"/><path fill="#fff" d="M38-242c0-140 102-253 245-253 153 0 246 120 238 288H148c8 73 63 133 154 133 47 0 103-19 137-53l48 69c-48 46-119 70-196 70C146 12 38-89 38-242zm245-167c-90 0-131 69-136 128h272c-2-57-41-128-136-128" id="Q"/><path fill="#fff" d="M68 0v-667h105V0H68" id="R"/><path fill="#fff" d="M93 0v-391H13v-92h80C76-642 202-715 330-658l-23 77c-64-31-122 9-109 98h98v92h-98V0H93" id="S"/><g id="f"><use transform="scale(.01556)" xlink:href="#P"/><use transform="matrix(.01556 0 0 .01556 9.24 0)" xlink:href="#Q"/><use transform="matrix(.01556 0 0 .01556 17.904 0)" xlink:href="#R"/><use transform="matrix(.01556 0 0 .01556 21.653 0)" xlink:href="#S"/></g><path fill="#fff" d="M535 0v-291H188V0H71v-667h117v273h347v-273h117V0H535" id="T"/><path fill="#fff" d="M286 12C133 12 38-103 38-242c0-138 95-253 248-253 155 0 249 115 249 253 0 139-94 254-249 254zm0-93c90 0 140-75 140-161 0-85-50-160-140-160-89 0-139 75-139 160 0 86 50 161 139 161" id="U"/><path fill="#fff" d="M26-63l48-76c34 35 101 68 164 68s95-23 95-59c0-42-51-57-110-70-83-18-182-40-182-148 0-79 68-147 190-147 82 0 144 29 188 68l-44 74c-29-33-83-58-143-58-55 0-90 20-90 54 0 37 48 50 105 63 84 18 187 42 187 156 0 85-71 150-201 150-82 0-157-26-207-75" id="V"/><path fill="#fff" d="M213 12C132 12 89-32 89-112v-279H9v-92h80v-132h105v132h98v92h-98v253c-9 59 64 71 93 40l25 79c-19 18-50 31-99 31" id="W"/><path fill="#fff" d="M408 0v-66c-37 48-93 78-155 78C129 12 38-82 38-241c0-156 90-254 215-254 60 0 116 28 155 79v-251h105V0H408zm0-145v-192c-24-36-75-65-125-65-83 0-136 67-136 161 0 93 53 160 136 160 50 0 101-28 125-64" id="X"/><g id="g"><use transform="scale(.01556)" xlink:href="#T"/><use transform="matrix(.01556 0 0 .01556 11.247 0)" xlink:href="#U"/><use transform="matrix(.01556 0 0 .01556 20.16 0)" xlink:href="#V"/><use transform="matrix(.01556 0 0 .01556 27.502 0)" xlink:href="#W"/><use transform="matrix(.01556 0 0 .01556 32.464 0)" xlink:href="#Q"/><use transform="matrix(.01556 0 0 .01556 41.13 0)" xlink:href="#X"/></g><path fill="#fff" d="M386 12C194 12 41-128 41-333s153-345 345-345c140 0 223 70 273 150l-100 51c-32-55-96-97-173-97-127 0-225 101-225 241S259-92 386-92c77 0 141-41 173-97l100 51C608-58 526 12 386 12" id="Y"/><path fill="#fff" d="M660 0v-315c0-52-23-87-79-87-47 0-91 33-112 64V0H364v-315c0-52-23-87-80-87-46 0-89 33-111 65V0H68v-483h105v66c20-30 84-78 157-78 72 0 116 36 132 89 28-44 92-89 164-89 89 0 139 48 139 146V0H660" id="Z"/><path fill="#fff" d="M68 0v-483h105v71c36-46 94-82 157-82v104c-63-14-128 20-157 61V0H68" id="aa"/><path fill="#fff" d="M38-242c0-146 103-253 250-253 94 0 151 40 185 86l-69 64c-27-38-64-57-111-57-88 0-146 66-146 160S205-81 293-81c47 0 84-20 111-57l69 64c-34 46-91 86-185 86C141 12 38-95 38-242" id="ab"/><g id="h"><use transform="scale(.01556)" xlink:href="#Q"/><use transform="matrix(.01556 0 0 .01556 8.664 0)" xlink:href="#Y"/><use transform="matrix(.01556 0 0 .01556 19.273 0)" xlink:href="#U"/><use transform="matrix(.01556 0 0 .01556 28.187 0)" xlink:href="#Z"/><use transform="matrix(.01556 0 0 .01556 41.144 0)" xlink:href="#Z"/><use transform="matrix(.01556 0 0 .01556 54.102 0)" xlink:href="#Q"/><use transform="matrix(.01556 0 0 .01556 62.767 0)" xlink:href="#aa"/><use transform="matrix(.01556 0 0 .01556 68.164 0)" xlink:href="#ab"/><use transform="matrix(.01556 0 0 .01556 75.896 0)" xlink:href="#Q"/></g><g id="i"><use transform="scale(.01556)" xlink:href="#T"/><use transform="matrix(.01556 0 0 .01556 11.247 0)" xlink:href="#U"/><use transform="matrix(.01556 0 0 .01556 20.16 0)" xlink:href="#V"/><use transform="matrix(.01556 0 0 .01556 27.502 0)" xlink:href="#W"/><use transform="matrix(.01556 0 0 .01556 32.464 0)" xlink:href="#Q"/><use transform="matrix(.01556 0 0 .01556 41.13 0)" xlink:href="#X"/></g><g id="j"><use transform="scale(.01556)" xlink:href="#Q"/><use transform="matrix(.01556 0 0 .01556 8.664 0)" xlink:href="#Y"/><use transform="matrix(.01556 0 0 .01556 19.273 0)" xlink:href="#U"/><use transform="matrix(.01556 0 0 .01556 28.187 0)" xlink:href="#Z"/><use transform="matrix(.01556 0 0 .01556 41.144 0)" xlink:href="#Z"/><use transform="matrix(.01556 0 0 .01556 54.102 0)" xlink:href="#Q"/><use transform="matrix(.01556 0 0 .01556 62.767 0)" xlink:href="#aa"/><use transform="matrix(.01556 0 0 .01556 68.164 0)" xlink:href="#ab"/><use transform="matrix(.01556 0 0 .01556 75.896 0)" xlink:href="#Q"/></g><path fill="#2a3843" d="M71-263v-404h118v400c0 106 59 175 171 175 111 0 170-69 170-175v-400h118v403c0 166-95 276-288 276C166 12 71-99 71-263" id="ac"/><path fill="#2a3843" d="M408 0v-66c-37 48-93 78-155 78C129 12 38-82 38-241c0-156 90-254 215-254 60 0 116 28 155 79v-251h105V0H408zm0-145v-192c-24-36-75-65-125-65-83 0-136 67-136 161 0 93 53 160 136 160 50 0 101-28 125-64" id="ad"/><g id="k"><use transform="scale(.01556)" xlink:href="#ac"/><use transform="matrix(.01556 0 0 .01556 11.184 0)" xlink:href="#O"/><use transform="matrix(.01556 0 0 .01556 20.004 0)" xlink:href="#ad"/><use transform="matrix(.01556 0 0 .01556 29.042 0)" xlink:href="#G"/><use transform="matrix(.01556 0 0 .01556 37.707 0)" xlink:href="#H"/></g><g id="l"><use transform="scale(.01556)" xlink:href="#I"/><use transform="matrix(.01556 0 0 .01556 9.41 0)" xlink:href="#J"/></g><g id="m"><use transform="scale(.01556)" xlink:href="#K"/><use transform="matrix(.01556 0 0 .01556 12.958 0)" xlink:href="#L"/><use transform="matrix(.01556 0 0 .01556 16.707 0)" xlink:href="#M"/><use transform="matrix(.01556 0 0 .01556 20.456 0)" xlink:href="#M"/><use transform="matrix(.01556 0 0 .01556 24.204 0)" xlink:href="#L"/><use transform="matrix(.01556 0 0 .01556 27.953 0)" xlink:href="#N"/><use transform="matrix(.01556 0 0 .01556 36.867 0)" xlink:href="#O"/></g><path fill="#333" d="M71-263v-404h118v400c0 106 59 175 171 175 111 0 170-69 170-175v-400h118v403c0 166-95 276-288 276C166 12 71-99 71-263" id="ae"/><path fill="#333" d="M394 0v-302c0-75-38-100-97-100-54 0-100 32-124 65V0H68v-483h105v66c32-38 94-78 170-78 104 0 156 56 156 155V0H394" id="af"/><path fill="#333" d="M408 0v-66c-37 48-93 78-155 78C129 12 38-82 38-241c0-156 90-254 215-254 60 0 116 28 155 79v-251h105V0H408zm0-145v-192c-24-36-75-65-125-65-83 0-136 67-136 161 0 93 53 160 136 160 50 0 101-28 125-64" id="ag"/><path fill="#333" d="M68 0v-483h105v71c36-46 94-82 157-82v104c-63-14-128 20-157 61V0H68" id="ah"/><g id="n"><use transform="scale(.01556)" xlink:href="#ae"/><use transform="matrix(.01556 0 0 .01556 11.184 0)" xlink:href="#af"/><use transform="matrix(.01556 0 0 .01556 20.004 0)" xlink:href="#ag"/><use transform="matrix(.01556 0 0 .01556 29.042 0)" xlink:href="#A"/><use transform="matrix(.01556 0 0 .01556 37.707 0)" xlink:href="#ah"/></g><path fill="#333" d="M564-194C564-92 498-4 348 10v90h-80V11C164 3 88-38 35-94l65-90c39 41 96 78 168 89v-193C165-314 56-352 56-482c0-102 83-183 212-194v-92h80v94c82 8 149 40 201 90l-67 87c-37-37-84-60-134-70v172c104 28 216 67 216 201zM176-490c0 39 39 59 92 74v-156c-57 6-92 37-92 82zM348-95c69-10 97-50 97-88 0-46-41-67-97-84v172" id="ai"/><path fill="#333" d="M56-91l67-80c45 51 105 79 180 79 84 0 137-52 137-117 0-72-52-119-134-119-57 0-104 18-146 58l-83-24v-373h437v103H194v193c32-32 87-58 151-58 112 0 213 79 213 215C558-75 453 12 304 12 189 12 110-27 56-91" id="aj"/><path fill="#333" d="M41-333c0-168 80-344 267-344s267 176 267 344S495 12 308 12 41-165 41-333zm415 0c0-127-39-240-148-240S160-460 160-333 199-92 308-92s148-114 148-241" id="ak"/><path fill="#333" d="M388 0L240-199l-67 69V0H68v-667h105v417l213-233h130L315-264 520 0H388" id="al"/><g id="o"><use transform="scale(.01556)" xlink:href="#ai"/><use transform="matrix(.01556 0 0 .01556 9.41 0)" xlink:href="#aj"/><use transform="matrix(.01556 0 0 .01556 18.744 0)" xlink:href="#ak"/><use transform="matrix(.01556 0 0 .01556 28.327 0)" xlink:href="#al"/></g><path fill="#333" d="M41-333c0-199 141-345 341-345s341 146 341 345S582 12 382 12 41-134 41-333zm562 0c0-138-87-241-221-241-135 0-221 103-221 241 0 137 86 241 221 241 134 0 221-104 221-241" id="am"/><path fill="#333" d="M195 0L-2-483h112l141 362 141-362h113L308 0H195" id="an"/><g id="p"><use transform="scale(.01556)" xlink:href="#am"/><use transform="matrix(.01556 0 0 .01556 11.9 0)" xlink:href="#an"/><use transform="matrix(.01556 0 0 .01556 19.724 0)" xlink:href="#A"/><use transform="matrix(.01556 0 0 .01556 28.39 0)" xlink:href="#ah"/></g><path fill="#fff" d="M71-263v-404h118v400c0 106 59 175 171 175 111 0 170-69 170-175v-400h118v403c0 166-95 276-288 276C166 12 71-99 71-263" id="ao"/><path fill="#fff" d="M394 0v-302c0-75-38-100-97-100-54 0-100 32-124 65V0H68v-483h105v66c32-38 94-78 170-78 104 0 156 56 156 155V0H394" id="ap"/><path fill="#fff" d="M120-557c-35 0-65-29-65-65s30-65 65-65c36 0 65 29 65 65s-29 65-65 65zM68 0v-483h105V0H68" id="aq"/><path fill="#fff" d="M512 184H407V-67c-39 52-94 79-155 79C127 12 38-83 38-242s89-253 214-253c63 0 119 30 155 78v-66h105v667zM407-146v-191c-23-36-75-65-124-65-83 0-136 67-136 160 0 94 53 161 136 161 49 0 101-30 124-65" id="ar"/><path fill="#fff" d="M394 0v-64c-35 39-95 76-171 76C119 12 68-42 68-141v-342h105v304c-7 144 181 106 221 35v-339h105V0H394" id="as"/><g id="q"><use transform="scale(.01556)" xlink:href="#ao"/><use transform="matrix(.01556 0 0 .01556 11.184 0)" xlink:href="#ap"/><use transform="matrix(.01556 0 0 .01556 20.004 0)" xlink:href="#aq"/><use transform="matrix(.01556 0 0 .01556 23.753 0)" xlink:href="#ar"/><use transform="matrix(.01556 0 0 .01556 32.776 0)" xlink:href="#as"/><use transform="matrix(.01556 0 0 .01556 41.596 0)" xlink:href="#Q"/></g><g id="r"><use transform="scale(.01556)" xlink:href="#Y"/><use transform="matrix(.01556 0 0 .01556 10.61 0)" xlink:href="#as"/><use transform="matrix(.01556 0 0 .01556 19.43 0)" xlink:href="#V"/><use transform="matrix(.01556 0 0 .01556 26.77 0)" xlink:href="#W"/><use transform="matrix(.01556 0 0 .01556 31.733 0)" xlink:href="#U"/><use transform="matrix(.01556 0 0 .01556 40.647 0)" xlink:href="#Z"/><use transform="matrix(.01556 0 0 .01556 53.604 0)" xlink:href="#Q"/><use transform="matrix(.01556 0 0 .01556 62.27 0)" xlink:href="#aa"/></g><path fill="#fff" d="M71 0v-667h457v103H188v173h333v103H188v185h340V0H71" id="at"/><path fill="#fff" d="M373 0L248-178 122 0H5l177-248L15-483h118l115 164 114-164h118L313-248 491 0H373" id="au"/><path fill="#fff" d="M173 184H68v-667h105v66c36-48 92-78 155-78 125 0 214 94 214 253S453 12 328 12c-61 0-116-27-155-79v251zm260-426c0-93-53-160-136-160-49 0-101 29-124 65v191c23 35 75 65 124 65 83 0 136-67 136-161" id="av"/><path fill="#fff" d="M153-281c0-67 48-101 91-132 37-26 70-49 70-88s-30-72-95-72c-61 0-105 28-139 70l-67-75c51-62 128-99 218-99 126 0 203 67 203 157 0 83-55 124-106 158-52 35-102 84-51 137l-88 29c-24-23-36-52-36-85zm2 222c0-38 32-70 70-70s70 32 70 70-32 70-70 70-70-32-70-70" id="aw"/><g id="s"><use transform="scale(.01556)" xlink:href="#at"/><use transform="matrix(.01556 0 0 .01556 8.976 0)" xlink:href="#au"/><use transform="matrix(.01556 0 0 .01556 16.69 0)" xlink:href="#av"/><use transform="matrix(.01556 0 0 .01556 25.713 0)" xlink:href="#Q"/><use transform="matrix(.01556 0 0 .01556 34.378 0)" xlink:href="#aa"/><use transform="matrix(.01556 0 0 .01556 39.776 0)" xlink:href="#aq"/><use transform="matrix(.01556 0 0 .01556 43.524 0)" xlink:href="#Q"/><use transform="matrix(.01556 0 0 .01556 52.19 0)" xlink:href="#ap"/><use transform="matrix(.01556 0 0 .01556 61.01 0)" xlink:href="#ab"/><use transform="matrix(.01556 0 0 .01556 68.74 0)" xlink:href="#Q"/><use transform="matrix(.01556 0 0 .01556 76.782 0)" xlink:href="#aw"/></g><path fill="#fff" d="M543 0l-49-128H178L129 0H1l262-667h146L671 0H543zM336-568L211-231h250" id="ax"/><path fill="#fff" d="M363 0v-52C272 53 39 33 39-148c0-184 234-194 324-95v-72c0-56-46-90-113-90-54 0-101 20-143 61l-43-73c56-53 126-78 203-78 107 0 201 45 201 175V0H363zm0-110v-73c-45-73-218-69-218 37 0 105 174 109 218 36" id="ay"/><g id="t"><use transform="scale(.01556)" xlink:href="#ax"/><use transform="matrix(.01556 0 0 .01556 10.47 0)" xlink:href="#ap"/><use transform="matrix(.01556 0 0 .01556 19.29 0)" xlink:href="#ap"/><use transform="matrix(.01556 0 0 .01556 28.11 0)" xlink:href="#as"/><use transform="matrix(.01556 0 0 .01556 36.93 0)" xlink:href="#ay"/><use transform="matrix(.01556 0 0 .01556 45.267 0)" xlink:href="#R"/></g><g id="u"><use transform="scale(.01556)" xlink:href="#P"/><use transform="matrix(.01556 0 0 .01556 9.007 0)" xlink:href="#W"/><use transform="matrix(.01556 0 0 .01556 13.97 0)" xlink:href="#U"/><use transform="matrix(.01556 0 0 .01556 22.882 0)" xlink:href="#aa"/><use transform="matrix(.01556 0 0 .01556 28.28 0)" xlink:href="#Q"/></g><path fill="#fff" d="M452 0L304-249H188V0H71v-667h293c132 0 218 86 218 209 0 119-78 183-158 196L587 0H452zm10-458c0-64-48-106-114-106H188v212h160c66 0 114-42 114-106" id="az"/><path fill="#fff" d="M195 0L-2-483h112l141 362 141-362h113L308 0H195" id="aA"/><g id="v"><use transform="scale(.01556)" xlink:href="#az"/><use transform="matrix(.01556 0 0 .01556 9.302 0)" xlink:href="#Q"/><use transform="matrix(.01556 0 0 .01556 17.967 0)" xlink:href="#aA"/><use transform="matrix(.01556 0 0 .01556 25.79 0)" xlink:href="#Q"/><use transform="matrix(.01556 0 0 .01556 34.456 0)" xlink:href="#ap"/><use transform="matrix(.01556 0 0 .01556 43.276 0)" xlink:href="#as"/><use transform="matrix(.01556 0 0 .01556 52.096 0)" xlink:href="#Q"/></g><path fill="#fff" d="M71 0v-667h457v103H188v173h333v103H188V0H71" id="aB"/><path fill="#fff" d="M62 124l49-76c77 90 291 100 296-69v-58C370-31 315 1 252 1 129 1 38-88 38-247c0-156 90-248 214-248 61 0 116 28 155 79v-67h105v458c0 174-129 221-248 221-82 0-143-18-202-72zm345-281v-180c-23-36-75-65-124-65-83 0-136 62-136 155S200-92 283-92c49 0 101-29 124-65" id="aC"/><g id="w"><use transform="scale(.01556)" xlink:href="#aB"/><use transform="matrix(.01556 0 0 .01556 8.742 0)" xlink:href="#as"/><use transform="matrix(.01556 0 0 .01556 17.562 0)" xlink:href="#ap"/><use transform="matrix(.01556 0 0 .01556 26.382 0)" xlink:href="#X"/><use transform="matrix(.01556 0 0 .01556 35.42 0)" xlink:href="#aq"/><use transform="matrix(.01556 0 0 .01556 39.17 0)" xlink:href="#ap"/><use transform="matrix(.01556 0 0 .01556 47.99 0)" xlink:href="#aC"/></g><g id="x"><use transform="scale(.01556)" xlink:href="#S"/><use transform="matrix(.01556 0 0 .01556 4.79 0)" xlink:href="#U"/><use transform="matrix(.01556 0 0 .01556 13.704 0)" xlink:href="#aa"/></g><path fill="#fff" d="M71 0v-667h248c208 0 349 138 349 334S527 0 319 0H71zm117-103h131c145 0 229-104 229-230 0-129-80-231-229-231H188v461" id="aD"/><g id="y"><use transform="scale(.01556)" xlink:href="#aD"/><use transform="matrix(.01556 0 0 .01556 11.044 0)" xlink:href="#Q"/><use transform="matrix(.01556 0 0 .01556 19.71 0)" xlink:href="#aA"/><use transform="matrix(.01556 0 0 .01556 27.533 0)" xlink:href="#Q"/><use transform="matrix(.01556 0 0 .01556 36.198 0)" xlink:href="#R"/><use transform="matrix(.01556 0 0 .01556 39.947 0)" xlink:href="#U"/><use transform="matrix(.01556 0 0 .01556 48.86 0)" xlink:href="#av"/><use transform="matrix(.01556 0 0 .01556 57.882 0)" xlink:href="#Z"/><use transform="matrix(.01556 0 0 .01556 70.84 0)" xlink:href="#Q"/><use transform="matrix(.01556 0 0 .01556 79.504 0)" xlink:href="#ap"/><use transform="matrix(.01556 0 0 .01556 88.324 0)" xlink:href="#W"/></g></defs></g></svg>