<svg width="35" height="35" viewBox="0 0 35 35" xmlns="http://www.w3.org/2000/svg"><title>linkedin</title><g fill="none" fill-rule="evenodd"><path d="M17.5 0C7.835 0 0 7.835 0 17.5S7.835 35 17.5 35 35 27.165 35 17.5 27.165 0 17.5 0z" fill-opacity=".01" fill="#FFF"/><path d="M23.577 12.118c-2.5 0-3.62 1.41-4.246 2.4V12.46h-4.71c.07 1.364 0 14.54 0 14.54h4.71v-8.12c0-.435.04-.868.16-1.18.34-.868 1.12-1.767 2.42-1.767 1.707 0 2.39 1.334 2.39 3.288V27H29v-8.337c0-4.466-2.324-6.545-5.423-6.545zM9.665 5C8.053 5 7 6.086 7 7.512c0 1.396 1.022 2.513 2.604 2.513h.03c1.642 0 2.665-1.117 2.665-2.513C12.26 6.086 11.27 5 9.66 5zM7 12.118v14.54h4.71v-14.54H7z" fill="#2BABEE"/></g></svg>