<svg xmlns="http://www.w3.org/2000/svg" xmlns:xlink="http://www.w3.org/1999/xlink" width="932" height="379.33"><g transform="translate(-179.33333333333326 -880.3333333333333)"><path d="M851.33 1103.83c0-2.76 2.24-5 5-5h230c2.76 0 5 2.24 5 5v28c0 2.76-2.24 5-5 5h-230c-2.76 0-5-2.24-5-5z" fill="none"/><use xlink:href="#a" transform="matrix(1,0,0,1,851.3333333333333,1098.8333333333333) translate(48.747 24.22)"/><use xlink:href="#b" transform="matrix(1,0,0,1,851.3333333333333,1098.8333333333333) translate(123.62700000000001 24.22)"/><path d="M651.07 1016.8h-251.6" stroke="#000" stroke-width="4" fill="none"/><path d="M651.08 1018.8v-4zM413.73 1021.44l-14.27-4.64 14.27-4.64z"/><path d="M415.73 1024.2l-16.27-5.3v-4.2l16.27-5.3zm-9.8-7.4l5.8 1.88v-3.76z"/><path d="M558.33 1184.67c0-2.76 2.24-5 5-5h230c2.76 0 5 2.24 5 5v50c0 2.76-2.24 5-5 5h-230c-2.76 0-5-2.24-5-5z" fill="none"/><use xlink:href="#c" transform="matrix(1,0,0,1,558.3333333333333,1179.666666666667) translate(52.608000000000004 26.22)"/><use xlink:href="#d" transform="matrix(1,0,0,1,558.3333333333333,1179.666666666667) translate(106.32 26.22)"/><use xlink:href="#e" transform="matrix(1,0,0,1,558.3333333333333,1179.666666666667) translate(149.574 26.22)"/><use xlink:href="#f" transform="matrix(1,0,0,1,558.3333333333333,1179.666666666667) translate(120 44.22)"/><path d="M399.46 1059.4v-83.15c0-4.08-3.67-10.92-8.3-10.92H247.18c-4.63 0-9.07 6.84-9.07 10.92v83.16c-16.2 17.3-15.43 17.3-15.43 17.3 0 4.9 4.44 8.63 10.23 8.63h172.54c5.8 0 10.23-4.08 10.23-8.64l-16.2-17.3zm-66.97 18.73h-30.12c-1.55 0-3.1-.72-3.1-1.44l3.48-5.65c0-.72 1.16-1.2 2.7-1.2h23.94c1.16 0 2.32.48 2.32 1.2l3.86 5.64c0 1.07-1.55 1.43-3.1 1.43zm59.82-19.2H245.25v-81.96c0-1.92 1.93-4.56 4.05-4.56h139.35c2.13 0 3.67 2.65 3.67 4.57v81.96zM703.8 965.33h-46.87c-3.22 0-5.85 2.64-5.85 5.88v114.13h58.5V971.2c0-3.23-2.62-5.87-5.78-5.87zm-2.93 108.24h-41.02v-5.88h41.02v5.87zm0-11.64h-41.02v-5.88h41.02v5.88zm0-73.2h-41.02v-5.88h41.02v5.88zM995.7 965.83h-46.86c-3.2 0-5.85 2.64-5.85 5.88v114.13h58.5V971.7c0-3.23-2.63-5.87-5.8-5.87zm-2.9 108.24h-41.03v-5.88h41.02v5.87zm0-11.64h-41.03v-5.88h41.02v5.88zm0-73.2h-41.03v-5.88h41.02v5.88z" fill="#2babee"/><path d="M199.33 905.33c0-2.76 2.24-5 5-5h230c2.76 0 5 2.24 5 5v50c0 2.76-2.24 5-5 5h-230c-2.76 0-5-2.24-5-5z" fill="none"/><use xlink:href="#g" transform="matrix(1,0,0,1,199.33333333333326,900.3333333333333) translate(8.012999999999991 26.22)"/><use xlink:href="#h" transform="matrix(1,0,0,1,199.33333333333326,900.3333333333333) translate(90.939 26.22)"/><use xlink:href="#i" transform="matrix(1,0,0,1,199.33333333333326,900.3333333333333) translate(146.30700000000002 26.22)"/><use xlink:href="#j" transform="matrix(1,0,0,1,199.33333333333326,900.3333333333333) translate(196.68900000000002 26.22)"/><use xlink:href="#k" transform="matrix(1,0,0,1,199.33333333333326,900.3333333333333) translate(81.678 44.22)"/><use xlink:href="#l" transform="matrix(1,0,0,1,199.33333333333326,900.3333333333333) translate(121.79999999999998 44.22)"/><path d="M559.33 1083.83c0-2.76 2.24-5 5-5h230c2.76 0 5 2.24 5 5v50c0 2.76-2.24 5-5 5h-230c-2.76 0-5-2.24-5-5z" fill="none"/><use xlink:href="#m" transform="matrix(1,0,0,1,559.3333333333333,1078.8333333333333) translate(73.551 35.22)"/><use xlink:href="#n" transform="matrix(1,0,0,1,559.3333333333333,1078.8333333333333) translate(114.15899999999999 35.22)"/><path d="M199.33 1096c0-2.76 2.24-5 5-5h230c2.76 0 5 2.24 5 5v18.67c0 2.76-2.24 5-5 5h-230c-2.76 0-5-2.24-5-5z" fill="none"/><use xlink:href="#o" transform="matrix(1,0,0,1,199.33333333333337,1090.9999999999998) translate(19.02900000000001 19.72)"/><use xlink:href="#p" transform="matrix(1,0,0,1,199.33333333333337,1090.9999999999998) translate(113.763 19.72)"/><use xlink:href="#q" transform="matrix(1,0,0,1,199.33333333333337,1090.9999999999998) translate(154.40699999999998 19.72)"/><path d="M943 1016.5H709.6" stroke="#000" stroke-width="4" fill="none"/><path d="M943 1018.5v-4zM723.86 1021.14l-14.27-4.64 14.26-4.64z"/><path d="M725.86 1023.9l-16.27-5.3v-4.2l16.26-5.3zm-9.8-7.4l5.8 1.88v-3.76z"/><path d="M753.97 1030.28c0-2.76 2.24-5 5-5h156.25c2.76 0 5 2.24 5 5v48c0 2.76-2.24 5-5 5H758.97c-2.76 0-5-2.24-5-5z" fill="none"/><use xlink:href="#r" transform="matrix(1,0,0,1,753.9666666666665,1025.2833333333333) translate(7.7109999999999985 25.22)"/><use xlink:href="#s" transform="matrix(1,0,0,1,753.9666666666665,1025.2833333333333) translate(82.59100000000001 25.22)"/><use xlink:href="#t" transform="matrix(1,0,0,1,753.9666666666665,1025.2833333333333) translate(17.197000000000003 43.22)"/><use xlink:href="#u" transform="matrix(1,0,0,1,753.9666666666665,1025.2833333333333) translate(60.451 43.22)"/><use xlink:href="#v" transform="matrix(1,0,0,1,753.9666666666665,1025.2833333333333) translate(113.137 43.22)"/><path d="M679.8 1061.87c0-2.76 2.23-5 5-5h59.48c2.76 0 5 2.24 5 5v28c0 2.76-2.24 5-5 5h-59.5c-2.75 0-5-2.24-5-5z" stroke="#fff" stroke-width="4" fill="#f14452"/><path d="M686.17 1070.5c0-2.76 2.24-5 5-5h48.52c2.75 0 5 2.24 5 5v12.67c0 2.76-2.25 5-5 5h-48.53c-2.76 0-5-2.24-5-5z" fill="none"/><use xlink:href="#w" transform="matrix(1,0,0,1,686.1666666666662,1065.5) translate(0 14.722222222222223)"/><use xlink:href="#x" transform="matrix(1,0,0,1,686.1666666666662,1065.5) translate(26.7 14.722222222222223)"/><path d="M856.43 1016.08c0 7.92-6.4 14.34-14.33 14.34-7.92 0-14.33-6.42-14.33-14.34 0-7.9 6.4-14.33 14.33-14.33 7.92 0 14.33 6.42 14.33 14.33z" stroke="#000" stroke-width="2" fill="#fff"/><path d="M829.8 1008.75c0-2.76 2.25-5 5-5h14c2.77 0 5 2.24 5 5v15.33c0 2.76-2.23 5-5 5h-14c-2.75 0-5-2.24-5-5z" fill="none"/><use xlink:href="#y" transform="matrix(1,0,0,1,829.8083333333333,1003.7500000000006) translate(6.6450000000000005 18.22)"/><path d="M551.42 1015.67c0 7.9-6.42 14.33-14.34 14.33-7.9 0-14.33-6.42-14.33-14.33 0-7.92 6.42-14.34 14.33-14.34 7.92 0 14.34 6.42 14.34 14.34z" stroke="#000" stroke-width="2" fill="#fff"/><path d="M525.17 1008.33c0-2.76 2.24-5 5-5h14c2.76 0 5 2.24 5 5v15.34c0 2.76-2.24 5-5 5h-14c-2.76 0-5-2.24-5-5z" fill="none"/><use xlink:href="#z" transform="matrix(1,0,0,1,525.1666666666669,1003.3333333333342) translate(6.8340000000000005 18.22)"/><path d="M340.2 1153.06h-1.05v-1.84c0-3.86-2.56-5.86-5.55-5.86h-.5c-3.05 0-5.57 1.94-5.57 5.86v1.84h-1.02c-.43 0-1.03.56-1.03 1v9.84c0 .43.6 1 1.04 1h13.68c.44 0 1.04-.57 1.04-1v-9.85c-.05-.43-.65-1-1.03-1zm-6.12 5.82v4.08h-1.52v-4.08c-.6-.28-1.04-.84-1.04-1.53 0-.93.83-1.7 1.8-1.7.98 0 1.8.77 1.8 1.7 0 .63-.44 1.2-1.04 1.53zm3.17-5.82h-7.8v-1.84c0-2.46 1.36-4.14 3.66-4.14h.5c2.34 0 3.65 1.68 3.65 4.14v1.84z" fill="#0eb29c"/><path d="M974.7 1040.03c0-2.76 2.25-5 5-5h85.75c2.76 0 5 2.24 5 5v50c0 2.76-2.24 5-5 5H979.7c-2.75 0-5-2.24-5-5z" stroke="#fff" stroke-width="4" fill="#0eb29c"/><path d="M979.5 1061.5c0-2.76 2.23-5 5-5h77.9c2.75 0 5 2.24 5 5v18.67c0 2.76-2.25 5-5 5h-77.9c-2.77 0-5-2.24-5-5z" fill="none"/><g><use xlink:href="#A" transform="matrix(1,0,0,1,979.4888791975576,1056.4999999999995) translate(0 17.72222222222222)"/></g><path d="M979.08 1078.17c0-2.76 2.24-5 5-5h83.53c2.77 0 5 2.24 5 5v12.66c0 2.76-2.23 5-5 5H984.1c-2.76 0-5-2.24-5-5z" fill="none"/><g><use xlink:href="#B" transform="matrix(1,0,0,1,979.0833333333329,1073.1666666666667) translate(0 15.366666666666667)"/><use xlink:href="#C" transform="matrix(1,0,0,1,979.0833333333329,1073.1666666666667) translate(32.080000000000005 15.366666666666667)"/></g><path d="M1064.1 1047.16h-1.03v-1.84c0-3.86-2.57-5.85-5.56-5.85h-.48c-3.05 0-5.57 1.93-5.57 5.85v1.84h-1.02c-.45 0-1.04.57-1.04 1v9.84c0 .43.58 1 1.03 1h13.66c.44 0 1.03-.57 1.03-1v-9.84c-.04-.43-.64-1-1.02-1zm-6.1 5.82v4.08h-1.53v-4.08c-.6-.27-1.04-.84-1.04-1.52 0-.94.84-1.72 1.8-1.72 1 0 1.8.78 1.8 1.72 0 .62-.43 1.2-1.03 1.52zm3.17-5.82h-7.8v-1.84c0-2.46 1.35-4.14 3.65-4.14h.5c2.34 0 3.65 1.68 3.65 4.14v1.84z" fill="#fff"/><path d="M452.13 1031.5c0-2.76 2.23-5 5-5h156.25c2.76 0 5 2.24 5 5v48c0 2.76-2.24 5-5 5H457.13c-2.77 0-5-2.24-5-5z" fill="none"/><g><use xlink:href="#r" transform="matrix(1,0,0,1,452.125,1026.5) translate(7.7109999999999985 25.22)"/><use xlink:href="#s" transform="matrix(1,0,0,1,452.125,1026.5) translate(82.59100000000001 25.22)"/><use xlink:href="#f" transform="matrix(1,0,0,1,452.125,1026.5) translate(83.5 43.22)"/></g><path d="M317 1119.67v48c0 2.76 2.24 5 5 5h648.33c2.76 0 5-2.24 5-5v-30.84" stroke="#0eb29c" stroke-width="4" fill="none"/><path d="M979.97 1151.1h-9.27l4.63-14.27z" fill="#0eb29c"/><path d="M982.72 1153.1h-14.77l5.28-16.27h4.2zm-9.27-4h3.77l-1.9-5.8z" fill="#0eb29c"/><path d="M692.33 1172c0 7.92-6.4 14.33-14.33 14.33-7.92 0-14.33-6.4-14.33-14.33 0-7.92 6.4-14.33 14.33-14.33 7.92 0 14.33 6.4 14.33 14.33z" stroke="#000" stroke-width="2" fill="#fff"/><path d="M665.08 1164.67c0-2.76 2.24-5 5-5h14c2.76 0 5 2.24 5 5V1180c0 2.76-2.24 5-5 5h-14c-2.76 0-5-2.24-5-5z" fill="none"/><g><use xlink:href="#D" transform="matrix(1,0,0,1,665.0833333332945,1159.6666666666279) translate(8.58 18.22)"/></g><defs><path fill="#999" d="M71 0v-667h293c140 0 218 96 218 209s-79 209-218 209H188V0H71zm391-458c0-64-48-106-114-106H188v212h160c66 0 114-42 114-106" id="E"/><path fill="#999" d="M363 0v-52C272 53 39 33 39-148c0-184 234-194 324-95v-72c0-56-46-90-113-90-54 0-101 20-143 61l-43-73c56-53 126-78 203-78 107 0 201 45 201 175V0H363zm0-110v-73c-45-73-218-69-218 37 0 105 174 109 218 36" id="F"/><path fill="#999" d="M63 95c45 16 90 10 109-34l24-55L-2-483h112l141 362 141-362h113L272 87C230 187 154 208 47 189" id="G"/><path fill="#999" d="M660 0v-315c0-52-23-87-79-87-47 0-91 33-112 64V0H364v-315c0-52-23-87-80-87-46 0-89 33-111 65V0H68v-483h105v66c20-30 84-78 157-78 72 0 116 36 132 89 28-44 92-89 164-89 89 0 139 48 139 146V0H660" id="H"/><path fill="#999" d="M38-242c0-140 102-253 245-253 153 0 246 120 238 288H148c8 73 63 133 154 133 47 0 103-19 137-53l48 69c-48 46-119 70-196 70C146 12 38-89 38-242zm245-167c-90 0-131 69-136 128h272c-2-57-41-128-136-128" id="I"/><path fill="#999" d="M394 0v-302c0-75-38-100-97-100-54 0-100 32-124 65V0H68v-483h105v66c32-38 94-78 170-78 104 0 156 56 156 155V0H394" id="J"/><path fill="#999" d="M213 12C132 12 89-32 89-112v-279H9v-92h80v-132h105v132h98v92h-98v253c-9 59 64 71 93 40l25 79c-19 18-50 31-99 31" id="K"/><g id="a"><use transform="matrix(0.018,0,0,0.018,0,0)" xlink:href="#E"/><use transform="matrix(0.018,0,0,0.018,10.584,0)" xlink:href="#F"/><use transform="matrix(0.018,0,0,0.018,20.232,0)" xlink:href="#G"/><use transform="matrix(0.018,0,0,0.018,29.285999999999998,0)" xlink:href="#H"/><use transform="matrix(0.018,0,0,0.018,44.279999999999994,0)" xlink:href="#I"/><use transform="matrix(0.018,0,0,0.018,54.306,0)" xlink:href="#J"/><use transform="matrix(0.018,0,0,0.018,64.512,0)" xlink:href="#K"/></g><path fill="#999" d="M68 0v-483h105v71c36-46 94-82 157-82v104c-63-14-128 20-157 61V0H68" id="L"/><path fill="#999" d="M286 12C133 12 38-103 38-242c0-138 95-253 248-253 155 0 249 115 249 253 0 139-94 254-249 254zm0-93c90 0 140-75 140-161 0-85-50-160-140-160-89 0-139 75-139 160 0 86 50 161 139 161" id="M"/><path fill="#999" d="M195 0L-2-483h112l141 362 141-362h113L308 0H195" id="N"/><path fill="#999" d="M120-557c-35 0-65-29-65-65s30-65 65-65c36 0 65 29 65 65s-29 65-65 65zM68 0v-483h105V0H68" id="O"/><path fill="#999" d="M408 0v-66c-37 48-93 78-155 78C129 12 38-82 38-241c0-156 90-254 215-254 60 0 116 28 155 79v-251h105V0H408zm0-145v-192c-24-36-75-65-125-65-83 0-136 67-136 161 0 93 53 160 136 160 50 0 101-28 125-64" id="P"/><g id="b"><use transform="matrix(0.018,0,0,0.018,0,0)" xlink:href="#E"/><use transform="matrix(0.018,0,0,0.018,10.943999999999999,0)" xlink:href="#L"/><use transform="matrix(0.018,0,0,0.018,17.189999999999998,0)" xlink:href="#M"/><use transform="matrix(0.018,0,0,0.018,27.503999999999998,0)" xlink:href="#N"/><use transform="matrix(0.018,0,0,0.018,36.55799999999999,0)" xlink:href="#O"/><use transform="matrix(0.018,0,0,0.018,40.895999999999994,0)" xlink:href="#P"/><use transform="matrix(0.018,0,0,0.018,51.354,0)" xlink:href="#I"/><use transform="matrix(0.018,0,0,0.018,61.379999999999995,0)" xlink:href="#L"/></g><path d="M386 12C194 12 41-128 41-333s153-345 345-345c140 0 223 70 273 150l-100 51c-32-55-96-97-173-97-127 0-225 101-225 241S259-92 386-92c77 0 141-41 173-97l100 51C608-58 526 12 386 12" id="Q"/><path d="M68 0v-483h105v71c36-46 94-82 157-82v104c-63-14-128 20-157 61V0H68" id="R"/><path d="M38-242c0-140 102-253 245-253 153 0 246 120 238 288H148c8 73 63 133 154 133 47 0 103-19 137-53l48 69c-48 46-119 70-196 70C146 12 38-89 38-242zm245-167c-90 0-131 69-136 128h272c-2-57-41-128-136-128" id="S"/><path d="M408 0v-66c-37 48-93 78-155 78C129 12 38-82 38-241c0-156 90-254 215-254 60 0 116 28 155 79v-251h105V0H408zm0-145v-192c-24-36-75-65-125-65-83 0-136 67-136 161 0 93 53 160 136 160 50 0 101-28 125-64" id="T"/><path d="M120-557c-35 0-65-29-65-65s30-65 65-65c36 0 65 29 65 65s-29 65-65 65zM68 0v-483h105V0H68" id="U"/><path d="M213 12C132 12 89-32 89-112v-279H9v-92h80v-132h105v132h98v92h-98v253c-9 59 64 71 93 40l25 79c-19 18-50 31-99 31" id="V"/><g id="c"><use transform="matrix(0.018,0,0,0.018,0,0)" xlink:href="#Q"/><use transform="matrix(0.018,0,0,0.018,12.276,0)" xlink:href="#R"/><use transform="matrix(0.018,0,0,0.018,18.522,0)" xlink:href="#S"/><use transform="matrix(0.018,0,0,0.018,28.548,0)" xlink:href="#T"/><use transform="matrix(0.018,0,0,0.018,39.006,0)" xlink:href="#U"/><use transform="matrix(0.018,0,0,0.018,43.34400000000001,0)" xlink:href="#V"/></g><path d="M363 0v-52C272 53 39 33 39-148c0-184 234-194 324-95v-72c0-56-46-90-113-90-54 0-101 20-143 61l-43-73c56-53 126-78 203-78 107 0 201 45 201 175V0H363zm0-110v-73c-45-73-218-69-218 37 0 105 174 109 218 36" id="W"/><g id="d"><use transform="matrix(0.018,0,0,0.018,0,0)" xlink:href="#Q"/><use transform="matrix(0.018,0,0,0.018,12.276,0)" xlink:href="#W"/><use transform="matrix(0.018,0,0,0.018,21.924,0)" xlink:href="#R"/><use transform="matrix(0.018,0,0,0.018,28.169999999999998,0)" xlink:href="#T"/></g><path d="M71 0v-667h248c208 0 349 138 349 334S527 0 319 0H71zm117-103h131c145 0 229-104 229-230 0-129-80-231-229-231H188v461" id="X"/><g id="e"><use transform="matrix(0.018,0,0,0.018,0,0)" xlink:href="#X"/><use transform="matrix(0.018,0,0,0.018,12.78,0)" xlink:href="#W"/><use transform="matrix(0.018,0,0,0.018,22.427999999999997,0)" xlink:href="#V"/><use transform="matrix(0.018,0,0,0.018,28.169999999999998,0)" xlink:href="#W"/></g><path d="M394 0v-64c-35 39-95 76-171 76C119 12 68-42 68-141v-342h105v304c-7 144 181 106 221 35v-339h105V0H394" id="Y"/><path d="M26-63l48-76c34 35 101 68 164 68s95-23 95-59c0-42-51-57-110-70-83-18-182-40-182-148 0-79 68-147 190-147 82 0 144 29 188 68l-44 74c-29-33-83-58-143-58-55 0-90 20-90 54 0 37 48 50 105 63 84 18 187 42 187 156 0 85-71 150-201 150-82 0-157-26-207-75" id="Z"/><path d="M286 12C133 12 38-103 38-242c0-138 95-253 248-253 155 0 249 115 249 253 0 139-94 254-249 254zm0-93c90 0 140-75 140-161 0-85-50-160-140-160-89 0-139 75-139 160 0 86 50 161 139 161" id="aa"/><path d="M660 0v-315c0-52-23-87-79-87-47 0-91 33-112 64V0H364v-315c0-52-23-87-80-87-46 0-89 33-111 65V0H68v-483h105v66c20-30 84-78 157-78 72 0 116 36 132 89 28-44 92-89 164-89 89 0 139 48 139 146V0H660" id="ab"/><g id="g"><use transform="matrix(0.018,0,0,0.018,0,0)" xlink:href="#Q"/><use transform="matrix(0.018,0,0,0.018,12.276,0)" xlink:href="#Y"/><use transform="matrix(0.018,0,0,0.018,22.482,0)" xlink:href="#Z"/><use transform="matrix(0.018,0,0,0.018,30.977999999999998,0)" xlink:href="#V"/><use transform="matrix(0.018,0,0,0.018,36.72,0)" xlink:href="#aa"/><use transform="matrix(0.018,0,0,0.018,47.034,0)" xlink:href="#ab"/><use transform="matrix(0.018,0,0,0.018,62.028,0)" xlink:href="#S"/><use transform="matrix(0.018,0,0,0.018,72.054,0)" xlink:href="#R"/></g><path d="M394 0v-302c0-75-38-100-97-100-54 0-100 32-124 65V0H68v-483h105v66c32-38 94-78 170-78 104 0 156 56 156 155V0H394" id="ac"/><g id="h"><use transform="matrix(0.018,0,0,0.018,0,0)" xlink:href="#S"/><use transform="matrix(0.018,0,0,0.018,10.026,0)" xlink:href="#ac"/><use transform="matrix(0.018,0,0,0.018,20.232,0)" xlink:href="#V"/><use transform="matrix(0.018,0,0,0.018,25.974000000000004,0)" xlink:href="#S"/><use transform="matrix(0.018,0,0,0.018,36,0)" xlink:href="#R"/><use transform="matrix(0.018,0,0,0.018,42.246,0)" xlink:href="#Z"/></g><path d="M38-242c0-146 103-253 250-253 94 0 151 40 185 86l-69 64c-27-38-64-57-111-57-88 0-146 66-146 160S205-81 293-81c47 0 84-20 111-57l69 64c-34 46-91 86-185 86C141 12 38-95 38-242" id="ad"/><g id="i"><use transform="matrix(0.018,0,0,0.018,0,0)" xlink:href="#ad"/><use transform="matrix(0.018,0,0,0.018,8.946,0)" xlink:href="#R"/><use transform="matrix(0.018,0,0,0.018,15.192,0)" xlink:href="#S"/><use transform="matrix(0.018,0,0,0.018,25.217999999999996,0)" xlink:href="#T"/><use transform="matrix(0.018,0,0,0.018,35.676,0)" xlink:href="#U"/><use transform="matrix(0.018,0,0,0.018,40.014,0)" xlink:href="#V"/></g><g id="j"><use transform="matrix(0.018,0,0,0.018,0,0)" xlink:href="#ad"/><use transform="matrix(0.018,0,0,0.018,8.946,0)" xlink:href="#W"/><use transform="matrix(0.018,0,0,0.018,18.594,0)" xlink:href="#R"/><use transform="matrix(0.018,0,0,0.018,24.84,0)" xlink:href="#T"/></g><g id="k"><use transform="matrix(0.018,0,0,0.018,0,0)" xlink:href="#T"/><use transform="matrix(0.018,0,0,0.018,10.457999999999998,0)" xlink:href="#W"/><use transform="matrix(0.018,0,0,0.018,20.105999999999998,0)" xlink:href="#V"/><use transform="matrix(0.018,0,0,0.018,25.848,0)" xlink:href="#W"/></g><path d="M395 0v-304c0-75-39-98-98-98-53 0-99 32-124 65V0H68v-667h105v250c32-38 95-78 171-78 104 0 156 54 156 153V0H395" id="ae"/><g id="l"><use transform="matrix(0.018,0,0,0.018,0,0)" xlink:href="#ae"/><use transform="matrix(0.018,0,0,0.018,10.223999999999998,0)" xlink:href="#S"/><use transform="matrix(0.018,0,0,0.018,20.25,0)" xlink:href="#R"/><use transform="matrix(0.018,0,0,0.018,26.496,0)" xlink:href="#S"/></g><path fill="#999" d="M260 0v-277L1-667h134l184 286 182-286h134L377-277V0H260" id="af"/><path fill="#999" d="M394 0v-64c-35 39-95 76-171 76C119 12 68-42 68-141v-342h105v304c-7 144 181 106 221 35v-339h105V0H394" id="ag"/><g id="m"><use transform="matrix(0.018,0,0,0.018,0,0)" xlink:href="#af"/><use transform="matrix(0.018,0,0,0.018,9.216,0)" xlink:href="#M"/><use transform="matrix(0.018,0,0,0.018,19.53,0)" xlink:href="#ag"/><use transform="matrix(0.018,0,0,0.018,29.736,0)" xlink:href="#L"/></g><path fill="#999" d="M28-94l65-90c46 49 118 92 211 92 96 0 134-47 134-91 0-60-71-78-152-99-109-27-237-59-237-200 0-110 97-195 243-195 104 0 188 33 250 93l-67 87c-52-52-123-76-193-76-69 0-113 33-113 83 0 52 68 69 147 89 110 28 241 62 241 207 0 111-78 206-258 206C176 12 87-31 28-94" id="ah"/><g id="n"><use transform="matrix(0.018,0,0,0.018,0,0)" xlink:href="#ah"/><use transform="matrix(0.018,0,0,0.018,10.691999999999998,0)" xlink:href="#I"/><use transform="matrix(0.018,0,0,0.018,20.718,0)" xlink:href="#L"/><use transform="matrix(0.018,0,0,0.018,26.963999999999995,0)" xlink:href="#N"/><use transform="matrix(0.018,0,0,0.018,36.017999999999994,0)" xlink:href="#I"/><use transform="matrix(0.018,0,0,0.018,46.044,0)" xlink:href="#L"/></g><path fill="#999" d="M386 12C194 12 41-128 41-333s153-345 345-345c140 0 223 70 273 150l-100 51c-32-55-96-97-173-97-127 0-225 101-225 241S259-92 386-92c77 0 141-41 173-97l100 51C608-58 526 12 386 12" id="ai"/><path fill="#999" d="M26-63l48-76c34 35 101 68 164 68s95-23 95-59c0-42-51-57-110-70-83-18-182-40-182-148 0-79 68-147 190-147 82 0 144 29 188 68l-44 74c-29-33-83-58-143-58-55 0-90 20-90 54 0 37 48 50 105 63 84 18 187 42 187 156 0 85-71 150-201 150-82 0-157-26-207-75" id="aj"/><path fill="#999" d="M83-391S48-601 48-618c0-32 26-59 59-59 32 0 59 27 59 59 0 17-35 227-35 227H83" id="ak"/><g id="o"><use transform="matrix(0.018,0,0,0.018,0,0)" xlink:href="#ai"/><use transform="matrix(0.018,0,0,0.018,12.276,0)" xlink:href="#ag"/><use transform="matrix(0.018,0,0,0.018,22.482,0)" xlink:href="#aj"/><use transform="matrix(0.018,0,0,0.018,30.977999999999998,0)" xlink:href="#K"/><use transform="matrix(0.018,0,0,0.018,36.72,0)" xlink:href="#M"/><use transform="matrix(0.018,0,0,0.018,47.034,0)" xlink:href="#H"/><use transform="matrix(0.018,0,0,0.018,62.028,0)" xlink:href="#I"/><use transform="matrix(0.018,0,0,0.018,72.054,0)" xlink:href="#L"/><use transform="matrix(0.018,0,0,0.018,78.3,0)" xlink:href="#ak"/><use transform="matrix(0.018,0,0,0.018,81.612,0)" xlink:href="#aj"/></g><path fill="#999" d="M581 0L451-492 322 0H197L6-667h131l130 514 138-514h93l138 514 129-514h131L706 0H581" id="al"/><path fill="#999" d="M68 0v-667h105v251c38-51 94-79 155-79 124 0 214 98 214 254 0 159-91 253-214 253-63 0-118-30-155-78V0H68zm105-145c23 36 75 64 124 64 84 0 137-66 137-160s-53-161-137-161c-49 0-101 30-124 66v191" id="am"/><g id="p"><use transform="matrix(0.018,0,0,0.018,0,0)" xlink:href="#al"/><use transform="matrix(0.018,0,0,0.018,15.533999999999997,0)" xlink:href="#I"/><use transform="matrix(0.018,0,0,0.018,25.559999999999995,0)" xlink:href="#am"/></g><path fill="#999" d="M71 0v-667h328c122 0 190 76 190 170 0 84-54 140-116 153 71 11 129 82 129 164C602-77 533 0 408 0H71zm117-391h187c60 0 94-36 94-86s-34-87-94-87H188v173zm0 288h192c64 0 102-35 102-93 0-50-35-92-102-92H188v185" id="an"/><path fill="#999" d="M489 0L377-354 265 0H155L5-483h109l102 351 115-351h92l115 351 102-351h109L599 0H489" id="ao"/><g id="q"><use transform="matrix(0.018,0,0,0.018,0,0)" xlink:href="#an"/><use transform="matrix(0.018,0,0,0.018,11.664,0)" xlink:href="#L"/><use transform="matrix(0.018,0,0,0.018,17.91,0)" xlink:href="#M"/><use transform="matrix(0.018,0,0,0.018,28.224,0)" xlink:href="#ao"/><use transform="matrix(0.018,0,0,0.018,41.796,0)" xlink:href="#aj"/><use transform="matrix(0.018,0,0,0.018,50.292,0)" xlink:href="#I"/><use transform="matrix(0.018,0,0,0.018,60.318,0)" xlink:href="#L"/></g><path d="M71 0v-667h293c140 0 218 96 218 209s-79 209-218 209H188V0H71zm391-458c0-64-48-106-114-106H188v212h160c66 0 114-42 114-106" id="ap"/><path d="M63 95c45 16 90 10 109-34l24-55L-2-483h112l141 362 141-362h113L272 87C230 187 154 208 47 189" id="aq"/><g id="r"><use transform="matrix(0.018,0,0,0.018,0,0)" xlink:href="#ap"/><use transform="matrix(0.018,0,0,0.018,10.584,0)" xlink:href="#W"/><use transform="matrix(0.018,0,0,0.018,20.232,0)" xlink:href="#aq"/><use transform="matrix(0.018,0,0,0.018,29.285999999999998,0)" xlink:href="#ab"/><use transform="matrix(0.018,0,0,0.018,44.279999999999994,0)" xlink:href="#S"/><use transform="matrix(0.018,0,0,0.018,54.306,0)" xlink:href="#ac"/><use transform="matrix(0.018,0,0,0.018,64.512,0)" xlink:href="#V"/></g><path d="M543 0l-49-128H178L129 0H1l262-667h146L671 0H543zM336-568L211-231h250" id="ar"/><path d="M173 184H68v-667h105v66c36-48 92-78 155-78 125 0 214 94 214 253S453 12 328 12c-61 0-116-27-155-79v251zm260-426c0-93-53-160-136-160-49 0-101 29-124 65v191c23 35 75 65 124 65 83 0 136-67 136-161" id="as"/><g id="s"><use transform="matrix(0.018,0,0,0.018,0,0)" xlink:href="#ar"/><use transform="matrix(0.018,0,0,0.018,12.113999999999999,0)" xlink:href="#ad"/><use transform="matrix(0.018,0,0,0.018,21.06,0)" xlink:href="#ad"/><use transform="matrix(0.018,0,0,0.018,30.006,0)" xlink:href="#S"/><use transform="matrix(0.018,0,0,0.018,40.032,0)" xlink:href="#as"/><use transform="matrix(0.018,0,0,0.018,50.471999999999994,0)" xlink:href="#V"/><use transform="matrix(0.018,0,0,0.018,56.213999999999984,0)" xlink:href="#S"/><use transform="matrix(0.018,0,0,0.018,66.24,0)" xlink:href="#T"/></g><g id="t"><use transform="matrix(0.018,0,0,0.018,0,0)" xlink:href="#Q"/><use transform="matrix(0.018,0,0,0.018,12.276,0)" xlink:href="#W"/><use transform="matrix(0.018,0,0,0.018,21.924,0)" xlink:href="#R"/><use transform="matrix(0.018,0,0,0.018,28.169999999999998,0)" xlink:href="#T"/></g><path d="M230 0v-564H28v-103h521v103H347V0H230" id="at"/><path d="M388 0L240-199l-67 69V0H68v-667h105v417l213-233h130L315-264 520 0H388" id="au"/><g id="u"><use transform="matrix(0.018,0,0,0.018,0,0)" xlink:href="#at"/><use transform="matrix(0.018,0,0,0.018,8.495999999999999,0)" xlink:href="#aa"/><use transform="matrix(0.018,0,0,0.018,18.81,0)" xlink:href="#au"/><use transform="matrix(0.018,0,0,0.018,27.828,0)" xlink:href="#S"/><use transform="matrix(0.018,0,0,0.018,37.854,0)" xlink:href="#ac"/></g><path d="M28-94l65-90c46 49 118 92 211 92 96 0 134-47 134-91 0-60-71-78-152-99-109-27-237-59-237-200 0-110 97-195 243-195 104 0 188 33 250 93l-67 87c-52-52-123-76-193-76-69 0-113 33-113 83 0 52 68 69 147 89 110 28 241 62 241 207 0 111-78 206-258 206C176 12 87-31 28-94" id="av"/><g id="v"><use transform="matrix(0.018,0,0,0.018,0,0)" xlink:href="#av"/><use transform="matrix(0.018,0,0,0.018,10.691999999999998,0)" xlink:href="#S"/><use transform="matrix(0.018,0,0,0.018,20.718,0)" xlink:href="#ac"/><use transform="matrix(0.018,0,0,0.018,30.923999999999996,0)" xlink:href="#V"/></g><path fill="#fff" d="M386 12C194 12 41-128 41-333s153-345 345-345c140 0 223 70 273 150l-100 51c-32-55-96-97-173-97-127 0-225 101-225 241S259-92 386-92c77 0 141-41 173-97l100 51C608-58 526 12 386 12" id="aw"/><path fill="#fff" d="M363 0v-52C272 53 39 33 39-148c0-184 234-194 324-95v-72c0-56-46-90-113-90-54 0-101 20-143 61l-43-73c56-53 126-78 203-78 107 0 201 45 201 175V0H363zm0-110v-73c-45-73-218-69-218 37 0 105 174 109 218 36" id="ax"/><path fill="#fff" d="M68 0v-483h105v71c36-46 94-82 157-82v104c-63-14-128 20-157 61V0H68" id="ay"/><path fill="#fff" d="M408 0v-66c-37 48-93 78-155 78C129 12 38-82 38-241c0-156 90-254 215-254 60 0 116 28 155 79v-251h105V0H408zm0-145v-192c-24-36-75-65-125-65-83 0-136 67-136 161 0 93 53 160 136 160 50 0 101-28 125-64" id="az"/><g id="w"><use transform="matrix(0.011111111111111112,0,0,0.011111111111111112,0,0)" xlink:href="#aw"/><use transform="matrix(0.011111111111111112,0,0,0.011111111111111112,7.577777777777778,0)" xlink:href="#ax"/><use transform="matrix(0.011111111111111112,0,0,0.011111111111111112,13.533333333333333,0)" xlink:href="#ay"/><use transform="matrix(0.011111111111111112,0,0,0.011111111111111112,17.38888888888889,0)" xlink:href="#az"/></g><path fill="#fff" d="M230 0v-564H28v-103h521v103H347V0H230" id="aA"/><path fill="#fff" d="M286 12C133 12 38-103 38-242c0-138 95-253 248-253 155 0 249 115 249 253 0 139-94 254-249 254zm0-93c90 0 140-75 140-161 0-85-50-160-140-160-89 0-139 75-139 160 0 86 50 161 139 161" id="aB"/><path fill="#fff" d="M388 0L240-199l-67 69V0H68v-667h105v417l213-233h130L315-264 520 0H388" id="aC"/><path fill="#fff" d="M38-242c0-140 102-253 245-253 153 0 246 120 238 288H148c8 73 63 133 154 133 47 0 103-19 137-53l48 69c-48 46-119 70-196 70C146 12 38-89 38-242zm245-167c-90 0-131 69-136 128h272c-2-57-41-128-136-128" id="aD"/><path fill="#fff" d="M394 0v-302c0-75-38-100-97-100-54 0-100 32-124 65V0H68v-483h105v66c32-38 94-78 170-78 104 0 156 56 156 155V0H394" id="aE"/><g id="x"><use transform="matrix(0.011111111111111112,0,0,0.011111111111111112,0,0)" xlink:href="#aA"/><use transform="matrix(0.011111111111111112,0,0,0.011111111111111112,5.2444444444444445,0)" xlink:href="#aB"/><use transform="matrix(0.011111111111111112,0,0,0.011111111111111112,11.61111111111111,0)" xlink:href="#aC"/><use transform="matrix(0.011111111111111112,0,0,0.011111111111111112,17.177777777777777,0)" xlink:href="#aD"/><use transform="matrix(0.011111111111111112,0,0,0.011111111111111112,23.366666666666667,0)" xlink:href="#aE"/></g><path d="M50 0v-92c259-196 360-283 360-379 0-70-60-102-121-102-78 0-138 32-180 80l-68-77c59-71 153-107 246-107 129 0 242 73 242 206 0 123-113 233-292 368h296V0H50" id="aF"/><use transform="matrix(0.018,0,0,0.018,0,0)" xlink:href="#aF" id="y"/><path d="M24-96l63-77c43 50 114 81 185 81 88 0 139-40 139-102 0-66-53-94-148-94-28 0-67 0-77 1v-105c94 7 214-1 214-87 0-62-60-94-135-94-68 0-124 26-172 74l-60-73c51-60 132-105 243-105 144 0 241 68 241 180 0 89-76 141-145 153 65 6 155 59 155 162 0 113-97 194-251 194C157 12 69-36 24-96" id="aG"/><use transform="matrix(0.018,0,0,0.018,0,0)" xlink:href="#aG" id="z"/><path fill="#fff" d="M517 0L330-261 143 0H3l250-342L18-667h140l172 245 171-245h141L408-343 657 0H517" id="aH"/><g id="A"><use transform="matrix(0.011111111111111112,0,0,0.011111111111111112,0,0)" xlink:href="#aH"/><use transform="matrix(0.011111111111111112,0,0,0.011111111111111112,7.344444444444445,0)" xlink:href="#aH"/><use transform="matrix(0.011111111111111112,0,0,0.011111111111111112,14.68888888888889,0)" xlink:href="#aH"/><use transform="matrix(0.011111111111111112,0,0,0.011111111111111112,22.033333333333335,0)" xlink:href="#aH"/><use transform="matrix(0.011111111111111112,0,0,0.011111111111111112,29.37777777777778,0)" xlink:href="#aH"/><use transform="matrix(0.011111111111111112,0,0,0.011111111111111112,36.72222222222223,0)" xlink:href="#aH"/><use transform="matrix(0.011111111111111112,0,0,0.011111111111111112,44.06666666666668,0)" xlink:href="#aH"/><use transform="matrix(0.011111111111111112,0,0,0.011111111111111112,51.411111111111126,0)" xlink:href="#aH"/><use transform="matrix(0.011111111111111112,0,0,0.011111111111111112,58.75555555555558,0)" xlink:href="#aH"/></g><path fill="#fff" d="M373 0L248-178 122 0H5l177-248L15-483h118l115 164 114-164h118L313-248 491 0H373" id="aI"/><g id="B"><use transform="matrix(0.013333333333333334,0,0,0.013333333333333334,0,0)" xlink:href="#aH"/><use transform="matrix(0.013333333333333334,0,0,0.013333333333333334,8.813333333333334,0)" xlink:href="#aI"/><use transform="matrix(0.013333333333333334,0,0,0.013333333333333334,15.426666666666671,0)" xlink:href="#aI"/><use transform="matrix(0.013333333333333334,0,0,0.013333333333333334,22.040000000000003,0)" xlink:href="#aI"/></g><g id="C"><use transform="matrix(0.013333333333333334,0,0,0.013333333333333334,0,0)" xlink:href="#aH"/><use transform="matrix(0.013333333333333334,0,0,0.013333333333333334,8.813333333333334,0)" xlink:href="#aI"/><use transform="matrix(0.013333333333333334,0,0,0.013333333333333334,15.426666666666671,0)" xlink:href="#aI"/><use transform="matrix(0.013333333333333334,0,0,0.013333333333333334,22.040000000000003,0)" xlink:href="#aI"/><use transform="matrix(0.013333333333333334,0,0,0.013333333333333334,28.653333333333336,0)" xlink:href="#aI"/><use transform="matrix(0.013333333333333334,0,0,0.013333333333333334,35.26666666666667,0)" xlink:href="#aI"/></g><path d="M192 0v-515L83-402l-68-71 192-194h102V0H192" id="aJ"/><use transform="matrix(0.018,0,0,0.018,0,0)" xlink:href="#aJ" id="D"/></defs></g></svg>