<svg xmlns="http://www.w3.org/2000/svg" xmlns:xlink="http://www.w3.org/1999/xlink" width="859.67" height="552.17"><g transform="translate(-183.333 -213)"><path d="M926.38 400.17H879.5c-3.2 0-5.84 2.64-5.84 5.88v114.12h58.5V406.05c0-3.24-2.62-5.88-5.78-5.88zm-2.92 108.24h-41.02v-5.87h41.02v5.88zm0-11.63h-41.02v-5.88h41.02v5.87zm0-73.2h-41.02v-5.88h41.02v5.87z" fill="#2babee"/><path d="M410.13 483.2l2.62.05 2.5.16 2.44.27 2.34.34 2.3.45 2.23.53 2.2.6 2.18.72 2.16.8 2.16.9 2.15 1.02 2.17 1.13 2.18 1.26 2.22 1.42 2.27 1.57 2.32 1.76 2.4 2 2.53 2.26 2.63 2.6 2.82 3 3.04 3.52 3.34 4.24 3.82 5.26 4.57 6.9 6.24 10.33 28.7 51.12 4.57 6.9 3.82 5.25 3.35 4.24 3.05 3.5 2.82 3.02 2.65 2.6 2.5 2.25 2.42 2 2.33 1.76 2.26 1.58 2.22 1.42 2.18 1.26 2.16 1.13 2.14 1.02 2.15.9 2.15.8 2.18.7 2.2.63 2.24.52 2.3.44 2.35.36 2.42.25 2.52.17 2.6.06" stroke="#2a3843" stroke-width="4" fill="none"/><path d="M410.38 481.22l-.25 2v-2.04zm157.89 148.91l-14.73 2.8 1.17-9.2z" fill="#2a3843"/><path d="M568.27 627.92v4.24l-17.06 3.24 1.87-14.65zm-12.4 2.53l5.98-1.14-5.5-2.6z" fill="#2a3843"/><path d="M729.63 631.8l2.22-.04 2.13-.13 2.07-.22 2-.3 1.98-.36 1.92-.45 1.9-.54 1.88-.6 1.86-.7 1.85-.8 1.86-.87 1.9-1 1.9-1.08 1.92-1.23 1.97-1.38 2-1.54 2.1-1.73 2.2-1.97 2.28-2.24 2.43-2.6 2.62-3.02 2.85-3.6 3.17-4.37 3.67-5.53 4.53-7.5 6.7-12.24 22.93-44.23 4.52-7.5 3.67-5.52 3.17-4.37 2.85-3.6 2.6-3.02 2.44-2.6 2.3-2.24 2.18-1.97 2.1-1.73 2.02-1.54 1.97-1.37 1.93-1.23 1.9-1.1 1.88-.98 1.86-.9 1.86-.77 1.86-.7 1.88-.6 1.9-.53 1.92-.46 1.96-.37 2.02-.3 2.06-.2 2.14-.15 2.22-.04" stroke="#0eb29c" stroke-width="4" fill="none"/><path d="M729.93 633.78l-.3.05v-2.04zm143.73-146l-13.4 6.7-1.4-9.16z" fill="#0eb29c"/><path d="M873.66 485.75V490l-14.98 7.5-2.2-14.6zm-11.85 5.72l5.46-2.73-6-1z" fill="#0eb29c"/><path d="M743.07 566.33c0-2.76 2.24-5 5-5h230c2.76 0 5 2.24 5 5v50c0 2.76-2.24 5-5 5h-230c-2.76 0-5-2.24-5-5z" fill="none"/><use xlink:href="#a" transform="translate(795.675 596.553)"/><use xlink:href="#b" transform="translate(849.387 596.553)"/><use xlink:href="#c" transform="translate(892.64 596.553)"/><path d="M273.2 565.8c0-2.76 2.24-5 5-5h230c2.76 0 5 2.24 5 5v50c0 2.76-2.24 5-5 5h-230c-2.76 0-5-2.24-5-5z" fill="none"/><use xlink:href="#d" transform="translate(289.484 596.02)"/><use xlink:href="#e" transform="translate(360.656 596.02)"/><use xlink:href="#f" transform="translate(381.338 596.02)"/><use xlink:href="#g" transform="translate(456.218 596.02)"/><path d="M783 518.17c0-2.76 2.24-5 5-5h230c2.76 0 5 2.24 5 5v50c0 2.76-2.24 5-5 5H788c-2.76 0-5-2.24-5-5z" fill="none"/><use xlink:href="#h" transform="translate(831.747 548.387)"/><use xlink:href="#i" transform="translate(906.627 548.387)"/><path d="M410.13 494.25V411.1c0-4.1-3.67-10.93-8.3-10.93H257.85c-4.64 0-9.08 6.84-9.08 10.92v83.15c-16.2 17.28-15.44 17.28-15.44 17.28 0 4.92 4.44 8.64 10.23 8.64H416.1c5.8 0 10.24-4.08 10.24-8.64l-16.2-17.28zm-66.98 18.72h-30.1c-1.55 0-3.1-.72-3.1-1.44l3.48-5.64c0-.73 1.16-1.2 2.7-1.2h23.94c1.15 0 2.3.47 2.3 1.2l3.87 5.63c0 1.08-1.54 1.44-3.1 1.44zm59.84-19.2H255.9V411.8c0-1.9 1.93-4.55 4.05-4.55H399.3c2.12 0 3.67 2.64 3.67 4.56v81.97z" fill="#2babee"/><path d="M203.33 348.17c0-2.76 2.24-5 5-5h243.34c2.76 0 5 2.24 5 5v50c0 2.76-2.24 5-5 5H208.33c-2.76 0-5-2.24-5-5z" fill="none"/><use xlink:href="#j" transform="translate(208.06 369.387)"/><use xlink:href="#k" transform="translate(290.985 369.387)"/><use xlink:href="#l" transform="translate(308.445 369.387)"/><use xlink:href="#m" transform="translate(347.54 369.387)"/><use xlink:href="#n" transform="translate(368.223 369.387)"/><use xlink:href="#o" transform="translate(382.497 369.387)"/><use xlink:href="#p" transform="translate(230.91 387.387)"/><use xlink:href="#q" transform="translate(314.466 387.387)"/><use xlink:href="#r" transform="translate(389.202 387.387)"/><path d="M210 518.17c0-2.76 2.24-5 5-5h230c2.76 0 5 2.24 5 5v50c0 2.76-2.24 5-5 5H215c-2.76 0-5-2.24-5-5z" fill="none"/><use xlink:href="#s" transform="translate(229.03 548.387)"/><use xlink:href="#t" transform="translate(323.763 548.387)"/><use xlink:href="#u" transform="translate(364.407 548.387)"/><path d="M729.63 666.25V583.1c0-4.1-3.67-10.93-8.3-10.93H577.35c-4.64 0-9.08 6.84-9.08 10.92v83.15c-16.2 17.28-15.44 17.28-15.44 17.28 0 4.92 4.44 8.64 10.23 8.64H735.6c5.8 0 10.24-4.08 10.24-8.64l-16.2-17.28zm-66.98 18.72h-30.1c-1.55 0-3.1-.72-3.1-1.44l3.48-5.64c0-.73 1.16-1.2 2.7-1.2h23.94c1.15 0 2.3.47 2.3 1.2l3.87 5.63c0 1.08-1.54 1.44-3.1 1.44zm59.84-19.2H575.4V583.8c0-1.9 1.93-4.55 4.05-4.55H718.8c2.12 0 3.67 2.64 3.67 4.56v81.97z" fill="#2babee"/><path d="M529.5 518.57c0-2.76 2.24-5 5-5h230c2.76 0 5 2.24 5 5v50c0 2.76-2.24 5-5 5h-230c-2.76 0-5-2.24-5-5z" fill="none"/><use xlink:href="#v" transform="translate(537.513 539.787)"/><use xlink:href="#w" transform="translate(620.44 539.787)"/><use xlink:href="#x" transform="translate(675.807 539.787)"/><use xlink:href="#y" transform="translate(726.19 539.787)"/><use xlink:href="#z" transform="translate(611.178 557.787)"/><use xlink:href="#A" transform="translate(651.3 557.787)"/><path d="M529.5 690.17c0-2.76 2.24-5 5-5h230c2.76 0 5 2.24 5 5v50c0 2.76-2.24 5-5 5h-230c-2.76 0-5-2.24-5-5z" fill="none"/><use xlink:href="#s" transform="translate(548.53 720.387)"/><use xlink:href="#t" transform="translate(643.263 720.387)"/><use xlink:href="#u" transform="translate(683.907 720.387)"/><path d="M573.67 583.33c0-2.76 2.24-5 5-5h138c2.76 0 5 2.24 5 5v78c0 2.76-2.24 5-5 5h-138c-2.76 0-5-2.24-5-5z" fill="none"/><use xlink:href="#B" transform="translate(612.54 609.553)"/><use xlink:href="#C" transform="translate(607.95 627.553)"/><use xlink:href="#f" transform="translate(589.878 645.553)"/><use xlink:href="#g" transform="translate(664.758 645.553)"/><path d="M410.14 444.8h463.52" stroke="#000" stroke-width="4" fill="none"/><path d="M424.4 449.44l-14.26-4.64 14.26-4.64z"/><path d="M426.4 452.2l-16.27-5.3v-4.2l16.27-5.3zm-9.8-7.4l5.8 1.88v-3.76z"/><path d="M675.66 233H628.8c-3.22 0-5.86 2.64-5.86 5.88V353h58.52V238.88c0-3.24-2.64-5.88-5.8-5.88zm-2.92 108.24h-41.02v-5.88h41.02v5.88zm0-11.64h-41.02v-5.88h41.02v5.88zm0-73.2h-41.02v-5.88h41.02v5.88z" fill="#2babee"/><path d="M531.2 351c0-2.76 2.24-5 5-5h230c2.76 0 5 2.24 5 5v50c0 2.76-2.24 5-5 5h-230c-2.76 0-5-2.24-5-5z" fill="none"/><use xlink:href="#D" transform="translate(604.75 381.22)"/><use xlink:href="#E" transform="translate(645.36 381.22)"/><path d="M691.2 268.5c0-2.76 2.24-5 5-5h303.33c2.76 0 5 2.24 5 5v50c0 2.76-2.24 5-5 5H696.2c-2.76 0-5-2.24-5-5z" fill="none"/><use xlink:href="#F" transform="translate(691.2 289.72)"/><use xlink:href="#G" transform="translate(719.1 289.72)"/><use xlink:href="#H" transform="translate(769.482 289.72)"/><use xlink:href="#I" transform="translate(809.406 289.72)"/><use xlink:href="#J" transform="translate(849.528 289.72)"/><use xlink:href="#K" transform="translate(866.988 289.72)"/><use xlink:href="#L" transform="translate(922.896 289.72)"/><use xlink:href="#M" transform="translate(691.2 307.72)"/><use xlink:href="#N" transform="translate(787.464 307.72)"/><use xlink:href="#O" transform="translate(855.486 307.72)"/><use xlink:href="#P" transform="translate(895.932 307.72)"/><path d="M507.87 564.33c0 7.92-6.42 14.34-14.34 14.34-7.9 0-14.33-6.42-14.33-14.34 0-7.9 6.42-14.33 14.33-14.33 7.92 0 14.34 6.42 14.34 14.33z" stroke="#000" stroke-width="2" fill="#fff"/><path d="M480.62 557c0-2.76 2.24-5 5-5h14c2.76 0 5 2.24 5 5v15.33c0 2.76-2.24 5-5 5h-14c-2.76 0-5-2.24-5-5z" fill="none"/><use xlink:href="#Q" transform="translate(489.197 570.22)"/><path d="M749.53 608.33h-1.04v-1.84c0-3.88-2.58-5.87-5.57-5.87h-.5c-3.04 0-5.56 1.93-5.56 5.86v1.83h-1.03c-.44 0-1.04.56-1.04 1v9.83c0 .43.6 1 1.04 1h13.67c.45 0 1.05-.57 1.05-1v-9.84c-.05-.43-.64-1-1.02-1zm-6.1 5.8v4.1h-1.54v-4.1c-.6-.26-1.05-.83-1.05-1.5 0-.95.83-1.73 1.8-1.73 1 0 1.8.78 1.8 1.72 0 .63-.43 1.2-1.03 1.52zm3.15-5.8h-7.8v-1.84c0-2.47 1.36-4.15 3.66-4.15h.5c2.34 0 3.64 1.68 3.64 4.14v1.83z" fill="#0eb29c"/><path d="M903.4 474.8c0-2.76 2.24-5 5-5h85.74c2.76 0 5 2.24 5 5v50c0 2.76-2.24 5-5 5H908.4c-2.76 0-5-2.24-5-5z" stroke="#fff" stroke-width="4" fill="#0eb29c"/><path d="M908.18 496.27c0-2.76 2.24-5 5-5h77.9c2.76 0 5 2.24 5 5v18.66c0 2.76-2.24 5-5 5h-77.9c-2.76 0-5-2.24-5-5z" fill="none"/><use xlink:href="#R" transform="translate(908.18 508.99)"/><path d="M907.77 512.93c0-2.76 2.24-5 5-5h83.53c2.76 0 5 2.24 5 5v12.67c0 2.76-2.24 5-5 5h-83.53c-2.76 0-5-2.24-5-5z" fill="none"/><g><use xlink:href="#S" transform="translate(907.775 523.3)"/><use xlink:href="#T" transform="translate(939.855 523.3)"/></g><path d="M992.8 481.93h-1.04v-1.84c0-3.88-2.56-5.87-5.56-5.87h-.48c-3.06 0-5.58 1.94-5.58 5.86v1.83h-1.02c-.44 0-1.04.56-1.04 1v9.83c0 .43.6 1 1.04 1h13.67c.43 0 1.03-.57 1.03-1v-9.84c-.05-.43-.65-1-1.03-1zm-6.1 5.82v4.08h-1.54v-4.08c-.6-.28-1.04-.84-1.04-1.53 0-.94.84-1.72 1.8-1.72 1 0 1.8.78 1.8 1.72 0 .63-.43 1.2-1.03 1.53zm3.16-5.82h-7.8v-1.84c0-2.47 1.36-4.15 3.66-4.15h.48c2.35 0 3.66 1.68 3.66 4.14v1.83z" fill="#fff"/><path d="M813.73 563.28c0 7.92-6.4 14.34-14.33 14.34-7.92 0-14.33-6.42-14.33-14.34 0-7.9 6.4-14.33 14.33-14.33 7.92 0 14.33 6.42 14.33 14.33z" stroke="#000" stroke-width="2" fill="#fff"/><path d="M787.1 555.95c0-2.76 2.25-5 5-5h14c2.77 0 5 2.24 5 5v15.33c0 2.76-2.23 5-5 5h-14c-2.75 0-5-2.24-5-5z" fill="none"/><g><use xlink:href="#U" transform="translate(793.753 569.17)"/></g><path d="M530.8 391.8c0-2.76 2.24-5 5-5h230c2.76 0 5 2.24 5 5v50c0 2.76-2.24 5-5 5h-230c-2.76 0-5-2.24-5-5z" fill="none"/><g><use xlink:href="#V" transform="translate(575.01 422.02)"/><use xlink:href="#W" transform="translate(649.89 422.02)"/></g><path d="M662.15 444.17c0 7.9-6.42 14.33-14.33 14.33-7.92 0-14.34-6.42-14.34-14.33 0-7.92 6.42-14.34 14.34-14.34 7.9 0 14.33 6.42 14.33 14.34z" stroke="#000" stroke-width="2" fill="#fff"/><path d="M635.9 436.83c0-2.76 2.24-5 5-5h14c2.76 0 5 2.24 5 5v15.34c0 2.76-2.24 5-5 5h-14c-2.76 0-5-2.24-5-5z" fill="none"/><g><use xlink:href="#X" transform="translate(642.734 450.053)"/></g><defs><path d="M386 12C194 12 41-128 41-333s153-345 345-345c140 0 223 70 273 150l-100 51c-32-55-96-97-173-97-127 0-225 101-225 241S259-92 386-92c77 0 141-41 173-97l100 51C608-58 526 12 386 12" id="Y"/><path d="M68 0v-483h105v71c36-46 94-82 157-82v104c-63-14-128 20-157 61V0H68" id="Z"/><path d="M38-242c0-140 102-253 245-253 153 0 246 120 238 288H148c8 73 63 133 154 133 47 0 103-19 137-53l48 69c-48 46-119 70-196 70C146 12 38-89 38-242zm245-167c-90 0-131 69-136 128h272c-2-57-41-128-136-128" id="aa"/><path d="M408 0v-66c-37 48-93 78-155 78C129 12 38-82 38-241c0-156 90-254 215-254 60 0 116 28 155 79v-251h105V0H408zm0-145v-192c-24-36-75-65-125-65-83 0-136 67-136 161 0 93 53 160 136 160 50 0 101-28 125-64" id="ab"/><path d="M120-557c-35 0-65-29-65-65s30-65 65-65c36 0 65 29 65 65s-29 65-65 65zM68 0v-483h105V0H68" id="ac"/><path d="M213 12C132 12 89-32 89-112v-279H9v-92h80v-132h105v132h98v92h-98v253c-9 59 64 71 93 40l25 79c-19 18-50 31-99 31" id="ad"/><g id="a"><use transform="scale(.018)" xlink:href="#Y"/><use transform="translate(12.276) scale(.018)" xlink:href="#Z"/><use transform="translate(18.522) scale(.018)" xlink:href="#aa"/><use transform="translate(28.548) scale(.018)" xlink:href="#ab"/><use transform="translate(39.006) scale(.018)" xlink:href="#ac"/><use transform="translate(43.344) scale(.018)" xlink:href="#ad"/></g><path d="M363 0v-52C272 53 39 33 39-148c0-184 234-194 324-95v-72c0-56-46-90-113-90-54 0-101 20-143 61l-43-73c56-53 126-78 203-78 107 0 201 45 201 175V0H363zm0-110v-73c-45-73-218-69-218 37 0 105 174 109 218 36" id="ae"/><g id="b"><use transform="scale(.018)" xlink:href="#Y"/><use transform="translate(12.276) scale(.018)" xlink:href="#ae"/><use transform="translate(21.924) scale(.018)" xlink:href="#Z"/><use transform="translate(28.17) scale(.018)" xlink:href="#ab"/></g><path d="M71 0v-667h248c208 0 349 138 349 334S527 0 319 0H71zm117-103h131c145 0 229-104 229-230 0-129-80-231-229-231H188v461" id="af"/><g id="c"><use transform="scale(.018)" xlink:href="#af"/><use transform="translate(12.78) scale(.018)" xlink:href="#ae"/><use transform="translate(22.428) scale(.018)" xlink:href="#ad"/><use transform="translate(28.17) scale(.018)" xlink:href="#ae"/></g><path d="M452 0L304-249H188V0H71v-667h293c132 0 218 86 218 209 0 119-78 183-158 196L587 0H452zm10-458c0-64-48-106-114-106H188v212h160c66 0 114-42 114-106" id="ag"/><path d="M38-242c0-146 103-253 250-253 94 0 151 40 185 86l-69 64c-27-38-64-57-111-57-88 0-146 66-146 160S205-81 293-81c47 0 84-20 111-57l69 64c-34 46-91 86-185 86C141 12 38-95 38-242" id="ah"/><g id="d"><use transform="scale(.018)" xlink:href="#ag"/><use transform="translate(10.764) scale(.018)" xlink:href="#aa"/><use transform="translate(20.79) scale(.018)" xlink:href="#ab"/><use transform="translate(31.248) scale(.018)" xlink:href="#ac"/><use transform="translate(35.586) scale(.018)" xlink:href="#Z"/><use transform="translate(41.832) scale(.018)" xlink:href="#aa"/><use transform="translate(51.858) scale(.018)" xlink:href="#ah"/><use transform="translate(60.804) scale(.018)" xlink:href="#ad"/></g><path d="M286 12C133 12 38-103 38-242c0-138 95-253 248-253 155 0 249 115 249 253 0 139-94 254-249 254zm0-93c90 0 140-75 140-161 0-85-50-160-140-160-89 0-139 75-139 160 0 86 50 161 139 161" id="ai"/><g id="e"><use transform="scale(.018)" xlink:href="#ad"/><use transform="translate(5.742) scale(.018)" xlink:href="#ai"/></g><path d="M71 0v-667h293c140 0 218 96 218 209s-79 209-218 209H188V0H71zm391-458c0-64-48-106-114-106H188v212h160c66 0 114-42 114-106" id="aj"/><path d="M63 95c45 16 90 10 109-34l24-55L-2-483h112l141 362 141-362h113L272 87C230 187 154 208 47 189" id="ak"/><path d="M660 0v-315c0-52-23-87-79-87-47 0-91 33-112 64V0H364v-315c0-52-23-87-80-87-46 0-89 33-111 65V0H68v-483h105v66c20-30 84-78 157-78 72 0 116 36 132 89 28-44 92-89 164-89 89 0 139 48 139 146V0H660" id="al"/><path d="M394 0v-302c0-75-38-100-97-100-54 0-100 32-124 65V0H68v-483h105v66c32-38 94-78 170-78 104 0 156 56 156 155V0H394" id="am"/><g id="f"><use transform="scale(.018)" xlink:href="#aj"/><use transform="translate(10.584) scale(.018)" xlink:href="#ae"/><use transform="translate(20.232) scale(.018)" xlink:href="#ak"/><use transform="translate(29.286) scale(.018)" xlink:href="#al"/><use transform="translate(44.28) scale(.018)" xlink:href="#aa"/><use transform="translate(54.306) scale(.018)" xlink:href="#am"/><use transform="translate(64.512) scale(.018)" xlink:href="#ad"/></g><path d="M62 124l49-76c77 90 291 100 296-69v-58C370-31 315 1 252 1 129 1 38-88 38-247c0-156 90-248 214-248 61 0 116 28 155 79v-67h105v458c0 174-129 221-248 221-82 0-143-18-202-72zm345-281v-180c-23-36-75-65-124-65-83 0-136 62-136 155S200-92 283-92c49 0 101-29 124-65" id="an"/><g id="g"><use transform="scale(.018)" xlink:href="#aj"/><use transform="translate(10.584) scale(.018)" xlink:href="#ae"/><use transform="translate(20.232) scale(.018)" xlink:href="#an"/><use transform="translate(30.672) scale(.018)" xlink:href="#aa"/></g><path fill="#999" d="M71 0v-667h293c140 0 218 96 218 209s-79 209-218 209H188V0H71zm391-458c0-64-48-106-114-106H188v212h160c66 0 114-42 114-106" id="ao"/><path fill="#999" d="M363 0v-52C272 53 39 33 39-148c0-184 234-194 324-95v-72c0-56-46-90-113-90-54 0-101 20-143 61l-43-73c56-53 126-78 203-78 107 0 201 45 201 175V0H363zm0-110v-73c-45-73-218-69-218 37 0 105 174 109 218 36" id="ap"/><path fill="#999" d="M63 95c45 16 90 10 109-34l24-55L-2-483h112l141 362 141-362h113L272 87C230 187 154 208 47 189" id="aq"/><path fill="#999" d="M660 0v-315c0-52-23-87-79-87-47 0-91 33-112 64V0H364v-315c0-52-23-87-80-87-46 0-89 33-111 65V0H68v-483h105v66c20-30 84-78 157-78 72 0 116 36 132 89 28-44 92-89 164-89 89 0 139 48 139 146V0H660" id="ar"/><path fill="#999" d="M38-242c0-140 102-253 245-253 153 0 246 120 238 288H148c8 73 63 133 154 133 47 0 103-19 137-53l48 69c-48 46-119 70-196 70C146 12 38-89 38-242zm245-167c-90 0-131 69-136 128h272c-2-57-41-128-136-128" id="as"/><path fill="#999" d="M394 0v-302c0-75-38-100-97-100-54 0-100 32-124 65V0H68v-483h105v66c32-38 94-78 170-78 104 0 156 56 156 155V0H394" id="at"/><path fill="#999" d="M213 12C132 12 89-32 89-112v-279H9v-92h80v-132h105v132h98v92h-98v253c-9 59 64 71 93 40l25 79c-19 18-50 31-99 31" id="au"/><g id="h"><use transform="scale(.018)" xlink:href="#ao"/><use transform="translate(10.584) scale(.018)" xlink:href="#ap"/><use transform="translate(20.232) scale(.018)" xlink:href="#aq"/><use transform="translate(29.286) scale(.018)" xlink:href="#ar"/><use transform="translate(44.28) scale(.018)" xlink:href="#as"/><use transform="translate(54.306) scale(.018)" xlink:href="#at"/><use transform="translate(64.512) scale(.018)" xlink:href="#au"/></g><path fill="#999" d="M68 0v-483h105v71c36-46 94-82 157-82v104c-63-14-128 20-157 61V0H68" id="av"/><path fill="#999" d="M286 12C133 12 38-103 38-242c0-138 95-253 248-253 155 0 249 115 249 253 0 139-94 254-249 254zm0-93c90 0 140-75 140-161 0-85-50-160-140-160-89 0-139 75-139 160 0 86 50 161 139 161" id="aw"/><path fill="#999" d="M195 0L-2-483h112l141 362 141-362h113L308 0H195" id="ax"/><path fill="#999" d="M120-557c-35 0-65-29-65-65s30-65 65-65c36 0 65 29 65 65s-29 65-65 65zM68 0v-483h105V0H68" id="ay"/><path fill="#999" d="M408 0v-66c-37 48-93 78-155 78C129 12 38-82 38-241c0-156 90-254 215-254 60 0 116 28 155 79v-251h105V0H408zm0-145v-192c-24-36-75-65-125-65-83 0-136 67-136 161 0 93 53 160 136 160 50 0 101-28 125-64" id="az"/><g id="i"><use transform="scale(.018)" xlink:href="#ao"/><use transform="translate(10.944) scale(.018)" xlink:href="#av"/><use transform="translate(17.19) scale(.018)" xlink:href="#aw"/><use transform="translate(27.504) scale(.018)" xlink:href="#ax"/><use transform="translate(36.558) scale(.018)" xlink:href="#ay"/><use transform="translate(40.896) scale(.018)" xlink:href="#az"/><use transform="translate(51.354) scale(.018)" xlink:href="#as"/><use transform="translate(61.38) scale(.018)" xlink:href="#av"/></g><path d="M394 0v-64c-35 39-95 76-171 76C119 12 68-42 68-141v-342h105v304c-7 144 181 106 221 35v-339h105V0H394" id="aA"/><path d="M26-63l48-76c34 35 101 68 164 68s95-23 95-59c0-42-51-57-110-70-83-18-182-40-182-148 0-79 68-147 190-147 82 0 144 29 188 68l-44 74c-29-33-83-58-143-58-55 0-90 20-90 54 0 37 48 50 105 63 84 18 187 42 187 156 0 85-71 150-201 150-82 0-157-26-207-75" id="aB"/><g id="j"><use transform="scale(.018)" xlink:href="#Y"/><use transform="translate(12.276) scale(.018)" xlink:href="#aA"/><use transform="translate(22.482) scale(.018)" xlink:href="#aB"/><use transform="translate(30.978) scale(.018)" xlink:href="#ad"/><use transform="translate(36.72) scale(.018)" xlink:href="#ai"/><use transform="translate(47.034) scale(.018)" xlink:href="#al"/><use transform="translate(62.028) scale(.018)" xlink:href="#aa"/><use transform="translate(72.054) scale(.018)" xlink:href="#Z"/></g><g id="k"><use transform="scale(.018)" xlink:href="#ac"/><use transform="translate(4.338) scale(.018)" xlink:href="#aB"/></g><g id="l"><use transform="scale(.018)" xlink:href="#aB"/><use transform="translate(8.496) scale(.018)" xlink:href="#aa"/><use transform="translate(18.522) scale(.018)" xlink:href="#am"/><use transform="translate(28.728) scale(.018)" xlink:href="#ad"/></g><g id="m"><use transform="scale(.018)" xlink:href="#ad"/><use transform="translate(5.742) scale(.018)" xlink:href="#ai"/></g><use transform="scale(.018)" xlink:href="#ae" id="n"/><path d="M173 184H68v-667h105v66c36-48 92-78 155-78 125 0 214 94 214 253S453 12 328 12c-61 0-116-27-155-79v251zm260-426c0-93-53-160-136-160-49 0-101 29-124 65v191c23 35 75 65 124 65 83 0 136-67 136-161" id="aC"/><g id="o"><use transform="scale(.018)" xlink:href="#aC"/><use transform="translate(10.44) scale(.018)" xlink:href="#ae"/><use transform="translate(20.088) scale(.018)" xlink:href="#ak"/><use transform="translate(29.142) scale(.018)" xlink:href="#al"/><use transform="translate(44.136) scale(.018)" xlink:href="#aa"/><use transform="translate(54.162) scale(.018)" xlink:href="#am"/><use transform="translate(64.368) scale(.018)" xlink:href="#ad"/></g><path d="M195 0L-2-483h112l141 362 141-362h113L308 0H195" id="aD"/><path d="M83-391S48-601 48-618c0-32 26-59 59-59 32 0 59 27 59 59 0 17-35 227-35 227H83" id="aE"/><g id="p"><use transform="scale(.018)" xlink:href="#aC"/><use transform="translate(10.44) scale(.018)" xlink:href="#Z"/><use transform="translate(16.686) scale(.018)" xlink:href="#ai"/><use transform="translate(27) scale(.018)" xlink:href="#aD"/><use transform="translate(36.054) scale(.018)" xlink:href="#ac"/><use transform="translate(40.392) scale(.018)" xlink:href="#ab"/><use transform="translate(50.85) scale(.018)" xlink:href="#aa"/><use transform="translate(60.876) scale(.018)" xlink:href="#Z"/><use transform="translate(67.122) scale(.018)" xlink:href="#aE"/><use transform="translate(70.434) scale(.018)" xlink:href="#aB"/></g><g id="q"><use transform="scale(.018)" xlink:href="#aC"/><use transform="translate(10.44) scale(.018)" xlink:href="#ae"/><use transform="translate(20.088) scale(.018)" xlink:href="#ak"/><use transform="translate(29.142) scale(.018)" xlink:href="#al"/><use transform="translate(44.136) scale(.018)" xlink:href="#aa"/><use transform="translate(54.162) scale(.018)" xlink:href="#am"/><use transform="translate(64.368) scale(.018)" xlink:href="#ad"/></g><g id="r"><use transform="scale(.018)" xlink:href="#aC"/><use transform="translate(10.44) scale(.018)" xlink:href="#ae"/><use transform="translate(20.088) scale(.018)" xlink:href="#an"/><use transform="translate(30.528) scale(.018)" xlink:href="#aa"/></g><path fill="#999" d="M386 12C194 12 41-128 41-333s153-345 345-345c140 0 223 70 273 150l-100 51c-32-55-96-97-173-97-127 0-225 101-225 241S259-92 386-92c77 0 141-41 173-97l100 51C608-58 526 12 386 12" id="aF"/><path fill="#999" d="M394 0v-64c-35 39-95 76-171 76C119 12 68-42 68-141v-342h105v304c-7 144 181 106 221 35v-339h105V0H394" id="aG"/><path fill="#999" d="M26-63l48-76c34 35 101 68 164 68s95-23 95-59c0-42-51-57-110-70-83-18-182-40-182-148 0-79 68-147 190-147 82 0 144 29 188 68l-44 74c-29-33-83-58-143-58-55 0-90 20-90 54 0 37 48 50 105 63 84 18 187 42 187 156 0 85-71 150-201 150-82 0-157-26-207-75" id="aH"/><path fill="#999" d="M83-391S48-601 48-618c0-32 26-59 59-59 32 0 59 27 59 59 0 17-35 227-35 227H83" id="aI"/><g id="s"><use transform="scale(.018)" xlink:href="#aF"/><use transform="translate(12.276) scale(.018)" xlink:href="#aG"/><use transform="translate(22.482) scale(.018)" xlink:href="#aH"/><use transform="translate(30.978) scale(.018)" xlink:href="#au"/><use transform="translate(36.72) scale(.018)" xlink:href="#aw"/><use transform="translate(47.034) scale(.018)" xlink:href="#ar"/><use transform="translate(62.028) scale(.018)" xlink:href="#as"/><use transform="translate(72.054) scale(.018)" xlink:href="#av"/><use transform="translate(78.3) scale(.018)" xlink:href="#aI"/><use transform="translate(81.612) scale(.018)" xlink:href="#aH"/></g><path fill="#999" d="M581 0L451-492 322 0H197L6-667h131l130 514 138-514h93l138 514 129-514h131L706 0H581" id="aJ"/><path fill="#999" d="M68 0v-667h105v251c38-51 94-79 155-79 124 0 214 98 214 254 0 159-91 253-214 253-63 0-118-30-155-78V0H68zm105-145c23 36 75 64 124 64 84 0 137-66 137-160s-53-161-137-161c-49 0-101 30-124 66v191" id="aK"/><g id="t"><use transform="scale(.018)" xlink:href="#aJ"/><use transform="translate(15.534) scale(.018)" xlink:href="#as"/><use transform="translate(25.56) scale(.018)" xlink:href="#aK"/></g><path fill="#999" d="M71 0v-667h328c122 0 190 76 190 170 0 84-54 140-116 153 71 11 129 82 129 164C602-77 533 0 408 0H71zm117-391h187c60 0 94-36 94-86s-34-87-94-87H188v173zm0 288h192c64 0 102-35 102-93 0-50-35-92-102-92H188v185" id="aL"/><path fill="#999" d="M489 0L377-354 265 0H155L5-483h109l102 351 115-351h92l115 351 102-351h109L599 0H489" id="aM"/><g id="u"><use transform="scale(.018)" xlink:href="#aL"/><use transform="translate(11.664) scale(.018)" xlink:href="#av"/><use transform="translate(17.91) scale(.018)" xlink:href="#aw"/><use transform="translate(28.224) scale(.018)" xlink:href="#aM"/><use transform="translate(41.796) scale(.018)" xlink:href="#aH"/><use transform="translate(50.292) scale(.018)" xlink:href="#as"/><use transform="translate(60.318) scale(.018)" xlink:href="#av"/></g><g id="v"><use transform="scale(.018)" xlink:href="#Y"/><use transform="translate(12.276) scale(.018)" xlink:href="#aA"/><use transform="translate(22.482) scale(.018)" xlink:href="#aB"/><use transform="translate(30.978) scale(.018)" xlink:href="#ad"/><use transform="translate(36.72) scale(.018)" xlink:href="#ai"/><use transform="translate(47.034) scale(.018)" xlink:href="#al"/><use transform="translate(62.028) scale(.018)" xlink:href="#aa"/><use transform="translate(72.054) scale(.018)" xlink:href="#Z"/></g><g id="w"><use transform="scale(.018)" xlink:href="#aa"/><use transform="translate(10.026) scale(.018)" xlink:href="#am"/><use transform="translate(20.232) scale(.018)" xlink:href="#ad"/><use transform="translate(25.974) scale(.018)" xlink:href="#aa"/><use transform="translate(36) scale(.018)" xlink:href="#Z"/><use transform="translate(42.246) scale(.018)" xlink:href="#aB"/></g><g id="x"><use transform="scale(.018)" xlink:href="#ah"/><use transform="translate(8.946) scale(.018)" xlink:href="#Z"/><use transform="translate(15.192) scale(.018)" xlink:href="#aa"/><use transform="translate(25.218) scale(.018)" xlink:href="#ab"/><use transform="translate(35.676) scale(.018)" xlink:href="#ac"/><use transform="translate(40.014) scale(.018)" xlink:href="#ad"/></g><g id="y"><use transform="scale(.018)" xlink:href="#ah"/><use transform="translate(8.946) scale(.018)" xlink:href="#ae"/><use transform="translate(18.594) scale(.018)" xlink:href="#Z"/><use transform="translate(24.84) scale(.018)" xlink:href="#ab"/></g><g id="z"><use transform="scale(.018)" xlink:href="#ab"/><use transform="translate(10.458) scale(.018)" xlink:href="#ae"/><use transform="translate(20.106) scale(.018)" xlink:href="#ad"/><use transform="translate(25.848) scale(.018)" xlink:href="#ae"/></g><path d="M395 0v-304c0-75-39-98-98-98-53 0-99 32-124 65V0H68v-667h105v250c32-38 95-78 171-78 104 0 156 54 156 153V0H395" id="aN"/><g id="A"><use transform="scale(.018)" xlink:href="#aN"/><use transform="translate(10.224) scale(.018)" xlink:href="#aa"/><use transform="translate(20.25) scale(.018)" xlink:href="#Z"/><use transform="translate(26.496) scale(.018)" xlink:href="#aa"/></g><g id="B"><use transform="scale(.018)" xlink:href="#aj"/><use transform="translate(10.584) scale(.018)" xlink:href="#ae"/><use transform="translate(20.232) scale(.018)" xlink:href="#ak"/><use transform="translate(29.286) scale(.018)" xlink:href="#al"/><use transform="translate(44.28) scale(.018)" xlink:href="#aa"/><use transform="translate(54.306) scale(.018)" xlink:href="#am"/><use transform="translate(64.512) scale(.018)" xlink:href="#ad"/></g><g id="C"><use transform="scale(.018)" xlink:href="#aj"/><use transform="translate(10.944) scale(.018)" xlink:href="#Z"/><use transform="translate(17.19) scale(.018)" xlink:href="#ai"/><use transform="translate(27.504) scale(.018)" xlink:href="#aD"/><use transform="translate(36.558) scale(.018)" xlink:href="#ac"/><use transform="translate(40.896) scale(.018)" xlink:href="#ab"/><use transform="translate(51.354) scale(.018)" xlink:href="#aa"/><use transform="translate(61.38) scale(.018)" xlink:href="#Z"/><use transform="translate(67.626) scale(.018)" xlink:href="#aE"/><use transform="translate(70.938) scale(.018)" xlink:href="#aB"/></g><path fill="#999" d="M260 0v-277L1-667h134l184 286 182-286h134L377-277V0H260" id="aO"/><g id="D"><use transform="scale(.018)" xlink:href="#aO"/><use transform="translate(9.216) scale(.018)" xlink:href="#aw"/><use transform="translate(19.53) scale(.018)" xlink:href="#aG"/><use transform="translate(29.736) scale(.018)" xlink:href="#av"/></g><path fill="#999" d="M28-94l65-90c46 49 118 92 211 92 96 0 134-47 134-91 0-60-71-78-152-99-109-27-237-59-237-200 0-110 97-195 243-195 104 0 188 33 250 93l-67 87c-52-52-123-76-193-76-69 0-113 33-113 83 0 52 68 69 147 89 110 28 241 62 241 207 0 111-78 206-258 206C176 12 87-31 28-94" id="aP"/><g id="E"><use transform="scale(.018)" xlink:href="#aP"/><use transform="translate(10.692) scale(.018)" xlink:href="#as"/><use transform="translate(20.718) scale(.018)" xlink:href="#av"/><use transform="translate(26.964) scale(.018)" xlink:href="#ax"/><use transform="translate(36.018) scale(.018)" xlink:href="#as"/><use transform="translate(46.044) scale(.018)" xlink:href="#av"/></g><path fill="#999" d="M536 0L188-486V0H71v-667h120l341 473v-473h117V0H536" id="aQ"/><g id="F"><use transform="scale(.018)" xlink:href="#aQ"/><use transform="translate(12.96) scale(.018)" xlink:href="#aw"/></g><path fill="#999" d="M38-242c0-146 103-253 250-253 94 0 151 40 185 86l-69 64c-27-38-64-57-111-57-88 0-146 66-146 160S205-81 293-81c47 0 84-20 111-57l69 64c-34 46-91 86-185 86C141 12 38-95 38-242" id="aR"/><g id="G"><use transform="scale(.018)" xlink:href="#aR"/><use transform="translate(8.946) scale(.018)" xlink:href="#av"/><use transform="translate(15.192) scale(.018)" xlink:href="#as"/><use transform="translate(25.218) scale(.018)" xlink:href="#az"/><use transform="translate(35.676) scale(.018)" xlink:href="#ay"/><use transform="translate(40.014) scale(.018)" xlink:href="#au"/></g><g id="H"><use transform="scale(.018)" xlink:href="#aR"/><use transform="translate(8.946) scale(.018)" xlink:href="#ap"/><use transform="translate(18.594) scale(.018)" xlink:href="#av"/><use transform="translate(24.84) scale(.018)" xlink:href="#az"/></g><g id="I"><use transform="scale(.018)" xlink:href="#az"/><use transform="translate(10.458) scale(.018)" xlink:href="#ap"/><use transform="translate(20.106) scale(.018)" xlink:href="#au"/><use transform="translate(25.848) scale(.018)" xlink:href="#ap"/></g><g id="J"><use transform="scale(.018)" xlink:href="#ay"/><use transform="translate(4.338) scale(.018)" xlink:href="#aH"/></g><g id="K"><use transform="scale(.018)" xlink:href="#aH"/><use transform="translate(8.496) scale(.018)" xlink:href="#au"/><use transform="translate(14.238) scale(.018)" xlink:href="#aw"/><use transform="translate(24.552) scale(.018)" xlink:href="#av"/><use transform="translate(30.798) scale(.018)" xlink:href="#as"/><use transform="translate(40.824) scale(.018)" xlink:href="#az"/></g><g id="L"><use transform="scale(.018)" xlink:href="#aw"/><use transform="translate(10.314) scale(.018)" xlink:href="#av"/></g><g id="M"><use transform="scale(.018)" xlink:href="#au"/><use transform="translate(5.742) scale(.018)" xlink:href="#av"/><use transform="translate(11.988) scale(.018)" xlink:href="#ap"/><use transform="translate(21.636) scale(.018)" xlink:href="#at"/><use transform="translate(31.842) scale(.018)" xlink:href="#aH"/><use transform="translate(40.338) scale(.018)" xlink:href="#ar"/><use transform="translate(55.332) scale(.018)" xlink:href="#ay"/><use transform="translate(59.67) scale(.018)" xlink:href="#au"/><use transform="translate(65.412) scale(.018)" xlink:href="#au"/><use transform="translate(71.154) scale(.018)" xlink:href="#as"/><use transform="translate(81.18) scale(.018)" xlink:href="#az"/></g><path fill="#999" d="M395 0v-304c0-75-39-98-98-98-53 0-99 32-124 65V0H68v-667h105v250c32-38 95-78 171-78 104 0 156 54 156 153V0H395" id="aS"/><path fill="#999" d="M62 124l49-76c77 90 291 100 296-69v-58C370-31 315 1 252 1 129 1 38-88 38-247c0-156 90-248 214-248 61 0 116 28 155 79v-67h105v458c0 174-129 221-248 221-82 0-143-18-202-72zm345-281v-180c-23-36-75-65-124-65-83 0-136 62-136 155S200-92 283-92c49 0 101-29 124-65" id="aT"/><g id="N"><use transform="scale(.018)" xlink:href="#au"/><use transform="translate(5.742) scale(.018)" xlink:href="#aS"/><use transform="translate(15.966) scale(.018)" xlink:href="#av"/><use transform="translate(22.212) scale(.018)" xlink:href="#aw"/><use transform="translate(32.526) scale(.018)" xlink:href="#aG"/><use transform="translate(42.732) scale(.018)" xlink:href="#aT"/><use transform="translate(53.172) scale(.018)" xlink:href="#aS"/></g><g id="O"><use transform="scale(.018)" xlink:href="#aq"/><use transform="translate(9.054) scale(.018)" xlink:href="#aw"/><use transform="translate(19.368) scale(.018)" xlink:href="#aG"/><use transform="translate(29.574) scale(.018)" xlink:href="#av"/></g><g id="P"><use transform="scale(.018)" xlink:href="#aH"/><use transform="translate(8.496) scale(.018)" xlink:href="#as"/><use transform="translate(18.522) scale(.018)" xlink:href="#av"/><use transform="translate(24.768) scale(.018)" xlink:href="#ax"/><use transform="translate(33.822) scale(.018)" xlink:href="#as"/><use transform="translate(43.848) scale(.018)" xlink:href="#av"/></g><path d="M192 0v-515L83-402l-68-71 192-194h102V0H192" id="aU"/><use transform="scale(.018)" xlink:href="#aU" id="Q"/><path fill="#fff" d="M517 0L330-261 143 0H3l250-342L18-667h140l172 245 171-245h141L408-343 657 0H517" id="aV"/><g id="R"><use transform="scale(.0111)" xlink:href="#aV"/><use transform="translate(7.344) scale(.0111)" xlink:href="#aV"/><use transform="translate(14.69) scale(.0111)" xlink:href="#aV"/><use transform="translate(22.033) scale(.0111)" xlink:href="#aV"/><use transform="translate(29.378) scale(.0111)" xlink:href="#aV"/><use transform="translate(36.722) scale(.0111)" xlink:href="#aV"/><use transform="translate(44.067) scale(.0111)" xlink:href="#aV"/><use transform="translate(51.41) scale(.0111)" xlink:href="#aV"/><use transform="translate(58.756) scale(.0111)" xlink:href="#aV"/></g><path fill="#fff" d="M373 0L248-178 122 0H5l177-248L15-483h118l115 164 114-164h118L313-248 491 0H373" id="aW"/><g id="S"><use transform="scale(.01333)" xlink:href="#aV"/><use transform="matrix(.01333 0 0 .01333 8.813 0)" xlink:href="#aW"/><use transform="matrix(.01333 0 0 .01333 15.427 0)" xlink:href="#aW"/><use transform="matrix(.01333 0 0 .01333 22.04 0)" xlink:href="#aW"/></g><g id="T"><use transform="scale(.01333)" xlink:href="#aV"/><use transform="matrix(.01333 0 0 .01333 8.813 0)" xlink:href="#aW"/><use transform="matrix(.01333 0 0 .01333 15.427 0)" xlink:href="#aW"/><use transform="matrix(.01333 0 0 .01333 22.04 0)" xlink:href="#aW"/><use transform="matrix(.01333 0 0 .01333 28.653 0)" xlink:href="#aW"/><use transform="matrix(.01333 0 0 .01333 35.267 0)" xlink:href="#aW"/></g><path d="M50 0v-92c259-196 360-283 360-379 0-70-60-102-121-102-78 0-138 32-180 80l-68-77c59-71 153-107 246-107 129 0 242 73 242 206 0 123-113 233-292 368h296V0H50" id="aX"/><use transform="scale(.018)" xlink:href="#aX" id="U"/><g id="V"><use transform="scale(.018)" xlink:href="#aj"/><use transform="translate(10.584) scale(.018)" xlink:href="#ae"/><use transform="translate(20.232) scale(.018)" xlink:href="#ak"/><use transform="translate(29.286) scale(.018)" xlink:href="#al"/><use transform="translate(44.28) scale(.018)" xlink:href="#aa"/><use transform="translate(54.306) scale(.018)" xlink:href="#am"/><use transform="translate(64.512) scale(.018)" xlink:href="#ad"/></g><path d="M543 0l-49-128H178L129 0H1l262-667h146L671 0H543zM336-568L211-231h250" id="aY"/><g id="W"><use transform="scale(.018)" xlink:href="#aY"/><use transform="translate(12.114) scale(.018)" xlink:href="#ah"/><use transform="translate(21.06) scale(.018)" xlink:href="#ah"/><use transform="translate(30.006) scale(.018)" xlink:href="#aa"/><use transform="translate(40.032) scale(.018)" xlink:href="#aC"/><use transform="translate(50.472) scale(.018)" xlink:href="#ad"/><use transform="translate(56.214) scale(.018)" xlink:href="#aa"/><use transform="translate(66.24) scale(.018)" xlink:href="#ab"/></g><path d="M24-96l63-77c43 50 114 81 185 81 88 0 139-40 139-102 0-66-53-94-148-94-28 0-67 0-77 1v-105c94 7 214-1 214-87 0-62-60-94-135-94-68 0-124 26-172 74l-60-73c51-60 132-105 243-105 144 0 241 68 241 180 0 89-76 141-145 153 65 6 155 59 155 162 0 113-97 194-251 194C157 12 69-36 24-96" id="aZ"/><use transform="scale(.018)" xlink:href="#aZ" id="X"/></defs></g></svg>