<svg xmlns="http://www.w3.org/2000/svg" xmlns:xlink="http://www.w3.org/1999/xlink" width="932" height="379.33"><g transform="translate(-179.333 -880.333)"><path d="M851.33 1103.83c0-2.76 2.24-5 5-5h230c2.76 0 5 2.24 5 5v28c0 2.76-2.24 5-5 5h-230c-2.76 0-5-2.24-5-5z" fill="none"/><use xlink:href="#a" transform="translate(900.08 1123.053)"/><use xlink:href="#b" transform="translate(974.96 1123.053)"/><path d="M651.07 1016.8h-251.6" stroke="#000" stroke-width="4" fill="none"/><path d="M651.08 1018.8v-4zm-237.35 2.64l-14.27-4.64 14.27-4.64z"/><path d="M415.73 1024.2l-16.27-5.3v-4.2l16.27-5.3zm-9.8-7.4l5.8 1.88v-3.76z"/><path d="M558.33 1184.67c0-2.76 2.24-5 5-5h230c2.76 0 5 2.24 5 5v50c0 2.76-2.24 5-5 5h-230c-2.76 0-5-2.24-5-5z" fill="none"/><use xlink:href="#c" transform="translate(610.94 1205.887)"/><use xlink:href="#d" transform="translate(664.653 1205.887)"/><use xlink:href="#e" transform="translate(707.907 1205.887)"/><use xlink:href="#f" transform="translate(678.333 1223.887)"/><path d="M399.46 1059.4v-83.15c0-4.08-3.67-10.92-8.3-10.92H247.18c-4.63 0-9.07 6.84-9.07 10.92v83.16c-16.2 17.3-15.43 17.3-15.43 17.3 0 4.9 4.44 8.63 10.23 8.63h172.54c5.8 0 10.23-4.08 10.23-8.64l-16.2-17.3zm-66.97 18.73h-30.12c-1.55 0-3.1-.72-3.1-1.44l3.48-5.65c0-.72 1.16-1.2 2.7-1.2h23.94c1.16 0 2.32.48 2.32 1.2l3.86 5.64c0 1.07-1.55 1.43-3.1 1.43zm59.82-19.2H245.25v-81.96c0-1.92 1.93-4.56 4.05-4.56h139.35c2.13 0 3.67 2.65 3.67 4.57v81.96zm311.49-93.6h-46.87c-3.22 0-5.85 2.64-5.85 5.88v114.13h58.5V971.2c0-3.23-2.62-5.87-5.78-5.87zm-2.93 108.24h-41.02v-5.88h41.02v5.87zm0-11.64h-41.02v-5.88h41.02v5.88zm0-73.2h-41.02v-5.88h41.02v5.88zm294.83-22.9h-46.86c-3.2 0-5.85 2.64-5.85 5.88v114.13h58.5V971.7c0-3.23-2.63-5.87-5.8-5.87zm-2.9 108.24h-41.03v-5.88h41.02v5.87zm0-11.64h-41.03v-5.88h41.02v5.88zm0-73.2h-41.03v-5.88h41.02v5.88z" fill="#2babee"/><path d="M199.33 905.33c0-2.76 2.24-5 5-5h230c2.76 0 5 2.24 5 5v50c0 2.76-2.24 5-5 5h-230c-2.76 0-5-2.24-5-5z" fill="none"/><use xlink:href="#f" transform="translate(207.346 926.553)"/><use xlink:href="#g" transform="translate(290.272 926.553)"/><use xlink:href="#h" transform="translate(345.64 926.553)"/><use xlink:href="#i" transform="translate(396.022 926.553)"/><use xlink:href="#j" transform="translate(281.01 944.553)"/><use xlink:href="#k" transform="translate(321.133 944.553)"/><path d="M559.33 1083.83c0-2.76 2.24-5 5-5h230c2.76 0 5 2.24 5 5v50c0 2.76-2.24 5-5 5h-230c-2.76 0-5-2.24-5-5z" fill="none"/><use xlink:href="#l" transform="translate(632.884 1114.053)"/><use xlink:href="#m" transform="translate(673.492 1114.053)"/><path d="M199.33 1096c0-2.76 2.24-5 5-5h230c2.76 0 5 2.24 5 5v18.67c0 2.76-2.24 5-5 5h-230c-2.76 0-5-2.24-5-5z" fill="none"/><use xlink:href="#n" transform="translate(218.362 1110.72)"/><use xlink:href="#o" transform="translate(313.096 1110.72)"/><use xlink:href="#p" transform="translate(353.74 1110.72)"/><path d="M943 1016.5H709.6" stroke="#000" stroke-width="4" fill="none"/><path d="M943 1018.5v-4zm-219.14 2.64l-14.27-4.64 14.26-4.64z"/><path d="M725.86 1023.9l-16.27-5.3v-4.2l16.26-5.3zm-9.8-7.4l5.8 1.88v-3.76z"/><path d="M753.97 1030.28c0-2.76 2.24-5 5-5h156.25c2.76 0 5 2.24 5 5v48c0 2.76-2.24 5-5 5H758.97c-2.76 0-5-2.24-5-5z" fill="none"/><use xlink:href="#q" transform="translate(761.678 1050.503)"/><use xlink:href="#r" transform="translate(836.558 1050.503)"/><use xlink:href="#s" transform="translate(771.164 1068.503)"/><use xlink:href="#t" transform="translate(814.418 1068.503)"/><use xlink:href="#u" transform="translate(867.104 1068.503)"/><path d="M679.8 1061.87c0-2.76 2.23-5 5-5h59.48c2.76 0 5 2.24 5 5v28c0 2.76-2.24 5-5 5h-59.5c-2.75 0-5-2.24-5-5z" stroke="#fff" stroke-width="4" fill="#f14452"/><path d="M686.17 1070.5c0-2.76 2.24-5 5-5h48.52c2.75 0 5 2.24 5 5v12.67c0 2.76-2.25 5-5 5h-48.53c-2.76 0-5-2.24-5-5z" fill="none"/><use xlink:href="#v" transform="translate(686.167 1080.222)"/><use xlink:href="#w" transform="translate(712.867 1080.222)"/><path d="M856.43 1016.08c0 7.92-6.4 14.34-14.33 14.34-7.92 0-14.33-6.42-14.33-14.34 0-7.9 6.4-14.33 14.33-14.33 7.92 0 14.33 6.42 14.33 14.33z" stroke="#000" stroke-width="2" fill="#fff"/><path d="M829.8 1008.75c0-2.76 2.25-5 5-5h14c2.77 0 5 2.24 5 5v15.33c0 2.76-2.23 5-5 5h-14c-2.75 0-5-2.24-5-5z" fill="none"/><use xlink:href="#x" transform="translate(836.453 1021.97)"/><path d="M551.42 1015.67c0 7.9-6.42 14.33-14.34 14.33-7.9 0-14.33-6.42-14.33-14.33 0-7.92 6.42-14.34 14.33-14.34 7.92 0 14.34 6.42 14.34 14.34z" stroke="#000" stroke-width="2" fill="#fff"/><path d="M525.17 1008.33c0-2.76 2.24-5 5-5h14c2.76 0 5 2.24 5 5v15.34c0 2.76-2.24 5-5 5h-14c-2.76 0-5-2.24-5-5z" fill="none"/><use xlink:href="#y" transform="translate(532 1021.553)"/><path d="M340.2 1153.06h-1.05v-1.84c0-3.86-2.56-5.86-5.55-5.86h-.5c-3.05 0-5.57 1.94-5.57 5.86v1.84h-1.02c-.43 0-1.03.56-1.03 1v9.84c0 .43.6 1 1.04 1h13.68c.44 0 1.04-.57 1.04-1v-9.85c-.05-.43-.65-1-1.03-1zm-6.12 5.82v4.08h-1.52v-4.08c-.6-.28-1.04-.84-1.04-1.53 0-.93.83-1.7 1.8-1.7.98 0 1.8.77 1.8 1.7 0 .63-.44 1.2-1.04 1.53zm3.17-5.82h-7.8v-1.84c0-2.46 1.36-4.14 3.66-4.14h.5c2.34 0 3.65 1.68 3.65 4.14v1.84z" fill="#0eb29c"/><path d="M974.7 1040.03c0-2.76 2.25-5 5-5h85.75c2.76 0 5 2.24 5 5v50c0 2.76-2.24 5-5 5H979.7c-2.75 0-5-2.24-5-5z" stroke="#fff" stroke-width="4" fill="#0eb29c"/><path d="M979.5 1061.5c0-2.76 2.23-5 5-5h77.9c2.75 0 5 2.24 5 5v18.67c0 2.76-2.25 5-5 5h-77.9c-2.77 0-5-2.24-5-5z" fill="none"/><use xlink:href="#z" transform="translate(979.49 1074.222)"/><path d="M979.08 1078.17c0-2.76 2.24-5 5-5h83.53c2.77 0 5 2.24 5 5v12.66c0 2.76-2.23 5-5 5H984.1c-2.76 0-5-2.24-5-5z" fill="none"/><use xlink:href="#A" transform="translate(979.083 1088.533)"/><use xlink:href="#B" transform="translate(1011.163 1088.533)"/><path d="M1064.1 1047.16h-1.03v-1.84c0-3.86-2.57-5.85-5.56-5.85h-.48c-3.05 0-5.57 1.93-5.57 5.85v1.84h-1.02c-.45 0-1.04.57-1.04 1v9.84c0 .43.58 1 1.03 1h13.66c.44 0 1.03-.57 1.03-1v-9.84c-.04-.43-.64-1-1.02-1zm-6.1 5.82v4.08h-1.53v-4.08c-.6-.27-1.04-.84-1.04-1.52 0-.94.84-1.72 1.8-1.72 1 0 1.8.78 1.8 1.72 0 .62-.43 1.2-1.03 1.52zm3.17-5.82h-7.8v-1.84c0-2.46 1.35-4.14 3.65-4.14h.5c2.34 0 3.65 1.68 3.65 4.14v1.84z" fill="#fff"/><path d="M452.13 1031.5c0-2.76 2.23-5 5-5h156.25c2.76 0 5 2.24 5 5v48c0 2.76-2.24 5-5 5H457.13c-2.77 0-5-2.24-5-5z" fill="none"/><use xlink:href="#q" transform="translate(459.836 1051.72)"/><use xlink:href="#r" transform="translate(534.716 1051.72)"/><use xlink:href="#f" transform="translate(535.625 1069.72)"/><path d="M317 1119.67v48c0 2.76 2.24 5 5 5h648.33c2.76 0 5-2.24 5-5v-30.84" stroke="#0eb29c" stroke-width="4" fill="none"/><path d="M979.97 1151.1h-9.27l4.63-14.27z" fill="#0eb29c"/><path d="M982.72 1153.1h-14.77l5.28-16.27h4.2zm-9.27-4h3.77l-1.9-5.8z" fill="#0eb29c"/><path d="M692.33 1172c0 7.92-6.4 14.33-14.33 14.33-7.92 0-14.33-6.4-14.33-14.33 0-7.92 6.4-14.33 14.33-14.33 7.92 0 14.33 6.4 14.33 14.33z" stroke="#000" stroke-width="2" fill="#fff"/><path d="M665.08 1164.67c0-2.76 2.24-5 5-5h14c2.76 0 5 2.24 5 5V1180c0 2.76-2.24 5-5 5h-14c-2.76 0-5-2.24-5-5z" fill="none"/><use xlink:href="#C" transform="translate(673.663 1177.887)"/><defs><path fill="#999" d="M71 0v-667h293c140 0 218 96 218 209s-79 209-218 209H188V0H71zm391-458c0-64-48-106-114-106H188v212h160c66 0 114-42 114-106" id="D"/><path fill="#999" d="M363 0v-52C272 53 39 33 39-148c0-184 234-194 324-95v-72c0-56-46-90-113-90-54 0-101 20-143 61l-43-73c56-53 126-78 203-78 107 0 201 45 201 175V0H363zm0-110v-73c-45-73-218-69-218 37 0 105 174 109 218 36" id="E"/><path fill="#999" d="M63 95c45 16 90 10 109-34l24-55L-2-483h112l141 362 141-362h113L272 87C230 187 154 208 47 189" id="F"/><path fill="#999" d="M660 0v-315c0-52-23-87-79-87-47 0-91 33-112 64V0H364v-315c0-52-23-87-80-87-46 0-89 33-111 65V0H68v-483h105v66c20-30 84-78 157-78 72 0 116 36 132 89 28-44 92-89 164-89 89 0 139 48 139 146V0H660" id="G"/><path fill="#999" d="M38-242c0-140 102-253 245-253 153 0 246 120 238 288H148c8 73 63 133 154 133 47 0 103-19 137-53l48 69c-48 46-119 70-196 70C146 12 38-89 38-242zm245-167c-90 0-131 69-136 128h272c-2-57-41-128-136-128" id="H"/><path fill="#999" d="M394 0v-302c0-75-38-100-97-100-54 0-100 32-124 65V0H68v-483h105v66c32-38 94-78 170-78 104 0 156 56 156 155V0H394" id="I"/><path fill="#999" d="M213 12C132 12 89-32 89-112v-279H9v-92h80v-132h105v132h98v92h-98v253c-9 59 64 71 93 40l25 79c-19 18-50 31-99 31" id="J"/><g id="a"><use transform="scale(.018)" xlink:href="#D"/><use transform="translate(10.584) scale(.018)" xlink:href="#E"/><use transform="translate(20.232) scale(.018)" xlink:href="#F"/><use transform="translate(29.286) scale(.018)" xlink:href="#G"/><use transform="translate(44.28) scale(.018)" xlink:href="#H"/><use transform="translate(54.306) scale(.018)" xlink:href="#I"/><use transform="translate(64.512) scale(.018)" xlink:href="#J"/></g><path fill="#999" d="M68 0v-483h105v71c36-46 94-82 157-82v104c-63-14-128 20-157 61V0H68" id="K"/><path fill="#999" d="M286 12C133 12 38-103 38-242c0-138 95-253 248-253 155 0 249 115 249 253 0 139-94 254-249 254zm0-93c90 0 140-75 140-161 0-85-50-160-140-160-89 0-139 75-139 160 0 86 50 161 139 161" id="L"/><path fill="#999" d="M195 0L-2-483h112l141 362 141-362h113L308 0H195" id="M"/><path fill="#999" d="M120-557c-35 0-65-29-65-65s30-65 65-65c36 0 65 29 65 65s-29 65-65 65zM68 0v-483h105V0H68" id="N"/><path fill="#999" d="M408 0v-66c-37 48-93 78-155 78C129 12 38-82 38-241c0-156 90-254 215-254 60 0 116 28 155 79v-251h105V0H408zm0-145v-192c-24-36-75-65-125-65-83 0-136 67-136 161 0 93 53 160 136 160 50 0 101-28 125-64" id="O"/><g id="b"><use transform="scale(.018)" xlink:href="#D"/><use transform="translate(10.944) scale(.018)" xlink:href="#K"/><use transform="translate(17.19) scale(.018)" xlink:href="#L"/><use transform="translate(27.504) scale(.018)" xlink:href="#M"/><use transform="translate(36.558) scale(.018)" xlink:href="#N"/><use transform="translate(40.896) scale(.018)" xlink:href="#O"/><use transform="translate(51.354) scale(.018)" xlink:href="#H"/><use transform="translate(61.38) scale(.018)" xlink:href="#K"/></g><path d="M386 12C194 12 41-128 41-333s153-345 345-345c140 0 223 70 273 150l-100 51c-32-55-96-97-173-97-127 0-225 101-225 241S259-92 386-92c77 0 141-41 173-97l100 51C608-58 526 12 386 12" id="P"/><path d="M68 0v-483h105v71c36-46 94-82 157-82v104c-63-14-128 20-157 61V0H68" id="Q"/><path d="M38-242c0-140 102-253 245-253 153 0 246 120 238 288H148c8 73 63 133 154 133 47 0 103-19 137-53l48 69c-48 46-119 70-196 70C146 12 38-89 38-242zm245-167c-90 0-131 69-136 128h272c-2-57-41-128-136-128" id="R"/><path d="M408 0v-66c-37 48-93 78-155 78C129 12 38-82 38-241c0-156 90-254 215-254 60 0 116 28 155 79v-251h105V0H408zm0-145v-192c-24-36-75-65-125-65-83 0-136 67-136 161 0 93 53 160 136 160 50 0 101-28 125-64" id="S"/><path d="M120-557c-35 0-65-29-65-65s30-65 65-65c36 0 65 29 65 65s-29 65-65 65zM68 0v-483h105V0H68" id="T"/><path d="M213 12C132 12 89-32 89-112v-279H9v-92h80v-132h105v132h98v92h-98v253c-9 59 64 71 93 40l25 79c-19 18-50 31-99 31" id="U"/><g id="c"><use transform="scale(.018)" xlink:href="#P"/><use transform="translate(12.276) scale(.018)" xlink:href="#Q"/><use transform="translate(18.522) scale(.018)" xlink:href="#R"/><use transform="translate(28.548) scale(.018)" xlink:href="#S"/><use transform="translate(39.006) scale(.018)" xlink:href="#T"/><use transform="translate(43.344) scale(.018)" xlink:href="#U"/></g><path d="M363 0v-52C272 53 39 33 39-148c0-184 234-194 324-95v-72c0-56-46-90-113-90-54 0-101 20-143 61l-43-73c56-53 126-78 203-78 107 0 201 45 201 175V0H363zm0-110v-73c-45-73-218-69-218 37 0 105 174 109 218 36" id="V"/><g id="d"><use transform="scale(.018)" xlink:href="#P"/><use transform="translate(12.276) scale(.018)" xlink:href="#V"/><use transform="translate(21.924) scale(.018)" xlink:href="#Q"/><use transform="translate(28.17) scale(.018)" xlink:href="#S"/></g><path d="M71 0v-667h248c208 0 349 138 349 334S527 0 319 0H71zm117-103h131c145 0 229-104 229-230 0-129-80-231-229-231H188v461" id="W"/><g id="e"><use transform="scale(.018)" xlink:href="#W"/><use transform="translate(12.78) scale(.018)" xlink:href="#V"/><use transform="translate(22.428) scale(.018)" xlink:href="#U"/><use transform="translate(28.17) scale(.018)" xlink:href="#V"/></g><path d="M394 0v-64c-35 39-95 76-171 76C119 12 68-42 68-141v-342h105v304c-7 144 181 106 221 35v-339h105V0H394" id="X"/><path d="M26-63l48-76c34 35 101 68 164 68s95-23 95-59c0-42-51-57-110-70-83-18-182-40-182-148 0-79 68-147 190-147 82 0 144 29 188 68l-44 74c-29-33-83-58-143-58-55 0-90 20-90 54 0 37 48 50 105 63 84 18 187 42 187 156 0 85-71 150-201 150-82 0-157-26-207-75" id="Y"/><path d="M286 12C133 12 38-103 38-242c0-138 95-253 248-253 155 0 249 115 249 253 0 139-94 254-249 254zm0-93c90 0 140-75 140-161 0-85-50-160-140-160-89 0-139 75-139 160 0 86 50 161 139 161" id="Z"/><path d="M660 0v-315c0-52-23-87-79-87-47 0-91 33-112 64V0H364v-315c0-52-23-87-80-87-46 0-89 33-111 65V0H68v-483h105v66c20-30 84-78 157-78 72 0 116 36 132 89 28-44 92-89 164-89 89 0 139 48 139 146V0H660" id="aa"/><g id="f"><use transform="scale(.018)" xlink:href="#P"/><use transform="translate(12.276) scale(.018)" xlink:href="#X"/><use transform="translate(22.482) scale(.018)" xlink:href="#Y"/><use transform="translate(30.978) scale(.018)" xlink:href="#U"/><use transform="translate(36.72) scale(.018)" xlink:href="#Z"/><use transform="translate(47.034) scale(.018)" xlink:href="#aa"/><use transform="translate(62.028) scale(.018)" xlink:href="#R"/><use transform="translate(72.054) scale(.018)" xlink:href="#Q"/></g><path d="M394 0v-302c0-75-38-100-97-100-54 0-100 32-124 65V0H68v-483h105v66c32-38 94-78 170-78 104 0 156 56 156 155V0H394" id="ab"/><g id="g"><use transform="scale(.018)" xlink:href="#R"/><use transform="translate(10.026) scale(.018)" xlink:href="#ab"/><use transform="translate(20.232) scale(.018)" xlink:href="#U"/><use transform="translate(25.974) scale(.018)" xlink:href="#R"/><use transform="translate(36) scale(.018)" xlink:href="#Q"/><use transform="translate(42.246) scale(.018)" xlink:href="#Y"/></g><path d="M38-242c0-146 103-253 250-253 94 0 151 40 185 86l-69 64c-27-38-64-57-111-57-88 0-146 66-146 160S205-81 293-81c47 0 84-20 111-57l69 64c-34 46-91 86-185 86C141 12 38-95 38-242" id="ac"/><g id="h"><use transform="scale(.018)" xlink:href="#ac"/><use transform="translate(8.946) scale(.018)" xlink:href="#Q"/><use transform="translate(15.192) scale(.018)" xlink:href="#R"/><use transform="translate(25.218) scale(.018)" xlink:href="#S"/><use transform="translate(35.676) scale(.018)" xlink:href="#T"/><use transform="translate(40.014) scale(.018)" xlink:href="#U"/></g><g id="i"><use transform="scale(.018)" xlink:href="#ac"/><use transform="translate(8.946) scale(.018)" xlink:href="#V"/><use transform="translate(18.594) scale(.018)" xlink:href="#Q"/><use transform="translate(24.84) scale(.018)" xlink:href="#S"/></g><g id="j"><use transform="scale(.018)" xlink:href="#S"/><use transform="translate(10.458) scale(.018)" xlink:href="#V"/><use transform="translate(20.106) scale(.018)" xlink:href="#U"/><use transform="translate(25.848) scale(.018)" xlink:href="#V"/></g><path d="M395 0v-304c0-75-39-98-98-98-53 0-99 32-124 65V0H68v-667h105v250c32-38 95-78 171-78 104 0 156 54 156 153V0H395" id="ad"/><g id="k"><use transform="scale(.018)" xlink:href="#ad"/><use transform="translate(10.224) scale(.018)" xlink:href="#R"/><use transform="translate(20.25) scale(.018)" xlink:href="#Q"/><use transform="translate(26.496) scale(.018)" xlink:href="#R"/></g><path fill="#999" d="M260 0v-277L1-667h134l184 286 182-286h134L377-277V0H260" id="ae"/><path fill="#999" d="M394 0v-64c-35 39-95 76-171 76C119 12 68-42 68-141v-342h105v304c-7 144 181 106 221 35v-339h105V0H394" id="af"/><g id="l"><use transform="scale(.018)" xlink:href="#ae"/><use transform="translate(9.216) scale(.018)" xlink:href="#L"/><use transform="translate(19.53) scale(.018)" xlink:href="#af"/><use transform="translate(29.736) scale(.018)" xlink:href="#K"/></g><path fill="#999" d="M28-94l65-90c46 49 118 92 211 92 96 0 134-47 134-91 0-60-71-78-152-99-109-27-237-59-237-200 0-110 97-195 243-195 104 0 188 33 250 93l-67 87c-52-52-123-76-193-76-69 0-113 33-113 83 0 52 68 69 147 89 110 28 241 62 241 207 0 111-78 206-258 206C176 12 87-31 28-94" id="ag"/><g id="m"><use transform="scale(.018)" xlink:href="#ag"/><use transform="translate(10.692) scale(.018)" xlink:href="#H"/><use transform="translate(20.718) scale(.018)" xlink:href="#K"/><use transform="translate(26.964) scale(.018)" xlink:href="#M"/><use transform="translate(36.018) scale(.018)" xlink:href="#H"/><use transform="translate(46.044) scale(.018)" xlink:href="#K"/></g><path fill="#999" d="M386 12C194 12 41-128 41-333s153-345 345-345c140 0 223 70 273 150l-100 51c-32-55-96-97-173-97-127 0-225 101-225 241S259-92 386-92c77 0 141-41 173-97l100 51C608-58 526 12 386 12" id="ah"/><path fill="#999" d="M26-63l48-76c34 35 101 68 164 68s95-23 95-59c0-42-51-57-110-70-83-18-182-40-182-148 0-79 68-147 190-147 82 0 144 29 188 68l-44 74c-29-33-83-58-143-58-55 0-90 20-90 54 0 37 48 50 105 63 84 18 187 42 187 156 0 85-71 150-201 150-82 0-157-26-207-75" id="ai"/><path fill="#999" d="M83-391S48-601 48-618c0-32 26-59 59-59 32 0 59 27 59 59 0 17-35 227-35 227H83" id="aj"/><g id="n"><use transform="scale(.018)" xlink:href="#ah"/><use transform="translate(12.276) scale(.018)" xlink:href="#af"/><use transform="translate(22.482) scale(.018)" xlink:href="#ai"/><use transform="translate(30.978) scale(.018)" xlink:href="#J"/><use transform="translate(36.72) scale(.018)" xlink:href="#L"/><use transform="translate(47.034) scale(.018)" xlink:href="#G"/><use transform="translate(62.028) scale(.018)" xlink:href="#H"/><use transform="translate(72.054) scale(.018)" xlink:href="#K"/><use transform="translate(78.3) scale(.018)" xlink:href="#aj"/><use transform="translate(81.612) scale(.018)" xlink:href="#ai"/></g><path fill="#999" d="M581 0L451-492 322 0H197L6-667h131l130 514 138-514h93l138 514 129-514h131L706 0H581" id="ak"/><path fill="#999" d="M68 0v-667h105v251c38-51 94-79 155-79 124 0 214 98 214 254 0 159-91 253-214 253-63 0-118-30-155-78V0H68zm105-145c23 36 75 64 124 64 84 0 137-66 137-160s-53-161-137-161c-49 0-101 30-124 66v191" id="al"/><g id="o"><use transform="scale(.018)" xlink:href="#ak"/><use transform="translate(15.534) scale(.018)" xlink:href="#H"/><use transform="translate(25.56) scale(.018)" xlink:href="#al"/></g><path fill="#999" d="M71 0v-667h328c122 0 190 76 190 170 0 84-54 140-116 153 71 11 129 82 129 164C602-77 533 0 408 0H71zm117-391h187c60 0 94-36 94-86s-34-87-94-87H188v173zm0 288h192c64 0 102-35 102-93 0-50-35-92-102-92H188v185" id="am"/><path fill="#999" d="M489 0L377-354 265 0H155L5-483h109l102 351 115-351h92l115 351 102-351h109L599 0H489" id="an"/><g id="p"><use transform="scale(.018)" xlink:href="#am"/><use transform="translate(11.664) scale(.018)" xlink:href="#K"/><use transform="translate(17.91) scale(.018)" xlink:href="#L"/><use transform="translate(28.224) scale(.018)" xlink:href="#an"/><use transform="translate(41.796) scale(.018)" xlink:href="#ai"/><use transform="translate(50.292) scale(.018)" xlink:href="#H"/><use transform="translate(60.318) scale(.018)" xlink:href="#K"/></g><path d="M71 0v-667h293c140 0 218 96 218 209s-79 209-218 209H188V0H71zm391-458c0-64-48-106-114-106H188v212h160c66 0 114-42 114-106" id="ao"/><path d="M63 95c45 16 90 10 109-34l24-55L-2-483h112l141 362 141-362h113L272 87C230 187 154 208 47 189" id="ap"/><g id="q"><use transform="scale(.018)" xlink:href="#ao"/><use transform="translate(10.584) scale(.018)" xlink:href="#V"/><use transform="translate(20.232) scale(.018)" xlink:href="#ap"/><use transform="translate(29.286) scale(.018)" xlink:href="#aa"/><use transform="translate(44.28) scale(.018)" xlink:href="#R"/><use transform="translate(54.306) scale(.018)" xlink:href="#ab"/><use transform="translate(64.512) scale(.018)" xlink:href="#U"/></g><path d="M543 0l-49-128H178L129 0H1l262-667h146L671 0H543zM336-568L211-231h250" id="aq"/><path d="M173 184H68v-667h105v66c36-48 92-78 155-78 125 0 214 94 214 253S453 12 328 12c-61 0-116-27-155-79v251zm260-426c0-93-53-160-136-160-49 0-101 29-124 65v191c23 35 75 65 124 65 83 0 136-67 136-161" id="ar"/><g id="r"><use transform="scale(.018)" xlink:href="#aq"/><use transform="translate(12.114) scale(.018)" xlink:href="#ac"/><use transform="translate(21.06) scale(.018)" xlink:href="#ac"/><use transform="translate(30.006) scale(.018)" xlink:href="#R"/><use transform="translate(40.032) scale(.018)" xlink:href="#ar"/><use transform="translate(50.472) scale(.018)" xlink:href="#U"/><use transform="translate(56.214) scale(.018)" xlink:href="#R"/><use transform="translate(66.24) scale(.018)" xlink:href="#S"/></g><g id="s"><use transform="scale(.018)" xlink:href="#P"/><use transform="translate(12.276) scale(.018)" xlink:href="#V"/><use transform="translate(21.924) scale(.018)" xlink:href="#Q"/><use transform="translate(28.17) scale(.018)" xlink:href="#S"/></g><path d="M230 0v-564H28v-103h521v103H347V0H230" id="as"/><path d="M388 0L240-199l-67 69V0H68v-667h105v417l213-233h130L315-264 520 0H388" id="at"/><g id="t"><use transform="scale(.018)" xlink:href="#as"/><use transform="translate(8.496) scale(.018)" xlink:href="#Z"/><use transform="translate(18.81) scale(.018)" xlink:href="#at"/><use transform="translate(27.828) scale(.018)" xlink:href="#R"/><use transform="translate(37.854) scale(.018)" xlink:href="#ab"/></g><path d="M28-94l65-90c46 49 118 92 211 92 96 0 134-47 134-91 0-60-71-78-152-99-109-27-237-59-237-200 0-110 97-195 243-195 104 0 188 33 250 93l-67 87c-52-52-123-76-193-76-69 0-113 33-113 83 0 52 68 69 147 89 110 28 241 62 241 207 0 111-78 206-258 206C176 12 87-31 28-94" id="au"/><g id="u"><use transform="scale(.018)" xlink:href="#au"/><use transform="translate(10.692) scale(.018)" xlink:href="#R"/><use transform="translate(20.718) scale(.018)" xlink:href="#ab"/><use transform="translate(30.924) scale(.018)" xlink:href="#U"/></g><path fill="#fff" d="M386 12C194 12 41-128 41-333s153-345 345-345c140 0 223 70 273 150l-100 51c-32-55-96-97-173-97-127 0-225 101-225 241S259-92 386-92c77 0 141-41 173-97l100 51C608-58 526 12 386 12" id="av"/><path fill="#fff" d="M363 0v-52C272 53 39 33 39-148c0-184 234-194 324-95v-72c0-56-46-90-113-90-54 0-101 20-143 61l-43-73c56-53 126-78 203-78 107 0 201 45 201 175V0H363zm0-110v-73c-45-73-218-69-218 37 0 105 174 109 218 36" id="aw"/><path fill="#fff" d="M68 0v-483h105v71c36-46 94-82 157-82v104c-63-14-128 20-157 61V0H68" id="ax"/><path fill="#fff" d="M408 0v-66c-37 48-93 78-155 78C129 12 38-82 38-241c0-156 90-254 215-254 60 0 116 28 155 79v-251h105V0H408zm0-145v-192c-24-36-75-65-125-65-83 0-136 67-136 161 0 93 53 160 136 160 50 0 101-28 125-64" id="ay"/><g id="v"><use transform="scale(.0111)" xlink:href="#av"/><use transform="translate(7.578) scale(.0111)" xlink:href="#aw"/><use transform="translate(13.533) scale(.0111)" xlink:href="#ax"/><use transform="translate(17.39) scale(.0111)" xlink:href="#ay"/></g><path fill="#fff" d="M230 0v-564H28v-103h521v103H347V0H230" id="az"/><path fill="#fff" d="M286 12C133 12 38-103 38-242c0-138 95-253 248-253 155 0 249 115 249 253 0 139-94 254-249 254zm0-93c90 0 140-75 140-161 0-85-50-160-140-160-89 0-139 75-139 160 0 86 50 161 139 161" id="aA"/><path fill="#fff" d="M388 0L240-199l-67 69V0H68v-667h105v417l213-233h130L315-264 520 0H388" id="aB"/><path fill="#fff" d="M38-242c0-140 102-253 245-253 153 0 246 120 238 288H148c8 73 63 133 154 133 47 0 103-19 137-53l48 69c-48 46-119 70-196 70C146 12 38-89 38-242zm245-167c-90 0-131 69-136 128h272c-2-57-41-128-136-128" id="aC"/><path fill="#fff" d="M394 0v-302c0-75-38-100-97-100-54 0-100 32-124 65V0H68v-483h105v66c32-38 94-78 170-78 104 0 156 56 156 155V0H394" id="aD"/><g id="w"><use transform="scale(.0111)" xlink:href="#az"/><use transform="translate(5.244) scale(.0111)" xlink:href="#aA"/><use transform="translate(11.61) scale(.0111)" xlink:href="#aB"/><use transform="translate(17.178) scale(.0111)" xlink:href="#aC"/><use transform="translate(23.367) scale(.0111)" xlink:href="#aD"/></g><path d="M50 0v-92c259-196 360-283 360-379 0-70-60-102-121-102-78 0-138 32-180 80l-68-77c59-71 153-107 246-107 129 0 242 73 242 206 0 123-113 233-292 368h296V0H50" id="aE"/><use transform="scale(.018)" xlink:href="#aE" id="x"/><path d="M24-96l63-77c43 50 114 81 185 81 88 0 139-40 139-102 0-66-53-94-148-94-28 0-67 0-77 1v-105c94 7 214-1 214-87 0-62-60-94-135-94-68 0-124 26-172 74l-60-73c51-60 132-105 243-105 144 0 241 68 241 180 0 89-76 141-145 153 65 6 155 59 155 162 0 113-97 194-251 194C157 12 69-36 24-96" id="aF"/><use transform="scale(.018)" xlink:href="#aF" id="y"/><path fill="#fff" d="M517 0L330-261 143 0H3l250-342L18-667h140l172 245 171-245h141L408-343 657 0H517" id="aG"/><g id="z"><use transform="scale(.0111)" xlink:href="#aG"/><use transform="translate(7.344) scale(.0111)" xlink:href="#aG"/><use transform="translate(14.69) scale(.0111)" xlink:href="#aG"/><use transform="translate(22.033) scale(.0111)" xlink:href="#aG"/><use transform="translate(29.378) scale(.0111)" xlink:href="#aG"/><use transform="translate(36.722) scale(.0111)" xlink:href="#aG"/><use transform="translate(44.067) scale(.0111)" xlink:href="#aG"/><use transform="translate(51.41) scale(.0111)" xlink:href="#aG"/><use transform="translate(58.756) scale(.0111)" xlink:href="#aG"/></g><path fill="#fff" d="M373 0L248-178 122 0H5l177-248L15-483h118l115 164 114-164h118L313-248 491 0H373" id="aH"/><g id="A"><use transform="scale(.01333)" xlink:href="#aG"/><use transform="translate(8.813) scale(.01333)" xlink:href="#aH"/><use transform="translate(15.427) scale(.01333)" xlink:href="#aH"/><use transform="translate(22.04) scale(.01333)" xlink:href="#aH"/></g><g id="B"><use transform="scale(.01333)" xlink:href="#aG"/><use transform="translate(8.813) scale(.01333)" xlink:href="#aH"/><use transform="translate(15.427) scale(.01333)" xlink:href="#aH"/><use transform="translate(22.04) scale(.01333)" xlink:href="#aH"/><use transform="translate(28.653) scale(.01333)" xlink:href="#aH"/><use transform="translate(35.267) scale(.01333)" xlink:href="#aH"/></g><path d="M192 0v-515L83-402l-68-71 192-194h102V0H192" id="aI"/><use transform="scale(.018)" xlink:href="#aI" id="C"/></defs></g></svg>