<svg width="503" height="58" viewBox="0 0 503 58" xmlns="http://www.w3.org/2000/svg" xmlns:xlink="http://www.w3.org/1999/xlink"><title>Resolve Digital Logo</title><defs><path id="a" d="M1.068 52.37H14.11V.495H1.068V52.37z"/><path id="c" d="M1.22 46.35h9.686V.89H1.22v45.46z"/><path id="e" d="M.897 7.368h7.08V.288H.897v7.08z"/><path id="g" d="M.897 7.23h7.08V.15H.897v7.08z"/><path id="i" d="M.897 7.09h7.08V.01H.897v7.08z"/><path id="k" d="M.897 8.285h7.08v-7.08H.897v7.08z"/></defs><g fill="none" fill-rule="evenodd"><path d="M89.69 27.686c1.23-1.057 1.844-2.756 1.844-5.093 0-2.338-.632-3.943-1.893-4.814-1.26-.87-3.514-1.307-6.756-1.307h-7.68v12.8h7.526c3.412 0 5.732-.53 6.96-1.588m8.04-5.07c0 5.906-2.58 9.626-7.732 11.16l9.37 13.005h-7.68l-8.55-12.03h-7.935v12.03h-6.04V10.996h13.31c5.46 0 9.368.923 11.724 2.766 2.354 1.843 3.532 4.795 3.532 8.857m32.252-11.624v5.683h-19.096v9.47h17.15v5.373h-17.15V41.1h19.71v5.68h-25.752V10.997h25.138zm17.583 4.71c-1.757 0-3.2.36-4.325 1.076-1.127.717-1.69 1.8-1.69 3.25s.563 2.56 1.69 3.327c1.126.766 3.522 1.594 7.192 2.482 3.668.888 6.434 2.133 8.294 3.736 1.86 1.604 2.79 3.968 2.79 7.09s-1.178 5.657-3.534 7.602c-2.353 1.947-5.444 2.92-9.265 2.92-5.597 0-10.564-1.93-14.897-5.786l3.788-4.558c3.617 3.142 7.373 4.712 11.262 4.712 1.946 0 3.49-.418 4.634-1.256 1.144-.836 1.714-1.945 1.714-3.326 0-1.383-.537-2.458-1.612-3.226-1.074-.768-2.926-1.466-5.554-2.098-2.628-.632-4.626-1.21-5.99-1.742a13.528 13.528 0 0 1-3.636-2.072c-2.114-1.605-3.172-4.06-3.172-7.373 0-3.31 1.203-5.86 3.608-7.653 2.406-1.792 5.384-2.688 8.934-2.688 2.286 0 4.557.377 6.808 1.126 2.253.752 4.198 1.81 5.837 3.175l-3.223 4.556c-1.06-.955-2.492-1.74-4.3-2.355-1.81-.615-3.594-.92-5.35-.92m45.356 3.74c-2.44-2.528-5.434-3.79-8.984-3.79s-6.546 1.262-8.987 3.79c-2.44 2.526-3.66 5.587-3.66 9.19 0 3.6 1.22 6.662 3.66 9.186 2.44 2.53 5.436 3.79 8.985 3.79 3.55 0 6.543-1.26 8.983-3.79 2.44-2.522 3.663-5.584 3.663-9.186 0-3.6-1.222-6.662-3.662-9.19m4.43 22.398c-3.617 3.533-8.088 5.3-13.41 5.3-5.326 0-9.798-1.767-13.415-5.3-3.62-3.532-5.427-7.933-5.427-13.207 0-5.273 1.807-9.676 5.426-13.21 3.617-3.53 8.09-5.296 13.413-5.296s9.794 1.764 13.41 5.296c3.62 3.533 5.43 7.936 5.43 13.21 0 5.273-1.81 9.674-5.43 13.207m11.473 4.937V10.997h6.04v30.05h16.33v5.735h-22.37zm40.647 0h-6.757l-14.385-35.784h6.757L246.09 37.72l11.005-26.724h6.758L249.467 46.78zm43.055-35.784v5.683h-19.096v9.47h17.15v5.373h-17.15V41.1h19.71v5.68h-25.75V10.997h25.136zm45.358 17.867c0-8.192-4.694-12.286-14.08-12.286h-6.04V41.1h6.706c4.333 0 7.654-1.034 9.957-3.098 2.304-2.064 3.456-5.11 3.456-9.14m.92-13.18c3.446 3.12 5.17 7.465 5.17 13.028 0 5.564-1.673 9.965-5.016 13.208-3.347 3.243-8.465 4.863-15.36 4.863H311.72V11h12.286c6.414 0 11.346 1.56 14.794 4.684m11.365-4.686h6.04V46.78h-6.04V10.997zm39.163 18.38h6.04V41.61c-3.377 3.72-8.208 5.58-14.487 5.58-5.29 0-9.716-1.74-13.283-5.222-3.567-3.48-5.35-7.884-5.35-13.208s1.818-9.76 5.453-13.31c3.633-3.548 8.028-5.324 13.18-5.324 5.153 0 9.437 1.502 12.852 4.505l-3.225 4.61c-1.4-1.195-2.81-2.023-4.224-2.484-1.418-.46-3.064-.69-4.94-.69-3.62 0-6.655 1.17-9.114 3.506-2.46 2.34-3.687 5.412-3.687 9.217 0 3.804 1.195 6.86 3.584 9.163 2.388 2.304 5.28 3.456 8.676 3.456s6.237-.735 8.524-2.203v-9.83zm12.39-18.38h6.04V46.78h-6.04V10.997zm27.902 5.53V46.78h-6.043V16.527h-10.853v-5.53h27.748v5.53H429.62zm33.53 16.534l-6.502-14.743-6.502 14.744h13.004zm-15.462 5.583l-3.582 8.138h-6.45l15.767-35.783h6.45L475.64 46.78h-6.45l-3.583-8.137h-17.92zm31.332 8.137V10.997h6.04v30.05h16.33v5.735h-22.37z" fill="#2A3843"/><g transform="matrix(1 0 0 -1 .333 55)"><mask id="b" fill="#fff"><use xlink:href="#a"/></mask><path d="M13.333 33.333c0 3.424-2.65 6.202-6.004 6.468 3.353.27 6.002 3.048 6.002 6.47a6.52 6.52 0 0 1-13.04 0c0-3.422 2.647-6.2 6.003-6.47C2.94 39.537.292 36.76.292 33.335c0-3.424 2.648-6.2 6.004-6.47C2.94 26.598.292 23.82.292 20.397c0-3.46 2.703-6.26 6.108-6.48C2.995 13.7.292 10.897.292 7.44a6.52 6.52 0 0 1 13.04 0c0 3.457-2.7 6.26-6.107 6.477 3.406.218 6.108 3.02 6.108 6.48 0 3.423-2.65 6.2-6.004 6.467 3.353.268 6.002 3.045 6.002 6.47" fill="#29ABE2" transform="translate(.776 -.422)" mask="url(#b)"/></g><g transform="matrix(1 0 0 -1 19 52.333)"><mask id="d" fill="#fff"><use xlink:href="#c"/></mask><path d="M1.22 41.505a4.845 4.845 0 1 1 9.688.002 4.845 4.845 0 0 1-9.69-.002m.002-11.923a4.845 4.845 0 1 1 9.688 0 4.845 4.845 0 0 1-9.69 0m.002-11.924a4.845 4.845 0 1 1 9.688.002 4.845 4.845 0 0 1-9.69-.002M1.22 5.735a4.845 4.845 0 1 1 9.688 0 4.845 4.845 0 0 1-9.69 0" mask="url(#d)" fill="#29ABE2"/></g><g transform="matrix(1 0 0 -1 33.667 16.333)"><mask id="f" fill="#fff"><use xlink:href="#e"/></mask><path d="M0 4a3.54 3.54 0 1 1 7.08 0A3.54 3.54 0 0 1 0 4" fill="#29ABE2" transform="translate(.897 -.17)" mask="url(#f)"/></g><g transform="matrix(1 0 0 -1 33.667 27)"><mask id="h" fill="#fff"><use xlink:href="#g"/></mask><path d="M0 4a3.54 3.54 0 1 1 7.08 0A3.54 3.54 0 0 1 0 4" fill="#29ABE2" transform="translate(.897 -.31)" mask="url(#h)"/></g><g transform="matrix(1 0 0 -1 33.667 37.667)"><mask id="j" fill="#fff"><use xlink:href="#i"/></mask><path d="M0 4a3.54 3.54 0 1 1 7.08 0A3.54 3.54 0 0 1 0 4" fill="#29ABE2" transform="translate(.897 -.45)" mask="url(#j)"/></g><g transform="matrix(1 0 0 -1 33.667 49.667)"><mask id="l" fill="#fff"><use xlink:href="#k"/></mask><path d="M0 4a3.54 3.54 0 1 1 7.08 0A3.54 3.54 0 0 1 0 4" transform="translate(.897 .745)" mask="url(#l)" fill="#29ABE2"/></g><path d="M44.795 13.622a2.794 2.794 0 1 0 5.588.002 2.794 2.794 0 0 0-5.588-.002m0 10.06a2.794 2.794 0 1 0 5.588 0 2.794 2.794 0 0 0-5.588 0m0 10.06a2.794 2.794 0 1 0 5.588.003 2.794 2.794 0 0 0-5.588-.002m.015 10.06a2.794 2.794 0 1 0 5.59 0 2.794 2.794 0 0 0-5.59 0" fill="#29ABE2"/></g></svg>