<svg width="553" height="455" viewBox="0 0 553 455" xmlns="http://www.w3.org/2000/svg"><title>Slice 1</title><g fill="none" fill-rule="evenodd"><path d="M391.5 412c18.3-4.6 38.2-11.7 46.8-28.7 8.8-17.6 2.5-39.9 9.7-58.3 6.6-16.9 23-27 37.7-37.2 14.7-10.2 29.8-23.8 30.9-42 1.6-25-23.7-44.9-25.1-70-1-16.6 8.7-31.6 13.4-47.5 6.9-23.3-.5-53.7-22.9-62.4-7.4-2.9-15.7-3.1-22.5-7.4-14.9-9.4-14.4-32.3-26.1-45.7C422.6.4 404.3-.9 388.2.6c-9.6.9-19.3 2.5-27.8 7-16.1 8.4-42.3 31.5-58.2 40.3-39.5 21.8-78.1-24-115.6 1.2-22.8 15.4-26.4 56.7-49.3 72.1-20.4 13.8-52.7 2.3-68.9 21-8.8 10.2-11 24.8-10.5 38.5s3.1 27.3 2.5 41c-1.1 24.6-17.3 45.9-17.7 69.6-.4 22.3 10.8 44.9 32.6 52.4 7.1 2.4 14.9 3.2 21.4 7 13 7.8 16.6 24.9 20 39.9 3.4 15 10.4 32.1 25 35.5 6.7 1.6 13.7-.3 20.3-2.1 8.3-2.3 16.7-4.5 25-6.8 5.1-1.4 10.4-2.8 15.6-1.8 18.9 3.5 23.3 33.5 42 38.5 5.6 1.5 11.4.3 17.1-.9 27.5-5.8 39-24.6 62.3-40.2 8.7-5.8 13.4-5.8 23.3-5.7 12 .3 32.7 7.8 44.2 4.9z" fill="#F47C46"/><path d="M127.9 251.9l-4.4-3c-10.1 1.7-21.3 3.9-30.9 6.9-6.2 2-10.9 4.8-17.3 6.6-8.8 2.4-35.5 5.5-44.4 7.3-12.7 2.6-2.8.7-15.3 4.4-2.3.7-9.5 5.8-11.3 9.3-1.4 2.6-2.8 3.7-3.1 6.6-.7 6.6.6 10.9 5.7 15.1 2.5 2 8.6 4.6 11.7 5 6.6 1 6.4.9 12.7-1.2 15.4-5.2 27.3-20.5 43.8-22.6 10-1.3 22.6 5.4 32.5 7.4 4.4.9 9.2 1.2 12.9-1.3 4.9-3.4 7.3-5.1 7.4-11 0-3.3-1.2-7.1-1.1-11.1.1-6.5 1.4-13.2 1.1-18.4z" fill="#34A8DF"/><path d="M32.4 287.4c5.3-.9 10.7-.3 14.9-4.2-3.8-2-11.5 0-14.9 4.2zM123.9 284.9c-3.2-1.5-6.5-1.9-9.9-.7-2.2.8-4.6 1.6-6.9 1.7-2.2.1-4.8.8-5.9 2.6-.3.6-.8 1.1-1.6 2.2h7.8c-.6.5-.9.9-1.4 1.3 4.7 2.1 14.7.4 17-2.6 0-.3-.1-.5-.1-.8-2.8.3-5.7.7-8.5 1h-1.2c.1-.4.2-1.1.5-1.2 1-.5 2-1 3-1 2.8-.1 5.6 0 9.1 0-1-1.3-1.3-2.2-1.9-2.5zM20.9 274.7c1.4-1 2.9-2 4.8-1.3 4.3 1.7 9.6-.5 13.1-4.2-6.9.3-19.3 3.4-24.9 6.4-2.3 1.2-4.7 2.5-6.2 5.6 2.2-.4 4.1-.3 5.5-1.1 2.8-1.5 5.1-3.6 7.7-5.4zM112.8 252.3c-3.3.8-6.7 1.6-10 2.3-3.7.8-7.4 1.4-11 2.2-.9.2-1.6.9-2.9 1.6 8.7 2.8 16.8-1 23.9-6.1zM61.9 268.1c2.2-.5 4.2-1.8 6.3-2.8-.1-.2-.2-.4-.2-.6-5.4.9-10.8 1.7-16.5 2.6 3.1 2 4.3 2.2 10.4.8zM78.3 272.8c.1.3.1.5.3.7.2.2.5.4.7.5 5.3 1.3 10.5 2.5 15.7-.4 2-1.1 4.1-1.8 6.3-2.7-8-1.9-15.7-1.8-23 1.9zm13.2.3c-2.2 0-4.5-.2-7-.3 0-.4.1-1 .2-1.7 2.7.1 5.3.3 8.5.5-.8.8-1.3 1.5-1.7 1.5z"/><path d="M120.9 272.3c-2 .8-4.2 1.2-6.3 1.8-1.1.3-2.2.7-3.3 1.1-2.6 1-5 2.3-7.7 3.1-1 .3-2.7 1.2-3.8-.6 2.2-.5 4.2-.9 6.1-1.4 1.9-.5 3.4-1.2 4.5-3.1.6-1 3-.9 4.6-1.2 1.3-.2 2.7-.2 4-.5 2-.5 4-1.3 6.3-2 .4-1.9-.5-3.1-2.7-3.3-2.1-.2-4.2-.2-6.3-.1-2.1 0-4.3.2-6.4.3v-1c5.1-.4 10.1-2.6 15.3-.5.2-3.4.4-6.5.6-9.8-1.4.2-2.4.3-3.5.5-.1-.2-.2-.3-.3-.5 1.4-.9 2.7-1.7 4.1-2.6-.1-.2-.2-.5-.3-.7-.5 0-1 0-1.6.1-2 .3-4.1.6-6.1 1-1.2.2-2.4.6-3.5 1.1-4.7 2.1-9.3 4.5-14.1 6.4-2 .8-4.5.6-6.8.6-1.9 0-4 .2-5.5-.6s-2.4-.3-3.6.1c-3.6 1.3-7.3 2.5-10.7 4.4-3.4 1.9-7.3 3.1-11.1 4.4-4 1.4-7.9 2.3-12 0-4.3-2.5-8.3-1-11.9 2-3.5 2.9-7.8 4.9-12.1 4-3.1-.6-4.7.3-6.8 1.9-3.7 2.7-7.4 6.1-12.7 4.8-.4-.1-1 .4-1.4.7-1.2 1.5-2.3 3.1-3.8 5 1.1-.4 1.8-.7 2.5-.8 4.8-1.1 9.6-2.2 13.4-5.6.6-.5 1.4-.7 2.2-.9.3-.1.8.3 1.1.4-5.8 4.5-12.3 6.8-19 7.7-1.5 2.4.1 3.1 2 3.6-1 .3-1.6.5-2.4.8 0 1 .1 1.9.2 3.2 1.8-.5 3.3-1 4.9-1.3 1.7-.3 3.4-.4 5-.6 1.8-.3 1.8-.3 2.5.9-1.9.4-3.9.8-5.9 1.3-2 .4-4 .9-6.1 1.4.9 1.6 1.5 2.7 2 3.7 1.6-.2 3-.5 4.5-.7 0 .2.1.3.1.5-1.2.6-2.4 1.1-3.6 1.7 0 .2.1.5.1.7 1 .4 2 1.1 2.9 1 1.9-.2 3.7-.8 5.5-1.2.6-.1 1.3.1 1.9.2v.7c-2.2.4-4.5.9-7.4 1.5 3.1 1.6 5.3 3.6 8.6 2.5 1.1-.3 2.5-.7 3.4-.3 4 1.6 7.7.9 11.4-.6 2.6-1 5.1-2.3 7.6-3.5-.1-.2-.2-.4-.3-.7-.8.3-1.5.6-2.3.8-1.5.5-3 1.3-4.6 1.3-3.6.2-7.3 0-10.9-.1-.4 0-.7-.4-1.1-.6v-.6c1.8-.2 3.7-.8 5.4-.6 4 .5 7.9 1.2 11.6-1.3.7-.5 1.8-.3 2.7-.4 1.2-.1 2.4 0 3.4-.5 1.6-.8 3.1-1.9 4.6-3 .4-.3 1.2-.7 1.1-1-.1-2.9 2.7-3.2 4-3.4 3-.4 4.4-2.6 6.3-4.4-1.9.4-3.9.8-5.8 1.2.1-.7.3-1 .6-1.1 3.7-.8 7.5-1.7 11.3-2.5 1.7-.4 3.4-.7 5.1-1 2.4-.5 4.9-1.6 7.3-1.4 4.6.4 9.2 1.3 13.8 2.3 2.2.5 4.2 1.5 6.3 2.3.7-2.1 5.4-5.6 7.6-5.5.1 0 .3 0 .4.1 2 1.3 3.8.2 5.6-.6 2.7-1.2 5.4-1.7 8.3-.9 2 .5 4 .9 5.9 1.4.1-3.2-.6-4.3-4-4.7-2.5-.3-5-.5-7.5-.4-2.4 0-4.7.6-6.6 2.5-.8.8-2.2 1.2-3.3 1.3-1.4.2-2.8 0-4.2 0-6.1-.1-12.1-.4-18.2-.4-5.7.1-11.3.6-17 .7-2.8 0-5 .9-7.2 2.5-1.1.8-2.1 1.6-3.2 2.3-1.4.9-4.1 1.2-4.6.8 3.1-1.9 6.1-4.2 9.4-5.8 2.2-1 4.9-1.2 7.5-1.3 3.4-.2 6.9.2 10.3 0 2-.1 3.9-1.2 5.9-1.2 3.6-.2 7.1.1 10.7.2 1.4.1 2.9.3 4.3.4 1.8.2 3.6.5 5.4.4 1 0 1.9-.8 2.8-1.2 2.2-.9 4.3-2.6 6.6-2.7 4.2-.2 8.5.4 12.8.6 0-.5.1-1.5 0-2.5.2-3.5-1.5-4.4-4.8-3zM99 262.6c5.8 1.3 10.2-1.6 14.5-4.8 2.4-1.8 7.4-1 9.1 1.7-1-.1-1.7-.1-2.4-.3-2.5-.7-4.8-.7-7.1 1-3.1 2.3-6.5 4.2-10.6 4.4-1.2 0-2.5-.1-3.7-.3-.3-.1-.5-.7-.8-1.1.3-.2.7-.6 1-.6zm-87.7 30.1c-.7.1-1.4-.1-2.3-.7.5-.3 1-.8 1.6-.8 3.7-.4 7.2-1.4 10.2-3.6.8-.6 1.1-2 2-2.5 3.4-2.1 6.3-5.1 10.5-5.9.5-.1 1-.1 1.5-.1.1.3.3.6.4.9-6.5 2-10.5 7.2-15.9 11.1 3.8.8 7.2 2.2 10.7 2.2 3.4 0 6.9-1.4 10.9-2.3-.5 1-.6 1.6-.8 1.6-3 .7-6.1 1.5-9.1 1.9-1.8.2-3.8-.2-5.6-.6-4.6-1-9.3-2-14.1-1.2zm30.1 5.1c-2.7 1.2-5.6 2.2-8.5 2.8-5 1-10 .9-14.9-1.6-1.5-.8-3.8-.2-5.8-.2h-1.7c.2-.3.3-.5.4-.5 3.2-.3 6.4-1.2 9.6.5 1.6.9 3.7 1.3 5.5 1.2 6.1-.1 12-1.4 17.1-5.1 1.3-.9 2.8-1.4 4.2-2.1.2.3.3.6.5.8-2.1 1.4-4.1 3.1-6.4 4.2zm9.5-15.1c-4.4 3.4-9.3 5.2-14.8 5.6-1.4.1-2.9.6-4.3.7-.7.1-1.4-.4-2.1-.6.3-.6.5-1.4.9-1.8 3.7-3.2 8.1-4.7 12.8-5.6.3-.1.6-.1.9-.1 2.6.3 5.2.6 7.9.9-.3.2-.8.5-1.3.9zm-1.9-7.4c-4.1.1-7.8.9-11.1 3.4-.2-.2-.3-.4-.5-.7.8-.7 1.6-1.4 2.5-2 3.4-1.9 7.1-2.2 10.8-2.2 6.7.2 13-1 18.9-4.5 3.4-2 6.9-3.7 10.4-5.4 3.5-1.7 7.3-2.1 11.2-1.3.5.1.9.8 1.4 1.2-.6.2-1.2.5-1.8.5-2.9.3-5.8.2-8.6.7-2 .4-3.8 1.4-5.8 2.2-.3.1-.9.2-1 .4-.9 3.4-4.3 2.3-6.4 3.6-2.1 1.4-4.8 2.4-7.3 2.8-4.1.9-8.4 1.2-12.7 1.3zm48.2-1.5c-2.6 1-5.1 2.6-7.7 2.8-3.3.3-6.6-.7-9.9-.9-2.2-.1-4.5.2-6.7.5-3.9.5-7.7 1.2-11.6 1.8-.1-.3-.1-.7-.2-1 .6-.2 1.2-.4 1.8-.5 4-.6 8.1-.6 11.7-2.7 1.5-.9 2.9-1.8 4.5-2.7 6.6-3.6 13.7-3.3 20.8-2.2 2.8.4 5.5.7 8.2-.8.4-.2 1.1.2 1.7.3-.3.5-.6 1.1-1.1 1.3-3.8 1.3-7.6 2.6-11.5 4.1z"/><path d="M375.1 324.2c.8-.5 1.1-1.2.9-1.8-.2-.6-1-1.2-1.7-1.1-1.1.1-2.3.3-3.4.5-.5.1-.5.4-.5.7.2 1 .4 2 .7 3.1.6-.1 1.2-.2 1.7-.4.8-.3 1.6-.6 2.3-1zM476.9 275.1c.5-.1 1-.2 1.5-.4.6-.2 1.3-.4 1.9-.8.7-.4.9-1 .8-1.6-.1-.5-.8-1-1.4-.9-1 .1-1.9.3-2.9.4-.4.1-.5.3-.4.6.1.9.3 1.8.5 2.7zM373.7 325.7c-.8.2-1.6.5-2.5.7.1 1.1.2 2.3.4 3.4 0 .2.3.4.5.3.9-.2 1.9-.5 2.8-.9.4-.2.8-.6 1.1-1 .2-.2.3-.6.2-.9-.1-.6-1.9-1.8-2.5-1.6zM252.2 310.8c2.7 1 5.4 2.1 8.3 2.7 1.4.3 3.1-.1 4.5-.6.8-.3 1.7-1.2 2.1-2.1.9-2.2-1.6-8.7-3.5-9.4-2.4-.9-4.8-1.7-7.3-2.6-1.6 3.4-3.2 6.8-4.6 10.2-.3.4.1 1.6.5 1.8zM431.6 290.6c1.6.2 2.9-.5 3.3-1.5.4-1-.1-2.7-1.2-3.4-1.7-1.1-3.5-2-5.2-3-.8-.4-1.2-.1-1.4.5l-2.5 5c.9.4 1.9 1 2.8 1.3 1.4.4 2.8.9 4.2 1.1zM449 294.1c-.1 0-.1-.1-.2-.1-1.4 1.5-2.7 3-4.2 4.6.8.4 1.5.8 2.4 1.2.7-2 1.3-3.9 2-5.7zM383.9 319.6c-.1 1.1-.2 2.3-.2 3.5.5-.1.9-.2 1.5-.3-.4-1.1-.8-2.2-1.1-3.2h-.2zM348.7 286.6c-1.6.4-3.2.9-4.9 1.4.2 2.3.5 4.5.8 6.7 0 .3.6.8.9.7 1.8-.5 3.7-.9 5.4-1.7.9-.4 1.6-1.2 2.3-2 .4-.5.5-1.2.5-1.8-.2-1.4-3.7-3.7-5-3.3zM269.7 299.8c2.8.2 4.8-1.4 5.3-3.4.5-1.9-.5-5.1-2.4-6.2-3-1.8-6.1-3.3-9.2-4.9-1.3-.7-2 .1-2.3 1.1-1.2 3.2-2.3 6.4-3.5 9.8 1.6.7 3.3 1.5 5 2.1 2.3.6 4.7 1.3 7.1 1.5zM343.7 286.2c1.1-.3 2.3-.4 3.4-.8 1.5-.5 3.1-1 4.4-1.8 1.6-.9 2.2-2.4 1.8-3.6-.3-1.1-1.9-2.3-3.3-2.1-2.2.2-4.4.6-6.6.9-1 .1-1.1.7-.9 1.4.3 1.9.7 3.9 1.2 6zM369.2 274.6c-.1 0-.2 0-.3.1-.2 2.3-.3 4.5-.5 6.9 1-.2 1.8-.4 3-.6-.8-2.3-1.5-4.3-2.2-6.4zM299.5 303.7c-.1-.1-.3-.1-.4-.2-2.1 3-4.2 6.1-6.4 9.3 1.4.6 2.6 1.2 4.3 1.9.9-3.8 1.7-7.4 2.5-11zM425.5 297.4c.8.2 1.8.1 2.7-.1.5-.1 1.1-.6 1.3-1 .6-1.1-.5-4.7-1.6-5.1-1.4-.6-2.7-1.1-4.2-1.7-1.1 1.7-2.2 3.4-3.2 5.1-.1.2 0 .9.3 1 1.5.6 3.1 1.3 4.7 1.8zM480.2 149.5c-.7-1.7-1.1-4.1-2.5-4.9-4.7-2.8-11.5-3.6-16.3.3-1 .8-2 1.7-2.9 2.6-2.9 3-5.8 6-5.8 10.4 1.8-.4 3.7-.7 5.6-1.2 6.9-2 13.9-4 20.8-6 .4-.2 1.2-1 1.1-1.2zM303.9 213.6c.4 4 1.6 7.6 3.9 11 1.4 2.1 2.8 4.3 2.9 7.1 0 2.5.7 5.1 1.7 7.4 2.5 5.5 5.3 10.9 8 16.3.2.4 1 .8 1.4.7 4.6-.8 9.3-1.5 13.8-2.8 4.2-1.2 8.2-3.2 12.2-4.7 2.4-.9 4.8-1.4 7-3 2-1.4 4.9-1.6 7.4-2.4 1.7-.5 3.6-.7 5.2-1.5 9.3-4.2 18.6-8.5 27.8-12.8 8.1-3.7 15.1-9.1 22.4-14.1 5.6-3.9 11.1-8 16.5-12.2 4.6-3.6 9.6-6.6 13.7-10.9 4.4-4.5 9.1-8.7 13.8-13 5.3-4.8 9.7-10.3 13.8-16.2 1.4-2 3.2-3.8 4.7-5.8 1.6-2.1 3.1-4.2 4.6-6.3-.1-.2-.2-.3-.3-.5-.7.2-1.3.4-2 .6-4 1.3-7.9 2.8-12 3.9-7.4 1.9-14.8 3.5-22.2 5.3-5.2 1.3-10.4 2.7-15.5 4.2-5.8 1.7-11.6 3.4-17.4 5.2-5.6 1.8-11.2 3.7-16.9 5.4-2.8.9-5.6 1.5-8.4 2.4-5.2 1.6-10.2 3.5-15.4 5-5.3 1.5-10.8 2.7-16.1 4.1-2.2.6-4.4 1.4-6.6 2.2-4.9 1.6-9.8 3.3-14.8 4.9-5 1.6-10 3.4-15.1 4.8-6 1.7-12 3.3-18.1 4.8-2.2.5-2.1 1.4-1.6 3.1.9 2.8 1.4 5.3 1.6 7.8zm132.2-24.9c13.2-7.5 22.8-19 33.3-29.5 0 0 .2.1.6.4-9.7 11.7-19.9 22.7-33.8 30.1-.1-.7-.2-.9-.1-1zm-7.7 3.4c.1.6.5 1.2.4 1.7-.8 2.7-1.7 5.4-2.7 8.1-.1.4-.8.6-1.3.8-.2-.4-.7-.9-.7-1.1 1.1-3.2 2.3-6.3 3.5-9.4.3-.1.6-.1.8-.1zm-2.2-5c0 .7.3 1.6.1 2.2-2.3 6.3-4.8 12.5-7 18.8-.5 1.4-1.1 1.5-2.4.7 2.8-7.4 5.6-14.6 8.3-21.8.3 0 .7 0 1 .1zm-6.3 6.3c-.4 1.6-.5 2.7-1 3.7-2.5 4.7-5.1 9.4-7.7 14-.3.6-1 1-1.6 1.5-.2-.2-.3-.5-.5-.7 1.5-3.3 3.1-6.6 4.3-10 1.3-3.3 2.8-6.3 6.5-8.5zm-67.8 9.3c-2.3 5.4-4.4 10.7-6.6 15.9-.2-.1-.4-.2-.7-.3 1.1-2.8 2.5-5.4 3.4-8.3 2.2-6.9 2.2-7.2 3.9-7.3zm-4.7-7.4c.3.1.6.3.9.4-5.8 13.9-11.7 27.7-17.5 41.6-.3-.1-.5-.2-.8-.3l17.4-41.7zM331.5 216c.9-2.1 1.7-4.3 2.6-6.4.2-.5.8-.8 1.2-1.2.2.5.6 1.1.4 1.4-2.3 4.7-4.7 9.3-7 13.9-.2-.1-.5-.2-.7-.3 1.2-2.5 2.4-4.9 3.5-7.4zm-13.3 29.5c3.4-.8 6.8-1.3 10.1-2.4 7.4-2.5 14.7-5.3 22-8.1 8-3.1 15.8-6.4 23.8-9.3 7.7-2.8 14.9-6.6 22.3-10 3.7-1.7 7-4.2 10.5-6.3.8-.5 1.8-.8 2.7-1.2.1.2.2.3.3.5-.4.5-.7 1.1-1.2 1.4-5.5 3.3-10.7 7.1-16.8 9.5-6.8 2.6-13.3 5.8-20 8.7-4.5 1.9-9.1 3.6-13.6 5.3-4.8 1.9-9.7 3.7-14.5 5.5-5.2 1.9-10.3 3.8-15.6 5.5-2.8.9-5.6 1.4-8.5 2-.5.1-1.2-.3-1.7-.5.1-.2.1-.4.2-.6zM178.4 270.7c-2.9-9.6-5.7-19.1-8.7-28.9-13.4 3.4-26.7 6.8-40.1 10.2.1.3.2.5.2.7-.7 2 1.4 4.4-.7 6.3-.2.1-.2.8-.1.8 2.2 1-.2 2.1.3 3.5 1.2.7 1.3.9.4 2.3l-1.8 3c.1.1.3.1.4.2.5-.6.9-1.2 1.4-1.7.2.1.5.2.7.4-.7 1.5-1.4 3-2.1 4.6.9-.1 1.7-.2 2.8-.4-.8 1.4-1.3 2.4-1.6 2.9 16.2-.9 32.6-.9 48.9-3.9zm-13.1-5.6c-.2-.1-.3-.2-.5-.3.9-2 .7-4.5 2.4-6.1.3.2.7.4 1 .6-1 1.9-2 3.8-2.9 5.8zm2.1-17.8c-2.9 7.5-6.9 14.4-11.3 21.2 3.5-7.2 7-14.3 10.5-21.5.3.1.5.2.8.3zm-9.5 6.3h1.5c-1.9 3.7-3.7 7-5.4 10.4-.2-.1-.3-.2-.5-.2 1.4-3.4 2.9-6.7 4.4-10.2z" fill="#FFF"/><path d="M461.8 180.7c-5.1 4.6-9.9 9.5-14.9 14.2-2 1.9-3.7 3.7-3.9 6.7-.2 3.9-1.3 7.7-1.5 11.5-.4 5.6-1 11.3-.5 16.9.7 8.6 7.1 14 15.8 14.1 1.8 0 4.2-.4 5.3-1.5 3.2-3.4 6.8-6.8 8.7-11 4.6-9.8 6.4-20.4 7.7-31 .9-6.7 1.2-13.6 2-20.3.5-4.4 1.8-8.8 2.2-13.2.4-3.3.1-6.7.1-10.2-.5.2-.7.2-.8.3-6.4 8-12.5 16.4-20.2 23.5zM176.5 272.4c-9.8.8-19.7 1.8-29.5 2.5-4.7.4-9.4.5-14.1.5-1.7 0-2.7 1.8-2.4 2.1 1.2 1.5-.3 2.6-.1 4.2 16.9.1 33.8 1.1 51.1-1.5-.8-2.4-1.6-4.9-2.6-7.2-.2-.5-1.6-.7-2.4-.6z" fill="#FFF"/><path d="M127.9 251.9l45.8-12.1 10.8 42.2-55.8 1.7-.8-31.8z" fill="#B1E2F6"/><path d="M262.1 143.3c-3.9.8-7.3 2.6-9 6-2.5 4.9-4.4 10.1-3.9 15.8.2 2.6.2 5.4.9 7.8.8 2.7 1.9 5.5 3.7 7.6 3.1 3.5 7.5 5.5 12 6.6 5.5 1.3 11.1 1.9 16.7 2.7 4.6.7 9.2 1.2 14.3 1.8-.4-2.2-.6-4.5-1.1-6.6-2.1-8.1-4.4-16.1-6.5-24.1-1.3-4.8-2.4-9.5-3.7-14.3-.9-3.5-1.6-3.9-5.4-4.2-6.1-.6-12.1-.3-18 .9zM507.2 231c.4-.4.8-.8 1.2-1.3.5-.6 1-1.3 1.3-2 .4-.8.2-1.6-.3-2-.5-.4-1.5-.4-2 .1-.9.7-1.7 1.5-2.5 2.3-.4.3-.2.6 0 .8.8.6 1.5 1.3 2.3 2.1zM479 275.2l-2.1.6c.1 1 .2 1.9.3 2.9 0 .1.3.3.4.3.8-.2 1.6-.4 2.3-.7.4-.2.7-.5 1-.8.2-.2.2-.5.2-.8 0-.6-1.5-1.6-2.1-1.5zM487.8 270.1h-.1c-.1 1-.1 1.9-.2 3 .4-.1.8-.2 1.3-.3-.4-1-.7-1.9-1-2.7zM517.4 220.8c-1-.7-1.9-1.4-2.7-2l-.1.1 1.8 3c.2-.3.5-.6 1-1.1zM507.8 231.7c.7.9 1.5 1.7 2.2 2.6.1.1.5.1.6 0 .6-.7 1.3-1.5 1.8-2.3.3-.4.3-1 .4-1.5 0-.3-.1-.7-.3-.9-.5-.5-2.6-.5-3.1 0-.5.7-1 1.4-1.6 2.1zM217.8 219.3c-.8-1.4-1.6-2.8-2.4-4.1-.1 0-.1.1-.2.1.1 1.7.3 3.4.4 5.1.8-.3 1.4-.6 2.2-1.1zM203.2 226.1c1.1-1.1 1.3-2.3.9-3.1-.4-.7-1.7-1.2-2.8-.7-1.6.7-3.2 1.6-4.9 2.3-.7.3-.7.8-.5 1.2.5 1.4 1.1 2.7 1.6 4.1.8-.5 1.7-.9 2.5-1.4 1.2-.7 2.3-1.5 3.2-2.4zM227.3 269c.5.1.9.2 1.5.4.2-1.2.3-2.3.4-3.4h-.1l-1.8 3z" fill="#FFF"/><path d="M239.6 115.6c-3.6 2.1-7 4.6-10.4 7.1-2.3 1.7-4.3 3.8-6.6 5.4-7.2 4.8-13.6 10.5-18.5 17.4-6 8.7-11 18-15.9 27.4-2.4 4.5-4.3 9.5-5.5 14.5-1.6 6.4-2.6 13.1-3.4 19.7-.6 4.9-.8 9.8-1 14.7-.1 2.3.8 4.7.7 7-.1 8.6 2 16.9 4.5 25 2.1 6.8 4.6 13.5 6.6 20.3 3.1 10.5 8.2 20 14.2 29 5.6 8.4 11.6 16.8 19.8 23.1 3.2 2.5 6.1 5.5 9.4 7.9 2.1 1.6 4.6 2.8 7 3.9 3 1.4 3.8 2.2 3.1 4.2-.3.9-1.2 1.7-1.9 2.5-2.2 2.6-4.2 5.5-6.8 7.8-3.9 3.5-7.9 6.7-12.2 9.7-4.2 2.9-8.6 5.3-13.9 6.1-2.3.3-4.4 1.6-7.2 2.6 2.2.5 3.7.9 5.3 1.3 2 .4 4 .9 6 1.1 2 .1 4-.3 6-.3 3.7-.1 7.4.1 11.1-.1 3.1-.2 6.3-.6 9.4-1.1 7.7-1.3 14.9-4.3 21.9-7.7 6.1-3 11.6-7 15.6-12.8 1-1.5 2.2-1.5 3.6-1.3 5.2.8 10.4 1.9 15.6 2.6 4.4.6 8.9.7 13.3.9 7.5.4 15.1 1.1 22.6 1.2 7.5.1 15-.1 22.5-.4 5.7-.2 11.4-.7 17-1.2 3.3-.3 6.7-.8 10-1.1 2.8-.3 5.7-.2 8.5-.6 8.9-1.3 17.2-4.4 25.5-7.6 6.2-2.4 12.7-4 18.8-6.4 8.4-3.2 16.7-6.7 24.8-10.5 6.8-3.2 13.4-6.7 19.8-10.6 5.3-3.2 10.1-7.2 15.1-10.8.9-.7 1.8-1.5 2.8-2.2 6.2-4 12.5-8.1 17.5-13.5 5.5-6 11.9-11.4 14.8-19.5 2.1-5.8 4.9-11.4 6.6-17.3 1.9-6.6 3.2-13.4 4-20.2 1.3-10.9 1.3-21.9-.6-32.8-1.1-6.3-2.9-12.6-4.9-18.7-2-6.1-4.2-12.2-7.2-17.9-4.1-7.6-8.9-14.9-13.9-22-2.8-4.1-6.3-7.7-9.7-11.3-3.8-4.1-7.5-8.6-12-11.8-5.7-4.1-12-7.6-18.4-10.7-7.5-3.7-15.4-6.7-23.2-9.9-1.5-.6-3.1-1.1-4.6-1.4-5.9-1.2-11.7-2.4-17.6-3.5-5.2-1-10.4-2-15.6-2.7-6-.8-12-1.3-17.9-1.8-8.5-.8-17.1-1.5-25.6-2.1-1.3-.1-2.7.3-4 .3-7.1-.2-14.1-.4-21.5-.7-1 5.7-1.9 11.1-2.8 16.5-.7 4.1-1.3 8.2-2 12.3-.6 3.4-1.2 6.8-1.6 10.2-.1.5.4 1.3.8 1.7 1.4 1 3.1 1.7 4.5 2.8 6.9 5.2 9.3 12.9 10.9 20.9.2 1.2 0 3-.8 3.6-.9.8-2.8 1.1-3.9.7-1.8-.6-3.2-.4-4.8.5-2.2 1.3-3.2.7-3.4-1.8-.3-3.5-1.8-6.5-4.4-9.3-.7 2.6-1.1 4.9-1.9 7-1.7 4.1-2.6 8.2-1.8 12.7.4 2.3.2 5-1.5 7.3-1.2 1.5-2 3.8-1.9 5.7.1 3.3 1.1 6.5 1.7 9.9 2.2 1.6 5.6 2.4 7.3 5.6 6.5-2.2 13-4.5 19.8-6.8 0-3.2-.1-6.4 0-9.6.1-4 .4-7.9.6-11.9.1-1 .1-2.1.2-3.1.7-6.6 1.5-13.2 2.1-19.7.5-5.3.7-10.7 1.2-16 .1-.6 1-1.4 1.6-1.6.8-.3 1.8-.1 2.6.1 5.1.7 10.2 1.8 15.3 2 9.6.4 19.3.1 28.9.3 3.6 0 7.1.4 11 .6-.8 5-1.5 9.6-2.3 14.6-14.4.6-29.2-.2-43.9-1.2-.7 10.5-1.3 20.8-2 31.6 7.4.2 14.5.5 21.5.7 2.3.1 4.7.8 6.8.3 5.9-1.4 11.8-3.3 17.7-5.1 5.9-1.7 11.9-3.5 17.5-5.2 1-3.6 2.2-7.1 3-10.7 1.9-8.8 6.9-15 14.8-19.1 1.7-.9 3.5-1.6 5.4-1.8 3-.4 6.1-.6 9.2-.6 6.8-.1 12.9 1.8 18.4 6.1 4.3 3.4 7.2 7.4 8.6 12.6 1.4 5.1 1.7 10.5 1.4 15.8-.4 7.7-1 15.5-1.8 23.2-.8 7.8-1.6 15.6-3.3 23.3-1.6 7-4.1 13.9-6.6 20.6-3.9 10.6-10.8 18.5-21.4 22.9-1.6.7-3.1 1.8-4.8 2.2-5.8 1.3-11.6 1.4-17.4 0-2.8-.7-4.8-2.4-6.3-4.7-4.4-6.6-6.2-14.1-6.1-22 .1-7.1.9-14.3 1.4-21.5-8.1 5.5-16.4 10.7-24.3 16.5-7.9 5.8-17.2 8.9-25.8 13.7 4.3.7 8.3 1.5 12.4 2.1 2.4.3 4.9.3 7.3.5 5.5.5 11.1 1.1 16.6 1.7.5.1 1.4.8 1.3 1.2-.3 3.2-.6 6.4-1.4 9.5-.9 3.6-1.1 3.6-4.9 3.2h-1.1c-4.7-.3-9.5-.5-14.2-.9-7.1-.6-14.1-1.5-21.2-2.1-5.4-.4-10.9-.4-16.3-.6-2-.1-4.2 0-3.3-3.2.1-.4-.2-1-.4-1.5-5 1.7-9.9 3.6-14.9 5.1-6.3 1.9-12.6 3.5-19 5.3-1 .3-1.6.1-1.9-1.2-.4-1.7-1.1-3.4-1.7-5.3-5.7 6.4-12 11.2-20.4 12.9-6.8 1.4-13.4 1.8-20.1.1-5.3-1.3-10.2-3.4-14.7-6.6-4.7-3.2-8.6-7.2-11.6-11.9-2.7-4.3-4.3-9.3-6.3-14-.6-1.4-.1-2.3 1.3-2.6 3.2-.8 6.4-1.6 9.6-2.3 1.6-.4 2.6.3 3.3 1.8 1.6 3.4 3.6 6.6 6.4 9.3 5.2 4.9 10.5 9.5 17.5 11.6 1.8.6 3.8 1.3 5.5.9 6.2-1.2 12.3-2.6 16.9-7.4 2.5-2.6 3.3-5.5 3.9-8.8.6-3.3.5-6.4-1.7-9.2-3.3-4.3-4.7-9.2-4.7-14.6 0-1.4-.5-2.9-.9-4.3-.2-.5-.8-1-1.4-1.1-1.8-.3-3.6-.5-5.4-.8-9.4-1.3-18.8-2.4-28.1-4.2-5.6-1.1-11.2-2.9-16.6-4.9-2.6-1-5.1-2.7-7-4.7-5.9-6-8.2-13.4-8.4-21.8-.4-11 2.1-20.8 9.2-29.4 5.8-7 13.5-10.1 22.2-11.2 4.5-.5 9-1 13.8-1.5-2.7-8.6-5.5-17.2-8.3-26.2-6.1 2.2-12 4.1-17.6 6.5-5.4 2.4-10 5-14.5 7.6zm276.7 99.1c.1-.1.5 0 .7.1.8.9 1.6 1.8 2.4 2.6.1.1.5.2.6.1.7-.5 1.4-1.1 2.2-1.8-1.2-1.1-2.3-2.2-3.4-3.3.2-.6.4-.7.8-.3 1.6 1.6 3.2 3.2 4.7 4.9.5.5 1.3.9 1.1 2.1-.3-.2-.5-.3-.6-.5l-2.1-2.4c-.8.7-1.6 1.3-2.4 2 .8.8 1.6 1.5 2.3 2.2.4.3.5.6.3 1.3-.9-.8-1.7-1.6-2.5-2.4-1.3-1.3-2.5-2.6-3.8-3.9-.3-.1-.6-.3-.3-.7zm-2.8 3.2c.1-.1.4-.2.5-.1.9.5 1.7 1.1 2.6 1.6.8.5 1.5 1.1 2.3 1.6.7.5 1.4 1 2 1.6.2.2.2.6.3.9l-.2.2-.9-.6c-.6-.5-1.2-1.1-1.9-1.6-.1-.1-.5 0-.6.2-.3.3-.5.7-.9 1.1.4 1.1 1.6 1.8 1.6 3.2-.1.1-.2.1-.2.2-.1-.1-.2-.3-.3-.4-1.2-2-2.4-4.1-3.6-6.1-.2-.3-.5-.7-.6-1-.2-.4-.2-.7-.1-.8zm-4.1 5c.1 0 .3 0 .4.1 1.7 1.8 3.3 3.5 4.9 5.3.3.3.4.3.7 0 .6-.6 1.2-1.1 1.8-1.7.1 0 .2.1.3.1-.1.3-.2.7-.4.9-.5.6-1.2 1.1-1.7 1.7-.3.4-.5.3-.8-.1-1.6-1.9-3.3-3.8-5-5.6-.1-.1-.2-.2-.2-.3v-.4zm-4.7 4.5c.9-.9 1.8-1.7 2.8-2.4.7-.6 1.5-.5 2.2 0 .6.5.9 1.1.8 2-.1.6-.2 1.1-.3 1.5.8.1 1.6.2 2.2.4.9.3 1 1.2.8 2.2-.3 1.3-1.1 2.3-1.9 3.2-.2.3-.4.5-.6.8-.3.5-.6.3-.9 0-.9-1.1-1.7-2.2-2.6-3.2-.8-.9-1.7-1.8-2.6-2.6-1-.7-1-.7.1-1.9zM490.9 268c.1 0 .4.2.4.4.2 1 .3 2 .4 3 0 .1.2.4.4.4.8 0 1.5-.1 2.4-.2-.3-1.4-.5-2.6-.8-3.9.4-.3.6-.3.7.2.3 1.9.7 3.7 1 5.6.1.6.5 1.2-.2 2-.1-.3-.2-.5-.2-.6l-.3-2.7c-.9.1-1.7.1-2.6.2.2.9.4 1.8.6 2.6.1.4.1.7-.4 1-.2-1-.4-1.9-.6-2.9-.3-1.5-.5-3-.8-4.5-.2-.2-.4-.5 0-.6zm-3.8 2.3v-1c0-.1.2-.3.3-.4.1 0 .3.1.4.1.4.8.7 1.6 1.1 2.4.3.7.6 1.5.8 2.2.2.7.5 1.4.7 2.1.1.2-.1.5-.2.8h-.2c-.1-.3-.3-.6-.3-.9-.2-.7-.3-1.3-.5-2 0-.1-.3-.2-.5-.2-.4.1-.7.2-1.1.3-.2.9.2 2-.4 3h-.2v-.5c-.1-1.9 0-3.9.1-5.9zm-5.1.5c0-.1.2-.2.2-.4l.3.3c.3 2 .7 4 .9 6 .1.4.2.4.5.3l2.1-.3c0 .1.1.1.1.2-.2.2-.5.4-.7.5-.7.2-1.4.3-2 .4-.4.1-.5-.1-.5-.4-.3-2.1-.5-4.2-.8-6.3-.1-.1-.1-.2-.1-.3zm-5.2.6c1-.2 2.1-.3 3.1-.4.8-.1 1.3.4 1.5 1 .2.6.1 1.3-.4 1.8-.3.4-.7.7-.9.9.5.5 1 .9 1.4 1.4.4.6.2 1.3-.5 1.9-.8.8-1.8 1.1-2.9 1.4-.3.1-.6.1-.8.3-.5.2-.6-.1-.6-.4-.1-1.1-.2-2.3-.3-3.4-.1-1-.3-2-.6-3-.3-1.2-.3-1.2 1-1.5zm-21.2 24.2c.3-.5.4-1.2 1.2-.8.2.1.3.9.1 1.2-1 1.8-2.2 3.6-3.2 5.4-.2.3-.1.9.1 1 1.3.9 2.7 1.7 4.2 2.7 1.3-2.6 2.5-5 3.8-7.5 1.1 0 1.3.2.9 1.1-1.9 3.5-3.7 7.1-5.7 10.5-.6 1.1-.9 2.6-3 3.1.2-.6.3-1 .5-1.3.9-1.6 1.9-3.2 2.9-4.8-1.6-1-3-2-4.6-3.1-.9 1.8-1.7 3.4-2.5 5.1-.3.8-.8 1.2-2 1.2.9-1.9 1.8-3.7 2.7-5.5 1.5-2.7 3.1-5.5 4.6-8.3zm-8-2c.5-.5.9-1.1 1.4-1.6.2-.2.7-.3 1-.2.2 0 .5.5.4.7-.4 1.8-.9 3.5-1.4 5.2-.5 1.6-1 3.2-1.5 4.7-.5 1.4-1 2.9-1.6 4.2-.2.4-.9.6-1.4 1-.1-.1-.3-.2-.4-.3.2-.6.3-1.3.6-1.9.6-1.3 1.2-2.6 1.7-4 .1-.2-.3-.8-.6-.9-.7-.4-1.4-.6-2.3-.9-1.6 1.2-2.2 3.6-4.6 4.4-.1-.1-.3-.2-.4-.3.2-.3.3-.6.6-.8 2.9-3.1 5.7-6.2 8.5-9.3zm-9.4-5.4c.1-.2.2-.4.3-.5.2-.1.6-.2.8-.3 0 .3.2.6.1.8l-6.3 11.1c-.4.7-.2.8.4 1.1 1.3.7 2.6 1.5 3.9 2.2 0 .2-.1.3-.1.5-.6 0-1.2 0-1.7-.2-1.3-.6-2.5-1.4-3.8-2-.8-.4-.7-.8-.3-1.4 2.1-3.7 4.4-7.5 6.7-11.3zm-19.4 6.6c1.3-2 2.8-4 4-6 1.1-1.9 2.1-3.8 3-5.7 1-2.3 1-2.4 3.5-1.1 1.9 1 3.8 2.2 5.5 3.4 1.3.9 1.7 2.3 1.2 3.7-.5 1.3-1.4 2.2-3 2.5-1 .2-2 .2-2.8.3.2 1.4.5 2.7.4 4-.1 1.6-1.4 2.4-3.2 2.5-2.4.2-4.4-.6-6.4-1.5-.5-.2-1.1-.5-1.7-.6-1-.4-.9-.9-.5-1.5zm-42.7 34.3c-1 1-2.2 1.3-3.4 1.6-.3.1-.7.2-1 .3-.6.2-.7-.1-.7-.5-.1-1.4-.2-2.7-.4-4.1-.2-1.2-.4-2.4-.7-3.6-.4-1.4-.4-1.4 1.2-1.7 1.2-.2 2.4-.4 3.7-.4.9-.1 1.6.4 1.8 1.2.2.7.1 1.5-.4 2.1l-1.1 1.1c.6.6 1.2 1 1.6 1.6.4.9.1 1.7-.6 2.4zm5.1-.8c-.8.2-1.6.3-2.4.5-.5.1-.6-.1-.6-.5-.3-2.5-.6-5-1-7.4 0-.1-.1-.2 0-.3.1-.1.2-.3.3-.4.1.1.3.2.3.3.4 2.4.8 4.7 1.1 7.1.1.4.2.4.6.4.8-.1 1.7-.3 2.5-.4 0 .1.1.2.1.2-.3.2-.6.4-.9.5zm6.6-11.1c.1 0 .5.3.5.5.2 1.2.3 2.3.5 3.5 0 .2.3.4.4.4.9 0 1.8-.2 2.8-.3-.3-1.6-.6-3.1-1-4.7.5-.4.7-.4.8.2.4 2.2.9 4.4 1.2 6.7.1.7.5 1.5-.3 2.4-.1-.3-.2-.5-.2-.8-.1-1-.3-2.1-.4-3.1-1.1.1-2 .2-3.1.3.2 1.1.5 2.1.7 3.1.1.5.1.8-.5 1.2-.3-1.2-.5-2.3-.7-3.4-.3-1.8-.6-3.6-1-5.3 0-.3-.2-.6.3-.7zm-.9 9.9h-.3c-.1-.3-.3-.7-.4-1l-.6-2.4c0-.1-.4-.2-.6-.2-.4.1-.8.2-1.3.4-.3 1.1.3 2.4-.5 3.5h-.3v-.6c.1-2.4.3-4.7.4-7.1 0-.4 0-.8.1-1.2 0-.2.2-.4.4-.5.1-.1.4.1.4.2.4.9.9 1.9 1.2 2.8.4.9.7 1.7 1 2.6.3.8.6 1.6.8 2.4 0 .5-.2.8-.3 1.1zm-10.4-57.2c.3-.1.9.6 1 1 .4 2.3.6 4.6.9 6.9.1.3.5.8.8.8 1.8-.1 3.5-.3 5.5-.5-.6-3.1-1.2-6.1-1.9-9.2.9-.8 1.3-.7 1.5.4.8 4.4 1.7 8.7 2.3 13.1.2 1.4 1.1 2.9-.5 4.8-.2-.7-.4-1.1-.4-1.5-.3-2-.5-4.1-.8-6.2-2.1.2-4 .3-6.1.5.5 2.1.9 4.2 1.4 6.1.2.9.2 1.6-.9 2.4-.5-2.3-1-4.5-1.4-6.7-.7-3.5-1.2-7-1.8-10.5-.2-.5-.6-1.2.4-1.4zm-8.9 5.3c0-.8 0-1.6.1-2.4.1-.3.4-.8.7-.9.2-.1.8.1.9.4.9 1.8 1.7 3.7 2.4 5.5.7 1.7 1.3 3.4 1.9 5.2.6 1.6 1.1 3.2 1.5 4.8.1.5-.3 1.2-.5 1.8-.2 0-.4 0-.5.1-.3-.7-.6-1.3-.8-2.1-.4-1.5-.8-3.1-1.2-4.6-.1-.3-.8-.5-1.2-.4-.8.1-1.6.5-2.6.8-.6 2.2.6 4.7-1 7h-.6c0-.4-.1-.7-.1-1.1.4-4.9.7-9.5 1-14.1zm-12 1.1c.1-.3.4-.5.5-.8.2.2.6.4.6.6.7 4.7 1.5 9.3 2.1 14 .1.9.4.9 1.1.7 1.6-.3 3.3-.5 4.9-.8.1.2.2.3.3.5-.5.4-1.1.9-1.6 1-1.6.4-3.2.6-4.7.9-.9.2-1.2-.2-1.3-1-.6-4.9-1.2-9.8-1.8-14.6 0-.1-.2-.3-.1-.5zm-12.1 1.3c2.4-.4 4.8-.7 7.2-.8 1.8-.1 3.1.8 3.6 2.4.5 1.4.3 2.9-.9 4.2-.7.8-1.6 1.5-2.2 2.2 1.1 1.1 2.3 2 3.1 3.2 1 1.5.4 3.1-1.1 4.5-1.9 1.9-4.3 2.5-6.7 3.1-.6.2-1.3.3-1.9.6-1.1.5-1.4-.2-1.4-.9-.2-2.7-.3-5.4-.7-8-.3-2.4-.8-4.7-1.4-7.1-.6-2.7-.7-2.8 2.4-3.4zm-32.6 28c.4-.9.4-2.3 1.9-1.6.4.2.7 1.6.4 2.3-1.5 3.6-3.1 7.1-4.6 10.6-.2.5 0 1.7.3 1.9 2.3 1.5 4.7 2.9 7.4 4.5 1.8-5 3.6-9.8 5.3-14.7 1.8-.2 2.3.2 1.6 2-2.7 6.9-5.2 13.9-8.2 20.7-.9 2.1-1.1 5.1-4.7 6.2.3-1.1.4-1.9.7-2.5 1.4-3.1 2.8-6.2 4.2-9.4-2.8-1.7-5.3-3.3-8.1-5.1-1.2 3.5-2.4 6.7-3.4 10-.5 1.5-1.1 2.4-3.2 2.5 1.3-3.8 2.5-7.3 3.8-10.8 2.2-5.6 4.4-11.1 6.6-16.6zm-26.6 16.3c4.3-6.3 8.5-12.6 12.8-18.9.7-1.1 1.3-2.3 2.2-3.3.3-.4 1.1-.7 1.7-.6.3.1.9.9.8 1.3-.5 3.4-1 6.7-1.6 10.1-.6 3.1-1.2 6.1-1.9 9.1-.6 2.8-1.2 5.5-2.1 8.2-.3.8-1.4 1.3-2.2 2-.2-.1-.5-.3-.7-.4.2-1.2.4-2.5.7-3.7.7-2.6 1.7-5.1 2.3-7.7.1-.4-.6-1.4-1.1-1.6-1.2-.6-2.4-.9-3.9-1.4-2.6 2.6-3.2 7.2-7.1 8.9-.2-.2-.5-.4-.7-.6.2-.3.5-.9.8-1.4zm-3.3-28.5c.4-.3.9-.4 1.4-.6.1.5.4 1.1.2 1.5-3 7.3-6 14.6-9.1 21.8-.6 1.3-.2 1.6.8 2.1 2.3 1.1 4.5 2.4 6.8 3.5 0 .3 0 .6-.1.9-1 0-2.1.3-2.9-.1-2.3-.9-4.5-2.2-6.7-3.2-1.4-.6-1.3-1.3-.7-2.6 3.4-7.4 6.7-14.9 10-22.4 0-.3 0-.7.3-.9zm-32.2 16.3c1.9-4 4.1-7.9 5.9-12 1.6-3.7 3-7.5 4.2-11.3 1.4-4.5 1.3-4.7 5.7-2.6 3.4 1.6 6.6 3.5 9.8 5.6 2.4 1.5 3.2 4.1 2.5 6.8-.6 2.5-2.1 4.4-4.7 5.1-1.6.5-3.3.7-4.6 1 .5 2.6 1.3 5 1.3 7.5 0 3.1-2.1 4.7-5.1 5.3-4 .8-7.5-.5-11-1.9-.9-.4-1.9-.7-2.9-.9-1.9-.3-1.6-1.4-1.1-2.6zm-34.2-96.3c.1-.1.6-.1.7 0 .8 1.1 1.7 2.2 2.4 3.4.7 1.1 1.4 2.2 2 3.3.6 1 1.2 2 1.7 3.1.1.3-.1.9-.2 1.4-.1.1-.3.1-.4.2-.3-.4-.6-.8-.8-1.3-.5-1-.9-2.1-1.5-3.1-.1-.2-.6-.1-.9 0-.6.3-1.2.7-1.9 1.2-.2 1.7.9 3.3.1 5.3-.1 0-.3.1-.4.1-.1-.3-.2-.5-.2-.8-.3-3.5-.6-6.9-.9-10.4-.1-.6-.2-1.2-.2-1.8 0 0 .2-.4.5-.6zm-9 19.3c-1.2 1.8-2.9 2.9-4.6 3.9-.5.3-.9.6-1.4.9-.8.6-1 .2-1.2-.3-.5-1.9-.9-3.8-1.4-5.7-.5-1.7-1.1-3.3-1.8-4.8-.8-1.8-.9-1.8 1.3-3 1.7-.9 3.5-1.7 5.3-2.4 1.3-.5 2.4-.1 3 .9.5.9.5 2.1-.2 3.3-.5.8-1 1.5-1.4 2.1.9.5 2 .9 2.7 1.6 1 .9.7 2.2-.3 3.5zm3-2.2l-3-10.2c0-.2-.2-.3-.1-.5s.2-.5.3-.7c.2.1.5.1.5.3 1.1 3.2 2.2 6.4 3.2 9.7.2.6.4.5.9.3l3.6-1.8.3.3c-.4.4-.7.9-1.1 1.2-1.1.7-2.3 1.2-3.5 1.8-.7.4-.9.2-1.1-.4zm9.2 40.4c-1.3.4-2.5.2-3.7-.1-.3-.1-.7-.1-1-.2-.6 0-.6-.4-.4-.7.5-1.3 1.1-2.5 1.5-3.8.4-1.2.7-2.3 1-3.5.3-1.4.3-1.4 1.8-1 1.2.3 2.3.8 3.5 1.2.9.4 1.2 1.1 1.1 1.9-.1.8-.5 1.4-1.4 1.7-.5.2-1.1.3-1.5.5.3.7.6 1.4.7 2.2 0 .9-.6 1.5-1.6 1.8zm5 1.6c-.8-.2-1.6-.5-2.4-.7-.5-.1-.5-.3-.3-.7.9-2.4 1.7-4.7 2.5-7.1 0-.1 0-.2.1-.3.1-.1.3-.2.4-.2 0 .1.2.3.1.4-.7 2.3-1.4 4.6-2.2 6.9-.1.4 0 .5.3.6.8.2 1.6.5 2.4.8v.3c-.3-.1-.6.1-.9 0zm6.9-4.5c-.1.9-.2 1.9-.3 2.8-.1.8-.2 1.7-.4 2.5-.1.3-.4.5-.6.7-.1 0-.2-.1-.3-.1 0-.4 0-.7.1-1.1.2-.8.4-1.6.5-2.4 0-.1-.2-.4-.4-.4-.4-.1-.8-.2-1.4-.2-.8.9-.8 2.3-2 3-.1 0-.2-.1-.3-.1.1-.2.1-.4.2-.5 1.2-2.1 2.4-4.1 3.5-6.1.2-.4.4-.7.6-1.1.1-.1.4-.3.5-.2.1 0 .3.2.3.4.1.8.1 1.8 0 2.8zm-.1-47.8c-.2-.4-.4-.7-.5-1-.4-1.4-.8-2.8-1.3-4.3-1.5.6-2.9 1.2-4.5 1.9.6 1.4 1.1 2.8 1.7 4.1.3.6.3 1.1-.4 2-.6-1.6-1.3-3-1.8-4.5-.9-2.4-1.7-4.8-2.6-7.2-.1-.4-.5-.8.2-1.2.2-.1.7.2.8.5l1.5 4.8c.1.2.5.5.7.4 1.3-.5 2.6-1.1 4.1-1.7-.8-2.1-1.6-4.2-2.4-6.2.6-.8.9-.8 1.2-.1 1.1 3 2.2 5.9 3.2 9 .2.9 1 1.7.1 3.5zm5.9 50.9c.4-1.6.8-3.1 1.2-4.6.6-.1.8 0 .6.5-.6 2.2-1.2 4.4-1.9 6.5-.2.7-.2 1.6-1.3 2 .1-.3.1-.6.1-.8.3-1 .7-2 1.1-3-1-.4-1.9-.8-2.9-1.2-.3 1.1-.5 2.1-.8 3.1-.1.5-.3.8-1 .9.3-1.2.6-2.3.9-3.4.5-1.7 1-3.5 1.5-5.2.1-.3.1-.7.6-.6.1 0 .3.5.2.7-.3 1.1-.8 2.2-1.1 3.4-.1.2 0 .5.2.6.8.4 1.7.7 2.6 1.1z" fill="#FFF"/><path d="M201.4 229c-1.1.7-2.3 1.5-3.5 2.2.4 1.6.8 3.1 1.3 4.7.1.2.6.4.8.3 1.3-.8 2.7-1.6 3.9-2.6.6-.5 1.1-1.3 1.5-2 .2-.4.3-1 .1-1.4-.3-1-3.2-1.8-4.1-1.2zM217.2 266.8c-.8-.2-1.7-.3-2.5-.5-.4 1.1-.8 2.1-1.2 3.2 0 .1.1.5.3.5.9.2 1.9.4 2.9.5.5 0 1-.2 1.5-.4.3-.1.5-.4.6-.7.1-.6-.9-2.5-1.6-2.6zM219.2 266.1c.9-.1 1.5-.6 1.6-1.2.1-.6-.4-1.5-1-1.7-1.1-.4-2.2-.7-3.2-1.1-.5-.2-.7.1-.7.4-.3 1-.5 2-.8 3.1.6.1 1.1.3 1.7.4.7 0 1.6.1 2.4.1z" fill="#FFF"/><path d="M298.8 203.3l23.9-6.1 64.6-20.1 59.9-17.9 24.8-5.6 16.6-5.7-20.7 25.8-21 21.2-45.1 31.8-31.3 15.2-32.7 11.6-17.4 4.3-9-15.3-1.7-13.1-5-8.6-2.1-14.7-3.8-2.8z" fill="#B1E2F6"/><path d="M552.1 217.7c-.1-5.3-.5-10.6-.4-15.9.2-9.1-2.3-17.5-5.1-26-2.7-8.1-7.1-15.3-11.6-22.4-4-6.3-8.5-12.3-13.1-18.1-3.2-4-6.6-7.9-10.4-11.3-4.7-4.2-9.8-8.1-14.9-11.8-5.3-3.8-10.6-7.6-16.2-10.7-8.3-4.6-16.9-8.6-25.5-12.8-3.8-1.9-7.7-3.8-11.7-5-6.6-2-13.3-3.6-20-5-5.8-1.2-11.8-2-17.7-2.8-2.3-.3-4.6 0-7-.1-4.9-.3-9.8-.8-14.6-1.1-4.8-.3-9.6-.8-14.3-.4-7.2.6-14.4 1.8-21.7 1.6-2.8-.1-3.2.3-3.8 3.1-.1.5-.1 1-.4 1.5-2.4 5.4-3.9 11-4.6 16.9-1.1 8.7-2.7 17.3-4.1 26-.2 1-.8 1.9-1.3 3.1-.2 1.1-.5 2.4-.8 3.8-.2.9-.6 1.7-.5 2.6.1 3.4.3 6.7.6 10.1.3 2.7.1 5.2-1 7.7-1.8 4.2-3.4 8.6-2.3 13.4.7 2.8.2 5.1-1.8 7.4-1.6 1.8-2.1 4.5-1 7.3.6 1.3.5 3 .5 4.5-.1 3.4-.4 6.8-.8 10.2-.1.8-.7 2-1.3 2.2-3.2 1.2-6.5 2.1-9.8 3-3.6 1-7.2 2-10.9 2.9-.9.2-2.5.5-2.9 0-2.2-2.8-4.2-5.6-3.8-9.5.2-2.4.1-4.9-.5-7.2-1.6-6-3.8-11.8-5.4-17.8-1.7-6.3-3-12.7-4.4-19-.6-2.5-.9-5-1.7-7.3-1-3-2.6-5.9-3.6-8.9-3.6-10.9-7.1-21.8-10.6-32.8-.4-1.3-.7-2.6-.9-3.9-.1-.7-.6-1.5-.5-2.2-.8 0-.9-.2-1.5 0-7.9 3.1-15.9 6.1-23.7 9.4-3.8 1.6-7.3 3.8-10.7 6-4.6 2.9-9.3 5.8-13.7 9.1-3.7 2.8-6.9 6.4-10.6 9.3-6.1 4.7-10.3 10.9-15.1 16.7-3.5 4.2-6.5 8.9-9.4 13.5-2.2 3.4-4.3 7-6 10.7-2.1 4.4-3.7 9-5.6 13.4-.8 1.8-1.9 3.6-2.3 5.5-.7 2.9-1.1 5.9-1.5 8.8-.6 5.5-1.6 10.9-1.6 16.4-.1 9 .5 18.1.8 27.1 0 1.1 0 1.7-1.4 1.9-3.1.6-6.2 1.5-9.3 2.4-8.1 2.2-16.2 4.3-24.3 6.5-3.1.9-6.2 2.2-9-.6-.3-.3-.8-.3-1.2-.3-3.5.5-7.1 1-10.5 1.6-6.3 1.2-12.6 2.6-18.9 4-2 .5-4.1 1.1-6 1.9-2.9 1.2-5.5 3.1-8.5 3.9-7.1 1.8-14.4 3.2-21.6 4.5-7.2 1.3-14.5 2.6-21.8 3.5-5.2.6-10.3 1.5-15.2 3.2-5.6 1.9-11.3 3.6-15.2 8.5-2.7 3.5-5.7 6.9-5.9 11.6 0 .9.3 1.9.4 2.9.3 3.2 1 6.4 3.2 8.9 6.5 7.3 14.6 9 24 7 10.8-2.4 18.9-9.4 27.9-14.9 2.9-1.8 5.8-3.8 8.9-5.2 8.6-4 17.4-3.9 26.3-1.2 3.2 1 6.1 2.7 9.2 3.9 4.9 1.9 10 2.6 15.3 2 6.8-.8 11.4-3.9 13.1-10.8h6.2c3.7 0 7.3-.1 11 0 3.3.1 6.6.7 9.9.5 7.5-.3 15-.9 22.5-1.3 4.9-.3 4.8-.3 7 4.2 2.5 5.1 4.9 10.1 7.6 15.1 2.1 3.8 4.5 7.5 6.8 11.2l2.3 2.8c2.1 2.9 4.2 5.9 6.5 8.7 1.5 1.9 3.4 3.5 5 5.2 1.2 1.3 2.2 3 3.6 4.1 3.3 2.7 6.8 5.2 10.7 8.1-2.7 3-4.9 6.1-7.8 8.4-7.4 5.9-15.6 10.1-25 12.2-3.1.7-5.2 1.9-9.5 2.5-1.9.3-4.2-.2-6.4-.3-.7 0-1.4-.1-2 .1-.2.1-.4 1-.3 1.3.7 1.3 1.4 2.8 2.5 3.5 4 2.5 8 5.1 12.3 6.7 5 1.9 10.5 2.7 15.7 3.9 9 2.1 18.2 1.7 27.3.7 4.1-.4 8.1-1.2 12.2-1.9 2.9-.5 5.8-.8 8.5-1.7 4.4-1.5 8.6-3.4 12.8-5.1 4.5-1.9 8.9-3.8 12.2-7.6 2-2.2 4.5-3.5 7.9-2.1 1.7.7 3.8.5 5.7.6 5.9.2 11.9.2 17.9.4 4.3.2 8.7.8 13 .8 6 0 12.1-.4 18.1-.8 10.7-.6 21.4-1.1 32.1-1.9 6.9-.5 13.9-1.2 20.7-2.3 6.5-1 13-2.4 19.5-3.9 5.8-1.4 11.6-3.1 17.3-4.9 4.2-1.3 8.4-2.7 12.3-4.6 5.7-2.8 11.3-6 16.9-9 5.3-2.9 10.7-5.7 16-8.8 5.4-3.2 10.7-6.5 16-10 5.2-3.4 10.4-6.9 15.5-10.5 3.3-2.3 6.9-4.3 9.7-7.5 1.5-1.7 3.7-3 5.2-4.8 4-4.8 7.9-9.6 11.5-14.6 4.8-6.5 8.5-13.5 11-21.1 4.3-14 5.7-28.3 5.3-42.7zm-81.5-62.9c4.1-1.1 8-2.6 12-3.9.6-.2 1.3-.4 2-.6.1.2.2.3.3.5-1.5 2.1-3 4.2-4.6 6.3-1.5 2-3.3 3.8-4.7 5.8-4.1 5.9-8.5 11.3-13.8 16.2-4.6 4.3-9.4 8.4-13.8 13-4.1 4.3-9.1 7.3-13.7 10.9-5.4 4.2-10.8 8.4-16.5 12.2-7.3 5-14.4 10.3-22.4 14.1-9.3 4.3-18.5 8.6-27.8 12.8-1.6.7-3.5 1-5.2 1.5-2.5.7-5.4.9-7.4 2.4-2.2 1.6-4.6 2.1-7 3-4.1 1.6-8.1 3.5-12.2 4.7-4.5 1.3-9.2 1.9-13.8 2.8-.4.1-1.2-.3-1.4-.7-2.7-5.4-5.6-10.8-8-16.3-1-2.3-1.7-4.9-1.7-7.4-.1-2.9-1.4-5.1-2.9-7.1-2.3-3.4-3.5-7-3.9-11-.2-2.5-.7-5-1.4-7.5-.5-1.7-.6-2.6 1.6-3.1 6.1-1.4 12.1-3 18.1-4.8 5.1-1.5 10-3.2 15.1-4.8 4.9-1.6 9.8-3.3 14.8-4.9 2.2-.7 4.4-1.6 6.6-2.2 5.4-1.4 10.8-2.6 16.1-4.1 5.2-1.5 10.3-3.4 15.4-5 2.8-.9 5.6-1.5 8.4-2.4 5.6-1.8 11.2-3.7 16.9-5.4 5.8-1.8 11.6-3.6 17.4-5.2 5.1-1.5 10.3-2.9 15.5-4.2 7.2-2.1 14.6-3.7 22-5.6zm-18 3.1c0-4.4 2.9-7.4 5.8-10.4.9-.9 1.9-1.8 2.9-2.6 4.8-3.9 11.6-3.2 16.3-.3 1.3.8 1.8 3.2 2.5 4.9.1.2-.7 1-1.2 1.2-6.9 2-13.8 4.1-20.8 6-1.7.5-3.6.8-5.5 1.2zm30.1 9.1c-.5 4.4-1.7 8.8-2.2 13.2-.8 6.8-1.1 13.6-2 20.3-1.4 10.6-3.2 21.3-7.7 31-1.9 4.1-5.5 7.6-8.7 11-1.1 1.2-3.5 1.5-5.3 1.5-8.6-.1-15-5.5-15.8-14.1-.5-5.6.1-11.3.5-16.9.3-3.9 1.3-7.7 1.5-11.5.2-3.1 1.9-4.8 3.9-6.7 5-4.7 9.8-9.6 14.9-14.2 7.7-7 13.8-15.4 20.2-23.6.1-.1.3-.1.8-.3 0 3.7.3 7-.1 10.3zm-182.8 39.3c.5.1 1.2.6 1.4 1.1.4 1.4.9 2.8.9 4.3 0 5.4 1.3 10.3 4.7 14.6 2.2 2.8 2.2 5.8 1.7 9.2-.6 3.3-1.4 6.3-3.9 8.8-4.7 4.8-10.8 6.3-16.9 7.4-1.7.3-3.7-.4-5.5-.9-6.9-2.1-12.3-6.7-17.5-11.6-2.9-2.7-4.8-5.9-6.4-9.3-.7-1.5-1.7-2.2-3.3-1.8-3.2.8-6.4 1.5-9.6 2.3-1.4.4-1.9 1.2-1.3 2.6 2.1 4.7 3.6 9.7 6.3 14 2.9 4.7 6.9 8.6 11.6 11.9 4.5 3.2 9.5 5.2 14.7 6.6 6.7 1.7 13.3 1.3 20.1-.1 8.4-1.7 14.7-6.4 20.4-12.9.6 1.9 1.3 3.6 1.7 5.3.3 1.2.8 1.4 1.9 1.2 6.3-1.8 12.7-3.4 19-5.3 5-1.5 9.9-3.4 14.9-5.1.1.5.5 1.1.4 1.5-.9 3.2 1.3 3.1 3.3 3.2 5.4.2 10.9.2 16.3.6 7.1.5 14.1 1.4 21.2 2.1 4.7.4 9.5.6 14.2.9h1.1c3.8.4 4 .4 4.9-3.2.8-3.1 1-6.3 1.4-9.5 0-.3-.8-1.1-1.3-1.2-5.5-.6-11.1-1.2-16.6-1.7-2.4-.2-4.9-.2-7.3-.5-4-.6-8.1-1.3-12.4-2.1 8.6-4.8 17.9-7.9 25.8-13.7 7.9-5.8 16.2-11.1 24.3-16.5-.5 7.2-1.3 14.3-1.4 21.5-.1 7.8 1.7 15.3 6.1 22 1.5 2.3 3.5 4 6.3 4.7 5.8 1.5 11.6 1.3 17.4 0 1.7-.4 3.2-1.5 4.8-2.2 10.6-4.4 17.5-12.4 21.4-22.9 2.5-6.8 5-13.6 6.6-20.6 1.7-7.6 2.5-15.5 3.3-23.3.8-7.7 1.4-15.5 1.8-23.2.3-5.3 0-10.6-1.4-15.8-1.4-5.1-4.4-9.2-8.6-12.6-5.5-4.3-11.6-6.2-18.4-6.1-3.1 0-6.1.2-9.2.6-1.8.3-3.7 1-5.4 1.8-7.9 4-12.9 10.3-14.8 19.1-.8 3.6-2 7.2-3 10.7-5.7 1.7-11.6 3.4-17.5 5.2-5.9 1.7-11.7 3.6-17.7 5.1-2.1.5-4.5-.2-6.8-.3-7-.2-14.1-.5-21.5-.7.7-10.8 1.4-21.1 2-31.6 14.8 1 29.5 1.8 43.9 1.2.8-5.1 1.5-9.6 2.3-14.6-3.9-.2-7.4-.6-11-.6-9.6-.1-19.3.1-28.9-.3-5.1-.2-10.2-1.3-15.3-2-.9-.1-1.8-.3-2.6-.1-.7.2-1.6 1-1.6 1.6-.5 5.3-.7 10.7-1.2 16-.6 6.6-1.4 13.2-2.1 19.7-.1 1-.1 2.1-.2 3.1-.2 4-.5 7.9-.6 11.9-.1 3.2 0 6.4 0 9.6-6.8 2.4-13.3 4.6-19.8 6.8-1.7-3.3-5-4-7.3-5.6-.6-3.4-1.6-6.6-1.7-9.9-.1-1.9.8-4.2 1.9-5.7 1.8-2.3 1.9-5 1.5-7.3-.8-4.6.1-8.6 1.8-12.7.9-2.1 1.2-4.4 1.9-7 2.5 2.8 4 5.8 4.4 9.3.2 2.5 1.2 3.1 3.4 1.8 1.6-.9 2.9-1.2 4.8-.5 1.1.4 3 .1 3.9-.7.8-.6 1-2.5.8-3.6-1.6-8-4-15.6-10.9-20.9-1.4-1.1-3-1.8-4.5-2.8-.5-.3-.9-1.1-.8-1.7.5-3.4 1.1-6.8 1.6-10.2.7-4.1 1.3-8.2 2-12.3.9-5.4 1.8-10.8 2.8-16.5 7.3.2 14.4.5 21.5.7 1.3 0 2.7-.4 4-.3 8.5.7 17.1 1.4 25.6 2.1 6 .5 12 1 17.9 1.8 5.2.7 10.4 1.7 15.6 2.7 5.9 1.1 11.7 2.3 17.6 3.5 1.6.3 3.2.8 4.6 1.4 7.8 3.2 15.6 6.3 23.2 9.9 6.4 3.1 12.7 6.6 18.4 10.7 4.5 3.3 8.2 7.7 12 11.8 3.4 3.6 6.9 7.2 9.7 11.3 4.9 7.1 9.7 14.4 13.9 22 3 5.6 5.2 11.8 7.2 17.9 2 6.1 3.8 12.4 4.9 18.7 1.9 10.8 1.9 21.9.6 32.8-.8 6.8-2.1 13.6-4 20.2-1.7 5.9-4.5 11.5-6.6 17.3-2.9 8-9.3 13.5-14.8 19.5-5 5.4-11.3 9.5-17.5 13.5-1 .6-1.8 1.5-2.8 2.2-5 3.7-9.8 7.6-15.1 10.8-6.4 3.9-13 7.4-19.8 10.6-8.1 3.8-16.4 7.2-24.8 10.5-6.2 2.4-12.7 4-18.8 6.4-8.3 3.2-16.7 6.3-25.5 7.6-2.8.4-5.7.4-8.5.6-3.3.3-6.7.8-10 1.1-5.7.5-11.4 1-17 1.2-7.5.3-15 .5-22.5.4-7.5-.1-15.1-.8-22.6-1.2-4.4-.3-8.9-.4-13.3-.9-5.2-.7-10.4-1.7-15.6-2.6-1.3-.2-2.6-.2-3.6 1.3-3.9 5.8-9.5 9.8-15.6 12.8-6.9 3.4-14.1 6.4-21.9 7.7-3.1.5-6.2 1-9.4 1.1-3.7.2-7.4 0-11.1.1-2 0-4 .5-6 .3-2-.1-4-.7-6-1.1-1.6-.3-3.1-.7-5.3-1.3 2.8-1 5-2.3 7.2-2.6 5.2-.8 9.7-3.2 13.9-6.1 4.3-3 8.3-6.2 12.2-9.7 2.5-2.3 4.5-5.2 6.8-7.8.7-.8 1.6-1.6 1.9-2.5.6-2-.1-2.8-3.1-4.2-2.4-1.1-4.9-2.3-7-3.9-3.3-2.5-6.1-5.4-9.4-7.9-8.2-6.3-14.2-14.7-19.8-23.1-6-8.9-11.1-18.5-14.2-29-2-6.8-4.5-13.5-6.6-20.3-2.5-8.1-4.6-16.4-4.5-25 0-2.3-.8-4.7-.7-7 .1-4.9.3-9.8 1-14.7.9-6.6 1.8-13.2 3.4-19.7 1.3-5 3.1-10 5.5-14.5 5-9.3 9.9-18.7 15.9-27.4 4.8-6.9 11.3-12.6 18.5-17.4 2.4-1.6 4.3-3.7 6.6-5.4 3.4-2.5 6.8-5 10.4-7.1 4.5-2.6 9.1-5.2 13.9-7.3 5.6-2.4 11.5-4.3 17.6-6.5 2.9 9 5.6 17.5 8.3 26.2-4.8.5-9.3.9-13.8 1.5-8.7 1.1-16.4 4.2-22.2 11.2-7.1 8.5-9.6 18.4-9.2 29.4.3 8.4 2.5 15.8 8.4 21.8 1.9 2 4.4 3.8 7 4.7 5.4 2 10.9 3.9 16.6 4.9 9.3 1.7 18.8 2.8 28.1 4.2 2.4 0 4.2.1 6 .5zm-171.5 65.8c.7-1.6 1.4-3.1 2.1-4.6-.2-.1-.5-.2-.7-.4-.5.6-.9 1.2-1.4 1.7-.1-.1-.3-.1-.4-.2l1.8-3c.9-1.4.8-1.6-.4-2.3-.5-1.4 1.9-2.5-.3-3.5-.1 0 0-.7.1-.8 2.1-1.9 0-4.2.7-6.3.1-.2-.1-.4-.2-.7 13.4-3.4 26.6-6.8 40.1-10.2 2.9 9.8 5.8 19.2 8.7 28.9-16.3 3-32.6 2.9-48.8 3.9.3-.5.8-1.5 1.6-2.9-1.3.1-2 .3-2.9.4zm1.9 9.6c-.1-1.6 1.3-2.7.1-4.2-.3-.4.7-2.1 2.4-2.1 4.7 0 9.4-.1 14.1-.5 9.9-.7 19.7-1.7 29.5-2.5.8-.1 2.1.1 2.3.6 1 2.4 1.7 4.8 2.6 7.2-17.2 2.6-34.1 1.6-51 1.5zm149.8-139.4c3.8.3 4.4.8 5.4 4.2 1.3 4.7 2.4 9.5 3.7 14.3 2.1 8 4.4 16.1 6.5 24.1.6 2.2.8 4.4 1.1 6.6-5.1-.6-9.7-1.1-14.3-1.8-5.6-.8-11.2-1.5-16.7-2.7-4.5-1-8.9-3.1-12-6.6-1.8-2-2.9-4.9-3.7-7.6-.7-2.5-.7-5.2-.9-7.8-.5-5.7 1.4-10.9 3.9-15.8 1.8-3.4 5.1-5.2 9-6 5.9-1.1 11.9-1.4 18-.9zM91.8 256.8c3.7-.8 7.4-1.4 11-2.2 3.3-.7 6.7-1.5 10-2.3-7.1 5.1-15.2 8.9-23.9 6.1 1.3-.8 2-1.4 2.9-1.6zm-23.9 8c.1.2.2.4.2.6-2.1.9-4.1 2.3-6.3 2.8-6.1 1.3-7.3 1.1-10.5-.7 5.8-1 11.2-1.9 16.6-2.7zM14 275.6c5.6-3 18-6.1 24.9-6.4-3.5 3.7-8.8 5.9-13.1 4.2-2-.8-3.4.2-4.8 1.3-2.5 1.9-4.9 4-7.6 5.5-1.4.8-3.3.7-5.5 1.1 1.4-3.2 3.8-4.5 6.1-5.7zm102.6 11.7c-1 .1-2.1.6-3 1-.3.1-.3.8-.5 1.2h1.2c2.8-.3 5.7-.7 8.5-1 0 .3.1.5.1.8-2.3 3.1-12.4 4.7-17 2.6.4-.4.8-.7 1.4-1.3h-7.8c.8-1.1 1.3-1.6 1.6-2.2 1.1-1.9 3.8-2.6 5.9-2.6 2.3-.1 4.6-.9 6.9-1.7 3.5-1.3 6.8-.9 9.9.7.6.3 1 1.3 1.8 2.4-3.4 0-6.2-.1-9 .1zm9.6-9.5c-4.3-.3-8.6-.9-12.8-.6-2.2.1-4.4 1.7-6.6 2.7-.9.4-1.9 1.1-2.8 1.2-1.8.1-3.6-.2-5.4-.4-1.4-.1-2.9-.4-4.3-.4-3.6-.1-7.1-.4-10.7-.2-2 .1-3.9 1.1-5.9 1.2-3.4.2-6.9-.2-10.3 0-2.5.1-5.2.3-7.5 1.3-3.4 1.5-6.4 3.9-9.4 5.8.5.4 3.2.1 4.6-.8 1.1-.7 2.2-1.5 3.2-2.3 2.2-1.5 4.4-2.4 7.2-2.5 5.7-.1 11.3-.7 17-.7 6.1-.1 12.1.2 18.2.4 1.4 0 2.8.2 4.2 0 1.2-.2 2.6-.5 3.3-1.3 1.9-2 4.1-2.5 6.6-2.5s5 .1 7.5.4c3.4.4 4.1 1.5 4 4.7-1.9-.5-3.9-.9-5.9-1.4-2.9-.8-5.6-.3-8.3.9-1.8.8-3.5 1.9-5.6.6-.1-.1-.3-.1-.4-.1-2.2 0-6.9 3.5-7.6 5.5-2.1-.8-4.1-1.8-6.3-2.3-4.6-1-9.2-1.9-13.8-2.3-2.4-.2-4.8.9-7.3 1.4-1.7.3-3.4.6-5.1 1-3.8.8-7.5 1.6-11.3 2.5-.3.1-.5.3-.6 1.1 1.9-.4 3.9-.8 5.8-1.2-1.9 1.8-3.3 4-6.3 4.4-1.3.2-4.2.5-4 3.4 0 .3-.7.7-1.1 1-1.5 1-3 2.2-4.6 3-1 .5-2.3.3-3.4.5-.9.1-2.1-.1-2.7.4-3.7 2.5-7.6 1.8-11.6 1.3-1.8-.2-3.6.4-5.4.6v.6c.4.2.7.5 1.1.6 3.6.1 7.3.3 10.9.1 1.5-.1 3.1-.8 4.6-1.3.8-.2 1.5-.5 2.3-.8.1.2.2.4.3.7-2.5 1.2-5 2.4-7.6 3.5-3.7 1.5-7.5 2.2-11.4.6-1-.4-2.4 0-3.4.3-3.3 1-5.5-.9-8.6-2.5 2.9-.6 5.2-1 7.4-1.5v-.7c-.7-.1-1.3-.3-1.9-.2-1.9.4-3.7 1-5.5 1.2-.9.1-1.9-.6-2.9-1 0-.2-.1-.5-.1-.7 1.2-.6 2.4-1.1 3.6-1.7 0-.2-.1-.3-.1-.5-1.4.2-2.9.4-4.5.7-.5-.9-1.1-2.1-2-3.7 2.1-.5 4.1-.9 6.1-1.4 2-.4 4-.9 5.9-1.3-.6-1.1-.6-1.1-2.5-.9-1.7.2-3.4.3-5 .6s-3.1.8-4.9 1.3c-.1-1.2-.1-2.2-.2-3.2.8-.3 1.5-.5 2.4-.8-1.9-.6-3.5-1.2-2-3.6 6.8-.9 13.2-3.3 19-7.7-.4-.1-.8-.5-1.1-.4-.8.2-1.6.4-2.2.9-3.8 3.4-8.6 4.5-13.4 5.6-.7.2-1.4.4-2.5.8 1.5-2 2.6-3.6 3.8-5 .3-.4 1-.8 1.4-.7 5.4 1.4 9-2 12.7-4.8 2.2-1.6 3.7-2.5 6.8-1.9 4.3.9 8.6-1.1 12.1-4 3.6-2.9 7.5-4.4 11.9-2 4.1 2.3 8.1 1.5 12 0 3.7-1.3 7.6-2.5 11.1-4.4 3.5-1.9 7.1-3.1 10.7-4.4 1.2-.4 2-.9 3.6-.1 1.5.8 3.6.6 5.5.6 2.3 0 4.7.2 6.8-.6 4.8-1.8 9.4-4.3 14.1-6.4 1.1-.5 2.3-.9 3.5-1.1 2-.4 4.1-.7 6.1-1 .5-.1 1-.1 1.6-.1.1.2.2.5.3.7-1.4.9-2.7 1.7-4.1 2.6.1.2.2.3.3.5 1.1-.1 2.1-.3 3.5-.5-.2 3.3-.4 6.4-.6 9.8-5.3-2.1-10.2.1-15.3.5v1c2.1-.1 4.3-.3 6.4-.3 2.1 0 4.2 0 6.3.1 2.2.2 3.1 1.4 2.7 3.3-2.3.8-4.3 1.5-6.3 2-1.3.3-2.7.3-4 .5-1.6.3-4.1.2-4.6 1.2-1.1 2-2.6 2.7-4.5 3.1-2 .5-3.9.9-6.1 1.4 1.1 1.8 2.8.9 3.8.6 2.6-.8 5.1-2.1 7.7-3.1 1.1-.4 2.2-.8 3.3-1.1 2.1-.6 4.3-1 6.3-1.8 3.3-1.3 5-.5 5.3 3-.4.9-.5 1.9-.5 2.5z" fill="#000"/><path d="M249.8 312.3c1 .2 2 .6 2.9.9 3.5 1.4 7 2.7 11 1.9 3-.6 5.1-2.2 5.1-5.3 0-2.5-.8-4.9-1.3-7.5 1.4-.3 3-.5 4.6-1 2.5-.7 4.1-2.7 4.7-5.1.6-2.7-.1-5.2-2.5-6.8-3.1-2-6.4-4-9.8-5.6-4.4-2.1-4.3-1.9-5.7 2.6-1.2 3.8-2.6 7.6-4.2 11.3-1.8 4.1-3.9 8-5.9 12-.4 1.2-.7 2.3 1.1 2.6zm11.3-26c.4-1 1-1.8 2.3-1.1 3 1.7 6.2 3.2 9.2 4.9 1.9 1.1 2.9 4.3 2.4 6.2-.6 2-2.6 3.6-5.3 3.4-2.4-.2-4.8-.9-7.1-1.6-1.7-.5-3.4-1.4-5-2.1 1.2-3.3 2.3-6.5 3.5-9.7zm-9.5 22.6c1.5-3.4 3.1-6.7 4.6-10.2 2.5.9 5 1.7 7.3 2.6 1.9.7 4.4 7.2 3.5 9.4-.4.9-1.2 1.8-2.1 2.1-1.4.5-3.1.9-4.5.6-2.8-.6-5.6-1.7-8.3-2.7-.3-.1-.7-1.3-.5-1.8zM303.8 330.4c1-3.3 2.2-6.5 3.4-10 2.9 1.8 5.4 3.4 8.1 5.1-1.4 3.2-2.9 6.3-4.2 9.4-.3.7-.4 1.4-.7 2.5 3.6-1.2 3.7-4.1 4.7-6.2 3-6.8 5.5-13.8 8.2-20.7.7-1.8.3-2.2-1.6-2-1.8 4.9-3.5 9.7-5.3 14.7-2.7-1.6-5.1-3-7.4-4.5-.4-.3-.6-1.4-.3-1.9 1.5-3.6 3.2-7.1 4.6-10.6.3-.6 0-2.1-.4-2.3-1.5-.7-1.5.7-1.9 1.6-2.1 5.5-4.4 11-6.5 16.6-1.3 3.5-2.5 7-3.8 10.8 1.9 0 2.6-1 3.1-2.5zM291.3 315.2c1.5.5 2.8.8 3.9 1.4.5.3 1.2 1.2 1.1 1.6-.7 2.6-1.6 5.1-2.3 7.7-.3 1.2-.5 2.4-.7 3.7.2.1.5.3.7.4.7-.7 1.9-1.2 2.2-2 .9-2.7 1.5-5.5 2.1-8.2.7-3 1.3-6.1 1.9-9.1.6-3.3 1.1-6.7 1.6-10.1.1-.4-.5-1.3-.8-1.3-.5-.1-1.3.2-1.7.6-.8 1-1.4 2.2-2.2 3.3-4.3 6.3-8.5 12.6-12.8 18.9-.3.5-.6 1.1-.8 1.6.2.2.5.4.7.6 3.8-2 4.5-6.6 7.1-9.1zm7.8-11.6c.1.1.3.1.4.2-.8 3.6-1.6 7.2-2.5 11.1-1.6-.7-2.8-1.3-4.3-1.9 2.2-3.4 4.3-6.4 6.4-9.4zM271.2 319.4c2.3 1 4.4 2.3 6.7 3.2.8.3 2 .1 2.9.1 0-.3 0-.6.1-.9-2.3-1.2-4.5-2.4-6.8-3.5-1-.5-1.4-.8-.8-2.1 3.2-7.2 6.1-14.5 9.1-21.8.2-.4-.1-1-.2-1.5-.5.2-1 .3-1.4.6-.3.2-.3.6-.5 1-3.3 7.5-6.6 15-10 22.4-.4 1.1-.4 1.8.9 2.5zM328.2 244.7c5.2-1.7 10.4-3.6 15.6-5.5 4.9-1.8 9.7-3.6 14.5-5.5 4.5-1.7 9.1-3.4 13.6-5.3 6.7-2.8 13.2-6 20-8.7 6.1-2.4 11.3-6.2 16.8-9.5.5-.3.8-1 1.2-1.4-.1-.2-.2-.3-.3-.5-.9.4-1.8.7-2.7 1.2-3.5 2.1-6.8 4.6-10.5 6.3-7.4 3.4-14.6 7.3-22.3 10-8 2.9-15.9 6.3-23.8 9.3-7.3 2.8-14.6 5.6-22 8.1-3.3 1.1-6.7 1.6-10.1 2.4-.1.2-.1.4-.2.6.6.2 1.2.6 1.7.5 2.9-.7 5.8-1.1 8.5-2zM470 159.6c-.4-.2-.6-.4-.6-.4-10.5 10.5-20.1 22-33.3 29.5-.1 0 0 .3.1 1 13.8-7.4 24-18.4 33.8-30.1zM419.3 208.1c2.3-6.3 4.7-12.5 7-18.8.2-.6-.1-1.5-.1-2.2-.3 0-.7-.1-1-.1-2.7 7.2-5.5 14.4-8.3 21.8 1.3.7 1.9.7 2.4-.7zM409.6 212.5c.5-.5 1.2-.9 1.6-1.5 2.6-4.6 5.2-9.3 7.7-14 .5-.9.6-2.1 1-3.7-3.7 2.2-5.2 5.2-6.5 8.5-1.3 3.4-2.9 6.7-4.3 10 .1.3.3.5.5.7zM330.8 237.3c5.8-13.9 11.7-27.7 17.5-41.6-.3-.1-.6-.3-.9-.4L330 237c.3.1.5.2.8.3zM424.8 202.6c.4-.3 1.1-.4 1.3-.8 1-2.7 1.9-5.3 2.7-8.1.1-.5-.2-1.1-.4-1.7h-.8c-1.2 3.1-2.4 6.2-3.5 9.4 0 .4.5.9.7 1.2zM335.7 209.8c.2-.3-.3-.9-.4-1.4-.4.4-1 .7-1.2 1.2-.9 2.1-1.7 4.3-2.6 6.4-1.1 2.5-2.4 4.9-3.6 7.4.2.1.5.2.7.3 2.4-4.6 4.8-9.2 7.1-13.9zM344.8 218.4c.2.1.4.2.7.3 2.2-5.2 4.4-10.5 6.6-15.9-1.7.1-1.7.4-3.9 7.4-.9 2.7-2.2 5.4-3.4 8.2zM109.8 268.3c-.6-.1-1.3-.5-1.7-.3-2.6 1.6-5.4 1.2-8.2.8-7.1-1-14.2-1.4-20.8 2.2-1.5.8-3 1.8-4.5 2.7-3.6 2.1-7.7 2.1-11.7 2.7-.6.1-1.2.4-1.8.5.1.3.1.7.2 1 3.9-.6 7.7-1.3 11.6-1.8 2.2-.3 4.5-.6 6.7-.5 3.3.2 6.7 1.2 9.9.9 2.6-.2 5.1-1.9 7.7-2.8 3.8-1.4 7.7-2.7 11.5-4.2.5-.1.7-.8 1.1-1.2zM95 273.5c-5.2 2.9-10.5 1.7-15.7.4-.3-.1-.5-.3-.7-.5-.1-.1-.2-.4-.3-.7 7.4-3.7 15-3.8 23-2-2.2 1-4.4 1.7-6.3 2.8zM69.2 271.4c2-1.4 5.5-.3 6.4-3.6.1-.2.6-.3 1-.4 1.9-.7 3.8-1.8 5.8-2.2 2.8-.5 5.8-.5 8.6-.7.6-.1 1.2-.3 1.8-.5-.5-.4-.9-1.1-1.4-1.2-3.8-.8-7.6-.3-11.2 1.3-3.5 1.7-7.1 3.4-10.4 5.4-5.9 3.5-12.2 4.6-18.9 4.5-3.8-.1-7.5.2-10.8 2.2-.9.5-1.7 1.3-2.5 2 .2.2.3.4.5.7 3.3-2.5 7.1-3.3 11.1-3.4 4.3-.1 8.6-.4 12.9-1.1 2.3-.6 4.9-1.6 7.1-3zM25.4 293.9c1.8.4 3.8.8 5.6.6 3.1-.4 6.1-1.2 9.1-1.9.2-.1.3-.6.8-1.6-4 .9-7.5 2.3-10.9 2.3-3.5 0-7-1.4-10.7-2.2 5.3-3.9 9.4-9.1 15.9-11.1-.1-.3-.3-.6-.4-.9-.5 0-1 0-1.5.1-4.2.8-7.1 3.8-10.5 5.9-.9.5-1.2 1.9-2 2.5-3 2.2-6.5 3.2-10.2 3.6-.6.1-1.1.5-1.6.8.9.6 1.6.8 2.3.7 4.8-.8 9.5.2 14.1 1.2z" fill="#000"/><path d="M43.4 281c-4.7.9-9.1 2.4-12.8 5.6-.5.4-.6 1.2-.9 1.8.7.2 1.4.6 2.1.6 1.4-.1 2.9-.6 4.3-.7 5.5-.4 10.5-2.2 14.8-5.6.5-.4 1-.6 1.3-.8-2.7-.3-5.3-.6-7.9-.9-.3-.1-.6-.1-.9 0zm-11 6.4c3.4-4.2 11.1-6.2 14.9-4.2-4.2 4-9.6 3.3-14.9 4.2zM43.2 294.9c-5.1 3.7-11 5-17.1 5.1-1.8 0-3.9-.4-5.5-1.2-3.2-1.8-6.4-.8-9.6-.5-.1 0-.2.3-.4.5h1.7c1.9 0 4.2-.6 5.8.2 4.8 2.5 9.8 2.6 14.9 1.6 2.9-.6 5.8-1.5 8.5-2.8 2.3-1.1 4.4-2.8 6.5-4.2-.2-.3-.3-.6-.5-.8-1.5.6-3 1.2-4.3 2.1zM98.8 264.2c1.2.2 2.5.4 3.7.3 4.1-.1 7.5-2 10.6-4.4 2.2-1.7 4.6-1.7 7.1-1 .7.2 1.4.2 2.4.3-1.7-2.7-6.6-3.4-9.1-1.7-4.3 3.1-8.7 6-14.5 4.8-.3-.1-.7.4-1 .5.2.5.4 1.2.8 1.2zM167.4 247.3c-.3-.1-.5-.2-.8-.3-3.5 7.2-7 14.3-10.5 21.5 4.3-6.8 8.4-13.7 11.3-21.2zM159.4 253.6h-1.5c-1.6 3.6-3 6.9-4.4 10.1.2.1.3.2.5.2 1.8-3.3 3.5-6.7 5.4-10.3zM164.7 264.8c.2.1.3.2.5.3 1-1.9 1.9-3.9 2.9-5.8-.3-.2-.7-.4-1-.6-1.7 1.6-1.5 4.1-2.4 6.1zM84.5 272.8c2.5.1 4.7.3 7 .3.4 0 .9-.7 1.8-1.5-3.3-.2-5.9-.3-8.5-.5-.1.7-.2 1.3-.3 1.7zM203.2 227.7c.4-.6 1-1.4 1.4-2.1.7-1.2.7-2.4.2-3.3-.6-1-1.6-1.4-3-.9-1.8.7-3.6 1.5-5.3 2.4-2.3 1.2-2.2 1.2-1.3 3 .7 1.5 1.3 3.1 1.8 4.8.6 1.8.9 3.8 1.4 5.7.1.5.4.9 1.2.3.4-.3.9-.6 1.4-.9 1.7-1 3.4-2.1 4.6-3.9.9-1.4 1.2-2.7.3-3.5-.7-.7-1.8-1.1-2.7-1.6zm-7.2-1.8c-.2-.4-.2-.9.5-1.2 1.6-.8 3.2-1.6 4.9-2.3 1-.4 2.4 0 2.8.7.4.8.1 2-.9 3.1-.9.9-2 1.7-3.1 2.4-.8.6-1.7 1-2.5 1.4-.6-1.5-1.2-2.8-1.7-4.1zm9.4 5.7c-.4.7-.9 1.5-1.5 2-1.2 1-2.6 1.8-3.9 2.6-.2.1-.7-.1-.8-.3-.5-1.5-.9-3.1-1.3-4.7 1.2-.8 2.3-1.5 3.5-2.2.9-.6 3.8.2 4.1 1.2.2.4.1 1-.1 1.4zM226.2 207.6c-.3-.8-.6-.7-1.2.1.8 2.1 1.6 4.1 2.4 6.2-1.5.6-2.8 1.2-4.1 1.7-.2.1-.6-.2-.7-.4l-1.5-4.8c-.1-.3-.6-.6-.8-.5-.7.4-.3.8-.2 1.2.9 2.4 1.7 4.8 2.6 7.2.6 1.5 1.2 2.9 1.8 4.5.7-.9.7-1.4.4-2-.6-1.3-1.1-2.7-1.7-4.1 1.6-.7 3-1.2 4.5-1.9.4 1.5.8 2.9 1.3 4.3.1.3.3.6.5 1 1-1.8.1-2.6-.1-3.6-.9-3-2.1-5.9-3.2-8.9zM215.2 226.4c0 .3.1.5.2.8.1 0 .3-.1.4-.1.9-2-.3-3.6-.1-5.3.7-.5 1.3-.9 1.9-1.2.3-.1.8-.2.9 0 .5 1 1 2.1 1.5 3.1.2.5.6.9.8 1.3.1-.1.3-.1.4-.2.1-.5.3-1.1.2-1.4-.5-1.1-1.1-2.1-1.7-3.1-.7-1.1-1.3-2.2-2-3.3-.8-1.2-1.6-2.3-2.4-3.4-.1-.1-.6-.2-.7 0-.2.2-.4.6-.4.8 0 .6.1 1.2.2 1.8.2 3.3.5 6.7.8 10.2zm.2-11.2c.8 1.3 1.5 2.6 2.4 4.1-.8.4-1.4.8-2.2 1.2-.1-1.8-.3-3.5-.4-5.1l.2-.2zM214.2 227.9l-.3-.3c-1.2.6-2.4 1.1-3.6 1.8-.5.3-.7.3-.9-.3-1-3.3-2.1-6.5-3.2-9.7-.1-.2-.3-.2-.5-.3-.1.2-.3.5-.3.7 0 .2.1.3.1.5l3 10.2c.2.6.4.8 1.1.4 1.1-.6 2.3-1.2 3.5-1.8.4-.3.7-.8 1.1-1.2zM218.6 266.9c.4-.1 1-.3 1.5-.5.8-.3 1.3-1 1.4-1.7.1-.8-.2-1.5-1.1-1.9-1.1-.5-2.3-.9-3.5-1.2-1.5-.4-1.5-.4-1.8 1-.3 1.2-.6 2.4-1 3.5-.4 1.3-1 2.5-1.5 3.8-.1.4-.2.7.4.7.3 0 .7.1 1 .2 1.2.3 2.4.5 3.7.1 1-.3 1.6-.9 1.5-1.8 0-.7-.4-1.4-.6-2.2zm-2.8-4.5c.1-.3.3-.6.7-.4 1.1.4 2.2.7 3.2 1.1.7.3 1.1 1.2 1 1.7-.1.6-.7 1.2-1.6 1.2-.8.1-1.6-.1-2.4-.2-.6-.1-1.2-.3-1.7-.4.3-1 .5-2 .8-3zm2.9 7.1c-.1.3-.3.6-.6.7-.5.2-1 .4-1.5.4-1-.1-1.9-.3-2.9-.5-.1 0-.3-.4-.3-.5.4-1.1.8-2.1 1.2-3.2.9.2 1.7.3 2.5.5.8 0 1.8 1.9 1.6 2.6zM232.7 269.5c.4-1.1.8-2.2 1.1-3.4.1-.2-.1-.6-.2-.7-.5-.1-.5.3-.6.6-.5 1.7-1 3.5-1.5 5.2-.3 1.1-.6 2.2-.9 3.4.7-.1.9-.4 1-.9.2-1 .5-2 .8-3.1 1 .4 1.9.8 2.9 1.2-.4 1-.7 2-1.1 3-.1.2-.1.4-.1.8 1.1-.5 1.1-1.4 1.3-2 .7-2.1 1.3-4.3 1.9-6.5.2-.6 0-.7-.6-.5-.4 1.5-.8 3-1.2 4.6-1-.4-1.8-.7-2.6-1-.1-.2-.2-.5-.2-.7zM229.5 264.6c-.2 0-.4.1-.5.2-.2.3-.4.7-.6 1.1-1.2 2.1-2.4 4.1-3.5 6.1-.1.2-.1.3-.2.5.1 0 .2.1.3.1 1.2-.7 1.3-2.1 2-3 .5.1.9.1 1.4.2.2.1.5.3.4.4-.1.8-.3 1.6-.5 2.4-.1.4-.1.7-.1 1.1.1 0 .2.1.3.1.2-.2.6-.4.6-.7.2-.8.3-1.7.4-2.5.1-.9.2-1.9.3-2.8.1-1 .1-2 .1-3.1-.1.1-.3-.1-.4-.1zm-.7 4.8c-.6-.1-1-.3-1.5-.4l1.8-3h.1c-.1 1.1-.2 2.2-.4 3.4zM221.4 271.3c-.4-.1-.5-.2-.3-.6.8-2.3 1.5-4.6 2.2-6.9 0-.1-.1-.3-.1-.4-.1.1-.3.1-.4.2-.1.1-.1.2-.1.3-.8 2.4-1.6 4.7-2.5 7.1-.1.4-.1.6.3.7.8.2 1.6.5 2.4.7.3.1.7-.1 1-.1v-.3c-.9-.1-1.7-.4-2.5-.7zM375 325.2c.3-.3.8-.7 1.1-1.1.6-.7.7-1.4.4-2.1-.3-.8-.9-1.3-1.8-1.2-1.2.1-2.4.2-3.7.4-1.6.3-1.5.3-1.2 1.7.3 1.2.6 2.4.7 3.6.2 1.3.2 2.7.4 4.1 0 .4.2.7.7.5.3-.1.6-.2 1-.3 1.2-.3 2.4-.6 3.4-1.6.7-.7 1.1-1.5.5-2.3-.3-.7-1-1.1-1.5-1.7zm-4.5-2.7c-.1-.3 0-.6.5-.7 1.1-.2 2.3-.4 3.4-.5.7-.1 1.5.5 1.7 1.1.2.6-.1 1.4-.9 1.8-.7.4-1.5.7-2.3.9-.6.2-1.2.3-1.7.4-.3-1-.5-2-.7-3zm5.5 5.8c-.3.4-.7.8-1.1 1-.9.4-1.8.6-2.8.9-.1 0-.4-.2-.5-.3-.2-1.1-.3-2.2-.4-3.4.9-.3 1.7-.5 2.5-.7.7-.2 2.4 1 2.5 1.7.1.2 0 .6-.2.8zM388.5 323.3c.2 1.1.5 2.2.7 3.4.6-.4.6-.8.5-1.2-.3-1-.5-2-.7-3.1 1.1-.1 2.1-.2 3.1-.3.1 1.1.3 2.1.4 3.1 0 .2.1.4.2.8.8-1 .3-1.7.3-2.4-.3-2.2-.8-4.5-1.2-6.7-.1-.6-.3-.6-.8-.2.3 1.5.6 3.1 1 4.7-1 .1-1.9.2-2.8.3-.2 0-.4-.2-.4-.4-.2-1.2-.3-2.3-.5-3.5 0-.2-.3-.5-.5-.5-.5.1-.3.5-.2.8.3 1.6.6 3.4.9 5.2zM385.4 321.2c-.4-.9-.8-1.9-1.2-2.8-.1-.1-.3-.2-.4-.2-.2.1-.3.3-.4.5-.1.4 0 .8-.1 1.2-.1 2.4-.3 4.7-.4 7.1v.6h.3c.8-1.2.2-2.4.5-3.5.5-.2.9-.3 1.3-.4.2 0 .5.1.6.2l.6 2.4c.1.4.3.7.4 1h.3c.1-.3.3-.7.3-.9-.2-.8-.5-1.6-.8-2.4-.3-1.1-.6-2-1-2.8zm-1.7 1.9c.1-1.2.2-2.4.2-3.5h.1c.4 1 .7 2.1 1.1 3.2-.5.1-.9.2-1.4.3zM379.4 327.9c-.4.1-.5.1-.6-.4-.3-2.4-.7-4.8-1.1-7.1 0-.1-.2-.2-.3-.3-.1.1-.2.3-.3.4v.3c.3 2.5.7 5 1 7.4.1.4.2.6.6.5.8-.2 1.6-.3 2.4-.5.3-.1.6-.4.8-.5 0-.1-.1-.2-.1-.2-.7.1-1.5.3-2.4.4zM342.6 288c.3 2.6.4 5.3.7 8 .1.8.3 1.4 1.4.9.6-.3 1.3-.4 1.9-.6 2.4-.6 4.7-1.2 6.7-3.1 1.5-1.4 2.1-3 1.1-4.5-.8-1.2-2-2.1-3.1-3.2.7-.6 1.5-1.4 2.2-2.2 1.2-1.3 1.4-2.8.9-4.2-.5-1.6-1.8-2.5-3.6-2.4-2.4.2-4.8.4-7.2.8-3.1.6-3 .7-2.3 3.4.5 2.4 1 4.8 1.3 7.1zm11.1 1.9c.1.5-.1 1.3-.5 1.8-.6.8-1.4 1.6-2.3 2-1.8.7-3.6 1.2-5.4 1.7-.3.1-.9-.4-.9-.7-.3-2.2-.5-4.4-.8-6.7 1.7-.5 3.3-1 4.9-1.4 1.3-.4 4.8 1.9 5 3.3zm-10.4-11.2c2.2-.3 4.4-.7 6.6-.9 1.4-.1 3 1 3.3 2.1.4 1.2-.2 2.7-1.8 3.6-1.4.8-2.9 1.3-4.4 1.8-1.1.4-2.3.6-3.4.8-.5-2.1-.9-4.1-1.3-6.1 0-.5.1-1.1 1-1.3zM377.8 281.8c.4 2.2.9 4.4 1.4 6.7 1.1-.8 1.2-1.5.9-2.4-.5-2-.9-4-1.4-6.1 2.2-.2 4.1-.3 6.1-.5.3 2.1.5 4.1.8 6.2.1.4.2.8.4 1.5 1.6-1.9.7-3.4.5-4.8-.6-4.4-1.5-8.8-2.3-13.1-.2-1.1-.6-1.2-1.5-.4.6 3 1.2 6 1.9 9.2-2 .2-3.8.4-5.5.5-.3 0-.8-.5-.8-.8-.4-2.3-.6-4.6-.9-6.9-.1-.4-.7-1-1-1-1 .2-.6.9-.5 1.5.7 3.5 1.3 7 1.9 10.4zM367.4 290.2c1.5-2.3.4-4.8 1-7 1-.3 1.8-.6 2.6-.8.4-.1 1.1.1 1.2.4.5 1.5.8 3.1 1.2 4.6.2.7.5 1.4.8 2.1.2 0 .4 0 .5-.1.2-.6.6-1.3.5-1.8-.4-1.6-1-3.2-1.5-4.8-.6-1.7-1.2-3.5-1.9-5.2-.8-1.9-1.6-3.7-2.4-5.5-.1-.2-.7-.5-.9-.4-.3.1-.7.6-.7.9-.1.8-.1 1.6-.1 2.4-.3 4.6-.6 9.3-.9 13.9 0 .4 0 .7.1 1.1.1.2.3.2.5.2zm1.5-15.5c.1 0 .2 0 .3-.1.7 2.1 1.4 4.1 2.2 6.3-1.1.2-2 .4-3 .6.2-2.3.3-4.6.5-6.8zM357.5 291.6c.1.8.3 1.2 1.3 1 1.6-.3 3.2-.5 4.7-.9.6-.1 1.1-.7 1.6-1-.1-.2-.2-.3-.3-.5-1.6.2-3.3.5-4.9.8-.7.1-1 .1-1.1-.7-.6-4.7-1.4-9.4-2.1-14 0-.3-.4-.4-.6-.6-.2.3-.4.5-.5.8-.1.2 0 .4.1.6.6 4.7 1.2 9.6 1.8 14.5zM504.7 229.5c.9.8 1.8 1.7 2.6 2.6.9 1 1.7 2.1 2.6 3.2.3.3.5.5.9 0 .2-.3.4-.5.6-.8.8-.9 1.6-1.9 1.9-3.2.2-1 0-1.8-.8-2.2-.7-.3-1.5-.3-2.2-.4l.3-1.5c.1-.9-.2-1.6-.8-2-.7-.5-1.5-.5-2.2 0-1 .8-1.9 1.5-2.8 2.4-1.2 1-1.2 1-.1 1.9zm7.8.2c.2.2.3.6.3.9 0 .5-.1 1.1-.4 1.5-.5.8-1.2 1.5-1.8 2.3-.1.1-.5.1-.6 0-.8-.8-1.5-1.7-2.2-2.6.6-.7 1.1-1.4 1.6-2 .5-.6 2.6-.6 3.1-.1zm-7.6-1.8c.8-.8 1.7-1.6 2.5-2.3.5-.5 1.6-.4 2-.1.5.4.7 1.2.3 2-.3.7-.9 1.4-1.3 2-.4.5-.8.9-1.2 1.3-.8-.8-1.5-1.5-2.3-2.2-.2 0-.3-.3 0-.7zM516.5 215.5c1.3 1.3 2.5 2.6 3.8 3.9.8.8 1.6 1.6 2.5 2.4.2-.7.1-1-.3-1.3-.8-.7-1.5-1.4-2.3-2.2.9-.7 1.6-1.3 2.4-2l2.1 2.4c.1.2.3.3.6.5.1-1.2-.7-1.6-1.1-2.1-1.5-1.7-3.1-3.3-4.7-4.9-.4-.4-.6-.3-.8.3 1.1 1.1 2.2 2.2 3.4 3.3-.8.7-1.5 1.3-2.2 1.8-.1.1-.5 0-.6-.1-.8-.9-1.6-1.8-2.4-2.6-.1-.2-.6-.2-.7-.1-.2.3.1.5.3.7zM514.1 219.5c1.2 2 2.4 4.1 3.6 6.1.1.2.2.3.3.4.1-.1.2-.1.2-.2 0-1.4-1.2-2.1-1.6-3.2.3-.4.6-.8.9-1.1.1-.1.5-.3.6-.2.6.5 1.2 1.1 1.9 1.6l.9.6.2-.2c-.1-.3-.1-.7-.3-.9-.6-.6-1.3-1.1-2-1.6-.8-.6-1.5-1.1-2.3-1.6-.9-.6-1.7-1.1-2.6-1.6-.1-.1-.4 0-.5.1-.1.2-.1.4 0 .6.2.5.5.8.7 1.2zm.5-.7c.9.7 1.8 1.3 2.7 2l-1.1 1.1c-.5-1-1.1-2-1.6-3.1-.1.1 0 0 0 0zM509.6 223.7c1.7 1.9 3.3 3.7 5 5.6.3.3.5.4.8.1.6-.6 1.2-1.1 1.7-1.7.2-.2.3-.6.4-.9-.1 0-.2-.1-.3-.1-.6.6-1.2 1.1-1.8 1.7-.3.3-.4.3-.7 0-1.6-1.8-3.3-3.5-4.9-5.3-.1-.1-.3-.1-.4-.1v.5l.2.2zM419.3 296.2c.6.2 1.1.4 1.7.6 2 .9 4 1.8 6.4 1.5 1.8-.2 3.1-.9 3.2-2.5.1-1.3-.3-2.6-.4-4 .8-.1 1.8-.1 2.8-.3 1.5-.3 2.5-1.2 3-2.5.5-1.4.2-2.8-1.2-3.7-1.8-1.2-3.6-2.4-5.5-3.4-2.5-1.3-2.5-1.2-3.5 1.1-.9 2-1.9 3.9-3 5.7-1.2 2.1-2.7 4-4 6-.4.7-.5 1.2.5 1.5zm7.8-13.1c.3-.5.7-.9 1.4-.5 1.7 1 3.5 2 5.2 3 1.1.7 1.6 2.4 1.2 3.4-.4 1.1-1.7 1.8-3.3 1.5-1.4-.2-2.8-.7-4.1-1.2-1-.4-1.9-.9-2.8-1.3.8-1.7 1.5-3.3 2.4-4.9zm-6.6 11.4c1-1.7 2.1-3.4 3.2-5.1 1.5.6 2.8 1.1 4.2 1.7 1.1.5 2.3 4 1.6 5.1-.2.4-.8.9-1.3 1-.9.2-1.9.3-2.7.1-1.6-.5-3.2-1.2-4.8-1.8-.1-.1-.3-.7-.2-1zM450.3 308.4c.7-1.7 1.6-3.3 2.5-5.1 1.6 1.1 3 2 4.6 3.1-1 1.6-2 3.2-2.9 4.8-.2.3-.3.7-.5 1.3 2.2-.4 2.4-2 3-3.1 2.1-3.4 3.8-7 5.7-10.5.5-.9.2-1.2-.9-1.1-1.3 2.5-2.5 4.9-3.8 7.5-1.5-1-2.9-1.8-4.2-2.7-.2-.2-.3-.8-.1-1 1-1.8 2.2-3.6 3.2-5.4.2-.3.1-1.1-.1-1.2-.8-.4-.9.3-1.2.8-1.5 2.8-3.1 5.6-4.5 8.4-.9 1.8-1.8 3.6-2.7 5.5 1.2-.1 1.6-.6 1.9-1.3zM438.7 303.8c.1.1.3.2.4.3 2.3-.8 2.9-3.2 4.6-4.4.8.3 1.6.5 2.3.9.3.2.7.7.6.9-.5 1.3-1.2 2.6-1.7 4-.3.6-.4 1.3-.6 1.9.1.1.3.2.4.3.5-.3 1.2-.5 1.4-1 .6-1.4 1.1-2.8 1.6-4.2.5-1.6 1.1-3.1 1.5-4.7.5-1.7 1-3.5 1.4-5.2.1-.2-.2-.7-.4-.7-.3-.1-.8 0-1 .2-.5.5-.9 1.1-1.4 1.6l-8.4 9.3c-.4.2-.6.5-.7.8zm10.1-9.8c.1 0 .1.1.2.1-.6 1.8-1.3 3.7-2 5.7-.9-.5-1.6-.8-2.4-1.2 1.4-1.6 2.8-3.1 4.2-4.6zM431.6 301c1.3.7 2.5 1.4 3.8 2 .5.2 1.2.1 1.7.2 0-.2.1-.3.1-.5-1.3-.7-2.6-1.5-3.9-2.2-.6-.3-.8-.5-.4-1.1 2.2-3.7 4.3-7.4 6.3-11.1.1-.2 0-.5-.1-.8-.3.1-.6.1-.8.3-.2.1-.2.3-.3.5-2.3 3.8-4.6 7.6-6.9 11.3-.2.6-.2 1 .5 1.4zM476.4 275.9c.2 1.1.2 2.3.3 3.4 0 .3.1.6.6.4.3-.1.5-.2.8-.3 1-.3 2-.5 2.9-1.4.6-.6.9-1.3.5-1.9-.4-.5-.9-.9-1.4-1.4l.9-.9c.5-.6.6-1.2.4-1.8-.2-.7-.8-1.1-1.5-1-1 .1-2.1.2-3.1.4-1.3.3-1.3.3-1 1.4.3 1 .5 2.1.6 3.1zm4.8.8c0 .2 0 .6-.2.8-.3.3-.6.7-1 .8-.8.3-1.5.5-2.3.7-.1 0-.4-.2-.4-.3-.1-.9-.2-1.9-.3-2.9l2.1-.6c.5-.1 2 .9 2.1 1.5zm-4.5-4.8c1-.1 1.9-.3 2.9-.4.6-.1 1.3.4 1.4.9.2.5-.1 1.2-.8 1.6-.6.3-1.3.6-1.9.8-.5.2-1 .2-1.5.4-.2-.9-.4-1.8-.6-2.6.1-.4.1-.7.5-.7zM491.6 273.1c.2.9.4 1.9.6 2.9.5-.4.5-.7.4-1-.2-.9-.4-1.7-.6-2.6.9-.1 1.7-.1 2.6-.2l.3 2.7c0 .2.1.4.2.6.7-.8.3-1.5.2-2-.3-1.9-.7-3.8-1-5.6-.1-.5-.3-.5-.7-.2.3 1.3.5 2.6.8 3.9-.9.1-1.6.2-2.4.2-.1 0-.3-.2-.4-.4-.2-1-.3-2-.4-3 0-.2-.3-.4-.4-.4-.4.1-.3.4-.2.6.4 1.5.7 3.1 1 4.5zM487.1 276.8c.7-1 .2-2.1.4-3 .4-.1.8-.3 1.1-.3.2 0 .5.1.5.2.2.7.4 1.3.5 2l.3.9h.2c.1-.3.3-.6.2-.8-.2-.7-.4-1.4-.7-2.1-.3-.7-.5-1.5-.8-2.2-.3-.8-.7-1.6-1.1-2.4 0-.1-.3-.2-.4-.1-.1.1-.3.3-.3.4-.1.3 0 .7 0 1l-.3 6v.5c.2-.1.3-.1.4-.1zm.6-6.7h.1c.3.9.6 1.8 1 2.7-.5.1-.8.2-1.3.3.1-1.1.1-2 .2-3zM482.8 277.4c0 .4.1.5.5.4.7-.1 1.4-.2 2-.4.2-.1.5-.3.7-.5 0-.1-.1-.1-.1-.2l-2.1.3c-.3.1-.4.1-.5-.3l-.9-6c0-.1-.2-.2-.3-.3-.1.1-.2.2-.2.4v.3c.4 2.1.7 4.2.9 6.3z" fill="#000"/></g></svg>