<svg width="509" height="318" viewBox="0 0 509 318" xmlns="http://www.w3.org/2000/svg"><title>Slice 1</title><g fill="none" fill-rule="evenodd"><path d="M0 0h.96c-.02 106-.01 212 0 318H0V0z" fill="#FFF"/><path d="M.96 0H509v318H.96C.95 212 .94 106 .96 0z" fill="#3E98D4"/><path d="M6.86 6.48c165.3.02 330.59.03 495.88-.01.03 73.83-.01 147.66.02 221.5-165.33.06-330.66.03-495.99.01.02-73.83-.16-147.67.09-221.5z" fill="#FFF"/><path d="M45.12 51.1c4.74-10.08 17.71-15.06 28.1-11.32 3.86 1.15 6.75 4.09 9.14 7.19a466.93 466.93 0 0 1-8.93 7.02c-3.24-2.79-7.36-5.89-11.9-4.39-3.72.64-6.44 5.38-3.66 8.5 4.73 5.39 12.44 7.42 16.41 13.6 3.16 4.74 2.17 11.17-.87 15.72-6.29 9.38-19.79 12.93-29.96 8.15-3.79-1.64-5.75-5.43-7.62-8.87 3.21-2.1 6.54-3.99 9.89-5.86 2.39 2.88 5.15 6.24 9.28 6.16 4.29.36 10.14-3.95 7.87-8.6-3.46-4.79-9.45-6.66-13.75-10.54-5.05-3.81-6.66-11.07-4-16.76zM89.53 44.71c3.42-2.2 6.88-4.33 10.41-6.34 1.09 1.53 2.15 3.08 3.2 4.64 3.89-2.37 8.17-4.51 12.86-4.31 6.25-.18 12.72 3.11 15.47 8.88 2.51 5.1 1.44 10.97.44 16.32-1.23 5.62-2.31 11.31-4.19 16.76-3.69 9.97-13.95 17.26-24.63 17.13-3.04.05-5.74-1.51-8.39-2.82-.88 4.33-1.74 8.67-2.74 12.98-4.4 1.02-8.82 1.97-13.24 2.9 3.03-14.89 6.4-29.72 9.57-44.59 1.41-7.07 4.29-14.47 1.24-21.55zM143.39 44.45c3.12-2.26 6.59-4 9.89-5.97 1.25 1.41 2.47 2.84 3.65 4.3 5.36-3.7 12.03-5.23 18.39-3.48-1.65 3.6-3.55 7.09-5.45 10.57-3.12.06-6.68-.46-9.24 1.74-3.44 2.52-4.17 6.96-5.2 10.82-2.88 11.69-5.12 23.53-7.64 35.3-4.26.02-8.51.02-12.76.01 2.99-14.27 6.15-28.51 9.06-42.8 1.02-3.54-.89-7.01-.7-10.49zM180.82 47.83c5.91-6.75 15.25-10.39 24.17-9.01 5.68.63 11.76 3.89 13.32 9.77 2.34 9.4-3.2 20-12.32 23.39-6.97 2.95-14.73 2.89-22.17 2.57-.43 3.98-1 9.21 3.1 11.54 5.87 2.81 12.26-.58 17.07-4 1.57 2.37 3.14 4.74 4.69 7.13-5.32 5.57-12.92 8.93-20.67 8.57-6.6.11-13.5-3.43-16.16-9.67-2.22-5.46-.65-11.46.21-17.04 1.72-8.07 2.98-16.91 8.76-23.25zM232.04 47.04c7.13-7.67 18.92-10.64 28.76-6.87 4.19 1.62 7.6 5.39 8.29 9.9 1.08 7.89-2.68 16.44-9.69 20.43-7.52 4.36-16.57 4.5-25.01 4-.63 4.08-1.11 9.57 3.32 11.73 5.88 2.7 11.99-1.04 16.9-4.12 1.45 2.4 2.97 4.78 4.5 7.14-5.21 5.41-12.53 8.81-20.12 8.55-6.85.23-14.2-3.39-16.79-10-2.23-5.85-.38-12.15.58-18.06 1.78-7.95 3.11-16.77 9.26-22.7z" fill="#3E98D4"/><path d="M113.15 49.58c3.62-.16 7.15 2.64 7.22 6.39 0 5.07-1.46 10-2.44 14.95-1.19 5.54-2.46 12.22-8.17 14.89-4.19 2.5-10.96.68-11.33-4.8.28-7.6 2.43-15.04 4.3-22.38 1.1-4.83 5.34-8.95 10.42-9.05zM191.85 51.85c3.48-2.99 9.47-4.22 13.04-.76 2.91 3.71.59 9.48-3.32 11.48-4.82 2.41-10.41 1.74-15.61 1.63 1.29-4.35 2.07-9.39 5.89-12.35zM242.05 52.06c3.46-3.06 9.36-4.43 13.13-1.19 3.13 3.53.94 9.32-2.8 11.49-4.82 2.66-10.58 1.98-15.86 1.8 1.11-4.27 1.91-9.13 5.53-12.1z" fill="#FFF"/><path d="M455.26 129.23c3.27.03 6.54.02 9.82.02-.05.6-.14 1.82-.19 2.43l-3.83.54c-.76 3.84-1.62 7.65-2.36 11.49-.8.03-2.42.07-3.22.09.66-3.87 1.47-7.71 2.33-11.55-1.23-.21-2.44-.42-3.65-.63.36-.79.73-1.59 1.1-2.39zM467.08 129.21c1.32.01 2.65.03 3.99.04.28 3.15.53 6.3 1 9.44 1.82-3.07 3.4-6.27 5.03-9.44h4.31c-.94 4.78-2 9.52-2.9 14.3-.76.1-2.28.29-3.04.38.51-3.02 1.1-6.02 1.54-9.05-1.59 2.88-3.05 5.84-4.51 8.79-.96.05-1.91.1-2.86.16-.26-2.76-.47-5.51-.88-8.25-.72 2.7-1.3 5.43-1.9 8.15-.72.03-2.16.1-2.88.14.9-4.92 1.94-9.8 3.1-14.66zM41.62 146.65c3.6-10.63 14.98-18.62 26.32-16.78 4.57.64 8.21 3.85 10.54 7.68a736.36 736.36 0 0 1-6.36 4.61c-2.76-2.37-5.86-5.29-9.82-4.79-6.25.86-11.28 6.07-12.91 12.03-2.14 7.38-3.89 14.95-4.46 22.62-.49 4.68 3.65 8.7 8.18 8.9 5.11.46 9.2-3.14 12.87-6.16 1.76 1.39 3.52 2.78 5.27 4.19-3.37 3.84-7.41 7.31-12.39 8.8-6.31 2.03-14.1 1.24-18.8-3.8-3.44-3.61-4.31-8.87-3.64-13.66 1.01-8.01 2.71-15.96 5.2-23.64zM100.38 130.45c8.67-2.98 20.22 1.27 22.05 10.96 1.19 9.48-1.94 18.83-4.14 27.95-2.16 9.43-10.21 17.18-19.71 18.98-5.57 1.11-11.9.23-16.17-3.77-3.39-3.17-5.06-7.97-4.6-12.56.69-7.99 2.46-15.86 4.66-23.56 2.44-8.51 9.4-15.54 17.91-18zM134.73 133.62c2.39-1.35 4.79-2.68 7.19-4.01a154.5 154.5 0 0 1 3.04 5.86c4.09-3.6 9.34-6.83 15.03-5.66 4.38.42 7.37 3.9 9.74 7.25 3.11-3.25 6.84-6.15 11.36-7.02 5.11-1.21 11.18 0 14.43 4.41 3.74 4.85 3.56 11.44 2.37 17.15-2.57 12.39-5.25 24.77-7.92 37.14-2.91.01-5.82.01-8.73.02 2.59-12.53 5.37-25.02 7.95-37.55.65-4.09 1.53-9.35-2.03-12.39-4.71-3.26-11.38-.23-13.74 4.56-2.18 4.39-2.83 9.33-4.02 14.04-2.2 10.44-4.46 20.87-6.67 31.31-2.92.02-5.83.02-8.74.04 2.51-12.35 5.22-24.67 7.84-36.99.67-4.07 1.56-8.91-1.27-12.38-2.53-2.7-6.84-2.23-9.87-.69-3.6 1.91-5.54 5.82-6.43 9.65-3.35 13.35-5.94 26.88-8.77 40.34-2.91.04-5.82.04-8.72.05 2.05-10.72 4.48-21.36 6.71-32.05 1.47-7.57 4.48-15.51 1.25-23.08zM210.81 133.61c2.35-1.37 4.74-2.66 7.13-3.95 1.08 1.87 2.1 3.77 3.09 5.7 4.18-3.41 9.28-6.74 14.95-5.58 4.41.38 7.45 3.87 9.76 7.3 3.3-3.49 7.43-6.45 12.29-7.22 5.11-1.03 10.97.69 13.97 5.14 3.21 4.68 3.13 10.73 2.01 16.07-2.52 12.56-5.32 25.07-7.92 37.62-2.94.05-5.87.05-8.81.07 2.66-12.5 5.34-24.99 7.97-37.5.7-4.34 1.48-10.1-2.71-12.97-4.06-2-9.28-.21-11.92 3.32-2.77 3.62-3.33 8.29-4.43 12.59-2.51 11.5-4.96 23.01-7.4 34.53-2.92.01-5.85.01-8.77.03 2.6-12.59 5.41-25.14 7.98-37.74.5-3.61 1.25-7.8-.92-11.02-2.53-3.54-7.76-2.96-11.04-.87-3.51 2.14-5.01 6.22-5.93 10.03-3.22 13.09-5.79 26.33-8.6 39.52-2.91.06-5.83.08-8.74.09 2.86-14.07 5.96-28.09 8.93-42.14 1.23-4.34.58-8.83-.89-13.02zM285.43 147.4c3.32-10.69 14.25-18.86 25.6-17.73 5.88.24 12.18 3.6 13.72 9.64 1.85 7.76-1.82 16.66-8.77 20.68-7.81 4.52-17.15 4.33-25.88 4.28-.52 4.08-2.05 8.6.21 12.43 1.78 3.44 5.98 4.9 9.66 4.18 4.92-.54 8.71-3.98 12.21-7.16 1.81 1.09 3.62 2.2 5.41 3.32-5.53 8.34-16.02 13.59-25.99 11.18-6.83-1.51-11.74-8.29-11.29-15.23.67-8.69 2.59-17.27 5.12-25.59zM336.03 133.4c2.38-1.23 4.76-2.49 7.14-3.74 1.09 1.68 2.14 3.38 3.16 5.1 5.64-4.44 13.04-6.29 20.07-4.47-1.3 2.77-2.76 5.47-4.27 8.14-6.74-2.38-14.17 1.89-15.99 8.67-3.96 13.67-6.25 27.75-9.35 41.63-2.93.01-5.85.02-8.78.05 2.95-14.33 6.09-28.61 9.09-42.92 1.11-4.18.04-8.41-1.07-12.46zM376.71 133.68c5.78-3.92 13.66-5.56 20.18-2.53 2.91 1.28 4.82 3.91 6.58 6.43a350.89 350.89 0 0 1-6.37 4.54c-2.78-2.37-5.91-5.24-9.86-4.75-6.24.88-11.22 6.11-12.85 12.05-2.15 7.37-3.87 14.94-4.48 22.61-.43 4.65 3.62 8.77 8.2 8.89 5.11.47 9.15-3.16 12.84-6.15 1.76 1.37 3.52 2.74 5.27 4.13-6.23 8.22-18.29 12.98-27.83 7.67-4.77-2.6-7.47-8.17-7.14-13.51.41-7.97 2.4-15.75 4.4-23.43 1.63-6.42 5.48-12.3 11.06-15.95zM408.4 147.35c3.33-10.68 14.29-18.84 25.64-17.67 5.58.29 11.6 3.25 13.43 8.89 2.55 8.39-1.93 18.27-9.79 22.1-7.57 3.86-16.31 3.63-24.59 3.58-1.1 5.23-2.45 12.32 3.13 15.53 6.79 3.62 14.17-1.2 18.85-6.08 1.83 1.08 3.65 2.18 5.46 3.31-5.73 8.79-17.15 14.15-27.42 10.78-6.46-2.08-10.54-9.03-9.8-15.68.83-8.39 2.63-16.69 5.09-24.76z" fill="#84C041"/><path d="M298.18 141.18c4.18-4.02 11.4-5.44 16.11-1.53 4.11 4.51 1.43 12.33-3.66 14.92-5.81 3.03-12.6 2.03-18.89 2.17 1.29-5.44 1.96-11.66 6.44-15.56zM420.67 141.67c3.97-4.16 11.08-6.07 15.98-2.41 4.86 3.95 2.33 11.99-2.42 14.94-5.87 3.48-12.99 2.4-19.49 2.53 1.12-5.26 1.9-11.11 5.93-15.06zM100.42 138.35c5.67-3.05 13.87.89 13.79 7.65-.28 7.52-2.34 14.86-4.1 22.14-1.42 6.66-7.13 12.6-14.14 12.89-4.94.36-9.81-3.89-9.48-8.97.33-7.05 2.06-13.94 3.79-20.75 1.1-5.61 4.76-10.78 10.14-12.96zM38.48 259.26c4.39.1 9.01-.58 13.21 1.08 5.43 2.43 5.02 11.59-.37 13.85-2.6 1.17-5.53 1-8.3 1.21-.01 3.15-.04 6.29-.12 9.44-1.47-.05-2.94-.09-4.42-.13.02-8.48.03-16.97 0-25.45zM67.26 259.24c5.02.27 10.87-1.02 15.14 2.3 3.73 3.89 1.48 9.85-2.58 12.51 2.26 3.53 4.54 7.06 6.61 10.71-1.68-.02-3.35-.05-5.02-.1-1.89-3.16-3.47-6.55-5.86-9.36-1.21-.38-2.44-.69-3.68-.92-.11 3.46-.14 6.93-.16 10.39-1.48 0-2.95-.01-4.43-.01-.05-8.51-.01-17.02-.02-25.52zM97.03 259.23c4.84.02 9.67.01 14.51.04.01 1.21.03 2.42.06 3.63-3.47.07-6.93.12-10.39.17.02 2.21.03 4.42.03 6.64l9.53.09c.01.85.01 2.55.01 3.4-3.18.03-6.35.05-9.52.08-.01 2.55-.02 5.1-.05 7.66 3.46.04 6.93.09 10.39.16-.02 1.2-.04 2.41-.05 3.62-4.84.02-9.68.02-14.52.05-.05-8.52-.04-17.03 0-25.54zM123.83 259.21c1.97.03 3.94.05 5.92.05 2.38 6.48 4.35 13.11 6.96 19.51 2.59-6.28 4.44-12.83 7.09-19.08 1.98-.55 4.06-.49 6.09-.64.21 8.58.1 17.17.07 25.76-1.39-.03-2.77-.04-4.16-.06-.12-6.43.07-12.87-.19-19.3-2.6 6.33-4.77 12.83-7.1 19.27-1.33 0-2.66 0-3.99.01-2.29-6.67-4.47-13.38-6.98-19.97.25 6.66.24 13.33.2 19.99-1-.01-3-.04-4-.06.05-8.49-.07-16.98.09-25.48zM163.27 259.23h4.46c.04 8.52.03 17.03 0 25.55-1.49-.01-2.97-.02-4.46-.02-.03-8.51-.04-17.02 0-25.53zM181.05 259.19l4.15.06c.1 4.94-.03 9.89.05 14.83.1 2.26.2 5.05 2.31 6.44 2.99 1.6 8.22 1.06 8.93-2.92.65-6.09.07-12.25.3-18.37 1.47 0 2.94 0 4.42.01-.1 6.23.43 12.5-.24 18.71-1.41 9.64-18.61 9.71-19.79-.08-.48-6.21-.07-12.46-.13-18.68zM214.6 259.15c1.99.07 3.98.13 5.97.19 2.25 6.45 4.2 13.03 6.93 19.31 2.45-6.41 4.76-12.87 7-19.35l6.22-.09c.07 8.51 0 17.03.05 25.55-1.4.01-2.8.03-4.19.05-.16-6.67-.04-13.33-.08-19.99-2.6 6.64-4.79 13.43-7.49 20.03-1.22-.05-2.44-.09-3.65-.12-2.44-6.63-4.56-13.36-7.06-19.96.22 6.67.25 13.35.16 20.03h-3.92c-.03-8.55-.15-17.1.06-25.65zM270.25 259.24c4.42.15 9.12-.61 13.3 1.17 5.35 2.52 4.83 11.4-.4 13.76-2.61 1.18-5.55 1.04-8.34 1.27-.05 3.11-.07 6.23-.12 9.35l-4.41-.03c-.06-8.51-.03-17.01-.03-25.52zM305.22 259.22h4.61c3.29 8.47 6.54 16.97 9.47 25.58-1.54-.06-3.08-.11-4.61-.19-.83-2.3-1.7-4.59-2.58-6.86-3.07 0-6.14 0-9.2-.01-.86 2.29-1.72 4.59-2.54 6.9-1.51.07-3.02.13-4.53.19 2.81-8.65 6.23-17.09 9.38-25.61zM329.47 259.26c4.4.1 9.02-.57 13.22 1.08 3.57 1.43 4.62 6.07 3.17 9.36-.96 1.71-2.56 2.92-3.93 4.27 2.28 3.57 4.58 7.13 6.7 10.8-1.63-.03-3.29.05-4.87-.38-2.34-2.93-4-6.32-5.91-9.52-1.35-.06-2.7-.11-4.04-.16-.04 3.36-.07 6.72-.12 10.08-1.4-.02-2.81-.04-4.2-.05 0-8.49.02-16.99-.02-25.48zM356.26 259.26c6.42-.02 12.85-.02 19.28.01.01 1.2.02 2.4.05 3.61-2.53.08-5.06.12-7.59.18-.01 7.25.03 14.49-.04 21.74-1.39-.02-2.77-.04-4.15-.05-.1-7.22-.08-14.45-.03-21.67-2.54-.07-5.08-.12-7.62-.2.03-1.21.06-2.41.1-3.62zM386.3 259.17c1.7.06 3.41.11 5.12.17 3.99 6.2 7.48 12.72 11.9 18.64.09-6.26-.19-12.51-.03-18.77 1.4.01 2.8.03 4.21.05v25.5c-1.77-.01-3.53 0-5.29.02-4.21-6.33-7.9-13.01-12.18-19.3.16 6.43.33 12.85.15 19.28-1.32 0-2.62.01-3.93.01.03-8.53-.06-17.06.05-25.6zM420.8 259.25h14.38c.03 1.23.07 2.46.11 3.7-3.36.03-6.72.06-10.07.11.01 2.21.02 4.43.02 6.65l9.54.09v3.4c-3.18.03-6.36.05-9.54.08 0 2.56 0 5.11-.02 7.67 3.35.04 6.71.07 10.06.1-.03 1.23-.07 2.47-.1 3.71-4.79-.02-9.59-.02-14.38-.01-.09-8.5-.08-17 0-25.5zM447.47 259.25c4.41.12 9.03-.54 13.28.98 3.64 1.43 4.64 6.14 3.2 9.47-.94 1.71-2.47 2.97-3.81 4.33 2.25 3.61 4.56 7.19 6.75 10.84l-5.23-.27c-1.87-3.3-3.84-6.54-5.77-9.8-1.29-.03-2.57-.06-3.84-.08-.04 3.37-.07 6.75-.14 10.12-1.49-.05-2.96-.09-4.44-.14.03-8.48.05-16.97 0-25.45z" fill="#FFF"/><path d="M43.04 262.77c2.07.26 4.25.17 6.2 1.02 2.59 1.52 2.35 6.1-.54 7.17-1.83.55-3.77.54-5.66.71-.04-2.97-.04-5.93 0-8.9zM71.78 262.75c2.14.29 4.41.2 6.4 1.14 2.45 1.45 1.99 5.65-.68 6.57-1.85.55-3.81.56-5.71.77-.04-2.83-.04-5.65-.01-8.48zM274.79 262.75c2.13.29 4.39.2 6.38 1.13 2.44 1.61 1.96 5.66-.46 7.03-1.92.58-3.94.58-5.91.76-.05-2.97-.06-5.95-.01-8.92zM333.79 262.77c2.99.36 8.24-.12 8.22 4.22-.13 4.29-5.15 4.07-8.23 4.21-.03-2.81-.03-5.62.01-8.43zM452.04 262.77c2.91.36 8.14-.02 8.01 4.23.14 4.28-5.06 4.01-8.02 4.2-.03-2.81-.03-5.62.01-8.43zM304.13 273.99c1.08-3.24 2.18-6.48 3.43-9.66 1.24 3.19 2.41 6.42 3.53 9.66h-6.96z" fill="#3E98D4"/></g></svg>