<?xml version="1.0" encoding="UTF-8" standalone="no"?>
<svg width="509px" height="318px" viewBox="0 0 509 318" version="1.1" xmlns="http://www.w3.org/2000/svg" xmlns:xlink="http://www.w3.org/1999/xlink">
    <!-- Generator: Sketch 3.6.1 (26313) - http://www.bohemiancoding.com/sketch -->
    <title>Slice 1</title>
    <desc>Created with Sketch.</desc>
    <defs></defs>
    <g id="Page-1" stroke="none" stroke-width="1" fill="none" fill-rule="evenodd">
        <g id="spree-premium-partner-2">
            <path d="M0,0 L0.96,0 C0.94,106 0.95,212 0.96,318 L0,318 L0,0 L0,0 Z" id="Shape" fill="#FFFFFF"></path>
            <path d="M0.96,0 L509,0 L509,318 L0.96,318 C0.95,212 0.94,106 0.96,0 L0.96,0 Z" id="Shape" fill="#3E98D4"></path>
            <path d="M6.86,6.48 C172.16,6.5 337.45,6.51 502.74,6.47 C502.77,80.3 502.73,154.13 502.76,227.97 C337.43,228.03 172.1,228 6.77,227.98 C6.79,154.15 6.61,80.31 6.86,6.48 L6.86,6.48 Z" id="Shape" fill="#FFFFFF"></path>
            <path d="M45.12,51.1 C49.86,41.02 62.83,36.04 73.22,39.78 C77.08,40.93 79.97,43.87 82.36,46.97 C79.42,49.35 76.43,51.68 73.43,53.99 C70.19,51.2 66.07,48.1 61.53,49.6 C57.81,50.24 55.09,54.98 57.87,58.1 C62.6,63.49 70.31,65.52 74.28,71.7 C77.44,76.44 76.45,82.87 73.41,87.42 C67.12,96.8 53.62,100.35 43.45,95.57 C39.66,93.93 37.7,90.14 35.83,86.7 C39.04,84.6 42.37,82.71 45.72,80.84 C48.11,83.72 50.87,87.08 55,87 C59.29,87.36 65.14,83.05 62.87,78.4 C59.41,73.61 53.42,71.74 49.12,67.86 C44.07,64.05 42.46,56.79 45.12,51.1 L45.12,51.1 Z" id="Shape" fill="#3E98D4"></path>
            <path d="M89.53,44.71 C92.95,42.51 96.41,40.38 99.94,38.37 C101.03,39.9 102.09,41.45 103.14,43.01 C107.03,40.64 111.31,38.5 116,38.7 C122.25,38.52 128.72,41.81 131.47,47.58 C133.98,52.68 132.91,58.55 131.91,63.9 C130.68,69.52 129.6,75.21 127.72,80.66 C124.03,90.63 113.77,97.92 103.09,97.79 C100.05,97.84 97.35,96.28 94.7,94.97 C93.82,99.3 92.96,103.64 91.96,107.95 C87.56,108.97 83.14,109.92 78.72,110.85 C81.75,95.96 85.12,81.13 88.29,66.26 C89.7,59.19 92.58,51.79 89.53,44.71 L89.53,44.71 Z" id="Shape" fill="#3E98D4"></path>
            <path d="M143.39,44.45 C146.51,42.19 149.98,40.45 153.28,38.48 C154.53,39.89 155.75,41.32 156.93,42.78 C162.29,39.08 168.96,37.55 175.32,39.3 C173.67,42.9 171.77,46.39 169.87,49.87 C166.75,49.93 163.19,49.41 160.63,51.61 C157.19,54.13 156.46,58.57 155.43,62.43 C152.55,74.12 150.31,85.96 147.79,97.73 C143.53,97.75 139.28,97.75 135.03,97.74 C138.02,83.47 141.18,69.23 144.09,54.94 C145.11,51.4 143.2,47.93 143.39,44.45 L143.39,44.45 Z" id="Shape" fill="#3E98D4"></path>
            <path d="M180.82,47.83 C186.73,41.08 196.07,37.44 204.99,38.82 C210.67,39.45 216.75,42.71 218.31,48.59 C220.65,57.99 215.11,68.59 205.99,71.98 C199.02,74.93 191.26,74.87 183.82,74.55 C183.39,78.53 182.82,83.76 186.92,86.09 C192.79,88.9 199.18,85.51 203.99,82.09 C205.56,84.46 207.13,86.83 208.68,89.22 C203.36,94.79 195.76,98.15 188.01,97.79 C181.41,97.9 174.51,94.36 171.85,88.12 C169.63,82.66 171.2,76.66 172.06,71.08 C173.78,63.01 175.04,54.17 180.82,47.83 L180.82,47.83 Z" id="Shape" fill="#3E98D4"></path>
            <path d="M232.04,47.04 C239.17,39.37 250.96,36.4 260.8,40.17 C264.99,41.79 268.4,45.56 269.09,50.07 C270.17,57.96 266.41,66.51 259.4,70.5 C251.88,74.86 242.83,75 234.39,74.5 C233.76,78.58 233.28,84.07 237.71,86.23 C243.59,88.93 249.7,85.19 254.61,82.11 C256.06,84.51 257.58,86.89 259.11,89.25 C253.9,94.66 246.58,98.06 238.99,97.8 C232.14,98.03 224.79,94.41 222.2,87.8 C219.97,81.95 221.82,75.65 222.78,69.74 C224.56,61.79 225.89,52.97 232.04,47.04 L232.04,47.04 Z" id="Shape" fill="#3E98D4"></path>
            <path d="M113.15,49.58 C116.77,49.42 120.3,52.22 120.37,55.97 C120.37,61.04 118.91,65.97 117.93,70.92 C116.74,76.46 115.47,83.14 109.76,85.81 C105.57,88.31 98.8,86.49 98.43,81.01 C98.71,73.41 100.86,65.97 102.73,58.63 C103.83,53.8 108.07,49.68 113.15,49.58 L113.15,49.58 Z" id="Shape" fill="#FFFFFF"></path>
            <path d="M191.85,51.85 C195.33,48.86 201.32,47.63 204.89,51.09 C207.8,54.8 205.48,60.57 201.57,62.57 C196.75,64.98 191.16,64.31 185.96,64.2 C187.25,59.85 188.03,54.81 191.85,51.85 L191.85,51.85 Z" id="Shape" fill="#FFFFFF"></path>
            <path d="M242.05,52.06 C245.51,49 251.41,47.63 255.18,50.87 C258.31,54.4 256.12,60.19 252.38,62.36 C247.56,65.02 241.8,64.34 236.52,64.16 C237.63,59.89 238.43,55.03 242.05,52.06 L242.05,52.06 Z" id="Shape" fill="#FFFFFF"></path>
            <path d="M455.26,129.23 C458.53,129.26 461.8,129.25 465.08,129.25 C465.03,129.85 464.94,131.07 464.89,131.68 C463.61,131.86 462.33,132.04 461.06,132.22 C460.3,136.06 459.44,139.87 458.7,143.71 C457.9,143.74 456.28,143.78 455.48,143.8 C456.14,139.93 456.95,136.09 457.81,132.25 C456.58,132.04 455.37,131.83 454.16,131.62 C454.52,130.83 454.89,130.03 455.26,129.23 L455.26,129.23 Z" id="Shape" fill="#84C041"></path>
            <path d="M467.08,129.21 C468.4,129.22 469.73,129.24 471.07,129.25 C471.35,132.4 471.6,135.55 472.07,138.69 C473.89,135.62 475.47,132.42 477.1,129.25 L481.41,129.25 C480.47,134.03 479.41,138.77 478.51,143.55 C477.75,143.65 476.23,143.84 475.47,143.93 C475.98,140.91 476.57,137.91 477.01,134.88 C475.42,137.76 473.96,140.72 472.5,143.67 C471.54,143.72 470.59,143.77 469.64,143.83 C469.38,141.07 469.17,138.32 468.76,135.58 C468.04,138.28 467.46,141.01 466.86,143.73 C466.14,143.76 464.7,143.83 463.98,143.87 C464.88,138.95 465.92,134.07 467.08,129.21 L467.08,129.21 Z" id="Shape" fill="#84C041"></path>
            <path d="M41.62,146.65 C45.22,136.02 56.6,128.03 67.94,129.87 C72.51,130.51 76.15,133.72 78.48,137.55 C76.37,139.1 74.25,140.63 72.12,142.16 C69.36,139.79 66.26,136.87 62.3,137.37 C56.05,138.23 51.02,143.44 49.39,149.4 C47.25,156.78 45.5,164.35 44.93,172.02 C44.44,176.7 48.58,180.72 53.11,180.92 C58.22,181.38 62.31,177.78 65.98,174.76 C67.74,176.15 69.5,177.54 71.25,178.95 C67.88,182.79 63.84,186.26 58.86,187.75 C52.55,189.78 44.76,188.99 40.06,183.95 C36.62,180.34 35.75,175.08 36.42,170.29 C37.43,162.28 39.13,154.33 41.62,146.65 L41.62,146.65 Z" id="Shape" fill="#84C041"></path>
            <path d="M100.38,130.45 C109.05,127.47 120.6,131.72 122.43,141.41 C123.62,150.89 120.49,160.24 118.29,169.36 C116.13,178.79 108.08,186.54 98.58,188.34 C93.01,189.45 86.68,188.57 82.41,184.57 C79.02,181.4 77.35,176.6 77.81,172.01 C78.5,164.02 80.27,156.15 82.47,148.45 C84.91,139.94 91.87,132.91 100.38,130.45 L100.38,130.45 Z" id="Shape" fill="#84C041"></path>
            <path d="M134.73,133.62 C137.12,132.27 139.52,130.94 141.92,129.61 C142.98,131.54 143.98,133.49 144.96,135.47 C149.05,131.87 154.3,128.64 159.99,129.81 C164.37,130.23 167.36,133.71 169.73,137.06 C172.84,133.81 176.57,130.91 181.09,130.04 C186.2,128.83 192.27,130.04 195.52,134.45 C199.26,139.3 199.08,145.89 197.89,151.6 C195.32,163.99 192.64,176.37 189.97,188.74 C187.06,188.75 184.15,188.75 181.24,188.76 C183.83,176.23 186.61,163.74 189.19,151.21 C189.84,147.12 190.72,141.86 187.16,138.82 C182.45,135.56 175.78,138.59 173.42,143.38 C171.24,147.77 170.59,152.71 169.4,157.42 C167.2,167.86 164.94,178.29 162.73,188.73 C159.81,188.75 156.9,188.75 153.99,188.77 C156.5,176.42 159.21,164.1 161.83,151.78 C162.5,147.71 163.39,142.87 160.56,139.4 C158.03,136.7 153.72,137.17 150.69,138.71 C147.09,140.62 145.15,144.53 144.26,148.36 C140.91,161.71 138.32,175.24 135.49,188.7 C132.58,188.74 129.67,188.74 126.77,188.75 C128.82,178.03 131.25,167.39 133.48,156.7 C134.95,149.13 137.96,141.19 134.73,133.62 L134.73,133.62 Z" id="Shape" fill="#84C041"></path>
            <path d="M210.81,133.61 C213.16,132.24 215.55,130.95 217.94,129.66 C219.02,131.53 220.04,133.43 221.03,135.36 C225.21,131.95 230.31,128.62 235.98,129.78 C240.39,130.16 243.43,133.65 245.74,137.08 C249.04,133.59 253.17,130.63 258.03,129.86 C263.14,128.83 269,130.55 272,135 C275.21,139.68 275.13,145.73 274.01,151.07 C271.49,163.63 268.69,176.14 266.09,188.69 C263.15,188.74 260.22,188.74 257.28,188.76 C259.94,176.26 262.62,163.77 265.25,151.26 C265.95,146.92 266.73,141.16 262.54,138.29 C258.48,136.29 253.26,138.08 250.62,141.61 C247.85,145.23 247.29,149.9 246.19,154.2 C243.68,165.7 241.23,177.21 238.79,188.73 C235.87,188.74 232.94,188.74 230.02,188.76 C232.62,176.17 235.43,163.62 238,151.02 C238.5,147.41 239.25,143.22 237.08,140 C234.55,136.46 229.32,137.04 226.04,139.13 C222.53,141.27 221.03,145.35 220.11,149.16 C216.89,162.25 214.32,175.49 211.51,188.68 C208.6,188.74 205.68,188.76 202.77,188.77 C205.63,174.7 208.73,160.68 211.7,146.63 C212.93,142.29 212.28,137.8 210.81,133.61 L210.81,133.61 Z" id="Shape" fill="#84C041"></path>
            <path d="M285.43,147.4 C288.75,136.71 299.68,128.54 311.03,129.67 C316.91,129.91 323.21,133.27 324.75,139.31 C326.6,147.07 322.93,155.97 315.98,159.99 C308.17,164.51 298.83,164.32 290.1,164.27 C289.58,168.35 288.05,172.87 290.31,176.7 C292.09,180.14 296.29,181.6 299.97,180.88 C304.89,180.34 308.68,176.9 312.18,173.72 C313.99,174.81 315.8,175.92 317.59,177.04 C312.06,185.38 301.57,190.63 291.6,188.22 C284.77,186.71 279.86,179.93 280.31,172.99 C280.98,164.3 282.9,155.72 285.43,147.4 L285.43,147.4 Z" id="Shape" fill="#84C041"></path>
            <path d="M336.03,133.4 C338.41,132.17 340.79,130.91 343.17,129.66 C344.26,131.34 345.31,133.04 346.33,134.76 C351.97,130.32 359.37,128.47 366.4,130.29 C365.1,133.06 363.64,135.76 362.13,138.43 C355.39,136.05 347.96,140.32 346.14,147.1 C342.18,160.77 339.89,174.85 336.79,188.73 C333.86,188.74 330.94,188.75 328.01,188.78 C330.96,174.45 334.1,160.17 337.1,145.86 C338.21,141.68 337.14,137.45 336.03,133.4 L336.03,133.4 Z" id="Shape" fill="#84C041"></path>
            <path d="M376.71,133.68 C382.49,129.76 390.37,128.12 396.89,131.15 C399.8,132.43 401.71,135.06 403.47,137.58 C401.36,139.12 399.24,140.63 397.1,142.12 C394.32,139.75 391.19,136.88 387.24,137.37 C381,138.25 376.02,143.48 374.39,149.42 C372.24,156.79 370.52,164.36 369.91,172.03 C369.48,176.68 373.53,180.8 378.11,180.92 C383.22,181.39 387.26,177.76 390.95,174.77 C392.71,176.14 394.47,177.51 396.22,178.9 C389.99,187.12 377.93,191.88 368.39,186.57 C363.62,183.97 360.92,178.4 361.25,173.06 C361.66,165.09 363.65,157.31 365.65,149.63 C367.28,143.21 371.13,137.33 376.71,133.68 L376.71,133.68 Z" id="Shape" fill="#84C041"></path>
            <path d="M408.4,147.35 C411.73,136.67 422.69,128.51 434.04,129.68 C439.62,129.97 445.64,132.93 447.47,138.57 C450.02,146.96 445.54,156.84 437.68,160.67 C430.11,164.53 421.37,164.3 413.09,164.25 C411.99,169.48 410.64,176.57 416.22,179.78 C423.01,183.4 430.39,178.58 435.07,173.7 C436.9,174.78 438.72,175.88 440.53,177.01 C434.8,185.8 423.38,191.16 413.11,187.79 C406.65,185.71 402.57,178.76 403.31,172.11 C404.14,163.72 405.94,155.42 408.4,147.35 L408.4,147.35 Z" id="Shape" fill="#84C041"></path>
            <path d="M298.18,141.18 C302.36,137.16 309.58,135.74 314.29,139.65 C318.4,144.16 315.72,151.98 310.63,154.57 C304.82,157.6 298.03,156.6 291.74,156.74 C293.03,151.3 293.7,145.08 298.18,141.18 L298.18,141.18 Z" id="Shape" fill="#FFFFFF"></path>
            <path d="M420.67,141.67 C424.64,137.51 431.75,135.6 436.65,139.26 C441.51,143.21 438.98,151.25 434.23,154.2 C428.36,157.68 421.24,156.6 414.74,156.73 C415.86,151.47 416.64,145.62 420.67,141.67 L420.67,141.67 Z" id="Shape" fill="#FFFFFF"></path>
            <path d="M100.42,138.35 C106.09,135.3 114.29,139.24 114.21,146 C113.93,153.52 111.87,160.86 110.11,168.14 C108.69,174.8 102.98,180.74 95.97,181.03 C91.03,181.39 86.16,177.14 86.49,172.06 C86.82,165.01 88.55,158.12 90.28,151.31 C91.38,145.7 95.04,140.53 100.42,138.35 L100.42,138.35 Z" id="Shape" fill="#FFFFFF"></path>
            <path d="M38.48,259.26 C42.87,259.36 47.49,258.68 51.69,260.34 C57.12,262.77 56.71,271.93 51.32,274.19 C48.72,275.36 45.79,275.19 43.02,275.4 C43.01,278.55 42.98,281.69 42.9,284.84 C41.43,284.79 39.96,284.75 38.48,284.71 C38.5,276.23 38.51,267.74 38.48,259.26 L38.48,259.26 Z" id="Shape" fill="#FFFFFF"></path>
            <path d="M67.26,259.24 C72.28,259.51 78.13,258.22 82.4,261.54 C86.13,265.43 83.88,271.39 79.82,274.05 C82.08,277.58 84.36,281.11 86.43,284.76 C84.75,284.74 83.08,284.71 81.41,284.66 C79.52,281.5 77.94,278.11 75.55,275.3 C74.34,274.92 73.11,274.61 71.87,274.38 C71.76,277.84 71.73,281.31 71.71,284.77 C70.23,284.77 68.76,284.76 67.28,284.76 C67.23,276.25 67.27,267.74 67.26,259.24 L67.26,259.24 Z" id="Shape" fill="#FFFFFF"></path>
            <path d="M97.03,259.23 C101.87,259.25 106.7,259.24 111.54,259.27 C111.55,260.48 111.57,261.69 111.6,262.9 C108.13,262.97 104.67,263.02 101.21,263.07 C101.23,265.28 101.24,267.49 101.24,269.71 C104.42,269.74 107.6,269.77 110.77,269.8 C110.78,270.65 110.78,272.35 110.78,273.2 C107.6,273.23 104.43,273.25 101.26,273.28 C101.25,275.83 101.24,278.38 101.21,280.94 C104.67,280.98 108.14,281.03 111.6,281.1 C111.58,282.3 111.56,283.51 111.55,284.72 C106.71,284.74 101.87,284.74 97.03,284.77 C96.98,276.25 96.99,267.74 97.03,259.23 L97.03,259.23 Z" id="Shape" fill="#FFFFFF"></path>
            <path d="M123.83,259.21 C125.8,259.24 127.77,259.26 129.75,259.26 C132.13,265.74 134.1,272.37 136.71,278.77 C139.3,272.49 141.15,265.94 143.8,259.69 C145.78,259.14 147.86,259.2 149.89,259.05 C150.1,267.63 149.99,276.22 149.96,284.81 C148.57,284.78 147.19,284.77 145.8,284.75 C145.68,278.32 145.87,271.88 145.61,265.45 C143.01,271.78 140.84,278.28 138.51,284.72 C137.18,284.72 135.85,284.72 134.52,284.73 C132.23,278.06 130.05,271.35 127.54,264.76 C127.79,271.42 127.78,278.09 127.74,284.75 C126.74,284.74 124.74,284.71 123.74,284.69 C123.79,276.2 123.67,267.71 123.83,259.21 L123.83,259.21 Z" id="Shape" fill="#FFFFFF"></path>
            <path d="M163.27,259.23 L167.73,259.23 C167.77,267.75 167.76,276.26 167.73,284.78 C166.24,284.77 164.76,284.76 163.27,284.76 C163.24,276.25 163.23,267.74 163.27,259.23 L163.27,259.23 Z" id="Shape" fill="#FFFFFF"></path>
            <path d="M181.05,259.19 C182.43,259.21 183.82,259.23 185.2,259.25 C185.3,264.19 185.17,269.14 185.25,274.08 C185.35,276.34 185.45,279.13 187.56,280.52 C190.55,282.12 195.78,281.58 196.49,277.6 C197.14,271.51 196.56,265.35 196.79,259.23 C198.26,259.23 199.73,259.23 201.21,259.24 C201.11,265.47 201.64,271.74 200.97,277.95 C199.56,287.59 182.36,287.66 181.18,277.87 C180.7,271.66 181.11,265.41 181.05,259.19 L181.05,259.19 Z" id="Shape" fill="#FFFFFF"></path>
            <path d="M214.6,259.15 C216.59,259.22 218.58,259.28 220.57,259.34 C222.82,265.79 224.77,272.37 227.5,278.65 C229.95,272.24 232.26,265.78 234.5,259.3 C236.57,259.27 238.64,259.24 240.72,259.21 C240.79,267.72 240.72,276.24 240.77,284.76 C239.37,284.77 237.97,284.79 236.58,284.81 C236.42,278.14 236.54,271.48 236.5,264.82 C233.9,271.46 231.71,278.25 229.01,284.85 C227.79,284.8 226.57,284.76 225.36,284.73 C222.92,278.1 220.8,271.37 218.3,264.77 C218.52,271.44 218.55,278.12 218.46,284.8 L214.54,284.8 C214.51,276.25 214.39,267.7 214.6,259.15 L214.6,259.15 Z" id="Shape" fill="#FFFFFF"></path>
            <path d="M270.25,259.24 C274.67,259.39 279.37,258.63 283.55,260.41 C288.9,262.93 288.38,271.81 283.15,274.17 C280.54,275.35 277.6,275.21 274.81,275.44 C274.76,278.55 274.74,281.67 274.69,284.79 C273.22,284.78 271.75,284.77 270.28,284.76 C270.22,276.25 270.25,267.75 270.25,259.24 L270.25,259.24 Z" id="Shape" fill="#FFFFFF"></path>
            <path d="M305.22,259.22 L309.83,259.22 C313.12,267.69 316.37,276.19 319.3,284.8 C317.76,284.74 316.22,284.69 314.69,284.61 C313.86,282.31 312.99,280.02 312.11,277.75 C309.04,277.75 305.97,277.75 302.91,277.74 C302.05,280.03 301.19,282.33 300.37,284.64 C298.86,284.71 297.35,284.77 295.84,284.83 C298.65,276.18 302.07,267.74 305.22,259.22 L305.22,259.22 Z" id="Shape" fill="#FFFFFF"></path>
            <path d="M329.47,259.26 C333.87,259.36 338.49,258.69 342.69,260.34 C346.26,261.77 347.31,266.41 345.86,269.7 C344.9,271.41 343.3,272.62 341.93,273.97 C344.21,277.54 346.51,281.1 348.63,284.77 C347,284.74 345.34,284.82 343.76,284.39 C341.42,281.46 339.76,278.07 337.85,274.87 C336.5,274.81 335.15,274.76 333.81,274.71 C333.77,278.07 333.74,281.43 333.69,284.79 C332.29,284.77 330.88,284.75 329.49,284.74 C329.49,276.25 329.51,267.75 329.47,259.26 L329.47,259.26 Z" id="Shape" fill="#FFFFFF"></path>
            <path d="M356.26,259.26 C362.68,259.24 369.11,259.24 375.54,259.27 C375.55,260.47 375.56,261.67 375.59,262.88 C373.06,262.96 370.53,263 368,263.06 C367.99,270.31 368.03,277.55 367.96,284.8 C366.57,284.78 365.19,284.76 363.81,284.75 C363.71,277.53 363.73,270.3 363.78,263.08 C361.24,263.01 358.7,262.96 356.16,262.88 C356.19,261.67 356.22,260.47 356.26,259.26 L356.26,259.26 Z" id="Shape" fill="#FFFFFF"></path>
            <path d="M386.3,259.17 C388,259.23 389.71,259.28 391.42,259.34 C395.41,265.54 398.9,272.06 403.32,277.98 C403.41,271.72 403.13,265.47 403.29,259.21 C404.69,259.22 406.09,259.24 407.5,259.26 L407.5,284.76 C405.73,284.75 403.97,284.76 402.21,284.78 C398,278.45 394.31,271.77 390.03,265.48 C390.19,271.91 390.36,278.33 390.18,284.76 C388.86,284.76 387.56,284.77 386.25,284.77 C386.28,276.24 386.19,267.71 386.3,259.17 L386.3,259.17 Z" id="Shape" fill="#FFFFFF"></path>
            <path d="M420.8,259.25 L435.18,259.25 C435.21,260.48 435.25,261.71 435.29,262.95 C431.93,262.98 428.57,263.01 425.22,263.06 C425.23,265.27 425.24,267.49 425.24,269.71 C428.41,269.74 431.59,269.77 434.78,269.8 L434.78,273.2 C431.6,273.23 428.42,273.25 425.24,273.28 C425.24,275.84 425.24,278.39 425.22,280.95 C428.57,280.99 431.93,281.02 435.28,281.05 C435.25,282.28 435.21,283.52 435.18,284.76 C430.39,284.74 425.59,284.74 420.8,284.75 C420.71,276.25 420.72,267.75 420.8,259.25 L420.8,259.25 Z" id="Shape" fill="#FFFFFF"></path>
            <path d="M447.47,259.25 C451.88,259.37 456.5,258.71 460.75,260.23 C464.39,261.66 465.39,266.37 463.95,269.7 C463.01,271.41 461.48,272.67 460.14,274.03 C462.39,277.64 464.7,281.22 466.89,284.87 C465.14,284.78 463.4,284.69 461.66,284.6 C459.79,281.3 457.82,278.06 455.89,274.8 C454.6,274.77 453.32,274.74 452.05,274.72 C452.01,278.09 451.98,281.47 451.91,284.84 C450.42,284.79 448.95,284.75 447.47,284.7 C447.5,276.22 447.52,267.73 447.47,259.25 L447.47,259.25 Z" id="Shape" fill="#FFFFFF"></path>
            <path d="M43.04,262.77 C45.11,263.03 47.29,262.94 49.24,263.79 C51.83,265.31 51.59,269.89 48.7,270.96 C46.87,271.51 44.93,271.5 43.04,271.67 C43,268.7 43,265.74 43.04,262.77 L43.04,262.77 Z" id="Shape" fill="#3E98D4"></path>
            <path d="M71.78,262.75 C73.92,263.04 76.19,262.95 78.18,263.89 C80.63,265.34 80.17,269.54 77.5,270.46 C75.65,271.01 73.69,271.02 71.79,271.23 C71.75,268.4 71.75,265.58 71.78,262.75 L71.78,262.75 Z" id="Shape" fill="#3E98D4"></path>
            <path d="M274.79,262.75 C276.92,263.04 279.18,262.95 281.17,263.88 C283.61,265.49 283.13,269.54 280.71,270.91 C278.79,271.49 276.77,271.49 274.8,271.67 C274.75,268.7 274.74,265.72 274.79,262.75 L274.79,262.75 Z" id="Shape" fill="#3E98D4"></path>
            <path d="M333.79,262.77 C336.78,263.13 342.03,262.65 342.01,266.99 C341.88,271.28 336.86,271.06 333.78,271.2 C333.75,268.39 333.75,265.58 333.79,262.77 L333.79,262.77 Z" id="Shape" fill="#3E98D4"></path>
            <path d="M452.04,262.77 C454.95,263.13 460.18,262.75 460.05,267 C460.19,271.28 454.99,271.01 452.03,271.2 C452,268.39 452,265.58 452.04,262.77 L452.04,262.77 Z" id="Shape" fill="#3E98D4"></path>
            <path d="M304.13,273.99 C305.21,270.75 306.31,267.51 307.56,264.33 C308.8,267.52 309.97,270.75 311.09,273.99 L304.13,273.99 L304.13,273.99 Z" id="Shape" fill="#3E98D4"></path>
        </g>
    </g>
</svg>