<svg width="2433" height="264" viewBox="0 0 2433 264" xmlns="http://www.w3.org/2000/svg"><title>highres_193108562 (1)</title><g fill="none" fill-rule="evenodd"><path d="M2366.53 0h25.75c-.03 1.47-.04 2.95-.01 4.42-3.55.03-7.07.04-10.59.06-.02 9.4 0 18.8-.01 28.2-1.52-.01-3.01-.01-4.46-.02-.02-9.38-.02-18.75 0-28.13-3.58-.07-7.15-.08-10.69-.1-.03-1.48-.03-2.95.01-4.43zM2399.4 0h4.94c4.02 5.85 7.73 11.92 11.69 17.82 3.92-5.91 7.55-12.01 11.61-17.82h4.85c-.01 10.89 0 21.78 0 32.67-1.61-.02-3.17-.04-4.72-.07-.04-8.21.08-16.43-.08-24.64-3.92 5.93-7.77 11.9-11.75 17.78-4.03-5.85-7.86-11.82-11.66-17.81-.19 8.22-.08 16.45-.09 24.67l-4.79.09c-.01-10.9 0-21.79 0-32.69z" fill="#84BD00"/><path d="M40.09 34.06c22.24-28.85 64.42-40.7 98.14-26.35 11.35 4.96 22.22 13.19 27.1 24.89-10.5 7.93-20.66 16.32-31.13 24.3-4.25-4.14-8.61-8.23-13.58-11.52-13.16-8.88-33.08-7.94-43.64 4.57-3.84 4.25-4.48 10.53-2.91 15.87 2.33 6.98 8.14 11.98 13.75 16.39 14.33 10.66 30.84 18.58 43.19 31.74 7.53 7.82 12.63 18.16 13.18 29.09.75 16.49-6.33 32.73-17.58 44.6-23.42 25.38-62.53 34.53-94.88 22.62C16.53 204.63 4.6 191.49 0 176.01v-1.15c11.71-6.6 23.3-13.4 35.05-19.91 4.09 6.68 8.68 13.39 15.46 17.6 10.99 6.63 25.8 6.7 36.52-.55 6.15-3.95 11.81-10.32 11.69-18.04.24-8.03-5.68-14.45-11.61-19.06-13.65-10.58-29.69-17.85-42.39-29.69-7.41-6.8-13.5-15.45-15.74-25.38-3.78-15.91 1.2-33.03 11.11-45.77z" fill="#4097DC"/><path d="M955.89 2.46c15.4-2.5 32.15.23 44.79 9.78 6.19 4.82 11.68 10.79 15.1 17.92-7.54 5.66-15.26 11.06-22.87 16.6-7.18-9.07-17.15-16.96-29.08-17.84-12.05-.66-23.63 4.81-32.75 12.33-9.13 7.56-16.1 17.76-19.43 29.16-7.92 26.33-13.76 53.33-16.92 80.65-1.23 9.62 1.18 20.05 8.11 27.11 8.02 8.64 20.77 11.35 32.08 9.31 14.12-2.25 25.66-11.76 35.3-21.74 6.8 3.86 12.48 9.41 18.82 13.96-2.99 5.52-7.7 9.85-12.27 14.04-15.16 13.6-35.21 22.41-55.78 21.91-15.84.09-32.18-5.7-43.05-17.51-10.43-10.92-14.93-26.55-13.98-41.42 3.04-29.87 9.24-59.41 17.9-88.15 9.65-33.52 39.24-61 74.03-66.11zM1281.71 6.74c14.41-6.95 32.38-7.13 46.33 1.06 9.22 5.36 15.45 14.48 19.79 24 9.26-15.29 25.81-25.1 43-28.85 17.46-3.97 37.74.74 49.34 15.02 12.32 14.84 14.29 35.66 11.11 54.07-3.49 19.74-7.93 39.3-12.05 58.92-5.98 28.15-11.98 56.29-17.98 84.43-10.25.02-20.49.02-30.74 0 7.84-37.16 15.78-74.29 23.59-111.45 2.67-12.28 5.77-24.52 6.84-37.08 1.03-9.04.46-18.76-4.08-26.85-3.19-5.77-9.32-9.54-15.78-10.35-9.6-1.18-19.73 1.04-27.61 6.74-6.17 4.27-10.74 10.49-13.99 17.17-4.35 8.99-5.82 18.96-8.36 28.52-5.09 19.89-8.81 40.09-13.23 60.14-5.25 24.38-10.45 48.76-15.65 73.15-10.26.03-20.52.02-30.78.01 9.33-43.82 18.51-87.67 27.92-131.47 2.3-13.01 5.07-26.89.42-39.71-2.36-6.88-8.14-12.53-15.33-14.09-10.05-2.06-20.98.03-29.46 5.86-6.37 4.26-11.16 10.55-14.48 17.39-4.38 8.83-5.81 18.68-8.32 28.12-5.64 22.5-10.4 45.2-15.09 67.91-4.67 21.98-9.28 43.98-13.91 65.97-10.27.06-20.54.03-30.8.02 10.35-48.58 20.65-97.18 30.98-145.77 2.4-11.38 5.33-23.09 3.4-34.77-.96-6.45-3.92-12.31-5.76-18.5 8.45-4.61 16.79-9.41 25.18-14.14 6.2 6.36 9.65 14.94 10.7 23.68 7.2-7.6 15.26-14.63 24.8-19.15zM1570.94 2.45c12.84-2.37 27.01.08 37.41 8.28 6.79 5.32 11.71 12.68 15.15 20.51 2.8-2.47 4.56-5.87 7.21-8.49 11.35-11.91 27.19-19.2 43.49-20.95 12.11-.99 24.88 1.79 34.71 9.19 13.57 10.09 19.61 27.56 19.69 43.99.45 10.84-2.06 21.46-4.06 32.03-8.92 42.83-18.18 85.59-27.26 128.39-10.26-.01-20.52.03-30.78-.02 8.22-38.23 16.26-76.5 24.35-114.75 2.02-8.59 3.84-17.23 5.27-25.93 1.38-10.84 2.6-22.46-2.15-32.69-2.82-6.4-8.95-11.1-15.85-12.18-10.11-1.57-20.94.81-29.17 6.97-6.48 4.65-11.1 11.46-14.3 18.68-3.5 7.91-4.85 16.52-7.05 24.84-6.03 23.63-10.38 47.64-15.71 71.43-4.54 21.22-9.04 42.44-13.64 63.65-10.25 0-20.5.01-30.75-.01 9.24-43.4 18.37-86.83 27.67-130.22 2.33-11.98 4.52-24.45 2.02-36.57-1.62-7.85-6.72-15.43-14.64-17.9-14.71-4.25-31.65 1.69-40.67 14.04-6.36 8.13-9.36 18.21-11.52 28.15-11.83 47.18-20.77 95.01-31.16 142.51-10.23-.01-20.47.02-30.69-.02 10.28-48.75 20.7-97.48 31.02-146.23 1.91-8.95 4.02-17.97 3.96-27.18 0-7.89-2.56-15.48-5.58-22.67-.22-1-1.46-2.72-.04-3.31 8.1-4.63 16.27-9.14 24.37-13.77 6.2 6.36 9.71 14.95 10.7 23.7 10.23-10.98 22.88-20.75 38-23.47zM2032.97 1.95c9.43-1.08 18.99.14 28.03 2.95-4.55 9.95-10.52 19.2-15.42 28.98-10.25-5.3-22.87-4.51-33.01.67-9.39 4.82-17.05 12.83-21.69 22.29-4 7.9-5.56 16.69-7.89 25.15-6.11 23.08-10.67 46.53-15.61 69.88-4.71 21.43-8.81 43.01-13.81 64.37-10.14-.13-20.28-.03-30.42-.05 4.1-21.66 9.09-43.15 13.54-64.74 5.63-26.49 11.26-52.98 16.88-79.47 1.85-9.25 4.44-18.47 4.23-28 .47-9.72-3.07-18.95-6.36-27.91 8.55-4.5 16.96-9.26 25.48-13.81 5.28 5.6 9.35 12.38 11.05 19.94 12.86-10.55 28.25-18.58 45-20.25zM2138.16 2.08c18.9-2.59 39.58 3.9 51.49 19.3 1.9 2.84 5.12 5.52 5.04 9.16-7.17 5.64-14.82 10.67-22.11 16.16-5.39-5.79-10.89-11.92-18.37-14.99-8.9-4.21-19.34-3.41-28.25.3-14.71 6.05-26.87 18.21-32.85 32.94-3.92 10.6-6.48 21.63-9.23 32.57-2.92 11.22-4.93 22.65-6.86 34.08-1.35 8.43-2.9 16.9-2.98 25.46-.01 10.7 5.75 21.42 15.27 26.56 12.05 6.79 27.31 5.34 39.24-.95 7.82-4.13 14.32-10.24 20.8-16.16 1.1-1.13 2.33.18 3.31.82 5.37 4.19 10.77 8.36 16.13 12.59-10.47 14.45-25.48 25.66-42.32 31.57-18.91 6.46-40.97 5.97-58.32-4.59-12.75-7.63-21.5-21.17-23.84-35.77-2.22-11.28.2-22.68 1.56-33.89 3.75-23.99 8.98-47.78 16.26-70.95 10.51-33.35 40.96-60.24 76.03-64.21zM2267.16 8.4c18.68-8.22 40.46-9.02 59.72-2.3 12.34 4.36 23.16 13.62 27.97 25.98 6.41 15.93 3.31 33.96-3.48 49.24-5.78 13-15.91 23.91-28.36 30.77-17.93 10.07-38.73 13.14-58.97 14.42-11.08.71-22.23-.34-33.26.78-1.12 9.89-4 19.61-3.57 29.64 0 8.58 3.77 17.01 9.94 22.94 6.59 6.25 15.9 9.25 24.92 8.61 14.32-.82 28.2-7.05 38.6-16.89 3.34-3.06 6.54-6.27 9.49-9.72 6.86 3.2 12.99 7.74 19.69 11.26-16.02 25.54-45.33 43-75.78 42.52-15.97.3-32.41-5.51-43.5-17.24-9.42-9.99-14.39-23.76-14.39-37.43-.21-6.64.95-13.2 1.81-19.75 3.39-24.76 8.95-49.19 16.17-73.1 7.76-26.4 27.71-48.89 53-59.73z" fill="#84BD00"/><path d="M193.1 23.72c12.44-7.29 24.65-14.95 36.99-22.38 6.05 4.78 9.71 11.95 10.95 19.48 13.18-12.06 31.02-19.33 48.98-18.66 16.48-.02 33.26 6.08 44.85 18.01 11.7 11.96 16.96 29.27 15.52 45.79-1.47 14.72-4.17 29.3-7.6 43.69-2.83 13.2-5.92 26.36-9.79 39.3-7.14 23.3-24.22 42.9-45.31 54.78-15.62 8.79-33.82 13.58-51.78 11.65-9.11-1.39-17.56-5.95-23.98-12.53-2.14 11.43-4.66 22.79-6.92 34.21-1.14 5.36-1.97 10.8-3.6 16.05-15.78 2.9-31.32 7.03-47.1 9.98 13.86-64.73 27.93-129.41 41.92-194.11 1.85-9.35 4.19-19.05 2.06-28.56-1.16-5.74-4.13-10.93-5.19-16.7z" fill="#4097DC"/><path d="M298.64 48.42c5.79 5.85 7.7 14.53 6.85 22.53-1.43 13.8-4.34 27.4-7.42 40.92-2.38 11.15-4.83 22.31-8.06 33.26-4.93 17.83-22.15 32.9-41.21 31.78-7.21.07-14.39-3.21-18.86-8.89-5.13-6.44-6.14-15.23-4.69-23.12 3.87-24.96 9.15-49.72 16.17-73.99 4.18-15.72 18.33-28.57 34.72-29.96 8.07-.88 16.83 1.43 22.5 7.47z" fill="#FFF"/><path d="M386.49 23.98c12.59-7.55 25.26-14.98 37.82-22.6 6.04 4.31 9.93 10.9 11.7 18.03C450.42 7.55 469.16.07 488.02 1.79c5.42.23 10.51 2.23 15.82 3.13-6.9 13.38-14.12 26.58-20.99 39.97-7.55-5.13-17.74-4.6-25.66-.59-10.21 4.69-17.59 14.38-20.51 25.12-3.67 14.05-7.39 28.09-10.79 42.21-7.2 34.6-14.59 69.17-21.72 103.79-15.04.08-30.07.03-45.11.02 9.85-47.86 20.24-95.62 30.31-143.44 1.8-8.56 3.89-17.21 3.36-26.03-.25-7.74-3.85-14.77-6.24-21.99zM505.68 68.4C518.33 29.33 557.96.99 599.02 1.59c16.46.26 33.82 3.82 46.74 14.65 12.41 10.21 18.04 27.14 16.03 42.86-2.04 17.12-8.93 34.06-21.22 46.38-13.13 13.27-31.2 20.44-49.31 23.68-18.31 3.58-37.02 2.55-55.55 2.35-1.81 9.86-3.98 20.42-.05 30.06 2.96 8.3 10.66 14.48 19.32 15.87 13.23 1.54 27.08-.9 38.46-8.01 5.15-2.91 9.74-6.68 14.91-9.54 5.27 8.36 10.83 16.52 16.15 24.85-13.89 15.99-33.76 26.08-54.46 29.76-14.67 2.46-30.13 2.11-44.2-3.08-14.68-5.26-27.48-16.37-33.48-30.91-4.75-10.81-5.03-23-3.31-34.51 3.39-26.26 8.63-52.34 16.63-77.6zM764.93 3.03c15.19-2.68 31.09-1.67 45.76 3.12 13.67 4.49 25.99 14.41 31.16 28.11 6.12 15.12 3.27 32.12-2.44 46.89-5.57 14.46-15.98 27-29.25 35.02-16.78 10.3-36.61 14.15-56.02 15.38-11.76.51-23.54.07-35.3-.04-1.8 9.96-4.09 20.7.11 30.4 2.98 8.14 10.58 14.11 19.08 15.52 12.02 1.36 24.56-.39 35.3-6.15 6.2-3.43 12.07-7.43 17.84-11.55 5.66 8.22 11.04 16.65 16.46 25.03-13.58 15.62-32.89 25.63-53.08 29.48-17.16 3.22-35.61 2.33-51.52-5.35-13.35-6.37-24.33-17.99-28.94-32.15-3.82-10.83-3.28-22.61-1.48-33.78 3.32-24.9 8.43-49.6 15.9-73.59 10.62-33.99 41.54-60.14 76.42-66.34z" fill="#4097DC"/><path d="M1106.48 2.63c16.01-2.74 33.31-.21 46.97 8.89 12.37 8.21 20.85 21.75 23.17 36.38 2.33 11.64-.05 23.42-1.77 34.96-3.72 23.01-9 45.76-15.71 68.08-11.23 39.43-52.24 68.32-93.25 64.42-16.35-1.63-32.5-9.72-41.81-23.56-8.02-11.52-10.8-26.19-8.89-39.98 2.21-18.77 5.24-37.47 9.79-55.82 2.7-11.06 5.3-22.18 9.19-32.9 11.37-30.84 39.7-55.17 72.31-60.47zM1812.5 12.53c16.03-9.11 35.1-12.9 53.36-10.02 16.19 1.95 32.68 10.14 40.55 25.01 5.62 9.79 6.16 21.45 5.03 32.43-2.41 15.33-8.92 30.37-20.17 41.28-11.66 11.52-27.36 17.95-43.17 21.36-15.44 3.38-31.32 4.34-47.09 4.21-5.48.32-10.98-.36-16.41.45-1.31 9.25-3.49 18.4-3.88 27.76-.09 9.7 3.89 19.55 11.33 25.9 6.28 5.4 14.7 8.01 22.93 7.6 15.64-.59 30.66-7.87 41.59-18.94 2.57-2.5 5.05-5.1 7.49-7.74 6.7 3.46 12.95 7.72 19.57 11.36-10.37 16.27-25.9 29.29-43.85 36.44-16.83 6.56-36.05 8.42-53.38 2.7-12.8-4.2-24.02-13.32-30.19-25.36-5.49-10.69-7.46-23.12-5.87-35.01 2.82-24.39 7.62-48.53 14.19-72.19 2.48-8.94 4.93-17.99 9.14-26.31 8.42-17.14 22.15-31.62 38.83-40.93z" fill="#84BD00"/><path d="M1110.6 28.91c8.08-.59 16.43 1.54 23.01 6.35 8.52 6.02 13.59 16.35 13.68 26.74-.15 6.67-1.14 13.31-2.24 19.88-2.67 15.76-6.05 31.39-9.68 46.95-1.94 7.73-3.88 15.49-6.53 23.01-5.87 16.02-19.5 28.82-35.58 34.29-9.01 3.06-19.2 3.48-28.03-.35-8.64-3.53-15.53-11-18.33-19.9-2.62-7.67-1.65-15.95-.47-23.8 2.59-17.12 5.55-34.22 10.02-50.97 2.59-9.75 4.68-19.71 8.58-29.05 8.38-17.6 25.96-31.2 45.57-33.15zM1833.2 31.27c9.29-3.28 19.58-3.15 28.95-.23 6.84 2.22 13.04 7.04 16.03 13.7 3.3 6.97 2.89 15.12.79 22.38-1.98 7.59-5.82 14.85-11.76 20.07-7.17 6.56-16.7 9.78-26.11 11.41-16.82 2.86-33.93 1.44-50.89 1.72 2.18-10.1 4.44-20.19 7.14-30.17 4.6-17.78 18.54-32.81 35.85-38.88zM2280.65 30.87c10.23-3.18 21.69-2.69 31.49 1.7 8.36 3.69 14.26 12.24 14.57 21.4.71 15.37-7.03 31.65-21.11 38.74-14.91 7.64-32.21 7.72-48.57 7.67-6.87-.05-13.73-.07-20.58-.06 1.62-7.65 3.42-15.27 5.26-22.87 1.47-5.59 2.67-11.31 5.22-16.54 6.57-14 18.94-25.3 33.72-30.04zM554.49 59.55c8.17-12.4 22.52-20.94 37.52-20.89 6.7.28 13.91 1.58 18.99 6.31 3.88 3.54 5.95 8.81 5.89 14.03.37 11.29-5.23 22.95-15.06 28.8-9.79 5.99-21.59 7.09-32.79 7.57-8.7.04-17.4-.09-26.1-.09.78-5.53 2.42-10.89 3.89-16.27 2.01-6.67 3.78-13.57 7.66-19.46zM733.12 68.93c6.85-20.53 30.46-34.79 51.74-28.9 6.86 1.65 13.01 6.94 14.57 13.98 2.04 8.37-.45 17.36-4.89 24.54-4.96 7.81-13.66 12.4-22.46 14.44-15.12 3.63-30.75 2.04-46.13 2.28 1.78-8.93 4.29-17.71 7.17-26.34z" fill="#FFF"/></g></svg>