<?xml version="1.0" encoding="UTF-8" standalone="no"?>
<svg width="2749px" height="364px" viewBox="0 0 2749 364" version="1.1" xmlns="http://www.w3.org/2000/svg" xmlns:xlink="http://www.w3.org/1999/xlink">
    <!-- Generator: Sketch 3.6.1 (26313) - http://www.bohemiancoding.com/sketch -->
    <title>highres_193108562 (1)</title>
    <desc>Created with Sketch.</desc>
    <defs></defs>
    <g id="Page-1" stroke="none" stroke-width="1" fill="none" fill-rule="evenodd">
        <g id="highres_193108562-(1)">
            <path d="M2366.53,0 C2366.49,1.48 2366.49,2.95 2366.52,4.43 C2370.06,4.45 2373.63,4.46 2377.21,4.53 C2377.19,13.91 2377.19,23.28 2377.21,32.66 C2381.68,23.28 2381.66,13.88 2381.68,4.48 C2385.2,4.46 2388.72,4.45 2392.27,4.42 C2392.24,2.95 2392.25,1.47 2392.28,0 C2399.4,10.9 2399.39,21.79 2399.4,32.69 C2404.2,24.38 2404.09,16.15 2404.28,7.93 C2408.08,13.92 2411.91,19.89 2415.94,25.74 C2419.92,19.86 2423.77,13.89 2427.69,7.96 C2427.85,16.17 2427.73,24.39 2427.77,32.6 C2432.49,21.78 2432.48,10.89 2432.49,0 L2749,0 L2749,290.45 C2743.16,294.4 2740.62,298.37 2738.03,302.3 C2735.48,298.34 2732.91,294.39 2730.32,290.46 C2726.74,297.74 2726.61,305.08 2727.13,312.38 C2730.14,306.75 2730.11,301.25 2730.24,295.76 C2732.76,299.75 2735.33,303.72 2737.99,307.63 C2740.63,303.75 2743.19,299.79 2745.76,295.85 C2746.16,301.11 2745.24,306.55 2746.29,311.71 C2746.97,312.01 2748.32,312.61 2749,312.91 L2749,364 L2671.93,364 C2678.48,363.4 2685.25,360.65 2689.17,355.13 C2693.04,349.97 2693.8,342.92 2692.04,336.83 C2689.8,329.95 2683.15,326.01 2676.9,323.28 C2671.55,320.69 2665.33,319.28 2661.06,314.94 C2657.42,311 2660.22,304.61 2664.89,303.03 C2672.29,300.31 2680.04,303.82 2686.08,308.09 C2687.9,304.58 2689.8,301.09 2691.74,297.63 C2686,292.72 2678.52,289.97 2670.97,290.1 C2662.45,289.66 2653.3,293.35 2648.91,300.94 C2643.91,308.98 2646.12,320.69 2654.35,325.72 C2660.46,330.09 2667.85,332.06 2674.34,335.75 C2677.28,337.44 2680.38,340.24 2679.87,344 C2679.91,349.03 2674.64,352.2 2670.05,351.81 C2663.05,352.38 2657.08,348.32 2651.49,344.74 C2649.12,347.96 2646.79,351.2 2644.77,354.64 C2650.93,359.83 2658.5,363.36 2666.6,364 L2441.2,364 C2449.87,363.36 2458.37,359.75 2464.54,353.56 C2475.23,343.1 2478.52,325.96 2472.7,312.22 C2468.7,302.28 2459.88,294.49 2449.61,291.54 C2436.81,288.03 2421.92,290.7 2412.41,300.35 C2399.75,312.24 2398.17,333.16 2407.59,347.47 C2413.46,356.86 2423.91,362.78 2434.83,364 L2344.59,364 L2344.58,362.69 C2344.54,353.88 2344.58,345.06 2344.56,336.25 C2348.73,336.24 2352.92,336.24 2357.12,336.28 C2361.82,345.08 2366.43,353.94 2371.21,362.71 C2376.05,362.72 2380.9,362.73 2385.76,362.66 C2380.12,352.63 2374.71,342.46 2368.99,332.47 C2373.74,329.87 2377.81,325.84 2379.46,320.57 C2382.46,311.65 2380.27,300.28 2372.04,294.89 C2366.81,291.18 2360.13,291.22 2354.01,291.23 C2346.5,291.22 2339.01,291.22 2331.52,291.23 C2331.44,315.03 2331.68,338.84 2331.41,362.63 C2331.32,362.97 2331.16,363.66 2331.08,364 L2180.1,364 C2179.55,362.99 2179.02,361.99 2178.52,360.99 C2173.42,351.4 2168.03,341.97 2162.83,332.44 C2175.01,326.66 2178.17,309.2 2170.07,298.86 C2166.37,294.07 2160.38,291.54 2154.42,291.38 C2144.73,291.05 2135.04,291.3 2125.35,291.23 C2125.35,315.05 2125.34,338.88 2125.35,362.7 C2129.69,362.72 2134.04,362.72 2138.41,362.68 C2138.39,353.87 2138.39,345.06 2138.4,336.25 C2142.57,336.23 2146.75,336.23 2150.94,336.29 C2155.5,345.12 2160.3,353.82 2164.85,362.65 C2165.04,362.99 2165.43,363.66 2165.62,364 L2070.78,364 C2079.96,363.19 2088.91,359.1 2095.06,352.15 C2107.88,338.42 2108.08,314.68 2094.76,301.21 C2084.84,290.5 2068.48,287.58 2054.92,292.12 C2045.02,295.49 2036.78,303.39 2033.16,313.22 C2028.32,325.87 2030.88,341 2039.65,351.33 C2045.82,358.71 2055.1,363.1 2064.61,364 L1926.71,364 C1932.86,363.38 1939.13,360.94 1943.1,356 C1949.04,348.88 1949.45,337.03 1942.61,330.35 C1935.6,323.08 1924.85,321.94 1916.93,316.1 C1913.39,313.69 1913.16,308.11 1916.25,305.26 C1919.23,302.1 1923.94,301.75 1928.02,302.34 C1932.72,302.93 1936.75,305.61 1940.72,308.03 C1942.48,304.67 1944.51,301.44 1945.89,297.9 C1943.22,294.08 1938.27,292.54 1934.01,291.13 C1925.87,289.37 1916.56,289.46 1909.55,294.51 C1903.02,298.88 1899.36,307.34 1901.35,315.03 C1902.29,319.53 1905.45,323.22 1909.13,325.82 C1915.27,330.15 1922.66,332.14 1929.15,335.85 C1932.07,337.51 1934.99,340.35 1934.57,344.03 C1934.43,348.81 1929.52,352.05 1925.03,351.8 C1917.97,352.38 1911.65,348.65 1906.27,344.53 C1903.96,347.83 1901.6,351.08 1899.23,354.32 C1905.13,359.76 1912.75,363.14 1920.73,364 L1765.23,364 C1770.81,363.51 1776.5,361.62 1780.54,357.58 C1787.43,351 1788.8,338.94 1782.56,331.5 C1775.84,323.5 1764.75,322.21 1756.44,316.6 C1752.48,314.31 1751.86,308.28 1755.15,305.18 C1758.21,302.1 1762.89,301.74 1766.98,302.35 C1771.66,302.96 1775.66,305.62 1779.59,308.04 C1781.45,304.57 1783.31,301.09 1785.18,297.61 C1779.36,292.58 1771.7,289.88 1764.02,290.15 C1756.19,289.76 1747.99,293 1743.36,299.47 C1738.59,306.03 1738.27,315.94 1743.9,322.11 C1750.89,330.12 1762.23,331.42 1770.5,337.58 C1773.97,340.06 1774.51,345.44 1771.63,348.59 C1769.06,351.73 1764.67,352.07 1760.92,351.74 C1754.95,351.4 1749.8,347.98 1745.16,344.52 C1742.85,347.81 1740.5,351.07 1738.12,354.31 C1744.02,359.82 1751.73,363.17 1759.75,364 L1076.54,364 L1076.54,362.68 C1076.52,338.87 1076.53,315.06 1076.53,291.24 C1072.18,291.22 1067.83,291.22 1063.49,291.22 C1063.47,301.33 1063.49,311.44 1063.47,321.55 C1052.57,321.56 1041.66,321.56 1030.76,321.55 C1030.76,311.44 1030.77,301.33 1030.76,291.23 C1026.4,291.22 1022.05,291.21 1017.7,291.26 C1017.73,315.07 1017.71,338.88 1017.72,362.69 C1022.06,362.71 1026.41,362.71 1030.76,362.71 C1030.77,352.71 1030.75,342.72 1030.77,332.73 C1041.67,332.72 1052.56,332.72 1063.46,332.73 C1063.51,342.77 1063.44,352.8 1063.53,362.84 L1062.64,364 L0,364 L0,176.01 C4.6,191.49 16.53,204.63 31.73,210.26 C64.08,222.17 103.19,213.02 126.61,187.64 C137.86,175.77 144.94,159.53 144.19,143.04 C143.64,132.11 138.54,121.77 131.01,113.95 C118.66,100.79 102.15,92.87 87.82,82.21 C82.21,77.8 76.4,72.8 74.07,65.82 C72.5,60.48 73.14,54.2 76.98,49.95 C87.54,37.44 107.46,36.5 120.62,45.38 C125.59,48.67 129.95,52.76 134.2,56.9 C144.67,48.92 154.83,40.53 165.33,32.6 C160.45,20.9 149.58,12.67 138.23,7.71 C104.51,-6.64 62.33,5.21 40.09,34.06 C30.18,46.8 25.2,63.92 28.98,79.83 C31.22,89.76 37.31,98.41 44.72,105.21 C57.42,117.05 73.46,124.32 87.11,134.9 C93.04,139.51 98.96,145.93 98.72,153.96 C98.84,161.68 93.18,168.05 87.03,172 C76.31,179.25 61.5,179.18 50.51,172.55 C43.73,168.34 39.14,161.63 35.05,154.95 C23.3,161.46 11.71,168.26 0,174.86 L0,0 L2366.53,0 Z" id="Shape" fill="#FFFFFF"></path>
            <path d="M2366.53,0 L2392.28,0 C2392.25,1.47 2392.24,2.95 2392.27,4.42 C2388.72,4.45 2385.2,4.46 2381.68,4.48 C2381.66,13.88 2381.68,23.28 2381.67,32.68 C2380.15,32.67 2378.66,32.67 2377.21,32.66 C2377.19,23.28 2377.19,13.91 2377.21,4.53 C2373.63,4.46 2370.06,4.45 2366.52,4.43 C2366.49,2.95 2366.49,1.48 2366.53,0 L2366.53,0 Z" id="Shape" fill="#84BD00"></path>
            <path d="M2399.4,0 L2404.34,0 C2408.36,5.85 2412.07,11.92 2416.03,17.82 C2419.95,11.91 2423.58,5.81 2427.64,0 L2432.49,0 C2432.48,10.89 2432.49,21.78 2432.49,32.67 C2430.88,32.65 2429.32,32.63 2427.77,32.6 C2427.73,24.39 2427.85,16.17 2427.69,7.96 C2423.77,13.89 2419.92,19.86 2415.94,25.74 C2411.91,19.89 2408.08,13.92 2404.28,7.93 C2404.09,16.15 2404.2,24.38 2404.19,32.6 C2402.57,32.63 2400.97,32.66 2399.4,32.69 C2399.39,21.79 2399.4,10.9 2399.4,0 L2399.4,0 Z" id="Shape" fill="#84BD00"></path>
            <path d="M40.09,34.06 C62.33,5.21 104.51,-6.64 138.23,7.71 C149.58,12.67 160.45,20.9 165.33,32.6 C154.83,40.53 144.67,48.92 134.2,56.9 C129.95,52.76 125.59,48.67 120.62,45.38 C107.46,36.5 87.54,37.44 76.98,49.95 C73.14,54.2 72.5,60.48 74.07,65.82 C76.4,72.8 82.21,77.8 87.82,82.21 C102.15,92.87 118.66,100.79 131.01,113.95 C138.54,121.77 143.64,132.11 144.19,143.04 C144.94,159.53 137.86,175.77 126.61,187.64 C103.19,213.02 64.08,222.17 31.73,210.26 C16.53,204.63 4.6,191.49 0,176.01 L0,174.86 C11.71,168.26 23.3,161.46 35.05,154.95 C39.14,161.63 43.73,168.34 50.51,172.55 C61.5,179.18 76.31,179.25 87.03,172 C93.18,168.05 98.84,161.68 98.72,153.96 C98.96,145.93 93.04,139.51 87.11,134.9 C73.46,124.32 57.42,117.05 44.72,105.21 C37.31,98.41 31.22,89.76 28.98,79.83 C25.2,63.92 30.18,46.8 40.09,34.06 L40.09,34.06 Z" id="Shape" fill="#4097DC"></path>
            <path d="M955.89,2.46 C971.29,-0.04 988.04,2.69 1000.68,12.24 C1006.87,17.06 1012.36,23.03 1015.78,30.16 C1008.24,35.82 1000.52,41.22 992.91,46.76 C985.73,37.69 975.76,29.8 963.83,28.92 C951.78,28.26 940.2,33.73 931.08,41.25 C921.95,48.81 914.98,59.01 911.65,70.41 C903.73,96.74 897.89,123.74 894.73,151.06 C893.5,160.68 895.91,171.11 902.84,178.17 C910.86,186.81 923.61,189.52 934.92,187.48 C949.04,185.23 960.58,175.72 970.22,165.74 C977.02,169.6 982.7,175.15 989.04,179.7 C986.05,185.22 981.34,189.55 976.77,193.74 C961.61,207.34 941.56,216.15 920.99,215.65 C905.15,215.74 888.81,209.95 877.94,198.14 C867.51,187.22 863.01,171.59 863.96,156.72 C867,126.85 873.2,97.31 881.86,68.57 C891.51,35.05 921.1,7.57 955.89,2.46 L955.89,2.46 Z" id="Shape" fill="#84BD00"></path>
            <path d="M1281.71,6.74 C1296.12,-0.21 1314.09,-0.39 1328.04,7.8 C1337.26,13.16 1343.49,22.28 1347.83,31.8 C1357.09,16.51 1373.64,6.7 1390.83,2.95 C1408.29,-1.02 1428.57,3.69 1440.17,17.97 C1452.49,32.81 1454.46,53.63 1451.28,72.04 C1447.79,91.78 1443.35,111.34 1439.23,130.96 C1433.25,159.11 1427.25,187.25 1421.25,215.39 C1411,215.41 1400.76,215.41 1390.51,215.39 C1398.35,178.23 1406.29,141.1 1414.1,103.94 C1416.77,91.66 1419.87,79.42 1420.94,66.86 C1421.97,57.82 1421.4,48.1 1416.86,40.01 C1413.67,34.24 1407.54,30.47 1401.08,29.66 C1391.48,28.48 1381.35,30.7 1373.47,36.4 C1367.3,40.67 1362.73,46.89 1359.48,53.57 C1355.13,62.56 1353.66,72.53 1351.12,82.09 C1346.03,101.98 1342.31,122.18 1337.89,142.23 C1332.64,166.61 1327.44,190.99 1322.24,215.38 C1311.98,215.41 1301.72,215.4 1291.46,215.39 C1300.79,171.57 1309.97,127.72 1319.38,83.92 C1321.68,70.91 1324.45,57.03 1319.8,44.21 C1317.44,37.33 1311.66,31.68 1304.47,30.12 C1294.42,28.06 1283.49,30.15 1275.01,35.98 C1268.64,40.24 1263.85,46.53 1260.53,53.37 C1256.15,62.2 1254.72,72.05 1252.21,81.49 C1246.57,103.99 1241.81,126.69 1237.12,149.4 C1232.45,171.38 1227.84,193.38 1223.21,215.37 C1212.94,215.43 1202.67,215.4 1192.41,215.39 C1202.76,166.81 1213.06,118.21 1223.39,69.62 C1225.79,58.24 1228.72,46.53 1226.79,34.85 C1225.83,28.4 1222.87,22.54 1221.03,16.35 C1229.48,11.74 1237.82,6.94 1246.21,2.21 C1252.41,8.57 1255.86,17.15 1256.91,25.89 C1264.11,18.29 1272.17,11.26 1281.71,6.74 L1281.71,6.74 Z" id="Shape" fill="#84BD00"></path>
            <path d="M1570.94,2.45 C1583.78,0.08 1597.95,2.53 1608.35,10.73 C1615.14,16.05 1620.06,23.41 1623.5,31.24 C1626.3,28.77 1628.06,25.37 1630.71,22.75 C1642.06,10.84 1657.9,3.55 1674.2,1.8 C1686.31,0.81 1699.08,3.59 1708.91,10.99 C1722.48,21.08 1728.52,38.55 1728.6,54.98 C1729.05,65.82 1726.54,76.44 1724.54,87.01 C1715.62,129.84 1706.36,172.6 1697.28,215.4 C1687.02,215.39 1676.76,215.43 1666.5,215.38 C1674.72,177.15 1682.76,138.88 1690.85,100.63 C1692.87,92.04 1694.69,83.4 1696.12,74.7 C1697.5,63.86 1698.72,52.24 1693.97,42.01 C1691.15,35.61 1685.02,30.91 1678.12,29.83 C1668.01,28.26 1657.18,30.64 1648.95,36.8 C1642.47,41.45 1637.85,48.26 1634.65,55.48 C1631.15,63.39 1629.8,72 1627.6,80.32 C1621.57,103.95 1617.22,127.96 1611.89,151.75 C1607.35,172.97 1602.85,194.19 1598.25,215.4 C1588,215.4 1577.75,215.41 1567.5,215.39 C1576.74,171.99 1585.87,128.56 1595.17,85.17 C1597.5,73.19 1599.69,60.72 1597.19,48.6 C1595.57,40.75 1590.47,33.17 1582.55,30.7 C1567.84,26.45 1550.9,32.39 1541.88,44.74 C1535.52,52.87 1532.52,62.95 1530.36,72.89 C1518.53,120.07 1509.59,167.9 1499.2,215.4 C1488.97,215.39 1478.73,215.42 1468.51,215.38 C1478.79,166.63 1489.21,117.9 1499.53,69.15 C1501.44,60.2 1503.55,51.18 1503.49,41.97 C1503.49,34.08 1500.93,26.49 1497.91,19.3 C1497.69,18.3 1496.45,16.58 1497.87,15.99 C1505.97,11.36 1514.14,6.85 1522.24,2.22 C1528.44,8.58 1531.95,17.17 1532.94,25.92 C1543.17,14.94 1555.82,5.17 1570.94,2.45 L1570.94,2.45 Z" id="Shape" fill="#84BD00"></path>
            <path d="M2032.97,1.95 C2042.4,0.87 2051.96,2.09 2061,4.9 C2056.45,14.85 2050.48,24.1 2045.58,33.88 C2035.33,28.58 2022.71,29.37 2012.57,34.55 C2003.18,39.37 1995.52,47.38 1990.88,56.84 C1986.88,64.74 1985.32,73.53 1982.99,81.99 C1976.88,105.07 1972.32,128.52 1967.38,151.87 C1962.67,173.3 1958.57,194.88 1953.57,216.24 C1943.43,216.11 1933.29,216.21 1923.15,216.19 C1927.25,194.53 1932.24,173.04 1936.69,151.45 C1942.32,124.96 1947.95,98.47 1953.57,71.98 C1955.42,62.73 1958.01,53.51 1957.8,43.98 C1958.27,34.26 1954.73,25.03 1951.44,16.07 C1959.99,11.57 1968.4,6.81 1976.92,2.26 C1982.2,7.86 1986.27,14.64 1987.97,22.2 C2000.83,11.65 2016.22,3.62 2032.97,1.95 L2032.97,1.95 Z" id="Shape" fill="#84BD00"></path>
            <path d="M2138.16,2.08 C2157.06,-0.51 2177.74,5.98 2189.65,21.38 C2191.55,24.22 2194.77,26.9 2194.69,30.54 C2187.52,36.18 2179.87,41.21 2172.58,46.7 C2167.19,40.91 2161.69,34.78 2154.21,31.71 C2145.31,27.5 2134.87,28.3 2125.96,32.01 C2111.25,38.06 2099.09,50.22 2093.11,64.95 C2089.19,75.55 2086.63,86.58 2083.88,97.52 C2080.96,108.74 2078.95,120.17 2077.02,131.6 C2075.67,140.03 2074.12,148.5 2074.04,157.06 C2074.03,167.76 2079.79,178.48 2089.31,183.62 C2101.36,190.41 2116.62,188.96 2128.55,182.67 C2136.37,178.54 2142.87,172.43 2149.35,166.51 C2150.45,165.38 2151.68,166.69 2152.66,167.33 C2158.03,171.52 2163.43,175.69 2168.79,179.92 C2158.32,194.37 2143.31,205.58 2126.47,211.49 C2107.56,217.95 2085.5,217.46 2068.15,206.9 C2055.4,199.27 2046.65,185.73 2044.31,171.13 C2042.09,159.85 2044.51,148.45 2045.87,137.24 C2049.62,113.25 2054.85,89.46 2062.13,66.29 C2072.64,32.94 2103.09,6.05 2138.16,2.08 L2138.16,2.08 Z" id="Shape" fill="#84BD00"></path>
            <path d="M2267.16,8.4 C2285.84,0.18 2307.62,-0.62 2326.88,6.1 C2339.22,10.46 2350.04,19.72 2354.85,32.08 C2361.26,48.01 2358.16,66.04 2351.37,81.32 C2345.59,94.32 2335.46,105.23 2323.01,112.09 C2305.08,122.16 2284.28,125.23 2264.04,126.51 C2252.96,127.22 2241.81,126.17 2230.78,127.29 C2229.66,137.18 2226.78,146.9 2227.21,156.93 C2227.21,165.51 2230.98,173.94 2237.15,179.87 C2243.74,186.12 2253.05,189.12 2262.07,188.48 C2276.39,187.66 2290.27,181.43 2300.67,171.59 C2304.01,168.53 2307.21,165.32 2310.16,161.87 C2317.02,165.07 2323.15,169.61 2329.85,173.13 C2313.83,198.67 2284.52,216.13 2254.07,215.65 C2238.1,215.95 2221.66,210.14 2210.57,198.41 C2201.15,188.42 2196.18,174.65 2196.18,160.98 C2195.97,154.34 2197.13,147.78 2197.99,141.23 C2201.38,116.47 2206.94,92.04 2214.16,68.13 C2221.92,41.73 2241.87,19.24 2267.16,8.4 L2267.16,8.4 Z" id="Shape" fill="#84BD00"></path>
            <path d="M193.1,23.72 C205.54,16.43 217.75,8.77 230.09,1.34 C236.14,6.12 239.8,13.29 241.04,20.82 C254.22,8.76 272.06,1.49 290.02,2.16 C306.5,2.14 323.28,8.24 334.87,20.17 C346.57,32.13 351.83,49.44 350.39,65.96 C348.92,80.68 346.22,95.26 342.79,109.65 C339.96,122.85 336.87,136.01 333,148.95 C325.86,172.25 308.78,191.85 287.69,203.73 C272.07,212.52 253.87,217.31 235.91,215.38 C226.8,213.99 218.35,209.43 211.93,202.85 C209.79,214.28 207.27,225.64 205.01,237.06 C203.87,242.42 203.04,247.86 201.41,253.11 C185.63,256.01 170.09,260.14 154.31,263.09 C168.17,198.36 182.24,133.68 196.23,68.98 C198.08,59.63 200.42,49.93 198.29,40.42 C197.13,34.68 194.16,29.49 193.1,23.72 L193.1,23.72 Z" id="Shape" fill="#4097DC"></path>
            <path d="M298.64,48.42 C304.43,54.27 306.34,62.95 305.49,70.95 C304.06,84.75 301.15,98.35 298.07,111.87 C295.69,123.02 293.24,134.18 290.01,145.13 C285.08,162.96 267.86,178.03 248.8,176.91 C241.59,176.98 234.41,173.7 229.94,168.02 C224.81,161.58 223.8,152.79 225.25,144.9 C229.12,119.94 234.4,95.18 241.42,70.91 C245.6,55.19 259.75,42.34 276.14,40.95 C284.21,40.07 292.97,42.38 298.64,48.42 Z" id="Shape" fill="#FFFFFF"></path>
            <path d="M386.49,23.98 C399.08,16.43 411.75,9 424.31,1.38 C430.35,5.69 434.24,12.28 436.01,19.41 C450.42,7.55 469.16,0.07 488.02,1.79 C493.44,2.02 498.53,4.02 503.84,4.92 C496.94,18.3 489.72,31.5 482.85,44.89 C475.3,39.76 465.11,40.29 457.19,44.3 C446.98,48.99 439.6,58.68 436.68,69.42 C433.01,83.47 429.29,97.51 425.89,111.63 C418.69,146.23 411.3,180.8 404.17,215.42 C389.13,215.5 374.1,215.45 359.06,215.44 C368.91,167.58 379.3,119.82 389.37,72 C391.17,63.44 393.26,54.79 392.73,45.97 C392.48,38.23 388.88,31.2 386.49,23.98 L386.49,23.98 Z" id="Shape" fill="#4097DC"></path>
            <path d="M505.68,68.4 C518.33,29.33 557.96,0.99 599.02,1.59 C615.48,1.85 632.84,5.41 645.76,16.24 C658.17,26.45 663.8,43.38 661.79,59.1 C659.75,76.22 652.86,93.16 640.57,105.48 C627.44,118.75 609.37,125.92 591.26,129.16 C572.95,132.74 554.24,131.71 535.71,131.51 C533.9,141.37 531.73,151.93 535.66,161.57 C538.62,169.87 546.32,176.05 554.98,177.44 C568.21,178.98 582.06,176.54 593.44,169.43 C598.59,166.52 603.18,162.75 608.35,159.89 C613.62,168.25 619.18,176.41 624.5,184.74 C610.61,200.73 590.74,210.82 570.04,214.5 C555.37,216.96 539.91,216.61 525.84,211.42 C511.16,206.16 498.36,195.05 492.36,180.51 C487.61,169.7 487.33,157.51 489.05,146 C492.44,119.74 497.68,93.66 505.68,68.4 L505.68,68.4 Z" id="Shape" fill="#4097DC"></path>
            <path d="M764.93,3.03 C780.12,0.35 796.02,1.36 810.69,6.15 C824.36,10.64 836.68,20.56 841.85,34.26 C847.97,49.38 845.12,66.38 839.41,81.15 C833.84,95.61 823.43,108.15 810.16,116.17 C793.38,126.47 773.55,130.32 754.14,131.55 C742.38,132.06 730.6,131.62 718.84,131.51 C717.04,141.47 714.75,152.21 718.95,161.91 C721.93,170.05 729.53,176.02 738.03,177.43 C750.05,178.79 762.59,177.04 773.33,171.28 C779.53,167.85 785.4,163.85 791.17,159.73 C796.83,167.95 802.21,176.38 807.63,184.76 C794.05,200.38 774.74,210.39 754.55,214.24 C737.39,217.46 718.94,216.57 703.03,208.89 C689.68,202.52 678.7,190.9 674.09,176.74 C670.27,165.91 670.81,154.13 672.61,142.96 C675.93,118.06 681.04,93.36 688.51,69.37 C699.13,35.38 730.05,9.23 764.93,3.03 L764.93,3.03 Z" id="Shape" fill="#4097DC"></path>
            <path d="M1106.48,2.63 C1122.49,-0.11 1139.79,2.42 1153.45,11.52 C1165.82,19.73 1174.3,33.27 1176.62,47.9 C1178.95,59.54 1176.57,71.32 1174.85,82.86 C1171.13,105.87 1165.85,128.62 1159.14,150.94 C1147.91,190.37 1106.9,219.26 1065.89,215.36 C1049.54,213.73 1033.39,205.64 1024.08,191.8 C1016.06,180.28 1013.28,165.61 1015.19,151.82 C1017.4,133.05 1020.43,114.35 1024.98,96 C1027.68,84.94 1030.28,73.82 1034.17,63.1 C1045.54,32.26 1073.87,7.93 1106.48,2.63 L1106.48,2.63 Z" id="Shape" fill="#84BD00"></path>
            <path d="M1812.5,12.53 C1828.53,3.42 1847.6,-0.37 1865.86,2.51 C1882.05,4.46 1898.54,12.65 1906.41,27.52 C1912.03,37.31 1912.57,48.97 1911.44,59.95 C1909.03,75.28 1902.52,90.32 1891.27,101.23 C1879.61,112.75 1863.91,119.18 1848.1,122.59 C1832.66,125.97 1816.78,126.93 1801.01,126.8 C1795.53,127.12 1790.03,126.44 1784.6,127.25 C1783.29,136.5 1781.11,145.65 1780.72,155.01 C1780.63,164.71 1784.61,174.56 1792.05,180.91 C1798.33,186.31 1806.75,188.92 1814.98,188.51 C1830.62,187.92 1845.64,180.64 1856.57,169.57 C1859.14,167.07 1861.62,164.47 1864.06,161.83 C1870.76,165.29 1877.01,169.55 1883.63,173.19 C1873.26,189.46 1857.73,202.48 1839.78,209.63 C1822.95,216.19 1803.73,218.05 1786.4,212.33 C1773.6,208.13 1762.38,199.01 1756.21,186.97 C1750.72,176.28 1748.75,163.85 1750.34,151.96 C1753.16,127.57 1757.96,103.43 1764.53,79.77 C1767.01,70.83 1769.46,61.78 1773.67,53.46 C1782.09,36.32 1795.82,21.84 1812.5,12.53 L1812.5,12.53 Z" id="Shape" fill="#84BD00"></path>
            <path d="M1110.6,28.91 C1118.68,28.32 1127.03,30.45 1133.61,35.26 C1142.13,41.28 1147.2,51.61 1147.29,62 C1147.14,68.67 1146.15,75.31 1145.05,81.88 C1142.38,97.64 1139,113.27 1135.37,128.83 C1133.43,136.56 1131.49,144.32 1128.84,151.84 C1122.97,167.86 1109.34,180.66 1093.26,186.13 C1084.25,189.19 1074.06,189.61 1065.23,185.78 C1056.59,182.25 1049.7,174.78 1046.9,165.88 C1044.28,158.21 1045.25,149.93 1046.43,142.08 C1049.02,124.96 1051.98,107.86 1056.45,91.11 C1059.04,81.36 1061.13,71.4 1065.03,62.06 C1073.41,44.46 1090.99,30.86 1110.6,28.91 L1110.6,28.91 Z" id="Shape" fill="#FFFFFF"></path>
            <path d="M1833.2,31.27 C1842.49,27.99 1852.78,28.12 1862.15,31.04 C1868.99,33.26 1875.19,38.08 1878.18,44.74 C1881.48,51.71 1881.07,59.86 1878.97,67.12 C1876.99,74.71 1873.15,81.97 1867.21,87.19 C1860.04,93.75 1850.51,96.97 1841.1,98.6 C1824.28,101.46 1807.17,100.04 1790.21,100.32 C1792.39,90.22 1794.65,80.13 1797.35,70.15 C1801.95,52.37 1815.89,37.34 1833.2,31.27 L1833.2,31.27 Z" id="Shape" fill="#FFFFFF"></path>
            <path d="M2280.65,30.87 C2290.88,27.69 2302.34,28.18 2312.14,32.57 C2320.5,36.26 2326.4,44.81 2326.71,53.97 C2327.42,69.34 2319.68,85.62 2305.6,92.71 C2290.69,100.35 2273.39,100.43 2257.03,100.38 C2250.16,100.33 2243.3,100.31 2236.45,100.32 C2238.07,92.67 2239.87,85.05 2241.71,77.45 C2243.18,71.86 2244.38,66.14 2246.93,60.91 C2253.5,46.91 2265.87,35.61 2280.65,30.87 L2280.65,30.87 Z" id="Shape" fill="#FFFFFF"></path>
            <path d="M554.49,59.55 C562.66,47.15 577.01,38.61 592.01,38.66 C598.71,38.94 605.92,40.24 611,44.97 C614.88,48.51 616.95,53.78 616.89,59 C617.26,70.29 611.66,81.95 601.83,87.8 C592.04,93.79 580.24,94.89 569.04,95.37 C560.34,95.41 551.64,95.28 542.94,95.28 C543.72,89.75 545.36,84.39 546.83,79.01 C548.84,72.34 550.61,65.44 554.49,59.55 L554.49,59.55 Z" id="Shape" fill="#FFFFFF"></path>
            <path d="M733.12,68.93 C739.97,48.4 763.58,34.14 784.86,40.03 C791.72,41.68 797.87,46.97 799.43,54.01 C801.47,62.38 798.98,71.37 794.54,78.55 C789.58,86.36 780.88,90.95 772.08,92.99 C756.96,96.62 741.33,95.03 725.95,95.27 C727.73,86.34 730.24,77.56 733.12,68.93 L733.12,68.93 Z" id="Shape" fill="#FFFFFF"></path>
            <path d="M1743.36,299.47 C1747.99,293 1756.19,289.76 1764.02,290.15 C1771.7,289.88 1779.36,292.58 1785.18,297.61 C1783.31,301.09 1781.45,304.57 1779.59,308.04 C1775.66,305.62 1771.66,302.96 1766.98,302.35 C1762.89,301.74 1758.21,302.1 1755.15,305.18 C1751.86,308.28 1752.48,314.31 1756.44,316.6 C1764.75,322.21 1775.84,323.5 1782.56,331.5 C1788.8,338.94 1787.43,351 1780.54,357.58 C1776.5,361.62 1770.81,363.51 1765.23,364 L1759.75,364 C1751.73,363.17 1744.02,359.82 1738.12,354.31 C1740.5,351.07 1742.85,347.81 1745.16,344.52 C1749.8,347.98 1754.95,351.4 1760.92,351.74 C1764.67,352.07 1769.06,351.73 1771.63,348.59 C1774.51,345.44 1773.97,340.06 1770.5,337.58 C1762.23,331.42 1750.89,330.12 1743.9,322.11 C1738.27,315.94 1738.59,306.03 1743.36,299.47 L1743.36,299.47 Z" id="Shape" fill="#68686A"></path>
            <path d="M1909.55,294.51 C1916.56,289.46 1925.87,289.37 1934.01,291.13 C1938.27,292.54 1943.22,294.08 1945.89,297.9 C1944.51,301.44 1942.48,304.67 1940.72,308.03 C1936.75,305.61 1932.72,302.93 1928.02,302.34 C1923.94,301.75 1919.23,302.1 1916.25,305.26 C1913.16,308.11 1913.39,313.69 1916.93,316.1 C1924.85,321.94 1935.6,323.08 1942.61,330.35 C1949.45,337.03 1949.04,348.88 1943.1,356 C1939.13,360.94 1932.86,363.38 1926.71,364 L1920.73,364 C1912.75,363.14 1905.13,359.76 1899.23,354.32 C1901.6,351.08 1903.96,347.83 1906.27,344.53 C1911.65,348.65 1917.97,352.38 1925.03,351.8 C1929.52,352.05 1934.43,348.81 1934.57,344.03 C1934.99,340.35 1932.07,337.51 1929.15,335.85 C1922.66,332.14 1915.27,330.15 1909.13,325.82 C1905.45,323.22 1902.29,319.53 1901.35,315.03 C1899.36,307.34 1903.02,298.88 1909.55,294.51 L1909.55,294.51 Z" id="Shape" fill="#68686A"></path>
            <path d="M2412.41,300.35 C2421.92,290.7 2436.81,288.03 2449.61,291.54 C2459.88,294.49 2468.7,302.28 2472.7,312.22 C2478.52,325.96 2475.23,343.1 2464.54,353.56 C2458.37,359.75 2449.87,363.36 2441.2,364 L2434.83,364 C2423.91,362.78 2413.46,356.86 2407.59,347.47 C2398.17,333.16 2399.75,312.24 2412.41,300.35 L2412.41,300.35 Z" id="Shape" fill="#68686A"></path>
            <path d="M2648.91,300.94 C2653.3,293.35 2662.45,289.66 2670.97,290.1 C2678.52,289.97 2686,292.72 2691.74,297.63 C2689.8,301.09 2687.9,304.58 2686.08,308.09 C2680.04,303.82 2672.29,300.31 2664.89,303.03 C2660.22,304.61 2657.42,311 2661.06,314.94 C2665.33,319.28 2671.55,320.69 2676.9,323.28 C2683.15,326.01 2689.8,329.95 2692.04,336.83 C2693.8,342.92 2693.04,349.97 2689.17,355.13 C2685.25,360.65 2678.48,363.4 2671.93,364 L2666.6,364 C2658.5,363.36 2650.93,359.83 2644.77,354.64 C2646.79,351.2 2649.12,347.96 2651.49,344.74 C2657.08,348.32 2663.05,352.38 2670.05,351.81 C2674.64,352.2 2679.91,349.03 2679.87,344 C2680.38,340.24 2677.28,337.44 2674.34,335.75 C2667.85,332.06 2660.46,330.09 2654.35,325.72 C2646.12,320.69 2643.91,308.98 2648.91,300.94 L2648.91,300.94 Z" id="Shape" fill="#68686A"></path>
            <path d="M2705.24,290.44 C2710.89,290.46 2716.56,290.43 2722.23,290.47 L2722.23,293.42 C2719.89,293.42 2717.59,293.43 2715.31,293.44 C2715.28,299.71 2715.31,305.98 2715.28,312.25 C2714.51,312.27 2712.96,312.3 2712.19,312.31 C2711.9,306.01 2712.46,299.7 2711.83,293.41 C2709.6,293.42 2707.39,293.43 2705.21,293.43 C2705.22,292.69 2705.23,291.19 2705.24,290.44 L2705.24,290.44 Z" id="Shape" fill="#686868"></path>
            <path d="M2727.03,290.43 C2728.09,290.44 2729.19,290.45 2730.32,290.46 C2732.91,294.39 2735.48,298.34 2738.03,302.3 C2740.62,298.37 2743.16,294.4 2745.72,290.45 L2749,290.45 L2749,312.91 C2748.32,312.61 2746.97,312.01 2746.29,311.71 C2745.24,306.55 2746.16,301.11 2745.76,295.85 C2743.19,299.79 2740.63,303.75 2737.99,307.63 C2735.33,303.72 2732.76,299.75 2730.24,295.76 C2730.11,301.25 2730.14,306.75 2730.14,312.24 C2729.39,312.28 2727.89,312.35 2727.13,312.38 C2726.61,305.08 2726.74,297.74 2727.03,290.43 L2727.03,290.43 Z" id="Shape" fill="#68686A"></path>
            <path d="M876.41,291.23 C885.3,291.25 894.18,291.18 903.07,291.26 C909.92,291.35 917.44,293.77 921.32,299.8 C926.65,307.97 924.12,320.2 915.5,325.09 C921.25,326.92 925.6,332.02 926.56,337.96 C927.18,342.85 927.03,348.14 924.36,352.45 C920.33,359.45 911.84,362.58 904.09,362.67 C894.86,362.77 885.64,362.68 876.41,362.71 C876.4,338.88 876.41,315.05 876.41,291.23 L876.41,291.23 Z" id="Shape" fill="#68686A"></path>
            <path d="M950.16,291.22 C964.39,291.23 978.61,291.23 992.84,291.23 L992.84,302.45 C982.95,302.46 973.06,302.45 963.18,302.45 C963.17,308.7 963.14,314.94 963.21,321.19 C971.21,321.19 979.21,321.2 987.21,321.19 C987.21,324.93 987.22,328.67 987.2,332.42 L963.19,332.42 C963.17,338.8 963.16,345.19 963.18,351.57 C973.63,351.56 984.08,351.57 994.53,351.57 C994.53,355.28 994.53,358.99 994.54,362.7 C979.75,362.73 964.96,362.7 950.16,362.71 C950.14,338.88 950.15,315.05 950.16,291.22 L950.16,291.22 Z" id="Shape" fill="#68686A"></path>
            <path d="M1017.7,291.26 C1022.05,291.21 1026.4,291.22 1030.76,291.23 C1030.77,301.33 1030.76,311.44 1030.76,321.55 C1041.66,321.56 1052.57,321.56 1063.47,321.55 C1063.49,311.44 1063.47,301.33 1063.49,291.22 C1067.83,291.22 1072.18,291.22 1076.53,291.24 C1076.53,315.06 1076.52,338.87 1076.54,362.68 C1072.2,362.72 1067.85,362.46 1063.53,362.84 C1063.44,352.8 1063.51,342.77 1063.46,332.73 C1052.56,332.72 1041.67,332.72 1030.77,332.73 C1030.75,342.72 1030.77,352.71 1030.76,362.71 C1026.41,362.71 1022.06,362.71 1017.72,362.69 C1017.71,338.88 1017.73,315.07 1017.7,291.26 L1017.7,291.26 Z" id="Shape" fill="#68686A"></path>
            <path d="M1103.32,291.23 C1107.66,291.22 1112.01,291.21 1116.36,291.26 C1116.35,315.06 1116.34,338.86 1116.37,362.66 C1112.01,362.73 1107.66,362.72 1103.32,362.71 C1103.32,338.88 1103.33,315.06 1103.32,291.23 L1103.32,291.23 Z" id="Shape" fill="#68686A"></path>
            <path d="M1143.73,291.34 C1148.17,291.17 1152.61,291.19 1157.06,291.28 C1163.68,301.55 1170.44,311.73 1177.12,321.97 C1181.6,329.04 1186.83,335.77 1189.72,343.72 C1189.19,326.23 1189.49,308.73 1189.42,291.23 C1193.74,291.22 1198.07,291.22 1202.41,291.24 L1202.41,362.7 C1198.03,362.72 1193.66,362.74 1189.3,362.66 C1182.6,352.37 1175.82,342.15 1169.1,331.89 C1164.62,324.9 1159.55,318.18 1156.55,310.38 C1156.99,327.82 1156.7,345.26 1156.79,362.71 C1152.43,362.72 1148.09,362.75 1143.75,362.62 C1143.76,338.86 1143.78,315.1 1143.73,291.34 L1143.73,291.34 Z" id="Shape" fill="#68686A"></path>
            <path d="M1230.2,291.22 C1238.81,291.26 1247.43,291.17 1256.05,291.26 C1265.14,291.37 1274.59,294.22 1281.18,300.73 C1285.88,305.18 1288.81,311.26 1290.14,317.55 C1291.83,326.75 1291.33,336.67 1287.06,345.14 C1283.15,353.1 1275.54,358.93 1267.03,361.19 C1260.52,363.2 1253.66,362.63 1246.96,362.71 L1230.19,362.71 C1230.2,338.88 1230.19,315.05 1230.2,291.22 L1230.2,291.22 Z" id="Shape" fill="#68686A"></path>
            <path d="M1334.5,291.22 C1354.48,291.22 1374.47,291.23 1394.46,291.22 C1394.48,294.96 1394.48,298.7 1394.47,302.44 C1386.64,302.46 1378.81,302.44 1370.99,302.46 C1370.58,322.54 1370.99,342.63 1370.81,362.71 C1366.47,362.72 1362.13,362.79 1357.8,362.56 C1357.91,342.52 1357.83,322.49 1357.85,302.45 C1350.06,302.45 1342.28,302.46 1334.5,302.44 C1334.48,298.7 1334.48,294.96 1334.5,291.22 L1334.5,291.22 Z" id="Shape" fill="#68686A"></path>
            <path d="M1412.65,291.22 C1416.98,291.22 1421.31,291.22 1425.65,291.24 C1425.63,301.34 1425.65,311.44 1425.64,321.55 C1436.55,321.55 1447.47,321.58 1458.38,321.53 L1458.38,291.23 C1462.71,291.22 1467.05,291.21 1471.39,291.27 C1471.38,315.07 1471.37,338.86 1471.4,362.66 C1467.05,362.73 1462.72,362.72 1458.39,362.7 C1458.36,352.71 1458.4,342.73 1458.36,332.74 C1447.46,332.71 1436.56,332.73 1425.66,332.73 C1425.62,342.72 1425.65,352.71 1425.65,362.7 C1421.3,362.71 1416.96,362.72 1412.63,362.7 C1412.65,338.87 1412.63,315.05 1412.65,291.22 L1412.65,291.22 Z" id="Shape" fill="#68686A"></path>
            <path d="M1499.58,291.25 C1513.86,291.2 1528.15,291.23 1542.44,291.23 C1542.45,294.97 1542.45,298.71 1542.44,302.45 C1532.5,302.47 1522.56,302.41 1512.62,302.48 C1512.63,308.72 1512.6,314.95 1512.65,321.19 C1520.65,321.2 1528.66,321.19 1536.67,321.2 C1536.67,324.94 1536.67,328.68 1536.64,332.42 C1528.63,332.43 1520.62,332.38 1512.62,332.45 C1512.63,338.81 1512.62,345.17 1512.63,351.53 C1523.16,351.64 1533.7,351.48 1544.24,351.62 C1544.22,355.29 1544.22,358.95 1544.25,362.62 C1529.36,362.81 1514.47,362.68 1499.59,362.69 C1499.57,338.88 1499.59,315.06 1499.58,291.25 L1499.58,291.25 Z" id="Shape" fill="#68686A"></path>
            <path d="M1602.24,291.22 C1610.83,291.24 1619.43,291.2 1628.03,291.23 C1634.28,291.22 1640.94,293 1645.4,297.61 C1652.66,305.5 1650.77,319.81 1641.24,325.08 C1653.26,328.74 1656.14,345.43 1648.67,354.54 C1644.2,360.03 1636.94,362.56 1630.03,362.67 C1620.76,362.78 1611.49,362.68 1602.23,362.71 C1602.24,338.88 1602.23,315.05 1602.24,291.22 L1602.24,291.22 Z" id="Shape" fill="#68686A"></path>
            <path d="M1675.35,291.23 C1689.64,291.23 1703.93,291.21 1718.22,291.24 L1718.22,302.43 C1708.28,302.48 1698.35,302.43 1688.42,302.46 C1688.41,308.71 1688.37,314.96 1688.45,321.21 C1696.45,321.18 1704.44,321.2 1712.45,321.2 C1712.45,324.94 1712.45,328.68 1712.43,332.42 C1704.42,332.41 1696.42,332.42 1688.42,332.42 C1688.41,338.8 1688.4,345.19 1688.42,351.57 C1698.85,351.56 1709.28,351.58 1719.71,351.56 C1719.72,355.28 1719.72,358.99 1719.72,362.71 L1675.35,362.71 L1675.35,291.23 L1675.35,291.23 Z" id="Shape" fill="#68686A"></path>
            <path d="M1801.83,291.23 C1821.79,291.22 1841.76,291.23 1861.73,291.23 C1861.72,294.97 1861.73,298.71 1861.72,302.46 C1853.93,302.45 1846.15,302.45 1838.38,302.46 C1838.37,322.54 1838.39,342.63 1838.37,362.72 C1834.02,362.71 1829.67,362.71 1825.34,362.71 C1825.35,342.62 1825.33,322.54 1825.35,302.45 C1817.5,302.44 1809.67,302.46 1801.83,302.45 C1801.82,298.7 1801.82,294.97 1801.83,291.23 L1801.83,291.23 Z" id="Shape" fill="#68686A"></path>
            <path d="M1960.78,291.38 C1980.79,291.02 2000.81,291.33 2020.83,291.22 C2020.83,294.96 2020.83,298.71 2020.84,302.45 C2013.06,302.46 2005.28,302.45 1997.51,302.45 C1997.52,322.53 1997.5,342.62 1997.52,362.7 C1993.16,362.72 1988.81,362.72 1984.47,362.71 C1984.47,342.62 1984.46,322.54 1984.47,302.46 C1976.59,302.42 1968.7,302.51 1960.83,302.4 C1960.9,298.73 1960.9,295.05 1960.78,291.38 L1960.78,291.38 Z" id="Shape" fill="#68686A"></path>
            <path d="M2054.92,292.12 C2068.48,287.58 2084.84,290.5 2094.76,301.21 C2108.08,314.68 2107.88,338.42 2095.06,352.15 C2088.91,359.1 2079.96,363.19 2070.78,364 L2064.61,364 C2055.1,363.1 2045.82,358.71 2039.65,351.33 C2030.88,341 2028.32,325.87 2033.16,313.22 C2036.78,303.39 2045.02,295.49 2054.92,292.12 L2054.92,292.12 Z" id="Shape" fill="#68686A"></path>
            <path d="M2125.35,291.23 C2135.04,291.3 2144.73,291.05 2154.42,291.38 C2160.38,291.54 2166.37,294.07 2170.07,298.86 C2178.17,309.2 2175.01,326.66 2162.83,332.44 C2168.03,341.97 2173.42,351.4 2178.52,360.99 L2179.34,362.61 C2174.5,362.7 2169.67,362.68 2164.85,362.65 C2160.3,353.82 2155.5,345.12 2150.94,336.29 C2146.75,336.23 2142.57,336.23 2138.4,336.25 C2138.39,345.06 2138.39,353.87 2138.41,362.68 C2134.04,362.72 2129.69,362.72 2125.35,362.7 C2125.34,338.88 2125.35,315.05 2125.35,291.23 L2125.35,291.23 Z" id="Shape" fill="#68686A"></path>
            <path d="M2201.88,291.26 C2216.17,291.18 2230.46,291.24 2244.76,291.23 C2244.75,294.97 2244.74,298.7 2244.75,302.44 C2234.87,302.46 2225,302.45 2215.13,302.45 C2215.13,308.7 2215.09,314.95 2215.16,321.2 C2223.15,321.2 2231.13,321.16 2239.13,321.23 L2239.13,332.4 C2231.12,332.44 2223.12,332.41 2215.13,332.41 C2215.12,338.8 2215.11,345.19 2215.13,351.57 C2225.56,351.56 2235.99,351.56 2246.43,351.57 C2246.42,355.28 2246.42,358.99 2246.44,362.7 C2231.58,362.71 2216.73,362.75 2201.88,362.68 C2201.87,338.87 2201.88,315.07 2201.88,291.26 L2201.88,291.26 Z" id="Shape" fill="#68686A"></path>
            <path d="M2268.19,291.22 C2281.89,291.27 2295.59,291.14 2309.29,291.3 C2309.26,295 2309.27,298.71 2309.28,302.42 C2299.93,302.49 2290.58,302.43 2281.24,302.45 C2281.24,309.17 2281.24,315.88 2281.25,322.6 C2289.05,322.59 2296.86,322.6 2304.67,322.58 C2304.7,326.32 2304.7,330.06 2304.71,333.79 C2296.91,333.79 2289.12,333.82 2281.33,333.78 C2281.14,343.41 2281.28,353.04 2281.25,362.67 C2276.89,362.73 2272.53,362.71 2268.19,362.71 C2268.17,338.88 2268.17,315.05 2268.19,291.22 L2268.19,291.22 Z" id="Shape" fill="#68686A"></path>
            <path d="M2331.52,291.23 C2339.01,291.22 2346.5,291.22 2354.01,291.23 C2360.13,291.22 2366.81,291.18 2372.04,294.89 C2380.27,300.28 2382.46,311.65 2379.46,320.57 C2377.81,325.84 2373.74,329.87 2368.99,332.47 C2374.71,342.46 2380.12,352.63 2385.76,362.66 C2380.9,362.73 2376.05,362.72 2371.21,362.71 C2366.43,353.94 2361.82,345.08 2357.12,336.28 C2352.92,336.24 2348.73,336.24 2344.56,336.25 C2344.58,345.06 2344.54,353.88 2344.58,362.69 C2340.18,362.67 2335.78,362.68 2331.41,362.63 C2331.68,338.84 2331.44,315.03 2331.52,291.23 L2331.52,291.23 Z" id="Shape" fill="#68686A"></path>
            <path d="M2497.24,291.23 C2501.59,291.22 2505.95,291.19 2510.32,291.29 C2515.75,299.93 2521.47,308.38 2527.03,316.94 C2532.65,325.71 2538.89,334.15 2543.29,343.65 C2541.89,326.23 2542.92,308.72 2542.59,291.27 C2546.9,291.21 2551.23,291.22 2555.57,291.23 C2555.56,315.06 2555.57,338.88 2555.56,362.71 C2551.19,362.71 2546.83,362.73 2542.49,362.67 C2536.3,353.11 2530,343.62 2523.76,334.1 C2518.75,326.37 2513.23,318.9 2509.63,310.37 C2510.84,327.76 2510.06,345.22 2510.3,362.64 C2505.93,362.74 2501.58,362.72 2497.24,362.71 C2497.23,338.88 2497.23,315.06 2497.24,291.23 L2497.24,291.23 Z" id="Shape" fill="#68686A"></path>
            <path d="M2574.32,291.23 C2594.3,291.24 2614.27,291.2 2634.25,291.25 C2634.24,294.97 2634.24,298.7 2634.25,302.43 C2626.4,302.48 2618.56,302.43 2610.73,302.46 C2610.72,322.55 2610.72,342.63 2610.73,362.71 C2606.37,362.71 2602.02,362.72 2597.69,362.69 C2597.7,342.61 2597.69,322.53 2597.69,302.45 C2589.9,302.45 2582.11,302.45 2574.33,302.46 C2574.3,298.71 2574.31,294.97 2574.32,291.23 L2574.32,291.23 Z" id="Shape" fill="#68686A"></path>
            <path d="M889.47,302.45 C894.69,302.66 900.01,301.96 905.19,302.89 C912.85,305.09 912.59,317.66 905.11,319.94 C899.99,320.97 894.67,320.16 889.47,320.41 C889.46,314.42 889.46,308.43 889.47,302.45 L889.47,302.45 Z" id="Shape" fill="#FFFFFF"></path>
            <path d="M1615.23,302.45 C1620.48,302.7 1625.86,301.87 1631.06,302.97 C1638.59,305.26 1638.3,317.72 1630.86,319.96 C1625.72,320.94 1620.42,320.17 1615.22,320.4 C1615.22,314.42 1615.22,308.43 1615.23,302.45 L1615.23,302.45 Z" id="Shape" fill="#FFFFFF"></path>
            <path d="M2062.36,302.57 C2070.1,300.94 2078.7,302.94 2084.24,308.79 C2093.87,318.35 2093.51,335.49 2084.11,345.07 C2078.85,350.67 2070.56,353.27 2063.07,351.56 C2056.11,350.21 2050.1,345.29 2047.06,338.94 C2043.12,330.86 2043.19,320.68 2047.97,312.97 C2051.09,307.74 2056.42,303.91 2062.36,302.57 L2062.36,302.57 Z" id="Shape" fill="#FFFFFF"></path>
            <path d="M2138.4,302.45 C2144.12,302.7 2150.07,301.69 2155.61,303.57 C2164.34,307.09 2162.8,322.52 2153.55,324.37 C2148.53,325.08 2143.44,324.56 2138.4,324.71 C2138.39,317.29 2138.39,309.87 2138.4,302.45 L2138.4,302.45 Z" id="Shape" fill="#FFFFFF"></path>
            <path d="M2433.35,302.53 C2440.84,301.06 2449.15,302.83 2454.61,308.4 C2465.53,318.62 2464.16,338.33 2452.4,347.36 C2444.9,353.28 2433.69,353.61 2425.84,348.21 C2416.08,341.72 2412.81,328.21 2416.57,317.45 C2419.17,310.07 2425.65,304.15 2433.35,302.53 L2433.35,302.53 Z" id="Shape" fill="#FFFFFF"></path>
            <path d="M1243.22,302.46 C1251.27,302.63 1260.02,301.37 1267.26,305.76 C1274.53,310.04 1277.83,318.81 1277.55,326.95 C1277.77,334.9 1274.83,343.52 1267.83,347.93 C1260.53,352.71 1251.47,351.4 1243.23,351.56 C1243.22,335.19 1243.24,318.83 1243.22,302.46 L1243.22,302.46 Z" id="Shape" fill="#FFFFFF"></path>
            <path d="M2344.57,302.46 C2350.48,302.71 2356.69,301.61 2362.36,303.79 C2370.45,307.79 2368.88,322.32 2359.95,324.32 C2354.85,325.11 2349.67,324.57 2344.56,324.69 C2344.56,317.28 2344.56,309.87 2344.57,302.46 L2344.57,302.46 Z" id="Shape" fill="#FFFFFF"></path>
            <path d="M889.53,330.83 C895.43,331.06 901.48,330.16 907.27,331.62 C913.3,333.44 915.18,341.28 912.45,346.47 C910.95,349.63 907.45,351.49 904.03,351.51 C899.17,351.69 894.31,351.51 889.46,351.56 C889.49,344.65 889.4,337.74 889.53,330.83 L889.53,330.83 Z" id="Shape" fill="#FFFFFF"></path>
            <path d="M1615.23,331.18 C1621.45,331.64 1627.95,329.67 1633.96,331.97 C1641.89,335.44 1640.95,349.1 1632.39,351.16 C1626.73,352.04 1620.95,351.36 1615.24,351.57 C1615.21,344.77 1615.23,337.98 1615.23,331.18 L1615.23,331.18 Z" id="Shape" fill="#FFFFFF"></path>
            <path d="M2178.52,360.99 C2179.02,361.99 2179.55,362.99 2180.1,364 L2165.62,364 C2165.43,363.66 2165.04,362.99 2164.85,362.65 C2169.67,362.68 2174.5,362.7 2179.34,362.61 L2178.52,360.99 L2178.52,360.99 Z" id="Shape" fill="#EDEDED"></path>
            <path d="M1063.53,362.84 C1067.85,362.46 1072.2,362.72 1076.54,362.68 L1076.54,364 L1062.64,364 L1063.53,362.84 L1063.53,362.84 Z" id="Shape" fill="#EDEDED"></path>
            <path d="M2331.41,362.63 C2335.78,362.68 2340.18,362.67 2344.58,362.69 L2344.59,364 L2331.08,364 C2331.16,363.66 2331.32,362.97 2331.41,362.63 L2331.41,362.63 Z" id="Shape" fill="#EDEDED"></path>
        </g>
    </g>
</svg>