<?xml version="1.0" encoding="UTF-8" standalone="no"?>
<svg width="2433px" height="264px" viewBox="0 0 2433 264" version="1.1" xmlns="http://www.w3.org/2000/svg" xmlns:xlink="http://www.w3.org/1999/xlink">
    <!-- Generator: Sketch 3.6.1 (26313) - http://www.bohemiancoding.com/sketch -->
    <title>highres_193108562 (1)</title>
    <desc>Created with Sketch.</desc>
    <defs></defs>
    <g id="Page-1" stroke="none" stroke-width="1" fill="none" fill-rule="evenodd">
        <g id="highres_193108562-(1)">
            <path d="M2366.53,0 L2392.28,0 C2392.25,1.47 2392.24,2.95 2392.27,4.42 C2388.72,4.45 2385.2,4.46 2381.68,4.48 C2381.66,13.88 2381.68,23.28 2381.67,32.68 C2380.15,32.67 2378.66,32.67 2377.21,32.66 C2377.19,23.28 2377.19,13.91 2377.21,4.53 C2373.63,4.46 2370.06,4.45 2366.52,4.43 C2366.49,2.95 2366.49,1.48 2366.53,0 L2366.53,0 Z" id="Shape" fill="#84BD00"></path>
            <path d="M2399.4,0 L2404.34,0 C2408.36,5.85 2412.07,11.92 2416.03,17.82 C2419.95,11.91 2423.58,5.81 2427.64,0 L2432.49,0 C2432.48,10.89 2432.49,21.78 2432.49,32.67 C2430.88,32.65 2429.32,32.63 2427.77,32.6 C2427.73,24.39 2427.85,16.17 2427.69,7.96 C2423.77,13.89 2419.92,19.86 2415.94,25.74 C2411.91,19.89 2408.08,13.92 2404.28,7.93 C2404.09,16.15 2404.2,24.38 2404.19,32.6 C2402.57,32.63 2400.97,32.66 2399.4,32.69 C2399.39,21.79 2399.4,10.9 2399.4,0 L2399.4,0 Z" id="Shape" fill="#84BD00"></path>
            <path d="M40.09,34.06 C62.33,5.21 104.51,-6.64 138.23,7.71 C149.58,12.67 160.45,20.9 165.33,32.6 C154.83,40.53 144.67,48.92 134.2,56.9 C129.95,52.76 125.59,48.67 120.62,45.38 C107.46,36.5 87.54,37.44 76.98,49.95 C73.14,54.2 72.5,60.48 74.07,65.82 C76.4,72.8 82.21,77.8 87.82,82.21 C102.15,92.87 118.66,100.79 131.01,113.95 C138.54,121.77 143.64,132.11 144.19,143.04 C144.94,159.53 137.86,175.77 126.61,187.64 C103.19,213.02 64.08,222.17 31.73,210.26 C16.53,204.63 4.6,191.49 0,176.01 L0,174.86 C11.71,168.26 23.3,161.46 35.05,154.95 C39.14,161.63 43.73,168.34 50.51,172.55 C61.5,179.18 76.31,179.25 87.03,172 C93.18,168.05 98.84,161.68 98.72,153.96 C98.96,145.93 93.04,139.51 87.11,134.9 C73.46,124.32 57.42,117.05 44.72,105.21 C37.31,98.41 31.22,89.76 28.98,79.83 C25.2,63.92 30.18,46.8 40.09,34.06 L40.09,34.06 Z" id="Shape" fill="#4097DC"></path>
            <path d="M955.89,2.46 C971.29,-0.04 988.04,2.69 1000.68,12.24 C1006.87,17.06 1012.36,23.03 1015.78,30.16 C1008.24,35.82 1000.52,41.22 992.91,46.76 C985.73,37.69 975.76,29.8 963.83,28.92 C951.78,28.26 940.2,33.73 931.08,41.25 C921.95,48.81 914.98,59.01 911.65,70.41 C903.73,96.74 897.89,123.74 894.73,151.06 C893.5,160.68 895.91,171.11 902.84,178.17 C910.86,186.81 923.61,189.52 934.92,187.48 C949.04,185.23 960.58,175.72 970.22,165.74 C977.02,169.6 982.7,175.15 989.04,179.7 C986.05,185.22 981.34,189.55 976.77,193.74 C961.61,207.34 941.56,216.15 920.99,215.65 C905.15,215.74 888.81,209.95 877.94,198.14 C867.51,187.22 863.01,171.59 863.96,156.72 C867,126.85 873.2,97.31 881.86,68.57 C891.51,35.05 921.1,7.57 955.89,2.46 L955.89,2.46 Z" id="Shape" fill="#84BD00"></path>
            <path d="M1281.71,6.74 C1296.12,-0.21 1314.09,-0.39 1328.04,7.8 C1337.26,13.16 1343.49,22.28 1347.83,31.8 C1357.09,16.51 1373.64,6.7 1390.83,2.95 C1408.29,-1.02 1428.57,3.69 1440.17,17.97 C1452.49,32.81 1454.46,53.63 1451.28,72.04 C1447.79,91.78 1443.35,111.34 1439.23,130.96 C1433.25,159.11 1427.25,187.25 1421.25,215.39 C1411,215.41 1400.76,215.41 1390.51,215.39 C1398.35,178.23 1406.29,141.1 1414.1,103.94 C1416.77,91.66 1419.87,79.42 1420.94,66.86 C1421.97,57.82 1421.4,48.1 1416.86,40.01 C1413.67,34.24 1407.54,30.47 1401.08,29.66 C1391.48,28.48 1381.35,30.7 1373.47,36.4 C1367.3,40.67 1362.73,46.89 1359.48,53.57 C1355.13,62.56 1353.66,72.53 1351.12,82.09 C1346.03,101.98 1342.31,122.18 1337.89,142.23 C1332.64,166.61 1327.44,190.99 1322.24,215.38 C1311.98,215.41 1301.72,215.4 1291.46,215.39 C1300.79,171.57 1309.97,127.72 1319.38,83.92 C1321.68,70.91 1324.45,57.03 1319.8,44.21 C1317.44,37.33 1311.66,31.68 1304.47,30.12 C1294.42,28.06 1283.49,30.15 1275.01,35.98 C1268.64,40.24 1263.85,46.53 1260.53,53.37 C1256.15,62.2 1254.72,72.05 1252.21,81.49 C1246.57,103.99 1241.81,126.69 1237.12,149.4 C1232.45,171.38 1227.84,193.38 1223.21,215.37 C1212.94,215.43 1202.67,215.4 1192.41,215.39 C1202.76,166.81 1213.06,118.21 1223.39,69.62 C1225.79,58.24 1228.72,46.53 1226.79,34.85 C1225.83,28.4 1222.87,22.54 1221.03,16.35 C1229.48,11.74 1237.82,6.94 1246.21,2.21 C1252.41,8.57 1255.86,17.15 1256.91,25.89 C1264.11,18.29 1272.17,11.26 1281.71,6.74 L1281.71,6.74 Z" id="Shape" fill="#84BD00"></path>
            <path d="M1570.94,2.45 C1583.78,0.08 1597.95,2.53 1608.35,10.73 C1615.14,16.05 1620.06,23.41 1623.5,31.24 C1626.3,28.77 1628.06,25.37 1630.71,22.75 C1642.06,10.84 1657.9,3.55 1674.2,1.8 C1686.31,0.81 1699.08,3.59 1708.91,10.99 C1722.48,21.08 1728.52,38.55 1728.6,54.98 C1729.05,65.82 1726.54,76.44 1724.54,87.01 C1715.62,129.84 1706.36,172.6 1697.28,215.4 C1687.02,215.39 1676.76,215.43 1666.5,215.38 C1674.72,177.15 1682.76,138.88 1690.85,100.63 C1692.87,92.04 1694.69,83.4 1696.12,74.7 C1697.5,63.86 1698.72,52.24 1693.97,42.01 C1691.15,35.61 1685.02,30.91 1678.12,29.83 C1668.01,28.26 1657.18,30.64 1648.95,36.8 C1642.47,41.45 1637.85,48.26 1634.65,55.48 C1631.15,63.39 1629.8,72 1627.6,80.32 C1621.57,103.95 1617.22,127.96 1611.89,151.75 C1607.35,172.97 1602.85,194.19 1598.25,215.4 C1588,215.4 1577.75,215.41 1567.5,215.39 C1576.74,171.99 1585.87,128.56 1595.17,85.17 C1597.5,73.19 1599.69,60.72 1597.19,48.6 C1595.57,40.75 1590.47,33.17 1582.55,30.7 C1567.84,26.45 1550.9,32.39 1541.88,44.74 C1535.52,52.87 1532.52,62.95 1530.36,72.89 C1518.53,120.07 1509.59,167.9 1499.2,215.4 C1488.97,215.39 1478.73,215.42 1468.51,215.38 C1478.79,166.63 1489.21,117.9 1499.53,69.15 C1501.44,60.2 1503.55,51.18 1503.49,41.97 C1503.49,34.08 1500.93,26.49 1497.91,19.3 C1497.69,18.3 1496.45,16.58 1497.87,15.99 C1505.97,11.36 1514.14,6.85 1522.24,2.22 C1528.44,8.58 1531.95,17.17 1532.94,25.92 C1543.17,14.94 1555.82,5.17 1570.94,2.45 L1570.94,2.45 Z" id="Shape" fill="#84BD00"></path>
            <path d="M2032.97,1.95 C2042.4,0.87 2051.96,2.09 2061,4.9 C2056.45,14.85 2050.48,24.1 2045.58,33.88 C2035.33,28.58 2022.71,29.37 2012.57,34.55 C2003.18,39.37 1995.52,47.38 1990.88,56.84 C1986.88,64.74 1985.32,73.53 1982.99,81.99 C1976.88,105.07 1972.32,128.52 1967.38,151.87 C1962.67,173.3 1958.57,194.88 1953.57,216.24 C1943.43,216.11 1933.29,216.21 1923.15,216.19 C1927.25,194.53 1932.24,173.04 1936.69,151.45 C1942.32,124.96 1947.95,98.47 1953.57,71.98 C1955.42,62.73 1958.01,53.51 1957.8,43.98 C1958.27,34.26 1954.73,25.03 1951.44,16.07 C1959.99,11.57 1968.4,6.81 1976.92,2.26 C1982.2,7.86 1986.27,14.64 1987.97,22.2 C2000.83,11.65 2016.22,3.62 2032.97,1.95 L2032.97,1.95 Z" id="Shape" fill="#84BD00"></path>
            <path d="M2138.16,2.08 C2157.06,-0.51 2177.74,5.98 2189.65,21.38 C2191.55,24.22 2194.77,26.9 2194.69,30.54 C2187.52,36.18 2179.87,41.21 2172.58,46.7 C2167.19,40.91 2161.69,34.78 2154.21,31.71 C2145.31,27.5 2134.87,28.3 2125.96,32.01 C2111.25,38.06 2099.09,50.22 2093.11,64.95 C2089.19,75.55 2086.63,86.58 2083.88,97.52 C2080.96,108.74 2078.95,120.17 2077.02,131.6 C2075.67,140.03 2074.12,148.5 2074.04,157.06 C2074.03,167.76 2079.79,178.48 2089.31,183.62 C2101.36,190.41 2116.62,188.96 2128.55,182.67 C2136.37,178.54 2142.87,172.43 2149.35,166.51 C2150.45,165.38 2151.68,166.69 2152.66,167.33 C2158.03,171.52 2163.43,175.69 2168.79,179.92 C2158.32,194.37 2143.31,205.58 2126.47,211.49 C2107.56,217.95 2085.5,217.46 2068.15,206.9 C2055.4,199.27 2046.65,185.73 2044.31,171.13 C2042.09,159.85 2044.51,148.45 2045.87,137.24 C2049.62,113.25 2054.85,89.46 2062.13,66.29 C2072.64,32.94 2103.09,6.05 2138.16,2.08 L2138.16,2.08 Z" id="Shape" fill="#84BD00"></path>
            <path d="M2267.16,8.4 C2285.84,0.18 2307.62,-0.62 2326.88,6.1 C2339.22,10.46 2350.04,19.72 2354.85,32.08 C2361.26,48.01 2358.16,66.04 2351.37,81.32 C2345.59,94.32 2335.46,105.23 2323.01,112.09 C2305.08,122.16 2284.28,125.23 2264.04,126.51 C2252.96,127.22 2241.81,126.17 2230.78,127.29 C2229.66,137.18 2226.78,146.9 2227.21,156.93 C2227.21,165.51 2230.98,173.94 2237.15,179.87 C2243.74,186.12 2253.05,189.12 2262.07,188.48 C2276.39,187.66 2290.27,181.43 2300.67,171.59 C2304.01,168.53 2307.21,165.32 2310.16,161.87 C2317.02,165.07 2323.15,169.61 2329.85,173.13 C2313.83,198.67 2284.52,216.13 2254.07,215.65 C2238.1,215.95 2221.66,210.14 2210.57,198.41 C2201.15,188.42 2196.18,174.65 2196.18,160.98 C2195.97,154.34 2197.13,147.78 2197.99,141.23 C2201.38,116.47 2206.94,92.04 2214.16,68.13 C2221.92,41.73 2241.87,19.24 2267.16,8.4 L2267.16,8.4 Z" id="Shape" fill="#84BD00"></path>
            <path d="M193.1,23.72 C205.54,16.43 217.75,8.77 230.09,1.34 C236.14,6.12 239.8,13.29 241.04,20.82 C254.22,8.76 272.06,1.49 290.02,2.16 C306.5,2.14 323.28,8.24 334.87,20.17 C346.57,32.13 351.83,49.44 350.39,65.96 C348.92,80.68 346.22,95.26 342.79,109.65 C339.96,122.85 336.87,136.01 333,148.95 C325.86,172.25 308.78,191.85 287.69,203.73 C272.07,212.52 253.87,217.31 235.91,215.38 C226.8,213.99 218.35,209.43 211.93,202.85 C209.79,214.28 207.27,225.64 205.01,237.06 C203.87,242.42 203.04,247.86 201.41,253.11 C185.63,256.01 170.09,260.14 154.31,263.09 C168.17,198.36 182.24,133.68 196.23,68.98 C198.08,59.63 200.42,49.93 198.29,40.42 C197.13,34.68 194.16,29.49 193.1,23.72 L193.1,23.72 Z" id="Shape" fill="#4097DC"></path>
            <path d="M298.64,48.42 C304.43,54.27 306.34,62.95 305.49,70.95 C304.06,84.75 301.15,98.35 298.07,111.87 C295.69,123.02 293.24,134.18 290.01,145.13 C285.08,162.96 267.86,178.03 248.8,176.91 C241.59,176.98 234.41,173.7 229.94,168.02 C224.81,161.58 223.8,152.79 225.25,144.9 C229.12,119.94 234.4,95.18 241.42,70.91 C245.6,55.19 259.75,42.34 276.14,40.95 C284.21,40.07 292.97,42.38 298.64,48.42 Z" id="Shape" fill="#FFFFFF"></path>
            <path d="M386.49,23.98 C399.08,16.43 411.75,9 424.31,1.38 C430.35,5.69 434.24,12.28 436.01,19.41 C450.42,7.55 469.16,0.07 488.02,1.79 C493.44,2.02 498.53,4.02 503.84,4.92 C496.94,18.3 489.72,31.5 482.85,44.89 C475.3,39.76 465.11,40.29 457.19,44.3 C446.98,48.99 439.6,58.68 436.68,69.42 C433.01,83.47 429.29,97.51 425.89,111.63 C418.69,146.23 411.3,180.8 404.17,215.42 C389.13,215.5 374.1,215.45 359.06,215.44 C368.91,167.58 379.3,119.82 389.37,72 C391.17,63.44 393.26,54.79 392.73,45.97 C392.48,38.23 388.88,31.2 386.49,23.98 L386.49,23.98 Z" id="Shape" fill="#4097DC"></path>
            <path d="M505.68,68.4 C518.33,29.33 557.96,0.99 599.02,1.59 C615.48,1.85 632.84,5.41 645.76,16.24 C658.17,26.45 663.8,43.38 661.79,59.1 C659.75,76.22 652.86,93.16 640.57,105.48 C627.44,118.75 609.37,125.92 591.26,129.16 C572.95,132.74 554.24,131.71 535.71,131.51 C533.9,141.37 531.73,151.93 535.66,161.57 C538.62,169.87 546.32,176.05 554.98,177.44 C568.21,178.98 582.06,176.54 593.44,169.43 C598.59,166.52 603.18,162.75 608.35,159.89 C613.62,168.25 619.18,176.41 624.5,184.74 C610.61,200.73 590.74,210.82 570.04,214.5 C555.37,216.96 539.91,216.61 525.84,211.42 C511.16,206.16 498.36,195.05 492.36,180.51 C487.61,169.7 487.33,157.51 489.05,146 C492.44,119.74 497.68,93.66 505.68,68.4 L505.68,68.4 Z" id="Shape" fill="#4097DC"></path>
            <path d="M764.93,3.03 C780.12,0.35 796.02,1.36 810.69,6.15 C824.36,10.64 836.68,20.56 841.85,34.26 C847.97,49.38 845.12,66.38 839.41,81.15 C833.84,95.61 823.43,108.15 810.16,116.17 C793.38,126.47 773.55,130.32 754.14,131.55 C742.38,132.06 730.6,131.62 718.84,131.51 C717.04,141.47 714.75,152.21 718.95,161.91 C721.93,170.05 729.53,176.02 738.03,177.43 C750.05,178.79 762.59,177.04 773.33,171.28 C779.53,167.85 785.4,163.85 791.17,159.73 C796.83,167.95 802.21,176.38 807.63,184.76 C794.05,200.38 774.74,210.39 754.55,214.24 C737.39,217.46 718.94,216.57 703.03,208.89 C689.68,202.52 678.7,190.9 674.09,176.74 C670.27,165.91 670.81,154.13 672.61,142.96 C675.93,118.06 681.04,93.36 688.51,69.37 C699.13,35.38 730.05,9.23 764.93,3.03 L764.93,3.03 Z" id="Shape" fill="#4097DC"></path>
            <path d="M1106.48,2.63 C1122.49,-0.11 1139.79,2.42 1153.45,11.52 C1165.82,19.73 1174.3,33.27 1176.62,47.9 C1178.95,59.54 1176.57,71.32 1174.85,82.86 C1171.13,105.87 1165.85,128.62 1159.14,150.94 C1147.91,190.37 1106.9,219.26 1065.89,215.36 C1049.54,213.73 1033.39,205.64 1024.08,191.8 C1016.06,180.28 1013.28,165.61 1015.19,151.82 C1017.4,133.05 1020.43,114.35 1024.98,96 C1027.68,84.94 1030.28,73.82 1034.17,63.1 C1045.54,32.26 1073.87,7.93 1106.48,2.63 L1106.48,2.63 Z" id="Shape" fill="#84BD00"></path>
            <path d="M1812.5,12.53 C1828.53,3.42 1847.6,-0.37 1865.86,2.51 C1882.05,4.46 1898.54,12.65 1906.41,27.52 C1912.03,37.31 1912.57,48.97 1911.44,59.95 C1909.03,75.28 1902.52,90.32 1891.27,101.23 C1879.61,112.75 1863.91,119.18 1848.1,122.59 C1832.66,125.97 1816.78,126.93 1801.01,126.8 C1795.53,127.12 1790.03,126.44 1784.6,127.25 C1783.29,136.5 1781.11,145.65 1780.72,155.01 C1780.63,164.71 1784.61,174.56 1792.05,180.91 C1798.33,186.31 1806.75,188.92 1814.98,188.51 C1830.62,187.92 1845.64,180.64 1856.57,169.57 C1859.14,167.07 1861.62,164.47 1864.06,161.83 C1870.76,165.29 1877.01,169.55 1883.63,173.19 C1873.26,189.46 1857.73,202.48 1839.78,209.63 C1822.95,216.19 1803.73,218.05 1786.4,212.33 C1773.6,208.13 1762.38,199.01 1756.21,186.97 C1750.72,176.28 1748.75,163.85 1750.34,151.96 C1753.16,127.57 1757.96,103.43 1764.53,79.77 C1767.01,70.83 1769.46,61.78 1773.67,53.46 C1782.09,36.32 1795.82,21.84 1812.5,12.53 L1812.5,12.53 Z" id="Shape" fill="#84BD00"></path>
            <path d="M1110.6,28.91 C1118.68,28.32 1127.03,30.45 1133.61,35.26 C1142.13,41.28 1147.2,51.61 1147.29,62 C1147.14,68.67 1146.15,75.31 1145.05,81.88 C1142.38,97.64 1139,113.27 1135.37,128.83 C1133.43,136.56 1131.49,144.32 1128.84,151.84 C1122.97,167.86 1109.34,180.66 1093.26,186.13 C1084.25,189.19 1074.06,189.61 1065.23,185.78 C1056.59,182.25 1049.7,174.78 1046.9,165.88 C1044.28,158.21 1045.25,149.93 1046.43,142.08 C1049.02,124.96 1051.98,107.86 1056.45,91.11 C1059.04,81.36 1061.13,71.4 1065.03,62.06 C1073.41,44.46 1090.99,30.86 1110.6,28.91 L1110.6,28.91 Z" id="Shape" fill="#FFFFFF"></path>
            <path d="M1833.2,31.27 C1842.49,27.99 1852.78,28.12 1862.15,31.04 C1868.99,33.26 1875.19,38.08 1878.18,44.74 C1881.48,51.71 1881.07,59.86 1878.97,67.12 C1876.99,74.71 1873.15,81.97 1867.21,87.19 C1860.04,93.75 1850.51,96.97 1841.1,98.6 C1824.28,101.46 1807.17,100.04 1790.21,100.32 C1792.39,90.22 1794.65,80.13 1797.35,70.15 C1801.95,52.37 1815.89,37.34 1833.2,31.27 L1833.2,31.27 Z" id="Shape" fill="#FFFFFF"></path>
            <path d="M2280.65,30.87 C2290.88,27.69 2302.34,28.18 2312.14,32.57 C2320.5,36.26 2326.4,44.81 2326.71,53.97 C2327.42,69.34 2319.68,85.62 2305.6,92.71 C2290.69,100.35 2273.39,100.43 2257.03,100.38 C2250.16,100.33 2243.3,100.31 2236.45,100.32 C2238.07,92.67 2239.87,85.05 2241.71,77.45 C2243.18,71.86 2244.38,66.14 2246.93,60.91 C2253.5,46.91 2265.87,35.61 2280.65,30.87 L2280.65,30.87 Z" id="Shape" fill="#FFFFFF"></path>
            <path d="M554.49,59.55 C562.66,47.15 577.01,38.61 592.01,38.66 C598.71,38.94 605.92,40.24 611,44.97 C614.88,48.51 616.95,53.78 616.89,59 C617.26,70.29 611.66,81.95 601.83,87.8 C592.04,93.79 580.24,94.89 569.04,95.37 C560.34,95.41 551.64,95.28 542.94,95.28 C543.72,89.75 545.36,84.39 546.83,79.01 C548.84,72.34 550.61,65.44 554.49,59.55 L554.49,59.55 Z" id="Shape" fill="#FFFFFF"></path>
            <path d="M733.12,68.93 C739.97,48.4 763.58,34.14 784.86,40.03 C791.72,41.68 797.87,46.97 799.43,54.01 C801.47,62.38 798.98,71.37 794.54,78.55 C789.58,86.36 780.88,90.95 772.08,92.99 C756.96,96.62 741.33,95.03 725.95,95.27 C727.73,86.34 730.24,77.56 733.12,68.93 L733.12,68.93 Z" id="Shape" fill="#FFFFFF"></path>
        </g>
    </g>
</svg>