<svg width="35" height="35" viewBox="0 0 35 35" xmlns="http://www.w3.org/2000/svg"><title>twitter</title><g fill="none" fill-rule="evenodd"><path d="M17.5 35C27.165 35 35 27.165 35 17.5S27.165 0 17.5 0 0 7.835 0 17.5 7.835 35 17.5 35z" fill-opacity=".01" fill="#FFF"/><path d="M17.682 13.554l.048.822-.795-.1c-2.893-.386-5.42-1.694-7.566-3.892l-1.05-1.09-.27.805c-.574 1.793-.21 3.69.984 4.963.636.704.492.805-.604.385-.38-.135-.715-.235-.746-.185-.112.117.27 1.644.572 2.247.413.84 1.256 1.66 2.178 2.147l.778.385-.92.017c-.892 0-.923.015-.828.37.318 1.09 1.574 2.245 2.973 2.75l.985.35-.858.537a8.66 8.66 0 0 1-4.26 1.24c-.716.018-1.304.085-1.304.135 0 .168 1.94 1.107 3.068 1.476 3.386 1.09 7.408.622 10.428-1.24 2.146-1.325 4.292-3.958 5.293-6.507.54-1.36 1.08-3.84 1.08-5.03 0-.77.047-.87.937-1.794.525-.537 1.018-1.124 1.113-1.292.16-.318.144-.318-.667-.033-1.35.504-1.542.437-.874-.32.49-.535 1.08-1.507 1.08-1.792 0-.052-.24.032-.51.183-.286.17-.92.42-1.4.57l-.857.286-.78-.553c-.428-.302-1.032-.637-1.35-.738-.81-.235-2.05-.2-2.782.067a4.806 4.806 0 0 0-3.1 4.83s-.142-2.13 0 0z" fill="#2BABEE"/></g></svg>