<svg width="35" height="35" viewBox="0 0 35 35" xmlns="http://www.w3.org/2000/svg"><title>twitter</title><g fill="none" fill-rule="evenodd"><path d="M17.5 35C27.165 35 35 27.165 35 17.5S27.165 0 17.5 0 0 7.835 0 17.5 7.835 35 17.5 35z" fill-opacity=".01" fill="#FFF"/><path d="M17.682 13.554l.048.822-.795-.1c-2.893-.386-5.42-1.694-7.566-3.892l-1.05-1.09-.27.805c-.58 1.79-.21 3.69.98 4.96.635.702.49.803-.605.383-.38-.135-.716-.235-.747-.185-.11.117.27 1.644.572 2.247.413.84 1.256 1.66 2.178 2.146l.78.386-.92.016c-.89 0-.922.015-.827.37.32 1.09 1.575 2.245 2.974 2.75l.985.35-.856.537a8.66 8.66 0 0 1-4.26 1.24c-.716.02-1.303.086-1.303.136 0 .167 1.94 1.106 3.07 1.475 3.385 1.09 7.407.623 10.427-1.24 2.146-1.324 4.292-3.957 5.293-6.506.54-1.36 1.08-3.84 1.08-5.03 0-.77.047-.87.937-1.796.525-.538 1.018-1.125 1.113-1.293.16-.318.143-.318-.668-.033-1.35.503-1.54.436-.872-.32.49-.536 1.08-1.508 1.08-1.793 0-.05-.24.032-.51.183-.286.17-.92.42-1.4.57l-.857.287-.78-.552c-.427-.3-1.03-.636-1.35-.737-.81-.233-2.05-.2-2.78.07a4.806 4.806 0 0 0-3.1 4.83s-.143-2.13 0 0z" fill="#2BABEE"/></g></svg>