<svg width="35" height="35" viewBox="0 0 35 35" xmlns="http://www.w3.org/2000/svg"><title>twitter</title><g fill="none" fill-rule="evenodd"><path d="M17.5 35C27.165 35 35 27.165 35 17.5S27.165 0 17.5 0 0 7.835 0 17.5 7.835 35 17.5 35z" fill-opacity=".01" fill="#FFF"/><path d="M17.682 13.554l.048.822-.795-.1c-2.893-.386-5.42-1.694-7.566-3.892l-1.05-1.09-.27.805c-.58 1.79-.21 3.69.98 4.96.63.7.49.8-.61.38-.38-.14-.72-.24-.75-.19-.11.116.27 1.643.57 2.246.413.84 1.256 1.66 2.178 2.146l.78.385-.92.016c-.89 0-.92.015-.827.37.32 1.09 1.576 2.245 2.975 2.75l.985.35-.857.537a8.66 8.66 0 0 1-4.26 1.24c-.718.02-1.305.086-1.305.136 0 .166 1.94 1.105 3.07 1.474 3.387 1.09 7.41.623 10.43-1.24 2.145-1.324 4.29-3.957 5.292-6.506.54-1.36 1.08-3.84 1.08-5.03 0-.77.048-.87.938-1.797.525-.538 1.018-1.125 1.113-1.293.16-.317.145-.317-.666-.032-1.35.502-1.54.435-.873-.32.49-.537 1.08-1.51 1.08-1.794 0-.05-.24.03-.51.183-.285.17-.92.42-1.4.57l-.856.288-.78-.554c-.427-.3-1.03-.637-1.35-.738-.81-.234-2.05-.2-2.78.07a4.806 4.806 0 0 0-3.1 4.83s-.143-2.13 0 0z" fill="#2BABEE"/></g></svg>