<svg xmlns="http://www.w3.org/2000/svg" height="332" width="610" viewBox="0 0 610 332"><title>Slice 1</title><g fill-rule="evenodd" fill="none"><path fill="#F47C46" d="M298.1 4.6l120.1-.3 92.2-1.8.7 91.5-3.1 148.8.3 68.1-19 2.6-169.5-5.6-17.5.1 5-5.2 26.4-27 147.5-1.7-.8-9.4 1.2-37.9-.2-122.6 1.2-40.3-.7-25.5-27.9.9-65-3-22.6-.9-35.3 1.4-1.9 2.4v19.3l1.9 32.2 1.8 38.1 2.8 100.1-1.4 49.5-29.4 29.5-3.7-.1-1.9-257.6-1.2-45.6z"/><g fill="#000"><path d="M316.8 40.8l.3.3-.3-.3zM329 17.6c0 .1.1.1.1.2 0-.1 0-.2-.1-.2.1-.1.1 0 0 0zM310 270c-.2-6.9-.1-13.7-.2-20.6-.1-8.5-.3-16.9-.4-25.4-.1-5.5 0-11-.4-16.5-.4-7.3-.3-14.7 0-22 .3-5 .5-10 .6-15.1.1-4.1 0-8.3 0-12.5 0-3.4-.1-6.8-.1-10.2 0-5.2-.2-10.4-.1-15.5.1-4 .5-8 .5-11.9 0-8.6-.2-17.2-.3-25.8-.1-3.4-.2-6.8-.2-10.2-.1-6.1-.1-12.1-.2-18.2 0-3.3-.3-6.5-.2-9.8.1-4.8.4-9.5.4-14.3 0-6 0-12-.2-18 0-2-.3-4.1-.4-6.2-1.8 0-1.5 1-1.5 1.7v14.9c0 3 .2 6.1.1 9.1-.1 4.9-.4 9.7-.4 14.6-.1 4.3.1 8.6.2 12.9.1 4 .3 8 .3 11.9.1 4.5-.2 8.9 0 13.4.4 8.1.6 16.1.3 24.2-.3 6-.3 12-.3 18 0 10.5.2 21.1.2 31.6 0 3-.2 5.9-.3 8.9-.2 7.7-.4 15.3-.5 23 0 2.9.3 5.9.4 8.8l.6 32.8c.1 4.6 0 9.3-.1 13.9 0 3.3-.3 6.7-.1 10 .3 5.3 1.2 10.6.7 16 0 .5.1 1.1.1 1.6 1.9.3 2.5-.1 2.4-1.3-.3-4.6-.8-9.2-.9-13.8zM315.3 39.6c.5.4.9.7 1.4 1.1l-.9-1.5c-.2.1-.3.2-.5.4zM316.8 40.8c0-.1-.1-.1-.1-.2 0 .1.1.1.1.2zM504.5 15.7c0-.4-.5-1.1-.9-1.2-.7-.2-1.2.4-1.2 1.1 0 2.1-.1 4.1 0 6.2.1 2.8.5 5.6.4 8.4-.4 9.2-.9 18.3-1.3 27.5-.2 4.1-.2 8.1-.2 12.2 0 3.3.3 6.7.3 10 0 7.4-.1 14.9-.2 22.3 0 3.7-.1 7.3-.1 11-.1 7-.4 14-.2 21.1.2 7.2.1 14.4-.5 21.5-.3 3.3-.6 6.7-.6 10 0 3.1.3 6.2.4 9.3.1 4.6.1 9.3.1 13.9-.1 8.1-.3 16.3-.4 24.4 0 2.3.3 4.6.2 6.9-.1 6.2-.5 12.5-.5 18.7 0 6.1.2 12.1.5 18.2.2 6 .7 12 1 17.9h-.2v7.9c0 .7.2 1.3 1.1 1.2.8-.1 1.1-.6 1-1.3v-.2c-.2-6.2-.5-12.4-.6-18.7-.2-8.7-.4-17.4-.5-26.1-.1-10 .1-19.9.2-29.9 0-5.2.3-10.4.3-15.6 0-6.6-.2-13.3-.2-19.9-.1-5.8-.3-11.7.3-17.5.5-4.1.7-8.3.7-12.4.1-10.2 0-20.4 0-30.7 0-5 .1-9.9.2-14.9 0-2.4.1-4.8.2-7.2.1-5.2.4-10.4.1-15.6-.5-6.8-.3-13.5.2-20.3.4-5.6.9-11.1 1-16.7.1-5.1-.3-10.2-.4-15.3-.4-1.8-.2-4-.2-6.2zM493.4 301.3h-8.1c-2 0-4-.1-6 .1-7.6 1-15.3.7-23 .6-9.7-.2-19.5-.8-29.2-1.1-8.7-.3-17.4-.5-26.1-.5-9.7 0-19.5.4-29.2.4-7.2 0-14.4 0-21.6-.3-9.4-.3-18.8-.8-28.3-1.2-.7 0-1.4-.2-2.1-.1-.4.1-.7.5-1.1.7.3.4.5 1 .9 1.2s.9.1 1.4.1c1.1.1 2.2.1 3.3.2 4.4.2 8.8.5 13.2.6 4.7.2 9.4.2 14.1.4 5.1.1 10.2.4 15.3.4 7.3 0 14.5-.4 21.8-.5 5-.1 9.9 0 14.9 0 7.3 0 14.7 0 22 .2 3.9.1 7.8.3 11.7.5 5.8.2 11.6.5 17.5.7 4.9.2 9.9.4 14.8.3 4.3-.1 8.6-.5 13.6-.8 2.2 0 5 0 7.9-.1 1.1 0 2.2 0 3.3-.2.4-.1.7-.6 1-1-.4-.3-.8-.6-1.2-.8-.1.1-.5.2-.8.2zM321.7 12.9c1.6.2 3.2.3 4.8.3 5.3.1 10.5 0 15.8.1 4.1.1 8.1.4 12.2.3 6.2-.1 12.4-.4 18.6-.6 4.5-.2 8.9-.3 13.4-.5 5.4-.3 10.8-.9 16.2-1.1 6.2-.2 12.5 0 18.7 0 8.1.1 16.1.2 24.2.2l23 .3c3.1 0 6.2.1 9.3.2 3 .1 5.9.3 8.8.5 1 .1 1.7 0 1.8-1.5-.4-.2-.7-.4-.9-.4-2.5-.2-4.9-.4-7.4-.4l-20.4-.3c-11.4-.2-22.8-.3-34.3-.5-2.8 0-5.6 0-8.4-.2-9.4-.5-18.7.3-28 .7-4.1.2-8.3.6-12.4.8s-8.3.4-12.4.5-8.1.3-12.2.3c-6.1-.1-12.3-.4-18.4-.6l-12.4-.3c-.5 0-1 .3-1.5.4 1 1.6 1 1.7 1.9 1.8zM329 17.5c.1.1.1 0 0 0zM327.5 15.4c-.1.1-.3.2-.4.4.6.6 1.3 1.2 1.9 1.7 0-1.1-.9-1.5-1.5-2.1zM404.2 115c.2-.4.8-.9.7-1.3-.5-3 .3-5.5 2.7-7.4.1-.1.2-.2.3-.4 1.2-1.4 2.8-1.8 4.6-1.8-2.1 1.1-4.6 1.8-4.7 4.9 1.2.3 2.2-.1 3.2.3.5.2 1.7-.9 2.5-1.4.2.9.2 1.8.7 2.4 1 1.4 3 1 3.9-.6.4-.7.3-1.9 1.5-1.9 1.5 0 1.7-1.1 2-2 1.5-.5 3.4.3 4.2-1.9-.5-.1-.9-.3-1.3-.2-2.1.5-4.1.2-6.1-.6-1.6-.7-3.3-1.3-5-1.4-7-.3-11.3 5.7-10.3 12.4.1.3.8.6 1.1.9zm13-6.4c0 .1.1.2.1.4-.4.2-.7.3-1.1.5-.1-.2-.2-.5-.1-.5.3-.2.7-.3 1.1-.4zM386.1 108.5c2.3-.6 4-1 5.8-1.5 0 .1 0 .2.1.3-1.2.7-2.4 1.3-3.6 2l.3.6c1.1-.3 2.1-.7 3.2-1 .8 3.3 1.7 3.6 5.4 2.3.1 1 .2 2 .4 3 1.3.3 1.8-.4 1.7-1.4-.1-1.5-.3-3-.7-4.5-1.1-3.4-3.5-5.6-7.1-6.2-1.4-.2-2.8-.3-4.3-.4-.2 0-.3.3-.6.5 1 2 3.5 1.3 4.8 2.7-2 .7-4.1 1.1-5.4 3.6zm9.6.3c-.2 1.4-.7 1.6-1.8 1.2.5-.4.9-.7 1.8-1.2zM408.9 131.3c-1.7.7-3.5 1.3-5.3 1-1.6-.2-3.1-.7-4.7-.7-1.4 0-2.8.5-4.2.8-.6.2-1 .7-.6 1.2.2.3.9.4 1.4.3 1.1-.1 2.2-.6 3.2-.5 1.5.1 3 .4 4.5.7.4.1.8.3 1.2.5v.5c-1 .2-1.9.4-2.9.6-.5.1-1.1-.1-1.7 0-.3.1-.6.5-.7.8-.1.2.3.6.5.7 1.8.5 3.6.6 5.4-.2.5-.3.9-1.1 1.2-1.7.1-.2-.4-.6-.6-.9 5.4-1.1 5.9-1.4 5.7-3.8-.8.2-1.6.4-2.4.7zM395.4 124.7c.4-1.1 1.5-2 .1-2.7-1.4.1-2.3 1.1-2.1 2.3.1.8 1.1 1.6 1.8 2.3.3.3.9.4 1.3.4 2.8 0 5.6.1 8.4 0 1.8 0 2.9-1.3 3.5-2.8.3-.6 0-1.5-.3-2.2-.1-.3-.9-.4-1.4-.4-.2 0-.5.8-.4 1.1.5 1.2-.2 1.7-1.2 1.8-1.3.2-2.6.3-4 .4-.7 0-1.4 0-2.1-.1-1.1 0-2.2 0-3.6-.1zM377.9 188.6zM378 186.4c.6-2 1.3-3.9 1.8-5.9.1-.4-.1-.9-.1-1.3-1.9 4.4-4.3 14.8-3.6 18.7.3-2.1.4-3.7.7-5.4.3-1.3 0-2.8 1.1-3.9 0-.8-.1-1.5.1-2.2zM394.5 196c-.1-2.5 1.2-4.7 1.1-7.2-.2 0-.4-.1-.6-.1-.3 2.4-.7 4.8-1 7.2.2.1.3.1.5.1zM389.3 186c-.8 2.3-1.2 4.7-.4 7.1.1-2.4.2-4.7.4-7.1zM408.2 188.6c-1.3 1.6-1.2 3.5-.9 5.2.3-1.7.6-3.4.9-5.2zM405.7 188c-.8 1-1.5 2-1.6 3.7.8-1.3 1.4-2.3 2-3.4-.1-.1-.2-.2-.4-.3zM457.8 192.5c1 .2 1.7.3 2.4.4 0-.1.1-.2.1-.4-.5-.4-.9-.8-1.5-1.2-.3.4-.6.7-1 1.2zM463.9 194.3c.2-.8.3-1.3.4-1.9-1 .5-1.5 1-.4 1.9zM454 200c-.4-.3-.7-.6-1.1-.9 0 1.1 0 1.1 1.1.9zM455.3 197.9c-.2 0-.5.2-.8.4l.4.6c.3-.2.6-.4.8-.5-.1-.2-.2-.5-.4-.5zM467.8 192.1c.2.1.4.3.6.3s.4-.2.9-.4c-.6-.2-.9-.4-1-.3-.3 0-.4.3-.5.4zM352.1 238.6c.3-1.3.6-2.1.9-3.4-2 1-1.2 2-.9 3.4zM476.6 253.6c-1.3 1-2.5 2.1-3.8 3.1 1.3.5 2.6-.5 3.8-3.1zM474.9 252.9c-.3.4-.5.8-.9 1.4.6-.5.9-.8 1.3-1.1-.1 0-.3-.2-.4-.3zM431.6 196.3c1.1.2 1.1-.5 1.4-1.6-1 .5-1.5.8-1.4 1.6zM431.6 196.4s-.1-.1 0 0c-.1 0-.1.1-.2.2.1-.1.1-.2.2-.2 0-.1-.1-.1 0 0zM430.6 198.1c.3-.5.5-1 .8-1.5-.4.4-.8.8-1.2 1.3.1 0 .3.1.4.2zM413 260.1c.1.6.2 1.1.3 1.7h2.7c-.2-.6-.5-1.1-.7-1.7H413zM405.1 260.9c1.7.1 3.5.2 5.2.3-1.7-.9-3.4-1.2-5.2-.3zM466.5 182.6c.2-.1.4-.2.4-.3.6-2.2.4-4.4-.2-6.6-.1-.4-1-.6-1.8-1.1-.1 2.4-.3 4.4-.3 6.4 0 1.1.2 2.2.3 3.3.2-2.5.5-5 .7-7.5 1.1 1.8.6 3.8.9 5.8zM346.3 214l-.6-.3c-.3.9-.6 1.7-1 2.6.1 0 .2.1.3.1.4-.8.8-1.6 1.3-2.4zM456.2 155.5c-.2-.4-.4-.7-.5-1.1-.1 0-.2.1-.3.1.2.4.4.7.5 1.1.1 0 .2-.1.3-.1zM451.1 256.7c.8.4 1.5.8 2.2 1.1-.1-.4-.2-.7-.3-1.2-.5.1-1.2.1-1.9.1zM188.9 230.8c-3.2-1.2-6.3-1.8-9.6-1.5-.1 0-.3-.2-.3-.3l3.3-26.7c6.6-.3 12.8.9 18.9 1.6 1-2.1.9-2.1-.1-3.3-4.8-5.6-9.6-11.2-14.4-16.9-2.5-2.9-4.8-5.8-7.3-8.8 1.1-3.9 2.2-7.6 3.3-11.3 1.1-3.8 2.2-7.6 3.3-11.6 2.2.1 3.4 1.4 4.6 2.5 3.4 3.3 6.7 6.7 10 10.1 2.6 2.7 4.5 2.9 7.6.9 1.4-.9 2.7-1.9 4.1-2.7 2-1.1 3.8-2.7 6.3-3.1.3.6.6 1 .8 1.4 2.3 4.8 8.9 5.6 12.2 1.3 1.5-2 2-4.9-1.2-6.4-.6-.3-1.2-.6-1.7-.8.8-1.5 1.4-2.8 2.1-4 .6-1.2.2-2.1-.8-2.9-2.1-1.6-4.7-1.3-6.9.9-.9.9-1.7 1.9-2.9 3.3-.5-3.8.8-7.8-3.6-9.9-1.1 2.7-2.4 5.4-2.3 8 0 2.4 1.4 4.8 2.2 7.4-2.7 1.6-5.8 3.5-8.9 5.2-2.4 1.3-3.5 1.2-5.3-.5-3.3-3.2-6.6-6.4-9.9-9.7-.5-.5-.8-1.1-1.3-1.9 11-2.8 19.6-7.8 21.1-19.8 2.5.2 4.9.8 7.1.5 1.8-.2 3.3-.4 5 .3 3.2 1.1 5.8-.3 7.3-3.4 1-2 1-4.1 1.1-6.3.1-2-.5-3.7-1.9-5-1-.9-2-1.7-3.1-2.5-1.2-.8-2.2-1.6-2.9-3-1.1-2.3-3.1-3.6-5.6-4-1.6-.3-3.3-.1-4.9 0-1.1.1-2.2.5-3.1-.7 3-3.2 3.9-7 3.8-11.1 0-2.6-1.5-4.1-3.6-5.3-1.9-1-3.3.1-4.8 1.1-1.9 1.2-3 3-3.8 5.1-.4 1-.8 2-1.3 3.1-.9-1-1.6-2.3-2.5-2.6-1-.3-2.2.4-3.5.7-.2-.5-.6-1.1-.7-1.6-.7-3.3-2.8-5.7-4.9-8.1-.6-.7-1.7-1.3-2.6-1.3-3.7-.1-7.7 4-7.9 7.7-.1 1.9-.3 3.9-.4 5.8-4.7-2-4.7-2-9.6.7-.5.3-1.2.6-1.7.5-2.8-.4-5.3.7-7.6 2.1-1.4.8-2.5 1-4 .6-3.9-1.1-6.7.1-8.4 3.7-.8 1.7-1.8 2.9-3.3 3.9-2.4 1.7-4.4 3.8-5.5 6.5-1 2.5-.8 4.6 1.2 5.8 1.6 1 3.6 1.3 5.4 2 1 .4 2.2.5 3 1.1 3.8 2.7 7.3 2.4 10.9-.7.6-.5 1.6-.9 2.4-1 2.2-.2 4.5-.3 6.9-.4.6 2.9.9 6.1 1.9 9.2 1 3.2 2.1 6.5 4.7 8.9 2.3 2.2 5 4.1 7.5 6.2-7.6 4.1-16 4.7-24 6.7-1.2.3-1.9-.4-2.5-1.4-1-1.6-1.9-3.2-3-4.6-3-3.9-6.1-7.8-8.2-12.3-.3-.6-.6-1.4-1.2-1.8-.4-.4-1.2-.4-1.8-.6 0 .6-.3 1.4 0 1.9 1.1 2.1 2.4 4.1 3.6 6.1 3.2 5.4 7.9 9.8 9.8 15.9 4.9-1 9.5-1.8 14.1-2.9 4.5-1.1 8.9-2.6 13.6-4-.1.8-.1 1.4-.3 2-1.2 4.1-2.7 8-3.4 12.2-.7 3.7-2 6.7-5 9-3.1 2.4-5.9 5.1-8.9 7.6-1.7 1.5-3.6 2.7-5.3 4.2-3.5 3-7 6.1-10.4 9.1-.6.5-.9 1.2-1.6 2.1 6 .8 11.6 1.6 17.3 2.4-.1 1.5-.1 2.9-.3 4.3l-2.4 17.7c-.2 1.2-.5 2.5-2.4 2.9-.8-1.1-1.7-2.3-2.6-3.5s-1.6-3-2.8-3.5c-2.8-1.3-5.7-2.4-8.7-2.9-3.1-.6-5.5 2.3-5.3 5.6.3 5.5 5.8 9.2 10 9 3.5-.1 7-.3 10.7-.5.7-1.1 1.6-2.5 2.3-4 .3-.6.5-1.4.6-2.1.9-5.9 1.7-11.8 2.6-17.7.3-1.7.6-3.4.9-4.8 4.1-.2 7.8-.4 11.8-.6-.4 11.4-1.8 22.3-4.3 33.1 7.2 0 14 .1 20.8 0 .5 0 .9-.8 1.4-1.2-.5-.4-1-1-1.5-1.2-2.7-.3-5.3-.3-7.5-1.2zm39.7-80.9c.4 3.8-2.2 5.7-7 5.2 1.4-4.2 3.7-6 7-5.2zm-4.2 7.7c1.2 0 2.5-.2 3.7-.1 2.3.3 3 2.3 1.7 4.3-1.5 2.2-7.6 2-8.3-1.1-.2-1.2-.6-2.3-.9-3.3 1.3.1 2.6.2 3.8.2zm-7.1-11.6c1.2 2.6 1.3 4.7.4 7.9-2.2-1.9-2.3-4.3-.4-7.9zm-71-21.2c-.1 0-.2.1-.3.1-2.4-.3-4.8-1.1-5.6-3.6s1.2-4.2 2.5-5.9c.5-.6 1.2-1 2-1.7.8 1.9 1.9 3.5 2.1 5.3.3 1.8-.4 3.7-.7 5.8zm64.8-5.1c-.1-.2-.2-.3-.3-.5.4-.2.8-.5 1.2-.7.1.1.2.3.3.4-.4.2-.8.5-1.2.8zm1.2 7.9c3.1 1.2 5.5.6 7.7-1.5.3 1.4.5 2.4.7 3.7-3.7 1.3-5.9.8-8.4-2.2zm12.9-3.2c-.7 1.4-1.3 2.5-2 3.7-1-3-.8-3.5 2-3.7zm2.9 6c-1.2.7-1.8.6-3.9-.7.8-1.5 1.6-3 2.4-4.4 1.5.2 2.6.4 4.1.6.2 1.9-.9 3.4-2.6 4.5zm2.6-7.4c-2.1.6-2.1.6-2.9-1.7.2-.2.4-.3.5-.5.8.7 1.5 1.4 2.4 2.2zm-1.2-4.2c-3 .8-3.2-1.8-5.1-3.1 2.5.4 3.7 1.7 5.1 3.1zm-5.2-1.4c.2 1.1.6 1.9.4 2.5-.5 1.1-2.1 1.3-4.3.7 1.1-.9 2.2-1.8 3.9-3.2zm-2.3 0c-.7.2-1.4.4-2.5.7.5-1.8 1.2-2 2.2-1.5.1.2.2.5.3.8zm-.6-5c-1.2.8-2.5 1.6-3.9 2.4-.2-1.3-.4-2.5-.7-3.6 2.3-1.3 3.1-1.1 4.6 1.2zm-6.6 9.4c1.1 1.2 2.3 2.3 3.5 3.5-.7 1-1.9 1.7-3.4.8-.8-.5-1.7-1.2-1.9-2-.4-1.3.7-1.9 1.8-2.3zm-1.5-10.8c-.3 1.6-.5 2.8-.7 3.9-.2.1-.5.3-.7.4-.6-.9-1.3-1.9-2.2-3.3 1.3-.4 2.3-.7 3.6-1zm-7.8-14.9c.4-.8 1.1-1.5 1.8-2.1 2.3-1.8 4.3-1.2 5.2 1.5 1.2 3.7-.8 8.8-4.1 10.7-1.1.6-2.1 1.2-3.2 1.8-1.5.7-2.9.9-4.4-.9 1.4-3.5 3-7.3 4.7-11zm-7.1 3.7c.2 1.7.6 3.1.5 4.5 0 .6-.8 1.5-1.3 1.7-1 .2-1.3-.8-1.3-1.6.1-1.6-.5-3.4 2.1-4.6zm-16.8-6.1c.4-1.2 1.3-2.4 2.4-3 3.2-1.8 3.8-1.4 5.6 1.2 2.7 3.9 3.9 8.2 3.4 13-3.2-.1-6.3.7-9.3-.8-1.4-.7-2.3-1.6-2.6-3.1-.5-2.5-.3-5 .5-7.3zm6.3 15.4c-.8.8-1.1 1.5-1.6 1.6-1 .2-1.6-.6-1.4-1.5.1-.5.8-1.2 1.2-1.2.4-.1 1 .6 1.8 1.1zm-9.1-4.7c.3.8.5 1.5.8 2.3-.7.5-1.3 1.1-2 1.4-.4.2-1.3.2-1.6-.1s-.4-1.1-.3-1.6c.5-1.2 1.4-2.1 3.1-2zm.6 5c-.4 1.1-.6 1.8-.9 2.9-.7-1.3-1-2.2.9-2.9zm-3.1-7.7c-1.8 1.2-3.2 2.2-4.9 3.3l-1.7-1.7c1.9-1.9 3.7-3 6.6-1.6zm-6.2 6.4c.5.3 1.1 1.2 1 1.6-.2 1.2-.7 2.5-1.3 3.6-.8 1.3-1.9 2.4-3.1 3.8-1.2-2-1.5-4.1-1.6-6.3-.1-2.5 3.4-3.7 5-2.7zm-3.7-4.1c-1.2 1.9-2.2 3.5-3.1 5-1.3-.9-2.5-1.7-3.7-2.6 2-1.9 4-2.5 6.8-2.4zm-8.3 3.7c3.5 2 3.8 2.6 2.5 5.4-1.3.1-2.6.1-4 .2-.3-2.1-.1-4 1.5-5.6zm2.8 7.8c-1.7 1.6-1.7 1.6-3.3-.6 1.2.2 2.1.4 3.3.6zm-4.5-8.9c-.4.9-.9 1.7-1.3 2.7-.3.8-.6 1.7-.8 2.4-1.8-.6-3.6-1.3-5.4-1.9.2-3.5 3.5-5.1 7.5-3.2zm-8.5 5.7c2.9-.6 6 1.1 6.4 3.7.1.5-.5 1.1-.9 1.9-.9-1.2-1.5-2.1-2.2-3.1-.9.5-1.7.9-2.6 1.3-1.4-1.1-1-2.5-.7-3.8zm.9 7.6h2.3c.8 2-.5 2.7-1.7 3.7-1.2-1.1-.7-2.3-.6-3.7zm1.7 6c1.2-2.2 2.1-4 3.2-6 1.3.3 1.1 2 2 2.8 1 .9 2 1.7 3 2.6-3.4 3.1-5.6 3.2-8.2.6zm9.9-2.9c-3.1-1.2-3.1-1.2-4.1-4.4 1.7.1 3.3.1 5.5.2-.5 1.6-.9 2.9-1.4 4.2zm1.6.9l1.5-6.9c1.7 1.8 3.5 3.7 5.3 5.5-2.1 1.7-2.8 1.8-6.8 1.4zm8.2-5.1c-1.3-1.4-.8-2.3 1-3.4-.5 1.5-.8 2.4-1 3.4zm1.2 11c-.3-2-.5-4-.7-6.3 3.3-.4 4.8-2.2 5.8-4.6.8-2 1.7-3.8 3.1-5.5 1.1-1.3 1.5-3.2 2.3-5.2.4.6.8 1 1 1.5.3.6.5 1.4.9 1.9 1.3 1.8 2.8 1.8 4.3.1.3-.4.6-.8.9-1.3 1 .4 1.9.9 2.8 1.2 2.4.6 3.2 0 3.6-2.8 1 .4 2 .7 3 1-.2 1.5-.4 2.6-.5 3.7 0 .5.3 1 .5 1.8-4.8-.9-7 2.2-8.2 5.8-.9 2.7.5 5.4 2.8 7.3 2.9 2.5 5.7 1.5 8.2 0 .6-1.6 1-3 1.7-4.4 1.4-2.8 1-4.7-1.5-6.8-.7-.6-1.4-1.2-2.2-1.8.7-.4 1.3-.8 1.8-1.1 1.2.8 2.3 1.6 3.6 2.3 3.6 2.1 5.8 4.8 5 9.2-.3 1.7-.1 3.5-.1 5.2-.4 8.6-5.9 13.1-13.1 16.2-4.3 1.8-8.7 2.3-13.1 0-6.9-3.8-10.6-9.8-11.9-17.4zm-19.8 90.5c-1.8.7-2.5-.6-3.4-1.3 1.1.4 2.1.8 3.4 1.3zm-4.1 2.1c1.7 1.1 3.2 2 4.6 2.9-2.1.8-3.1.3-4.6-2.9zm27-22.6c-7.2-.1-14.2-.7-21.3-2.5 6.6-7.9 15.6-12.9 23.1-19.7 1.6-.1 2.6.8 3.7 2 5.5 6.8 11.2 13.4 16.7 20.1.2.3.5.6 1.1 1.4-2.8-.2-5.1-.5-7.4-.6-5.3-.2-10.6-.6-15.9-.7zm9.8 32.8v-.8c.6 0 1.3.1 1.9.1v.4c-.6.2-1.3.3-1.9.3z"/><path d="M144.2 191.4c1.6-1.2 3.2-2.3 5-3.7-2.6-1.5-3.9 1.4-6.2.7 1.3-2.1 2.5-4.1 3.7-6-.9-.9-1.6-.6-2.2.1s-1.1 1.5-1.6 2.2c-.4.6-.8 1.1-1.6 2.1 0-3 1.6-4.7 2.9-6.4-1.1-1.5-1.9-.9-2.5.1-1.1 1.7-2 3.6-3 5.5-4.9-2.6-10.4-1.2-15.2-2.6-.1-2.2.3-4.2-.4-5.7-.9-2-.5-3.1 1-4.5 3.8-3.4 5.4-7.9 5.6-13 .1-3.2-.7-6.1-3.1-8.4-.9-.9-1.5-1.9-2.1-2.6.3-1.1 1-2.1.8-2.8-1.2-3.4-2.5-6.7-4-10-.8-1.6-1.9-1.6-3 0-.7 1-1.3 2.1-1.8 3.2-1 1.9-1.8 3.9-2.7 5.6-3.2.2-6.2.3-9.2.4-.4-1.8-.7-3.2-1-4.7-.3-1.4-.4-3.2-2-3.5-2-.3-2 1.8-2.3 3.1-.8 2.9-1.2 6-2.2 8.9-.9 2.7-1.4 5.3-1 8.1.1.6-.2 1.2-.2 1.6-4.5.5-9 .7-13.3 1.6-4 .8-8 1.9-11.8 3.4-5.2 2-10.1 4.4-15.2 6.6-2.6 1.1-3 .9-4.7-1.2-2.2-3-4-6.3-4.5-10-.3-2 0-4.3.7-6.3 1-3 3.5-4.7 6.7-3.4 3.1 1.2 6.5 1.7 10 1.2 6.3-.9 10.1-5.7 9-12-.4-2.5-1.3-4.9-2.1-7.4-.8-2.6-1-5.1.5-7.4 2.3-3.5 5.4-5.8 9.8-6.2 3.5-.3 5.1.8 6.2 4.1.2.5.4 1 .5 1.4 2 6 9.5 5.4 11.8 1.4 1.4-2.3 2.6-4.6 3.7-7.1 1.3-3.1 3.4-5.4 6.3-7 2.9-1.5 5.2-.9 6.8 1.8.7 1.1 1.1 2.5 1.9 3.5.9 1.1 1.9 2.5 3.1 2.8 5.5 1.6 10.9-.4 11.5-7 .4-4.8-1.4-9.4-5.5-12.5-4.1-3-8.7-4.1-13.7-2.8-4.9 1.3-9 3.5-10.5 8.9-.2.7-.6 1.3-1 1.9-1.8 2.5-3.4 5.1-5.5 7.4-1.5 1.7-2.9 1.7-4.6.3-1.4-1.2-2.5-2.7-3.5-4.2-3-4.5-6.8-5.7-11.8-3.8-3.7 1.3-7.4 3.3-9.9 6.6-4.5 5.7-7.2 11.9-3.6 19.3 1.8 3.8 1.1 6.2-2.3 9.5-1.4-.5-3-1-4.5-1.5-1.9-.6-3.7-1.4-5.6-1.6-7-.6-13.4 2.4-13.2 10.8 0 1 .2 2 .4 3 1.3 7.2 3.6 13.9 7.6 20 1.2 1.9 1.5 3.9.6 6.3-1.9 5.4-1.3 7.8 2.9 11.5.5.4.9.8 1.6 1.3-.3 1-.6 1.9-.9 2.9-.5 2.2-1.4 4.4-1.4 6.6-.1 5.5.1 11.1.2 16.6 0 .9.3 1.8.7 2.7 1.1 2.8 3.3 3.8 5.9 2.5 3.1-1.6 5.7-3.9 6.6-7.4 1.5-6.2 2.7-12.5.3-18.8 0-.1.1-.3.3-.7 1.1.2 2.3.4 3.4.6.1.4.2.6.2.7.2 6.1 2.1 11.7 4.1 17.3.9 2.5 2.7 4.1 5.4 4.4 1.5.2 2.6-.3 3.1-1.9.5-1.8 1.2-3.5 1.6-5.3.9-3.6.9-7.1-.8-10.5-.4-.8-.5-1.6-.7-2.4 4.8.2 9.2.4 13.8.6.1 1.9.1 3.8.3 5.6.4 4.4.8 8.8 1.5 13.1.3 2.2 2.1 3.6 4.2 4 2.3.5 3.9-.5 5.2-2.4 2.6-3.9 2.4-8.2 2.1-12.5-.2-2.9-.7-5.9-1.1-8.9 4.5-1.5 9-2.7 12.6-6 1.1.8 1.9 1.7 3 2.3 1.9 1 3.8 2.3 5.9 2.5 3.8.5 7.8.6 11.7.4 4.7-.2 6.1-1.9 6.3-6.9zm-25.1-52.6c.3 0 .5 0 .8.1.8 1.8 1.8 3.6 2.4 5.6.8 2.2-.4 3.4-2.6 2.7-1.2-.3-2.3-.8-3.6-1.3.2-2.8 1.8-4.8 3-7.1zm-18.2 2.4h.7c.3 1.7.6 3.3.9 5.3-1.1.6-1.9.9-2.9 1.4-.8-2.8.7-4.6 1.3-6.7zm2.8 7.3c2.3-.8 4.3-.9 6.6-.4 1.1.2 2.2.1 3.4 0 1.9-.1 3.7.2 5.2 1.4.3.2.7.6 1 .6 3.6 0 4.7 2.9 6.3 5.2s2 5 1 7.7c-.9 2.5-1.7 5.1-3.2 7.2-2.1 3.2-5.3 4.7-8.9 4.5-7.7 1.1-14.8-5.2-16-12.6-.1-.7-.3-1.4-.6-2-2.2-5.1 0-9.8 5.2-11.6zM45 168.6c-3.3-5.5-5-11.7-6-18-.5-2.9 1.1-7.2 5.5-8.6 3.4-1.1 6.7-.7 9.9.6 1.7.7 3.5 1.2 5.2 1.9 1.4.6 2.2.2 3.1-1.1 1.7-2.4 3.5-4.7 3-7.8-.2-1.8-.6-3.8-1.6-5.2-1.4-2.2-.9-4.3-.6-6.5.5-3.6 1.8-6.9 4.6-9.2 2.6-2.1 5.4-4.1 8.4-5.6 3.8-1.9 7.3-.5 9.9 3.1 1.6 2.2 3.4 4.4 4.8 6.2 5.1.6 7.7-2.1 9.7-5.5 1.6-2.7 3-5.6 4.4-8.5 1.3-2.6 3.3-3.9 6-4.9 3.6-1.2 6.9-1.4 10.5-.3 5.3 1.6 9.3 7.4 8.6 12.8-.3 2.4-2.2 4.7-4.4 5-3.8.4-4.6.6-6.6-2.5-.7-1.1-1.3-2.4-2-3.5-2.1-3.1-5.6-4.1-8.9-2.2-3.8 2.2-6.8 5.1-7.9 9.7-.5 2-1.9 3.9-3.3 5.5-2.2 2.4-6.2 1.8-7.9-1.1-.6-1-1.1-2-1.4-3.1-.6-2-2.1-3.1-4-3.5-3.6-.7-7.1-.4-10.3 1.9-6.6 4.8-6.7 10.7-4.5 16.2 1 2.5 1.9 5 1.2 7.8-.8 3.4-3.4 6.1-7 6.5-3.1.4-6.2.3-9.2-.7l-2.1-.6c-2.3-.7-4.1 0-5.5 1.8-2.7 3.4-3.5 7.4-2.4 11.6 1.2 4.4 3 8.5 6.4 11.9-.7.6-1.3 1.1-2.1 1.8-1-1.9-2.3-3.9-3.5-5.9zm16.1 40c-.2 1.8-.8 3.6-1 5.4-.5 3.5-2.8 5.6-5.4 7.5-1.6 1.1-2.9.7-3.7-1.1-.5-1.1-1-2.3-1-3.5-.1-5.5-.2-11.1 0-16.6.1-2.2 1.1-4.3 1.8-6.7 2.5.8 4.4 1.2 6.1 2 .7.3 1.4 1.2 1.7 2 1.6 3.4 2 7.2 1.5 11zm16 7.3c-.7 1.8-2.1 2.2-3.6.9-.6-.5-1.2-1.2-1.5-1.9-2.1-5-3.8-10.2-4.1-15.7 0-.3.1-.6.3-1.3 2.4.4 4.6.7 6.8 1.3.6.1 1.2.8 1.5 1.3 2.4 5 2.6 10.2.6 15.4zm-8.7-20.6c.6-1.3 1-2.2 1.5-3.2 2.4.7 4 1.7 5 4.7-2.5-.5-4.3-1-6.5-1.5zm34 23.5c-1.1 2.7-3.8 2.9-5.5.6-.4-.6-.9-1.2-1-1.9-1.1-5.3-2.2-10.7-1.5-16.2 0-.4.2-.8.3-1.2 2.5-.3 5-.5 7.5-.8.2.5.5.8.6 1.2.4 4.3.8 8.6.9 12.9 0 1.9-.6 3.7-1.3 5.4zm-7.7-21.4c.4-1.5.8-2.9 1.2-4.2 4.5.5 4.5.5 5.3 3.9-2.1.1-4.1.2-6.5.3zm9.2-.7c-.3-.7-.7-1.4-1-2.1-.7-1.7-1.8-2.9-3.8-3-.7 0-1.4-.6-2.3-1-2.3.6-2.9 2.9-3.4 4.9-.5 1.9-1.4 2.4-3.2 2.3-4.2-.3-8.4-.4-12.8-.6-.8-4-3.4-6-6.7-7.4-.5-.2-.9-.5-1.4-.5-1.4-.2-2.7 1-2.1 2.1.8 1.5-.1 2.3-.3 3.5-3-.2-5.5-.8-7.8-2.6-1.4-1-3-1.7-4.5-2.6-.3-.1-.7-.3-.9-.2-1.7.9-2.9.1-4-1.1-1.4-1.5-2.3-3.1-2.2-5.2.1-2.3.9-4.4 2.6-6.1.9-.9 2-1.8 3-2.7.8.3 1.5.5 2.5.8-.1-2.4 1.5-3 3.1-3.7 4.6-2 9.1-4.3 13.7-6.2 7-2.8 14.4-3.9 22-3.9 2.2 0 2.6.5 3.3 2.9 1.1 3.4 2.6 6.4 5.4 8.8 3.4 2.8 7.3 4.1 11.7 3.8 1.7-.1 3.5-.4 5.3-.7.3.7.7 1.3 1 2 1.3 3.3-.2 6.3-3.8 6.3-1.8 0-3.6.4-5.4.7-.1 3.1 2.5 4 3.4 6-2.4 2.3-6.9 4.5-11.4 5.5zm10.6-9.9c1.6-.2 2.8-.4 4.5-.6-.7 1.3-1.1 2.2-1.8 3.6-1-1.1-1.6-1.8-2.7-3zm27.1 7.2c-.5.8-1.4 1.6-2.3 1.8-5 1.1-10 1.1-14.9-.5-2-.7-3.7-2.4-5.7-3.7.7-1.3 1.3-2.2 1.9-3.2 1.8-3.2 2-3.3 5.5-2.6 1.6.3 3.2.8 4.8 1.1.7.1 1.5.4 2.1.2 3-.9 5.2.7 7.4 2.2 1.3.9 1.9 3.4 1.2 4.7zM219.6 175.4c-1.7 0-3.1 0-4.2-1.8-.5.7-.8 1.1-1 1.5-1.4 5.2-4.5 9.3-8.3 13.1-.5.4-.6 1.2-1.1 2.1 6.6 2.1 12.7 5.1 20.1 4.9.8-6 2.6-11.4 5.3-16.5.3-.6.1-1.3.2-2.1-3.7-1.4-7.4-1.1-11-1.2zm7.9 4.1l-3.6 11.1c-.7 2.1-.8 2.4-3 2.1-4.1-.5-7.9-2-11.8-4.1 1-1.6 2-3 2.9-4.4.9-1.5 2-2.9 2.6-4.5s1.8-2.4 3.2-2.4c3.3-.2 6.5 0 9.8.8 0 .6.1 1-.1 1.4zM92.6 234.6c-.2-.3-1.1-.4-1.4-.2-.4.3-.8.9-.8 1.4-.1 1.3.4 2.7-.6 4.3-.9-2.3-1.6-4.2-2.4-6.1-.3-.7-.8-1.6-1.3-1.7-1.3-.3-1.2 1.1-1.5 1.9-.2.8-.4 1.6-.7 2.4-.8 2.1-1.8 4.2-3.7 6-2.1-3.1-.9-6.7-2.3-10-2.5 1.1-3.2 3.2-4.2 5s-2.3 3.5-2.9 5.4-2.6 3.3-2.2 5.7c.8-.5 1.4-1.1 1.7-1.9 1.5-2.7 2.9-5.5 4.3-8.2.5-.8 1.1-1.6 1.8-2.6.8 3.3 1.4 6 2 8.6 1.5.7 2.5.4 3.3-.7.6-.9 1.2-1.9 1.7-2.9.7-1.4 1.4-2.8 2.2-4.2 2.3 2.3 1.8 6.1 5.4 7.5.6-2.1 1.1-4 1.9-6.8 2.3 2.4 4.2 4.4 6.4 6.7 0-.6 0-1-.1-1.2-1.1-3.6-4.3-5.6-6.6-8.4z"/><path d="M132.8 214.3c-1.4-1.9-2.6-4-3.9-5.9-.3-.5-.9-.7-1.6-1.2-.8 3 .5 5.9-1.6 8.5-.6-1.4-1.1-2.6-1.7-3.6-.5-1-.6-2.5-2.3-2.3-.8 3.8 0 7.7-1.2 11.9-1.4-2-2.5-3.6-3.6-5.2-1.9 1.4-.3 2.7-.5 3.9-.2 1.4-.4 2.9-.2 4.3.1 1.2-1.4 2.4.5 4 .3-2.7.5-5.1.7-7.5 2.5.9 1.4 4.8 4.7 4.8.4-3.9.2-7.7.8-11.7 1.9 1.8 1 4.7 3.4 5.7 2.2-1.9 1.3-4.6 2.5-6.8.7.7 1.4 1.4 2 2.1s1 1.5 1.6 2.2c1.2 1.4 2.4 1.2 3.1-.4-1.1-1-2-1.8-2.7-2.8zM46.2 226.1c-.3-.4-1.1-.3-2-.5-.1 2.9 1.1 5.4-.4 8.3-1.2-2-2.3-3.6-3.2-5.2-1.3-2.3-2.4-4.8-3.6-7.1-.5-1-1.1-1.4-2.4-.5.2 4.6.4 9.4.7 14.6 2.2-1.5 1-3.3 1.2-4.8.2-1.6.2-3.3.2-5 .8.4 1.1.9 1.3 1.4 1.3 2.5 2.7 5.1 4 7.6.5.9.9 2 2.2 1.8 1.4-.2 1.6-1.4 1.8-2.6.2-.9.3-1.7.6-3.2 1.2 1.8 2.2 3.2 3.2 4.6.8 1.1 1.4 2.2 2.3 3.3.6.8 1.5 1.1 2.3.1 0-.2.1-.5 0-.6-2.8-3.9-5.4-8.1-8.2-12.2zM205.6 221.6c-.5-3.4-.2-6.5-1.8-9.8-1.5 2.6-2.8 4.8-4.3 7.3-1-2.7.8-5.2-.6-7.6-.6.4-1.2.5-1.4.9-1.9 3.4-3.7 6.8-5.5 10.3-.1.2.5.6 1 1.3 1.5-3 2.2-6.1 4.3-8.6.1 2.4.2 4.5.3 6.6 1.9.4 2.5-.8 3.2-2s.9-2.7 2.2-3.7c.8 3 .4 6 1.9 9 1.1-1.2 2-2.1 3-3.3 1.9 4.5 1.9 4.5 4.1 4.9-1.9-2.9-1.5-6.2-3.3-9.2-1 1.3-1.9 2.4-3.1 3.9zM227.7 222.2c.2-.3.3-.5.4-.8 2.1-4.1.9-6.6-3.6-7.6-1.6-.3-3.2-.5-4.5-.7-1.6 1.5-3 2.5-4.1 3.9-1.6 2-1.7 4.3-.2 5.9 4.5 4.5 8.6 5 12-.7zm-10.2-3.7c.9-1.9 2.2-2.7 4.1-2.6 1 0 2-.1 3 .1 2.2.3 3.2 1.8 2.2 3.7-.8 1.5-1.9 3-3.3 3.9-1.8 1.2-3.5-.2-4.9-1.4-1.3-.9-1.8-2.1-1.1-3.7zM231.9 224.5c.5 3.2 1 6.5 0 9.8-.1.4.1.9.3 1.6 3-1.8.8-4.9 2.2-7 .7 1.4 1.4 2.7 2.3 4.3 2.5-2.3 1.4-5.2 2.5-7.9 1.1 1.8 2 3.2 2.9 4.7 1.7-1.8 1.8-3.3.6-4.6-.9-.9-1.8-1.9-2.8-2.8-.5-.4-1.2-.6-1.8-.9-.3.7-.7 1.4-.8 2.1-.2 1.4.4 2.9-.8 4.4-1.1-2.4-2.2-4.5-3.3-6.9-1.6 1-1.5 2-1.3 3.2zM191.8 140c.6-.2 1.1-.5 1.7-.7 2.5-.7 4.8-2.4 7.6-2.2.9 0 1.9.2 2.8.1.5-.1 1.2-.5 1.3-1 .2-.5 0-1.4-.4-1.6-1.2-.7-2.5-1.4-3.9-1.8-.6-.2-1.4.6-2.1.8-.8.2-1.6.4-2.4.5-3.5.6-6.3-1.4-9.5-2.3-2.7-.8-4.7-2.4-5.3-5.6-2.3.6-3.2 1.7-2.7 3.4.5 1.8 1 3.6 1.7 5.3 2.4 5.4 5.7 6.8 11.2 5.1zM182.9 121.8c1.6.3 2.3-.9 2.8-2.2-.7-1.1-1.4-2.5-3-1.9-.7.3-1.4 1.5-1.5 2.3.1.6 1 1.7 1.7 1.8zM107.8 161.5c-2.6 1.1-3.5 2.7-3.3 5.5.2 2.4 1.9 3.8 4.2 3.1 1.3-.4 2.6-1.2 3.7-1.8 1.2.4 2.3 1.2 3.6 1.3 2.6.2 4.6-1.7 5.1-4.4.4-1.8-1.1-4.2-3.4-4.8-3-.7-6.2-2.1-9 .8-.2.3-.6.2-.9.3zm9.7 1.4c.7.4 1.5 1.8 1.3 2.4-.3.9-1.4 1.7-2.4 2-.5.2-1.6-.7-2-1.4-.6-.9-.7-2.1-1.2-3.9 1.8.4 3.2.4 4.3.9zm-6.7 3.2c-.4 1.5-1.7 1.8-2.9 1.6-.5-.1-1.3-1-1.4-1.7-.3-1.2.5-2.2 1.6-2.6.8-.3 1.8-.2 3-.4-.1 1.2-.1 2.2-.3 3.1zM104.9 157.7c1.3.5 3.3-.2 3.9-1.6.3-.7.5-1.5.6-2.1-.2-.8-.3-1.3-.5-1.8-.7-2.1-2-2.6-3.5-1-.8.8-1.5 2-1.8 3.1-.5 1.5.2 2.9 1.3 3.4zM118.2 156c.6-.4.9-1.2 1.3-1.9-2.2-.8-2.6-.8-3.1.2-.3.5-.1 1.3-.1 1.9.7 0 1.5.1 1.9-.2z"/><path d="M258.2 299.3c-2.7-3.9-5.5-7.8-8.2-11.7-2.6-3.9-5.1-7.8-7.8-11.7-.9-1.4-1.4-3.2-3.9-3.2-2.8 0-5.6-.8-8.4-1.4-1.9-.4-3.7-1-5.5-1.4-1.6-.4-3.2-.8-4.9-1.1-1.9-.4-3.8-1-5.7-.6-.5.1-1.3.2-1.6-.1-1-1-2.1-2.1-2.7-3.4-1.1-2.3-3.2-8-4.5-11.1 4-.3 7.9-.6 11.9-.8 12-.5 24-2 36.1-.6 1.8.2 2.4-.4 2.2-2.4-.1-1.5-.5-3-.6-4.6-.4-3.9-.7-7.8-1.1-11.7-.8-6.9-1.7-13.9-2.5-20.8-.5-4.3-1-8.6-1.6-12.8-1-6.8-2.2-13.6-3.1-20.4-.6-4.7-.9-9.4-1.3-14.1-.4-4.8-.7-9.6-1.1-14.4-.3-3.3-.9-6.5-1.2-9.8-.6-5.7-1-11.5-1.6-17.2-.8-7.8-1.7-15.5-2.5-23.3-.1-.6.2-1.3.5-2.4 2.7 2.1 5.2 3.9 7.6 5.8 2.5-1.7.1-3.8.5-5.7.5.1.9.2 1.3.3 2 .3 2.5-.3 2.1-2.1-.2-.8-.5-1.6-.7-2.2 1-.4 2.6-.6 2.8-1.3.4-1.1 1-1 1.8-1.1.5-.1.9-.6 1.5-1.1-.8-.6-1.3-1-1.9-1.4-2.3-1.6-4.7-3-6.8-4.7-3-2.4-5.9-5.1-8.9-7.6-.8-.7-1.6-1.2-1.5-2.5.1-1.1-.6-1.9-1.6-1.7-1.4.2-2.3-.6-3.3-1.4-5.5-4.5-11-9-16.4-13.5-1.7-1.4-3.3-2.7-5.3-4.4-.5 1.2-.9 2.2-1.4 3.3-.2 0-.7-.1-1.2 0s-.9.2-1.6.4c.3 1.2.6 2.2 1 3.5-1.4-.4-2.5-.7-4.2-1.1.3 1.7.5 3 .8 4.2-1.2.4-2.6-1.7-3.5.6.5.8 1.4 1.6 1.6 2.5.4 2.2 2 3.1 3.7 4.2 1.4.8 2.9 1.7 3.6 3.4-9.6 2.5-155.4 13.7-159.9 12.7 1.8-2.3 3.6-4.4 5.4-6.7-1.6-1-1.7-1.1-2.3-.6-1.2 1.2-2.5 1.1-3.9.5-.3-.1-.7.1-1.4.2 1.5-2.3-.8-1.7-1.4-2.7.5-.8.9-1.7 1.6-3-1 0-1.7-.1-2.3 0s-1.4.7-1.6.5c-1.7-1.3-2.6 0-3.7.9-2.2 1.8-4.6 3.4-6.6 5.4-1.9 2-3.6 4.2-5.2 6.5-1.2 1.7-2.6 2.5-4.6 2.5-3 0-5.9.3-9 .4-.6 2.6-.5 5.1-.1 7.5.6 3.5-.5 6.3-2.9 8.9-3.6 3.8-7 7.8-10.4 11.8-.3.4-.6 1.2-.4 1.6.1.3 1 .4 1.5.5.4.1.9 0 1.4-.1-.2.9-.4 1.7-.6 2.6.9.2 1.7.4 2.4.6-.3 1.2-.6 2.3-.9 3.7 2.2.1 3.6.8 4.1 2.9.2.9 1.3 1.1 2.1.5.9-.7 1.7-1.5 2.5-2.3 1.1-1.2 2-2.5 3-3.7.2.1.5.1.7.2.1 1.3.1 2.6.2 3.9.5 5.7 1 11.5 1.6 17.2.7 6.6 1.6 13.3 2.1 19.9.8 10.4 1.4 20.7 1.9 31.1.7 13.5 1.3 26.9 1.7 40.4.3 8.2.2 16.4.3 24.6 0 1.3.1 2.7.2 4 .2 2 1.2 2.9 3.1 2.2 4.9-1.8 10.1-1.8 15.2-2.4 10.1-1.2 20.3-1.9 30.4-2.7l24.6-2.1c5.2-.4 10.4-.9 15.7-1.3 9.2-.8 18.4-1.5 27.7-2.3 9.6-.9 19.2-1.9 28.9-2.8 3.1-.3 6.2-.5 9.2-.7 3.2-.2 6.4 0 9.5-.3 4.2-.3 8.4-.7 12.6-1.1 2.3 1.7 3.5 4.3 4.1 7.2.3 1.5.3 3.1.8 4.5.9 2.6 3 3.9 5.6 4.7.7.2 1.9.4 1.7 1.8-.3 2.5-.2 5.1-.6 7.6s-1 5.1-2 7.5c-.6 1.3-.4 2 .2 3 1 1.7 2.1 3.4 3.2 5 1.2 1.8 2.5 3.6 3.6 5.5 1.6 2.7 3.1 5.5 4.7 8.2 2.4 4 5.8 7.3 7.8 11.6 1.3 2.8 3.1 5.3 4.6 8 .4.7.4 1.5.8 2.3.2.5.6 1.1 1.4.7.7-.3 1.4-.7 2-1 2.8-1.6 5.6-3 8.2-4.8 5.7-3.8 11.3-7.7 16.9-11.5 1.5-1 2-2.5 1.2-3.6-2.4-3.5-4.9-7.3-7.5-11zm-7.8-208c-4.1.3-4.1.3-2.5 4 .1.3.1.6.1.8-1.4.1-2.8.1-4.2.2.2 1.1.3 2 .6 3.5-2.2-1.7-3.9-3-5.5-4.3-.5-.4-.8-1.2-.9-1.8-.2-.8-.2-1.6-.2-2.4-.2-3.8-.4-7.5-.6-12 4.8 3.9 10.1 6.6 13.2 12zm-15.7-13.1c.1.3.1.6.1.9.2 4.3.4 8.6.6 13.4-6.9-5.4-13.5-10.4-20.4-15.7 5.7-1.4 11-1.5 16.3-1.5 1.9-.1 3.1 1.1 3.4 2.9zM203.1 67c1.3.1 2.1.1 3.3.1-.4-1.5-.7-2.7-1-4.1 1.3 0 2.6.1 4.4.1-.4-1.4-.7-2.4-1.1-3.5 1.4-1.1 3.3 1.9 4.5-1 5.3 4.5 10.4 8.8 15.4 13.1.2.2.3.5.5.9-4.9.7-9.6 1.3-14.4 2-1.7.2-2.9-.2-4.1-1.4-2.3-2.1-4.8-4-7.5-6.2zM38.9 79.6c1.4 2 2.5 0 4-.4-1.5 2-.2 3.7.1 5.7.9-.2 1.7-.4 2.6-.7 0 .5-.1 1.2.1 1.6s.9.7 1.7 1.2c-1.2.7-2 1.6-3 1.7-5 .8-10.1 1.4-15.2 2 .9-2.4 4.2-7 9.7-11.1zm-24.5 46c-1.2 1.2-2.2 2.4-3.2 3.6-2.2.1-1.2-4-4.2-2.6 1-4.1 1-4.1-.6-5-.2-1.5-.5-2.8-.8-4.7 2.5-2.7 5.5-6 8.8-9.7.6 4.9 1.1 9.1 1.7 13.4.1 1.9-.3 3.5-1.7 5zm2.2-31.7c1.9-.2 3.8-.5 5.7-.7.3 0 .5.1 1.2.3-2.2 2.5-4.2 4.9-6.2 7.3-1.1-2.4-1.2-3.6-.7-6.9zm.2 11.2c0-.6.4-1.4.8-1.9 2.6-3.1 5.2-6.1 7.9-9 .6-.7 1.7-1.2 2.6-1.4 4.3-.6 8.6-1 12.8-1.4.5 0 .9 0 1.5.1-1.7 3.7-19.9 25.2-23.9 28.3-.9-5-1.7-9.8-1.7-14.7zm164.1 148c-1.7.1-3.5.2-5.2.3-6 .6-12.1 1.3-18.1 1.8-4.1.4-8.2.5-12.3 1-7.1.7-14.1 1.6-21.1 2.3-4.7.4-9.4.6-14.1.9-8.5.6-17 1.2-25.5 1.9-4.2.3-8.4.9-12.6 1.3-5.7.5-11.5 1-17.2 1.5l-24.3 2.4c-1 .1-2 .4-3.4.6-.1-1.9-.2-3.8-.3-5.6-.3-14.3-.5-28.6-1-42.9-.2-7.3-1-14.6-1.4-21.9-.6-10.4-1-20.8-1.7-31.2-.5-6.7-1.4-13.3-2-19.9-.6-7.1-1.1-14.2-1.8-21.2-.2-1.9.8-2.9 1.8-4 4.4-5.1 9-10.2 13.3-15.4 3.4-4 6.6-8.1 9.9-12.2 1.3-1.6 2.8-2.5 4.9-2.6 8.2-.5 16.4-1.2 24.6-1.8 9.3-.6 18.7-.9 28-1.8 14.1-1.2 28.3-2.6 42.4-3.3 5.8-.3 11.6-1.4 17.5-2 4.3-.4 8.6-.5 12.9-.8 2.7-.2 5.3-.5 8-.7 5.1-.5 10.2-.8 15.4-1.4 4.2-.4 8.4-.9 12.6-1.5 1.2-.2 2.1.1 3.1.8 5.5 4.3 11.1 8.5 16.6 12.8 1.8 1.4 3.4 2.9 5 4.5.5.5.8 1.4.8 2.2l2.7 26.1c.2 2.1.3 4.3.5 6.5 1.1 9.4 2.3 18.8 3.3 28.2.5 5.3.3 10.7.9 16 .8 7.7 2.1 15.3 3.2 22.9.7 4.7 1.5 9.3 2.1 14 .6 4.5.8 9 1.3 13.5.7 6.6 1.5 13.3 2.2 19.9.2 1.7.2 3.4.3 5.4h-3.6c-6.8 0-13.5-.5-20.3.5-3.9.6-8 .1-12 .4-5.8.4-11.7 1-17.5 1.4-6 .5-12 .7-17.9 1.1zm40.1 21.6c1.1.5 2.3 2.3 2.1 3-.3.8-.7 1.5-1.6 1.6-1 .1-1.8-.4-2.3-1.2-.2-.3-.2-.6-.3-1.1 1.5.1 2.4-.6 2.1-2.3zm16.9 54.7c-1.6-2.7-3.2-5.3-4.8-8-1.9-3.3-3.7-6.7-6.2-9.6-1.3-1.5-2.3-3.4-3.4-5.2-2.5-4.1-4.9-8.2-7.4-12.3-1-1.7-2.1-3.4-3-5.1-.3-.5-.4-1.3-.2-1.8 1.7-5.2 2.5-10.5 2.4-15.9v-.7c1.5.1 2.8 1.4 2.8 2.8 0 .3-.3.5-.5.8-1.3 1.5-1.3 3.9 0 5.4 1.3 1.4 3.8 1.7 5.3.6 2.3-1.6 2.9-3.5 1.6-5.4-.6-.9-1.6-1.7-2.6-2-1-.2-1.4-.6-1.4-1.8.3.1.7.1 1 .2 3.6.9 7.2 1.7 10.9 2.6 2 .5 4 1.2 6 1.3 1.7.1 2.1 1.3 2.8 2.3 1.4 2.3 2.8 4.6 4.3 6.9 1.3 1.9 2.9 3.7 4 5.7 1.5 2.7 3.6 5 5.4 7.4 1.9 2.5 3.5 5.3 5.3 8 .9 1.4 1.9 2.6 2.8 4 .5.7.9 1.5 1.3 2.3-8.8 6-17.1 12.5-26.4 17.5z"/><path d="M242.2 306.3c1.3-1.6 3.4-2.4 3.2-4.8-.1-.9.3-2-1.1-2.2s-1.6.8-2 1.8c-.4.8-1.2 1.4-1.9 2.2-1.2-2.1-2.1-3.7-3-5.3-1-1.6-2-3.2-2.9-4.8.1-.2.3-.4.4-.7 1.2.2 2.4.4 3.7.5.6 0 1.8-.1 1.8-.3.1-.8.1-1.7-.3-2.3-.4-.5-1.3-.8-2-.8-1.8 0-3.5.3-5.5.5-.8-1.1-1.7-2.4-2.7-3.7-.9-1.2-2.1-1.1-2.4.2-.1.5.2 1.3.5 1.8 1.3 2 2.9 3.6 2 6.6-1.1 3.4-1.2 7.4 2.4 10 1.5 1.1 3.5 1.3 5.3 2 .6.2 1.4.2 1.7.6 1 1.5 1.8 3.1 2.8 4.6.6.9 1.1 2.2 2.5 1.5 1.2-.6 1.7-1.7.7-3-1.3-1.5-2.3-3-3.2-4.4zm-9.6-9.7c1.5 2.2 3 4.3 4.4 6.5-4.1-.9-5.2-2.8-4.4-6.5zM607.4 77.4c-3.3-.6-4.5-.7-7.8-1.2l-12.3-1.8c-2.7-.4-5.3-.8-8-.9-6-.3-11.9-.3-17.9-.6-1.8-.1-3.4 0-4.4 1.8-.1.1-.2.2-.3.2-2.7 2.3-5.5 4.6-8.1 7-2.2 2-4.6 2.8-7.7 2.3-4.1-.7-6.9-3.1-9.4-6.3-1.9-2.4-3.8-4.9-5.8-7.2-3.5-3.9-8.7-5.4-13.7-4-.1-6.3-.2-12.6-.3-19 0-4.7-.1-9.4.1-14.1.1-5.7.5-11.5.7-17.2v-4.1c0-3.3 0-6.7-.2-10-.1-1.5-1-2.1-2.5-2-1 .1-1.9.1-2.9.2-13.8.1-27.6.2-41.4.4-13 .2-26 .6-39.1.9-11 .2-22 .5-33 .6-8.1.1-16.1-.2-24.2-.3-7.5-.1-15-.1-22.5-.1-3.6 0-7.2-.1-10.8-.1-4 0-8-.2-12-.1-8.2.2-16.4.6-24.7 1-.6 0-1.2.2-2 .3-.1 3-.3 5.9-.2 8.7.1 2.5.7 5.1.7 7.6.2 9.4.4 18.8.5 28.2.1 7 .3 14 .4 21 0 5.7-.1 11.3-.2 17-.1 4.3-.3 8.6-.5 12.9-.2 3.7-.4 7.5-.5 11.2-.1 4.1-.5 8.3 0 12.4.6 4.7 1.4 9.3 1.5 14 .1 6 .2 12.1.2 18.1 0 6.7-.1 13.4-.1 20.1 0 3.7.2 7.5.2 11.2 0 2.9-.2 5.9-.2 8.8 0 2.2.1 4.4.1 6.6v11.9c0 2.5.1 5 0 7.4-.1 3.9-.6 7.8-.5 11.7.1 6.9.4 13.9.6 20.8.1 3.3.3 6.5.2 9.8 0 6.5-.2 13.1-.3 19.6v9.8c0 4 0 8-.2 12-.1 2.1.3 3.7 2.1 4.8.8-.2 1.6-.4 2.3-.4 2.1-.1 4.2-.1 6.2 0 5.2.2 10.4.5 15.5.7 4.7.2 9.4.2 14.1.4 6.9.3 13.9.8 20.8.9 10.4.2 20.8.1 31.2.3 9.9.2 19.8.6 29.7 1 7 .3 14 .8 21.1 1.1 8.8.4 17.6.5 26.3.8 5.9.2 11.8.8 17.7 1 3.6.1 7.2-.3 10.7-.4 3-.1 5.9-.1 8.9-.3 1.1-.1 2.3-.3 3.1-1 .5-.4.3-1.7.3-2.6.2-3.8.4-7.6.4-11.5-.1-14.1-.3-28.1-.5-42.2-.1-7-.3-13.9-.3-20.9 0-7.7 0-15.3.1-23 .1-6.3.3-12.6.5-18.9.1-2.3.3-4.6.5-6.9.3-3.9.7-7.8 1-11.7.2-3.3.2-6.5.3-9.8.1-6 .2-12 .2-18 0-7.4-.1-14.9.7-22.3.4-3.6.4-7.3.3-11 0-5.3-.3-10.5-.3-15.8 0-5.1.2-10.2.2-15.3 0-4-.1-8-.2-12V68c1.1-.2 2.2-.5 3.4-.5 1.4 0 3-.1 4.2.5 1.8.9 3.4 2.2 4.8 3.6 2.6 2.8 5.1 5.8 7.4 8.9 2.4 3.1 5.4 4.9 9.2 5.1 2.9.2 5.2 1.6 7 3.7 1.9 2.2 3.3 4.7 4.2 7.4.6 1.6 1.5 3.1 1.8 4.8.3 1.8.9 2.6 2.8 2.8 3.8.3 7.5.8 11.2 1.2 2.2.2 4.4.4 6.6.7 2.8.3 5.7.7 8.5 1 4.3.5 8.6.9 12.9 1.4 2.3.3 4.6.6 7 1 1.1.2 2-.1 2.3-1.4.1-.4.3-.8.4-1.2l1.2-10.2c.7-5.3 1.5-10.6 2.1-15.9.1-1.1 0 0 .4-1.7.8-1.1-.2-1.5-1.8-1.8zm-301-71.6l30.9-.9c8.5-.2 16.9-.7 25.4-.7 8.1 0 16.1.7 24.2 1 3.5.1 7 0 10.5 0 5.3 0 10.7.1 16 0 6.3-.1 12.6-.4 18.9-.6 4.5-.1 9.1-.2 13.6-.2H461c8.1.1 16.3.3 24.4.4 5.4.1 10.7 0 16.1 0 .7 0 1.4.1 2.5.1-.7.7-1.1 1.2-1.6 1.4-5.5 3.2-9.9 7.4-13.2 12.9-2.2 3.7-4.6 7.3-5.9 11.5-.4 1.2-1.2 1.8-1.9 2.6-.1.2-.6 0-1.2 0 2.2-4.7 4.8-8.8 7.3-13.1 2.5-4.2 5.6-7.9 9.1-11.5-.4.2-.9.4-1.2.7-3.9 3.1-6.7 7-9.3 11.2-2.3 3.7-4.5 7.5-6.8 11.2-.6 1-1.1 2-2.8 1.4 3.3-6.1 6.5-12.2 9.8-18.3-1.5 1.2-2.4 3-3.3 4.6-2.4 3.9-4.8 7.8-6.9 11.7-1.1 2-2.5 2.8-4.8 2.4 2.8-5.8 5.7-11.5 9.2-16.9-1.9 1.4-3.1 3.3-4.2 5.2-1.5 2.6-3 5.3-4.5 7.9-.5.8-1.1 1.6-1.5 2.5-.7 1.5-1.8 1.9-3.6 1.4 2.7-5 5.3-9.9 8-14.9l-.2-.2c-.3.3-.7.7-.9 1-2.3 3.8-4.6 7.7-6.9 11.5-.4.7-1 1.2-1.5 1.8-.9 1.1-1.9 1.2-3.4.8 3-5.1 6-10.1 9-15.1-.1-.1-.2-.1-.3-.2-1.1 1.5-2.2 3-3.3 4.6-1.9 2.9-3.9 5.8-5.7 8.8-1.2 2-2.8 2.6-5.2 2 2.4-3.5 5.1-6.5 6.3-10.6-.3.3-.6.6-.9 1-2.2 2.8-4.4 5.7-6.5 8.6-.9 1.3-2 1.6-3.8 1.1 1.7-2.9 3.4-5.7 5.1-8.5-.1-.1-.2-.1-.3-.2-.3.3-.7.5-.9.8-1.7 2.4-3.3 4.7-4.9 7.1-.7 1-1.4 1.4-2.9.9.8-1.4 1.6-2.8 2.6-4.5-1.4.3-1.9 1.2-2.2 1.9-1.2 2.1-2.8 2.8-5.1 2.5-4.8-.6-9.7-1.1-14.5-1.4-6.1-.3-12.3-.2-18.4-.2-2.4 0-4.8-.1-7.2-.1-4.1-.1-8.1-.3-12.2-.4-4.5-.1-8.9.1-13.4-.1-3.9-.2-7.8-.8-11.7-1.1-1.1-.1-1.8-.6-2.5-1.6-1-1.5-2.1-2.9-3.9-3.5.9 1.5 2.2 2.8 2.8 4.6-1.4.4-2.2-.1-2.9-.9-1-1.2-2.2-2.3-3.4-3.4-.3-.3-.8-.3-1.4-.2 1.2 1.4 2.5 2.8 3.7 4.2-2.5.8-2.9.7-4.4-1.1s-3.1-3.6-4.7-5.5c-.3-.4-.8-.7-1.4-.8 1.8 2.4 3.6 4.9 5.4 7.5-1.5.6-2.2.3-3-.8-1.8-2.4-3.7-4.6-5.6-6.8-.3-.3-.7-.5-1.3-.5 1.9 2.6 3.9 5.3 5.9 8-2.4.7-2.4.7-3.6-1-2.2-2.9-4.5-5.8-6.8-8.7-.5-.6-1.1-1.2-1.9-1.6 2.7 3.7 5.4 7.3 7.6 11.3-1.4.8-2 .2-2.7-.7-2.6-3.4-5.4-6.7-8.1-10-.2.1-.3.2-.5.3.3.5.6 1.1.9 1.6 1.7 2.3 3.5 4.5 5.2 6.8.5.7.9 1.5 1.3 2.3-1.5.8-2.3.3-3-.8-2-3.1-4-6.1-6.1-9.2-.6-.9-1.4-1.7-2.2-2.5.5 1.1 1 2.3 1.6 3.4 1.5 2.6 3.2 5.2 4.8 7.7.3.5.5 1.1.8 1.7-1.2.8-1.7.3-2.3-.7-2.5-4.5-6.1-8.1-9.5-11.8 2.5 4.5 6.2 8.2 8.6 13-.9.1-1.5.3-2.3.4-2.8-6-6.9-11.1-11.5-15.7 3.6 4.8 7.3 9.5 9.7 15-.9.7-1.5.5-2-.2-.6-.8-1-1.6-1.6-2.4-2.7-4.3-5.4-8.5-9.2-11.9-3.7-3.3-7.7-6.2-11.6-9.2-.3-.2-.6-.4-1.3-1 1.7.1 2.5 0 3.4-.1zm179.5 71.3h.5l-.3 11.1c-.2 0-.4.1-.6.1.1-3.8.3-7.5.4-11.2zm-3.1 196.2c0 1.1-.1 2.2-.7 3.1h-.6c-.1-.8-.4-1.5-.4-2.3-.1-4.5-.2-9.1-.2-13.6s.3-8.9.5-13.4c.1-2.2 0-4.3.1-6.5.1-2.1.3-4.3.4-6.4.1-1.4 0-2.8 0-4.2.1-2.4.2-4.8.2-7.2.1-7.3.2-14.7.4-22 .1-6.1.3-12.1.6-18.2 0-.6.3-1.2.7-1.7-.1 3.1-.2 6.1-.2 9.2.1 4.5.5 8.9.6 13.4.1 3.4 0 6.8-.1 10.3-.2 7.4-.5 14.8-.7 22.3-.2 8.3-.5 16.6-.6 24.9v12.3zm-152.9-7c-.3-1.4-.2-2.7.7-3.7-.4-.8-.9-1.5-1-2.2-.1-3.6-.4-7.2.1-10.7.3-2.2-.2-4.5.8-6.7.6-1.4.1-3.4.1-5.1.1-6.6.3-13.3.4-19.9.1-4.5 0-8.9 0-13.4v-20.4l.3-23c0-1 .3-2 .7-2.9.2 3.5.6 7 .7 10.5.2 6.6.1 13.1.3 19.7.1 4 .6 8 .7 11.9.2 5.1.3 10.2.4 15.3.1 2.2.2 4.3.2 6.5 0 5.1-.2 10.2-.1 15.3.2 7.9-.4 15.8-1.1 23.7-.4 4.8-.4 9.7-.5 14.6-.1 1.9-.1 1.9-2.3 2.5 0-2.7-.3-5.4 0-8.1.1-1.5-.1-2.7-.4-3.9zm-1.8-207.8h-.5c-.6-7.2-1.2-14.4-1.8-21.7 1 0 1.7.1 2.5.1-.1 2.4-.2 4.8-.3 7.3-.1 2.4 0 4.8-.1 7.2 0 2.4.7 4.7.2 7.1zm-.5 2.5c0-.2.1-.4.4-1.2.2 2.1.4 3.6.6 5.2.4 5.4.9 10.8 1.1 16.2.2 4.5.2 8.9.4 13.4.2 6.2.4 12.4.7 18.7.2 3.1.8 6.2.8 9.3.1 4.9 0 9.9-.1 14.8 0 .8-.1 1.6-.2 2.4-.1 0-.3 0-.4.1 0-3.7 0-7.4-.2-11-.5-9.7-1.1-19.4-1.8-29.2-.3-4.8-1.3-9.7-1.4-14.5-.2-8.1 0-16.2.1-24.2zm137.2-24c-7.3.3-14.5.7-21.8.7-5.1 0-10.2-.6-15.3-.9-5.2-.3-10.4-.5-15.5-.7-7.1-.2-14.2-.2-21.3-.5-7.6-.3-15.1-.9-22.7-1.2-3.4-.1-6.8.4-10.3.4-7.3.2-14.5.3-21.8.4-2.2 0-4.4.1-6.8.1 0-.7-.1-1.2-.1-1.8 2.4-.1 4.7-.3 7-.3 6.9-.1 13.9-.2 20.8-.1 5 .1 10 .5 15.1.6 3.4.1 6.9-.1 10.3 0 7.7.1 15.5.4 23.2.5 6.5.1 12.9.1 19.4.4 6.1.3 12.2.9 18.4 1.3 4.3.2 8.6.1 12.9.3 3.7.2 7.4-.6 11.1-.3.3 0 .5.1.8.1v.4c-1.1.3-2.3.5-3.4.6zm8.5.2c-5 1.2-10 1.5-15.1 1 5.1-.3 10.1-.6 15.1-1zM334 275.8h-.3v-4.1h.3v4.1zm-.2 3.7c2.2.6 4-1 6-1.2 1-.1 1.9-.6 3 0 .4.2 1.1 0 1.6-.1 4-.9 8-1.1 12.1-.6.8.1 1.6.1 2.4 0 5.2-.2 10.3-.6 15.5-1 6-.5 12.1-.3 18.2-.3 6.1-.1 12.3 0 18.4-.1 3.7 0 7.5-.2 11.2-.1 5 .1 10 .6 15 .7 4 .1 8-.2 12-.1 6.3.1 12.6.4 18.9.6 2.5.1 5.1.2 7.6.4 1.1.1 2.5-.3 3.3 1.2-.4.2-.6.4-.8.4-5.5.1-11 .3-16.5.3-8.1 0-16.1 0-24.2-.2-4.9-.1-9.9-.7-14.8-1-1.1-.1-2.2 0-3.3.1-4.7.2-9.4.4-14.1.5-6.2.2-12.4.5-18.7.6-4.9.1-9.7-.1-14.6-.3-5.2-.2-10.3-.8-15.5-1-2.6-.1-5.2.4-7.8.8-4.5.7-9 1.3-13.6 1.3-.8 0-1.7 0-2.7-.3.4-.1 1-.7 1.4-.6zm3.5-47.6c0 1.8 0 3.7.1 5.5-.5-1.8-1-3.6-.1-5.5zm.6 28c.1.1.3.1.4.2-.2.5-.3.9-.5 1.4-.2 0-.4-.1-.5-.1.3-.5.4-1 .6-1.5zm.9 4.9c.2-1.2.4-2.1.6-3.4.4 1.8.5 1.8-.6 3.4zm4-54.4c1.5-2.6 4.4-2.5 6.1-4.3.2-1.3.4-2.7.6-4 .1.9.1 1.9.2 2.8h.3c.2-1.9.3-3.7.5-5.6.3-.4.6-.9.9-1.3-.2 2.5-.1 5-.7 7.4-.3 1.5.1 2.5.6 3.9.2-.6.3-.9.4-1.4.5.8 1 1.5 1.4 2.1.8-.8.8-.8 1.9.5h-1.6c-.3.2-.5.6-.8.7-3.3 1.2-5.9 3-6.9 6.6-.2.8-.5 1.8-1.8 1.5-.2 0-.7.7-.8 1.2-.4 1.5-.7 3-1 4.5h-.6c0-.5-.2-1.1 0-1.6.7-2.5 1.6-4.9 2.3-7.4.4-1.2.5-2.4.9-3.6.2-.6.6-1.2 1-2-.9-.1-1.8 0-2.9 0zm8.6-12.7v-2.1c-.5 1.2-1.2 2.3-1 3.7-.2.4-.4.7-.5 1.1-.1.3-.2.5-.3.8.3-1.6.5-3.3.8-4.9.1-.4.6-.8.9-1.1.3.2.9.5.8.7-.1.5-.4 1.1-.7 1.8zm22.2-50.8c.4 1.3.6 2.6.3 4-1.2 4.8-2.4 9.6-3.5 14.4-.1.5-.3.9-.3 1.4-.3 2-1.4 3.2-3.2 4.1-1.8 1-3.4 2.5-5.3 4-2.5-1.4-5.2-2.9-6.9-5.9-1.3-2.3-1.1-3.9.7-5.8 1.5-1.5 2.9-3.2 4.5-4.7 3-2.8 2.7-5.8-.8-8.4-.9-.7-2-1-3.2-1.6.5-1.8 1.1-3.6 1.7-5.8 1 1.3 1.7 2.3 2.5 3.3 1.6-1.5 1.5-3.2 1.7-4.7.3-2 .9-3.8 2.4-5.5 1.3.4 2.5.9 3.8 1.4.6-.6 1.1-1.2 1.8-2 .4.8.7 1.5 1 2.3.9 3.3 1.9 6.4 2.8 9.5zm-1.7-20.9c0 1.9 0 3.3.1 4.6h-.6c-1.2-1.3-.5-2.7.5-4.6zm3.1-2.6c.2 1.2.4 2.2.6 3.4.2-.6.3-1 .5-1.4 1.4 1.8 1.4 2.4.1 4.1-.1-.2-.3-.3-.4-.6-.3.9-.7 1.9-.9 2.8-.2.8-.1 1.7-.1 2.6-.2 0-.4-.1-.7-.1 0-2.9-.1-5.7-.1-8.6h-.3c-.1 1.8-.2 3.6-.3 5.8-1.1-1.9-1.1-3.6-.2-8.6.2.5.4.9.5 1.3.4-.1.7-.3 1.3-.7zm0-6.6c.2 0 .4-.1.6-.1.3.9.8 1.7 1 2.6.5 1.6.3 1.9-1.8 3-.3-2-.7-3.7.2-5.5zm4-4.7c.9 1 1.9 2 2.9 3-.3.4-.7.8-1.1 1.3-.8-.6-1.5-1.1-2.2-1.6l-.3.3.9 1.5c.8 1.2.8 1.2-.6 2.3-2-3.5-1.9-4.5.4-6.8zm-.7-3.5c1.1 2-.3 2.6-.8 3.5-.4-1.3.4-2.1.8-3.5zm4.1 5.1c-2.6-1.5-2.8-2.2-1.5-5.3.5 1.7.9 3.2 1.5 5.3zm-.9-13.1c.1 0 .3-.1.4-.1.1.5.2.9.3 1.4-.2 0-.4.1-.6.1 0-.5 0-1-.1-1.4zm7.2-11.2c1.4-2.6 4-4.1 6.9-4.9 2.1-.6 4.3-1 6.9-1.5.3-.6.8-1.5 1.3-2.5.2 0 .3.1.5.1-.1.8-.2 1.6-.4 2.6 2.7.2 5.3.5 8 .5 3.1.1 6.2.5 9.1 1.5 2.4.8 4.4 2.2 6 4.3.9 1.2 1.9 2.4 2.8 3.6 2.2 2.7 2.4 7.2.1 9.9-2.2 2.7-2.3 5.7-1.2 8.7.5 1.4.4 2.2-.9 3-.6.4-1.1.9-1.5 1.5-.7 1-.9 2.1.1 3 .3.3.7.7.9 1.1.7 1.3.5 2.2-.7 3.1-.5.3-1 .6-1.4 1-1.1 1-1.1 2.4-.1 3.4 1.9 1.9 1.9 1.9 0 3.8-.4.4-.8.8-1.2 1.1-.1-.1-.2-.1-.2-.2.4-1.2.9-2.4 1.3-3.7-.2-.1-.3-.1-.5-.2-.9 1.4-1.6 3-2.7 4.3-1.2 1.3-2.7 2.2-4.2 3.3-.4-.6-.6-1.1-1-1.6-1.8.4-3 1.5-4.2 2.7-1.9 1.9-3.9 3.6-6.4 4.5-3.9 1.3-7.5.8-10.6-2.1-1.7-1.6-3.7-3-5.5-4.5-2-1.7-3.3-3.8-3.5-6.5-.3-4.4-.9-8.7-1.3-13.1 0-.3-.2-.7-.1-.9 1-2.2-.1-4.2-.3-6.3-.6-6.9.9-13.2 4-19zm-2.1-.4c.5 1.6-1.1 2.1-1.6 3.6-.3-2.2-.3-2.4 1.6-3.6zm.1-2.5c.8-1 1.3-1.6 1.9-2.2.4 1.4.4 1.4-1.9 2.2zm6.7-3.9c.5-.2.9-.4 1.4-.6.1.1.1.3.2.4-.5.2-.9.4-1.4.6-.1-.1-.2-.2-.2-.4zm3.2-.6c.8-.2 1.5-.4 2.3-.6 0 .2.1.3.1.5-.7.2-1.5.4-2.2.6-.1-.2-.2-.4-.2-.5zm2.4-2.2c.9-1 2-1.8 3.4-1.3-1.1.5-2.2.9-3.4 1.3zm8.8.3c1.5-.9 2.1-.9 4.4.2-1.3 0-2.7-.1-4.4-.2zm5.2 2.4c-1.3-.1-2.5-.2-3.7-.2 1.3-.4 2.6-.9 3.7.2zm-4.9-5.4c-1.1.7-2.1 1.5-3.3 2.1 1.4-2.7 4.1-3.5 6.8-4.4-1.1.8-2.3 1.5-3.5 2.3zm13 5.6c-2.3-.9-4.6-1.8-7-2.7 2-.3 5.3 1 7 2.7zm-6.3-5.4c.8.3 1.7.6 2.8 1-1.5.3-1.5.2-2.8-1zm41.8 18.9c.8 0 1.4 0 2 .8.5.6 1.7.5 2.8.8l.2.2c1.3 3 1.7 3.2 4.9 2.6 2.4-.4 4.7-1.5 7.2-1.3.7 0 1.4-.6 2.1-.9 1.4-.7 2.7-1.6 4.6-1.4-.1 3.3-.2 6.6-.3 9.8-.1 3.9 0 7.8-.1 11.7 0 2.2-.9 3.2-3 3.9l-2.7.9c-1.6.4-3.1 1.3-4.8.5-.4-.2-1.1.1-1.8.2.1-1 .2-1.9.2-2.9-1-.1-2-.1-3-.2.3-1.8 1.9-3.3.7-5.4h-2.1c1.3-2 2.4-3.7 3.6-5.4 1-1.4 2-2.7 3-4 .6-.8.8-1.6-.2-2.2-4.6 1.3-7.9 4.5-10.8 8-2.8-.6-4.1-.1-5.2 2.4-.7 1.4-1.1 3-1.6 4.5-.2.5-.3 1.1-.5 1.6-.5 1.3-1.1 2.6-1.8 4.1l-1.2-.6c-.2.4-.3.8-.5 1.2-.8.3-1.7-.2-1.8-1-.2-1.3-.3-2.7-.5-4-.3-2.5-.6-5.1-.8-7.6-.1-.8-.2-1.5.8-2 .4-.2.5-1.2.5-1.9.3-4.7.8-9.4 2.3-13.9.2-.8.5-1.6.9-2.2 2.3-3.1 3.6-6.7 4.4-10.5.2-.8.5-1.6 1-2.3.2 3.2 1.7 6.4.1 9.7-.1-.4-.3-.7-.5-1.2-.1 2.1-.2 4.1-.2 6.1.2 1.6.4 1.8 2.1 1.9zm22.2 105.7c-.4 1.9-.8 3.8-1.3 5.9-.1-.8-.2-1.3-.3-1.8-1-.1-1.3.5-1.5 1.2-1.2 3.7-2.5 7.3-4.1 10.9.3-2 .6-4 .8-6 .2-2.7.5-5.4 2.4-7.6.3-.3.4-.9.5-1.3.4-1.9.7-3.8 1-5.8 1.1.1 1.3.7 1.2 1.4-.2 1.4.2 2.3 1.3 3.1zm-.1 35.4c-.3.3-.6.6-1 .9-.6-1-.6-1 .7-5.8.3.9.6 1.3.6 1.7 0 1-.1 2.1-.3 3.2zm-.1 14.2c.1 1.4.6 2.8-.8 4-1.2 1-2 2.4-3.1 3.6-3.2 3.4-7.7 4-12 4.9-2.9.7-5.8 1-8.8 1.1-4.1.2-8.1.3-12.2.3-2.5 0-5.1-.5-7.6-.7-.2-1.1-1-1.6-1.5-.9-.9 1.2-1.9.8-3 .8s-2.2-.1-3.3-.4c.5-.1 1-.2 1.9-.3-.9-.1-1.5-.2-2.1-.3v-.3c5.8-.3 11.6-.6 17.4-1 0-.1 0-.2.1-.4-1-.3-2-.7-3-1 0-.1.1-.3.1-.4 2.7 0 5.5-.1 8.2-.1-1.2-.9-2.5-.7-3.8-.7s-2.7 0-4-.2c3.4-.1 6.9-1.5 10.3.3.8.4 1.8.3 2.8.5-.2 0-.4 0-.6.1-.9.4-1.7 1-2.6 1.3-1 .2-2.1 0-3.1.1-.3 0-.6.2-1.1.4.4.5.7 1.1 1 1.1 1 .1 2.3.4 3-.1 2.8-2 5.7-1.2 8.6-.5.7.2 1.3.4 2.2.7-.1-.5-.2-.8-.3-1.2l6.9-1.5c-3.4-.7-6.8.1-10.2-.4 2.3-1 4.3-2.6 7.1-2.3v1.3c1.4-.5 2.6-1 3.9-1.5-2.2-2.1-4.5.3-7.3-.5 2.5 0 1.9-2.4 3.3-3.2 1.5.1 2.9.3 4.5.4-.1-1.1-.1-2-.2-3.4.7.8 1.1 1.7 1.5 1.7.7 0 1.5-.5 2.2-.8.3-.2.6-.5.9-.8-.4-.2-.8-.4-1.6-.9 1.7-1.2 3.1-2.2 4.5-3.2l.4.4-1.5 1.5c-.5.6-1 1.3-1.5 2 1.5-1 2.9-2 4.5-3.2.8 1.4-.4 2.3-1.1 3.3.4.2 1 .3 1 .4zm-1.1 24.3h-2.1c1.2-1.5 1.2-1.5 2.1 0zm-2.4-14.3c-1.5 1.5-3 2.9-5.5 2.6 1.7-1 3.5-2 5.2-3 0 .1.1.2.3.4zm-6.3 7.1c-.5 2.6-.5 2.6-2.6 3.1.6-.8 1-1.3 1.4-1.8.4-.4.8-.9 1.2-1.3zm-3.9-1.5c-1 .1-2.1.2-3.1.4v-.1c1-.3 2-.6 3-.8 0 .1.1.3.1.5zm-12.4-.1c-.7.2-1.4.5-2.2.7-.1-.2-.1-.4-.2-.7.7-.1 1.5-.3 2.2-.4.1.2.2.3.2.4zm-15 7.3c-.6.1-1.2.1-1.9.2.9-.8.9-.8 1.9-.2zm-4.7-1.4c-.6.2-1.1.5-1.7.7-.1-.1-.1-.2-.2-.3.5-.3 1-.6 1.5-.8l.4.4zm-16.7-11.1c-.1 0-.1 0 0 0-.1 0-.1 0 0 0-.6.4-1.1.8-1.9 1.4 3 1.6 6-.4 8.8.2 0 .2.1.4.1.6-.4.2-.7.6-1.1.6-1.2.1-2.4.1-3.6.1-4.4.1-8.9.1-13.3.3-1.2.1-2.4.7-3.6 0 .2-1.6.2-1.6 2.7-1.7-.9-.6-3.4-1.3-4.5-.8-2.1 1-4.4.2-6.5.6-.6.1-1.3 0-2.1-.2.2-.1.5-.2.8-.3-.5-.2-.9-.4-1.5-.6.6-.2.9-.2 1.3-.3-.7-.7-2 .3-2.8-1.1 5.8-.7 11.4-1.6 17-1.6 5.7 0 11.3.5 17.3.7-1.9 1.3-3.8-.1-5.2.6 1.8.5 3.8 1 5.9 1.6.1-.1.2-.2.2-.3-.4-.2-.7-.4-1.3-.7.6-.3 1-.4 1.4-.6 4.9.1 9.9-.3 15 .7-5.7 2.4-11.5 1.5-17.3 1.9-1.1.1-2.3-.5-3.4-.8-.9-.6-1.7-.9-2.4-.3-.1 0 0 0 0 0zm4.6 7.5c.1.2.2.3.3.5-1.1.5-2.1 1.1-3.2 1.6-.1-.1-.2-.3-.2-.4 1-.6 2.1-1.1 3.1-1.7zm-5.5-1.7c1.6-1.2 1.6-1.2 3-.2-1.1.1-1.9.1-3 .2zm-1.4 2.3c-1.1.6-2.2 1.2-3.3 1.7-.1-.2-.2-.3-.3-.5 1.1-.6 2.3-1.1 3.4-1.7.1.2.1.3.2.5zm-8.2-2.3c.6 3.3.6 4-1 6.3v-3.8c-.4 1.1-.8 2.2-1.2 3.6-.7-1.9 0-5.1 1.5-7.4-.1 1.3-.3 2.6-.4 3.9.4-.7.7-1.6 1.1-2.6zm-7 6c-.7-1.7.4-2.6.9-3.8.2 1.6 0 2.2-.9 3.8zm-.6-10.2c-1.1.5-1.8.9-2.7 1.3-.6-.3-1.3-.6-2.1-1 0-.1 0-.2.1-.3 1.4.1 2.8.1 4.7 0zm-5.6 11.9l-1.2.3c0-.1 0-.3-.1-.4.5 0 .9 0 1.3.1zm-4.8-26.3c-.9.8-2 1.4-2.6 2.3-1.5 2.1-2.8 4.4-4.2 6.6-.8 1.2-.9 2.3-.4 3.6.3.7.2 1.5.4 2.5-1.5-.2-3.1-.2-3.7-1.7-.3-.7-.4-1.1-1.1-1.5-.5-.3-.9-.9-1-1.4-.5-1.6.2-3 1.1-4.2 1.5-2.1 3.1-4.1 4.6-6.1.6-.9 1-1.9 1.6-2.9-1.1-.6-1.8-.3-2.3.4s-1 1.5-1.5 2.2c-1 1.3-2.1 2.6-3 3.9-.9 1.4-1.8 2.8-2.6 4.2-1.8-1.9-1.9-3.7-.2-6 .8-1.1 1.8-2 2.7-3.1 1.1-1.3 2.3-2.7 3.2-4.1.8-1.3 1.7-2.1 3.2-2.1 2.1-.1 4.3-.2 6.4-.2.6 0 1.3.5 1.8.9.9.8 1.6 1.8 2.4 2.7 2.7 2.8 5.8 5.2 9.5 6.7.7.3 1.3.6 1.9 1-2.4 2-9.5 1.5-12.3-.7-2.7 2-3.2 5.4-5.2 7.9.1 1.2.5 2.1 1.4 3 .7.7 1 1.9 1.6 2.9-3.5.9-6.4-1.1-6.7-4.3-.2-2.2.6-3.9 1.8-5.5 1.1-1.4 2.1-2.8 3.3-4.1.4-.9.8-1.6-.1-2.9zm-35.7-6.9c-1.3-.3-2.9-.5-2.9-2.5.5.1 1.1.2 2 .4-1.4-2.1-.8-3.7.2-5.2 0-.1.1-.1.1-.2.6-1 2.7-.7 2.1-2.8-.3-1.1.3-2.5.5-3.7.3-1.5.4-3.1 1.1-4.4.5-.9 0-1.2-.3-1.9-1.1.9-2.2 1.8-2.4 3.4-.1.7-.6 1.3-.9 1.9-.9 2.2-1.7 4.4-2.6 6.8-.1-.5-.4-1-.3-1.4.5-1.8 1-3.7 1.7-5.5 1.4-4 4.1-7.2 7.3-9.9 1.4-1.2 3.1-2.2 5.6-1.4-1 1.8-2 3.5-2.9 5.2-1.4 2.5-2.8 5-4 7.5-.4.8-.3 1.8-.4 2.8-.1 1.1-.1 2.2-.2 3.3.7-.1 1.5-.3 2.5-.5-.6-1.9-.4-3.5 1.8-4.9-.8-.1-1.1-.1-1.8-.1.8-.7 1.4-1.2 2.3-1.9-.5-.1-.8-.2-1.5-.4 1.2-.9 2.2-1.7 3.6-2.8-1 .2-1.5.3-2.2.5.7-1.6 2.4-1.9 3.3-3.1-.3-.1-.5-.3-.9-.5.5-.5 1-.9 1.5-1.3-.9-1.4.6-2.3.5-3.6 2.2 1.4 2 2.3 1.1 3.9-.4.7-.7 1.4-1.2 2.1-2.3 3.3-2.5 7.3-3.7 11-.2.8.3 1.8.7 2.8.7-1.8 2.7-2.8 2.2-5.3-.2-1.2.7-2.9 2-3.9.7-.5 1.3-1.1 1.7-2-.6.1-1.3.3-1.9.4 0-.1-.1-.1-.1-.2 1.5-.9 2.9-1.8 4.4-2.6-.1-.2-.1-.3-.2-.5-.8.1-1.6.2-2.9.4 1.7-1.1 2.9-2.1 4.3-2.8.8-.4 1.7-.1 2.1.9.3.7.6 1.4.9 2.3-1.1 1.4-3.2 2.4-4 4.6-.8 2.5-1.9 4.9-2.6 7.4-.6 2.4.1 4.6 2.3 6.1-.2 1.2-1.1 1.9-2.2 2.2-1.2.4-2.5.7-3.7.7-4 .1-8-.3-12-1.3zm10.4 25.5c-.7.4-1.4.8-2 1.1-.1-.1-.2-.3-.2-.4.7-.4 1.4-.8 2-1.1.1.1.2.2.2.4zm-11.1 5.3c0-.2-1.5-1.2 0-.9.4.1 1-.2 1.5-.3.1.2.1.3.2.5-.6.2-1.2.5-1.7.7zm-.8-9.4c0-1.5 1.5-2 2.7-2.8.1.1.3.2.4.3-1.1.9-2.2 1.8-3.1 2.5zm-.2-47.5c-.4-.9-.4-1 .9-1.6-.3.6-.6 1.1-.9 1.6zm-.1.1l-.9 1.5c0-.7.2-1.3.9-1.5zm.3 3.5c.1-.1.5.1.8.2-.1.8.1 1.6-.3 2.2-.9 1.8-2.1 3.5-3.1 5.3-.4-2.5.8-6.3 2.6-7.7zm2.1-3.6c.5-3 .8-3.3 2.9-3.3 1 0 2 .2 3 .4-2 1.1-4.4.4-5.9 2.9zm2.9.2c-.5.6-1.1 1.2-1.8 1.9-.1-1.5.5-2 1.8-1.9zm-2.8 1.4c-.1 1-.1 1.9-.2 3-.6-.3-.9-.5-1.2-.7 0-1 0-2 1.4-2.3zm-4.1 20c.2.6.3 1.3.5 1.9-1.4 0-.9-1-.5-1.9zm3.7-5.1c-.8 1.1-1.5 2.1-2.3 3.2-.3-1.7-.1-2.1 2.3-3.2zm-1.7-.9c.4-.4.8-.9 1.2-1.3l.2.2c-.4.5-.7.9-1.1 1.4l-.3-.3zm15-47.2c.4-.7.7-1.4 1.1-2 .2.1.3.2.5.2l-.9 2.1c-.2-.1-.4-.2-.7-.3zm.2 14c0 .4-.1.9-.1 1.3h-.1v-1.4c.1.1.2.1.2.1zm.9-17.3c-.2-.1-.3-.2-.5-.4l1.3-1.3c-.3.6-.5 1.2-.8 1.7zm.9-1.8c-.1 0-.1 0 0 0-.3-.1-.6-.3-.8-.2-.6.4-1.1.9-1.8 1.3 0-2.3 1.6-3.5 3-5.1.1 1.4 1.2 2.8-.4 4zm-3.9-3.6c-.1-1.4-.1-1.4 1.6-2.1-.5.7-1.1 1.4-1.6 2.1zm2.8-1c-.5.9-.5.9-1.5 1 .5-.9.5-.9 1.5-1zm1.7 19.7c.5 6.1 1 12.3 1.4 18.2-1.5-2.4-2.1-8.4-1.4-18.2zm3-12.8c.8-2.2 2.2-4.2 3.5-6.6 1.7 1 3.2 1.8 4.7 2.6 1 .5 1.9 1.2 2.9 1.6 2.1.9 4.3 1.7 6.5 2.4 5.7 2 11.6 3 17.6 2.7 2.5-.1 5 0 7.5 0 0 .4.1.6 0 .7-2.8 2.5-4 5.9-5.5 9.1-.9 1.9-1.8 3.7-2.8 5.5-.2.3-.5.5-1.2 1.1-.1-1.3-.3-2.3-.1-3.1.3-1.4.1-2.6-1-4.1-.1 2.6-.2 4.8-.3 7.1 0 1-.1 1.9-1.6 2.1-1-2.5-.1-5.1-.2-7.6-.1-2.7.7-5.1 1.4-7.6-.3.3-.7.5-.8.9-.4 1.2-.8 2.4-1 3.7-.5 3.8-.8 7.6-.6 11.4.1 2.4-.6 4.8-1.2 7.3-.7-3.6-1.2-7.2-1.3-10.9-.1-3.8.6-7.3 1.7-11-1.1.2-1.2 1-1.3 1.6-.5 1.8-.6 3.6-1.6 5.2-.5.8-.2 2-.1 3.1.1 1.9-.3 4.2-1.2 6.2-.9-2.5-1.1-3.5-.8-6.3.1-.6-.1-1-.4-1.5-.5-.9-.7-2.1-.6-3.2.2-1.9.7-3.7 1-5.6v-1c-1.3 1.3-1.3 2.7-1.5 4.1-.4 3.3.1 6.5.6 9.7 0 .1.1.2.1.2.2 5.5 2.7 10.4 3.9 15.6.2.6.3 1.3.3 2-1.8-1.5-2.2-3.7-2.8-5.7-.5-1.6-.3-3.6-.9-5.1-1.8-4.5-1.8-9.3-3-14-.5 2.6.3 5.2.4 7.8s.1 5.2.1 8.2c-.6-2.2-1.4-4.2-1.5-6.1 0-2.9-1.2-5.6-.9-8.4 0-.4-.3-.8-.6-1.3 0 1.9.9 3.9-1.8 5.3-.3-2.4-.5-4.6-.8-6.8-1.1 3.2.5 6.4-.1 10-1.1-2.2-.9-4.3-1-6.2-.2-2.1-.4-4.3-.3-6.4.1-2 .7-4 .9-6.1-.2.3-.6.7-.7 1-1.4 3.7-1 7.5-.6 11.4.4 4 1.2 8 .6 12.1-.8-4.1-2.3-8.1-1.8-11.9-.4-1.4-.7-2.4-1-3.4-.2-.7-.6-1.4-.7-2.1-.2-.9-.4-1.9-.2-2.8.5-2 1.2-4 1.8-5.9.1-.3.2-.7.2-1-.2-.1-.3-.1-.5-.2l-1.2 2.7c-1.1 3.1-1.3 6.4-1.3 9.7 0 .8.1 1.7-1.5 1.2 0-1.6 0-3.2-.1-4.9 0-.7.1-1.4-.7-1.8 0 3.2 0 6.3.1 9.5.1 4.1.1 8.3.4 12.4.2 2.2.8 4.4 1.2 6.6.1.6.2 1.1-.1 1.9-.5-1.1-1.2-2.2-1.6-3.4-1.3-4.2-1.8-8.5-2-12.9 0-.9-.5-1.8-.7-2.7-.2-.7-.3-1.4-.4-2.1-.1-2.9-.2-5.7-.2-8.6 0-1.4.4-2.7.7-4.6-.6.5-.9.6-1 .8-.2.9-.5 1.9-.5 2.8 0 5.3-.5 10.6 0 16 .4 3.9.5 7.8 2 11.9-1.5-.6-1.9-1.5-2.2-2.4-1.9-6-3.1-12.1-2.4-18.4 0-.4.1-.8.1-1.2-.4-5.7 1.2-10.9 3.8-15.9.2-.4.3-.8.5-1.6-1.7 1.4-4.9 8.7-5.1 12.4-.2 4.4 0 8.8.1 13.2-.2 0-.3.1-.5.1-.2-.7-.5-1.5-.6-2.2-.1-2.2-.2-4.4-.2-6.7 0-.4 0-.8-.1-1.2-.1-1-.4-2-.2-3 .9-2.1 1.3-4.8 2.3-7.4zm-1.7-6.2c.1-.5.2-1.1.2-1.6.2 0 .3.1.5.1-.1.5-.2 1.1-.3 1.6-.2 0-.3-.1-.4-.1zm5.9-18.1v3.3h.4c.1-.6.2-1.3.3-1.9.2 0 .3-.1.5-.1.3.5.5 1 .8 1.5-.6.9-.6 1.9 0 2.8-1.7 1.9-2 3.8-.7 5.7-1.3 1.7-2.7 3.5-4.4 5.7-.2-6.2 2.1-11.5 3.1-17zm-1-19.9c1.4 1.9 1.7 3.6.6 5.5-.3-1.7-.4-3.5-.6-5.5zm7.4-8.9c1.5 2.6 1.4 3.6-.6 5.3-1.2-1.2-1.2-1.2-1-2.6.3.2.5.3.8.5.2.1.5.2.9.4 0-1.4-1.8-2.5-.1-3.6zm7.6 16.4c-.1 0-.2.1-.4.1-.2-.2-.6-.3-.7-.6l-2.1-7.2.6-.3c.9 2.8 1.7 5.4 2.6 8zm-2.4-9.2c.1-.3.1-.6.2-.8.5.2 1 .3 1.5.5-.1.2-.2.5-.2.7-.6-.2-1-.3-1.5-.4zm5.6 22.1c-.5.4-.8.8-1.2 1.1-.1-.1-.3-.1-.4-.2.1-.8.2-1.6.4-2.6.4.7.7 1.1 1.2 1.7zm-.9-4.9h.5c0 .4 0 .8.1 1.2h-.4c-.1-.4-.1-.8-.2-1.2zm.6 6.3c2.5-2.3 5-4.5 7.6-6.6 1.1-.9 1.9-2.2 3.6-2 .2 0 .4-.6.7-.8.6-.5 1.2-.9 2.2-1.7.3 1.7.6 2.9.7 4.2.2 3.1.4 3.3 3.3 1.7.6-3.5-.2-6.9-2-10.2 6.2-1.3 11.7-3.4 16.1-8 .7.3 1.2.6 1.7.9 2 1.3 2 2.3.3 3.9-1.3 1.2-1.3 2.5 0 3.7.8.7 1.5 1.5 2.4 2.4-.8.9-1.4 1.5-2 2.1-1.7 1.8-1.7 2.4.2 4 .2.2.3.4.4.5 0 1.8-1.9 1.5-2.8 2.8.4.5.8 1 1.3 1.5 1.5 1.5 1.5 1.8-.3 3.3-.2.1-.2.4-.4.7 1.4.5 2.2-.2 3-1 .5-.5.9-1 1.8-.9.5 0 1.1-.5 1.6-.8.7-.5 1.4-1.1 2.2-1.8.5 1.4.3 2.6-.4 3.7-.5.7-1.1 1.5-1.3 2.3-.3.9-.4 1.9-.1 2.8.3 1.2 1.1 2.2 1.7 3.4 1.3-.7.2-1.7.5-2.5.3-.9.5-1.8.7-2.6 0 1.4.1 2.9.1 4.4 0 1.3-.6 2.1-1.8 2.5s-2.3.7-2.9 2.1c-.3.7-1.4 1-2.1 1.4-2 1.1-4 2.4-6.1 3.2-2.4.9-4.9 2-7.4 1.9-5.6-.1-11.3-.6-16.8-2.3-.6-.2-1.2-.4-2.1-.8.6-.9 1.1-1.6 1.7-2.3.5-.6.7-1.2.1-1.6-.4-.2-1.3-.1-1.6.2-.8.9-1.3 2-2.2 3.2-2.8-.7-5.5-2-8.7-3.1 2.8-1.9 3.1-4.1 1.9-6.5-.4-.9 0-1.5.5-2.2 1.7-1.8 3.1-3.5 4.7-5.1zm4-11.2c-.2 2.6-.2 2.6-2.2 2.9.8-1 1.5-1.9 2.2-2.9zm-2 .8c.1-.5.2-1.1.4-1.6.2 0 .3.1.5.1-.1.5-.3 1.1-.4 1.6-.2 0-.4-.1-.5-.1zm1.5 6.1c.1-1 .1-2 .2-3.2.7 1.3 1.5 2.3-.2 3.2zm2.2-6c.1-.6.2-1.2.4-1.8.2 0 .4.1.6.1-.2.6-.3 1.2-.5 1.8-.2 0-.4-.1-.5-.1zm3.8-3.2c1 .7 1.2 1.2.1 1.9 0-.7 0-1.2-.1-1.9zm23.8-10.7c.4-.5.7-.8 1.2-1.5v2.1c-.4-.2-.7-.4-1.2-.6zm16.3 15c.2-.3.3-.7.7-1.1.2 2.1.3 4.3.5 6.4h.3c.1-.2.2-.4.2-.6.1-.2.1-.5.1-.5 1 2.5 2.1 5.2 3.4 8.2-1 .6-2.1 1.3-3.4 2.1-.9-2.3-2.4-4-2.6-6.3 0-.5-.2-1-.3-1.4-1-2.4-.5-4.6 1.1-6.8zm-.7-18.9h.6c.1.9.1 1.7.2 2.6-.2 0-.5 0-.7.1 0-1 0-1.9-.1-2.7zm2.6 9.9c.9 2.2 1.6 4.4 2.7 6.6 1.5 3 3.2 5.9 4.8 8.8.6 1.1 1.4.9 2.4.3.3.8.5 1.4.7 2-1.8.8-3.6 1.6-5.5 2.4-.8-.4-1.3-1.2-1.6-2.2-1.4-5-2.8-9.9-4-14.9-.3-1 0-2 .5-3zm.4-5.6c.8 2.1 1.5 4.2 2.4 6.5-2.7-2.2-3.4-4.1-2.4-6.5zm2.6 10.2c.1 0 .3-.1.4-.1l.6 1.8c-.2.1-.3.1-.5.2 0-.7-.2-1.3-.5-1.9zm10 1.8c.8.8 1.9.8 2.9.4s2.1-.8 3.1-1.1c.4-.1.8-.2 1.2-.1 1.9.8 3.9 1.8 5.7 2.6-1.7 1.9-3.4 3.8-5 5.7-.1.2-.1.5-.1.8-.3.5-.7 1-1.1 1.6-1 .2-1.9-.1-2.7-.9-2.7-2.7-8-11.8-9.1-15.8 2.3-1.5 4.9-2.1 6.9-1.6-.6 2-1.1 3.9-1.7 5.9-.3.9-.9 1.7-.1 2.5zm15 .4c-.1-.1 0-.3-.1-.4 2 0 2 0 3.6 2.2-1.2 1.1-2.3 2.1-3.5 3.1-2.3 1.9-3.8 4-3.3 7.2 0 .3-.1.5-.5.9-.2-.4-.5-.9-.6-1.3-.2-.7-.1-1.4-.3-2.1-.5-1.5-.1-2.7 1-3.7s2.2-1.9 3.3-2.7c1.7-1.3 1.7-1.3.4-3.2zm3 28c-2.4-.1-3.9-2-5.9-2.9s-4-2-5.9-3.3c2.3-.6 4.6-.9 7 .8h-2c0 .3-.1.5 0 .5 1.5 1 2.9 1.9 4.4 2.8l2.4 2.1zm-1.2-4c.2-.1.3-.3.5-.4 1 1.4 2 2.9 3.1 4.3-2.4-.4-2.4-2.6-3.6-3.9zm-.4 6.9c-1.6.5-1.9.2-1.2-1.2.3.4.6.7 1.2 1.2zm-8.2 5.8v-.2.2c-.6.5-1.2 1.2-1.8 1.3-2.4.3-4.3 1.6-6.4 2.4-.8.3-1.6.7-2.8 1.3 1.1-5.2 2.2-9.9 3.2-14.7.5 4.1-.7 8.2-.9 12.3.2 0 .3 0 .5.1.6-4.2 1.3-8.4 1.9-12.7.2 0 .4 0 .5.1.5 3.9-.1 7.8-1.1 11.9 1.2-1.5 1.2-2.1 1.7-6.3.3-2.1 0-4.3.7-6.2.2 0 .4.1.6.1 0 3.4.1 6.8.1 10.2 0 0 .1 0 .1.1.1-.8.2-1.6.3-2.5s.1-1.8.1-2.6c.1-1 .1-1.9.2-2.9.1-.8.2-1.6.4-2.4.2 0 .4 0 .6.1 0 2.6.1 5.2.1 7.8h.5c.1-2.4.2-4.9.3-7.2 1.7-.9 2.9 0 4.2.3.5 2.3 1 4.6 1.5 7.2-1.5.8-3 1.6-4.5 2.3zm-20.1 7.4c-.4.9-.6 2-2.3 2 1-2 2-3.9 3-5.8.6-1.2 1.4-2.3.4-3.8-.3-.5.2-1.4.3-2.1.1-.8.2-1.5.3-2.3-.4 1.3-.8 2.7-1.3 4-2.4 6.6-4.9 13.1-8.7 19-.6.9-1.4 1.7-2.3 2.4.5-4 3-6.9 4.8-10.1-.1-.1-.2-.3-.4-.4-.4.1-.9.2-1.2.4-.4.3-.6 1.2-1.4.7 1.8-3.7 3.6-7.3 5.6-11.2-1.4.6-2 1.1-2.4 2.2-1 3.2-2.8 5.8-4.9 8.2-.6.7-.7 1.9-1.2 2.7-1.1 1.9-2.4 3.8-3.6 5.6s-2.6 3.7-3.8 5.5c-.3.4-.5.8-1 .9 1.4-3.8 3.9-6.8 6.2-10.4-.7.4-1.1.6-1.8 1 .1-.6.1-1 .2-1.4-.5.5-1.1.9-1.6 1.4.2-1.1.3-2.2.5-3.3 2.9-4.1 5.9-8.1 8.8-12.2 1.1-1.5 2.1-2.9 3.2-4.4 0 .4-.1.7-.1 1.1.1 0 .2.1.3.1l.6-1.5 2.1-2.7c.2.1.3.2.5.3-.9 1.9-1.7 3.9-2.8 6.3.8-.4 1.2-.5 1.4-.7.9-1.7 1.8-3.4 2.6-5.1.5-.9.9-1.9 2.3-2.2-.2 1.3-.4 2.5-.5 3.7.3-.7.7-1.4.9-2.1.5-1.9 1.5-2.9 3.5-2.7.1.1.2.3.1.4-2.1 5.7-4.2 11.1-6.3 16.5zm1.6 3.2c-.3.8-.6 1.5-.9 2.3-.2-.1-.3-.1-.5-.2.3-.8.6-1.6.9-2.5.3.2.4.3.5.4zm-4.8 13.7c-.1.4-.2.7-.3 1.1-.2-.1-.4-.2-.5-.3l.6-.9c-.1 0 .2.1.2.1zm-5.5 3.4c-.2.5-.5 1-.7 1.5-.1 0-.2-.1-.3-.1.2-.5.4-1.1.7-1.6.1 0 .2.1.3.2zm5 26.7c.3 0 .6.6.9 1 .4.6.6 1.2 1.2 1.7.5-2.1.3-4.2-.1-6.4-.1.7-.3 1.3-.4 2-.9-1.4-.9-1.5-1-4.8-.5-.1-1.5-1-2.3-2-.1.4-.2.8-.2 1.2-.4-1-.9-1.9-1.3-2.9 1.1-.8 2.1-.8 3.1.1 2.1 1.9 4.3 3.7 6.5 5.6l3 2.7c.8.7 1.6 1 2.7.2-.3-1.8-.8-3.6-2.3-4.9.2.7.4 1.3.6 2-2.1-1.6-2.1-4.8-5.3-5.5l-.4.4c-.8-.8-.8-1.3 0-1.4.6-.1 1.3 0 1.9.1.8.2 1.7.4 2.7.4-.7-.5-1.4-.9-2.2-1.4 1.4-.8 4.6-1.2 5.8-.4.8.5 2.2.3 2.6 1.7.3-.2.7-.7 1.1-.7.5 0 1.1.3 1.5.6 1.6 1.1 3.5 2 4.5 3.5 1.3 2 3.4 3.4 3.9 5.9.1.6.2 1.2.3 1.7 0 .3-.1.7 0 .9 1.2 1.4.7 3 .3 4.5-.3 1.4-.6 2.8-1 4.2-.3.8-.7 1.8-1.3 2.1-2.2.9-4.4 1.7-7.1 1.1.5-1 1-1.9 1.4-2.7l1.2-1.5c-.1-.1-.3-.2-.4-.3-.3.5-.7 1.1-1 1.6-.6.5-1.1 1-1.7 1.5-.1-.1-.2-.1-.3-.2 1-1.5 2-3.1 3-4.6-.1-.1-.2-.2-.3-.2-.9 1.1-1.8 2.2-2.6 3.3-.2-.1-.3-.2-.5-.2.3-1.1.5-2.2.8-3.3-.2 0-.5-.1-.9-.2.2-.9.4-1.8.5-2.6-.8.2-1.6.4-2.6.7-.1.4-.3.9-.2 1.4.4 2.3-.5 4.2-1.4 6.2-.5 1-1.2 1.6-2.5 1.3-1.6-.3-3.3-.4-4.7-.5.6-1.9 1.1-3.5 1.6-5.2-.2-.1-.3-.1-.5-.2-.2.6-.5 1.2-.6 1.9-.1 1.2-.8 1.2-1.6.9-.8.7-.7 2.1-2.2 2.3.1-.6.1-1 .3-1.4.1-.4.3-.8.2-1.4-.5.9-1 1.8-1.6 2.8h-3.9c-.8-1.8-.9-4-3.2-4.4.1-.3.1-.5.1-.5 2.9-1 2.8-2.9 1.1-5-.6-.8-1.4-1.4-2.1-2.1.1-.1.7-.3.7-.5-.1-.8-.1-1.7-.6-2.3-1.5-2.1-3.2-4.1-4.8-6.1.1-.1.1-.3.2-.3 3.5-.9 3.5-.9 5.7 2 1.1 1.5 1.9 3.1 3 4.6.6.7 1.1 2.1 2.7 2zm-1.9-7c1 .6.9 1.5.5 2.5-.2-.9-.4-1.7-.5-2.5zm3.2 6.2h.6v1.1c-.1 0-.2 0-.3.1 0-.4-.1-.8-.3-1.2zm13.1-32.3c.6-.8 1.3-1.7 1.9-2.5-.1 1.9-.3 3.4-2.3 4.5-2.3 1.3-4 3.5-6.2 5.6.6-2.7 1.3-4.9 3.6-6.3.5-.3.8-.9 1.1-1.4.8-1.1 1.6-2.3 2.4-3.4.2.1.3.3.5.4l-1.2 3c.1 0 .2 0 .2.1zm12.4-1.8h.6c.2.6.6 1.2.5 1.7-.1 2.4-.3 4.8-.5 7.3-1.6-.2-2 .7-2.4 2-.6 1.7-1.4 3.4-2.2 5.1-.2-.1-.4-.1-.5-.2.6-1.7 1.1-3.4 1.7-5.1.5-1.6 2.3-2.9 1.4-5.1-1.7 1-2.1 2.9-3.6 4.4.7-4.2 3.4-6.8 5-10.1zm-3.1-1.3c.8-1.6 1.6-3.2 2.4-4.7.3 2.1-.2 3.8-2 4.8-.1.1-.2 0-.4-.1zm3.4-1.1c0-.1.1-.1.1-.2.2.2.4.3.6.5l-.1.1c-.2-.1-.4-.2-.6-.4zm.1 22c-.6.4-1.3.8-2.5 1.5.5-2.3.8-4 1.2-5.8 1.4.9 1.5 1.3 1.3 4.3zm-5.1-20.7c-.8.6-1.5.1-1.9-.7-.8 2.2-.8 2.2-3.1 3.2 1.1-1.8 1.9-3.2 2.9-4.7.3.4.4.7.6 1 .5-.6 1.1-1.2 1.9-2.2.2 1.5.7 2.6-.4 3.4zm-1 2.9c-.2 2.5-.3 2.8-2.1 2.8.7-.9 1.3-1.7 2.1-2.8zm-4.2-3.4c-.1-.2-.1-.3-.2-.5.5-.2 1-.4 1.5-.5.1.2.1.4.2.5-.5.2-1 .3-1.5.5zm1 12.2c.9-1 1.9-2.1 2.8-3.1-1 2.9-1.6 6-4.6 7.8-.3-2.2.8-3.4 1.8-4.7-.7.2-1.5.3-2.2.5.8-1.1.8-1.1 2.2-.5zm-3.1 6.9c-1.4 1.3-1.8 3.1-4 3.4.7-2 1.5-3.4 4-3.4zm-5.9.3c1.2-2.2 2.1-4.8 5.7-5-2.1 1.9-3.2 4.2-5.7 5zm8-1.3c.5 2-1.4 2-2.3 2.8.5-1.1 1-2.2 2.3-2.8zm-7.9-3.6c-1 .9-2 1.9-3.2 3 .7-3.1.9-3.3 3.2-3zm-3.1 4c.2.1.5.1.7.2.1.6.4 1.4.1 1.6-1 1-2 2.3-3.8 2.8.3-2.3 1.9-3.3 3-4.6zm7.3 36.9c-.1.2-.6 0-.9 0-.9 0-1.9.1-2.8 0-.7 0-1.3-.2-2.1-.3.2-.6.3-1 .5-1.4h-2.9c5.2-1.9 10.3-.8 15.5-.3 0 .2 0 .4.1.5-1.1.2-2.2.6-3.4.6-1.4.2-2.8-.4-4 .9zm5.7 3.1v.3c-1.8 0-3.6 0-5.4.1v-.3c1.8-.1 3.6-.1 5.4-.1zm-2.8-6.1h3.4v.2h-3.4v-.2zm-18.9 4c-1.4.9-2.9.8-4.7.1.5-.2.8-.3 1.1-.4-.1-.1-.3-.2-.4-.2-1.1.2-2.1.5-3.2.6-.8.1-1.6 0-2.3.2-1.5.2-3.1.6-4.6.8.1-1-.7-1.1-1.4-1.2-.9 0-1.7 0-2.6-.2.4-.1.8-.1 1.1-.4 1.2-.8 2.4-.8 3.7-.3.4.2.9.3 1.3.2 2.8-.8 5.6-1.1 8.5-.8.5.1 1.1-.1 2-.3-.6-.2-.9-.4-1.2-.5 1.5-.8 2.1-.7 3.2.3.5.5 1.3.7 2.2 1.2h-3.7c0 .1 0 .2-.1.3.3.4.7.5 1.1.6zm-24.3-5.4c-1-.1-2-.1-3-.5-3.2-1.1-6.5-2.3-9.6-3.7-1.5-.7-2.8-1.9-4-3-2.2-2-4.3-4.3-6.6-6.3-1.6-1.5-3.5-2.7-5.4-4.1-.2.5-.3 1.1-.6 1.2-.4.2-.9.2-1.4.1-2.9-.2-5.5.5-8.1 1.6-.8.4-1.6.9-2.6 1.5-1.3-.7-1.7-2.2-1.9-3.7-.8-4.7.5-9.9 4.4-12.3 1.1-.7 2-1 3.3-.6 3.6 1.2 7.2 1 10.9.5 2.7-.3 5.4-.6 8.1-.6 2 0 4.1-.8 6.1.4.2.1.6 0 .7-.1.9-1.5 2.2-.7 3.4-.5 1.4.3 2.8.7 4.2.9 1.5.2 2.6.8 2.9 2.4.9.1 2.2-.3 2.3 1.2 1.2-.3 1.9.3 2.4 1.3-2.1 1.2-2.6.5-4.8-.4-1.1-.4-2-1.3-3-1.9-.8-.5-1.6-.8-2.6-1.3-.3 1.1-.5 1.8.4 2.4 3.8 2.8 7.7 5.6 11.4 8.6 3 2.4 6.4 3.5 10 4.4 1.3.3 2.8.5 3.7 2.2-.6.1-.9.2-1.3.2-3 0-6-.4-8.9-1.5-3.7-1.5-7.4-3-10.7-5.2-.3-.2-.8-.2-1.7-.3 3.2 4.4 7.1 7.2 11.6 9.1 2.9 1.2 5.8 2.2 8.7 3.2 1.1.4 1.8 1 1.9 2.1-.9.9-2 1-3.1.5-3.1-1.4-6.2-2.8-9.4-4.2-3.5-1.6-7-3.1-10.5-4.6-.2-.1-.4 0-.9 0 .8 1.8 1.6 3.1 3.7 3.4 1.2.2 2.3 1.1 3.4 1.6l7.2 3.3c.9.4 1.7 1 2.8 1.7-2.2.9-4.1.7-6.1.4-3-.4-5.5-1.5-7.8-3.3-1.3-1-2.8-1.9-4.2-2.7-.3-.2-.9 0-1.5 0 1.5 3 4.3 4.2 6.2 6.6zm-4 2.3c-1.1.8-1.8 1.3-2.7 0h2.7zm-7.1 2.1l-3.9-1.3c1.9-.7 3.4.5 5.3.8-.7.2-1.1.4-1.4.5zm-.1 0c-3.2.9-9.4 1.3-12.7.8 0-1.1.7-1.3 1.6-1.3 1.6 0 3.2-.1 4.8 0 2.1.1 4.2.3 6.3.5zm1.4-2.7v-.2h2.5v.2h-2.5zm-23.4-52.3c.7 4 1.5 7.9 2.4 11.9.5 2.2 1.4 4.4 2.2 6.7-3.9-2.4-7.3-18.7-5.3-24.7.2.2.3.4.4.5.2-.7.4-1.5.6-2.2h.3c.1 1.1.2 2.1.3 3.7l-1.2-1.6c.1 1.9 0 3.8.3 5.7zm9.9 16.9c-.2 0-.3.1-.5.1-1.8-4.3-3.6-8.6-3.3-13.5 1.2 4.5 2.5 9 3.8 13.4zm-1.6-19.8c-.2 2.7-.4 5-.5 7.5-1.5-3.1-1.4-5.2.5-7.5zm-1.2 21.4c-1.5-1.4-1.5-3.3-2.1-5 1.3 1.4 2.5 2.8 2.1 5zm2.9-10.4c1.3 3.1 2.7 6.1 4 9.2-2.4-2.6-4.3-5.5-4-9.2zm2.8 10.1c-.1.1-.3.1-.4.2l-.6-1.5c.1-.1.2-.1.4-.2.1.5.4 1 .6 1.5zm41.7-44.7c-4.7 2-9.1 4.4-13.4 7.2s-7 7.1-11.1 10.7c.3-.9.4-1.4.7-1.8 2.1-3.9 4.9-7.2 8.3-10.1.8-.7 2.2-.9 3.3-1.2 1-.2 1.8-.4 2.2-1.5.1-.4.7-.8 1.1-1.1 2.7-1.5 5.7-1.9 8.9-2.2zm-7 .1c.9-.5 1.8-1.1 3.1-1.8-.2.7-.2 1.2-.3 1.2-.8.4-1.7.6-2.6.9-.1-.1-.2-.2-.2-.3zm2-21.9c1 .4 1.3 1.1 1 2.3-1.2-.6-1.2-1.3-1-2.3zm-.6-3.3c-.9-1.6-.9-1.6.4-2.7.9 1.4.9 1.4-.4 2.7zm1.4-6.6c-3.1-2.1-3.1-2.7.1-5.3 2.1 1.6 2.1 3.3-.1 5.3zm-2.7 11.5c.2.5.4 1 .6 1.4-.1.1-.2.1-.3.2-.3-.5-.5-.9-.8-1.4.1 0 .3-.1.5-.2zm-.5-6.3c.1.6.2 1.2.2 1.9-1.6-.9-1.6-.9-.2-1.9zm0-13.4c2 .7 2 .7 1.1 2.2-.5-.9-.8-1.5-1.1-2.2zm1.2-18.6c.3-1 .8-1.2 2.4-.9-.2 1.1-.4 2.2-.7 3.2-1.7-.5-2.1-1.1-1.7-2.3zm.8 4c-.3.7-.8 1.4-1.3 2-.1-.1-.3-.2-.4-.4.3-.9.5-1.7.9-2.8.3.6.9 1 .8 1.2zm3.7-9.1c-.4-1.9-.8-3.5-1.2-5.2 2.6.9 2.9 2.3 1.2 5.2zm-.5-7.2c.1-.1.3-.2.4-.3.3.4.5.8.8 1.1-.1.1-.2.2-.3.2-.4-.3-.6-.7-.9-1zm6.8 65.9c-.1-.1-.2-.3-.3-.4 3.8-3.3 8.1-5.7 13.1-6.9-4.2 2.4-8.5 4.8-12.8 7.3zm9.4 1c-.6.2-1.3.5-1.9.7-.1-.2-.1-.3-.2-.5.6-.2 1.3-.5 1.9-.7.1.2.1.4.2.5zm-10.8.7c3.2-1.8 6-3.3 8.7-4.9-2.3 2.5-6 4.6-8.7 4.9zm7.7.9c-1.6.3-2.7.5-3.8.7 0-.2-.1-.4-.1-.5 1.1-.5 2-1.7 3.9-.2zm-18.6 23.5c-1 2.5-3.6 3.4-5.6 5.1.1-.4.2-.8.5-1.1 1-1.5 2.1-3 3.2-4.5.5-.7.8-1.5 1.9-1.4.4 0 1-1 1.2-1.6.5-2.1 1.7-3.5 3.3-4.9 1.1-.9 1.5-2.5 2.2-3.9-1.2-.2-1.9.4-2.5 1.4-.5 1-1.3 1.8-2.3 2.5 0-.2 0-.5.1-.6 1.1-1.6 2.2-3.1 3.3-4.7.6.2 1.2.5 1.8.7 1-1.3 1.9-2.7 2.9-4 .4-.6.8-1.4 2.1-1.2-1.4 2.1-2.6 3.9-3.9 5.8l-2.7 4.2-4.5 6.9c-.2.4-.3.8-.4 1.2-.2 0-.5 0-.6.1zm.6 22.6c-.2-1.7-.2-1.7 1.3-2.9-.4.9-.7 1.8-1.3 2.9zm1.6 7.2c0 .2-.4.3-.7.5-.1-.2-.4-.4-.4-.6s.3-.4.6-.7c.3.3.5.6.5.8zm2.6 11.5c-5.4-.6-9.7-3.2-13.6-6.9 2-.2 3.8-.5 5.6-.6.5 0 1.1.2 1.6.5 2.4 1.4 4.8 4 6.4 7zm-8.2-11.7c-.2-.1-.4-.3-.5-.4.4-.8.9-1.5 1.3-2.3.2.1.3.2.5.2-.5.9-.9 1.7-1.3 2.5zm-1.3-18.6c-.4.6-.9 1.2-1.7 1.7 0-.4-.1-.9.1-1.1 2.1-2.8 4.3-5.5 6.4-8.2-.2.4-.3.9-.6 1.3l-4.2 6.3zm-1.7-18.3c1.8-2.5 3.8-4 7.1-5-1.2 1.2-2.5 2.3-3.6 3.5-2.5 2.8-4.9 5.6-7.3 8.5-3.1 3.7-5.2 8-7.6 12.1-1 1.7-1.5 3.5-2.2 5.3s-1.1 3.8-1.7 6h-4c1-2.4 1.8-4.7 2.9-6.7 2.2-4.1 4.7-8.1 7.1-12.2 1.5-2.5 3-5.1 4.7-7.5.8-1.2 1.4-2.9 3.4-2.8.4.2.9-.7 1.2-1.2zm-.7-4.6c.4-.3.8-.7 1.2-1 .1.1.1.2.2.3-.4.3-.8.7-1.2 1 0-.1-.1-.2-.2-.3zm10.7-4.8c-.3-.4-.5-.7-.9-1.3 1-.4 2.2-1 3.5-1.5.1.1.2.3.2.4-.6.3-1.2.6-1.7 1s-.8.9-1.1 1.4zm-.1 0c-.8.4-1.6.8-2.8 1.5 1.5-1.6 1.5-1.6 2.8-1.5zm-2.6 10.4c0 1.3-.4 1.8-1.4 1.8.4-.5.8-1 1.4-1.8zm11.5-24.3c-1.2-1.7-.2-3.2.4-4.7.4 1.1.9 2.2 1.4 3.5-.6.4-1.2.7-1.8 1.2zm-.1-20.2c-.3-.3-.5-.4-.7-.6-.3 1.5 1.1 2.9-.1 4.7-.4-3.5-.8-6.6-1.2-9.7 2.2 1.7 2.4 2.1 2 5.6zm-2.6-8.9c-.2-1.5-.5-2.8-.5-4.1 0-1.2-1.1-2.2-.6-3.7 1.5 2.6 3.1 4.8 1.1 7.8zm.1 9.7c0 .2 0 .5-.1.7s-.2.4-.7 1c.2-.9.2-1.3.3-1.8.2.1.4.1.5.1zm-1.3-13.4c-.2.1-.3.2-.5.3-.2-.6-.4-1.1-.7-1.7.1-.1.3-.1.4-.2.3.5.5 1.1.8 1.6zm-1-8.9c-.2-.1-.5-.3-.7-.4.3-.7.6-1.5.9-2.4.4.4 1 .7.9.8-.3.7-.7 1.4-1.1 2zm-1-4.6c.7 1.3.4 2.1-.4 3-1.1-1.2-.4-2 .4-3zm-1.1 9.7c-1.9-1.7-2.2-3.1-1.2-6 .2 1.4.4 2.4.5 3.4.1.9 1.8 1.3.7 2.6zm-2.8-2.5c.7 1.5 1.3 2.7 1.9 4.1-1.7-.6-2.5-2.1-1.9-4.1zm3.1 23.5c.2.1.3.2.5.3-.2.6-.4 1.1-.6 1.9l-1.2-1.2c.4-.3.8-.7 1.3-1zm-.3-12.2c1.7.6 1.9 1.3.8 3.8-.2-1.2-.5-2.5-.8-3.8zm1.8 15.3c.2.7.3 1.4.5 2.1-.2 0-.3.1-.5.1-.1-.7-.3-1.4-.4-2.1.1 0 .2-.1.4-.1zm.4 4.1c1.2 2.7-1.4 4.3-2 6.5-.7-2.6 1.9-4.2 2-6.5zm.8-3.5c.5-.7 1.4-1.4 1.4-2.1 0-.6-.9-1.2.3-2.1.7 2.4 1.5 4.6.5 7-.1.3-.2.6-.2.9-.2 2.6-.3 5.2-.5 7.8-.1.9 0 1.9-1.2 2.5-.4-1.8.3-3.8-1.3-5.1 1.7-2.8 1.9-3.9 1-8.9zm1.9 17.3c-1.1 1.9-2.8 2.9-5 3.4.8-1.8 1.7-2.4 5-3.4zM413.8 195l.3.3c-4.2 6.3-8.4 12.5-13 19.3-.1-3.3.2-6.1.9-8.8.1-.5.6-1 1.1-1.2 3.2-1.5 5.1-4.4 7.6-6.7 1.1-1 2.1-2 3.1-2.9zm26 59.8c-3.5 0-7 .1-10.5.1v-.7c3.4-.2 7 .2 10.5.6zm-.1.9v-.5c.6-.1 1.1-.1 1.7-.2 0 .2 0 .3.1.5-.7.1-1.3.1-1.8.2zm-9.5-51.7c1.2-1.9 2.2-3.4 3.3-4.9-1.1 3.9-1.3 4.3-3.3 4.9zm3.3-2.4c.3-.6.7-1.2 1-1.7.1.1.3.2.4.2-.3.6-.7 1.2-1 1.8-.2-.1-.3-.2-.4-.3zm2.6-5.3v1.9h-.6c.2-.7.4-1.3.6-1.9zm16.1-10.7c.5-1.8.9-3.7 1.4-5.5-.3.4-.7.8-1.1 1.4.2-1.1.3-2.1.5-3h.2c.1.6.2 1.2.3 1.7.5-1.7 1.1-3.4 1.7-5.5.3.6.6 1 .5 1.3-.3 2.1-.6 4.2-1.1 6.3-.6 2.7-1.3 5.4-1.9 8.2-.7.1-1.6.2-3 .4 2-1.6 2.1-3.6 2.5-5.3zm8-19c1.2-.9 2.5-1.6 4-1.3 3.6.7 3.6.7 5.5 2.9-1.8-.6-3.3-1.3-4.7-1.6-1.6-.3-3.2 0-4.8 0zm4.6 1.8h-1.7v-.1c.6 0 1.1-.1 1.7-.1-.1 0-.1.1 0 .2zm-9.7-1.6c-.1-.2-.1-.3-.2-.5 2-1 3.9-2.8 6.5-1.6-2.1.8-4.2 1.4-6.3 2.1zm4.8 4.5h-2.5v-.2h2.5v.2zm-6.6-9c2.6-1.9 5.6-2.3 8.8-2.3-3 .6-5.7 2.4-8.8 2.3zm15.9 13.5c1 .1 1.6.3 1.5 1.2l-.3 3h-.5c-.3-1.3-.5-2.7-.7-4.2zm3-2.2c-.3-.6-.7-1.1-1-1.7 1.2-.5 1.2-.5 2.2 1.7h-1.2zm-.5-4.7c-1.3-1.3-2.4-3-4-3.9-1.5-.9-3.5-1.1-5.7-1.8 1.3-.7 2.3-1.2 3.3-1.7 3.1 1.6 5 4.3 6.7 7.1l-.3.3zm-6.7-11.3c-1.1-.4-.8-1.1-.6-1.8.3.5.4 1.2.6 1.8zm-5.9.3c-1.2.3-2.4.5-3.9.9-1.7-4.9-3.7-9.5-4.5-14.5 2 5 6 8.7 8.4 13.6zM439.6 140v-3.4c.9 1.5.9 1.5 0 3.4zm-.9-7.8c-1.8-2.3-1.7-3.1.3-6.1.9 2.5.8 4.2-.3 6.1zm-1.9-13c-1.2-1-1.2-2.8.1-4.5.8 1.4-.4 3.3 1.6 3.9-.4 1-.9 1.3-1.7.6zm-1.4-6.1c-.1 0-.2-.1-.3-.1.2-1.6.4-3.2.6-4.9.5.6.9 1.2 1.5 1.9-.6 1-1.2 2-1.8 3.1zm.8-22.3l-2.1-2.4c.1-.1.2-.2.4-.3.8.6 1.9 1 1.7 2.7zm-1.9 7.1c-.4-1.2-.7-2.3-1.2-3.8 1.5 1.4 1.5 1.4 1.2 3.8zm-2.1 3.7c0-2.1-.1-4.2-.1-6.4 1.6 2.2 1.6 4.6.1 6.4zm-.1-6.5c-.3-.8-.6-1.5-1-2.5 1.2.6 1.3.7 1 2.5zm1.4 19.3c-1.9-.4-2.2-1.6-2.6-2.6-.2-.5.2-1.2.4-1.8h.6c.5 1.3 1 2.7 1.6 4.4zm-3-5.1c-.2-.1-.3-.2-.5-.2.3-.6.5-1.2.8-1.8.2.1.5.3.7.4-.4.5-.7 1.1-1 1.6zm-.7 6.4c-1.2.6-1.8 1.5-1.7 3.3-1.7-1.9-1.3-2.7 1.8-4.5.7.4.5.9-.1 1.2zm.7 18.3c.7 1 .7 1 .2 2.7-.9-.7-1.8-1.4-2.9-2.1 1.2-1.9 1.7-2 2.7-.6zm-53.1 28.8v-2.7c1.3 1 1.3 1.5 0 2.7zm.3 8.4c.2.3.4 1.1.7 1.1 2.3.6 4.1 2.1 6.1 3.2 1.9 1.1 3.9 1.8 5.9 2.6 1.5.7 3.1 1.1 4.8 1.2 2.8.2 5.6 1 8.5 1.4 3 .4 6 .6 9 .9.4 0 .8 0 1.2.3-.4 0-.7.1-1.1.1-6.3.1-12.6.4-18.8-1.3-5.7-1.6-11.4-3.1-16.2-6.7-.4-.3-.6-.7-1-1 .3-.6.6-1.3.9-1.8zm1.5-27.9c.7 1.1 1.3 2.1.4 3.2-2.1-.9-2.1-1-.4-3.2zm-.5-6c1.5.7 1.6 1.1.7 3.1-.3-1.2-.5-2.1-.7-3.1zm.4 17.2c.9-1.9 1.9-3.7 3.1-5.9-.1 2-.1 3.4-.3 4.7 0 .4-.3.9-.6 1.2-.4.5-1 .9-1.8 1.6-.1-.6-.6-1.3-.4-1.6zm3.5 6.2c-.4-.8-.6-1.4-1-2.2 1.2.5 1.6.9 1 2.2zm-.3-3.3c0-.5.1-.9.1-1.4h.4c0 .5.1 1 .1 1.4h-.6zm-1.4 10.6c1.1 1 1 1.8-.6 2.5.3-1.1.4-1.8.6-2.5zm-1.1-3.3c-.2-.1-.4-.1-.6-.2.3-.8.7-1.6 1-2.4.2.1.3.1.5.2l-.9 2.4zm2.5-19.7c-.7-1.6-1.1-2.7-1.6-3.9 1.5.8 1.8 2.1 1.6 3.9zm3 6.6c-.4-1.1-.6-1.8-.8-2.4.2-.1.5-.2.7-.2.9.5.7 1.2.1 2.6zm.1 2.3c0 .5-.1 1-.2 1.8-1-.8-.8-1.3.2-1.8zm-.2 13.4c1 1.8 1 2.2-.8 3.5-.8-2.1-.8-2.1.8-3.5zm-1.3-.2c-.2-.1-.5-.1-.7-.2l.3-1.2c.2.1.6.1.6.2 0 .4-.1.8-.2 1.2zm6.2-9.1c-1-.7-1.7-1.4-.8-2.7 1.7.8 1.7.8.8 2.7zm-1.7-8.8c.1-.6.2-1.1.3-1.7.2 0 .3.1.5.1-.1.6-.2 1.2-.3 1.7-.2 0-.3 0-.5-.1zm-2.2-4c-.1.6-.1 1.3-.2 1.9-.2 0-.4-.1-.6-.1.1-.6.2-1.2.4-1.8h.4zm-.9-1.2c.7-2.7-1.4-4.2-2.8-6.3 2.2 1.8 3.5 3.7 3.5 5.1 0 .4-.4.8-.7 1.2zm-5.3-8c-.5-.9-1-1.7-1.4-2.6.2-.1.3-.2.5-.2.7.7 1.7 1.3.9 2.8zm-1.3 1.2c-.6-.9-1.2-1.8-1.9-2.9 1.9.8 2.1 1.1 1.9 2.9zm-1.5-.6c.4.7.7 1.4 1.1 2.1l-.6.3c-.4-.7-.8-1.3-1.2-2 .2-.1.4-.3.7-.4zm.5 6.2c-1.4 3-1.4 3 1 5.1-1.8-.2-2.2-.5-2.5-2.1-.2-1.2-.5-2.4 1.5-3zm20 68.4h-.2c-.1-.5-.2-.9-.3-1.4.1 0 .2-.1.3-.1 0 .5.1 1 .2 1.5zm-25.9 4.1c.3.8.7 1.6 1.2 2.8-1.4-.2-2.4-.3-3.7-.4 1-1 1.7-1.6 2.5-2.4zm0 26.8c.1.2.1.4.2.6-.9.3-1.7.7-2.6 1-.1-.1-.1-.3-.2-.4.9-.4 1.7-.8 2.6-1.2zm1.5 32.5h-2.2v-.2c.7-.1 1.5-.1 2.2-.2v.4zm102.6-81c.3 2-2.5 10.1-4.6 12.7.2-1.3.5-2.1.5-2.9 0-.7-.2-1.5-.3-2.3-1.7.5-.6 1.8-1.3 2.8-.3-2.5.3-4.7.5-7 .4-.4.8-.7 1.3-1.2.2.3.4.5.4.6 1.1-.9 2.3-1.8 3.5-2.7zm-3.2-1c1-1 2-2.1 3-3.1-.3 1.7-1 3-3 3.1zm4.3 38.7c.3-1.3.5-2.7.8-4 .5 2.5.1 4.8-.7 7.1-.9-.1-1.9.2-2.3-1-.1-.4-.9-.6-1.5-1 .2-.7.3-1.4.4-1.9-.9.1-1.7.2-2.9.3.4-1.3.7-2.4.9-3.2-.5-1-1-1.7-1.2-2.6-.1-.4.3-.9.7-1.7 1 1.4.9 3.3 2.9 3.1-.1 2.3 1.5 3.4 2.9 4.9zm-.5-15.9c.1-.8.3-1.6.5-2.6.5 1.1.5 1.1-.5 2.6zm.9 7.8c.1-1 .2-1.9.2-2.9h.4c-.1 1-.1 1.9-.2 2.9-.1.1-.3 0-.4 0zm-1.8 15.7c-.3.6-.5 1.2-.8 1.9-.1-.1-.3-.1-.4-.2.3-.6.5-1.2.8-1.8.2 0 .3.1.4.1zm-6.1-39.9c-.3-1.7-.3-1.7 1.2-2.2-.4.7-.8 1.4-1.2 2.2zm-2.8-3.6c-3.6 1.9-7.4 3.3-11.1 5.1-3.3 1.6-6.1 3.6-7.6 7.2-1.7 3.9-3.5 7.7-4.3 11.9-.4 2.2-1.3 4.3-2.1 6.7-1-.5-1.8-.9-2.3-1.2-1.6.9-3.2 1.8-5.1 2.9.1-3 .9-5.4 2-8 .7 1.6.9 2.6-.2 3.7-.5.5-1.2 1.2-.3 2.3 1-2.1 2.6-3.8 1.6-6.4-.6-1.6-.1-3.3 1.4-4.5.3-.3.7-.8.7-1.1 0-2.1 1.1-3.2 3.2-3.5-.1-.8-.2-1.4-.3-2-.2-1.4.1-2.5 1.2-3.6 1.4-1.4 2.5-3.1 3.2-5.1 1-2.8 2.8-5 5.7-6.4.3.2.8.4 1 .5 1-.5 1.9-.9 2.9-1.3-.3-.2-.6-.3-.9-.5.4-1.3 1.5-1.7 2.6-2.1 1-.3 1.9-.5 2.8-1.4 1-1 2.8-1.7 4.6-.9.5-1.9 1.6-2.4 4-1.9.5-1.6 1.6-2.6 3.1-3.6 1.8-1.1 2.9.5 4.6.8-.7-1.2-2.4-1.6-1.2-3.3 1 1.2 2 2.3 3 3.4-2.6 5.5-6.9 9.5-12.2 12.3zm10.8-18.6c.8 1.3 1.4 2.3 2 3.2-.2.1-.3.2-.5.4-1-.8-1.8-1.6-1.5-3.6zm.4-5.2c-.2-.5-.3-1.1-.6-1.4-1.7-2-3.6-3.8-5.2-5.9-.8-1-1.3-2.4-1.7-3.6-.4-1.4-.1-2.9 1.1-4 1-1 2.1-2 3.1-3 .5-.5 1.1-.9 1.5-1.5 1.6-2 1.6-2.7 0-4.8-.2-.2-.3-.5-.7-1.3 1.7.4 3 .7 4.1 1 .1 9.3.2 18.2.3 27.6-1.3-.9-1.5-2-1.9-3.1zm1.9-27.2c-2.3.2-4.4.7-6.4.4-1.8-.3-4-.2-5.1-2.1-2.9 1-5.7 2-8.9 3 .4-1.7.7-3.1.9-4.5.2-.9.3-1.9.3-2.8-.1-1.2-.7-1.7-1.9-1.5-2.5.4-5 .9-7.9 1.4-1.3-3.5-2.6-7-3.8-10.5.3-.3.4-.5.5-.5 2.3.6 3.7-.5 4.5-2.5.8-1.8 1.5-3.7 2.4-5.5.6-1.4 1.3-2.7 2.1-4.2 1.6.6 2.4-.3 3.3-1.2 1.7-1.8 3.4-3.5 5.1-5.3.2.1.3.2.5.4l-1.2 2.1c-1.1 1.8-2.4 3.6-3.4 5.5-.4.8-1.3 1.6-.5 2.6s1.7.2 2.9 0c-.8 2-1.7 4 .4 5.8.4-.2.9-.4 1.7-.8-.2 1-.3 1.9-.5 2.8.7.9 1.5.8 2.2.1.8-.8 1.6-.9 2.8-.5 2.2.8 4.4-.1 6.5-.8 1-.3 2.1-.6 3.5-1 .9 6.9 0 13.3 0 19.6zm-6.6-20c1.2-.4 2.3-.8 3.5-1.2 0 .1.1.3.1.4-1.1.4-2.3.9-3.4 1.3 0-.1-.1-.3-.2-.5zm-25.6 11.5c.9 3.1 1.4 6.3 1.8 9.5-1.1-2.6-2.1-5.3-3.2-7.9-.1-.3-.3-.6-.3-.9-.1-3.3-1.8-6.2-2.7-9.3-.1-.3-.1-.6-.1-1.3.6.3 1 .5 1.3.7 1.1 3.1 2.3 6.1 3.2 9.2zM443 102c-.1-.5-.1-1-.2-1.5h.3v1.5c0-.1-.1-.1-.1 0zm-.4 12.3c-1.3-1.6-1.4-2.6-.3-4.5 0 1.5 1.1 2.9.3 4.5zm-.3 2.1c-.1.1-.3.2-.4.3-.4-.3-.9-.5-1.2-.9-.3-.3-.3-.8-.6-1-1.6-1.3-1.6-1.2-.3-2.7.1-.2.4-.3.7-.5.3 1 .5 1.8.8 2.6.2.8.6 1.5 1 2.2zm-3.5-12.1c.9-.6 1.5-1.1 2.5-1.8v3.8c-1.2-.1-1.8-.8-2.5-2zm-1.5.2c-1.2-1.4-.7-2.8.1-4.3 2.2 1.7 2.2 1.7-.1 4.3zm-9.4-27.3c4.4 1.6 6.6 5.5 8.8 9.2-3.3-2.6-5.3-6.6-8.8-9.2zm.1 3c-1.9-.7-3.1-2-4.9-3.2 3.1-.3 3.7.1 4.9 3.2zm0 3.2c-3.2-2-6.5-4-9.9-6 .5-.7 1.1-.4 1.8-.2 3.4 1.3 5.9 3.5 8.1 6.2zm2.3 5.7c-2.1.2-2.1.2-2.9-1.9 1 .7 1.8 1.2 2.9 1.9zm-4.1 37.5h-.6c.1-.4.2-.9.2-1.3h.3c.1.5.1.9.1 1.3zm-41.2-2.8c.1 1.7.3 3.4.4 5.2-1.7-1.9-1.8-3.1-.4-5.2zm-1.3-3.4c-.8.7-1.5 1.5-2.7 2.7 0-.7-.3-1.5 0-1.8 1.5-1.4 2.4-3 2.8-5 .2.8.3 1.6.5 2.3.3.8 0 1.3-.6 1.8zm-2.4-1c0-.3 0-.6.1-.9s.4-.4.5-.7l.3.3c-.3.4-.5.9-.8 1.3.1.1 0 .1-.1 0zm2.6-18.1c-.2 0-.3-.1-.5-.1.1-.5.2-.9.4-1.4.2.1.3.1.5.2-.1.4-.3.8-.4 1.3zm-.5-3.4c.1-.8.1-1.5.2-2.3.2 0 .4.1.6.1-.2.8-.5 1.5-.8 2.2zm-.8-3.1c-.1-.5-.3-.7-.2-.8.2-.4.5-.8.7-1.2 0 0 .2-.1.2 0 .1 0 .1.1.2.3-.2.4-.5 1-.9 1.7zm.7 3.4c-.1.4-.3.7-.5 1.4-.3-1.5-.3-1.5.5-1.4zm.1 14.8c-.4-1.1-.7-1.9-1.1-3 1.4 1.3 1.4 1.3 1.1 3zm-3.7-4.4c-.7-1.8-.7-1.8 1.3-2.7-.4.9-.8 1.7-1.3 2.7zm-.7-4.1c.2-.7.3-1.2.5-2 1 1.1 1.1 1.7-.5 2zm-1.3 24.4c.4-1.1.3-2.3.4-3.4 2 1.1 2.3 2.1.8 3.8-.8 1-1.7 1.8-2.5 2.7-.1-.1-.3-.2-.4-.3.5-.9 1.3-1.8 1.7-2.8zm-4.2 4.4c0 1.7 0 3.2.1 4.7-1.6-3.1-1.6-3.5-.1-4.7zm-10.2 52c-.3 1.6-.7 3.2-1 4.8-.2-.1-.4-.1-.5-.2.4-1.6.7-3.1 1.1-4.7.1 0 .2.1.4.1zm-4.2-32.2c.8 1.4.7 2.4-.4 3.5-1.6 1.6-3.1 3.2-5.1 4.3-.7.4-1.3 1-1.8 1.6-1.1 1.2-1.2 2.5-.7 4 1.4 3.7 3.7 6.6 7.2 8.6.8.4 1.5.9 2.2 1.4-.6 1.5-1.2 3-1.9 4.5-2.8-1.3-4.2-3.8-5.8-6-.2-.2-.1-.7-.3-.8-2.5-1.2-3.8-3.6-5.5-5.6-1.6-1.9-1.3-4.5.8-6 1.6-1.1 3.4-2.1 5.1-3.1 1.6-1 3.1-1.9 4.6-3 1.1-.7 1.6-2 1.6-3.4zm1.2 45.3c0 .3.3.5.8.7-.2-1.8-.4-3.6-.5-5.4.2 0 .3-.1.5-.1.2.3.4.6.5.8.1 1.7-.4 3.5.4 5.2.2.3-.5 1.1-1 1.9.8-.3 1.3-.4 1.8-.6.5 2.1 1 4.2 1.5 6.2.4 1.6 1.1 3 2.8 3.3.5 1.5.9 2.8 1.5 4.5l-2.1-.7c1.7 1.6 1.7 1.6 2.1 3.6-1.5-1.5-2.8-2.8-4.1-4 .1-.2.2-.3.3-.5.5.2.9.4 1.4.6-1.1-1.3-2-2.8-3.9-3.4-.4-.1-.7-1-.9-1.5-.2-.6-.2-1.3-.6-2 0 .8-.1 1.5-.1 2.3-2.6-1.2-3.8-7.2-2-10.5h-1.9c.5-1.1.9-2.1 1.4-3.4-.7.3-1.5.6-1.5.8 0 1.9-2.1 2.4-2.5 4-.1-2.6.6-4.9 1.9-6.9-.9-.2-1.7-.5-2.7-.7 2-2.5 3.8-2.8 6.4-1.3.1 2.5.2 4.8.5 7.1zm-13.1 61.7c.5 1.7-.5 1.8-1.2 2.2-.1-.1-.2-.2-.3-.4.4-.5.9-1.1 1.5-1.8zm-2.2-18.6c0-.1-.1-.2-.1-.4.5-.2 1-.3 1.5-.5 0 .2 0 .4.1.6-.6.1-1 .2-1.5.3zm1.4-18.4c-.1-.1-.3-.1-.4-.2.3-1.1.6-2.1.9-3.2.2 0 .3.1.5.1.2 1.3-.1 2.4-1 3.3zm-2.2 11c-.3 1.4-.5 2.9-.9 4.8-1-2-.5-3.6-.3-5.2.1.7.2 1.3.2 2h.2l.3-1.8c.3.2.4.2.5.2zm-4.2 15.4c0-1.5 1-1.1 1.5-1.4l.3.6c-.5.2-1 .4-1.8.8zm.7 6.6c-.1.7-.2 1.4-.3 2.6-.8-1.3-.3-1.9.3-2.6zm-.5-24.8c.2-1.4.3-2.7.5-4.1h.4c-.1 1.4-.3 2.7-.4 4.1-.2.1-.4 0-.5 0zm1.3-17.8c-.4.8-.8 1.7-1.2 2.5-.2-.1-.3-.1-.5-.2.3-1.9.9-3.6 2.8-4.8-.4.8-.8 1.6-1.1 2.5zm136.9 26.4c.1-1.1.2-1.8.3-2.5.6.7.8 1.4-.3 2.5zm.6-42.2c-.1-1-.1-2.1-.2-3.1-.1-.7-.2-1.4-.5-2-.7-1.2-.3-2 .5-3.2.1.7.2 1.1.3 1.7.3-.5.6-.8 1.1-1.4.6 3-.5 5.4-1.2 8zm.4 14.1c.6-2.8.4-5.6 1.1-8.3.2 5.5-.1 11-.7 16.5-.2-2.7-1-5.6-.4-8.2zm-5.1-114.7c-.3.2-.8.1-1.2.2-2.5.4-5 .7-7.5 1.1-1.5.2-1.8.1-2.3-1.3-.1-.2-.2-.5-.2-.7-.9-2.5-.9-2.5-3.6-2.4-.9 0-1.7-.1-2.8-.2.2-1.3.3-2.6.6-3.7 1.4-4.7.6-9.5.6-14.3 0-.5-.1-1-.4-1.4-.4-.4-1-.9-1.4-.9-.5 0-1.1.6-1.3 1.1-.9 2.7-1.6 5.5-2.4 8.3s-1.7 5.5-3.6 7.7c-.6.7-.9 1.7-1.2 2.6-.9 3.3-1.7 6.6-2.5 9.7-.5-4.1-2.4-8-3.9-12.1-1.2-3.1-2.9-5.9-4.6-8.6-1.1-1.7-2.3-3.3-3.7-4.7-1.4-1.6-3.4-2.3-5.5-2.8-2.3-.5-4.7-1-7-1.6-3.3-.9-6.7-.2-10-.4-.3 0-.6.1-1 .1-6.8-.8-12.4 2.3-17.9 5.7-1.1.7-1.9 1.7-2.8 2.6-3.9 3.9-7.6 8-9.8 13.2-.4.9-.6 1.8-.8 2.7-.3 1.2-.5 2.5-.9 3.7-1.2 3-1.9 6-2.5 9.2-.7 3.6-1.9 7-2.9 10.6-1.7-.7-2.2-1.9-2.5-3.2-.2-.9-.2-1.9-.3-2.9-.1-2.2-.4-2.6-2.7-2.8-.6-.1-1.3 0-2.2 0 .5-.9 1-1.5 1.2-2.2.2-1 .5-2.3.1-2.9-.5-.6-1.8-.7-2.8-.7s-2 .4-3.2.6c.3-.9.5-1.4.7-1.9.5-1.6-.1-2.3-1.8-1.9-1.1.3-2.1.7-3.2 1.1-1 .4-1.9.9-2.9 1.3-.5-.4-1-.8-1.4-1.1.4-3.2 3.2-5.2 4.4-8.2-.8-.2-1.3-.4-1.8-.5 0-.8.1-1.7.1-2.6-2.1.1-3.6.9-4.9 2-1.4 1.2-2.7 2.5-3.9 3.9l-6.6 7.5c-.3.3-.7.6-.7.9 0 .5.1 1.1.4 1.4.1.1 1 0 1.2-.3.9-1 1.6-2.2 2.5-3.2 2.2-2.5 4.5-5 6.7-7.5.7.8 1.3 1.5 1.9 2.2-.6 1.2-1.4 2.3-1.8 3.6-.6 1.6-1 3.2-1.3 4.8-.2 1.1.7 1.5 1.9 1 2.6-1.2 5.2-2.3 8.1-3.7-.1.9-.2 1.5-.3 2.1-.2 1.7.4 2.3 2 1.8 1-.3 1.9-.7 2.9-1 .4-.1.9-.1 1.6-.1-.7 1.3-1.4 2.4-1.9 3.5-.8 1.7-.3 2.5 1.7 2.5 1.1 0 2.2-.1 3.3-.2.4 1.9.8 3.5 1.2 5.1.4 1.7 1.2 2.9 3.3 2.7-.7 2.3-1.4 4.4-2.1 6.5-.3 1-.5 2 .1 3 .7 1.1 0 2-.8 2.7-.7.7-1.5.6-2.4.1-1.9-1-2.1-1-3.3.7-.9 1.4-1.5 3.1-2.1 4.7-.2.6-.3 1.2-.5 2-.7-.6-1.2-1.1-1.7-1.5-1.1 0-1.7.6-2 1.5-.6 1.5-1.1 3-1.7 4.5-.4.9-.9 1.8-1.3 2.8-1.7-.8-3.2-1.6-4.7-2.3-1.9-.9-1.9-.9-3.5.6-.2.2-.5.4-.9.7-.5-.9-1-1.8-1.5-2.6-1.3-2-2.8-2.1-3.8-.1-.9 1.7-1.2 3.7-1.7 5.7-.1.2.4.6.7 1 2.1-1.3.9-4.1 2.7-5.5 2 .7 1.1 3.3 2.8 4.2 1.6-.6 3.3-1.3 5.1-2 2.4 2.3 6.1 2.8 8.6 5.3-.5 1.5-1.8 2-2.9 2.4-3 1-5.3 2.7-7.7 4.8-1.9 1.6-2.4 3.7-2.6 5.9-.1.9.7 1.9 1.3 2.8.7 1 1.7 1.9 2.5 2.8 1.8 2 3.6 4.1 5.5 6 1.8 1.8 3.7 3.4 5.9 5.4 0 .1 0 .6.1 1 .2 1.8-.6 2.8-2.3 3.4-1.1.3-2.2 1-3.3 1.5-2.7 1.1-4.3 3.2-4.9 6.1-.5 2.6-1 5.3-1.4 7.9-.1.8-.3 1.5-1.2 1.9-4.3 2-7.4 5.2-9.5 9.7-.1-1.7-.3-3.3-.3-5-.2-5-.3-10-.5-15.1-.2-5-.4-10.1-.5-15.1l-.6-34c-.2-9.8-.5-19.6-.9-29.5-.2-4-.7-8-.9-11.9-.3-5.6-.7-11.2-.8-16.8-.2-7.2-.8-14.5-1.5-21.7-.2-2.1-.2-4.3-.3-6.5-.1-5.3-.2-10.5-.2-15.8 0-1.8.2-3.6.3-5.4 3-.9 5.9-1.1 8.7-1.2s5.6-.1 8.4-.1c5 .1 10-.7 15-1 5.3-.3 10.7.1 16 .2 1.4 0 2.9.2 4.3.2 4.6.3 9.2.6 13.9.8 2 .1 4 0 6 .1 7.8.2 15.6.4 23.5.8s15.8.9 23.7 1.4c7.6.4 15.2.6 22.7.2 2.6-.1 5.2-.3 7.7-.5.2.3.4.4.4.5.5 6.4 1.2 12.7 1.4 19.1.2 4.5-.3 9.1-.5 13.6-.1 3.4-.3 6.7-.4 10.1l-.3 11.2c-2.1 1.4-4.2 2.4-6.3 3.3zm1.2-61.5h1.7c0 .1.1.2.1.2-.6.2-1.2.3-1.8.5v-.7zm3.4-.1c.6 0 1.2-.1 2.2-.2-.8 1.1-1.5 1.1-2.2.8.1-.2.1-.4 0-.6zm3.4 111.1c-.1 10.3-.2 20.5-.2 30.8h-.4v-30.7c.2-.1.4-.1.6-.1zm-.4-5h.2v2.5c-.1 0-.1 0-.2.1v-2.6zm2.3 34.8c-.1.9 0 1.7 0 2.6-.2.1-.4.1-.6.2-.2-.7-.5-1.4-.5-2.2-.1-6.6-.1-13.3-.1-19.9 0-4.1.3-8.1.3-12.2 0-4.9-.2-9.7-.4-14.6-.1-1.8-.2-3.7-.2-5.5 0-.8.2-1.6.2-2.4h.7c.1.6.2 1.3.2 1.9 0 4.2-.2 8.5 0 12.7.1 4.6.7 9.2.8 13.8.2 8.5.7 17.1-.4 25.6zm.4-71.4c0 5.3 0 10.5-.7 15.7 0 .4-.2.7-.5 1.6-.5-.9-.8-1.3-.9-1.7-.1-2-.2-4-.2-6 0-5.4-.4-10.9 0-16.3.3-4.5.1-9 .4-13.5.5-7.3.5-14.7.8-22 .1-1.7.4-3.3.3-5-.2-4.3-.7-8.6-.9-12.9-.1-1.7.1-3.5.2-5.6 1.6 1.4 1.5 2.9 1.5 4.3.2 5.8.1 11.7.5 17.5.4 6.4-.1 12.8-.3 19.1 0 8.3-.3 16.5-.2 24.8zM300.9 71.4c0-1 .1-2 .1-3.1h.1v3.1h-.2zm2 230.8c-.1.1-.2.2-.6.4 0-1.9-.2-3.7 0-5.5.6-6.1.7-12.2.3-18.4-.3-3.8.2-7.7.1-11.5-.1-7.7-.4-15.5-.5-23.2-.2-6.7-.3-13.4-.4-20.1-.1-4.2-.1-8.3-.1-12.5.1-6.4.2-12.8.4-19.2.2-7.7.8-15.3.8-23 0-6.5-.6-12.9-.9-19.4-.1-2.8-.1-5.6-.1-8.4 0-6.4.2-12.8.1-19.2s-.6-12.8-.6-19.2c-.1-4.6.3-9.3.4-13.9.1-3.4.1-6.7.2-10.1 0-2.1-.1-4.2 0-6.2.3-7-.2-13.9-.7-20.8-.3-3.8-.6-7.6-.7-11.5-.1-2.9.4-5.7.3-8.6 0-6.3 0-12.6-1.1-18.9-.4-2.1-.8-4.4-.3-6.7 10.1 5.9 18.6 13.3 24.6 23.2.5.8 1.5 1.7 0 2.9-.7-.9-1.4-1.8-2-2.8-2.4-3.9-5.2-7.4-8.7-10.4-.3-.2-.6-.5-.9-.7-1.2.8-1.1 1.4-.1 2.2 2.1 1.9 4.2 3.7 6 5.8 2 2.3 3.7 4.8 5.3 7.3.5.7.3 1.8.1 2.7-3.5-4.4-7-8.7-10.6-13.1-.1.1-.3.2-.4.3 3.4 4.7 7.1 9.2 10 14.3-.1.1-.3.2-.4.3-1.7-1.8-3.3-3.7-5-5.5 1.5 4 5.3 6.7 6.4 11.5-2.7-3.2-4.9-6-7.2-8.8-.1.1-.3.2-.4.3.6.9 1.1 1.9 1.8 2.7 1.2 1.6 2.5 3.1 3.7 4.7 1.4 1.9 2.4 4 2.8 6.5-.7-1-1.3-2.1-2.1-3l-5.1-6c.8 1.4 1.6 2.7 2.5 4.1 1.6 2.6 3.3 5.3 4.9 7.9.2.4.2.8.1 1.4-1.8-2.2-3.6-4.3-5.4-6.5-.2.1-.3.2-.5.3 1 1.4 2 2.9 3 4.3.9 1.4 1.9 2.7 2.7 4.2.4.7.3 1.6.1 2.6-1.9-2.3-3.9-4.6-5.8-7-.1.1-.3.2-.4.3 1.4 2.1 2.8 4.2 4.3 6.2 1.9 2.5 3.1 5.2 2.6 8.6-1.6-1-1.6-3-3.1-4.3 0 .7-.1 1.2 0 1.6.9 1.7 1.9 3.3 2.8 5 .3.6.6 1.3.6 1.9 0 4.3-.2 8.6-.1 12.9.1 3.3.6 6.7.9 10 .5 5.6.9 11.1 1.7 16.7.6 4.4.5 8.7.6 13.1.2 5 .4 10 .6 15.1.2 4.1.5 8.1.6 12.2.1 3.8 0 7.7-.1 11.5-.1 3.4-.1 6.7-.2 10-.1 1.9-.2 3.8-.2 5.7v23c0 6.1-.1 12.3-.2 18.4-.1 6-.4 12-.5 18 0 1.3-.6 2.1-1.4 2.9-1.1 1-2.2 2-3.5 3.1 2.1.6 2.9-1.4 4.5-1.7.4 1.3-.7 1.8-1.5 2.4-2.3 2-4.6 3.9-6.9 5.9-.4.3-.6.8-1.2 1.6 2.4-.4 3.3-2.1 4.7-3.2s2.8-2.3 4.3-3.5c1 2.4-.2 3.4-1.7 4.5-2.7 2-5.3 4.1-7.9 6.2-.2.2-.4.5-.4 1.1.4-.1 1-.1 1.3-.3l4.5-3.6c1.3-1 2.7-2 4.1-3 .4 1.9.4 2.2-1.2 3.1-3.9 2.3-7.4 5.1-10.8 7.9-.2.2-.4.4-.9 1 .8 0 1.4.1 1.8-.1.8-.4 1.5-.9 2.1-1.5 2.7-2.4 5.5-4.6 8.8-6.2.4 1.7.5 1.7-.5 2.5-1.5 1.3-3.2 2.4-4.7 3.7l-6.3 5.1c-.5.4-.9 1-1.8 2 .9 0 1.5.2 1.8 0 .6-.4 1.1-.9 1.6-1.4 3.1-2.5 6.3-4.9 9.4-7.4.2-.1.4-.1.8-.3.1.8.2 1.4.3 2.1.2 1.1-.2 1.8-1.2 2.6-3.4 2.4-6.6 5-9.9 7.5-.6.5-1.2 1.1-1.5 1.8-.2.3.2.9.3 1.4.4-.2 1-.2 1.2-.5 1.7-3.1 4.7-4.7 7.3-6.8 1.1-.9 2.3-1.7 3.4-2.5.2.3.4.4.4.5.6 3.7 1.3 3.2-2.4 5.3-4.5 2.6-8.3 6-12.3 9.1-.2.1-.3.4-.5.8.6 0 1 .2 1.3.1 1.1-.7 2.2-1.4 3.1-2.2 3.3-2.9 6.9-5.4 11-7.6.3.9.5 1.6-.4 2.3-1 .7-1.8 1.8-2.8 2.5-4 2.7-7.6 5.8-10.9 9.3-.6.7-1 1.5-1.6 2.3 1.1.6 1.5 0 2-.5 2.3-2.2 4.5-4.5 7-6.6 2.1-1.7 4.4-3.1 6.6-4.7 1.1 3.3.9 3.6-1.6 5.2-3.5 2.3-7.1 4.6-10.5 7.1-1.8 1.3-3.4 2.9-4.9 4.6-3.1 4-5.7 7.3-8.3 10.4zm196.8 8.9c-4.6.1-9.1.3-13.7.2-4.2-.1-8.4-.4-12.7-.6-6.2-.2-12.4-.8-18.6-.5-9 .4-18 0-27-.5-4.5-.2-9.1-.3-13.6-.4-7.9-.2-15.8-.5-23.7-.6-8.5-.1-16.9-.1-25.4-.3-5.2-.1-10.4-.7-15.6-.7-9.5 0-19-1.9-28.5-1.1-5.3.4-10.5.1-15.8-.2-.3 0-.6-.1-.9-.1.1-.7.5-1.7 1.3-2.9.2-.3.3-.5.5-.8 4.6-6.7 16.6-17.9 21.7-19.6.7.9 0 1.4-.6 1.9-3.1 2.7-6.2 5.5-9.2 8.3-1.4 1.3-2.5 2.9-3.7 4.4-.3.3-.3.8-.2 1.4.4-.3.8-.6 1.1-1 3.2-4.3 7.3-7.6 11.4-10.9 1.7-1.4 3.9-2.2 5.8-3.3.6-.4 1.2-1 1.9-1.2.6-.2 1.4-.1 2.3.1-5.4 3.9-10.7 7.8-14.8 13.5.6 0 .9 0 1-.1 3.5-4.3 7.9-7.6 12.5-10.7.5-.4 1.1-.6 1.6-1.1 2.6-2.4 5.8-2.1 9.5-2.7-3.1 2.1-5.9 3.7-8.4 5.6s-5.1 3.7-6 7.1c.2-.2.5-.4.7-.7 3.8-4 7.9-7.7 13.1-9.9.9-.4 1.6-1.2 2.7-2 1.1 0 2.7 0 4.6-.1-2.3 1.6-4.2 3.1-6.2 4.5-1.9 1.4-4 2.8-4.1 5.7.3-.3.7-.5 1-.9 3.1-4.1 7.5-6.6 11.9-9.1.9-.5 2.1-.3 3.3-.2-3.6 3.2-8 5.3-10.8 9.4.6 1 1.1.7 1.6.1 2.8-3.6 6.6-6 10.4-8.4 1.9-1.3 2.5-1.3 4.4-.7-2.5 2.2-5.7 3.6-7.2 6.9.1.2.2.3.4.5.4-.2.9-.4 1.2-.7 2.6-3.1 5.9-5.1 9.4-6.8.3-.2.7-.1 1.4.3l-2.4 2.1c-.8.7-1.7 1.4-2.5 2.2-.2.3-.2.8-.3 1.2.4-.1.9 0 1.2-.2 2-1.6 3.9-3.3 5.8-4.9.6-.5 1.4-.8 2.3-1-.2 1.5-2.2 2.1-1.8 4.3.7-.5 1.2-.8 1.6-1.2.7-.7 1.3-1.6 2.1-2.3.6-.4 1.4-.7 2.1-.7 2.4-.1 4.8 0 7.2-.1l24.2-.6c4-.1 8-.4 12-.4 2.8 0 5.6.1 8.4.4.9.1 1.8.6 2.6 1.1 1.1.7 2.1 1.7 3.3 2.7 0-.4.1-.6.2-1.3 1.4 1.1 2.5 2.1 3.7 3.1-.2-2.5-2.2-3.5-4-5.3 2.4.1 4.1 1 5.5 2.2 2.5 2.2 4.9 4.5 7.4 6.8.2.2.5.2 1.3.5-2.3-3.9-5.6-6.2-8.9-9.2 1.9.3 3.4-1 4.4 1 .1.1.2.2.4.2 3.4.2 5 3.1 7.2 5.1 1.8 1.6 3.2 3.5 4.9 5.2.2.2.6.1 1 0-3.3-3.9-6.3-8-10.8-11.4 4-.2 10 4.3 17.7 12.7.4-1.2-.4-1.9-1-2.5-2.5-2.6-5.1-5-7.7-7.5-1-.9-2.1-1.6-3.6-2.7h3.6c1.1.8 1.9 1.4 2.8 1.9 2.9 1.6 5.4 3.6 7.6 6.1s4.5 4.9 7.2 7.2c-.1-.4-.1-1-.3-1.3-4.2-4.7-7.8-9.9-13.5-13.6 1.8-.2 3.1-1 4 .9.1.3.6.5 1 .7 3.7 2.1 6.8 5 9.4 8.3 1.1 1.4 2.5 2.7 3.8 3.9.3.2.6.4 1.1.6-.6-2.4-9.1-11.2-14.1-14.8 1.8 0 3.3 0 5-.1.4 1.7 2 2.6 3.2 3.8 1.7 1.7 3.5 3.5 5.2 5.3 2.1 2.3 4.2 4.6 6.2 6.9.2.2.4.4.8.6 0-1.5-2.1-4.4-6.3-8.7-2.5-2.6-5.2-5.2-7.9-7.9h3.4c.7.9 1.3 1.9 2.1 2.5 4.7 3.4 8.4 7.8 12.1 12.2.6.7 1.2 1.3 2.1 1.7-.8-2.4-2.6-4.1-4-5.9-1.5-2-3.3-3.7-5.1-5.4-1.7-1.7-3.6-3.3-5.6-5 1.5-.3 2.5-.1 3.5.9 3.5 3.5 7.2 6.8 10.6 10.3 1.6 1.6 2.9 3.6 4.3 5.4.6.7 1.1 1.5 1.8 2.4 0-1.8-1.6-4.5-6.1-9.8-2.5-2.9-5.3-5.4-8.2-8.4 2.3.1 3.6 1.5 4.9 2.6 8.2 6.8 14.4 15.1 17.5 25.8-2.2.1-3.9.3-5.6.3zm9.6-213.8c-.1 1.7-.2 3.3-.2 5-.2 12.5-.3 25.1-.5 37.6-.2 9.5-.6 19-.9 28.5-.2 6.7-.3 13.4-.4 20.1-.2 8.4-.4 16.8-.5 25.1-.1 5.4.1 10.9.1 16.3l.3 29.7c0 2.7.3 5.4.2 8.2-.3 9.7-.8 19.5-1.2 29.2-.1 2.4-.4 4.7-.6 7.5-1.4-1.3-1.6-2.9-2.3-4.1-.8-1.4-1.4-2.9-2.3-4.2-.8-1.3-1.8-2.5-2.7-3.7-1-1.2-2-2.5-3.2-3.6-1.1-1.1-2.2-2-3.3-3.1-1.2-1.1-2.2-2.3-3.4-3.3-1.1-1-2.4-1.8-3.7-2.8.3-.6.6-1.2.9-1.9 2.8 1.8 5.1 3.8 7.1 6.2l9 10.5c.2.2.5.3.8.5-.6-2.9-9.6-12.9-18-20.1.1-.7.1-1.4.2-2.2v-2.8c4.6 3 7.5 7.2 11.4 10.5-.1-.4-.1-.9-.3-1.2-2.9-3.3-5.7-6.7-8.9-9.6-1.9-1.7-2.4-3.3-1.5-5.6 3.4 2.2 5.6 5.6 8.6 8.9-.1-.9-.1-1.4-.3-1.7-1.8-2.6-3.7-5.2-6.2-7.3-1.5-1.2-3.2-2.5-2.7-4.9.1-.3.2-.6.4-1 2.7 1.4 3.8 4.3 6.6 5.7-.2-.4-.3-1-.6-1.3-1.6-1.9-3.2-3.7-4.9-5.6-1.4-1.5-1.4-1.5-1-3.7 2.3.8 3 3.6 5.7 4.6-1.4-2.4-3-4-4.5-5.7-1.2-1.4-1.2-1.4-1-3.6 1.4 1.5 2.5 3.2 4.6 3.9.3-1.7-1.1-2.1-1.8-2.9-.8-.9-1.7-1.5-2.7-2.4v-2.6c.9.5 1.6.9 2.7 1.5-.4-2.2-2.5-3-2.8-5.1 1 .5 1.7 1 2.6 1.4.4-1.4-.5-1.9-1.1-2.4-1.3-1.1-1.7-2.3-1.6-4 .3-4.9.6-9.9.7-14.8.1-3.7 0-7.4-.1-11-.2-6.3-.6-12.6-.6-18.9 0-4.6.3-9.2.7-13.9.6-7 1-14 .5-21.1-.1-1.4 0-2.9 0-4.3-.1-3.1-.4-6.2-.5-9.3-.1-4-.3-7.9-.2-11.9.2-7.6.5-15.1.9-22.7.3-7.4.8-14.8 1.1-22.2.2-3.9.3-7.8.1-11.7-.1-2.2.5-4.2.9-6.3.2-1.1 1-2.1 1.5-3.1-.1-.2-.3-.3-.4-.5-.7.5-1.4 1-2.4 1.7 1-3 3.1-5 4.5-7.8-2.8.3-2.9 2.8-4.5 3.9-.6-.9-.3-1.6.4-2.3 1.8-2.1 3.5-4.2 5.2-6.3.5-.6.9-1.3 1.3-1.9-1.1-.8-1.5-.3-2.1.4-1.6 2.1-3.2 4.1-5 6.3-.6-2.2-.6-2.4.7-4 1.4-1.7 2.9-3.4 4.4-5.1.2-.3.4-.6.7-1-1.5-.8-2 .4-2.6 1.1-1.1 1.3-2.2 2.7-3.4 4.3-.6-1.7.3-2.3 1-3 2.5-3 5.1-6 7.6-9 .2-.2.3-.5.4-.8-1.1-.6-1.5.2-2 .8-1.9 2.2-3.7 4.4-5.6 6.6-.3.4-.8.7-1.3 1.2-.9-1.3-.2-2.3.5-3.1 3.3-3.8 6.7-7.5 10.1-11.2.3-.4.7-.8 1.2-1.4-1.3-.2-1.9.3-2.5.9-2.9 3.1-5.9 6.3-8.8 9.4-.2.2-.4.5-.9.9 0-.6-.2-1-.1-1.2 1.9-3.5 4.7-6.4 7.5-9.2 1.3-1.3 2.5-2.7 3.7-4.1.3-.3.4-.8.7-1.2-1.2-.7-1.5.2-2 .8-3.4 3.7-6.8 7.4-10.3 11.1-.5-1.9-.2-3.5 1.1-5 3.1-3.6 6-7.3 9-10.9.6-.7 1.4-1.3 2.4-2.2-1.6.1-2.3.9-3 1.7-2.7 3-5.4 6.1-8.1 9.1-.3.4-.6.7-1 1.1-.9-1-.3-1.7.3-2.3 1.5-1.8 3-3.7 4.6-5.5 2.3-2.6 4.6-5.1 6.9-7.6.3-.4.5-.8.6-1.4-2.1.9-3 2.8-4.5 4.3s-2.8 3.1-4.1 4.6c-1.4 1.6-2.8 3.2-4.4 5.1 0-1.8 1.1-2.9 1.9-4 2.1-2.9 4.1-5.9 6.3-8.7 2.4-3 4.7-6 7.4-8.8 1.7-1.8 3.8-3.3 5.8-4.9.3-.2.7-.3 1.2-.4.1 1.5.3 2.8.3 4.2.1 4.5.3 8.9.3 13.4 0 6-.2 12-.5 18-.2 5.4-.8 10.9-.7 16.3.2 8.6 1 17.2 1.3 25.8.3 4.9-.1 9.7-.2 14.5zm98.1-16.8c-.3 1.8-.5 3.7-.8 5.5-.5 3.4-1 6.8-1.4 10.2l-1.2 10.5c-.1 1.1-1.3 1.1-2 1-5.1-.6-10.2-1.4-15.3-2-2.1-.2-4.2-.1-6.3-.3-2-.2-4-.6-6-.8-4.9-.5-9.8-1.2-14.7-1.4-2.9-.1-3.7-1.6-4.5-3.9-1.1-3-2.6-5.9-3.8-8.5 1 .2 2.3.5 3.7.5 1.6.1 2.8-1.4 3.1-3.2.2-1.2-.7-2.7-2.1-3.2-.7-.3-1.5-.7-2.2-.8-1.7-.2-2.7.4-4.1 2.1-1.6-.9-1.7-1.8-.4-2.9 2.5-2.1 5.4-3.9 7.4-6.3s4.2-2.6 6.9-2.5c4.8.3 9.6.4 14.5.7 3.6.2 7.1.6 10.7 1.1 4.6.6 9.1 1.2 13.7 1.8 1.3.2 2.6.5 3.9.7.8.4 1 1 .9 1.7zm-54.4 6c1.1.1 2.5-.6 3.1.9.2.5.2 1.5-.1 1.7-.7.4-1.6.4-2.7.6.6-1.4 1.1-2.4-.3-3.2z"/><path d="M597.7 85.5c.1-.6.2-1.3.2-1.9 0-.4-.2-.8-.4-1.2-.4.3-1 .6-1.2 1-.3.7-.4 1.5-.5 2.3-2.3.3-3.3 1.8-3.7 3.8-.3 1.5.9 2.3 1.9 3.2.1.1.2.1.3.2.2.3.4.6.4.9-.1 1.7-.3 3.5-.5 5.2-2.4.1-1.2-2.4-2.4-3.3-1.3.9-1.6 4.1-.4 4.7 1.3.6 1.9 1.4 2.1 2.8.1.6.9.8 1.2.2.6-1.1 1.8-1.5 2.6-2.3 2.3-2.1 2.6-4.7 1.8-7.6-.3-1-.7-1.7-1.8-2-.7-.2-1.1-.5-.7-1.4.3-.7.3-1.6.4-2.4.1-.1.3-.1.4-.2.4.7.7 1.4 1.2 2 .3.4 1 .5 1.4.8.1-.5.4-1 .3-1.4-.1-1.7-1.2-2.7-2.6-3.4zm-2.7 4.8c-.9-1.2-.7-1.9.5-2.8-.2.9-.3 1.7-.5 2.8zm1.4 8.9c.1-2 .1-4 .2-6.2 1.5 2.2 1.3 4.9-.2 6.2zM579.4 85.2c.1 0 .2 0 .3-.1.2.5.3 1.1.5 1.5.2.3.5.5.8.8.2-.3.5-.6.5-.9 0-1.1-.2-2.2-1.2-2.7-.9-.5-1.1-1.3-1-2.2.1-.6.1-1.2.1-1.8 0-.4-.3-.8-.4-1.2-.3.3-.8.6-.9 1-.3 1.1-.4 2.1-.5 3.2-1.4.4-3.5 2.5-3.4 3.8.1 1.6.4 3.2 2.5 3.6-.5 2.3-.9 4.5-1.4 6.7-.4-.3-.5-.6-.7-.8-.2-.3-.6-.6-.9-.6s-.7.4-.7.7c-.1.9-.2 1.8.7 2.3.8.5 1.1 1.2.8 2.1-.3.8-.1 1.5.7 2.1 1.6-.7.7-2.4 1.3-3.4 2.9-.7 5.1-3.6 4.8-6.6-.2-1.6-.4-3.1-2.1-3.9-.2-.1-.3-.7-.3-1 .1-1 .3-1.8.5-2.6zm-1.6-.7c-.1 1.3-.3 2.5-.4 3.8-1.5-1.5-1.4-2.4.4-3.8zm1.4 9.7c-.2 1.2-.8 2.2-2.3 3 .5-2.5.9-4.6 1.4-7 1.4 1.3 1.1 2.7.9 4zM570.3 81.9c-.1-1.2-.2-2.3-.2-3.3-.1 0-.3-.1-.4-.1-.3.3-.8.7-.7 1 .1 1.6-.4 2.7-1.9 3.4-.3.1-.6.4-.8.7-1.6 2-1.9 5 1 6.6.4.2.5 1 .5 1.5-.1 1-.4 2.1-.7 3.1-.1 0-.2.1-.3.1-.3-.5-.5-1.1-.9-1.6-.3-.3-.7-.6-1.1-.6-.2 0-.7.6-.7.8.1.7.1 1.7.6 2 1.7 1.2 2.7 2.5 1.6 4.6-.1.3.2.9.5 1.2.2.2 1-.1 1.1-.3.3-.6.4-1.3.5-1.9 0-.9 0-1.8 1-2.2 1.5-.6 2.1-2 2.3-3.4.3-1.8.7-3.8-1.6-4.9-.2-.1-.4-.5-.4-.8.2-1.4.4-2.7.6-4.1.1 0 .2 0 .3-.1.2.5.3 1.1.5 1.6.2.4.5.7.8 1 .3-.4.8-.9.8-1.3-.5-1.2-.6-2.9-2.4-3zm-2.5 6.3c-1.3-1.8-1.1-2.8.7-4.5-.2 1.6-.4 2.9-.7 4.5zm1 6.7c.1-1.4.2-2.7.4-4.2 1 1.5.8 3.2-.4 4.2zM588.4 89.8c0-.8 0-1.7.1-2.5.4.7.7 1.2 1.2 2 .8-2.1.8-3.4-.2-4.2-.7-.6-.7-1.2-.7-2 0-.7.1-1.3.1-2 0-.4-.4-.7-.6-1.1-.3.3-.9.6-1 1-.3 1.1-.3 2.2-.5 3.3-1.8.4-2.7 1.8-2.9 3.4-.4 2.3.1 3.1 2.2 4.3-.3 1.6-.6 3.3-1 4.9-.1.3-.6.5-.9.6-.9.2-1.2.7-.7 1.4.2.3.5.5.5.5 0 1.3-.1 2.4-.1 3.4 0 .1.5.3.6.2 1.1-.4 1.1-1.5 1.4-2.5.1-.4.5-.8.8-1 .8-.6 1.8-1.1 2.5-1.8 1.8-2.1 1.5-5.6-.5-7.5-.2.1-.3-.2-.3-.4zm-1.6-3.1c-.1 1-.2 2-.3 3.1-1-1.1-1-2 .3-3.1zm-.3 11.1c.5-1.6.9-3.2 1.4-4.8.8 2.4.4 3.8-1.4 4.8z"/></g><g fill="#34A8DF"><path d="M65.5 197.4c-1.1-.2-2.3-.4-3.4-.6-.2.4-.4.6-.3.7.9 2.3 1.3 4.7 1.3 7 1.1-.5 2.1-1 3.2-1.4-.3-1.7-.5-3.3-.5-5.1-.1 0-.2-.2-.3-.6zM39.1 143.8c2.4-3.4 6.8-4.6 11.5-4.2 1.9.2 3.8 1 5.6 1.6 1.6.5 3.1 1 4.5 1.5 3.5-3.3 4.2-5.7 2.3-9.5-2.5-5.1-2-9.6.1-13.8-2 1.4-3.8 3.2-5 5.4-7 .2-13.9 2.7-19.3 7.1-2.4 1.9-4.6 4.9-3.6 7.8.6 1.7 2.4 2.8 3.9 4.1zM202.2 162.8c1.8 1.7 2.8 1.9 5.3.5 3.2-1.7 6.2-3.6 8.9-5.2-.8-2.6-2.2-5-2.2-7.4 0-2.7 1.2-5.3 2.3-8 4.4 2.2 3.1 6.2 3.6 9.9 1-1.2 1.8-2.1 2.5-2.9-1.9-4.5-3.3-9.1-2.5-13.9.2-1.3.6-2.7 1-4-.6 0-1.3.1-1.9.2-2.3.3-4.6-.3-7.1-.5-1.5 11.9-10.1 17-21.1 19.8.6.8.9 1.4 1.3 1.9l9.9 9.6zM92.3 200.2c-4.6-.2-9.1-.4-13.8-.6.2.7.3 1.4.5 2 .7.2 1.4.4 2.1.7 2.6 1.1 4.8 3.1 7.5 4.2 1.4.6 2.8.9 4.2 1-.1-.6-.1-1.1-.2-1.7-.2-1.8-.2-3.6-.3-5.6zM45.9 179.8c.9-2.4.6-4.4-.6-6.3-3.5-5.4-5.8-11.3-7.1-17.5-2.1 2.2-4.6 4.1-6.2 6.7-6.6 10.4 4.5 23.9 2 36-.7 3.6-2.5 7.6-.3 10.5.8 1 1.9 1.7 3.1 2.1 3.8 1.5 7.6 1.2 11.4 0-.1-3.1-.1-6.2 0-9.3.1-2.2.9-4.4 1.4-6.6.2-1 .6-1.9.9-2.9-.6-.5-1.1-.9-1.6-1.3-4.2-3.7-4.9-6.1-3-11.4zM104.5 199.2c.2 1.7.5 3.4.7 5.1.4-.2.7-.4 1.1-.6 4.6-2.7 8.7-6.1 13.5-8.4-.9-.6-1.7-1.3-2.6-2-3.7 3.2-8.2 4.4-12.7 5.9z"/><path d="M160.3 187.9c1.7-1.5 3.6-2.7 5.3-4.2 3-2.5 5.8-5.2 8.9-7.6 3-2.4 4.3-5.3 5-9 .7-4.1 2.3-8.1 3.4-12.2.2-.6.2-1.2.3-2-4.7 1.4-9.1 2.8-13.6 4-4.6 1.1-9.2 1.9-14.1 2.9-2-6.1-6.7-10.5-9.8-15.9-1.2-2-2.5-4-3.6-6.1-.3-.5 0-1.3 0-1.9.6.2 1.3.2 1.8.6s.9 1.2 1.2 1.8c2.1 4.5 5.2 8.4 8.2 12.3 1.1 1.5 2.1 3.1 3 4.6.6.9 1.2 1.7 2.5 1.4 8-1.9 16.4-2.6 24-6.7-2.6-2.1-5.2-4-7.5-6.2-2.5-2.4-3.7-5.7-4.7-8.9-.9-3.1-1.3-6.4-1.9-9.2-2.4.1-4.7.1-6.9.4-.8.1-1.8.5-2.4 1-3.6 3.1-7.1 3.3-10.9.7-.9-.6-2-.8-3-1.1-1.8-.6-3.8-1-5.4-2s-2-2.6-1.6-4.6c-5.5 2.4-11.1 4.3-17.1 4.5-6.7.2-13.3-1.7-19.7-3.8-.8 1.5-1.6 2.9-2.4 4.4-2.3 4-9.8 4.5-11.8-1.4-.2-.5-.4-1-.5-1.4-1.1-3.4-2.8-4.4-6.2-4.1-4.4.3-7.5 2.6-9.8 6.2-1.5 2.3-1.3 4.9-.5 7.4.7 2.4 1.7 4.9 2.1 7.4 1.1 6.3-2.7 11.1-9 12-3.5.5-6.9 0-10-1.2-3.2-1.3-5.8.4-6.7 3.4-.6 2-1 4.3-.7 6.3.5 3.7 2.3 7 4.5 10 1.6 2.2 2.1 2.3 4.7 1.2 5.1-2.1 10.1-4.6 15.2-6.6 3.8-1.5 7.8-2.6 11.8-3.4 4.3-.8 8.7-1.1 13.3-1.6.1-.4.3-1.1.2-1.6-.5-2.8 0-5.4 1-8.1 1-2.9 1.4-6 2.2-8.9.4-1.3.4-3.3 2.3-3.1 1.6.2 1.7 2.1 2 3.5.3 1.5.7 3 1 4.7 3.1-.1 6-.3 9.2-.4.8-1.7 1.7-3.6 2.7-5.6.5-1.1 1.1-2.2 1.8-3.2 1.1-1.5 2.3-1.6 3 0 1.5 3.2 2.8 6.6 4 10 .2.7-.4 1.7-.8 2.8.6.7 1.3 1.8 2.1 2.6 2.4 2.3 3.2 5.3 3.1 8.4-.1 5-1.8 9.5-5.6 13-1.5 1.4-1.9 2.5-1 4.5.7 1.6.3 3.6.4 5.7 4.8 1.3 10.3-.1 15.2 2.6 1.1-1.9 2-3.8 3-5.5.6-1 1.4-1.6 2.5-.1-1.2 1.7-2.8 3.4-2.9 6.4.7-1 1.1-1.6 1.6-2.1.5-.7 1-1.5 1.6-2.2s1.3-1 2.2-.1c-1.2 1.9-2.4 3.9-3.7 6 2.3.6 3.6-2.2 6.2-.7-1.9 1.4-3.4 2.5-5 3.7-.2 4.6-1.4 6.4-5.6 6.8.4.5.8.9 1.2 1.3 6.5 7 15.1 11.4 24.4 13.6.3-2.4.7-4.8 1-7.3.2-1.4.2-2.8.3-4.3-5.7-.8-11.3-1.6-17.3-2.4.7-.9 1-1.6 1.6-2.1 3.7-3.2 7.2-6.3 10.7-9.3zM229.2 164.6c-3.4 1.7-8 .5-9.8-3.3-.2-.4-.5-.9-.8-1.4-2.5.4-4.3 2-6.3 3.1-1.4.8-2.8 1.8-4.1 2.7-3.1 2-5 1.8-7.6-.9-3.3-3.4-6.6-6.8-10-10.1-1.2-1.2-2.5-2.5-4.6-2.5-1.1 3.9-2.2 7.7-3.3 11.6-1.1 3.7-2.2 7.5-3.3 11.3 2.5 3 4.9 5.9 7.3 8.8 4.8 5.6 9.6 11.3 14.4 16.9 1 1.2 1 1.2.1 3.3-6.1-.7-12.3-2-18.9-1.6-.5 4.2-1 8.4-1.6 12.6 5.5-.1 11.1-.7 16.4-1.9h.2c.1-.2.3-.5.4-.7.2-.4.8-.5 1.4-.9.2.3.3.7.4 1 5.3-1.6 10.6-4.8 10.7-10.1 0-2-.7-4.3.6-5.7 1-1.1 2.7-1.2 4.2-1.2 4.6 0 9.2 0 13.7-.1 3.5-10 3.7-21 .5-30.9zm1.3 14.1c-2.6 5.1-4.5 10.5-5.3 16.5-7.4.2-13.5-2.8-20.1-4.9.4-.9.6-1.6 1.1-2.1 3.8-3.7 6.9-7.8 8.3-13.1.1-.4.5-.8 1-1.5 1.1 1.7 2.5 1.7 4.2 1.8 3.6.1 7.4-.3 11.1 1.2-.2.8 0 1.5-.3 2.1zM167.1 206.9c-.3 2.2-.7 4.4-1 6.7 4.2.9 8.4 1.3 12.8 1.3.5-4.4.8-8.9 1-13.4-4 .2-7.8.4-11.8.6-.4 1.5-.8 3.1-1 4.8z"/></g></g></svg>